<svg id="add_dubarah" xmlns="http://www.w3.org/2000/svg" viewBox="0 0 109.73 24"><defs><style>.cls-1{fill:#ff3a1e;}.cls-2{fill:#fff;}</style></defs><title>Add_Dubarah</title><rect id="add_duabrah-2" data-name="add_duabrah" class="cls-1" width="109.73" height="24" rx="2.52" ry="2.52"/><rect id="add_duabrah-3" data-name="add_duabrah" class="cls-2" x="2.51" y="2.43" width="19.78" height="19.14" rx="2" ry="2"/><path id="add_duabrah-4" data-name="add_duabrah" class="cls-2" d="M72.28,41.14H73.6l3.12,8.61H75.44l-.9-2.58H71.16l-.93,2.58H69Zm1.93,5.08-1.33-3.8-1.38,3.8Z" transform="translate(-37.97 -33.54)"/><path id="add_duabrah-5" data-name="add_duabrah" class="cls-2" d="M81.08,43.66a2.82,2.82,0,0,1,.64.62V41.11h1v8.64h-.89v-.87a2.28,2.28,0,0,1-.87.84,2.48,2.48,0,0,1-1.15.26A2.33,2.33,0,0,1,78,49.1a3.46,3.46,0,0,1-.76-2.35,4.06,4.06,0,0,1,.7-2.38,2.28,2.28,0,0,1,2-1A2.22,2.22,0,0,1,81.08,43.66Zm-2.35,4.71a1.49,1.49,0,0,0,1.36.68,1.44,1.44,0,0,0,1.2-.63,3,3,0,0,0,.47-1.81,2.68,2.68,0,0,0-.48-1.76,1.51,1.51,0,0,0-1.2-.57,1.57,1.57,0,0,0-1.29.61,2.8,2.8,0,0,0-.49,1.79A3.12,3.12,0,0,0,78.73,48.37Z" transform="translate(-37.97 -33.54)"/><path id="add_duabrah-6" data-name="add_duabrah" class="cls-2" d="M87.76,43.66a2.82,2.82,0,0,1,.64.62V41.11h1v8.64h-.95v-.87a2.28,2.28,0,0,1-.87.84,2.48,2.48,0,0,1-1.15.26,2.33,2.33,0,0,1-1.81-.88,3.46,3.46,0,0,1-.76-2.35,4.06,4.06,0,0,1,.7-2.38,2.28,2.28,0,0,1,2-1A2.22,2.22,0,0,1,87.76,43.66Zm-2.35,4.71a1.49,1.49,0,0,0,1.36.68,1.44,1.44,0,0,0,1.2-.63,3,3,0,0,0,.47-1.81A2.68,2.68,0,0,0,88,44.85a1.51,1.51,0,0,0-1.2-.57,1.57,1.57,0,0,0-1.29.61A2.8,2.8,0,0,0,85,46.68a3.12,3.12,0,0,0,.42,1.69Z" transform="translate(-37.97 -33.54)"/><path id="add_duabrah-7" data-name="add_duabrah" class="cls-2" d="M99.52,41.3A2.85,2.85,0,0,1,101,42.4a3.85,3.85,0,0,1,.62,1.39,6.69,6.69,0,0,1,.16,1.43,5.74,5.74,0,0,1-.69,2.92,3.12,3.12,0,0,1-2.9,1.61H94.46V41.11h3.72A4.54,4.54,0,0,1,99.52,41.3Zm-3.31,1.31v5.64h1.62A1.8,1.8,0,0,0,99.61,47a4.43,4.43,0,0,0,.28-1.65,4,4,0,0,0-.41-2,1.75,1.75,0,0,0-1.65-.68Z" transform="translate(-37.97 -33.54)"/><path id="add_duabrah-8" data-name="add_duabrah" class="cls-2" d="M104.65,43.36v3.85a2,2,0,0,0,.13.82.89.89,0,0,0,.89.49,1.17,1.17,0,0,0,1.17-.69,2.52,2.52,0,0,0,.16-1V43.36h1.69v6.39h-1.62v-.9L107,49a1.17,1.17,0,0,1-.22.26,2.31,2.31,0,0,1-.76.48,2.57,2.57,0,0,1-.86.13,1.91,1.91,0,0,1-1.9-1,3.91,3.91,0,0,1-.27-1.66V43.39Z" transform="translate(-37.97 -33.54)"/><path id="add_duabrah-9" data-name="add_duabrah" class="cls-2" d="M115.77,44.13a3.67,3.67,0,0,1,.72,2.34,4.11,4.11,0,0,1-.71,2.47,2.57,2.57,0,0,1-3.28.68,2.53,2.53,0,0,1-.62-.66v.8h-1.65V41.14h1.67v3.07a2.45,2.45,0,0,1,.7-.68,2.09,2.09,0,0,1,1.16-.29A2.39,2.39,0,0,1,115.77,44.13ZM114.37,48a2.37,2.37,0,0,0,.36-1.37,3.07,3.07,0,0,0-.18-1.12,1.23,1.23,0,0,0-1.24-.84,1.25,1.25,0,0,0-1.26.83,3.08,3.08,0,0,0-.18,1.14,2.37,2.37,0,0,0,.37,1.36,1.26,1.26,0,0,0,1.12.54,1.16,1.16,0,0,0,1-.54Z" transform="translate(-37.97 -33.54)"/><path id="add_duabrah-10" data-name="add_duabrah" class="cls-2" d="M120.18,45.86a2.66,2.66,0,0,0,.67-.15.5.5,0,0,0,.36-.47.56.56,0,0,0-.28-.54,1.74,1.74,0,0,0-.81-.15,1.06,1.06,0,0,0-.85.29,1.21,1.21,0,0,0-.24.59h-1.61a2.44,2.44,0,0,1,.47-1.38,2.74,2.74,0,0,1,2.28-.84,4.07,4.07,0,0,1,1.87.42,1.6,1.6,0,0,1,.82,1.57v3.67a.93.93,0,0,0,.1.45.6.6,0,0,0,.25.19v.25h-1.82a1.86,1.86,0,0,1-.11-.36q0-.17,0-.39a3.45,3.45,0,0,1-.8.64,2.42,2.42,0,0,1-1.23.31,2.11,2.11,0,0,1-1.44-.5,1.76,1.76,0,0,1-.57-1.4,1.82,1.82,0,0,1,.92-1.71,4.08,4.08,0,0,1,1.48-.41Zm1,.78a1.85,1.85,0,0,1-.32.16,2.74,2.74,0,0,1-.45.11L120,47a2.5,2.5,0,0,0-.77.23.76.76,0,0,0-.39.71.74.74,0,0,0,.24.62.91.91,0,0,0,.59.19,1.75,1.75,0,0,0,1-.32,1.34,1.34,0,0,0,.48-1.15Z" transform="translate(-37.97 -33.54)"/><path id="add_duabrah-11" data-name="add_duabrah" class="cls-2" d="M127.83,43.21H128v1.71h-.48a1.39,1.39,0,0,0-1.35.66,2.55,2.55,0,0,0-.19,1.14v3h-1.68V43.38h1.59v1.11a3.53,3.53,0,0,1,.67-.87,1.83,1.83,0,0,1,1.22-.39Z" transform="translate(-37.97 -33.54)"/><path id="add_duabrah-12" data-name="add_duabrah" class="cls-2" d="M131.52,45.86a2.66,2.66,0,0,0,.67-.15.5.5,0,0,0,.36-.47.56.56,0,0,0-.28-.54,1.74,1.74,0,0,0-.81-.15,1.06,1.06,0,0,0-.85.29,1.21,1.21,0,0,0-.24.59h-1.61a2.44,2.44,0,0,1,.47-1.38,2.74,2.74,0,0,1,2.28-.84,4.07,4.07,0,0,1,1.87.42,1.6,1.6,0,0,1,.82,1.57v2.93q0,.3,0,.74a.93.93,0,0,0,.1.45.6.6,0,0,0,.25.19v.25h-1.82a1.86,1.86,0,0,1-.11-.36V49a3.45,3.45,0,0,1-.8.64,2.42,2.42,0,0,1-1.23.31,2.11,2.11,0,0,1-1.44-.5,1.76,1.76,0,0,1-.57-1.4,1.82,1.82,0,0,1,.92-1.71,4.08,4.08,0,0,1,1.48-.41Zm1,.78a1.85,1.85,0,0,1-.32.16,2.74,2.74,0,0,1-.45.11l-.38.07a2.5,2.5,0,0,0-.77.23.76.76,0,0,0-.39.71.74.74,0,0,0,.24.62.91.91,0,0,0,.59.19,1.75,1.75,0,0,0,1-.32,1.34,1.34,0,0,0,.48-1.15Z" transform="translate(-37.97 -33.54)"/><path id="dubarah" class="cls-2" d="M140.26,43.4a1.88,1.88,0,0,1,.79.63,1.66,1.66,0,0,1,.32.74,9.09,9.09,0,0,1,.06,1.24v3.75h-1.71V45.87a1.72,1.72,0,0,0-.17-.83.87.87,0,0,0-.86-.45,1.18,1.18,0,0,0-1,.44,2,2,0,0,0-.34,1.26v3.46h-1.67V41.14h1.67v3a2,2,0,0,1,.84-.78,2.36,2.36,0,0,1,1-.22A2.7,2.7,0,0,1,140.26,43.4Z" transform="translate(-37.97 -33.54)"/><path id="add" class="cls-1" d="M50.37,39a6.5,6.5,0,0,0-6.5,6.5h0a6.5,6.5,0,0,0,6.5,6.5h0a6.5,6.5,0,0,0,6.5-6.5h0a6.5,6.5,0,0,0-6.5-6.5Zm3.54,7.09H51v3H49.78v-3h-3V45h3V42H51v3h3Z" transform="translate(-37.97 -33.54)"/></svg>