<svg xmlns="http://www.w3.org/2000/svg" viewBox="0 0 172.93 44.28"><defs><style>.cls-1{fill:#fe3b1f;}.cls-2{fill:#fff;}.cls-3{fill:#ff3a1e;}</style></defs><title>Asset 15</title><g id="Layer_2" data-name="Layer 2"><g id="Layer_1-2" data-name="Layer 1"><rect class="cls-1" x="32.87" width="140.06" height="44.28" rx="2.75" ry="2.75"/><path class="cls-2" d="M45.47,0H4.61A4.62,4.62,0,0,0,0,4.61V39.5a4.62,4.62,0,0,0,4.61,4.61H45.47Z"/><polygon class="cls-3" points="25.95 18.8 25.95 8.83 19.45 8.83 19.45 18.8 9.47 18.8 9.47 25.3 19.45 25.3 19.45 35.28 25.95 35.28 25.95 25.3 35.91 25.3 36 18.8 25.95 18.8"/><path class="cls-2" d="M62.65,16.34l4.61,11.82H65.53L64.24,24.6h-5l-1.33,3.56H56.3l4.61-11.82Zm1.09,6.94-2-5.52h0l-2,5.52Z"/><path class="cls-2" d="M74.43,28.16V27h0a2.07,2.07,0,0,1-1.09,1,4.2,4.2,0,0,1-1.64.31A3.9,3.9,0,0,1,69.94,28a3.59,3.59,0,0,1-1.23-1A4.25,4.25,0,0,1,68,25.58a5.73,5.73,0,0,1-.25-1.72A6.13,6.13,0,0,1,68,22.13a3.94,3.94,0,0,1,.73-1.41,3.52,3.52,0,0,1,1.22-1,3.86,3.86,0,0,1,1.72-.36,4.73,4.73,0,0,1,.71.07,3.81,3.81,0,0,1,.76.22,3.75,3.75,0,0,1,.72.42,2.15,2.15,0,0,1,.57.63h0v-4.4h1.41V28.16Zm-5.05-3a3,3,0,0,0,.48,1,2.25,2.25,0,0,0,.82.71,2.49,2.49,0,0,0,1.19.27,2.54,2.54,0,0,0,1.21-.28,2.5,2.5,0,0,0,.81-.74,3,3,0,0,0,.45-1,4.57,4.57,0,0,0,.14-1.17,4.91,4.91,0,0,0-.15-1.22,2.94,2.94,0,0,0-.47-1,2.32,2.32,0,0,0-.83-.72,2.68,2.68,0,0,0-1.25-.28,2.37,2.37,0,0,0-1.2.29,2.11,2.11,0,0,0-.8.74,3.24,3.24,0,0,0-.43,1.06A5.58,5.58,0,0,0,69.22,24,4.16,4.16,0,0,0,69.38,25.12Z"/><path class="cls-2" d="M84.25,28.16V27h0a2.07,2.07,0,0,1-1.09,1,4.2,4.2,0,0,1-1.64.31A3.87,3.87,0,0,1,79.76,28a3.5,3.5,0,0,1-1.23-1,4.46,4.46,0,0,1-.74-1.42,6.06,6.06,0,0,1-.24-1.72,6.13,6.13,0,0,1,.24-1.73,4.09,4.09,0,0,1,.72-1.41,3.65,3.65,0,0,1,1.23-1,3.84,3.84,0,0,1,1.71-.36,4.6,4.6,0,0,1,.71.07,3.28,3.28,0,0,1,1.49.64,2.47,2.47,0,0,1,.57.63h0v-4.4h1.41V28.16Zm-5.06-3a3.42,3.42,0,0,0,.48,1,2.28,2.28,0,0,0,.83.71,2.73,2.73,0,0,0,2.39,0,2.41,2.41,0,0,0,.81-.74,3,3,0,0,0,.46-1,5.06,5.06,0,0,0,.14-1.17,4.91,4.91,0,0,0-.15-1.22,2.94,2.94,0,0,0-.47-1,2.35,2.35,0,0,0-.84-.72,2.61,2.61,0,0,0-1.24-.28,2.41,2.41,0,0,0-1.21.29,2.16,2.16,0,0,0-.79.74,3.24,3.24,0,0,0-.43,1.06A5.58,5.58,0,0,0,79,24,4.56,4.56,0,0,0,79.19,25.12Z"/><path class="cls-2" d="M97.61,16.34a6.19,6.19,0,0,1,2.13.36,4.62,4.62,0,0,1,1.7,1.1,5,5,0,0,1,1.13,1.82,7.35,7.35,0,0,1,.41,2.56,7.89,7.89,0,0,1-.34,2.39,5.19,5.19,0,0,1-1,1.89A4.68,4.68,0,0,1,100,27.71a5.71,5.71,0,0,1-2.36.45h-5.1V16.34ZM97.43,26a3.38,3.38,0,0,0,1.09-.19,2.4,2.4,0,0,0,1-.6,3.19,3.19,0,0,0,.66-1.1,5,5,0,0,0,.25-1.66,6.67,6.67,0,0,0-.18-1.61,3.14,3.14,0,0,0-.57-1.24,2.46,2.46,0,0,0-1-.78A4.23,4.23,0,0,0,97,18.53H95.11V26Z"/><path class="cls-2" d="M110.33,28.16V27h0a2.73,2.73,0,0,1-1.16,1.08,3.45,3.45,0,0,1-1.46.33,4.26,4.26,0,0,1-1.55-.25,2.23,2.23,0,0,1-1-.71,2.82,2.82,0,0,1-.49-1.11,7,7,0,0,1-.14-1.44V19.6h2.35v4.84a3,3,0,0,0,.33,1.58,1.31,1.31,0,0,0,1.18.52,1.63,1.63,0,0,0,1.39-.57,3.16,3.16,0,0,0,.43-1.88V19.6h2.35v8.56Z"/><path class="cls-2" d="M116.7,16.34v4.3h0a2.5,2.5,0,0,1,1.17-1,3.84,3.84,0,0,1,1.53-.31,3.4,3.4,0,0,1,1.28.26,3.27,3.27,0,0,1,1.13.82,4.09,4.09,0,0,1,.82,1.39,6.6,6.6,0,0,1,0,4.06,4,4,0,0,1-.82,1.4,3.37,3.37,0,0,1-1.13.81,3.23,3.23,0,0,1-1.28.27,4.5,4.5,0,0,1-1.69-.3,2.17,2.17,0,0,1-1.12-1h0v1.09h-2.23V16.34Zm3.81,6.51a2.68,2.68,0,0,0-.37-.88,1.9,1.9,0,0,0-.62-.61,1.93,1.93,0,0,0-1.79,0,1.84,1.84,0,0,0-.63.61,2.68,2.68,0,0,0-.37.88,5,5,0,0,0-.11,1,5.07,5.07,0,0,0,.11,1,2.63,2.63,0,0,0,.37.87,1.75,1.75,0,0,0,.63.61,1.93,1.93,0,0,0,1.79,0,1.81,1.81,0,0,0,.62-.61,2.63,2.63,0,0,0,.37-.87,4.92,4.92,0,0,0,0-2.07Z"/><path class="cls-2" d="M124.37,22.23a2.7,2.7,0,0,1,.41-1.37,2.8,2.8,0,0,1,.93-.88,3.87,3.87,0,0,1,1.26-.47,7.51,7.51,0,0,1,1.42-.14,9.72,9.72,0,0,1,1.31.09,4,4,0,0,1,1.21.36,2.35,2.35,0,0,1,.89.73,2.08,2.08,0,0,1,.35,1.25v4.46a10,10,0,0,0,.06,1.11,2.11,2.11,0,0,0,.24.79h-2.39c0-.13-.08-.27-.11-.4s0-.28,0-.43a3,3,0,0,1-1.33.81,5.17,5.17,0,0,1-1.55.24,4.26,4.26,0,0,1-1.15-.15,2.59,2.59,0,0,1-.92-.47,2.13,2.13,0,0,1-.63-.79,2.83,2.83,0,0,1-.22-1.14,2.48,2.48,0,0,1,.26-1.2,2.13,2.13,0,0,1,.66-.76,3,3,0,0,1,.93-.42,9.32,9.32,0,0,1,1-.22c.35-.06.7-.1,1-.14A6.74,6.74,0,0,0,129,23a1.68,1.68,0,0,0,.63-.29.64.64,0,0,0,.22-.56,1.16,1.16,0,0,0-.13-.6.86.86,0,0,0-.33-.35,1.44,1.44,0,0,0-.48-.17,5.3,5.3,0,0,0-.59,0,1.78,1.78,0,0,0-1.09.3,1.33,1.33,0,0,0-.46,1ZM129.8,24a1.07,1.07,0,0,1-.38.21,3.06,3.06,0,0,1-.48.12c-.17,0-.35.06-.53.09l-.57.08a4.94,4.94,0,0,0-.52.13,1.59,1.59,0,0,0-.45.23,1.14,1.14,0,0,0-.3.35,1.12,1.12,0,0,0-.12.55,1.09,1.09,0,0,0,.12.53,1,1,0,0,0,.31.34,1.38,1.38,0,0,0,.47.17,3.1,3.1,0,0,0,.54.05,2.14,2.14,0,0,0,1.08-.23,1.58,1.58,0,0,0,.56-.56,1.81,1.81,0,0,0,.23-.65c0-.22,0-.4,0-.53Z"/><path class="cls-2" d="M136.2,19.6v1.59h0a2.84,2.84,0,0,1,1.09-1.32,3.11,3.11,0,0,1,.78-.37,2.71,2.71,0,0,1,.86-.13,2.05,2.05,0,0,1,.51.08v2.19l-.4-.06-.44,0a2.6,2.6,0,0,0-1.1.22,2,2,0,0,0-.72.59,2.29,2.29,0,0,0-.38.87,4.55,4.55,0,0,0-.12,1.07v3.86H134V19.6Z"/><path class="cls-2" d="M140.31,22.23a2.7,2.7,0,0,1,.41-1.37,3,3,0,0,1,.93-.88,4,4,0,0,1,1.27-.47,7.49,7.49,0,0,1,1.41-.14,9.72,9.72,0,0,1,1.31.09,3.88,3.88,0,0,1,1.21.36,2.35,2.35,0,0,1,.89.73,2,2,0,0,1,.35,1.25v4.46a8.07,8.07,0,0,0,.07,1.11,2,2,0,0,0,.23.79H146a2,2,0,0,1-.11-.4,3,3,0,0,1-.06-.43,3,3,0,0,1-1.33.81,5.07,5.07,0,0,1-1.55.24,4.14,4.14,0,0,1-1.14-.15,2.55,2.55,0,0,1-.93-.47,2.1,2.1,0,0,1-.62-.79,2.66,2.66,0,0,1-.23-1.14,2.48,2.48,0,0,1,.26-1.2,2.13,2.13,0,0,1,.66-.76,3,3,0,0,1,.93-.42,9.81,9.81,0,0,1,1.05-.22c.36-.06.7-.1,1.05-.14a7,7,0,0,0,.91-.14,1.84,1.84,0,0,0,.63-.29.67.67,0,0,0,.21-.56,1.28,1.28,0,0,0-.12-.6,1,1,0,0,0-.34-.35,1.3,1.3,0,0,0-.48-.17,5.11,5.11,0,0,0-.58,0,1.8,1.8,0,0,0-1.1.3,1.33,1.33,0,0,0-.46,1ZM145.74,24a1,1,0,0,1-.37.21,3.37,3.37,0,0,1-.48.12c-.17,0-.35.06-.54.09l-.56.08a5.11,5.11,0,0,0-.53.13,1.41,1.41,0,0,0-.44.23,1,1,0,0,0-.31.35,1.12,1.12,0,0,0-.11.55,1.09,1.09,0,0,0,.11.53,1,1,0,0,0,.32.34,1.26,1.26,0,0,0,.46.17,3.31,3.31,0,0,0,.55.05,2.1,2.1,0,0,0,1.07-.23,1.61,1.61,0,0,0,.57-.56,1.79,1.79,0,0,0,.22-.65,4,4,0,0,0,0-.53Z"/><path class="cls-2" d="M152.26,16.34v4.45h.05a2.77,2.77,0,0,1,1.15-1.08,3,3,0,0,1,1.35-.34,4,4,0,0,1,1.55.26,2.23,2.23,0,0,1,.95.71,2.69,2.69,0,0,1,.49,1.11,7.13,7.13,0,0,1,.14,1.45v5.26h-2.35V23.33a3,3,0,0,0-.33-1.58,1.28,1.28,0,0,0-1.18-.53,1.61,1.61,0,0,0-1.39.58,3.2,3.2,0,0,0-.43,1.87v4.49h-2.35V16.34Z"/></g></g></svg>