<svg id="Layer_1" data-name="Layer 1" xmlns="http://www.w3.org/2000/svg" viewBox="0 0 76.59 74.12"><defs><style>.cls-1{fill:#27b899;}.cls-2{fill:#fff;}</style></defs><title>bag</title><path class="cls-1" d="M626.17,233.07H565.08a7.75,7.75,0,0,0-7.75,7.75v58.62a7.75,7.75,0,0,0,7.75,7.75h61.09a7.75,7.75,0,0,0,7.75-7.75V240.83A7.75,7.75,0,0,0,626.17,233.07Z" transform="translate(-557.33 -233.07)"/><path class="cls-2" d="M614.52,265.56q0,4.5,0,9c0,4,0,8.08,0,12.12,0,1.81-.28,2.09-2.08,2.1H579.15c-.34,0-.68,0-1,0a1.21,1.21,0,0,1-1.28-1.29c0-.8-.13-1.59-.12-2.38q0-8.69.11-17.38a7.6,7.6,0,0,1,.25-2.26l.83,1.58a25.87,25.87,0,0,0,4.24,6.36,12.73,12.73,0,0,0,8.52,3.79l2.2.17c.2.72.33,1.32.53,1.91a2.22,2.22,0,0,0,2.26,1.73,2.33,2.33,0,0,0,2.25-1.75,2.69,2.69,0,0,0,.18-.83c0-.88.5-1.17,1.31-1.2a21.21,21.21,0,0,0,2.72-.21,12.61,12.61,0,0,0,8.51-5.49c1-1.44,1.82-3,2.71-4.53.28-.48.52-1,.78-1.47Z" transform="translate(-557.33 -233.07)"/><path class="cls-2" d="M612.35,262.73c-1.08,5.88-5.81,10.94-11,11.93a9.15,9.15,0,0,1-1.52.15c-1.44,0-1.43,0-1.73-1.41a5.2,5.2,0,0,0-.36-1.13,2.18,2.18,0,0,0-4.2.14,19.54,19.54,0,0,0-.61,2.29,9.55,9.55,0,0,1-5.57-.77,12.07,12.07,0,0,1-3.4-2.2c-2.53-2.39-3.87-5.53-5.3-8.93a15.6,15.6,0,0,1,1.93-.26q10.06,0,20.13,0c3.3,0,6.6,0,9.89,0A15.85,15.85,0,0,1,612.35,262.73Z" transform="translate(-557.33 -233.07)"/><path class="cls-2" d="M595.56,251.49c2.56,0,5.12,0,7.68,0,2.35,0,3.46,1.1,3.51,3.43,0,1.19,0,2.39,0,3.59a1.27,1.27,0,0,1-1.32,1.44l-.85.05c-2.27.06-2.55-.2-2.62-2.46-.05-1.77-.13-1.86-1.83-1.87-3.07,0-6.15,0-9.22,0-1.51,0-1.63.16-1.68,1.67-.08,2.54-.37,2.81-2.9,2.66-1.6-.1-1.87-.35-1.9-1.94,0-1.14,0-2.28,0-3.41a3,3,0,0,1,3.1-3.13c2.67-.05,5.35,0,8,0Z" transform="translate(-557.33 -233.07)"/></svg>