<svg xmlns="http://www.w3.org/2000/svg" viewBox="0 0 28.65 28.47"><defs><style>.cls-1{fill:#fff;}</style></defs><title>Asset 17</title><g id="Layer_2" data-name="Layer 2"><g id="Layer_1-2" data-name="Layer 1"><path class="cls-1" d="M25.7,28.47H3A3,3,0,0,1,.28,26.72,3,3,0,0,1,.73,23.5c1.06-1.24,2-3.21,2-9.1C2.77,5.49,8,2.88,11.12,2.12A3.32,3.32,0,0,1,14.26,0a3.38,3.38,0,0,1,3.17,2.11c3.11.76,8.32,3.37,8.32,12.28,0,6,1,8,2.16,9.23a2.86,2.86,0,0,1,.48,3.11A2.91,2.91,0,0,1,25.7,28.47ZM13.79,3.16l.26,1.36-1.47.22c-3.17.49-6.95,2.55-6.95,9.66,0,5.51-.79,8.69-2.72,11a.12.12,0,0,0,0,.16.14.14,0,0,0,.14.09H25.7a.06.06,0,0,0,.05,0c-2.06-2.39-2.87-5.51-2.87-11.2,0-7.11-3.75-9.17-6.91-9.65l-1.22-.18V3.14c0-.1-.21-.28-.5-.28A.44.44,0,0,0,13.79,3.16Z"/></g></g></svg>