<svg id="Layer_1" data-name="Layer 1" xmlns="http://www.w3.org/2000/svg" viewBox="0 0 76.59 74.12"><defs><style>.cls-1{fill:#00d4ff;}.cls-2{fill:#fff;}</style></defs><title>blog</title><path class="cls-1" d="M459.51,478.4H398.42a7.75,7.75,0,0,0-7.75,7.75v58.62a7.75,7.75,0,0,0,7.75,7.75h61.09a7.75,7.75,0,0,0,7.75-7.75V486.15A7.75,7.75,0,0,0,459.51,478.4Z" transform="translate(-390.67 -478.4)"/><polygon class="cls-2" points="15.88 59.33 16.92 52.05 17.96 44.76 24.21 51.01 30.46 57.26 23.17 58.3 15.88 59.33"/><polygon class="cls-2" points="51.28 32.21 32.52 50.97 30.44 48.89 49.19 30.13 45.02 25.96 26.27 44.71 24.18 42.63 42.94 23.87 40.86 21.79 20.02 42.63 32.52 55.13 53.36 34.29 51.28 32.21"/><path class="cls-2" d="M450.58,506.49a2.89,2.89,0,0,0-.08-4.08l-8.33-8.34a2.9,2.9,0,0,0-4.08-.08,2.62,2.62,0,0,0-.21.3l0-.05-4,4,12.5,12.5,4-4-.05-.06A2.13,2.13,0,0,0,450.58,506.49Z" transform="translate(-390.67 -478.4)"/></svg>