<svg id="Layer_1" data-name="Layer 1" xmlns="http://www.w3.org/2000/svg" viewBox="0 0 76.59 74.12"><defs><style>.cls-1{fill:#606060;}.cls-2{fill:#e55325;}.cls-3{fill:#fff;}</style></defs><title>bus</title><polygon class="cls-1" points="40.55 23.32 35.98 23.32 35.98 34.78 24.52 34.78 24.52 39.35 35.98 39.35 35.98 50.81 40.55 50.81 40.55 39.35 52.01 39.35 52.07 34.78 40.55 34.78 40.55 23.32"/><path class="cls-2" d="M459.51,357.22H398.42a7.75,7.75,0,0,0-7.75,7.75v58.62a7.75,7.75,0,0,0,7.75,7.75h61.09a7.75,7.75,0,0,0,7.75-7.75V365A7.75,7.75,0,0,0,459.51,357.22Z" transform="translate(-390.67 -357.22)"/><path id="shop" class="cls-3" d="M451.13,387.38l-4.31-5.75a4.28,4.28,0,0,0-.58-.61v-6.88a2.88,2.88,0,0,0-2.88-2.88H414.58a2.88,2.88,0,0,0-2.88,2.88V381a4.26,4.26,0,0,0-.57.6l-4.31,5.75a4.33,4.33,0,0,0-.87,2.59v1.44a4.32,4.32,0,0,0,4.32,4.32h0v18.71a2.88,2.88,0,0,0,2.88,2.88H444.8a2.88,2.88,0,0,0,2.88-2.88V395.72h0a4.32,4.32,0,0,0,4.32-4.32V390A4.34,4.34,0,0,0,451.13,387.38Zm-7.77-13.24v5.76H414.58v-5.76Zm-22.74,18.71h-6l5.76-10.07h3.15ZM425,382.77h3.26v10.07h-6.14Zm4.7,0h3.26l2.88,10.07h-6.14Zm4.76,0h3.15l5.76,10.07h-6Zm-25.62,8.63V390a1.43,1.43,0,0,1,.29-.86l4.32-5.76a1.44,1.44,0,0,1,1.15-.58h4.1l-5.76,10.07h-2.67A1.44,1.44,0,0,1,408.82,391.41Zm25.9,23H423.93V400h10.79Zm10.07,0h-8.63V400a1.44,1.44,0,0,0-1.44-1.44H423.93a1.44,1.44,0,0,0-1.44,1.44v14.39h-9.35V395.72H444.8Zm4.32-23a1.44,1.44,0,0,1-1.44,1.44H445l-5.76-10.07h4.11a1.44,1.44,0,0,1,1.15.58l4.32,5.76a1.43,1.43,0,0,1,.29.86Z" transform="translate(-390.67 -357.22)"/></svg>