<svg xmlns="http://www.w3.org/2000/svg" viewBox="0 0 330.82 179.55"><defs><style>.cls-1{fill:#ffd586;}.cls-2{fill:#ffb936;}.cls-3{fill:#58595b;}.cls-4{fill:#bf8b29;}.cls-5{fill:#fff;}.cls-6{fill:#e6e7e8;}.cls-7{fill:#00d4ff;}.cls-8{fill:#9ef;}.cls-9{fill:#d1d3d4;}.cls-10{fill:#f7c623;}</style></defs><title>Asset 5</title><g id="Layer_2" data-name="Layer 2"><g id="Layer_1-2" data-name="Layer 1"><g id="_Group_" data-name="&lt;Group&gt;"><g id="_Group_2" data-name="&lt;Group&gt;"><g id="_Group_3" data-name="&lt;Group&gt;"><path class="cls-1" d="M235.52,115.26h51.57a1.11,1.11,0,0,1,1.11,1.11v53.06a0,0,0,0,1,0,0H234.42a0,0,0,0,1,0,0V116.37A1.11,1.11,0,0,1,235.52,115.26Z"/></g><g id="_Group_4" data-name="&lt;Group&gt;"><polygon class="cls-2" points="288.2 169.42 234.41 169.42 233.1 178.18 289.51 178.18 288.2 169.42"/></g><g id="_Group_5" data-name="&lt;Group&gt;"><path id="_Path_" data-name="&lt;Path&gt;" class="cls-3" d="M289.57,169.42h-2.76V116.64H239.27v-2.76H287a2.56,2.56,0,0,1,2.56,2.56Z"/></g><g id="_Group_6" data-name="&lt;Group&gt;"><polygon id="_Path_2" data-name="&lt;Path&gt;" class="cls-3" points="291.11 179.55 231.59 179.55 232.23 172.5 234.98 172.75 234.61 176.8 287.91 176.8 287.01 170.8 248.46 170.8 248.46 168.05 289.38 168.05 291.11 179.55"/></g><g id="_Group_7" data-name="&lt;Group&gt;"><circle class="cls-4" cx="244.44" cy="124.09" r="2.97"/></g><g id="_Group_8" data-name="&lt;Group&gt;"><circle class="cls-4" cx="278.17" cy="124.09" r="2.97"/></g><g id="_Group_9" data-name="&lt;Group&gt;"><path id="_Path_3" data-name="&lt;Path&gt;" class="cls-3" d="M279.55,124.09H276.8v-6.29a15.49,15.49,0,0,0-31,0v6.29h-2.76v-6.29a18.24,18.24,0,0,1,36.49,0Z"/></g></g><g id="_Group_10" data-name="&lt;Group&gt;"><g id="_Group_11" data-name="&lt;Group&gt;"><path id="_Compound_Path_" data-name="&lt;Compound Path&gt;" class="cls-3" d="M72.77,127.74,71,126.87c-1.2-.57-11.77-5.68-13.88-9.35A8.49,8.49,0,1,1,71.77,109h0A14,14,0,0,1,73,114.66a84.44,84.44,0,0,1-.11,11.08Zm-8.35-20.18a5.73,5.73,0,0,0-5,8.59c1.1,1.91,6.63,5.17,10.84,7.32a73.94,73.94,0,0,0,0-8.61c-.22-2.89-.66-4-.9-4.45h0A5.74,5.74,0,0,0,64.41,107.56Z"/></g><g id="_Group_12" data-name="&lt;Group&gt;"><path id="_Path_4" data-name="&lt;Path&gt;" class="cls-3" d="M72.85,126.87l-1.18-2.49c4.23-2,11.41-6,12.68-8.23a5.73,5.73,0,1,0-9.93-5.73L72,109a8.49,8.49,0,0,1,14.7,8.49C84.62,121.19,74,126.3,72.85,126.87Z"/></g><g id="_Group_13" data-name="&lt;Group&gt;"><path class="cls-5" d="M45.62,129.16H98.25a0,0,0,0,1,0,0v45.36a3.34,3.34,0,0,1-3.34,3.34H49a3.34,3.34,0,0,1-3.34-3.34V129.16a0,0,0,0,1,0,0Z"/></g><g id="_Group_14" data-name="&lt;Group&gt;"><path id="_Path_5" data-name="&lt;Path&gt;" class="cls-3" d="M94.92,179.24H49a4.72,4.72,0,0,1-4.71-4.71v-1.84H47v1.84a2,2,0,0,0,2,2h46a2,2,0,0,0,2-2v-44H47v27.74H44.24V127.78H99.63v46.74A4.72,4.72,0,0,1,94.92,179.24Z"/></g><g id="_Group_15" data-name="&lt;Group&gt;"><rect id="_Path_6" data-name="&lt;Path&gt;" class="cls-3" x="44.24" y="161.63" width="2.76" height="8.2"/></g><g id="_Group_16" data-name="&lt;Group&gt;"><rect class="cls-6" x="42.68" y="123.94" width="58.46" height="9.54" rx="2" ry="2"/></g><g id="_Group_17" data-name="&lt;Group&gt;"><path id="_Path_7" data-name="&lt;Path&gt;" class="cls-3" d="M92.7,134.86h-48a3.38,3.38,0,0,1-3.38-3.38v-5.53a3.38,3.38,0,0,1,3.38-3.38h48v2.76h-48a.63.63,0,0,0-.63.63v5.53a.63.63,0,0,0,.63.63h48Z"/></g><g id="_Group_18" data-name="&lt;Group&gt;"><rect class="cls-2" x="66.19" y="123.94" width="12.54" height="53.92"/></g><g id="_Group_19" data-name="&lt;Group&gt;"><path id="_Compound_Path_2" data-name="&lt;Compound Path&gt;" class="cls-3" d="M80.11,179.24H64.82V122.56h15.3Zm-12.54-2.76h9.79V125.32H67.57Z"/></g><g id="_Group_20" data-name="&lt;Group&gt;"><rect id="_Path_8" data-name="&lt;Path&gt;" class="cls-3" x="65.52" y="127.54" width="13.16" height="2.75" transform="translate(-54.81 53.33) rotate(-30)"/></g><g id="_Group_21" data-name="&lt;Group&gt;"><rect id="_Path_9" data-name="&lt;Path&gt;" class="cls-3" x="65.82" y="133.87" width="13.41" height="2.75" transform="translate(-57.91 54.39) rotate(-30)"/></g><g id="_Group_22" data-name="&lt;Group&gt;"><rect id="_Path_10" data-name="&lt;Path&gt;" class="cls-3" x="65.76" y="140.46" width="13.41" height="2.75" transform="translate(-61.22 55.25) rotate(-30)"/></g><g id="_Group_23" data-name="&lt;Group&gt;"><rect id="_Path_11" data-name="&lt;Path&gt;" class="cls-3" x="65.71" y="147.06" width="13.41" height="2.75" transform="translate(-64.52 56.11) rotate(-30)"/></g><g id="_Group_24" data-name="&lt;Group&gt;"><rect id="_Path_12" data-name="&lt;Path&gt;" class="cls-3" x="65.66" y="153.66" width="13.41" height="2.75" transform="translate(-67.83 56.96) rotate(-30)"/></g><g id="_Group_25" data-name="&lt;Group&gt;"><rect id="_Path_13" data-name="&lt;Path&gt;" class="cls-3" x="65.61" y="160.25" width="13.41" height="2.75" transform="translate(-71.14 57.82) rotate(-30)"/></g><g id="_Group_26" data-name="&lt;Group&gt;"><rect id="_Path_14" data-name="&lt;Path&gt;" class="cls-3" x="65.55" y="166.85" width="13.41" height="2.75" transform="translate(-74.44 58.67) rotate(-30)"/></g><g id="_Group_27" data-name="&lt;Group&gt;"><rect id="_Path_15" data-name="&lt;Path&gt;" class="cls-3" x="65.5" y="173.45" width="13.41" height="2.75" transform="translate(-77.74 59.53) rotate(-30)"/></g></g><g id="_Group_28" data-name="&lt;Group&gt;"><g id="_Group_29" data-name="&lt;Group&gt;"><path id="_Path_16" data-name="&lt;Path&gt;" class="cls-3" d="M96.75,32.89H88.9a1.38,1.38,0,1,1,0-2.76h7.85a1.38,1.38,0,0,1,0,2.76Z"/></g><g id="_Group_30" data-name="&lt;Group&gt;"><path id="_Path_17" data-name="&lt;Path&gt;" class="cls-3" d="M92.83,36.81a1.38,1.38,0,0,1-1.38-1.38V27.59a1.38,1.38,0,1,1,2.76,0v7.85A1.38,1.38,0,0,1,92.83,36.81Z"/></g></g><g id="_Group_31" data-name="&lt;Group&gt;"><g id="_Group_32" data-name="&lt;Group&gt;"><path id="_Path_18" data-name="&lt;Path&gt;" class="cls-3" d="M224.48,47.39h-7.85a1.38,1.38,0,0,1,0-2.76h7.85a1.38,1.38,0,0,1,0,2.76Z"/></g><g id="_Group_33" data-name="&lt;Group&gt;"><path id="_Path_19" data-name="&lt;Path&gt;" class="cls-3" d="M220.55,51.32a1.38,1.38,0,0,1-1.38-1.38V42.09a1.38,1.38,0,1,1,2.76,0v7.85A1.38,1.38,0,0,1,220.55,51.32Z"/></g></g><g id="_Group_34" data-name="&lt;Group&gt;"><g id="_Group_35" data-name="&lt;Group&gt;"><path id="_Path_20" data-name="&lt;Path&gt;" class="cls-3" d="M292,66.54a1.38,1.38,0,0,1-1-2.35l5.55-5.55a1.38,1.38,0,0,1,1.95,1.95L293,66.13A1.37,1.37,0,0,1,292,66.54Z"/></g><g id="_Group_36" data-name="&lt;Group&gt;"><path id="_Path_21" data-name="&lt;Path&gt;" class="cls-3" d="M297.58,66.54a1.37,1.37,0,0,1-1-.4l-5.55-5.55A1.38,1.38,0,1,1,293,58.63l5.55,5.55a1.38,1.38,0,0,1-1,2.35Z"/></g></g><g id="_Group_37" data-name="&lt;Group&gt;"><g id="_Group_38" data-name="&lt;Group&gt;"><path id="_Path_22" data-name="&lt;Path&gt;" class="cls-3" d="M132.59,9.78a1.38,1.38,0,0,1-1-2.35l5.55-5.55a1.38,1.38,0,1,1,1.95,1.95l-5.55,5.55A1.37,1.37,0,0,1,132.59,9.78Z"/></g><g id="_Group_39" data-name="&lt;Group&gt;"><path id="_Path_23" data-name="&lt;Path&gt;" class="cls-3" d="M138.15,9.78a1.37,1.37,0,0,1-1-.4l-5.55-5.55a1.38,1.38,0,1,1,1.95-1.95l5.55,5.55a1.38,1.38,0,0,1-1,2.35Z"/></g></g><g id="_Group_40" data-name="&lt;Group&gt;"><g id="_Group_41" data-name="&lt;Group&gt;"><path id="_Path_24" data-name="&lt;Path&gt;" class="cls-3" d="M1.38,96.37A1.38,1.38,0,0,1,.4,94L6,88.46A1.38,1.38,0,1,1,7.9,90.41L2.35,96A1.37,1.37,0,0,1,1.38,96.37Z"/></g><g id="_Group_42" data-name="&lt;Group&gt;"><path id="_Path_25" data-name="&lt;Path&gt;" class="cls-3" d="M6.93,96.37A1.37,1.37,0,0,1,6,96L.4,90.41a1.38,1.38,0,1,1,1.95-1.95L7.9,94a1.38,1.38,0,0,1-1,2.35Z"/></g></g><g id="_Group_43" data-name="&lt;Group&gt;"><rect id="_Path_26" data-name="&lt;Path&gt;" class="cls-3" x="149.84" y="4.25" width="74.79" height="2.76"/></g><g id="_Group_44" data-name="&lt;Group&gt;"><rect id="_Path_27" data-name="&lt;Path&gt;" class="cls-3" x="111.61" y="30.13" width="31.95" height="2.76"/></g><g id="_Group_45" data-name="&lt;Group&gt;"><rect id="_Path_28" data-name="&lt;Path&gt;" class="cls-3" x="1.38" y="73.55" width="54.17" height="2.76"/></g><g id="_Group_46" data-name="&lt;Group&gt;"><rect id="_Path_29" data-name="&lt;Path&gt;" class="cls-3" x="254.68" y="61.01" width="31.95" height="2.76"/></g><g id="_Group_47" data-name="&lt;Group&gt;"><rect id="_Path_30" data-name="&lt;Path&gt;" class="cls-3" x="102.3" y="30.13" width="6.56" height="2.76"/></g><g id="_Group_48" data-name="&lt;Group&gt;"><circle class="cls-5" cx="21.35" cy="139.12" r="2.24"/></g><g id="_Group_49" data-name="&lt;Group&gt;"><circle class="cls-3" cx="61.12" cy="74.93" r="3.09"/></g><g id="_Group_50" data-name="&lt;Group&gt;"><circle class="cls-3" cx="224.63" cy="25.96" r="3.09"/></g><g id="_Group_51" data-name="&lt;Group&gt;"><circle class="cls-3" cx="327.72" cy="65.16" r="3.09"/></g><g id="_Group_52" data-name="&lt;Group&gt;"><circle class="cls-3" cx="27" cy="38.97" r="1.97"/></g><g id="_Group_53" data-name="&lt;Group&gt;"><circle class="cls-3" cx="197.86" cy="50.45" r="1.97"/></g><g id="_Group_54" data-name="&lt;Group&gt;"><circle class="cls-5" cx="316.21" cy="132.34" r="1.97"/></g><g id="_Group_55" data-name="&lt;Group&gt;"><circle class="cls-3" cx="97.34" cy="2.25" r="2.25"/></g><g id="_Group_56" data-name="&lt;Group&gt;"><path id="_Path_31" data-name="&lt;Path&gt;" class="cls-3" d="M245.59,172l1.11-6.77h-6.17V113.88h-1.25v1.38h-3.75a1.11,1.11,0,0,0-1.11,1.11v53.06l-.49,3.23-1.7-.15-.64,7h5.1A9,9,0,0,0,245.59,172Z"/></g><g id="_Group_57" data-name="&lt;Group&gt;"><path id="_Path_32" data-name="&lt;Path&gt;" class="cls-3" d="M99.63,174.53V133.38a2,2,0,0,0,1.5-1.9v-5.53a2,2,0,0,0-2-2H92.7v-1.38H90.22v42.67H83.29l1.24,7.55a8,8,0,0,0,5.84,6.46h4.55A4.72,4.72,0,0,0,99.63,174.53Z"/></g><g id="_Group_58" data-name="&lt;Group&gt;"><g id="_Group_59" data-name="&lt;Group&gt;"><rect class="cls-3" x="95.27" y="71.81" width="140.2" height="100.77" rx="1.84" ry="1.84"/></g><g id="_Group_60" data-name="&lt;Group&gt;"><path id="_Path_33" data-name="&lt;Path&gt;" class="cls-3" d="M232,174H98.76a4.87,4.87,0,0,1-4.86-4.86V75.29a4.87,4.87,0,0,1,4.86-4.86H113.5v2.76H98.76a2.11,2.11,0,0,0-2.11,2.11V169.1a2.11,2.11,0,0,0,2.11,2.11H232a2.11,2.11,0,0,0,2.11-2.11V75.29A2.11,2.11,0,0,0,232,73.19H217.23V70.43H232a4.87,4.87,0,0,1,4.86,4.86V169.1A4.87,4.87,0,0,1,232,174Z"/></g><g id="_Group_61" data-name="&lt;Group&gt;"><rect class="cls-5" x="102.08" y="79.74" width="125.82" height="81.78"/></g><g id="_Group_62" data-name="&lt;Group&gt;"><path class="cls-5" d="M233,178.18H96.18a6.71,6.71,0,0,1-6.62-5.62l-1-5.95H152l2.43,3.48H172l2.62-3.48H241.4l-.85,5.17A7.63,7.63,0,0,1,233,178.18Z"/></g><g id="_Group_63" data-name="&lt;Group&gt;"><path id="_Compound_Path_3" data-name="&lt;Compound Path&gt;" class="cls-3" d="M233,179.55H96.18a8.06,8.06,0,0,1-8-6.78L87,165.23h65.77l2.43,3.48h16.12l2.62-3.48H243L241.91,172A9,9,0,0,1,233,179.55ZM90.21,168l.71,4.35a5.31,5.31,0,0,0,5.26,4.47H233a6.23,6.23,0,0,0,6.17-5.24l.59-3.57H175.27l-2.62,3.48H153.72L151.29,168Z"/></g><g id="_Group_64" data-name="&lt;Group&gt;"><g id="_Group_65" data-name="&lt;Group&gt;"><polygon class="cls-5" points="109.99 58.68 109.99 63.91 116.78 69.12 116.78 79.71 213.76 79.71 213.76 69.12 220.55 63.91 220.55 58.68 109.99 58.68"/></g><g id="_Group_66" data-name="&lt;Group&gt;"><polygon id="_Path_34" data-name="&lt;Path&gt;" class="cls-3" points="215.14 79.71 212.38 79.71 212.38 68.44 219.18 63.23 219.18 60.06 111.36 60.06 111.36 63.23 118.16 68.44 118.16 79.71 115.4 79.71 115.4 69.8 108.61 64.59 108.61 57.3 221.93 57.3 221.93 64.59 215.14 69.8 215.14 79.71"/></g><g id="_Group_67" data-name="&lt;Group&gt;"><rect id="_Path_35" data-name="&lt;Path&gt;" class="cls-3" x="180.98" y="67.82" width="33.75" height="2.76"/></g><g id="_Group_68" data-name="&lt;Group&gt;"><path class="cls-5" d="M119.56,82.47h91.84a2.47,2.47,0,0,1,2.47,2.47v74.21a0,0,0,0,1,0,0H117.08a0,0,0,0,1,0,0V84.94A2.47,2.47,0,0,1,119.56,82.47Z"/></g><g id="_Group_69" data-name="&lt;Group&gt;"><path id="_Path_36" data-name="&lt;Path&gt;" class="cls-3" d="M215.24,160.53H115.71V85.35a4.56,4.56,0,0,1,4.81-4.26h7.65v2.76h-7.65c-1.11,0-2.05.69-2.05,1.51v72.42h94V85.35c0-.82-.94-1.51-2.05-1.51H155.3V81.09h55.13a4.57,4.57,0,0,1,4.81,4.26Z"/></g><g id="_Group_70" data-name="&lt;Group&gt;"><rect class="cls-3" x="112.74" y="154.34" width="105.47" height="7.36" rx="1.77" ry="1.77"/></g><g id="_Group_71" data-name="&lt;Group&gt;"><path id="_Path_37" data-name="&lt;Path&gt;" class="cls-3" d="M219.58,161.76h-2.76v-5.65a.4.4,0,0,0-.39-.4H114.51a.4.4,0,0,0-.4.4v5.65h-2.76v-5.65a3.15,3.15,0,0,1,3.15-3.15H216.43a3.15,3.15,0,0,1,3.15,3.15Z"/></g><g id="_Group_72" data-name="&lt;Group&gt;"><rect class="cls-7" x="128.17" y="116.02" width="23.77" height="45.67"/></g><g id="_Group_73" data-name="&lt;Group&gt;"><polygon class="cls-8" points="128.17 146.82 151.94 123.05 151.94 116.02 146.08 116.02 128.17 133.94 128.17 146.82"/></g><g id="_Group_74" data-name="&lt;Group&gt;"><polygon class="cls-8" points="128.17 156.59 151.94 132.82 151.94 128.33 128.17 152.1 128.17 156.59"/></g><g id="_Group_75" data-name="&lt;Group&gt;"><polygon id="_Path_38" data-name="&lt;Path&gt;" class="cls-3" points="153.31 158.94 150.56 158.94 150.56 117.4 129.54 117.4 129.54 158.94 126.79 158.94 126.79 114.64 153.31 114.64 153.31 158.94"/></g><g id="_Group_76" data-name="&lt;Group&gt;"><rect class="cls-7" x="128.17" y="93.71" width="23.77" height="14.66"/></g><g id="_Group_77" data-name="&lt;Group&gt;"><path id="_Compound_Path_4" data-name="&lt;Compound Path&gt;" class="cls-3" d="M153.31,109.75H126.79V92.33h26.52ZM129.54,107h21V95.09h-21Z"/></g><g id="_Group_78" data-name="&lt;Group&gt;"><path id="_Compound_Path_5" data-name="&lt;Compound Path&gt;" class="cls-3" d="M135.37,143.5a4.23,4.23,0,1,1,4.23-4.23A4.24,4.24,0,0,1,135.37,143.5Zm0-5.71a1.48,1.48,0,1,0,1.48,1.48A1.48,1.48,0,0,0,135.37,137.79Z"/></g><g id="_Group_79" data-name="&lt;Group&gt;"><rect class="cls-7" x="167.02" y="107.77" width="32.87" height="37.71"/></g><g id="_Group_80" data-name="&lt;Group&gt;"><polygon class="cls-8" points="167.02 121.4 167.02 139.81 199.05 107.78 180.64 107.78 167.02 121.4"/></g><g id="_Group_81" data-name="&lt;Group&gt;"><polygon class="cls-8" points="180.04 145.49 199.89 125.64 199.89 115.98 170.39 145.49 180.04 145.49"/></g><g id="_Group_82" data-name="&lt;Group&gt;"><path id="_Compound_Path_6" data-name="&lt;Compound Path&gt;" class="cls-3" d="M201.27,146.86H165.64V106.4h35.63Zm-32.87-2.76h30.12v-35H168.4Z"/></g><g id="_Group_83" data-name="&lt;Group&gt;"><path class="cls-2" d="M160.28,85.23h45.93a0,0,0,0,1,0,0v27.37a3.43,3.43,0,0,1-3.43,3.43H163.71a3.43,3.43,0,0,1-3.43-3.43V85.23A0,0,0,0,1,160.28,85.23Z"/></g><g id="_Group_84" data-name="&lt;Group&gt;"><path class="cls-5" d="M167,116h0a6.74,6.74,0,0,1-6.74-6.74V85.23H167Z"/></g><g id="_Group_85" data-name="&lt;Group&gt;"><rect class="cls-5" x="173.76" y="85.23" width="6.74" height="30.8"/></g><g id="_Group_86" data-name="&lt;Group&gt;"><rect class="cls-5" x="187.24" y="85.23" width="6.74" height="30.8"/></g><g id="_Group_87" data-name="&lt;Group&gt;"><path class="cls-5" d="M206.21,111.27v-26h-6.31V116h1.56A4.76,4.76,0,0,0,206.21,111.27Z"/></g><g id="_Group_88" data-name="&lt;Group&gt;"><path id="_Compound_Path_7" data-name="&lt;Compound Path&gt;" class="cls-3" d="M200,117.4H166.22a7.33,7.33,0,0,1-7.32-7.32V83.85h48.68v25.94A7.61,7.61,0,0,1,200,117.4ZM161.66,86.6v23.47a4.57,4.57,0,0,0,4.57,4.57H200a4.86,4.86,0,0,0,4.85-4.85V86.6Z"/></g><g id="_Group_89" data-name="&lt;Group&gt;"><polygon class="cls-9" points="218.21 87.98 112.74 87.98 112.74 87.98 108.15 76.96 221.88 76.96 218.21 87.98"/></g><g id="_Group_90" data-name="&lt;Group&gt;"><path id="_Compound_Path_8" data-name="&lt;Compound Path&gt;" class="cls-3" d="M219.2,89.36H111.82l-5.74-13.78H223.79ZM113.66,86.6H217.21L220,78.34H110.22Z"/></g></g></g><g id="_Group_91" data-name="&lt;Group&gt;"><g id="_Group_92" data-name="&lt;Group&gt;"><rect id="_Path_39" data-name="&lt;Path&gt;" class="cls-3" x="31" y="98.25" width="2.76" height="18.7"/></g><g id="_Group_93" data-name="&lt;Group&gt;"><polygon class="cls-3" points="32.95 117.29 31.81 117.29 30.11 119.69 30.11 152.09 34.65 152.09 34.65 119.69 32.95 117.29"/></g><g id="_Group_94" data-name="&lt;Group&gt;"><polygon id="_Path_40" data-name="&lt;Path&gt;" class="cls-3" points="36.03 152.09 33.27 152.09 33.27 120.13 32.38 118.87 31.49 120.13 31.49 152.09 28.74 152.09 28.74 119.26 31.1 115.91 33.66 115.91 36.03 119.26 36.03 152.09"/></g><g id="_Group_95" data-name="&lt;Group&gt;"><circle class="cls-10" cx="32.38" cy="98.25" r="14.83"/></g><g id="_Group_96" data-name="&lt;Group&gt;"><path class="cls-8" d="M32,83.42a14.78,14.78,0,0,0-10.62,4.49,14.82,14.82,0,0,1,18.41,22.93A14.82,14.82,0,0,0,32,83.42Z"/></g><g id="_Group_97" data-name="&lt;Group&gt;"><path id="_Compound_Path_9" data-name="&lt;Compound Path&gt;" class="cls-3" d="M32.38,114.45A16.21,16.21,0,1,1,48.59,98.25,16.22,16.22,0,0,1,32.38,114.45Zm0-29.66A13.45,13.45,0,1,0,45.83,98.25,13.47,13.47,0,0,0,32.38,84.79Z"/></g><g id="_Group_98" data-name="&lt;Group&gt;"><rect class="cls-3" x="28.5" y="151.88" width="7.77" height="26.3"/></g><g id="_Group_99" data-name="&lt;Group&gt;"><rect class="cls-3" x="28.5" y="151.88" width="3" height="26.3"/></g><g id="_Group_100" data-name="&lt;Group&gt;"><path id="_Compound_Path_10" data-name="&lt;Compound Path&gt;" class="cls-3" d="M37.64,179.55H27.12V150.5H37.64Zm-7.77-2.76h5V153.25h-5Z"/></g></g><g id="_Group_101" data-name="&lt;Group&gt;"><g id="_Group_102" data-name="&lt;Group&gt;"><rect id="_Path_41" data-name="&lt;Path&gt;" class="cls-3" x="300.09" y="98.25" width="2.76" height="18.7"/></g><g id="_Group_103" data-name="&lt;Group&gt;"><polygon class="cls-3" points="302.03 117.29 300.9 117.29 299.2 119.69 299.2 152.09 303.73 152.09 303.73 119.69 302.03 117.29"/></g><g id="_Group_104" data-name="&lt;Group&gt;"><polygon id="_Path_42" data-name="&lt;Path&gt;" class="cls-3" points="305.11 152.09 302.35 152.09 302.35 120.13 301.46 118.87 300.57 120.13 300.57 152.09 297.82 152.09 297.82 119.26 300.18 115.91 302.74 115.91 305.11 119.26 305.11 152.09"/></g><g id="_Group_105" data-name="&lt;Group&gt;"><circle class="cls-10" cx="301.46" cy="98.25" r="14.83"/></g><g id="_Group_106" data-name="&lt;Group&gt;"><path class="cls-8" d="M301.06,83.42a14.78,14.78,0,0,0-10.62,4.49,14.82,14.82,0,0,1,18.41,22.93,14.82,14.82,0,0,0-7.79-27.43Z"/></g><g id="_Group_107" data-name="&lt;Group&gt;"><path id="_Compound_Path_11" data-name="&lt;Compound Path&gt;" class="cls-3" d="M301.46,114.45a16.21,16.21,0,1,1,16.21-16.21A16.22,16.22,0,0,1,301.46,114.45Zm0-29.66a13.45,13.45,0,1,0,13.45,13.45A13.47,13.47,0,0,0,301.46,84.79Z"/></g><g id="_Group_108" data-name="&lt;Group&gt;"><rect class="cls-3" x="297.58" y="151.88" width="7.77" height="26.3"/></g><g id="_Group_109" data-name="&lt;Group&gt;"><rect class="cls-3" x="297.58" y="151.88" width="3" height="26.3"/></g><g id="_Group_110" data-name="&lt;Group&gt;"><path id="_Compound_Path_12" data-name="&lt;Compound Path&gt;" class="cls-3" d="M306.73,179.55H296.2V150.5h10.52ZM299,176.8h5V153.25h-5Z"/></g></g><g id="_Group_111" data-name="&lt;Group&gt;"><g id="_Group_112" data-name="&lt;Group&gt;"><rect id="_Path_43" data-name="&lt;Path&gt;" class="cls-3" x="6.93" y="176.8" width="5.03" height="2.76"/></g><g id="_Group_113" data-name="&lt;Group&gt;"><rect id="_Path_44" data-name="&lt;Path&gt;" class="cls-3" x="319.08" y="176.8" width="11.11" height="2.76"/></g><g id="_Group_114" data-name="&lt;Group&gt;"><rect id="_Path_45" data-name="&lt;Path&gt;" class="cls-3" x="15.31" y="176.8" width="300.9" height="2.76"/></g></g></g></g></g></svg>