<svg xmlns="http://www.w3.org/2000/svg" viewBox="0 0 1211.34 261.34"><defs><style>.cls-1{fill:#e85100;}.cls-2{fill:#ffd586;}.cls-3{fill:#ffb936;}.cls-4{fill:#58595b;}.cls-5{fill:#bf8b29;}.cls-12,.cls-6{fill:#fff;}.cls-7{fill:#e6e7e8;}.cls-8{fill:#00d4ff;}.cls-9{fill:#9ef;}.cls-10{fill:#d1d3d4;}.cls-11{fill:#f7c623;}.cls-12{stroke:#fff;stroke-miterlimit:10;stroke-width:0.78px;}</style></defs><title>Asset 1</title><g id="Layer_2" data-name="Layer 2"><g id="Layer_1-2" data-name="Layer 1"><rect class="cls-1" width="1211.34" height="261.34"/><g id="_Group_" data-name="&lt;Group&gt;"><g id="_Group_2" data-name="&lt;Group&gt;"><g id="_Group_3" data-name="&lt;Group&gt;"><path class="cls-2" d="M954,170h66.43a1.92,1.92,0,0,1,1.92,1.92v68.85a0,0,0,0,1,0,0H952.07a0,0,0,0,1,0,0V171.87A1.92,1.92,0,0,1,954,170Z"/></g><g id="_Group_4" data-name="&lt;Group&gt;"><polygon class="cls-3" points="1022.35 240.73 952.07 240.73 950.36 252.16 1024.07 252.16 1022.35 240.73"/></g><g id="_Group_5" data-name="&lt;Group&gt;"><path id="_Path_" data-name="&lt;Path&gt;" class="cls-4" d="M1024.15,240.73h-3.6v-69H958.42v-3.6h62.39a3.35,3.35,0,0,1,3.34,3.34Z"/></g><g id="_Group_6" data-name="&lt;Group&gt;"><polygon id="_Path_2" data-name="&lt;Path&gt;" class="cls-4" points="1026.16 253.96 948.39 253.96 949.22 244.75 952.81 245.08 952.33 250.36 1021.98 250.36 1020.8 242.53 970.43 242.53 970.43 238.93 1023.9 238.93 1026.16 253.96"/></g><g id="_Group_7" data-name="&lt;Group&gt;"><path class="cls-5" d="M969.05,181.48a3.88,3.88,0,1,1-3.88-3.87A3.88,3.88,0,0,1,969.05,181.48Z"/></g><g id="_Group_8" data-name="&lt;Group&gt;"><path class="cls-5" d="M1013.13,181.48a3.88,3.88,0,1,1-3.88-3.87A3.88,3.88,0,0,1,1013.13,181.48Z"/></g><g id="_Group_9" data-name="&lt;Group&gt;"><path id="_Path_3" data-name="&lt;Path&gt;" class="cls-4" d="M1011.05,181.48h-3.6v-8.22a20.24,20.24,0,0,0-40.48,0v8.22h-3.6v-8.22a23.84,23.84,0,1,1,47.68,0Z"/></g></g><g id="_Group_10" data-name="&lt;Group&gt;"><g id="_Group_11" data-name="&lt;Group&gt;"><path id="_Compound_Path_" data-name="&lt;Compound Path&gt;" class="cls-4" d="M740.84,186.25l-2.36-1.12c-1.57-.75-15.38-7.43-18.14-12.22a11.08,11.08,0,1,1,19.2-11.08h0c.85,1.46,1.39,3.87,1.66,7.34a112,112,0,0,1-.15,14.47Zm-10.91-26.37a7.48,7.48,0,0,0-6.47,11.23c1.44,2.5,8.66,6.77,14.16,9.58a95.89,95.89,0,0,0,0-11.25c-.28-3.78-.86-5.26-1.17-5.81h0A7.51,7.51,0,0,0,729.93,159.88Z"/></g><g id="_Group_12" data-name="&lt;Group&gt;"><path id="_Path_4" data-name="&lt;Path&gt;" class="cls-4" d="M741,185.13l-1.55-3.25c5.53-2.64,14.91-7.88,16.58-10.77a7.49,7.49,0,0,0-11.42-9.38,7.3,7.3,0,0,0-1.55,1.9l-3.12-1.81a11.28,11.28,0,0,1,2.3-2.8,11.09,11.09,0,0,1,16.91,13.89C756.33,177.7,742.52,184.38,741,185.13Z"/></g><g id="_Group_13" data-name="&lt;Group&gt;"><path class="cls-6" d="M705.37,188.12h68.78a0,0,0,0,1,0,0V246a5.8,5.8,0,0,1-5.8,5.8H711.17a5.8,5.8,0,0,1-5.8-5.8V188.12A0,0,0,0,1,705.37,188.12Z"/></g><g id="_Group_14" data-name="&lt;Group&gt;"><path id="_Path_5" data-name="&lt;Path&gt;" class="cls-4" d="M769.79,253.55H709.73a6.16,6.16,0,0,1-6.16-6.16V245h3.6v2.4a2.56,2.56,0,0,0,2.56,2.56h60.06a2.56,2.56,0,0,0,2.56-2.56V189.92H707.17v36.24h-3.6V186.32H776v61.07A6.16,6.16,0,0,1,769.79,253.55Z"/></g><g id="_Group_15" data-name="&lt;Group&gt;"><rect id="_Path_6" data-name="&lt;Path&gt;" class="cls-4" x="703.57" y="230.54" width="3.6" height="10.72"/></g><g id="_Group_16" data-name="&lt;Group&gt;"><rect class="cls-7" x="701.52" y="181.29" width="76.39" height="12.47" rx="3.49" ry="3.49"/></g><g id="_Group_17" data-name="&lt;Group&gt;"><path id="_Path_7" data-name="&lt;Path&gt;" class="cls-4" d="M766.89,195.56H704.14a4.42,4.42,0,0,1-4.42-4.42v-7.23a4.42,4.42,0,0,1,4.42-4.42h62.75v3.6H704.14a.82.82,0,0,0-.82.82v7.23a.82.82,0,0,0,.82.82h62.75Z"/></g><g id="_Group_18" data-name="&lt;Group&gt;"><rect class="cls-3" x="732.25" y="181.29" width="16.39" height="70.46"/></g><g id="_Group_19" data-name="&lt;Group&gt;"><path id="_Compound_Path_2" data-name="&lt;Compound Path&gt;" class="cls-4" d="M750.44,253.55h-20V179.49h20ZM734.05,250h12.79V183.09H734.05Z"/></g><g id="_Group_20" data-name="&lt;Group&gt;"><rect id="_Path_8" data-name="&lt;Path&gt;" class="cls-4" x="731.37" y="186" width="17.2" height="3.6" transform="translate(5.25 395.2) rotate(-30)"/></g><g id="_Group_21" data-name="&lt;Group&gt;"><rect id="_Path_9" data-name="&lt;Path&gt;" class="cls-4" x="731.76" y="194.26" width="17.52" height="3.6" transform="translate(1.19 396.59) rotate(-30)"/></g><g id="_Group_22" data-name="&lt;Group&gt;"><rect id="_Path_10" data-name="&lt;Path&gt;" class="cls-4" x="731.69" y="202.88" width="17.52" height="3.6" transform="translate(-3.13 397.71) rotate(-30)"/></g><g id="_Group_23" data-name="&lt;Group&gt;"><rect id="_Path_11" data-name="&lt;Path&gt;" class="cls-4" x="731.62" y="211.5" width="17.52" height="3.6" transform="translate(-7.44 398.83) rotate(-30)"/></g><g id="_Group_24" data-name="&lt;Group&gt;"><rect id="_Path_12" data-name="&lt;Path&gt;" class="cls-4" x="731.55" y="220.12" width="17.52" height="3.6" transform="translate(-11.76 399.95) rotate(-30)"/></g><g id="_Group_25" data-name="&lt;Group&gt;"><rect id="_Path_13" data-name="&lt;Path&gt;" class="cls-4" x="731.49" y="228.74" width="17.52" height="3.6" transform="translate(-16.08 401.07) rotate(-30)"/></g><g id="_Group_26" data-name="&lt;Group&gt;"><rect id="_Path_14" data-name="&lt;Path&gt;" class="cls-4" x="731.42" y="237.36" width="17.52" height="3.6" transform="matrix(0.87, -0.5, 0.5, 0.87, -20.41, 402.17)"/></g><g id="_Group_27" data-name="&lt;Group&gt;"><rect id="_Path_15" data-name="&lt;Path&gt;" class="cls-4" x="731.35" y="245.98" width="17.52" height="3.6" transform="matrix(0.87, -0.5, 0.5, 0.87, -24.73, 403.29)"/></g></g><g id="_Group_28" data-name="&lt;Group&gt;"><g id="_Group_29" data-name="&lt;Group&gt;"><path id="_Path_16" data-name="&lt;Path&gt;" class="cls-6" d="M772.19,62.31H761.93a1.8,1.8,0,1,1,0-3.6h10.26a1.8,1.8,0,0,1,0,3.6Z"/></g><g id="_Group_30" data-name="&lt;Group&gt;"><path id="_Path_17" data-name="&lt;Path&gt;" class="cls-6" d="M767.06,67.44a1.81,1.81,0,0,1-1.8-1.8V55.38a1.8,1.8,0,0,1,3.6,0V65.64A1.81,1.81,0,0,1,767.06,67.44Z"/></g></g><g id="_Group_31" data-name="&lt;Group&gt;"><g id="_Group_32" data-name="&lt;Group&gt;"><path id="_Path_18" data-name="&lt;Path&gt;" class="cls-6" d="M939.09,81.27H928.83a1.8,1.8,0,0,1,0-3.6h10.26a1.8,1.8,0,0,1,0,3.6Z"/></g><g id="_Group_33" data-name="&lt;Group&gt;"><path id="_Path_19" data-name="&lt;Path&gt;" class="cls-6" d="M934,86.4a1.81,1.81,0,0,1-1.8-1.8V74.34a1.8,1.8,0,1,1,3.6,0V84.6A1.81,1.81,0,0,1,934,86.4Z"/></g></g><g id="_Group_34" data-name="&lt;Group&gt;"><g id="_Group_35" data-name="&lt;Group&gt;"><path id="_Path_20" data-name="&lt;Path&gt;" class="cls-6" d="M1027.36,106.28a1.8,1.8,0,0,1-1.27-3.07l7.25-7.26a1.8,1.8,0,1,1,2.55,2.55l-7.26,7.25A1.8,1.8,0,0,1,1027.36,106.28Z"/></g><g id="_Group_36" data-name="&lt;Group&gt;"><path id="_Path_21" data-name="&lt;Path&gt;" class="cls-6" d="M1034.61,106.28a1.8,1.8,0,0,1-1.27-.53l-7.25-7.25a1.8,1.8,0,0,1,2.54-2.55l7.26,7.26a1.8,1.8,0,0,1,0,2.54A1.84,1.84,0,0,1,1034.61,106.28Z"/></g></g><g id="_Group_37" data-name="&lt;Group&gt;"><g id="_Group_38" data-name="&lt;Group&gt;"><path id="_Path_22" data-name="&lt;Path&gt;" class="cls-6" d="M819,32.11A1.8,1.8,0,0,1,817.75,29L825,21.78a1.8,1.8,0,1,1,2.55,2.55l-7.26,7.25A1.8,1.8,0,0,1,819,32.11Z"/></g><g id="_Group_39" data-name="&lt;Group&gt;"><path id="_Path_23" data-name="&lt;Path&gt;" class="cls-6" d="M826.28,32.11a1.84,1.84,0,0,1-1.28-.53l-7.25-7.25a1.8,1.8,0,0,1,2.54-2.55L827.55,29a1.8,1.8,0,0,1-1.27,3.07Z"/></g></g><g id="_Group_40" data-name="&lt;Group&gt;"><g id="_Group_41" data-name="&lt;Group&gt;"><path id="_Path_24" data-name="&lt;Path&gt;" class="cls-6" d="M647.56,145.26a1.84,1.84,0,0,1-1.28-.53,1.8,1.8,0,0,1,0-2.54l7.26-7.26a1.8,1.8,0,0,1,2.54,2.55l-7.25,7.25A1.8,1.8,0,0,1,647.56,145.26Z"/></g><g id="_Group_42" data-name="&lt;Group&gt;"><path id="_Path_25" data-name="&lt;Path&gt;" class="cls-6" d="M654.81,145.26a1.8,1.8,0,0,1-1.27-.53l-7.26-7.25a1.8,1.8,0,0,1,2.55-2.55l7.25,7.26a1.8,1.8,0,0,1-1.27,3.07Z"/></g></g><g id="_Group_43" data-name="&lt;Group&gt;"><rect id="_Path_26" data-name="&lt;Path&gt;" class="cls-6" x="841.56" y="24.88" width="97.73" height="3.6"/></g><g id="_Group_44" data-name="&lt;Group&gt;"><rect id="_Path_27" data-name="&lt;Path&gt;" class="cls-6" x="791.6" y="58.71" width="41.75" height="3.6"/></g><g id="_Group_45" data-name="&lt;Group&gt;"><rect id="_Path_28" data-name="&lt;Path&gt;" class="cls-6" x="647.56" y="115.45" width="70.79" height="3.6"/></g><g id="_Group_46" data-name="&lt;Group&gt;"><rect id="_Path_29" data-name="&lt;Path&gt;" class="cls-6" x="978.56" y="99.05" width="41.75" height="3.6"/></g><g id="_Group_47" data-name="&lt;Group&gt;"><rect id="_Path_30" data-name="&lt;Path&gt;" class="cls-6" x="779.43" y="58.71" width="8.57" height="3.6"/></g><g id="_Group_48" data-name="&lt;Group&gt;"><path class="cls-6" d="M676.59,201.13a2.93,2.93,0,1,1-2.93-2.93A2.94,2.94,0,0,1,676.59,201.13Z"/></g><g id="_Group_49" data-name="&lt;Group&gt;"><path class="cls-6" d="M729.67,117.25a4,4,0,1,1-4-4A4,4,0,0,1,729.67,117.25Z"/></g><g id="_Group_50" data-name="&lt;Group&gt;"><path class="cls-6" d="M943.33,53.26a4,4,0,1,1-4-4A4,4,0,0,1,943.33,53.26Z"/></g><g id="_Group_51" data-name="&lt;Group&gt;"><path class="cls-6" d="M1078,104.48a4,4,0,1,1-4-4A4,4,0,0,1,1078,104.48Z"/></g><g id="_Group_52" data-name="&lt;Group&gt;"><path class="cls-6" d="M683.61,70.25A2.58,2.58,0,1,1,681,67.68,2.57,2.57,0,0,1,683.61,70.25Z"/></g><g id="_Group_53" data-name="&lt;Group&gt;"><path class="cls-6" d="M906.88,85.26a2.58,2.58,0,1,1-2.58-2.58A2.57,2.57,0,0,1,906.88,85.26Z"/></g><g id="_Group_54" data-name="&lt;Group&gt;"><circle class="cls-6" cx="1058.95" cy="192.27" r="2.58"/></g><g id="_Group_55" data-name="&lt;Group&gt;"><path class="cls-6" d="M775.89,22.27A2.94,2.94,0,1,1,773,19.34,2.94,2.94,0,0,1,775.89,22.27Z"/></g><g id="_Group_56" data-name="&lt;Group&gt;"><path id="_Path_31" data-name="&lt;Path&gt;" class="cls-4" d="M966.67,244.1l1.45-8.85h-8.07v-67.1h-1.63V170h-4.9a1.45,1.45,0,0,0-1.45,1.45v69.33l-.63,4.22-2.22-.2-.83,9.21h6.66A11.73,11.73,0,0,0,966.67,244.1Z"/></g><g id="_Group_57" data-name="&lt;Group&gt;"><path id="_Path_32" data-name="&lt;Path&gt;" class="cls-4" d="M776,247.39V193.63a2.59,2.59,0,0,0,2-2.49v-7.23a2.62,2.62,0,0,0-2.62-2.62h-8.4v-1.8h-3.24v55.76h-9.06l1.62,9.86a10.48,10.48,0,0,0,7.64,8.44h5.94A6.16,6.16,0,0,0,776,247.39Z"/></g><g id="_Group_58" data-name="&lt;Group&gt;"><g id="_Group_59" data-name="&lt;Group&gt;"><rect class="cls-4" x="770.25" y="113.17" width="183.2" height="131.68" rx="3.19" ry="3.19"/></g><g id="_Group_60" data-name="&lt;Group&gt;"><path id="_Path_33" data-name="&lt;Path&gt;" class="cls-4" d="M948.9,246.65H774.8a6.36,6.36,0,0,1-6.35-6.35V117.72a6.36,6.36,0,0,1,6.35-6.35h19.27V115H774.8a2.75,2.75,0,0,0-2.75,2.75V240.3a2.75,2.75,0,0,0,2.75,2.75H948.9a2.75,2.75,0,0,0,2.75-2.75V117.72A2.75,2.75,0,0,0,948.9,115H929.62v-3.6H948.9a6.36,6.36,0,0,1,6.35,6.35V240.3A6.36,6.36,0,0,1,948.9,246.65Z"/></g><g id="_Group_61" data-name="&lt;Group&gt;"><rect class="cls-6" x="779.15" y="123.53" width="164.41" height="106.86"/></g><g id="_Group_62" data-name="&lt;Group&gt;"><path class="cls-6" d="M950.25,252.16H771.43a8.77,8.77,0,0,1-8.65-7.34l-1.27-7.77h82.88l3.17,4.55h22.9l3.43-4.55H961.2l-1.11,6.76A10,10,0,0,1,950.25,252.16Z"/></g><g id="_Group_63" data-name="&lt;Group&gt;"><path id="_Compound_Path_3" data-name="&lt;Compound Path&gt;" class="cls-4" d="M950.25,254H771.43A10.52,10.52,0,0,1,761,245.11l-1.62-9.86h85.94l3.17,4.55h21.07l3.42-4.55h90.33l-1.45,8.85A11.73,11.73,0,0,1,950.25,254ZM763.63,238.85l.93,5.68a6.94,6.94,0,0,0,6.87,5.83H950.25a8.16,8.16,0,0,0,8.07-6.85l.76-4.66H874.79l-3.43,4.55H846.62l-3.17-4.55Z"/></g><g id="_Group_64" data-name="&lt;Group&gt;"><g id="_Group_65" data-name="&lt;Group&gt;"><polygon class="cls-6" points="789.48 96.02 789.48 102.84 798.35 109.66 798.35 123.5 925.09 123.5 925.09 109.66 933.96 102.84 933.96 96.02 789.48 96.02"/></g><g id="_Group_66" data-name="&lt;Group&gt;"><polygon id="_Path_34" data-name="&lt;Path&gt;" class="cls-4" points="926.89 123.5 923.29 123.5 923.29 108.78 932.16 101.96 932.16 97.81 791.28 97.81 791.28 101.96 800.15 108.78 800.15 123.5 796.55 123.5 796.55 110.55 787.68 103.73 787.68 94.21 935.76 94.21 935.76 103.73 926.89 110.55 926.89 123.5"/></g><g id="_Group_67" data-name="&lt;Group&gt;"><rect id="_Path_35" data-name="&lt;Path&gt;" class="cls-4" x="882.25" y="107.96" width="44.1" height="3.6"/></g><g id="_Group_68" data-name="&lt;Group&gt;"><path class="cls-6" d="M803.05,127.1H920.92a4.3,4.3,0,0,1,4.3,4.3v95.91a0,0,0,0,1,0,0H798.75a0,0,0,0,1,0,0V131.4A4.3,4.3,0,0,1,803.05,127.1Z"/></g><g id="_Group_69" data-name="&lt;Group&gt;"><path id="_Path_36" data-name="&lt;Path&gt;" class="cls-4" d="M927,229.11H797V130.87c0-3.07,2.82-5.57,6.28-5.57h10v3.6h-10c-1.45,0-2.68.9-2.68,2v94.64H923.42V130.87c0-1.07-1.23-2-2.68-2h-72v-3.6h72c3.46,0,6.28,2.5,6.28,5.57Z"/></g><g id="_Group_70" data-name="&lt;Group&gt;"><rect class="cls-4" x="793.08" y="221.01" width="137.82" height="9.61" rx="3.08" ry="3.08"/></g><g id="_Group_71" data-name="&lt;Group&gt;"><path id="_Path_37" data-name="&lt;Path&gt;" class="cls-4" d="M932.69,230.71h-3.6v-7.38a.51.51,0,0,0-.51-.52H795.4a.52.52,0,0,0-.52.52v7.38h-3.6v-7.38a4.13,4.13,0,0,1,4.12-4.12H928.58a4.12,4.12,0,0,1,4.11,4.12Z"/></g><g id="_Group_72" data-name="&lt;Group&gt;"><rect class="cls-8" x="813.24" y="170.94" width="31.06" height="59.68"/></g><g id="_Group_73" data-name="&lt;Group&gt;"><polygon class="cls-9" points="813.24 211.19 844.3 180.13 844.3 170.94 836.64 170.94 813.24 194.35 813.24 211.19"/></g><g id="_Group_74" data-name="&lt;Group&gt;"><polygon class="cls-9" points="813.24 223.96 844.3 192.9 844.3 187.03 813.24 218.09 813.24 223.96"/></g><g id="_Group_75" data-name="&lt;Group&gt;"><polygon id="_Path_38" data-name="&lt;Path&gt;" class="cls-4" points="846.1 227.03 842.5 227.03 842.5 172.75 815.04 172.75 815.04 227.03 811.44 227.03 811.44 169.15 846.1 169.15 846.1 227.03"/></g><g id="_Group_76" data-name="&lt;Group&gt;"><rect class="cls-8" x="813.24" y="141.79" width="31.06" height="19.16"/></g><g id="_Group_77" data-name="&lt;Group&gt;"><path id="_Compound_Path_4" data-name="&lt;Compound Path&gt;" class="cls-4" d="M846.1,162.75H811.44V140H846.1ZM815,159.15H842.5V143.59H815Z"/></g><g id="_Group_78" data-name="&lt;Group&gt;"><path id="_Compound_Path_5" data-name="&lt;Compound Path&gt;" class="cls-4" d="M822.65,206.85a5.53,5.53,0,1,1,5.53-5.53A5.54,5.54,0,0,1,822.65,206.85Zm0-7.46a1.93,1.93,0,1,0,1.93,1.93A1.93,1.93,0,0,0,822.65,199.39Z"/></g><g id="_Group_79" data-name="&lt;Group&gt;"><rect class="cls-8" x="864.01" y="160.17" width="42.96" height="49.28"/></g><g id="_Group_80" data-name="&lt;Group&gt;"><polygon class="cls-9" points="864.01 177.97 864.01 202.02 905.86 160.17 881.81 160.17 864.01 177.97"/></g><g id="_Group_81" data-name="&lt;Group&gt;"><polygon class="cls-9" points="881.03 209.44 906.96 183.51 906.96 170.89 868.41 209.44 881.03 209.44"/></g><g id="_Group_82" data-name="&lt;Group&gt;"><path id="_Compound_Path_6" data-name="&lt;Compound Path&gt;" class="cls-4" d="M908.76,211.25H862.21V158.37h46.55Zm-43-3.6h39.35V162H865.81Z"/></g><g id="_Group_83" data-name="&lt;Group&gt;"><path class="cls-3" d="M855.2,130.7h60a0,0,0,0,1,0,0V165a6,6,0,0,1-6,6H861.16a6,6,0,0,1-6-6V130.7A0,0,0,0,1,855.2,130.7Z"/></g><g id="_Group_84" data-name="&lt;Group&gt;"><path class="cls-6" d="M864,170.94h0a8.8,8.8,0,0,1-8.81-8.8V130.7H864Z"/></g><g id="_Group_85" data-name="&lt;Group&gt;"><rect class="cls-6" x="872.81" y="130.7" width="8.81" height="40.24"/></g><g id="_Group_86" data-name="&lt;Group&gt;"><rect class="cls-6" x="890.42" y="130.7" width="8.81" height="40.24"/></g><g id="_Group_87" data-name="&lt;Group&gt;"><path class="cls-6" d="M915.21,164.73v-34H907v40.24h2A6.21,6.21,0,0,0,915.21,164.73Z"/></g><g id="_Group_88" data-name="&lt;Group&gt;"><path id="_Compound_Path_7" data-name="&lt;Compound Path&gt;" class="cls-4" d="M907.08,172.74H863a9.57,9.57,0,0,1-9.57-9.56V128.9H917v33.91A9.94,9.94,0,0,1,907.08,172.74ZM857,132.5v30.68a6,6,0,0,0,6,6h44.11a6.34,6.34,0,0,0,6.33-6.33V132.5Z"/></g><g id="_Group_89" data-name="&lt;Group&gt;"><polygon class="cls-10" points="930.89 134.3 793.08 134.3 793.08 134.3 787.08 119.9 935.69 119.9 930.89 134.3"/></g><g id="_Group_90" data-name="&lt;Group&gt;"><path id="_Compound_Path_8" data-name="&lt;Compound Path&gt;" class="cls-4" d="M932.19,136.1H791.88l-7.5-18H938.19Zm-137.91-3.6H929.6l3.6-10.8H789.78Z"/></g></g></g><g id="_Group_91" data-name="&lt;Group&gt;"><g id="_Group_92" data-name="&lt;Group&gt;"><rect id="_Path_39" data-name="&lt;Path&gt;" class="cls-4" x="686.27" y="147.72" width="3.6" height="24.43"/></g><g id="_Group_93" data-name="&lt;Group&gt;"><polygon class="cls-4" points="688.81 172.6 687.33 172.6 685.11 175.74 685.11 218.07 691.03 218.07 691.03 175.74 688.81 172.6"/></g><g id="_Group_94" data-name="&lt;Group&gt;"><polygon id="_Path_40" data-name="&lt;Path&gt;" class="cls-4" points="692.83 218.07 689.23 218.07 689.23 176.32 688.07 174.67 686.91 176.32 686.91 218.07 683.31 218.07 683.31 175.17 686.4 170.8 689.74 170.8 692.83 175.17 692.83 218.07"/></g><g id="_Group_95" data-name="&lt;Group&gt;"><circle class="cls-11" cx="688.07" cy="147.72" r="19.38"/></g><g id="_Group_96" data-name="&lt;Group&gt;"><path class="cls-9" d="M687.54,128.34a19.31,19.31,0,0,0-13.88,5.87,19.36,19.36,0,0,1,24.06,30,19.36,19.36,0,0,0-10.18-35.84Z"/></g><g id="_Group_97" data-name="&lt;Group&gt;"><path id="_Compound_Path_9" data-name="&lt;Compound Path&gt;" class="cls-4" d="M688.07,168.89a21.18,21.18,0,1,1,21.18-21.17A21.2,21.2,0,0,1,688.07,168.89Zm0-38.75a17.58,17.58,0,1,0,17.58,17.58A17.6,17.6,0,0,0,688.07,130.14Z"/></g><g id="_Group_98" data-name="&lt;Group&gt;"><rect class="cls-4" x="682.99" y="217.8" width="10.15" height="34.37"/></g><g id="_Group_99" data-name="&lt;Group&gt;"><rect class="cls-4" x="682.99" y="217.8" width="3.92" height="34.37"/></g><g id="_Group_100" data-name="&lt;Group&gt;"><path id="_Compound_Path_10" data-name="&lt;Compound Path&gt;" class="cls-4" d="M695,254H681.19V216H695Zm-10.16-3.6h6.55V219.6h-6.55Z"/></g></g><g id="_Group_101" data-name="&lt;Group&gt;"><g id="_Group_102" data-name="&lt;Group&gt;"><rect id="_Path_41" data-name="&lt;Path&gt;" class="cls-4" x="1037.89" y="147.72" width="3.6" height="24.43"/></g><g id="_Group_103" data-name="&lt;Group&gt;"><polygon class="cls-4" points="1040.43 172.6 1038.95 172.6 1036.73 175.74 1036.73 218.07 1042.65 218.07 1042.65 175.74 1040.43 172.6"/></g><g id="_Group_104" data-name="&lt;Group&gt;"><polygon id="_Path_42" data-name="&lt;Path&gt;" class="cls-4" points="1044.45 218.07 1040.85 218.07 1040.85 176.32 1039.69 174.67 1038.53 176.32 1038.53 218.07 1034.93 218.07 1034.93 175.17 1038.02 170.8 1041.36 170.8 1044.45 175.17 1044.45 218.07"/></g><g id="_Group_105" data-name="&lt;Group&gt;"><circle class="cls-11" cx="1039.69" cy="147.72" r="19.38"/></g><g id="_Group_106" data-name="&lt;Group&gt;"><path class="cls-9" d="M1039.16,128.34a19.31,19.31,0,0,0-13.88,5.87,19.36,19.36,0,0,1,24.06,30,19.36,19.36,0,0,0-10.18-35.84Z"/></g><g id="_Group_107" data-name="&lt;Group&gt;"><path id="_Compound_Path_11" data-name="&lt;Compound Path&gt;" class="cls-4" d="M1039.69,168.89a21.18,21.18,0,1,1,21.18-21.17A21.2,21.2,0,0,1,1039.69,168.89Zm0-38.75a17.58,17.58,0,1,0,17.58,17.58A17.6,17.6,0,0,0,1039.69,130.14Z"/></g><g id="_Group_108" data-name="&lt;Group&gt;"><rect class="cls-4" x="1034.61" y="217.8" width="10.15" height="34.37"/></g><g id="_Group_109" data-name="&lt;Group&gt;"><rect class="cls-4" x="1034.61" y="217.8" width="3.92" height="34.37"/></g><g id="_Group_110" data-name="&lt;Group&gt;"><path id="_Compound_Path_12" data-name="&lt;Compound Path&gt;" class="cls-4" d="M1046.56,254h-13.75V216h13.75Zm-10.15-3.6H1043V219.6h-6.55Z"/></g></g><g id="_Group_111" data-name="&lt;Group&gt;"><g id="_Group_112" data-name="&lt;Group&gt;"><rect id="_Path_43" data-name="&lt;Path&gt;" class="cls-4" x="654.81" y="250.36" width="6.57" height="3.6"/></g><g id="_Group_113" data-name="&lt;Group&gt;"><rect id="_Path_44" data-name="&lt;Path&gt;" class="cls-4" x="1062.7" y="250.36" width="14.52" height="3.6"/></g><g id="_Group_114" data-name="&lt;Group&gt;"><rect id="_Path_45" data-name="&lt;Path&gt;" class="cls-4" x="665.76" y="250.36" width="393.19" height="3.6"/></g></g></g><path class="cls-6" d="M161.87,68.37c4,.79,7.69,4.39,7.69,10.55,0,8.24-6.59,11.83-17.57,11.83-6,0-16.9-.48-17.21-.73s-.79-41.11-.61-41.6,11.72-.73,12.94-.73c9.7,0,19.46,2.07,19.46,11.59,0,4.94-1.89,7-4.7,8.72ZM147.11,64a8.24,8.24,0,0,0,1.22.06c3.29,0,5.06-1.15,5.06-3.35s-2.87-2.93-4.82-2.93a9.26,9.26,0,0,0-1.4.12C147.11,58.79,147.11,64,147.11,64Zm.61,16.17a19.57,19.57,0,0,0,2.5.18c3.78,0,5.18-1.46,5.18-3.54,0-2.44-2.13-3.47-5.49-3.47-.67,0-1.4.06-2.13.12C147.72,74.34,147.72,80.14,147.72,80.14Z"/><path class="cls-6" d="M187.31,48.17c.43.74-.61,15.8-.61,22.45,0,5.74,1.53,7.63,5.12,7.63,4.21,0,5.07-3.11,5.07-7.38,0-6.65-.49-19.65-.55-23.12.79-.55,14.27-1.1,14.4-.49.24,1.1.48,18.06.48,24.58,0,10.86-3.84,19.71-19.15,19.71-12,0-19.16-5.31-19.16-19.16,0-5.24.43-20.68,1-24C174.07,47.14,187.07,47.75,187.31,48.17Z"/><path class="cls-6" d="M215.19,86.85c-.3-1.22,3.05-11.1,3.78-10.86,1.29.43,6.29,3.78,11.29,3.78,2.75,0,4.09-.67,4.09-2s-.73-2.26-6.29-3.29c-7.87-1.47-12.62-5.13-12.62-14,0-7.26,5.91-13.49,16.89-13.49,6.65,0,12.63,1.59,15,3.42.92.67-3.35,10.43-4,10.49-.42.13-5.3-2.38-10.73-2.38-2.69,0-3.78.74-3.78,1.77,0,1.53,1,1.83,6.16,2.93,7.13,1.53,13.78,4.52,13.78,13.73,0,6-4.75,13.72-17.93,13.72C224,90.69,217.63,88.38,215.19,86.85Z"/><path class="cls-6" d="M266.68,47.93c.49.37.43,40.08-.12,42.4-.31,1.28-13.42.73-13.48.24-.31-3.66-.49-37,.12-42.52C255.76,47.5,266.19,47.56,266.68,47.93Z"/><path class="cls-6" d="M299.26,90.63c-1.28-1.58-7.08-11.77-12.75-20.56,0,7.93.43,16.29.24,19.89-2.56.55-13.11.61-13.17,0-.37-2.5-.55-38.37,0-41.66.18-1.29,12.26-1.29,12.5-.86.86,1.34,8.3,13.12,13.06,22.39.06-9-.31-19.09,0-21.72,2.56-.55,12.62-.36,13.11,0s.06,39.23-.49,41.55C311.46,90.94,300.11,91.12,299.26,90.63Z"/><path class="cls-6" d="M349,90.57c.67.37-23.79.37-30.32-.12-.3-4.33.12-33.86.55-42.64,6.89-.43,30.14-.49,30.32-.12.43,1.4.49,8.78.06,11.4-2.26.25-12.5.19-17.75,0l.12,4.09c6.16-.06,12.63.12,13,.49.68.67.13,10.49.13,10.8s-6.71.36-13.18.18v4.64c5.49-.19,15-.19,17.14,0C349.53,81.91,349.47,89.17,349,90.57Z"/><path class="cls-6" d="M352.7,86.85c-.3-1.22,3.05-11.1,3.79-10.86,1.28.43,6.28,3.78,11.28,3.78,2.75,0,4.09-.67,4.09-2s-.73-2.26-6.29-3.29C357.71,73,353,69.34,353,60.5c0-7.26,5.91-13.49,16.9-13.49,6.64,0,12.62,1.59,15,3.42.92.67-3.35,10.43-4,10.49-.43.13-5.31-2.38-10.74-2.38-2.68,0-3.78.74-3.78,1.77,0,1.53,1,1.83,6.16,2.93,7.14,1.53,13.79,4.52,13.79,13.73,0,6-4.76,13.72-17.94,13.72C361.49,90.69,355.14,88.38,352.7,86.85Z"/><path class="cls-6" d="M388.39,86.85c-.3-1.22,3.05-11.1,3.78-10.86,1.29.43,6.29,3.78,11.29,3.78,2.75,0,4.09-.67,4.09-2s-.73-2.26-6.29-3.29c-7.87-1.47-12.62-5.13-12.62-14,0-7.26,5.91-13.49,16.89-13.49,6.65,0,12.63,1.59,15,3.42.92.67-3.35,10.43-4,10.49-.43.13-5.31-2.38-10.74-2.38-2.69,0-3.78.74-3.78,1.77,0,1.53,1,1.83,6.16,2.93,7.14,1.53,13.78,4.52,13.78,13.73,0,6-4.75,13.72-17.93,13.72C397.18,90.69,390.83,88.38,388.39,86.85Z"/><path class="cls-6" d="M134.78,96.44c1.41-.37,9.7-.49,14.58-.49,14.46,0,23.31,9.15,23.31,21.66,0,12.75-7,22-23.86,22-5.24,0-13.11-.43-14.45-.86C134.05,135.05,134.17,102,134.78,96.44Zm14.89,12c-.73,0-1.65,0-2.26.06.06,5.61,0,13-.06,18.66a19.1,19.1,0,0,0,2.93.19c3.6,0,8.48-1.22,8.48-9.22C158.76,112.36,155,108.46,149.67,108.46Z"/><path class="cls-6" d="M191,96.44c.49.36.43,40.08-.12,42.4-.31,1.28-13.42.73-13.48.24-.31-3.66-.49-37,.12-42.52C180.11,96,190.54,96.07,191,96.44Z"/><path class="cls-6" d="M197.74,139.08c-.3-3.66,0-37,.61-42.52,4.09-.37,10.74-.61,15.25-.61C225.93,96,233,100.71,233,111c0,6.1-2.5,9.76-6.95,11.83,4.39,5.55,8.6,12.45,8.42,12.69-.8,1-9.46,4.64-11.72,4.52-.18,0-5.12-8.36-9.94-15H211c-.06,5.61-.12,12.14-.37,13.73C209.94,139.08,197.8,139.57,197.74,139.08Zm17-24.1c3,0,4.88-1,4.88-3.6,0-2.25-1-3.78-5.37-3.78a15.76,15.76,0,0,0-2.31.12c.06,2.2,0,4.94-.07,7.14C212.57,114.92,213.85,115,214.7,115Z"/><path class="cls-6" d="M268.45,139.08c.67.37-23.79.37-30.32-.12-.31-4.33.12-33.86.55-42.64,6.89-.43,30.13-.49,30.32-.13.42,1.41.49,8.79.06,11.41-2.26.25-12.51.18-17.75,0l.12,4.09c6.16-.06,12.63.12,13,.49.67.67.12,10.49.12,10.79s-6.71.37-13.17.19v4.63c5.49-.18,15-.18,17.14,0C268.94,130.42,268.88,137.68,268.45,139.08Z"/><path class="cls-6" d="M294.68,127.61a14,14,0,0,0,8.85-3.35c1.65,1.09,5,7.32,6.22,9.82-2.87,3.41-9.21,6.22-16.53,6.22-15,0-21.78-10.31-21.78-23.06,0-12.51,9.15-21.72,23.61-21.72,7.44,0,12.75,2.14,14.58,4.09-.06,1.46-3.11,9.7-5,11.29a21.07,21.07,0,0,0-9.34-2.81,9.41,9.41,0,0,0-9.64,9.7C285.65,125.78,291.08,127.61,294.68,127.61Z"/><path class="cls-6" d="M310.91,96.68c.31-.49,31.36-1.22,33.37-.67,1,.18.86,11.41.43,11.47-1.1.18-5.19.37-10.13.55.06,12.38.19,30.07-.12,30.5s-13.18.79-13.24.31c-.24-2.51-.36-19.16-.24-30.93-4.52.06-8.24,0-9.76-.19C310.73,105.28,310.61,97.11,310.91,96.68Z"/><path class="cls-6" d="M389.55,118.4c0,10.86-6.95,21.66-21.72,21.66-13.24,0-21.84-8.73-21.84-23,0-11,7.32-21.66,21.66-21.66C380.77,95.4,389.55,104.12,389.55,118.4Zm-21.78-10.8c-4.82,0-7.81,3.78-7.81,10.19,0,5.79,3.11,9.88,7.57,9.88,5,0,7.62-3.72,7.62-10.19C375.15,110.29,371.86,107.6,367.77,107.6Z"/><path class="cls-6" d="M394,139.08c-.31-3.66,0-37,.61-42.52,4.08-.37,10.73-.61,15.25-.61,12.32,0,19.4,4.76,19.4,15.07,0,6.1-2.5,9.76-7,11.83,4.39,5.55,8.6,12.45,8.42,12.69-.79,1-9.46,4.64-11.71,4.52-.19,0-5.13-8.36-9.95-15h-1.83c-.06,5.61-.12,12.14-.36,13.73C406.21,139.08,394.07,139.57,394,139.08ZM411,115c3,0,4.88-1,4.88-3.6,0-2.25-1-3.78-5.37-3.78a15.83,15.83,0,0,0-2.32.12c.06,2.2,0,4.94-.06,7.14C408.83,114.92,410.11,115,411,115Z"/><path class="cls-6" d="M455.68,122.73c.13,5.92.19,14.58-.18,16.11-.3,1.28-13.73.48-13.79,0-.24-2.69.06-10.13.25-16.11-1.65-3.11-12.26-22.57-12.2-23.36s11.77-4.21,12.44-3.85A145.84,145.84,0,0,1,448.91,110h.37c2.8-5.37,7-14.52,7.38-14.52.61,0,12.14,3,12.2,3.85S457.27,120.05,455.68,122.73Z"/><path class="cls-12" d="M161.79,165.15c-3.22,0-3.64,2.19-3.64,5.31,0,5.82,2,13.1,2,25.58,0,9-4.84,11.39-11.75,11.39-5.72,0-9.88-2.29-9.88-7.64,0-4.37,2.34-5.88,2.34-7.8,0-1.46-1.61-2.81-3.64-2.81-3.49,0-3.95,4.78-3.95,8.73,0,8.12,4.88,14.41,15.44,14.41,13.83,0,15.71-8.48,15.71-18.72,0-8.17.57-16.64.57-24.29C165,167.44,164.76,165.15,161.79,165.15Z"/><path class="cls-12" d="M237.72,196.35c-2.6,0-3.23,1.2-6.87,1.2-3.33,0-7.12-2.08-7.12-6.4a5.43,5.43,0,0,1,5.82-5.72c3.48,0,4.42,1,6,1,.06.05,1.72.11,1.72-2,0-3.18-5.36-4.16-8.11-4.16-6.87,0-10.46,4.83-10.46,10.24a10.52,10.52,0,0,0,3.07,7.59A31.61,31.61,0,0,1,209.71,196a13.49,13.49,0,0,0,.65-4.27c0-6.82-4.42-11.39-11.07-11.39-5.57,0-10,3.69-11.7,11-1,3.95-3.59,5.57-5.83,5.57a10.84,10.84,0,0,1-4.63-.94h0l-.08,0-.26-.11c-6.31-2.55-5.22-3.74-5.22-8.54,0-9.16,1.87-12.85,1.87-18,0-2.55-.88-4.42-3.54-4.42s-3.43,2.19-3.43,5.31c0,1.71,1.25,10.4,1.25,22.15,0,4,4.42,7.28,9.41,8.37h0a35.59,35.59,0,0,0,6.45,1.3,5,5,0,0,0,1.93-.31,5.65,5.65,0,0,0,1.35-.67c1.09-.84,1.82-1.46,2.65-1.46,1.66,0,3.54,3.28,10.09,3.28a10.88,10.88,0,0,0,7.82-3.05,18.81,18.81,0,0,0,2.27.91,41.91,41.91,0,0,0,13.26,2c7.85,0,16.85-.36,16.85-4.63C239.8,196.72,238.91,196.35,237.72,196.35Zm-38.64,1.41c-3.9,0-6.71-2.19-6.71-5.77a6.31,6.31,0,0,1,6.24-6.4,6.17,6.17,0,0,1,6.29,6.34A5.57,5.57,0,0,1,199.08,197.76Z"/><path class="cls-12" d="M251.39,158.91c.21,0,.31,0,.47,0,1.66-.57,3-1,4.63-1.4,1.82-.42,5.41-.58,5.41-2.5,0-1.4-.89-1.77-1.3-1.77a2.4,2.4,0,0,0-.78.16c-2.29.73-9.57,2.23-9.57,4.05C250.25,158.7,250.92,158.91,251.39,158.91Z"/><path class="cls-12" d="M271.78,165.2c-2.5,0-2.86,1.83-2.86,3.49,0,4,1.3,12.48,1.3,21.79,0,6.29-2,7.49-8.79,7.49v-4.42c0-5.72.36-14,.36-14.82,0-1.46-.36-2.45-2.91-2.45-2.34,0-2.65,1.25-2.65,2.91,0,.94.52,9.94.52,12.54,0,1.82.05,4.47-.11,6.13-5-.41-9.93-1.3-10.71-1.3a1.86,1.86,0,0,0-2.08,2.08c0,3.07,7.85,4.06,17.58,4.06,11.85,0,13.26-4.79,13.26-8.17,0-4.78.26-23.81.26-25.84C275,166.82,274.69,165.2,271.78,165.2Z"/><path class="cls-12" d="M254.82,165.52a4.68,4.68,0,0,0,2,3.59c-3.07,0-3.38,1-3.38,2,0,.84.21,1.1.68,1.1,1,0,2.8-.42,8.21-.42.78,0,2-.26,2-1.46,0-.78-.21-1.19-.68-1.19h-1.14c-2.34,0-4.63-.63-4.63-2.92a2.26,2.26,0,0,1,2.55-2.18,18.77,18.77,0,0,1,2.65.42c.37,0,.83-.26.83-1,0-1.82-2.28-2.24-4.16-2.24C257.42,161.2,254.82,162.4,254.82,165.52Z"/><path class="cls-12" d="M285.56,168.22c0-1.46,0-2.81-2.6-2.81-2.08,0-2.5,1.35-2.5,3.07,0,1,.68,10,.68,12.53,0,9-.94,16.07-.94,17,0,2.24.21,3.85,2.86,3.85s2.81-1.25,2.81-2.5c0-.94-.78-8.68-.78-16.28C285.09,177.27,285.56,169.16,285.56,168.22Z"/><path class="cls-12" d="M344.47,208.26a2.87,2.87,0,0,0-3,3.07c0,2.29,1.14,3,3,3,2.29,0,3-1.3,3-2.76C347.49,209.88,346.81,208.26,344.47,208.26Z"/><path class="cls-12" d="M337.09,208.26c-2.34,0-3.12,1.67-3.12,3.49s1.3,2.6,3,2.6a2.79,2.79,0,0,0,3-3A3,3,0,0,0,337.09,208.26Z"/><path class="cls-12" d="M359.71,165.15c-2.5,0-3,1.88-3,3.33,0,1.25,1.1,9.83,1.1,19.4,0,8.73-1.72,9.67-5.88,9.67a19.26,19.26,0,0,1-7.17-1.52,16.87,16.87,0,0,0,.36-3.68c0-3.74-.31-9.36-3.85-9.36-2.24,0-2.55,1.3-2.55,2,0,2,1.72,2.65,1.72,8.16,0,1.61-.37,4.37-5.05,4.37-4.47,0-6.29-.88-7.48-1.56a7.35,7.35,0,0,0-.77-.2c0-.72,0-1.45,0-2.19,0-8.17.57-16.64.57-24.29,0-1.87-.26-4.16-3.22-4.16-3.23,0-3.64,2.19-3.64,5.31,0,5.82,2,13.1,2,25.58,0,9-4.83,11.39-11.75,11.39-5.72,0-9.88-2.29-9.88-7.64,0-4.37,2.34-5.88,2.34-7.8,0-1.46-1.61-2.81-3.64-2.81-3.48,0-3.95,4.78-3.95,8.73,0,8.12,4.89,14.41,15.44,14.41s14.2-5,15.28-12c.38.13.75.25,1.16.37a27.48,27.48,0,0,0,7.59,1.36c3.21,0,5.51-.64,7.06-2,.64.23,1.34.45,2.09.65a28.6,28.6,0,0,0,4.21.89,40.11,40.11,0,0,0,4.32.26c7.7,0,9.15-4.06,9.15-11.7,0-4.74.52-19.14.52-21.06S362.31,165.15,359.71,165.15Z"/><path class="cls-12" d="M370.11,172c.21,0,.31-.06.47-.06,1.66-.57,3-1,4.62-1.4,1.83-.42,5.41-.57,5.41-2.5,0-1.4-.88-1.76-1.3-1.76a2.75,2.75,0,0,0-.78.15c-2.29.73-9.57,2.24-9.57,4.06C369,171.81,369.64,172,370.11,172Z"/><path class="cls-12" d="M378.59,179.09c-2.35,0-4.95,2.24-4.95,4.42,0,2.65,10.25,6.19,10.46,11.28-.05,2.71-2.6,3.9-5.36,3.9-5.82,0-8.63-2.65-10.4-2.65-.78,0-1.4,1.2-1.4,3.44,0,2.44,1.3,3.43,3.32,4.21a22,22,0,0,0,6.19.73c9.83,0,12-5,12-10.46C388.47,187.88,383.11,179.09,378.59,179.09Z"/></g></g></svg>