<svg xmlns="http://www.w3.org/2000/svg" viewBox="0 0 1920 374.07"><defs><style>.cls-1{fill:#e85100;}.cls-2{fill:#ffd586;}.cls-3{fill:#ffb936;}.cls-4{fill:#58595b;}.cls-5{fill:#bf8b29;}.cls-12,.cls-6{fill:#fff;}.cls-7{fill:#e6e7e8;}.cls-8{fill:#00d4ff;}.cls-9{fill:#9ef;}.cls-10{fill:#d1d3d4;}.cls-11{fill:#f7c623;}.cls-12{stroke:#fff;stroke-miterlimit:10;stroke-width:0.78px;}</style></defs><title>Asset 6</title><g id="Layer_2" data-name="Layer 2"><g id="Layer_1-2" data-name="Layer 1"><rect class="cls-1" width="1920" height="374.07"/><g id="_Group_" data-name="&lt;Group&gt;"><g id="_Group_2" data-name="&lt;Group&gt;"><g id="_Group_3" data-name="&lt;Group&gt;"><path class="cls-2" d="M1591.72,262.26h89.69a1.92,1.92,0,0,1,1.92,1.92v92.27a0,0,0,0,1,0,0H1589.8a0,0,0,0,1,0,0V264.18A1.92,1.92,0,0,1,1591.72,262.26Z"/></g><g id="_Group_4" data-name="&lt;Group&gt;"><polygon class="cls-3" points="1683.33 356.45 1589.8 356.45 1587.51 371.67 1685.61 371.67 1683.33 356.45"/></g><g id="_Group_5" data-name="&lt;Group&gt;"><path id="_Path_" data-name="&lt;Path&gt;" class="cls-4" d="M1685.72,356.45h-4.79v-91.8h-82.69v-4.79h83a4.45,4.45,0,0,1,4.45,4.45Z"/></g><g id="_Group_6" data-name="&lt;Group&gt;"><polygon id="_Path_2" data-name="&lt;Path&gt;" class="cls-4" points="1688.39 374.07 1584.89 374.07 1586 361.81 1590.77 362.24 1590.13 369.28 1682.83 369.28 1681.26 358.85 1614.22 358.85 1614.22 354.06 1685.39 354.06 1688.39 374.07"/></g><g id="_Group_7" data-name="&lt;Group&gt;"><circle class="cls-5" cx="1607.23" cy="277.61" r="5.16"/></g><g id="_Group_8" data-name="&lt;Group&gt;"><circle class="cls-5" cx="1665.89" cy="277.61" r="5.16"/></g><g id="_Group_9" data-name="&lt;Group&gt;"><path id="_Path_3" data-name="&lt;Path&gt;" class="cls-4" d="M1668.29,277.6h-4.79V266.66a26.94,26.94,0,0,0-53.87,0V277.6h-4.79V266.66a31.73,31.73,0,0,1,63.46,0Z"/></g></g><g id="_Group_10" data-name="&lt;Group&gt;"><g id="_Group_11" data-name="&lt;Group&gt;"><path id="_Compound_Path_" data-name="&lt;Compound Path&gt;" class="cls-4" d="M1308.68,284l-3.14-1.5c-2.08-1-20.46-9.88-24.14-16.25a14.76,14.76,0,1,1,25.56-14.76h0c1.13,2,1.85,5.15,2.2,9.77a146.85,146.85,0,0,1-.2,19.26Zm-14.52-35.09a10,10,0,0,0-8.61,14.95c1.92,3.32,11.54,9,18.85,12.74a128.58,128.58,0,0,0,0-15c-.38-5-1.14-7-1.57-7.74h0A10,10,0,0,0,1294.15,248.86Z"/></g><g id="_Group_12" data-name="&lt;Group&gt;"><path id="_Path_4" data-name="&lt;Path&gt;" class="cls-4" d="M1308.82,282.46l-2.06-4.33c7.35-3.5,19.84-10.49,22.06-14.32a10,10,0,1,0-17.26-10l-4.15-2.4A14.76,14.76,0,0,1,1333,266.2C1329.29,272.58,1310.91,281.46,1308.82,282.46Z"/></g><g id="_Group_13" data-name="&lt;Group&gt;"><path class="cls-6" d="M1261.46,286.43H1353a0,0,0,0,1,0,0v78.89a5.8,5.8,0,0,1-5.8,5.8h-79.94a5.8,5.8,0,0,1-5.8-5.8V286.43A0,0,0,0,1,1261.46,286.43Z"/></g><g id="_Group_14" data-name="&lt;Group&gt;"><path id="_Path_5" data-name="&lt;Path&gt;" class="cls-4" d="M1347.2,373.52h-79.94a8.2,8.2,0,0,1-8.2-8.2v-3.19h4.79v3.19a3.41,3.41,0,0,0,3.4,3.41h79.94a3.41,3.41,0,0,0,3.4-3.41v-76.5h-86.75v48.24h-4.79V284h96.33v81.29A8.2,8.2,0,0,1,1347.2,373.52Z"/></g><g id="_Group_15" data-name="&lt;Group&gt;"><rect id="_Path_6" data-name="&lt;Path&gt;" class="cls-4" x="1259.07" y="342.9" width="4.79" height="14.27"/></g><g id="_Group_16" data-name="&lt;Group&gt;"><rect class="cls-7" x="1256.35" y="277.35" width="101.67" height="16.59" rx="3.49" ry="3.49"/></g><g id="_Group_17" data-name="&lt;Group&gt;"><path id="_Path_7" data-name="&lt;Path&gt;" class="cls-4" d="M1343.35,296.34h-83.52a5.89,5.89,0,0,1-5.88-5.88v-9.62a5.89,5.89,0,0,1,5.88-5.88h83.52v4.79h-83.52a1.09,1.09,0,0,0-1.09,1.09v9.62a1.09,1.09,0,0,0,1.09,1.09h83.52Z"/></g><g id="_Group_18" data-name="&lt;Group&gt;"><rect class="cls-3" x="1297.25" y="277.35" width="21.81" height="93.77"/></g><g id="_Group_19" data-name="&lt;Group&gt;"><path id="_Compound_Path_2" data-name="&lt;Compound Path&gt;" class="cls-4" d="M1321.46,373.52h-26.61V275h26.61Zm-21.81-4.79h17v-89h-17Z"/></g><g id="_Group_20" data-name="&lt;Group&gt;"><rect id="_Path_8" data-name="&lt;Path&gt;" class="cls-4" x="1296.07" y="283.62" width="22.89" height="4.79" transform="translate(32.2 692.18) rotate(-30)"/></g><g id="_Group_21" data-name="&lt;Group&gt;"><rect id="_Path_9" data-name="&lt;Path&gt;" class="cls-4" x="1296.59" y="294.62" width="23.32" height="4.79" transform="translate(26.8 694.02) rotate(-30)"/></g><g id="_Group_22" data-name="&lt;Group&gt;"><rect id="_Path_10" data-name="&lt;Path&gt;" class="cls-4" x="1296.5" y="306.09" width="23.32" height="4.79" transform="translate(21.05 695.51) rotate(-30)"/></g><g id="_Group_23" data-name="&lt;Group&gt;"><rect id="_Path_11" data-name="&lt;Path&gt;" class="cls-4" x="1296.41" y="317.56" width="23.32" height="4.79" transform="translate(15.3 697) rotate(-30)"/></g><g id="_Group_24" data-name="&lt;Group&gt;"><rect id="_Path_12" data-name="&lt;Path&gt;" class="cls-4" x="1296.31" y="329.03" width="23.32" height="4.79" transform="translate(9.55 698.49) rotate(-30)"/></g><g id="_Group_25" data-name="&lt;Group&gt;"><rect id="_Path_13" data-name="&lt;Path&gt;" class="cls-4" x="1296.22" y="340.5" width="23.32" height="4.79" transform="translate(3.8 699.98) rotate(-30)"/></g><g id="_Group_26" data-name="&lt;Group&gt;"><rect id="_Path_14" data-name="&lt;Path&gt;" class="cls-4" x="1296.13" y="351.98" width="23.32" height="4.79" transform="matrix(0.87, -0.5, 0.5, 0.87, -1.96, 701.43)"/></g><g id="_Group_27" data-name="&lt;Group&gt;"><rect id="_Path_15" data-name="&lt;Path&gt;" class="cls-4" x="1296.04" y="363.45" width="23.32" height="4.79" transform="matrix(0.87, -0.5, 0.5, 0.87, -7.71, 702.92)"/></g></g><g id="_Group_28" data-name="&lt;Group&gt;"><g id="_Group_29" data-name="&lt;Group&gt;"><path id="_Path_16" data-name="&lt;Path&gt;" class="cls-6" d="M1350.39,119h-13.65a2.4,2.4,0,1,1,0-4.79h13.65a2.4,2.4,0,1,1,0,4.79Z"/></g><g id="_Group_30" data-name="&lt;Group&gt;"><path id="_Path_17" data-name="&lt;Path&gt;" class="cls-6" d="M1343.57,125.83a2.4,2.4,0,0,1-2.4-2.4V109.78a2.4,2.4,0,0,1,4.79,0v13.65A2.4,2.4,0,0,1,1343.57,125.83Z"/></g></g><g id="_Group_31" data-name="&lt;Group&gt;"><g id="_Group_32" data-name="&lt;Group&gt;"><path id="_Path_18" data-name="&lt;Path&gt;" class="cls-6" d="M1572.52,144.23h-13.65a2.4,2.4,0,1,1,0-4.79h13.65a2.4,2.4,0,1,1,0,4.79Z"/></g><g id="_Group_33" data-name="&lt;Group&gt;"><path id="_Path_19" data-name="&lt;Path&gt;" class="cls-6" d="M1565.69,151.06a2.4,2.4,0,0,1-2.4-2.4V135a2.4,2.4,0,0,1,4.79,0v13.65A2.4,2.4,0,0,1,1565.69,151.06Z"/></g></g><g id="_Group_34" data-name="&lt;Group&gt;"><g id="_Group_35" data-name="&lt;Group&gt;"><path id="_Path_20" data-name="&lt;Path&gt;" class="cls-6" d="M1690,177.52a2.4,2.4,0,0,1-1.69-4.09l9.65-9.65a2.4,2.4,0,1,1,3.39,3.39l-9.65,9.65A2.39,2.39,0,0,1,1690,177.52Z"/></g><g id="_Group_36" data-name="&lt;Group&gt;"><path id="_Path_21" data-name="&lt;Path&gt;" class="cls-6" d="M1699.65,177.52a2.39,2.39,0,0,1-1.69-.7l-9.65-9.65a2.4,2.4,0,0,1,3.39-3.39l9.65,9.65a2.4,2.4,0,0,1-1.69,4.09Z"/></g></g><g id="_Group_37" data-name="&lt;Group&gt;"><g id="_Group_38" data-name="&lt;Group&gt;"><path id="_Path_22" data-name="&lt;Path&gt;" class="cls-6" d="M1412.72,78.81a2.4,2.4,0,0,1-1.69-4.09l9.65-9.65a2.4,2.4,0,1,1,3.39,3.39l-9.65,9.65A2.39,2.39,0,0,1,1412.72,78.81Z"/></g><g id="_Group_39" data-name="&lt;Group&gt;"><path id="_Path_23" data-name="&lt;Path&gt;" class="cls-6" d="M1422.38,78.81a2.39,2.39,0,0,1-1.69-.7L1411,68.46a2.4,2.4,0,0,1,3.39-3.39l9.65,9.65a2.4,2.4,0,0,1-1.69,4.09Z"/></g></g><g id="_Group_40" data-name="&lt;Group&gt;"><g id="_Group_41" data-name="&lt;Group&gt;"><path id="_Path_24" data-name="&lt;Path&gt;" class="cls-6" d="M1184.53,229.4a2.4,2.4,0,0,1-1.69-4.09l9.65-9.65a2.4,2.4,0,0,1,3.39,3.39l-9.65,9.65A2.39,2.39,0,0,1,1184.53,229.4Z"/></g><g id="_Group_42" data-name="&lt;Group&gt;"><path id="_Path_25" data-name="&lt;Path&gt;" class="cls-6" d="M1194.18,229.4a2.39,2.39,0,0,1-1.69-.7l-9.65-9.65a2.4,2.4,0,0,1,3.39-3.39l9.65,9.65a2.4,2.4,0,0,1-1.69,4.09Z"/></g></g><g id="_Group_43" data-name="&lt;Group&gt;"><rect id="_Path_26" data-name="&lt;Path&gt;" class="cls-6" x="1442.72" y="69.19" width="130.06" height="4.79"/></g><g id="_Group_44" data-name="&lt;Group&gt;"><rect id="_Path_27" data-name="&lt;Path&gt;" class="cls-6" x="1376.23" y="114.21" width="55.57" height="4.79"/></g><g id="_Group_45" data-name="&lt;Group&gt;"><rect id="_Path_28" data-name="&lt;Path&gt;" class="cls-6" x="1184.53" y="189.72" width="94.21" height="4.79"/></g><g id="_Group_46" data-name="&lt;Group&gt;"><rect id="_Path_29" data-name="&lt;Path&gt;" class="cls-6" x="1625.05" y="167.9" width="55.57" height="4.79"/></g><g id="_Group_47" data-name="&lt;Group&gt;"><rect id="_Path_30" data-name="&lt;Path&gt;" class="cls-6" x="1360.03" y="114.21" width="11.4" height="4.79"/></g><g id="_Group_48" data-name="&lt;Group&gt;"><circle class="cls-6" cx="1219.27" cy="303.76" r="3.9"/></g><g id="_Group_49" data-name="&lt;Group&gt;"><circle class="cls-6" cx="1288.43" cy="192.12" r="5.38"/></g><g id="_Group_50" data-name="&lt;Group&gt;"><circle class="cls-6" cx="1572.78" cy="106.96" r="5.38"/></g><g id="_Group_51" data-name="&lt;Group&gt;"><circle class="cls-6" cx="1752.07" cy="175.13" r="5.38"/></g><g id="_Group_52" data-name="&lt;Group&gt;"><circle class="cls-6" cx="1229.08" cy="129.58" r="3.43"/></g><g id="_Group_53" data-name="&lt;Group&gt;"><circle class="cls-6" cx="1526.22" cy="149.54" r="3.43"/></g><g id="_Group_54" data-name="&lt;Group&gt;"><circle class="cls-6" cx="1732.04" cy="291.96" r="3.43"/></g><g id="_Group_55" data-name="&lt;Group&gt;"><circle class="cls-6" cx="1351.4" cy="65.72" r="3.91"/></g><g id="_Group_56" data-name="&lt;Group&gt;"><path id="_Path_31" data-name="&lt;Path&gt;" class="cls-4" d="M1609.22,360.94l1.93-11.78h-10.74v-89.3h-2.18v2.4h-6.52a1.92,1.92,0,0,0-1.92,1.92v92.27l-.84,5.62-3-.27-1.11,12.26h8.87A15.61,15.61,0,0,0,1609.22,360.94Z"/></g><g id="_Group_57" data-name="&lt;Group&gt;"><path id="_Path_32" data-name="&lt;Path&gt;" class="cls-4" d="M1355.4,365.32V293.77a3.44,3.44,0,0,0,2.61-3.31v-9.62a3.48,3.48,0,0,0-3.48-3.49h-11.18V275H1339v74.2H1327l2.15,13.12a14,14,0,0,0,10.16,11.24h7.91A8.21,8.21,0,0,0,1355.4,365.32Z"/></g><g id="_Group_58" data-name="&lt;Group&gt;"><g id="_Group_59" data-name="&lt;Group&gt;"><rect class="cls-4" x="1347.82" y="186.69" width="243.82" height="175.25" rx="3.19" ry="3.19"/></g><g id="_Group_60" data-name="&lt;Group&gt;"><path id="_Path_33" data-name="&lt;Path&gt;" class="cls-4" d="M1585.57,364.34h-231.7a8.46,8.46,0,0,1-8.45-8.45V192.75a8.46,8.46,0,0,1,8.45-8.46h25.64v4.79h-25.64a3.67,3.67,0,0,0-3.66,3.66V355.88a3.67,3.67,0,0,0,3.66,3.66h231.7a3.67,3.67,0,0,0,3.66-3.66V192.75a3.67,3.67,0,0,0-3.66-3.66h-25.66v-4.79h25.66a8.46,8.46,0,0,1,8.45,8.46V355.88A8.46,8.46,0,0,1,1585.57,364.34Z"/></g><g id="_Group_61" data-name="&lt;Group&gt;"><rect class="cls-6" x="1359.66" y="200.48" width="218.81" height="142.21"/></g><g id="_Group_62" data-name="&lt;Group&gt;"><path class="cls-6" d="M1587.37,371.67h-238a11.66,11.66,0,0,1-11.51-9.78l-1.7-10.34h110.3l4.22,6.06h30.48l4.56-6.06h116.2l-1.47,9A13.27,13.27,0,0,1,1587.37,371.67Z"/></g><g id="_Group_63" data-name="&lt;Group&gt;"><path id="_Compound_Path_3" data-name="&lt;Compound Path&gt;" class="cls-4" d="M1587.37,374.07h-238a14,14,0,0,1-13.88-11.78l-2.15-13.12h114.37l4.22,6.06h28l4.56-6.06h120.21l-1.93,11.78A15.61,15.61,0,0,1,1587.37,374.07ZM1339,354l1.24,7.56a9.24,9.24,0,0,0,9.15,7.77h238a10.84,10.84,0,0,0,10.73-9.12l1-6.21H1486.94l-4.56,6.06h-32.92l-4.22-6.06Z"/></g><g id="_Group_64" data-name="&lt;Group&gt;"><g id="_Group_65" data-name="&lt;Group&gt;"><polygon class="cls-6" points="1373.4 163.86 1373.4 172.95 1385.22 182.02 1385.22 200.44 1553.88 200.44 1553.88 182.02 1565.69 172.95 1565.69 163.86 1373.4 163.86"/></g><g id="_Group_66" data-name="&lt;Group&gt;"><polygon id="_Path_34" data-name="&lt;Path&gt;" class="cls-4" points="1556.28 200.44 1551.48 200.44 1551.48 180.84 1563.3 171.77 1563.3 166.25 1375.8 166.25 1375.8 171.77 1387.61 180.84 1387.61 200.44 1382.82 200.44 1382.82 183.2 1371.01 174.13 1371.01 161.46 1568.09 161.46 1568.09 174.13 1556.28 183.2 1556.28 200.44"/></g><g id="_Group_67" data-name="&lt;Group&gt;"><rect id="_Path_35" data-name="&lt;Path&gt;" class="cls-4" x="1496.88" y="179.75" width="58.69" height="4.79"/></g><g id="_Group_68" data-name="&lt;Group&gt;"><path class="cls-6" d="M1390,205.23h159.71a4.3,4.3,0,0,1,4.3,4.3V338.59a0,0,0,0,1,0,0H1385.75a0,0,0,0,1,0,0V209.53A4.3,4.3,0,0,1,1390,205.23Z"/></g><g id="_Group_69" data-name="&lt;Group&gt;"><path id="_Path_36" data-name="&lt;Path&gt;" class="cls-4" d="M1556.45,341h-173.1V210.25c0-4.09,3.75-7.41,8.36-7.41H1405v4.79h-13.31c-1.93,0-3.57,1.2-3.57,2.62V336.19h163.52V210.25c0-1.42-1.63-2.62-3.57-2.62h-95.88v-4.79h95.88c4.61,0,8.36,3.33,8.36,7.41Z"/></g><g id="_Group_70" data-name="&lt;Group&gt;"><rect class="cls-4" x="1378.2" y="330.21" width="183.41" height="12.79" rx="3.08" ry="3.08"/></g><g id="_Group_71" data-name="&lt;Group&gt;"><path id="_Path_37" data-name="&lt;Path&gt;" class="cls-4" d="M1564,343.12h-4.79V333.3a.69.69,0,0,0-.69-.69H1381.28a.69.69,0,0,0-.69.69v9.82h-4.79V333.3a5.49,5.49,0,0,1,5.48-5.48h177.25a5.48,5.48,0,0,1,5.48,5.48Z"/></g><g id="_Group_72" data-name="&lt;Group&gt;"><rect class="cls-8" x="1405.02" y="263.58" width="41.34" height="79.43"/></g><g id="_Group_73" data-name="&lt;Group&gt;"><polygon class="cls-9" points="1405.02 317.14 1446.36 275.8 1446.36 263.58 1436.18 263.58 1405.02 294.73 1405.02 317.14"/></g><g id="_Group_74" data-name="&lt;Group&gt;"><polygon class="cls-9" points="1405.02 334.13 1446.36 292.79 1446.36 284.99 1405.02 326.33 1405.02 334.13"/></g><g id="_Group_75" data-name="&lt;Group&gt;"><polygon id="_Path_38" data-name="&lt;Path&gt;" class="cls-4" points="1448.76 338.22 1443.96 338.22 1443.96 265.98 1407.42 265.98 1407.42 338.22 1402.63 338.22 1402.63 261.19 1448.76 261.19 1448.76 338.22"/></g><g id="_Group_76" data-name="&lt;Group&gt;"><rect class="cls-8" x="1405.02" y="224.78" width="41.34" height="25.5"/></g><g id="_Group_77" data-name="&lt;Group&gt;"><path id="_Compound_Path_4" data-name="&lt;Compound Path&gt;" class="cls-4" d="M1448.75,252.68h-46.13V222.38h46.13Zm-41.34-4.79H1444V227.17h-36.55Z"/></g><g id="_Group_78" data-name="&lt;Group&gt;"><path id="_Compound_Path_5" data-name="&lt;Compound Path&gt;" class="cls-4" d="M1417.55,311.36a7.36,7.36,0,1,1,7.36-7.36A7.37,7.37,0,0,1,1417.55,311.36Zm0-9.92a2.57,2.57,0,1,0,2.57,2.57A2.57,2.57,0,0,0,1417.55,301.44Z"/></g><g id="_Group_79" data-name="&lt;Group&gt;"><rect class="cls-8" x="1472.59" y="249.24" width="57.17" height="65.58"/></g><g id="_Group_80" data-name="&lt;Group&gt;"><polygon class="cls-9" points="1472.59 272.93 1472.59 304.94 1528.3 249.24 1496.28 249.24 1472.59 272.93"/></g><g id="_Group_81" data-name="&lt;Group&gt;"><polygon class="cls-9" points="1495.24 314.82 1529.76 280.3 1529.76 263.51 1478.45 314.82 1495.24 314.82"/></g><g id="_Group_82" data-name="&lt;Group&gt;"><path id="_Compound_Path_6" data-name="&lt;Compound Path&gt;" class="cls-4" d="M1532.16,317.22h-62V246.84h62ZM1475,312.42h52.38V251.63H1475Z"/></g><g id="_Group_83" data-name="&lt;Group&gt;"><path class="cls-3" d="M1460.87,210h79.87a0,0,0,0,1,0,0v47.59a6,6,0,0,1-6,6h-67.95a6,6,0,0,1-6-6V210A0,0,0,0,1,1460.87,210Z"/></g><g id="_Group_84" data-name="&lt;Group&gt;"><path class="cls-6" d="M1472.59,263.58h0a11.72,11.72,0,0,1-11.72-11.72V210h11.72Z"/></g><g id="_Group_85" data-name="&lt;Group&gt;"><rect class="cls-6" x="1484.31" y="210.03" width="11.72" height="53.56"/></g><g id="_Group_86" data-name="&lt;Group&gt;"><rect class="cls-6" x="1507.75" y="210.03" width="11.72" height="53.56"/></g><g id="_Group_87" data-name="&lt;Group&gt;"><path class="cls-6" d="M1540.74,255.31V210h-11v53.56h2.71A8.27,8.27,0,0,0,1540.74,255.31Z"/></g><g id="_Group_88" data-name="&lt;Group&gt;"><path id="_Compound_Path_7" data-name="&lt;Compound Path&gt;" class="cls-4" d="M1529.91,266h-58.7a12.74,12.74,0,0,1-12.73-12.73V207.63h84.66v45.12A13.24,13.24,0,0,1,1529.91,266Zm-66.64-53.56v40.82a8,8,0,0,0,7.94,7.94h58.7a8.44,8.44,0,0,0,8.43-8.43V212.42Z"/></g><g id="_Group_89" data-name="&lt;Group&gt;"><polygon class="cls-10" points="1561.61 214.82 1378.2 214.82 1378.19 214.82 1370.21 195.65 1568 195.65 1561.61 214.82"/></g><g id="_Group_90" data-name="&lt;Group&gt;"><path id="_Compound_Path_8" data-name="&lt;Compound Path&gt;" class="cls-4" d="M1563.33,217.21H1376.6l-10-24h204.7Zm-183.54-4.79h180.09l4.79-14.38H1373.8Z"/></g></g></g><g id="_Group_91" data-name="&lt;Group&gt;"><g id="_Group_92" data-name="&lt;Group&gt;"><rect id="_Path_39" data-name="&lt;Path&gt;" class="cls-4" x="1236.05" y="232.67" width="4.79" height="32.52"/></g><g id="_Group_93" data-name="&lt;Group&gt;"><polygon class="cls-4" points="1239.43 265.79 1237.46 265.79 1234.5 269.97 1234.5 326.3 1242.38 326.3 1242.38 269.97 1239.43 265.79"/></g><g id="_Group_94" data-name="&lt;Group&gt;"><polygon id="_Path_40" data-name="&lt;Path&gt;" class="cls-4" points="1244.78 326.3 1239.99 326.3 1239.99 270.73 1238.44 268.54 1236.89 270.73 1236.89 326.3 1232.1 326.3 1232.1 269.21 1236.22 263.39 1240.67 263.39 1244.78 269.21 1244.78 326.3"/></g><g id="_Group_95" data-name="&lt;Group&gt;"><circle class="cls-11" cx="1238.44" cy="232.67" r="25.79"/></g><g id="_Group_96" data-name="&lt;Group&gt;"><path class="cls-9" d="M1237.74,206.88a25.7,25.7,0,0,0-18.48,7.82,25.77,25.77,0,0,1,32,39.88,25.77,25.77,0,0,0-13.55-47.7Z"/></g><g id="_Group_97" data-name="&lt;Group&gt;"><path id="_Compound_Path_9" data-name="&lt;Compound Path&gt;" class="cls-4" d="M1238.44,260.85a28.18,28.18,0,1,1,28.18-28.18A28.22,28.22,0,0,1,1238.44,260.85Zm0-51.58a23.39,23.39,0,1,0,23.39,23.39A23.42,23.42,0,0,0,1238.44,209.27Z"/></g><g id="_Group_98" data-name="&lt;Group&gt;"><rect class="cls-4" x="1231.69" y="325.93" width="13.51" height="45.74"/></g><g id="_Group_99" data-name="&lt;Group&gt;"><rect class="cls-4" x="1231.69" y="325.93" width="5.22" height="45.74"/></g><g id="_Group_100" data-name="&lt;Group&gt;"><path id="_Compound_Path_10" data-name="&lt;Compound Path&gt;" class="cls-4" d="M1247.59,374.07h-18.3V323.54h18.3Zm-13.51-4.79h8.72V328.33h-8.72Z"/></g></g><g id="_Group_101" data-name="&lt;Group&gt;"><g id="_Group_102" data-name="&lt;Group&gt;"><rect id="_Path_41" data-name="&lt;Path&gt;" class="cls-4" x="1704" y="232.67" width="4.79" height="32.52"/></g><g id="_Group_103" data-name="&lt;Group&gt;"><polygon class="cls-4" points="1707.39 265.79 1705.41 265.79 1702.46 269.97 1702.46 326.3 1710.34 326.3 1710.34 269.97 1707.39 265.79"/></g><g id="_Group_104" data-name="&lt;Group&gt;"><polygon id="_Path_42" data-name="&lt;Path&gt;" class="cls-4" points="1712.74 326.3 1707.95 326.3 1707.95 270.73 1706.4 268.54 1704.85 270.73 1704.85 326.3 1700.06 326.3 1700.06 269.21 1704.17 263.39 1708.63 263.39 1712.74 269.21 1712.74 326.3"/></g><g id="_Group_105" data-name="&lt;Group&gt;"><circle class="cls-11" cx="1706.4" cy="232.67" r="25.79"/></g><g id="_Group_106" data-name="&lt;Group&gt;"><path class="cls-9" d="M1705.7,206.88a25.7,25.7,0,0,0-18.48,7.82,25.77,25.77,0,0,1,32,39.88,25.77,25.77,0,0,0-13.55-47.7Z"/></g><g id="_Group_107" data-name="&lt;Group&gt;"><path id="_Compound_Path_11" data-name="&lt;Compound Path&gt;" class="cls-4" d="M1706.4,260.85a28.18,28.18,0,1,1,28.18-28.18A28.22,28.22,0,0,1,1706.4,260.85Zm0-51.58a23.39,23.39,0,1,0,23.39,23.39A23.42,23.42,0,0,0,1706.4,209.27Z"/></g><g id="_Group_108" data-name="&lt;Group&gt;"><rect class="cls-4" x="1699.65" y="325.93" width="13.51" height="45.74"/></g><g id="_Group_109" data-name="&lt;Group&gt;"><rect class="cls-4" x="1699.65" y="325.93" width="5.22" height="45.74"/></g><g id="_Group_110" data-name="&lt;Group&gt;"><path id="_Compound_Path_12" data-name="&lt;Compound Path&gt;" class="cls-4" d="M1715.55,374.07h-18.3V323.54h18.3ZM1702,369.28h8.72V328.33H1702Z"/></g></g><g id="_Group_111" data-name="&lt;Group&gt;"><g id="_Group_112" data-name="&lt;Group&gt;"><rect id="_Path_43" data-name="&lt;Path&gt;" class="cls-4" x="1194.18" y="369.28" width="8.75" height="4.79"/></g><g id="_Group_113" data-name="&lt;Group&gt;"><rect id="_Path_44" data-name="&lt;Path&gt;" class="cls-4" x="1737.03" y="369.28" width="19.32" height="4.79"/></g><g id="_Group_114" data-name="&lt;Group&gt;"><rect id="_Path_45" data-name="&lt;Path&gt;" class="cls-4" x="1208.75" y="369.28" width="523.29" height="4.79"/></g></g></g><path class="cls-6" d="M193.91,150.42c4.71.94,9.12,5.21,9.12,12.52,0,9.77-7.82,14-20.85,14-7.09,0-20.05-.58-20.41-.87s-.94-48.79-.72-49.37,13.9-.87,15.35-.87c11.51,0,23.09,2.46,23.09,13.75,0,5.86-2.24,8.32-5.57,10.35Zm-17.52-5.21a9.69,9.69,0,0,0,1.45.07c3.91,0,6-1.38,6-4s-3.4-3.47-5.72-3.47a11,11,0,0,0-1.66.14C176.39,139.06,176.39,145.21,176.39,145.21Zm.72,19.18a22.91,22.91,0,0,0,3,.22c4.49,0,6.15-1.74,6.15-4.2,0-2.9-2.53-4.13-6.51-4.13-.8,0-1.66.07-2.53.14C177.11,157.51,177.11,164.39,177.11,164.39Z"/><path class="cls-6" d="M224.09,126.46c.51.87-.72,18.75-.72,26.64,0,6.8,1.81,9,6.08,9,5,0,6-3.69,6-8.76,0-7.89-.58-23.31-.65-27.43.94-.65,16.94-1.3,17.08-.58.29,1.3.58,21.43.58,29.17,0,12.89-4.56,23.38-22.73,23.38-14.19,0-22.73-6.3-22.73-22.73,0-6.23.51-24.54,1.16-28.45C208.39,125.23,223.8,126,224.09,126.46Z"/><path class="cls-6" d="M257.18,172.35c-.36-1.45,3.62-13.17,4.49-12.89,1.52.51,7.46,4.49,13.39,4.49,3.26,0,4.85-.8,4.85-2.39s-.87-2.68-7.46-3.91c-9.34-1.74-15-6.08-15-16.58,0-8.61,7-16,20.05-16,7.89,0,15,1.88,17.81,4.05,1.09.8-4,12.38-4.78,12.45-.51.14-6.3-2.82-12.74-2.82-3.19,0-4.49.87-4.49,2.1,0,1.81,1.16,2.17,7.31,3.47,8.47,1.81,16.36,5.36,16.36,16.29,0,7.17-5.65,16.29-21.28,16.29C267.6,176.91,260.07,174.16,257.18,172.35Z"/><path class="cls-6" d="M318.27,126.17c.58.43.51,47.56-.14,50.31-.36,1.52-15.93.87-16,.29-.36-4.34-.58-43.87.14-50.45C305.32,125.66,317.7,125.74,318.27,126.17Z"/><path class="cls-6" d="M356.93,176.84c-1.52-1.88-8.4-14-15.13-24.39,0,9.41.51,19.33.29,23.6-3,.65-15.56.72-15.64,0-.43-3-.65-45.53,0-49.44.22-1.52,14.55-1.52,14.84-1,1,1.59,9.84,15.56,15.49,26.57.07-10.64-.36-22.66,0-25.77,3-.65,15-.43,15.56,0s.07,46.55-.58,49.3C371.41,177.2,357.94,177.42,356.93,176.84Z"/><path class="cls-6" d="M416,176.77c.8.43-28.23.43-36-.14-.36-5.14.14-40.18.65-50.6,8.18-.51,35.76-.58,36-.14.51,1.66.58,10.42.07,13.54-2.68.29-14.84.22-21.06,0l.14,4.85c7.31-.07,15,.14,15.42.58.8.8.14,12.45.14,12.81s-8,.43-15.64.22v5.5c6.51-.22,17.81-.22,20.34,0C416.58,166.49,416.51,175.1,416,176.77Z"/><path class="cls-6" d="M420.35,172.35c-.36-1.45,3.62-13.17,4.49-12.89,1.52.51,7.46,4.49,13.39,4.49,3.26,0,4.85-.8,4.85-2.39s-.87-2.68-7.46-3.91c-9.34-1.74-15-6.08-15-16.58,0-8.61,7-16,20.05-16,7.89,0,15,1.88,17.81,4.05,1.09.8-4,12.38-4.78,12.45-.51.14-6.3-2.82-12.74-2.82-3.19,0-4.49.87-4.49,2.1,0,1.81,1.16,2.17,7.31,3.47,8.47,1.81,16.36,5.36,16.36,16.29,0,7.17-5.65,16.29-21.28,16.29C430.77,176.91,423.24,174.16,420.35,172.35Z"/><path class="cls-6" d="M462.7,172.35c-.36-1.45,3.62-13.17,4.49-12.89,1.52.51,7.46,4.49,13.39,4.49,3.26,0,4.85-.8,4.85-2.39s-.87-2.68-7.46-3.91c-9.34-1.74-15-6.08-15-16.58,0-8.61,7-16,20.05-16,7.89,0,15,1.88,17.81,4.05,1.09.8-4,12.38-4.78,12.45-.51.14-6.3-2.82-12.74-2.82-3.19,0-4.49.87-4.49,2.1,0,1.81,1.16,2.17,7.31,3.47,8.47,1.81,16.36,5.36,16.36,16.29,0,7.17-5.65,16.29-21.28,16.29C473.12,176.91,465.59,174.16,462.7,172.35Z"/><path class="cls-6" d="M161.77,183.73c1.66-.43,11.51-.58,17.3-.58,17.16,0,27.65,10.86,27.65,25.7,0,15.13-8.25,26.06-28.3,26.06-6.23,0-15.56-.51-17.16-1C160.9,229.55,161,190.32,161.77,183.73ZM179.43,198c-.87,0-2,0-2.68.07.07,6.66,0,15.49-.07,22.15a24.07,24.07,0,0,0,3.47.22c4.27,0,10.06-1.45,10.06-10.93C190.21,202.62,185.73,198,179.43,198Z"/><path class="cls-6" d="M228.51,183.73c.58.43.51,47.56-.14,50.31-.36,1.52-15.93.87-16,.29-.36-4.34-.58-43.87.14-50.45C215.55,183.22,227.93,183.29,228.51,183.73Z"/><path class="cls-6" d="M236.47,234.33c-.36-4.34,0-43.87.72-50.45,4.85-.43,12.74-.72,18.1-.72,14.62,0,23,5.65,23,17.88,0,7.24-3,11.58-8.25,14,5.21,6.59,10.21,14.77,10,15.06-.94,1.16-11.22,5.5-13.9,5.36-.22,0-6.08-9.92-11.8-17.74h-2.17c-.07,6.66-.14,14.41-.43,16.29C251,234.33,236.55,234.91,236.47,234.33Zm20.12-28.59c3.55,0,5.79-1.23,5.79-4.27,0-2.68-1.23-4.49-6.37-4.49a18.49,18.49,0,0,0-2.75.14c.07,2.61,0,5.86-.07,8.47C254.06,205.66,255.58,205.73,256.6,205.73Z"/><path class="cls-6" d="M320.37,234.33c.8.43-28.23.43-36-.15-.36-5.14.14-40.18.65-50.6,8.18-.51,35.76-.58,36-.14.51,1.67.58,10.42.07,13.54-2.68.29-14.84.22-21.06,0l.14,4.85c7.31-.07,15,.14,15.42.58.8.8.14,12.45.14,12.81s-8,.43-15.64.22v5.5c6.51-.22,17.81-.22,20.34,0C321,224,320.88,232.66,320.37,234.33Z"/><path class="cls-6" d="M351.5,220.72a16.55,16.55,0,0,0,10.5-4c2,1.3,5.94,8.69,7.38,11.65-3.4,4.05-10.93,7.38-19.62,7.38-17.73,0-25.84-12.23-25.84-27.36,0-14.84,10.86-25.77,28-25.77,8.83,0,15.13,2.53,17.3,4.85-.07,1.74-3.69,11.51-5.94,13.39-2.61-1.45-7-3.33-11.08-3.33a11.17,11.17,0,0,0-11.44,11.51C340.79,218.55,347.23,220.72,351.5,220.72Z"/><path class="cls-6" d="M370.76,184c.36-.58,37.21-1.45,39.6-.8,1.23.22,1,13.54.51,13.61-1.3.22-6.15.43-12,.65.07,14.69.22,35.69-.14,36.19s-15.64.94-15.71.36c-.29-3-.43-22.73-.29-36.7-5.36.07-9.77,0-11.58-.22C370.54,194.23,370.4,184.53,370.76,184Z"/><path class="cls-6" d="M464.07,209.79c0,12.89-8.25,25.7-25.77,25.7-15.71,0-25.91-10.35-25.91-27.29,0-13,8.69-25.7,25.7-25.7C453.65,182.5,464.07,192.85,464.07,209.79ZM438.23,197c-5.72,0-9.27,4.49-9.27,12.09,0,6.88,3.69,11.73,9,11.73,5.94,0,9-4.42,9-12.09C447,200.16,443.08,197,438.23,197Z"/><path class="cls-6" d="M469.36,234.33c-.36-4.34,0-43.87.72-50.45,4.85-.43,12.74-.72,18.1-.72,14.62,0,23,5.65,23,17.88,0,7.24-3,11.58-8.25,14,5.21,6.59,10.21,14.77,10,15.06-.94,1.16-11.22,5.5-13.9,5.36-.22,0-6.08-9.92-11.8-17.74h-2.17c-.07,6.66-.14,14.41-.43,16.29C483.83,234.33,469.43,234.91,469.36,234.33Zm20.12-28.59c3.55,0,5.79-1.23,5.79-4.27,0-2.68-1.23-4.49-6.37-4.49a18.49,18.49,0,0,0-2.75.14c.07,2.61,0,5.86-.07,8.47C486.95,205.66,488.47,205.73,489.48,205.73Z"/><path class="cls-6" d="M542.54,214.93c.14,7,.22,17.3-.22,19.11-.36,1.52-16.29.58-16.36,0-.29-3.19.07-12,.29-19.11-2-3.69-14.55-26.78-14.48-27.72s14-5,14.77-4.56c.36.22,5.43,10.79,8,17.23h.43c3.33-6.37,8.25-17.23,8.76-17.23.72,0,14.41,3.55,14.48,4.56S544.42,211.74,542.54,214.93Z"/><path class="cls-12" d="M164.69,293.77c2.41,0,4.32,1.6,4.32,3.33,0,2.28-2.78,4.07-2.78,9.26,0,6.36,4.94,9.07,11.72,9.07,8.21,0,13.95-2.9,13.95-13.51,0-14.81-2.41-23.45-2.41-30.36,0-3.7.49-6.29,4.32-6.29,3.52,0,3.83,2.72,3.83,4.94,0,9.07-.68,19.13-.68,28.82,0,12.16-2.22,22.21-18.64,22.21-12.53,0-18.33-7.47-18.33-17.09C160,299.45,160.56,293.77,164.69,293.77Z"/><path class="cls-12" d="M212,307.47c-5.92-1.3-11.17-5.25-11.17-9.93,0-13.95-1.48-24.25-1.48-26.29,0-3.7,1-6.29,4.07-6.29s4.2,2.22,4.2,5.24c0,6.11-2.22,10.49-2.22,21.35,0,5.8-1.36,7.16,6.6,10.3Z"/><path class="cls-12" d="M212,301.86a12.91,12.91,0,0,0,5.49,1.11c2.65,0,5.74-1.91,6.91-6.6,2-8.7,7.28-13.08,13.88-13.08,7.9,0,13.14,5.43,13.14,13.51,0,9.44-6.54,13.21-12.77,13.21-7.78,0-10-3.89-12-3.89-1,0-1.85.74-3.15,1.73a6.46,6.46,0,0,1-1.6.8,5.88,5.88,0,0,1-2.28.37,42.88,42.88,0,0,1-7.65-1.54,18.9,18.9,0,0,1-5.43-2.9.94.94,0,0,1-.31-.56c0-.19.31-.56.86-1,1.17-.93,1.91-1.54,2.59-1.54A3.61,3.61,0,0,1,212,301.86Zm26,2.1c5,0,6.91-3.83,6.91-6.91a7.32,7.32,0,0,0-7.47-7.53,7.49,7.49,0,0,0-7.4,7.59C230.1,301.36,233.43,304,238.06,304Z"/><path class="cls-12" d="M261.38,295.38c0-6.42,4.26-12.16,12.4-12.16,3.27,0,9.63,1.17,9.63,4.94,0,2.47-2,2.41-2,2.34-1.91,0-3-1.17-7.16-1.17-4.38,0-6.91,2.9-6.91,6.79,0,5.12,4.5,7.59,8.45,7.59,4.32,0,5.06-1.42,8.15-1.42,1.42,0,2.47.43,2.47,2.1,0,5.06-10.68,5.49-20,5.49a49.93,49.93,0,0,1-15.74-2.41,18.83,18.83,0,0,1-5.25-2.59,1.16,1.16,0,0,1-.49-.86c0-.93,1.67-2.78,2.84-2.78a14.43,14.43,0,0,1,2.9.62A37.49,37.49,0,0,0,265,304.39,12.48,12.48,0,0,1,261.38,295.38Z"/><path class="cls-12" d="M300.13,257.86c-.56,0-1.36-.25-1.36-1.79,0-2.16,8.64-3.95,11.35-4.81a3,3,0,0,1,.93-.19c.49,0,1.54.43,1.54,2.1,0,2.28-4.26,2.47-6.42,3-1.91.49-3.52,1-5.49,1.67C300.5,257.8,300.38,257.86,300.13,257.86Z"/><path class="cls-12" d="M312,304.2c8.08,0,10.43-1.42,10.43-8.89,0-11-1.54-21.1-1.54-25.85,0-2,.43-4.13,3.39-4.13,3.46,0,3.76,1.91,3.76,4.13,0,2.41-.31,25-.31,30.67,0,4-1.67,9.69-15.74,9.69-11.54,0-20.86-1.17-20.86-4.81a2.2,2.2,0,0,1,2.47-2.47c.93,0,6.73,1,12.71,1.54.19-2,.12-5.12.12-7.28,0-3.09-.62-13.76-.62-14.87,0-2,.37-3.46,3.15-3.46,3,0,3.46,1.17,3.46,2.9,0,1-.43,10.8-.43,17.59ZM314.69,270c.56,0,.8.49.8,1.42,0,1.42-1.48,1.73-2.41,1.73-6.42,0-8.58.49-9.75.49-.56,0-.8-.31-.8-1.3,0-1.17.37-2.41,4-2.41a5.52,5.52,0,0,1-2.34-4.26c0-3.7,3.09-5.12,5.86-5.12,2.22,0,4.94.49,4.94,2.65,0,.93-.56,1.23-1,1.23a22.52,22.52,0,0,0-3.15-.49c-1,0-3,.37-3,2.59,0,2.72,2.72,3.46,5.49,3.46Z"/><path class="cls-12" d="M334.32,304.26c0-1.11,1.11-9.5,1.11-20.18,0-3-.8-13.64-.8-14.87,0-2,.49-3.64,3-3.64,3.09,0,3.09,1.6,3.09,3.33,0,1.11-.56,10.74-.56,17.65,0,9,.93,18.2.93,19.31,0,1.48-.37,3-3.33,3C334.56,308.83,334.32,306.92,334.32,304.26Z"/><path class="cls-12" d="M357.82,293.77c2.41,0,4.32,1.6,4.32,3.33,0,2.28-2.78,4.07-2.78,9.26,0,6.36,4.94,9.07,11.72,9.07,8.21,0,13.95-2.9,13.95-13.51,0-14.81-2.41-23.45-2.41-30.36,0-3.7.49-6.29,4.32-6.29,3.52,0,3.83,2.72,3.83,4.94,0,9.07-.68,19.13-.68,28.82,0,12.16-2.22,22.21-18.64,22.21-12.53,0-18.33-7.47-18.33-17.09C353.13,299.45,353.69,293.77,357.82,293.77Z"/><path class="cls-12" d="M391,301.86c1.42.8,3.58,1.85,8.89,1.85,5.55,0,6-3.27,6-5.18,0-6.54-2-7.34-2-9.69,0-.86.37-2.41,3-2.41,4.2,0,4.57,6.66,4.57,11.11,0,8.15-3.27,11.54-11.42,11.54a32.93,32.93,0,0,1-9-1.6,40.49,40.49,0,0,1-3.89-1.36q-1.85-.74-1.85-1.11c0-.93,2.22-3.52,3.46-3.52A5.93,5.93,0,0,1,391,301.86Zm10.86,14.56a3.49,3.49,0,0,1,3.46,3.64,3.3,3.3,0,0,1-3.58,3.58c-2,0-3.58-.8-3.58-3.09S399,316.42,401.82,316.42Zm5.25,3.64a3.4,3.4,0,0,1,3.52-3.64c2.78,0,3.58,1.91,3.58,3.95,0,1.73-.86,3.27-3.58,3.27C408.42,323.64,407.06,322.78,407.06,320.06Z"/><path class="cls-12" d="M410.83,301.86a23.18,23.18,0,0,0,8.64,1.85c4.94,0,7-1.11,7-11.48,0-11.35-1.3-21.54-1.3-23,0-1.73.56-3.95,3.52-3.95s3.76,2.53,3.76,4.69-.62,19.38-.62,25c0,9.07-1.73,13.88-10.86,13.88a45.7,45.7,0,0,1-5.12-.31,35.16,35.16,0,0,1-5-1,20.87,20.87,0,0,1-5.49-2.16.75.75,0,0,1-.25-.56,4.88,4.88,0,0,1,1.36-1.85C407.8,301.73,408,300.87,410.83,301.86Z"/><path class="cls-12" d="M441,273.41c-.56,0-1.36-.25-1.36-1.79,0-2.16,8.64-3.95,11.35-4.81a3,3,0,0,1,.93-.19c.49,0,1.54.43,1.54,2.1,0,2.28-4.26,2.47-6.42,3-1.91.49-3.52,1-5.49,1.67C441.37,273.35,441.25,273.41,441,273.41Z"/><path class="cls-12" d="M437.24,306c0-2.65.74-4.07,1.67-4.07,2.1,0,5.43,3.15,12.34,3.15,3.27,0,6.29-1.42,6.36-4.63-.25-6-12.4-10.24-12.4-13.39,0-2.59,3.09-5.24,5.86-5.24,5.37,0,11.72,10.43,11.72,17.65,0,6.42-2.59,12.4-14.25,12.4a26,26,0,0,1-7.34-.86C438.78,310.07,437.24,308.89,437.24,306Z"/></g></g></svg>