<svg xmlns="http://www.w3.org/2000/svg" viewBox="0 0 256.49 170.13"><defs><style>.cls-1{fill:#e85100;}.cls-2{fill:#fff;}</style></defs><title>Asset 5</title><g id="Layer_2" data-name="Layer 2"><g id="Layer_1-2" data-name="Layer 1"><path class="cls-1" d="M256.49,170.13V15.5A15.5,15.5,0,0,0,241,0H15.5A15.5,15.5,0,0,0,0,15.5V170.13Z"/><path class="cls-2" d="M71.57,62l7.19-1.16c6.32-.87,10.12,2,11.22,9s-1.63,10.92-7.9,12.08l-7.2,1.16Zm5,19.05,4.23-.68c6-1,8.17-3.89,7.18-10.21s-4-8.41-10-7.44l-4.22.68Z"/><path class="cls-2" d="M89.65,59.1l2-.32,2.05,13c.76,4.87,3.31,6.39,7.15,5.77s5.83-2.87,5.06-7.74l-2-13,2-.32L107.94,70c.69,4.34-1,8.4-6.84,9.34s-8.65-2.39-9.33-6.73Z"/><path class="cls-2" d="M109.82,56.5h4.42v8.19h.06a5.94,5.94,0,0,1,5.08-2.42c3.2,0,6.66,2.61,6.66,8.57s-3.46,8.61-6.66,8.61c-2.37,0-4.33-.73-5.3-2.53H114V79h-4.2Zm8,9.14c-2.61,0-3.77,2.46-3.77,5.23s1.16,5.21,3.77,5.21,3.77-2.49,3.77-5.21S120.46,65.64,117.85,65.64Z"/><path class="cls-2" d="M126.79,67.78c.24-4.16,4-5.45,7.56-5.45,3.2,0,7.06.72,7.06,4.63v8.48a8.49,8.49,0,0,0,.56,3.62h-4.48a6.93,6.93,0,0,1-.31-1.57,7.27,7.27,0,0,1-5.41,2c-3.09,0-5.48-1.54-5.48-4.88.06-7.41,10.89-3.44,10.7-7.09,0-1.9-1.3-2.21-2.86-2.21-1.71,0-2.77.69-2.93,2.46ZM137,71.09c-.74.66-2.3.69-3.67.94s-2.62.76-2.62,2.4,1.28,2.08,2.72,2.08c3.45,0,3.57-2.74,3.57-3.75Z"/><path class="cls-2" d="M143,62.71h4.2v3h.06a5.66,5.66,0,0,1,5.14-3.47,3.07,3.07,0,0,1,1,.16v4.16a7.54,7.54,0,0,0-1.58-.16c-3.27,0-4.36,2.33-4.36,5.23V79H143Z"/><path class="cls-2" d="M153.64,67.73c.25-4.16,4-5.45,7.57-5.45,3.2,0,7.06.72,7.06,4.63v8.48a8.49,8.49,0,0,0,.56,3.62h-4.48a6.93,6.93,0,0,1-.31-1.57,7.27,7.27,0,0,1-5.41,2c-3.09,0-5.48-1.54-5.48-4.88.06-7.41,10.89-3.43,10.7-7.09,0-1.9-1.3-2.21-2.86-2.21-1.71,0-2.77.69-2.92,2.46ZM163.85,71c-.74.66-2.3.69-3.67.95s-2.61.75-2.61,2.39,1.27,2.08,2.71,2.08c3.45,0,3.57-2.74,3.57-3.75Z"/><path class="cls-2" d="M169.83,56.5h4.42V65h.09a5.56,5.56,0,0,1,4.7-2.71c4.7,0,5.89,2.68,5.89,6.71V79h-4.42V69.8c0-2.68-.75-4-2.84-4-2.4,0-3.42,1.35-3.42,4.66V79h-4.42Z"/><path class="cls-2" d="M64.83,110.38c2.19.44,4.24,2.43,4.24,5.83,0,4.54-3.63,6.53-9.69,6.53-3.3,0-9.32-.27-9.49-.41s-.44-22.68-.34-23S56,99,56.69,99c5.35,0,10.73,1.15,10.73,6.4a4.86,4.86,0,0,1-2.59,4.81ZM56.69,108a4.93,4.93,0,0,0,.67,0c1.82,0,2.79-.64,2.79-1.85s-1.58-1.61-2.66-1.61a5.61,5.61,0,0,0-.77.06C56.69,105.1,56.69,108,56.69,108Zm.33,8.92a10.29,10.29,0,0,0,1.38.1c2.09,0,2.86-.81,2.86-2,0-1.35-1.17-1.92-3-1.92-.37,0-.77,0-1.17.07C57,113.68,57,116.88,57,116.88Z"/><path class="cls-2" d="M78.87,99.24c.23.41-.34,8.72-.34,12.39,0,3.16.84,4.21,2.83,4.21,2.32,0,2.79-1.72,2.79-4.08,0-3.66-.27-10.83-.3-12.75.44-.31,7.88-.61,7.94-.27.14.6.27,10,.27,13.56,0,6-2.12,10.88-10.57,10.88-6.59,0-10.57-2.93-10.57-10.57,0-2.9.24-11.42.54-13.23C71.56,98.67,78.73,99,78.87,99.24Z"/><path class="cls-2" d="M94.25,120.58c-.17-.67,1.68-6.12,2.09-6,.71.24,3.47,2.09,6.23,2.09,1.51,0,2.25-.37,2.25-1.11s-.4-1.25-3.47-1.82c-4.34-.81-7-2.83-7-7.71,0-4,3.26-7.44,9.32-7.44,3.67,0,7,.88,8.28,1.89.51.37-1.85,5.75-2.22,5.79s-2.93-1.32-5.93-1.32c-1.48,0-2.08.41-2.08,1,0,.84.54,1,3.4,1.62,3.94.84,7.6,2.49,7.6,7.57,0,3.33-2.62,7.57-9.89,7.57A18.5,18.5,0,0,1,94.25,120.58Z"/><path class="cls-2" d="M122.66,99.11c.27.2.24,22.11-.07,23.39-.17.71-7.4.41-7.44.14-.16-2-.27-20.4.07-23.47A37.19,37.19,0,0,1,122.66,99.11Z"/><path class="cls-2" d="M140.63,122.67c-.7-.88-3.9-6.5-7-11.34,0,4.37.24,9,.13,11-1.41.3-7.23.34-7.27,0-.2-1.38-.3-21.17,0-23,.1-.71,6.77-.71,6.9-.47.48.74,4.58,7.24,7.21,12.35,0-5-.17-10.53,0-12a34.45,34.45,0,0,1,7.23,0c.27.2,0,21.64-.26,22.92C147.37,122.84,141.11,122.94,140.63,122.67Z"/><path class="cls-2" d="M168.1,122.64c.37.2-13.13.2-16.73-.07-.17-2.39.07-18.68.31-23.53,3.8-.24,16.62-.27,16.72-.07a27.81,27.81,0,0,1,0,6.3c-1.25.13-6.9.1-9.8,0l.07,2.25c3.4,0,7,.07,7.17.27.37.37.07,5.79.07,6s-3.71.2-7.27.1v2.56c3-.1,8.28-.1,9.46,0A27.19,27.19,0,0,1,168.1,122.64Z"/><path class="cls-2" d="M170.12,120.58c-.17-.67,1.68-6.12,2.09-6,.7.24,3.46,2.09,6.23,2.09,1.51,0,2.25-.37,2.25-1.11s-.4-1.25-3.47-1.82c-4.34-.81-7-2.83-7-7.71,0-4,3.26-7.44,9.32-7.44,3.67,0,7,.88,8.28,1.89.51.37-1.85,5.75-2.22,5.79s-2.93-1.32-5.93-1.32c-1.48,0-2.08.41-2.08,1,0,.84.54,1,3.4,1.62,3.94.84,7.6,2.49,7.6,7.57,0,3.33-2.62,7.57-9.89,7.57A18.5,18.5,0,0,1,170.12,120.58Z"/><path class="cls-2" d="M189.81,120.58c-.17-.67,1.68-6.12,2.09-6,.71.24,3.47,2.09,6.23,2.09,1.51,0,2.25-.37,2.25-1.11s-.4-1.25-3.47-1.82c-4.34-.81-7-2.83-7-7.71,0-4,3.26-7.44,9.32-7.44,3.67,0,7,.88,8.28,1.89.51.37-1.85,5.75-2.22,5.79S202.4,105,199.41,105c-1.49,0-2.09.41-2.09,1,0,.84.54,1,3.4,1.62,3.94.84,7.61,2.49,7.61,7.57,0,3.33-2.63,7.57-9.9,7.57A18.5,18.5,0,0,1,189.81,120.58Z"/></g></g></svg>