<svg xmlns="http://www.w3.org/2000/svg" viewBox="0 0 476.44 216.11"><defs><style>.cls-1{fill:#f2f2f2;}.cls-2{fill:#fff;}.cls-3{fill:#bcbec0;}.cls-4{fill:#414042;}.cls-5{fill:#e6e7e8;}.cls-6{fill:#f1f2f2;}.cls-7{fill:#d1d3d4;}.cls-8{fill:#ffb936;}.cls-9{fill:#00d4ff;}.cls-10{fill:#9ecfef;}</style></defs><title>Asset 4</title><g id="Layer_2" data-name="Layer 2"><g id="Layer_1-2" data-name="Layer 1"><path class="cls-1" d="M476.44,216.11V11.37A11.37,11.37,0,0,0,465.07,0H11.37A11.37,11.37,0,0,0,0,11.37V216.11Z"/><g id="_Group_" data-name="&lt;Group&gt;"><g id="_Group_2" data-name="&lt;Group&gt;"><path class="cls-2" d="M411.69,66h0a21.11,21.11,0,0,1-21.11,21.11H347.26a17.73,17.73,0,0,0-17.73,17.73h0a17.73,17.73,0,0,0,17.6,17.73l82.56.61a20.75,20.75,0,0,1,20.59,20.75h0a20.75,20.75,0,0,1-20.75,20.75h-32.2a35.62,35.62,0,0,0-35.62,35.62v14.41l-237.49-.92h0a33.5,33.5,0,0,0-33.5-33.5H48.56a22.79,22.79,0,0,1-22.79-22.79h0a22.79,22.79,0,0,1,22.79-22.79H119.2a21,21,0,0,0,21-21h0a21,21,0,0,0-21-21H85.82a23.9,23.9,0,0,1-23.9-23.9h0a23.9,23.9,0,0,1,23.9-23.9H390.59A21.11,21.11,0,0,1,411.69,66Z"/></g><g id="_Group_3" data-name="&lt;Group&gt;"><g id="_Group_4" data-name="&lt;Group&gt;"><path class="cls-2" d="M208.78,214.72V121a5.11,5.11,0,0,0-5.11-5.11H128.07A5.11,5.11,0,0,0,123,121v93.72Z"/></g><g id="_Group_5" data-name="&lt;Group&gt;"><path class="cls-3" d="M123,129.14v-9a4.3,4.3,0,0,1,4.3-4.3h77.22a4.3,4.3,0,0,1,4.3,4.3v9Z"/></g><g id="_Group_6" data-name="&lt;Group&gt;"><rect id="_Path_" data-name="&lt;Path&gt;" class="cls-4" x="122.96" y="127.99" width="84.95" height="2.78"/></g><g id="_Group_7" data-name="&lt;Group&gt;"><rect id="_Path_2" data-name="&lt;Path&gt;" class="cls-4" x="132.81" y="121.85" width="2.19" height="2.78"/></g><g id="_Group_8" data-name="&lt;Group&gt;"><rect id="_Path_3" data-name="&lt;Path&gt;" class="cls-4" x="139.52" y="121.85" width="2.19" height="2.78"/></g><g id="_Group_9" data-name="&lt;Group&gt;"><rect id="_Path_4" data-name="&lt;Path&gt;" class="cls-4" x="146.23" y="121.85" width="2.19" height="2.78"/></g><g id="_Group_10" data-name="&lt;Group&gt;"><rect class="cls-5" x="134.45" y="139.28" width="62.83" height="24.78"/></g><g id="_Group_11" data-name="&lt;Group&gt;"><rect class="cls-5" x="134.46" y="179.79" width="19.1" height="24.78"/></g><g id="_Group_12" data-name="&lt;Group&gt;"><rect class="cls-6" x="156.61" y="179.79" width="19.1" height="24.78"/></g><g id="_Group_13" data-name="&lt;Group&gt;"><rect class="cls-5" x="178.76" y="179.79" width="19.1" height="24.78"/></g><g id="_Group_14" data-name="&lt;Group&gt;"><rect id="_Path_5" data-name="&lt;Path&gt;" class="cls-4" x="152.52" y="170.51" width="26.71" height="2.78"/></g><g id="_Group_15" data-name="&lt;Group&gt;"><path id="_Path_6" data-name="&lt;Path&gt;" class="cls-4" d="M210.17,153.05h-2.78V121a3.73,3.73,0,0,0-3.73-3.73H128.07a3.73,3.73,0,0,0-3.73,3.73v29.2h-2.78V121a6.51,6.51,0,0,1,6.5-6.51h75.59a6.51,6.51,0,0,1,6.51,6.51Z"/></g></g><g id="_Group_16" data-name="&lt;Group&gt;"><g id="_Group_17" data-name="&lt;Group&gt;"><path id="_Path_7" data-name="&lt;Path&gt;" class="cls-4" d="M262.9,52.63h-8.11a1.39,1.39,0,1,1,0-2.78h8.11a1.39,1.39,0,0,1,0,2.78Z"/></g><g id="_Group_18" data-name="&lt;Group&gt;"><path id="_Path_8" data-name="&lt;Path&gt;" class="cls-4" d="M258.84,56.69a1.39,1.39,0,0,1-1.39-1.39V47.19a1.39,1.39,0,1,1,2.78,0V55.3A1.39,1.39,0,0,1,258.84,56.69Z"/></g></g><g id="_Group_19" data-name="&lt;Group&gt;"><g id="_Group_20" data-name="&lt;Group&gt;"><path id="_Path_9" data-name="&lt;Path&gt;" class="cls-4" d="M62.22,151.16H54.11a1.39,1.39,0,0,1,0-2.78h8.11a1.39,1.39,0,0,1,0,2.78Z"/></g><g id="_Group_21" data-name="&lt;Group&gt;"><path id="_Path_10" data-name="&lt;Path&gt;" class="cls-4" d="M58.17,155.22a1.39,1.39,0,0,1-1.39-1.39v-8.11a1.39,1.39,0,1,1,2.78,0v8.11A1.39,1.39,0,0,1,58.17,155.22Z"/></g></g><g id="_Group_22" data-name="&lt;Group&gt;"><g id="_Group_23" data-name="&lt;Group&gt;"><path id="_Path_11" data-name="&lt;Path&gt;" class="cls-4" d="M91.16,110.71a1.39,1.39,0,0,1-1-2.37l5.74-5.73a1.39,1.39,0,1,1,2,2l-5.74,5.73A1.38,1.38,0,0,1,91.16,110.71Z"/></g><g id="_Group_24" data-name="&lt;Group&gt;"><path id="_Path_12" data-name="&lt;Path&gt;" class="cls-4" d="M96.9,110.71a1.38,1.38,0,0,1-1-.41l-5.74-5.73a1.39,1.39,0,1,1,2-2l5.74,5.73a1.39,1.39,0,0,1-1,2.37Z"/></g></g><g id="_Group_25" data-name="&lt;Group&gt;"><g id="_Group_26" data-name="&lt;Group&gt;"><path id="_Path_13" data-name="&lt;Path&gt;" class="cls-4" d="M346.18,109.68a1.39,1.39,0,0,1-1-2.37l5.73-5.74a1.39,1.39,0,1,1,2,2l-5.73,5.74A1.38,1.38,0,0,1,346.18,109.68Z"/></g><g id="_Group_27" data-name="&lt;Group&gt;"><path id="_Path_14" data-name="&lt;Path&gt;" class="cls-4" d="M351.91,109.68a1.38,1.38,0,0,1-1-.41l-5.73-5.74a1.39,1.39,0,1,1,2-2l5.73,5.74a1.39,1.39,0,0,1-1,2.37Z"/></g></g><g id="_Group_28" data-name="&lt;Group&gt;"><rect id="_Path_15" data-name="&lt;Path&gt;" class="cls-4" x="112.52" y="105.06" width="55.77" height="2.78"/></g><g id="_Group_29" data-name="&lt;Group&gt;"><rect id="_Path_16" data-name="&lt;Path&gt;" class="cls-4" x="352.91" y="146.77" width="55.77" height="2.78"/></g><g id="_Group_30" data-name="&lt;Group&gt;"><rect id="_Path_17" data-name="&lt;Path&gt;" class="cls-4" x="103.88" y="105.06" width="5.79" height="2.78"/></g><g id="_Group_31" data-name="&lt;Group&gt;"><rect id="_Path_18" data-name="&lt;Path&gt;" class="cls-4" x="142.25" y="49.85" width="103.11" height="2.78"/></g><g id="_Group_32" data-name="&lt;Group&gt;"><circle class="cls-4" cx="334.5" cy="148.91" r="2.32"/></g><g id="_Group_33" data-name="&lt;Group&gt;"><circle class="cls-4" cx="184.39" cy="99.81" r="2.32"/></g><g id="_Group_34" data-name="&lt;Group&gt;"><circle class="cls-4" cx="88.31" cy="147.45" r="2.32"/></g><g id="_Group_35" data-name="&lt;Group&gt;"><circle class="cls-4" cx="375.02" cy="107.14" r="1.72"/></g><g id="_Group_36" data-name="&lt;Group&gt;"><circle class="cls-4" cx="270.94" cy="65.68" r="1.72"/></g><g id="_Group_37" data-name="&lt;Group&gt;"><circle class="cls-4" cx="116.48" cy="65.68" r="1.72"/></g><g id="_Group_38" data-name="&lt;Group&gt;"><g id="_Group_39" data-name="&lt;Group&gt;"><path class="cls-2" d="M306.82,214.72H176.3a65.26,65.26,0,0,1,130.53,0Z"/></g><g id="_Group_40" data-name="&lt;Group&gt;"><path class="cls-7" d="M241.56,166.13a65.29,65.29,0,0,1,63.11,48.59h2.16a65.26,65.26,0,0,0-130.53,0h2.16A65.29,65.29,0,0,1,241.56,166.13Z"/></g><g id="_Group_41" data-name="&lt;Group&gt;"><path id="_Path_19" data-name="&lt;Path&gt;" class="cls-4" d="M291.4,174.53c-1.1-1.37-2.29-2.71-3.51-4a64.27,64.27,0,0,0-6.1-5.62l1.75-2.16a67.23,67.23,0,0,1,6.37,5.87c1.28,1.34,2.51,2.74,3.66,4.17Z"/></g><g id="_Group_42" data-name="&lt;Group&gt;"><path id="_Path_20" data-name="&lt;Path&gt;" class="cls-4" d="M177.53,214.72h-2.78a66.82,66.82,0,0,1,104.17-55.39l-1.56,2.3a64,64,0,0,0-99.83,53.09Z"/></g><g id="_Group_43" data-name="&lt;Group&gt;"><path id="_Path_21" data-name="&lt;Path&gt;" class="cls-4" d="M281.67,214.72h-2.78V207c-1.08-19.56-6.6-38.34-15.53-52.81l2.36-1.46c9.17,14.86,14.84,34.1,15.95,54.19Z"/></g><g id="_Group_44" data-name="&lt;Group&gt;"><path id="_Path_22" data-name="&lt;Path&gt;" class="cls-4" d="M205.88,214.72H203.1v-7.66c1.11-20.17,6.78-39.43,16-54.31l2.36,1.46c-8.95,14.49-14.47,33.29-15.55,52.93Z"/></g><g id="_Group_45" data-name="&lt;Group&gt;"><rect id="_Path_23" data-name="&lt;Path&gt;" class="cls-4" x="240.17" y="149.31" width="2.78" height="65.41"/></g><g id="_Group_46" data-name="&lt;Group&gt;"><rect id="_Path_24" data-name="&lt;Path&gt;" class="cls-4" x="184.39" y="182.25" width="114.8" height="2.78"/></g></g><g id="_Group_47" data-name="&lt;Group&gt;"><g id="_Group_48" data-name="&lt;Group&gt;"><path class="cls-8" d="M241.56,69.46a29.79,29.79,0,0,0-29.79,29.79c0,16.45,29.79,50.06,29.79,50.06s29.79-33.61,29.79-50.06A29.79,29.79,0,0,0,241.56,69.46Zm0,44.14a17.28,17.28,0,1,1,17.28-17.28A17.28,17.28,0,0,1,241.56,113.59Z"/></g><g id="_Group_49" data-name="&lt;Group&gt;"><path id="_Compound_Path_" data-name="&lt;Compound Path&gt;" class="cls-4" d="M241.56,151.4l-1-1.17c-1.23-1.39-30.14-34.19-30.14-51a31.12,31.12,0,0,1,4.7-16.47l2.36,1.47a28.34,28.34,0,0,0-4.28,15c0,14,23.17,41.84,28.4,47.94,5.23-6.1,28.4-33.91,28.4-47.94a28.42,28.42,0,0,0-38.65-26.5l-1-2.59a31.2,31.2,0,0,1,42.43,29.09c0,16.79-28.91,49.59-30.14,51Zm0-36.42a18.67,18.67,0,1,1,18.67-18.67A18.69,18.69,0,0,1,241.56,115Zm0-34.56a15.89,15.89,0,1,0,15.89,15.89A15.91,15.91,0,0,0,241.56,80.42Zm-20.09-1.26-2-2c.55-.55,2.2-1.81,4.31-3.4l1.59-1.21,1.74,2.16c-.28.22-.9.7-1.65,1.26C224.16,77,221.93,78.71,221.47,79.16Z"/></g></g><g id="_Group_50" data-name="&lt;Group&gt;"><g id="_Group_51" data-name="&lt;Group&gt;"><path class="cls-2" d="M308.6,104.19h-.21a7.62,7.62,0,0,0-11.44-4.29,10.44,10.44,0,0,0-20.29-1.5,7.14,7.14,0,0,0-8.94,5.79h-1.17a5.37,5.37,0,0,0-5.36,5.36v.39a5.37,5.37,0,0,0,5.36,5.36h42a5.37,5.37,0,0,0,5.36-5.36v-.39A5.37,5.37,0,0,0,308.6,104.19Z"/></g><g id="_Group_52" data-name="&lt;Group&gt;"><path class="cls-2" d="M274.06,115.3h-7.51a5.37,5.37,0,0,1-5.36-5.36v-.39a5.37,5.37,0,0,1,5.36-5.36h1.17a7.14,7.14,0,0,1,8.94-5.79,10.44,10.44,0,0,1,20.29,1.5,7.62,7.62,0,0,1,11.44,4.29h.21a5.37,5.37,0,0,1,5.36,5.36v.39a5.37,5.37,0,0,1-5.36,5.36H274.06Z"/></g></g><g id="_Group_53" data-name="&lt;Group&gt;"><g id="_Group_54" data-name="&lt;Group&gt;"><path id="_Compound_Path_2" data-name="&lt;Compound Path&gt;" class="cls-4" d="M308.6,116.22h-42a6.29,6.29,0,0,1-6.28-6.28v-.39a6.29,6.29,0,0,1,6.28-6.28H267a8,8,0,0,1,9.09-5.95,11.37,11.37,0,0,1,21.54,1.18,8.51,8.51,0,0,1,3.47-.74,8.6,8.6,0,0,1,8,5.52,6.29,6.29,0,0,1,5.82,6.27v.39A6.29,6.29,0,0,1,308.6,116.22Zm-42-11.11a4.44,4.44,0,0,0-4.43,4.43v.39a4.44,4.44,0,0,0,4.43,4.43h42a4.43,4.43,0,0,0,4.43-4.43v-.39a4.43,4.43,0,0,0-4.43-4.43h-.91l-.19-.67a6.73,6.73,0,0,0-6.44-4.84,6.66,6.66,0,0,0-3.62,1.06l-1.2.77L296,100a9.51,9.51,0,0,0-18.49-1.37l-.26.85-.86-.23a6.17,6.17,0,0,0-7.79,5l-.12.78Z"/></g><g id="_Group_55" data-name="&lt;Group&gt;"><path id="_Compound_Path_3" data-name="&lt;Compound Path&gt;" class="cls-4" d="M308.6,116.69h-42a6.75,6.75,0,0,1-6.75-6.75v-.39a6.75,6.75,0,0,1,6.75-6.75h.07a8.52,8.52,0,0,1,9.15-6,11.83,11.83,0,0,1,22.13,1.06,9,9,0,0,1,11.49,5,6.76,6.76,0,0,1,6,6.7v.39A6.75,6.75,0,0,1,308.6,116.69Zm-42-11.11a4,4,0,0,0-4,4v.39a4,4,0,0,0,4,4h42a4,4,0,0,0,4-4v-.39a4,4,0,0,0-4-4h-1.25l-.29-1a6.23,6.23,0,0,0-9.36-3.51l-1.8,1.16-.33-2.11A9.05,9.05,0,0,0,278,98.81l-.4,1.28-1.29-.35a5.7,5.7,0,0,0-7.21,4.67l-.19,1.17Z"/></g></g><g id="_Group_56" data-name="&lt;Group&gt;"><g id="_Group_57" data-name="&lt;Group&gt;"><path class="cls-2" d="M208.82,75.67h-.15a5.44,5.44,0,0,0-8.17-3.06A7.45,7.45,0,0,0,186,71.53a5.1,5.1,0,0,0-6.38,4.14h-.83A3.83,3.83,0,0,0,175,79.49v.28a3.83,3.83,0,0,0,3.82,3.82h30a3.83,3.83,0,0,0,3.82-3.82v-.28A3.83,3.83,0,0,0,208.82,75.67Z"/></g><g id="_Group_58" data-name="&lt;Group&gt;"><path id="_Compound_Path_4" data-name="&lt;Compound Path&gt;" class="cls-4" d="M208.82,85h-30a5.22,5.22,0,0,1-5.21-5.21v-.28a5.22,5.22,0,0,1,5-5.21,6.5,6.5,0,0,1,6.57-4.3,8.85,8.85,0,0,1,16.29.67,6.8,6.8,0,0,1,2-.3,6.88,6.88,0,0,1,6.22,4A5.21,5.21,0,0,1,214,79.49v.28A5.22,5.22,0,0,1,208.82,85Zm-30-7.93a2.44,2.44,0,0,0-2.43,2.43v.28a2.44,2.44,0,0,0,2.43,2.43h30a2.44,2.44,0,0,0,2.43-2.43v-.28a2.44,2.44,0,0,0-2.43-2.43h-1l-.44-1a4.07,4.07,0,0,0-3.89-2.93,4,4,0,0,0-2.19.64l-1.8,1.16-.33-2.11a6.06,6.06,0,0,0-11.78-.87l-.4,1.28-1.29-.35a3.7,3.7,0,0,0-4.65,3l-.19,1.17Z"/></g></g><g id="_Group_59" data-name="&lt;Group&gt;"><g id="_Group_60" data-name="&lt;Group&gt;"><path class="cls-2" d="M364.38,128.42h-.1a3.46,3.46,0,0,0-5.2-1.95,4.74,4.74,0,0,0-9.21-.68,3.24,3.24,0,0,0-4.06,2.63h-.53a2.44,2.44,0,0,0-2.43,2.43V131a2.44,2.44,0,0,0,2.43,2.43h19.09a2.44,2.44,0,0,0,2.43-2.43v-.18A2.44,2.44,0,0,0,364.38,128.42Z"/></g><g id="_Group_61" data-name="&lt;Group&gt;"><path id="_Compound_Path_5" data-name="&lt;Compound Path&gt;" class="cls-4" d="M364.38,134.86H345.29a3.83,3.83,0,0,1-3.82-3.82,3.89,3.89,0,0,1,3.31-4,4.62,4.62,0,0,1,4.23-2.78,6.14,6.14,0,0,1,11,.35,5,5,0,0,1,5.29,2.52,3.82,3.82,0,0,1,2.94,3.7A3.87,3.87,0,0,1,364.38,134.86Zm-19.09-5a1,1,0,0,0-1,1,1.1,1.1,0,0,0,1,1.22h19.09a1.06,1.06,0,0,0,1-1,1.11,1.11,0,0,0-1-1.22h-1l-.38-1a2.14,2.14,0,0,0-3.11-1.17L358,128.8l-.33-2.12a3.35,3.35,0,0,0-6.51-.48l-.4,1.28-1.29-.35a1.82,1.82,0,0,0-2.33,1.51l-.19,1.17Z"/></g></g><g id="_Group_62" data-name="&lt;Group&gt;"><g id="_Group_63" data-name="&lt;Group&gt;"><path class="cls-2" d="M308.38,70.28H292.5l-7.44-14.54a1.66,1.66,0,0,1,1.48-2.42H292a1.66,1.66,0,0,1,1.22.54Z"/></g><g id="_Group_64" data-name="&lt;Group&gt;"><path class="cls-2" d="M308.38,70.28H292.5l-7.44-14.54a1.66,1.66,0,0,1,1.48-2.42H292a1.66,1.66,0,0,1,1.22.54Z"/></g><g id="_Group_65" data-name="&lt;Group&gt;"><path class="cls-7" d="M288.28,53.32h-1.74a1.66,1.66,0,0,0-1.48,2.42l7.44,14.54h6.19L288.47,54A1.83,1.83,0,0,1,288.28,53.32Z"/></g><g id="_Group_66" data-name="&lt;Group&gt;"><path id="_Compound_Path_6" data-name="&lt;Compound Path&gt;" class="cls-4" d="M311.55,71.67h-19.9l-7.83-15.3a3.05,3.05,0,0,1,2.72-4.44H292a3.06,3.06,0,0,1,2.25,1Zm-18.2-2.78h11.86l-13-14.1a.28.28,0,0,0-.2-.09h-5.49a.27.27,0,0,0-.24.4Z"/></g><g id="_Group_67" data-name="&lt;Group&gt;"><g id="_Group_68" data-name="&lt;Group&gt;"><path class="cls-2" d="M363.83,62.69h-.18a6.64,6.64,0,0,0-10-3.74A9.09,9.09,0,0,0,336,57.64a6.22,6.22,0,0,0-7.79,5h-1a4.68,4.68,0,0,0-4.67,4.67v.34a4.68,4.68,0,0,0,4.67,4.67h36.63a4.68,4.68,0,0,0,4.67-4.67v-.34A4.68,4.68,0,0,0,363.83,62.69Z"/></g><g id="_Group_69" data-name="&lt;Group&gt;"><path id="_Path_25" data-name="&lt;Path&gt;" class="cls-4" d="M363.83,73.75V71a3.28,3.28,0,0,0,3.28-3.28v-.34a3.28,3.28,0,0,0-3.28-3.28h-1l-.47-1a5.28,5.28,0,0,0-5-3.79,5.22,5.22,0,0,0-2.83.83l-1.8,1.16-.33-2.12a7.71,7.71,0,0,0-15-1.11l-.4,1.28L335.64,59a4.81,4.81,0,0,0-6.05,3.92l-.19,1.17h-2.2a3.3,3.3,0,0,0-2.82,1.62L322,64.27a6.1,6.1,0,0,1,5.13-3,7.61,7.61,0,0,1,8-5.23,10.49,10.49,0,0,1,19.5.89,8,8,0,0,1,10,4.42,6.07,6.07,0,0,1,5.24,6v.34A6.06,6.06,0,0,1,363.83,73.75Z"/></g><g id="_Group_70" data-name="&lt;Group&gt;"><path id="_Path_26" data-name="&lt;Path&gt;" class="cls-4" d="M349.45,59a6.19,6.19,0,0,0-8.34-2l-1.42-2.39a9,9,0,0,1,12.09,2.84Z"/></g><g id="_Group_71" data-name="&lt;Group&gt;"><path id="_Path_27" data-name="&lt;Path&gt;" class="cls-4" d="M339.12,60.63h-2.78a1.85,1.85,0,0,0-1.85-1.85V56A4.63,4.63,0,0,1,339.12,60.63Z"/></g></g><g id="_Group_72" data-name="&lt;Group&gt;"><path class="cls-2" d="M363.66,75.94h-1.53a9.67,9.67,0,0,0-9.07-6.36H288.26a16.19,16.19,0,0,0,16.19,16.19h59.21a4.46,4.46,0,0,0,4.46-4.46v-.9A4.46,4.46,0,0,0,363.66,75.94Z"/></g><g id="_Group_73" data-name="&lt;Group&gt;"><path class="cls-7" d="M363.66,82H304.45a16.19,16.19,0,0,1-15.73-12.4h-.47a16.19,16.19,0,0,0,16.19,16.19h59.21a4.46,4.46,0,0,0,4.46-4.46v-.9a4.42,4.42,0,0,0-.26-1.45A4.45,4.45,0,0,1,363.66,82Z"/></g><g id="_Group_74" data-name="&lt;Group&gt;"><path id="_Compound_Path_7" data-name="&lt;Compound Path&gt;" class="cls-4" d="M363.66,87.16H304.45a17.6,17.6,0,0,1-17.58-17.58V68.19h66.19a11.11,11.11,0,0,1,10,6.36h.61a5.86,5.86,0,0,1,5.86,5.86v.9A5.86,5.86,0,0,1,363.66,87.16ZM289.71,71a14.82,14.82,0,0,0,14.74,13.41h59.21a3.08,3.08,0,0,0,3.08-3.07v-.9a3.08,3.08,0,0,0-3.08-3.08h-2.5l-.33-.91A8.32,8.32,0,0,0,353.06,71Z"/></g><g id="_Group_75" data-name="&lt;Group&gt;"><rect class="cls-9" x="285.87" y="69.58" width="23.14" height="5.15" rx="2.17" ry="2.17"/></g><g id="_Group_76" data-name="&lt;Group&gt;"><rect class="cls-9" x="318.09" y="81.57" width="27.39" height="6.09" rx="2.17" ry="2.17"/></g><g id="_Group_77" data-name="&lt;Group&gt;"><path id="_Compound_Path_8" data-name="&lt;Compound Path&gt;" class="cls-4" d="M306.84,76.11H288a3.57,3.57,0,0,1-3.56-3.56v-.81A3.57,3.57,0,0,1,288,68.19h18.79a3.57,3.57,0,0,1,3.56,3.56v.81A3.57,3.57,0,0,1,306.84,76.11ZM288,71a.78.78,0,0,0-.78.78v.81a.78.78,0,0,0,.78.78h18.79a.78.78,0,0,0,.78-.78v-.81a.78.78,0,0,0-.78-.78Z"/></g><g id="_Group_78" data-name="&lt;Group&gt;"><path id="_Compound_Path_9" data-name="&lt;Compound Path&gt;" class="cls-4" d="M343.31,89.06h-23a3.57,3.57,0,0,1-3.56-3.56V83.74a3.57,3.57,0,0,1,3.56-3.56h23a3.57,3.57,0,0,1,3.56,3.56V85.5A3.57,3.57,0,0,1,343.31,89.06Zm-23-6.09a.78.78,0,0,0-.78.78V85.5a.78.78,0,0,0,.78.78h23a.78.78,0,0,0,.78-.78V83.74a.78.78,0,0,0-.78-.78Z"/></g><g id="_Group_79" data-name="&lt;Group&gt;"><rect id="_Path_28" data-name="&lt;Path&gt;" class="cls-4" x="349.05" y="73.33" width="8.11" height="2.78"/></g><g id="_Group_80" data-name="&lt;Group&gt;"><rect id="_Path_29" data-name="&lt;Path&gt;" class="cls-4" x="339.56" y="73.33" width="4.06" height="2.78"/></g><g id="_Group_81" data-name="&lt;Group&gt;"><rect id="_Path_30" data-name="&lt;Path&gt;" class="cls-4" x="333.02" y="73.33" width="4.05" height="2.78"/></g><g id="_Group_82" data-name="&lt;Group&gt;"><rect id="_Path_31" data-name="&lt;Path&gt;" class="cls-4" x="326.48" y="73.33" width="4.05" height="2.78"/></g><g id="_Group_83" data-name="&lt;Group&gt;"><rect id="_Path_32" data-name="&lt;Path&gt;" class="cls-4" x="319.95" y="73.33" width="4.06" height="2.78"/></g><g id="_Group_84" data-name="&lt;Group&gt;"><rect id="_Path_33" data-name="&lt;Path&gt;" class="cls-4" x="313.41" y="73.33" width="4.05" height="2.78"/></g></g><g id="_Group_85" data-name="&lt;Group&gt;"><g id="_Group_86" data-name="&lt;Group&gt;"><g id="_Group_87" data-name="&lt;Group&gt;"><path class="cls-2" d="M358.34,181.16a2.44,2.44,0,0,0-2.17-1.56H342.46v21.58a7.29,7.29,0,0,1,7.29,7.29h12.92V194Z"/></g><g id="_Group_88" data-name="&lt;Group&gt;"><path class="cls-9" d="M347.33,192.44h11.88a6.51,6.51,0,0,1,1.61.24l1.93.6-4.41-12.13s-.46-2.18-4.19-1.56h-8.46v11.19A1.65,1.65,0,0,0,347.33,192.44Z"/></g><g id="_Group_89" data-name="&lt;Group&gt;"><circle class="cls-2" cx="311.97" cy="209.62" r="5.1"/></g><g id="_Group_90" data-name="&lt;Group&gt;"><path id="_Compound_Path_10" data-name="&lt;Compound Path&gt;" class="cls-4" d="M312,216.11a6.49,6.49,0,1,1,6.49-6.49A6.5,6.5,0,0,1,312,216.11Zm0-10.2a3.71,3.71,0,1,0,3.71,3.71A3.72,3.72,0,0,0,312,205.91Z"/></g><g id="_Group_91" data-name="&lt;Group&gt;"><circle class="cls-4" cx="311.96" cy="209.62" r="2.01"/></g><g id="_Group_92" data-name="&lt;Group&gt;"><circle class="cls-2" cx="341.41" cy="209.62" r="5.1"/></g><g id="_Group_93" data-name="&lt;Group&gt;"><path id="_Compound_Path_11" data-name="&lt;Compound Path&gt;" class="cls-4" d="M341.41,216.11a6.49,6.49,0,1,1,6.49-6.49A6.5,6.5,0,0,1,341.41,216.11Zm0-10.2a3.71,3.71,0,1,0,3.71,3.71A3.72,3.72,0,0,0,341.41,205.91Z"/></g><g id="_Group_94" data-name="&lt;Group&gt;"><circle class="cls-4" cx="341.41" cy="209.62" r="2.01"/></g><g id="_Group_95" data-name="&lt;Group&gt;"><circle class="cls-2" cx="298.48" cy="209.62" r="5.1"/></g><g id="_Group_96" data-name="&lt;Group&gt;"><path id="_Compound_Path_12" data-name="&lt;Compound Path&gt;" class="cls-4" d="M298.48,216.11a6.49,6.49,0,1,1,6.49-6.49A6.5,6.5,0,0,1,298.48,216.11Zm0-10.2a3.71,3.71,0,1,0,3.71,3.71A3.72,3.72,0,0,0,298.48,205.91Z"/></g><g id="_Group_97" data-name="&lt;Group&gt;"><circle class="cls-4" cx="298.48" cy="209.62" r="2.01"/></g><g id="_Group_98" data-name="&lt;Group&gt;"><rect id="_Path_34" data-name="&lt;Path&gt;" class="cls-4" x="319.91" y="204.02" width="18.16" height="2.78"/></g><g id="_Group_99" data-name="&lt;Group&gt;"><path id="_Path_35" data-name="&lt;Path&gt;" class="cls-4" d="M321.4,209h-2.78v-1.31a4.84,4.84,0,0,0-4.84-4.84H296.66a4.84,4.84,0,0,0-4.84,4.84H289a7.62,7.62,0,0,1,7.62-7.62h17.13a7.62,7.62,0,0,1,7.62,7.62Z"/></g><g id="_Group_100" data-name="&lt;Group&gt;"><rect class="cls-8" x="288.76" y="165.78" width="49.39" height="32.71" rx="1.99" ry="1.99"/></g><g id="_Group_101" data-name="&lt;Group&gt;"><path id="_Path_36" data-name="&lt;Path&gt;" class="cls-4" d="M336.17,199.88H290.75a3.38,3.38,0,0,1-3.38-3.38V180.43h2.78V196.5a.6.6,0,0,0,.6.6h45.41a.6.6,0,0,0,.6-.6V167.77a.6.6,0,0,0-.6-.6h-13v-2.78h13a3.38,3.38,0,0,1,3.38,3.38V196.5A3.38,3.38,0,0,1,336.17,199.88Z"/></g><g id="_Group_102" data-name="&lt;Group&gt;"><rect class="cls-2" x="293.54" y="173.87" width="39.84" height="15"/></g><g id="_Group_103" data-name="&lt;Group&gt;"><rect id="_Path_37" data-name="&lt;Path&gt;" class="cls-4" x="348.44" y="166.99" width="2.78" height="15.08" transform="translate(-9.27 329.1) rotate(-49.8)"/></g><g id="_Group_104" data-name="&lt;Group&gt;"><rect id="_Path_38" data-name="&lt;Path&gt;" class="cls-4" x="346.46" y="173.12" width="2.78" height="5.28"/></g><g id="_Group_105" data-name="&lt;Group&gt;"><path id="_Compound_Path_13" data-name="&lt;Compound Path&gt;" class="cls-4" d="M364.06,209.86h-15.7v-1.39a5.91,5.91,0,0,0-5.9-5.9h-1.39V178.21h15.1a3.83,3.83,0,0,1,3.49,2.5h0l4.4,13.32Zm-13-2.78h10.25V194.26L357,181.6a1.07,1.07,0,0,0-.85-.61H343.85V199.9A8.71,8.71,0,0,1,351,207.08Z"/></g><g id="_Group_106" data-name="&lt;Group&gt;"><rect class="cls-10" x="357.04" y="204.44" width="7" height="4.52" rx="0.61" ry="0.61"/></g><g id="_Group_107" data-name="&lt;Group&gt;"><rect id="_Path_39" data-name="&lt;Path&gt;" class="cls-6" x="357.04" y="204.44" width="7" height="4.52" rx="0.61" ry="0.61"/><path id="_Compound_Path_14" data-name="&lt;Compound Path&gt;" class="cls-4" d="M363.43,210.36h-5.78a2,2,0,0,1-2-2v-3.3a2,2,0,0,1,2-2h5.78a2,2,0,0,1,2,2v3.3A2,2,0,0,1,363.43,210.36Zm-5-2.78h4.22v-1.75h-4.22Z"/></g><g id="_Group_108" data-name="&lt;Group&gt;"><rect id="_Path_40" data-name="&lt;Path&gt;" class="cls-4" x="317.29" y="177.01" width="13.21" height="2.78"/></g><g id="_Group_109" data-name="&lt;Group&gt;"><rect id="_Path_41" data-name="&lt;Path&gt;" class="cls-4" x="296.42" y="182.75" width="34.09" height="2.78"/></g></g><g id="_Group_110" data-name="&lt;Group&gt;"><g id="_Group_111" data-name="&lt;Group&gt;"><circle class="cls-2" cx="301.71" cy="161.55" r="18.88"/></g><g id="_Group_112" data-name="&lt;Group&gt;"><path id="_Path_42" data-name="&lt;Path&gt;" class="cls-4" d="M301.71,181.82A20.27,20.27,0,1,1,307.24,142l-.75,2.67a17.5,17.5,0,1,0,12.72,16.83A17.36,17.36,0,0,0,313.93,149l1.94-2a20.27,20.27,0,0,1-14.16,34.78Z"/></g><g id="_Group_113" data-name="&lt;Group&gt;"><path id="_Path_43" data-name="&lt;Path&gt;" class="cls-4" d="M312.4,147.7a17.45,17.45,0,0,0-4-2.34l1.06-2.57a20.28,20.28,0,0,1,4.68,2.71Z"/></g><g id="_Group_114" data-name="&lt;Group&gt;"><circle class="cls-9" cx="301.71" cy="161.55" r="9.86"/></g><g id="_Group_115" data-name="&lt;Group&gt;"><path id="_Compound_Path_15" data-name="&lt;Compound Path&gt;" class="cls-4" d="M301.71,163.86a2.32,2.32,0,1,1,2.32-2.32A2.32,2.32,0,0,1,301.71,163.86Zm0-2.78a.46.46,0,0,0-.46.46c0,.51.93.51.93,0A.46.46,0,0,0,301.71,161.08Z"/></g><g id="_Group_116" data-name="&lt;Group&gt;"><rect id="_Path_44" data-name="&lt;Path&gt;" class="cls-4" x="300.32" y="144.28" width="2.78" height="3.28"/></g><g id="_Group_117" data-name="&lt;Group&gt;"><rect id="_Path_45" data-name="&lt;Path&gt;" class="cls-4" x="307.9" y="146.63" width="3.28" height="2.78" transform="translate(26.35 341.75) rotate(-59.93)"/></g><g id="_Group_118" data-name="&lt;Group&gt;"><rect id="_Path_46" data-name="&lt;Path&gt;" class="cls-4" x="313.62" y="152.37" width="3.28" height="2.78" transform="translate(-34.69 177.64) rotate(-29.9)"/></g><g id="_Group_119" data-name="&lt;Group&gt;"><rect id="_Path_47" data-name="&lt;Path&gt;" class="cls-4" x="315.94" y="159.95" width="2.78" height="3.28" transform="translate(154.7 478.4) rotate(-89.81)"/></g><g id="_Group_120" data-name="&lt;Group&gt;"><rect id="_Path_48" data-name="&lt;Path&gt;" class="cls-4" x="313.82" y="167.77" width="2.78" height="3.28" transform="translate(10.09 356.39) rotate(-59.76)"/></g><g id="_Group_121" data-name="&lt;Group&gt;"><rect id="_Path_49" data-name="&lt;Path&gt;" class="cls-4" x="308.07" y="173.49" width="2.78" height="3.28" transform="translate(-46.12 176) rotate(-29.65)"/></g><g id="_Group_122" data-name="&lt;Group&gt;"><rect id="_Path_50" data-name="&lt;Path&gt;" class="cls-4" x="299.98" y="175.8" width="3.28" height="2.78" transform="translate(121.7 477.2) rotate(-89.48)"/></g><g id="_Group_123" data-name="&lt;Group&gt;"><rect id="_Path_51" data-name="&lt;Path&gt;" class="cls-4" x="292.16" y="173.65" width="3.28" height="2.78" transform="translate(-6.44 338.79) rotate(-59.39)"/></g><g id="_Group_124" data-name="&lt;Group&gt;"><rect id="_Path_52" data-name="&lt;Path&gt;" class="cls-4" x="286.49" y="167.86" width="3.28" height="2.78" transform="translate(-45.96 162.28) rotate(-29.23)"/></g><g id="_Group_125" data-name="&lt;Group&gt;"><rect id="_Path_53" data-name="&lt;Path&gt;" class="cls-4" x="284.7" y="159.76" width="2.78" height="3.28" transform="translate(122.02 445.97) rotate(-89.46)"/></g><g id="_Group_126" data-name="&lt;Group&gt;"><rect id="_Path_54" data-name="&lt;Path&gt;" class="cls-4" x="286.88" y="151.96" width="2.78" height="3.28" transform="matrix(0.51, -0.86, 0.86, 0.51, 9.33, 323.55)"/></g><g id="_Group_127" data-name="&lt;Group&gt;"><rect id="_Path_55" data-name="&lt;Path&gt;" class="cls-4" x="292.67" y="146.29" width="2.78" height="3.28" transform="translate(-34.76 163.2) rotate(-29.37)"/></g><g id="_Group_128" data-name="&lt;Group&gt;"><polygon class="cls-4" points="300.32 161.6 300.9 149.99 302.53 149.99 303.1 161.6 300.32 161.6"/></g><g id="_Group_129" data-name="&lt;Group&gt;"><polygon class="cls-4" points="301.68 160.21 311.91 160.52 311.95 162.15 301.75 162.99 301.68 160.21"/></g></g></g><g id="_Group_130" data-name="&lt;Group&gt;"><g id="_Group_131" data-name="&lt;Group&gt;"><rect class="cls-2" x="103.01" y="153.18" width="38.28" height="60.92" rx="3.68" ry="3.68"/></g><g id="_Group_132" data-name="&lt;Group&gt;"><path id="_Path_56" data-name="&lt;Path&gt;" class="cls-4" d="M142.68,175.77H139.9V156.6a2,2,0,0,0-2-2H106.43a2,2,0,0,0-2,2v16h-2.78v-16a4.82,4.82,0,0,1,4.81-4.81h31.43a4.82,4.82,0,0,1,4.81,4.81Z"/></g><g id="_Group_133" data-name="&lt;Group&gt;"><path id="_Path_57" data-name="&lt;Path&gt;" class="cls-4" d="M137.86,215.49H106.43a4.82,4.82,0,0,1-4.81-4.81V187.14h2.78v23.54a2,2,0,0,0,2,2h31.43a2,2,0,0,0,2-2V194.79h2.78v15.89A4.82,4.82,0,0,1,137.86,215.49Z"/></g><g id="_Group_134" data-name="&lt;Group&gt;"><rect id="_Path_58" data-name="&lt;Path&gt;" class="cls-4" x="116.48" y="156.38" width="11.33" height="2.78"/></g><g id="_Group_135" data-name="&lt;Group&gt;"><path id="_Compound_Path_16" data-name="&lt;Compound Path&gt;" class="cls-4" d="M122.15,212.35a3.23,3.23,0,1,1,3.23-3.23A3.23,3.23,0,0,1,122.15,212.35Zm0-3.67a.45.45,0,0,0-.45.45c0,.5.89.49.9,0A.45.45,0,0,0,122.15,208.67Z"/></g><g id="_Group_136" data-name="&lt;Group&gt;"><rect class="cls-9" x="106.83" y="161.97" width="30.63" height="43.16"/></g><g id="_Group_137" data-name="&lt;Group&gt;"><g id="_Group_138" data-name="&lt;Group&gt;"><rect id="_Path_59" data-name="&lt;Path&gt;" class="cls-4" x="135.93" y="199.61" width="1.76" height="2.78"/></g><g id="_Group_139" data-name="&lt;Group&gt;"><rect id="_Path_60" data-name="&lt;Path&gt;" class="cls-4" x="120.76" y="199.61" width="6.22" height="2.78"/></g><g id="_Group_140" data-name="&lt;Group&gt;"><polygon id="_Path_61" data-name="&lt;Path&gt;" class="cls-4" points="111.87 202.39 109.51 202.39 101.43 177.12 92.97 176.48 93.18 173.71 103.51 174.49 111.54 199.61 111.87 199.61 111.87 202.39"/></g><g id="_Group_141" data-name="&lt;Group&gt;"><rect id="_Path_62" data-name="&lt;Path&gt;" class="cls-4" x="104.21" y="179.22" width="38.74" height="2.78"/></g><g id="_Group_142" data-name="&lt;Group&gt;"><rect id="_Path_63" data-name="&lt;Path&gt;" class="cls-4" x="105.58" y="183.58" width="35.21" height="2.78"/></g><g id="_Group_143" data-name="&lt;Group&gt;"><rect id="_Path_64" data-name="&lt;Path&gt;" class="cls-4" x="106.58" y="187.93" width="33.21" height="2.78"/></g><g id="_Group_144" data-name="&lt;Group&gt;"><path id="_Compound_Path_17" data-name="&lt;Compound Path&gt;" class="cls-4" d="M116.4,205.51a4.51,4.51,0,1,1,4.51-4.51A4.51,4.51,0,0,1,116.4,205.51Zm0-6.24a1.73,1.73,0,1,0,1.73,1.73A1.73,1.73,0,0,0,116.4,199.27Z"/></g><g id="_Group_145" data-name="&lt;Group&gt;"><path id="_Compound_Path_18" data-name="&lt;Compound Path&gt;" class="cls-4" d="M131.35,205.51a4.51,4.51,0,1,1,4.51-4.51A4.52,4.52,0,0,1,131.35,205.51Zm0-6.24a1.73,1.73,0,1,0,1.73,1.73A1.73,1.73,0,0,0,131.35,199.27Z"/></g><g id="_Group_146" data-name="&lt;Group&gt;"><polygon id="_Path_65" data-name="&lt;Path&gt;" class="cls-4" points="139.26 195.41 108.4 195.41 108.4 192.63 137.23 192.63 141.97 177.83 144.61 178.67 139.26 195.41"/></g></g></g><g id="_Group_147" data-name="&lt;Group&gt;"><g id="_Group_148" data-name="&lt;Group&gt;"><rect id="_Path_66" data-name="&lt;Path&gt;" class="cls-4" x="81" y="213.33" width="303.54" height="2.78"/></g><g id="_Group_149" data-name="&lt;Group&gt;"><rect id="_Path_67" data-name="&lt;Path&gt;" class="cls-4" x="72.55" y="213.33" width="5.08" height="2.78"/></g><g id="_Group_150" data-name="&lt;Group&gt;"><rect id="_Path_68" data-name="&lt;Path&gt;" class="cls-4" x="387.43" y="213.33" width="11.21" height="2.78"/></g></g></g></g></g></svg>