<svg id="Layer_1" data-name="Layer 1" xmlns="http://www.w3.org/2000/svg" viewBox="0 0 2569 535"><defs><style>.cls-1{fill:#e85100;}.cls-2{fill:#fff;}</style></defs><title>centar_bus</title><rect class="cls-1" width="2569" height="535"/><path class="cls-2" d="M1055,158l19.85-3.2c17.44-2.4,27.92,5.6,31,24.83s-4.51,30.11-21.81,33.32l-19.86,3.21Zm13.86,52.54,11.66-1.88c16.49-2.66,22.55-10.73,19.82-28.16s-11-23.2-27.47-20.54l-11.65,1.88Z" transform="translate(0 0)"/><path class="cls-2" d="M1104.88,150l5.46-.89,5.67,36c2.11,13.43,9.12,17.64,19.73,15.93s16.08-7.93,14-21.37l-5.66-36,5.47-.89,5.86,37.22c1.88,12-2.87,23.17-18.88,25.75-15.84,2.56-23.88-6.59-25.75-18.55Z" transform="translate(0 0)"/><path class="cls-2" d="M1160.53,142.78h12.2v22.61h.17c3-4.6,8.5-6.69,14-6.69,8.85,0,18.38,7.22,18.38,23.66s-9.53,23.74-18.38,23.74c-6.52,0-11.94-2-14.6-7h-.17v5.74h-11.6ZM1182.69,168c-7.21,0-10.39,6.79-10.39,14.43,0,7.48,3.18,14.35,10.39,14.35s10.39-6.86,10.39-14.35C1193.08,174.79,1189.9,168,1182.69,168Z" transform="translate(0 0)"/><path class="cls-2" d="M1207.34,173.9c.67-11.48,10.89-15,20.86-15,8.83,0,19.48,2,19.48,12.78V195c0,4.08.43,8.17,1.54,10h-12.36a18.74,18.74,0,0,1-.87-4.35c-3.86,4.09-9.44,5.57-14.93,5.57-8.5,0-15.11-4.25-15.11-13.47.17-20.44,30-9.48,29.54-19.57,0-5.22-3.61-6.09-7.9-6.09-4.72,0-7.64,1.92-8.07,6.78ZM1235.5,183c-2.06,1.83-6.35,1.92-10.13,2.61s-7.22,2.09-7.22,6.61,3.52,5.74,7.48,5.74c9.53,0,9.87-7.56,9.87-10.34Z" transform="translate(0 0)"/><path class="cls-2" d="M1252,159.92h11.59v8.35h.17a15.61,15.61,0,0,1,14.17-9.57,9,9,0,0,1,2.66.44v11.48a22.39,22.39,0,0,0-4.38-.43c-9,0-12,6.43-12,14.44v20.26H1252Z" transform="translate(0 0)"/><path class="cls-2" d="M1281.43,173.76c.69-11.48,10.91-15,20.87-15,8.84,0,19.49,2,19.49,12.78v23.39c0,4.1.43,8.17,1.54,10H1311a19.21,19.21,0,0,1-.85-4.35c-3.86,4.09-9.44,5.57-14.94,5.57-8.51,0-15.12-4.26-15.12-13.48.17-20.43,30.06-9.47,29.54-19.56,0-5.23-3.61-6.09-7.9-6.09-4.72,0-7.63,1.91-8.07,6.78Zm28.17,9.14c-2.06,1.82-6.35,1.92-10.14,2.61s-7.2,2.08-7.2,6.6,3.52,5.74,7.47,5.74c9.53,0,9.87-7.56,9.87-10.35Z" transform="translate(0 0)"/><path class="cls-2" d="M1326.09,142.78h12.2v23.4h.25a15.35,15.35,0,0,1,13-7.49c13,0,16.23,7.39,16.23,18.53v27.64h-12.2V179.48c0-7.39-2.06-11-7.82-11-6.62,0-9.44,3.74-9.44,12.87v23.56h-12.2Z" transform="translate(0 0)"/><path class="cls-2" d="M1400.43,168.6l2.5,0q1.34,0,2.66.15a20.29,20.29,0,0,1,2.45.38,6.2,6.2,0,0,1,1.95.76,9.42,9.42,0,0,1,3,2.93,8.16,8.16,0,0,1,1.24,4.6,8.81,8.81,0,0,1-1.39,5,8.2,8.2,0,0,1-4,3.11v.1a8.32,8.32,0,0,1,5.11,3,9.08,9.08,0,0,1,1.77,5.67,10.78,10.78,0,0,1-.71,3.84,9.64,9.64,0,0,1-2.1,3.31,10.5,10.5,0,0,1-3.44,2.33,11.83,11.83,0,0,1-4.73.88h-17.45V168.6Zm1.32,15.53q4.1,0,5.89-1.44a5.22,5.22,0,0,0,1.8-4.32,6.38,6.38,0,0,0-.61-3,4.31,4.31,0,0,0-1.67-1.72,6.57,6.57,0,0,0-2.45-.78,23.55,23.55,0,0,0-3-.18h-9.61v11.48Zm2.43,16.54a6.91,6.91,0,0,0,5-1.72,6.27,6.27,0,0,0,1.8-4.75,5.91,5.91,0,0,0-.66-2.93,5.11,5.11,0,0,0-1.75-1.85,7.33,7.33,0,0,0-2.5-1,15.23,15.23,0,0,0-2.93-.28h-11v12.49Z" transform="translate(0 0)"/><path class="cls-2" d="M1438.87,204.72v-4.15h-.1a8.79,8.79,0,0,1-3.49,3.57,10.46,10.46,0,0,1-5,1.14,11.73,11.73,0,0,1-4.3-.68,6.85,6.85,0,0,1-2.78-1.95,7.32,7.32,0,0,1-1.49-3,16.17,16.17,0,0,1-.43-3.87v-17.2h4.3v17.7a5.19,5.19,0,0,0,1.42,3.84,5.26,5.26,0,0,0,3.89,1.42,8.77,8.77,0,0,0,3.41-.61,6.4,6.4,0,0,0,2.4-1.72,7.42,7.42,0,0,0,1.44-2.61,10.59,10.59,0,0,0,.48-3.26V178.57h4.3v26.15Z" transform="translate(0 0)"/><path class="cls-2" d="M1452.68,198.88a4.57,4.57,0,0,0,1.59,1.57,7.16,7.16,0,0,0,2.23.83,12.71,12.71,0,0,0,2.55.25,15.74,15.74,0,0,0,2.12-.15,7.78,7.78,0,0,0,2-.56,3.84,3.84,0,0,0,1.54-1.19,3.17,3.17,0,0,0,.61-2,2.86,2.86,0,0,0-1.26-2.53,10.78,10.78,0,0,0-3.16-1.39q-1.9-.53-4.12-1a21.32,21.32,0,0,1-4.12-1.21,8.53,8.53,0,0,1-3.16-2.2,5.72,5.72,0,0,1-1.26-3.95,6.27,6.27,0,0,1,.89-3.39,7.24,7.24,0,0,1,2.28-2.3,10.49,10.49,0,0,1,3.14-1.32A14.46,14.46,0,0,1,1458,178a20.66,20.66,0,0,1,4.1.38,9.49,9.49,0,0,1,3.31,1.32,6.81,6.81,0,0,1,2.3,2.53,9.61,9.61,0,0,1,1,4h-4.3a4.36,4.36,0,0,0-.66-2.1,4.32,4.32,0,0,0-1.42-1.34,6.44,6.44,0,0,0-1.9-.73,9.74,9.74,0,0,0-2.1-.23,12.79,12.79,0,0,0-1.95.15,6.54,6.54,0,0,0-1.8.53,3.61,3.61,0,0,0-1.32,1,2.55,2.55,0,0,0-.51,1.64,2.42,2.42,0,0,0,.78,1.85,6.24,6.24,0,0,0,2,1.21,17.45,17.45,0,0,0,2.73.81l3,.68a32.63,32.63,0,0,1,3.16.86,10.33,10.33,0,0,1,2.73,1.34,6.56,6.56,0,0,1,1.92,2.1,6.17,6.17,0,0,1,.73,3.14,7.28,7.28,0,0,1-1,3.95,7.71,7.71,0,0,1-2.58,2.53,10.78,10.78,0,0,1-3.59,1.34,21.26,21.26,0,0,1-4,.38,18.39,18.39,0,0,1-4.15-.46,10.17,10.17,0,0,1-3.49-1.49,7.6,7.6,0,0,1-2.43-2.73,9.46,9.46,0,0,1-1-4.12h4.3A4.83,4.83,0,0,0,1452.68,198.88Z" transform="translate(0 0)"/><path class="cls-2" d="M1474.93,173.87V168.6h4.3v5.26Zm4.3,4.7v26.15h-4.3V178.57Z" transform="translate(0 0)"/><path class="cls-2" d="M1490,178.57v4.15h.1a9.05,9.05,0,0,1,8.5-4.75,11.36,11.36,0,0,1,4.3.71,7.08,7.08,0,0,1,2.78,2,7.34,7.34,0,0,1,1.49,3,16.22,16.22,0,0,1,.43,3.87v17.2h-4.3V187a5.2,5.2,0,0,0-1.42-3.84,5.27,5.27,0,0,0-3.89-1.42,8.76,8.76,0,0,0-3.41.61,6.4,6.4,0,0,0-2.4,1.72,7.42,7.42,0,0,0-1.44,2.61,10.58,10.58,0,0,0-.48,3.26v14.77h-4.3V178.57Z" transform="translate(0 0)"/><path class="cls-2" d="M1532.55,203.05a11.87,11.87,0,0,1-7.39,2.23,13.44,13.44,0,0,1-5.44-1,10.71,10.71,0,0,1-3.87-2.83,12,12,0,0,1-2.35-4.35,20.91,20.91,0,0,1-.89-5.51,15.74,15.74,0,0,1,.91-5.46,13.06,13.06,0,0,1,2.55-4.3A11.6,11.6,0,0,1,1520,179a11.9,11.9,0,0,1,4.93-1,10.73,10.73,0,0,1,5.79,1.44,11.46,11.46,0,0,1,3.69,3.67,14.52,14.52,0,0,1,1.92,4.86,20.83,20.83,0,0,1,.43,5h-19.58a10.38,10.38,0,0,0,.4,3.26,7.37,7.37,0,0,0,1.47,2.73,7.22,7.22,0,0,0,2.58,1.9,8.89,8.89,0,0,0,3.69.71,7.44,7.44,0,0,0,4.48-1.26,6.11,6.11,0,0,0,2.3-3.84h4.25A10.45,10.45,0,0,1,1532.55,203.05Zm-1-16.79a7.38,7.38,0,0,0-1.57-2.35,7.45,7.45,0,0,0-2.33-1.57,7.36,7.36,0,0,0-3-.58,7.49,7.49,0,0,0-3,.58,7,7,0,0,0-2.3,1.59,7.63,7.63,0,0,0-1.52,2.35,8.94,8.94,0,0,0-.66,2.86h15A8.82,8.82,0,0,0,1531.51,186.26Z" transform="translate(0 0)"/><path class="cls-2" d="M1544.48,198.88a4.57,4.57,0,0,0,1.59,1.57,7.16,7.16,0,0,0,2.23.83,12.71,12.71,0,0,0,2.55.25,15.74,15.74,0,0,0,2.12-.15,7.78,7.78,0,0,0,2-.56,3.84,3.84,0,0,0,1.54-1.19,3.17,3.17,0,0,0,.61-2,2.86,2.86,0,0,0-1.26-2.53,10.78,10.78,0,0,0-3.16-1.39q-1.9-.53-4.12-1a21.32,21.32,0,0,1-4.12-1.21,8.53,8.53,0,0,1-3.16-2.2,5.72,5.72,0,0,1-1.26-3.95A6.27,6.27,0,0,1,1541,182a7.24,7.24,0,0,1,2.28-2.3,10.49,10.49,0,0,1,3.14-1.32,14.46,14.46,0,0,1,3.46-.43,20.66,20.66,0,0,1,4.1.38,9.49,9.49,0,0,1,3.31,1.32,6.81,6.81,0,0,1,2.3,2.53,9.61,9.61,0,0,1,1,4h-4.3a4.36,4.36,0,0,0-.66-2.1,4.32,4.32,0,0,0-1.42-1.34,6.44,6.44,0,0,0-1.9-.73,9.74,9.74,0,0,0-2.1-.23,12.79,12.79,0,0,0-1.95.15,6.54,6.54,0,0,0-1.8.53,3.61,3.61,0,0,0-1.32,1,2.55,2.55,0,0,0-.51,1.64,2.42,2.42,0,0,0,.78,1.85,6.24,6.24,0,0,0,2,1.21,17.45,17.45,0,0,0,2.73.81l3,.68a32.63,32.63,0,0,1,3.16.86,10.33,10.33,0,0,1,2.73,1.34,6.56,6.56,0,0,1,1.92,2.1,6.17,6.17,0,0,1,.73,3.14,7.28,7.28,0,0,1-1,3.95,7.71,7.71,0,0,1-2.58,2.53,10.78,10.78,0,0,1-3.59,1.34,21.26,21.26,0,0,1-4,.38,18.39,18.39,0,0,1-4.15-.46,10.17,10.17,0,0,1-3.49-1.49,7.6,7.6,0,0,1-2.43-2.73,9.46,9.46,0,0,1-1-4.12h4.3A4.83,4.83,0,0,0,1544.48,198.88Z" transform="translate(0 0)"/><path class="cls-2" d="M1569.77,198.88a4.57,4.57,0,0,0,1.59,1.57,7.16,7.16,0,0,0,2.23.83,12.71,12.71,0,0,0,2.55.25,15.74,15.74,0,0,0,2.12-.15,7.78,7.78,0,0,0,2-.56,3.84,3.84,0,0,0,1.54-1.19,3.17,3.17,0,0,0,.61-2,2.86,2.86,0,0,0-1.26-2.53,10.78,10.78,0,0,0-3.16-1.39q-1.9-.53-4.12-1a21.32,21.32,0,0,1-4.12-1.21,8.53,8.53,0,0,1-3.16-2.2,5.72,5.72,0,0,1-1.26-3.95,6.27,6.27,0,0,1,.89-3.39,7.24,7.24,0,0,1,2.28-2.3,10.49,10.49,0,0,1,3.14-1.32,14.46,14.46,0,0,1,3.46-.43,20.66,20.66,0,0,1,4.1.38,9.49,9.49,0,0,1,3.31,1.32,6.81,6.81,0,0,1,2.3,2.53,9.61,9.61,0,0,1,1,4h-4.3a4.36,4.36,0,0,0-.66-2.1,4.32,4.32,0,0,0-1.42-1.34,6.44,6.44,0,0,0-1.9-.73,9.74,9.74,0,0,0-2.1-.23,12.79,12.79,0,0,0-1.95.15,6.54,6.54,0,0,0-1.8.53,3.61,3.61,0,0,0-1.32,1,2.55,2.55,0,0,0-.51,1.64,2.42,2.42,0,0,0,.78,1.85,6.24,6.24,0,0,0,2,1.21,17.45,17.45,0,0,0,2.73.81l3,.68a32.63,32.63,0,0,1,3.16.86,10.33,10.33,0,0,1,2.73,1.34,6.56,6.56,0,0,1,1.92,2.1,6.17,6.17,0,0,1,.73,3.14,7.28,7.28,0,0,1-1,3.95,7.71,7.71,0,0,1-2.58,2.53,10.78,10.78,0,0,1-3.59,1.34,21.26,21.26,0,0,1-4,.38,18.39,18.39,0,0,1-4.15-.46,10.17,10.17,0,0,1-3.49-1.49,7.6,7.6,0,0,1-2.43-2.73,9.46,9.46,0,0,1-1-4.12h4.3A4.83,4.83,0,0,0,1569.77,198.88Z" transform="translate(0 0)"/></svg>