<svg xmlns="http://www.w3.org/2000/svg" viewBox="0 0 181.34 42.55"><defs><style>.cls-1{fill:#fe3b1f;}.cls-2{fill:#fff;}</style></defs><title>Asset 18</title><g id="Layer_2" data-name="Layer 2"><g id="Layer_1-2" data-name="Layer 1"><path class="cls-1" d="M0,8.83,11.51,7c10.11-1.39,16.19,3.25,18,14.39S26.85,38.84,16.81,40.7L5.3,42.55ZM8,39.3l6.76-1.09C24.36,36.67,27.87,32,26.29,21.88S19.92,8.43,10.36,10L3.6,11.06Z"/><path class="cls-1" d="M28.92,4.17l3.17-.51,3.29,20.87c1.22,7.79,5.28,10.24,11.44,9.24s9.32-4.59,8.09-12.39L51.63.51,54.8,0l3.39,21.58C59.28,28.52,56.53,35,47.25,36.51S33.4,32.69,32.31,25.75Z"/><path class="cls-2" d="M61.19,0h7.07V13.12h.1a9.48,9.48,0,0,1,8.12-3.88c5.13,0,10.66,4.19,10.66,13.72S81.61,36.72,76.48,36.72c-3.78,0-6.92-1.16-8.47-4h-.09V36H61.19ZM74,14.64c-4.18,0-6,3.94-6,8.37s1.85,8.32,6,8.32,6-4,6-8.32S78.22,14.64,74,14.64Z"/><path class="cls-2" d="M88.34,18.06c.38-6.66,6.31-8.73,12.09-8.73,5.12,0,11.3,1.16,11.3,7.42V30.31c0,2.37.25,4.74.89,5.8h-7.16a10.81,10.81,0,0,1-.5-2.53,11.65,11.65,0,0,1-8.66,3.23c-4.93,0-8.77-2.46-8.77-7.81.1-11.85,17.43-5.5,17.13-11.35,0-3-2.09-3.53-4.58-3.53-2.74,0-4.43,1.11-4.68,3.94Zm16.32,5.29c-1.19,1.06-3.68,1.11-5.87,1.51s-4.19,1.22-4.19,3.83,2,3.33,4.34,3.33c5.52,0,5.72-4.38,5.72-6Z"/><path class="cls-2" d="M114.22,10h6.72v4.84h.1a9,9,0,0,1,8.21-5.55,5.29,5.29,0,0,1,1.55.25v6.66a12.85,12.85,0,0,0-2.54-.25c-5.23,0-7,3.73-7,8.37V36h-7.07Z"/><path class="cls-2" d="M131.3,18c.39-6.66,6.32-8.73,12.1-8.73,5.12,0,11.3,1.16,11.3,7.42V30.23c0,2.37.25,4.74.89,5.8h-7.17a10.69,10.69,0,0,1-.49-2.53,11.65,11.65,0,0,1-8.66,3.23c-4.94,0-8.77-2.47-8.77-7.81.1-11.85,17.43-5.49,17.13-11.34,0-3-2.09-3.53-4.58-3.53-2.74,0-4.43,1.1-4.68,3.93Zm16.33,5.29c-1.2,1.06-3.68,1.11-5.88,1.52s-4.18,1.2-4.18,3.82,2,3.34,4.33,3.34c5.53,0,5.73-4.39,5.73-6Z"/><path class="cls-2" d="M157.19,0h7.07V13.58h.14a8.92,8.92,0,0,1,7.52-4.34c7.52,0,9.42,4.29,9.42,10.75V36h-7.08V21.29c0-4.28-1.19-6.4-4.53-6.4-3.84,0-5.47,2.17-5.47,7.46V36h-7.07Z"/></g></g></svg>