<svg xmlns="http://www.w3.org/2000/svg" xmlns:xlink="http://www.w3.org/1999/xlink" viewBox="0 0 159.86 204.86"><defs><style>.cls-1{fill:#e6e6e6;}.cls-2{fill:#edd9b4;}.cls-3{clip-path:url(#clip-path);}.cls-4{fill:#09a;}.cls-5{fill:#009aab;}.cls-6,.cls-9{fill:#05727e;}.cls-7{fill:#fff;}.cls-8{fill:#1a9bab;}.cls-9{fill-rule:evenodd;}.cls-10{fill:#e3e3e2;}.cls-11{fill:#005863;}</style><clipPath id="clip-path"><circle class="cls-1" cx="79.93" cy="79.93" r="79.93" transform="translate(-33.11 79.93) rotate(-45)"/></clipPath></defs><title>Asset 1</title><g id="Layer_2" data-name="Layer 2"><g id="Layer_1-2" data-name="Layer 1"><circle class="cls-2" cx="79.93" cy="79.93" r="79.93" transform="translate(-33.11 79.93) rotate(-45)"/><circle class="cls-1" cx="79.93" cy="79.93" r="79.93" transform="translate(-33.11 79.93) rotate(-45)"/><g class="cls-3"><polygon class="cls-4" points="101.42 130.41 145.25 141.69 143.22 130.38 116.23 122.2 100.26 126.03 101.42 130.41"/><polygon class="cls-4" points="50.67 108.6 20.64 142.46 34.77 143.48 51.22 125.53 55.1 109.56 50.67 108.6"/><path class="cls-5" d="M114.26,32.71c-11.15-16-29.14-25.4-48.35-18.22C47.58,21.34,39.35,35.93,41,54.72c.1,1.14.22,2.27.35,3.41a7.09,7.09,0,0,0-3.74.24C32.9,60,30.94,66.57,33.21,73S41,83.14,45.67,81.6c2.51,10.75,5.4,21.48,7.39,31.88,3.44-.1,21.8,15.12,36.44,14.73,11.83-.31,20.79-16.09,20.89-17.16.44-4.59.9-9.18,1.44-13.76-5.91.6-13.27-5.05-12.45-6.34.3-.46,8.08.65,13.32-.51.17-1.23.33-2.46.52-3.68,1.16-7.64,9.11-9.67,14.17-14C134.84,66.41,118.32,38.54,114.26,32.71Z"/><polygon class="cls-6" points="110.66 108.28 110.43 108.42 88.86 116.92 51.8 106.25 89.2 119.47 110.66 108.28"/><path class="cls-7" d="M128.22,122l-17.56-13.67-21.7,11-37.4-13L28.77,125.81l12.46,15.41,6.28-5.69a589.82,589.82,0,0,0,11.93,69.33l56.37-3.11s-.6-31,.6-65.25l3.75,2.41Z"/><path class="cls-7" d="M108.13,51.38c.27,6.85-5.47,12.65-12.82,12.94s-13.52-5-13.78-11.91S87,39.76,94.35,39.48,107.87,44.52,108.13,51.38Z"/><path class="cls-7" d="M128.25,45c.2,5.21-4.16,9.62-9.75,9.83S108.22,51,108,45.82s4.16-9.62,9.75-9.83S128.05,39.82,128.25,45Z"/><path class="cls-8" d="M120.25,46.73a4.66,4.66,0,1,1-4.81-4.15A4.51,4.51,0,0,1,120.25,46.73Z"/><path class="cls-8" d="M96.5,53.05a5.77,5.77,0,1,1-6-5.15A5.57,5.57,0,0,1,96.5,53.05Z"/><polygon class="cls-6" points="80.5 46.52 78.9 39.48 125.41 33.24 126 37.28 80.5 46.52"/><path class="cls-9" d="M132.75,78.09a5.41,5.41,0,0,1-6.23,2.46c-1.94-.46-3.86-1.15-5.81-1.61-1.7-.41-3.42-.47-4.91.88-.94.86-1.83,1.81-2.71,2.78-1.42-.83-2.85-1.64-4.33-2.35-2.36-1.12-4.83-.81-7.23-.15-2.74.74-5.41,1.71-8.15,2.45-3.32.9-6.53.71-9.36-1.52a28.27,28.27,0,0,1-2.12-2.12c2.63,4.77,5.78,9,11,11.32a12.08,12.08,0,0,0,7.53.74,17.13,17.13,0,0,0,6.07-2.67,11.85,11.85,0,0,1,6.26-2.08v.13a5.09,5.09,0,0,1,.56-.14c.28,0,.55,0,.83.05v-.14a6.61,6.61,0,0,1,4.06,1.48,10.06,10.06,0,0,0,4.4,2,6.12,6.12,0,0,0,5.08-1.5c3.3-2.79,5-7.36,6.33-12.37C133.57,76.54,133.22,77.39,132.75,78.09Z"/><polygon class="cls-10" points="47.51 135.53 52.25 131.87 52.56 166.31 47.51 135.53"/><path class="cls-10" d="M115.89,137l-.58-9.63s7,6.21,6.84,6.65-2.52,4.94-2.52,4.94Z"/><path class="cls-6" d="M62.17,15.62s10-.87,15.34-7.8S81.14,15.47,62.17,15.62Z"/><path class="cls-6" d="M64.32,13.81s13.29.37,21.27-7.91S89.2,16.49,64.32,13.81Z"/><path class="cls-6" d="M63.2,11.41s15.56,4.28,27.36-3.18S91.76,21.75,63.2,11.41Z"/><polygon class="cls-11" points="54.7 182.96 115.66 179.3 115.67 181.79 55.18 185.38 54.7 182.96"/></g><path class="cls-5" d="M54.62,139.15l-.7-5.33-28.67,3.23-4.61,5.41c-.61,2,2.57,8.92,4.49,8.17Z"/><path class="cls-4" d="M70.6,120.86a45.39,45.39,0,0,0-.74,5.59,11.66,11.66,0,0,0-7.38-1.2c6,1.08,8.19,2.94,8.19,2.94h0c2.66,2.84.35,5.27-.78,6.2-2.84.32-8.36.67-12.34-.77,0,0,.63,3.37,13.08,1.56,3.74,1.48,2.91,4.72,2.16,6.41-2.17.72-6.46,1.57-12.5,0A20.31,20.31,0,0,0,72.74,143c2.17,1.6,1,4,.28,5.08a27.13,27.13,0,0,1-10.23-.17,24,24,0,0,0,10.13,1.8,4.42,4.42,0,0,1-1.28,2.16c-3.3,4-15,2.68-16.63,0s-3.58-2.83-4.42-6.28-3.15-3.44-2.72-5.36-.1-1.75.79-8.74,4.93-6.41,8.25-6.33c2.1,0,6.39-4.73,6.92-8.84.47-3.6,4-3.72,5.25-2.18C69.08,114.16,71.34,115.27,70.6,120.86Z"/></g></g></svg>