<svg xmlns="http://www.w3.org/2000/svg" viewBox="0 0 1743.65 409.19"><defs><style>.cls-1{fill:#fff;}</style></defs><title>Asset 7</title><g id="Layer_2" data-name="Layer 2"><g id="Layer_1-2" data-name="Layer 1"><path class="cls-1" d="M0,85,110.69,67.1c97.22-13.37,155.69,31.23,172.6,138.43s-25.12,167.9-121.6,185.77L51,409.19Zm77.3,293,65-10.49c91.91-14.81,125.75-59.83,110.5-157S191.55,81,99.6,95.91l-65,10.47Z"/><path class="cls-1" d="M278.13,40.12l30.44-4.95,31.59,200.74c11.74,74.91,50.86,98.38,110,88.84,59.67-9.6,89.64-44.2,77.81-119.15L496.43,4.94,526.91,0l32.65,207.5c10.48,66.79-16,129.21-105.25,143.58C366,365.35,321.16,314.35,310.72,247.63Z"/><path class="cls-1" d="M588.39.12h68V126.18h1c16.74-25.65,47.38-37.33,78-37.33,49.34,0,102.5,40.24,102.5,131.9S784.74,353.13,735.4,353.13C699,353.13,668.84,342,654,314.31H653v32H588.39ZM711.93,140.76c-40.2,0-57.94,37.85-57.94,80.48,0,41.73,17.74,80,57.94,80s57.93-38.27,57.93-80C769.86,178.61,752.14,140.76,711.93,140.76Z"/><path class="cls-1" d="M849.4,173.61c3.74-64,60.74-83.86,116.33-83.86,49.24,0,108.61,11.14,108.61,71.27V291.48c0,22.77,2.42,45.54,8.6,55.72H1014a104.51,104.51,0,0,1-4.83-24.27c-21.5,22.79-52.62,31-83.26,31-47.39,0-84.27-23.72-84.27-75.1.93-114,167.53-52.88,164.7-109.12,0-29.12-20.1-34-44.05-34-26.32,0-42.61,10.69-45,37.83Zm157,50.93c-11.49,10.21-35.43,10.69-56.48,14.54s-40.26,11.66-40.26,36.83,19.63,32,41.7,32c53.14,0,55-42.15,55-57.67Z"/><path class="cls-1" d="M1098.29,95.66h64.64v46.55h.94c12.92-31.51,45-53.35,79-53.35a50.38,50.38,0,0,1,14.83,2.44v64a124.86,124.86,0,0,0-24.41-2.42c-50.27,0-67,35.87-67,80.49v113h-68Z"/><path class="cls-1" d="M1262.48,172.85c3.84-64,60.82-83.87,116.37-83.87,49.29,0,108.67,11.14,108.67,71.28v130.4c0,22.85,2.39,45.58,8.59,55.77h-69a107.1,107.1,0,0,1-4.74-24.27c-21.51,22.8-52.62,31.06-83.27,31.06-47.43,0-84.3-23.75-84.3-75.17,1-113.93,167.58-52.79,164.71-109,0-29.14-20.12-34-44.06-34-26.33,0-42.55,10.64-45,37.8Zm157,50.93C1408,234,1384.14,234.47,1363,238.34s-40.16,11.61-40.16,36.81,19.62,32,41.64,32c53.11,0,55.05-42.16,55.05-57.71Z"/><path class="cls-1" d="M1511.45.12h68V130.6h1.38c17.24-28.65,46.93-41.74,72.3-41.74,72.28,0,90.51,41.22,90.51,103.32V346.31h-68V204.76c0-41.22-11.51-61.58-43.58-61.58-36.89,0-52.61,20.83-52.61,71.76V346.31h-68Z"/></g></g></svg>