<svg xmlns="http://www.w3.org/2000/svg" viewBox="0 0 372.99 88.88"><defs><style>.cls-1,.cls-2{fill:#fff;}.cls-1{stroke:#fff;stroke-miterlimit:10;stroke-width:0.4px;}</style></defs><title>Asset 1</title><g id="Layer_2" data-name="Layer 2"><g id="Layer_1-2" data-name="Layer 1"><path class="cls-1" d="M221.62,21.85a2,2,0,0,1,2.19,1.69c0,1.16-1.41,2.07-1.41,4.69,0,3.22,2.5,4.6,5.95,4.6,4.16,0,7.07-1.47,7.07-6.85,0-7.51-1.22-11.89-1.22-15.4,0-1.88.25-3.19,2.19-3.19,1.78,0,1.94,1.38,1.94,2.5,0,4.6-.34,9.7-.34,14.61,0,6.16-1.13,11.27-9.45,11.27-6.35,0-9.29-3.79-9.29-8.67C219.24,24.73,219.52,21.85,221.62,21.85Z"/><path class="cls-1" d="M245.62,28.8c-3-.66-5.66-2.66-5.66-5,0-7.07-.75-12.3-.75-13.33,0-1.88.53-3.19,2.07-3.19s2.13,1.13,2.13,2.66c0,3.1-1.13,5.32-1.13,10.83,0,2.94-.69,3.63,3.35,5.23Z"/><path class="cls-1" d="M245.62,26a6.55,6.55,0,0,0,2.79.56c1.35,0,2.91-1,3.5-3.35,1-4.41,3.69-6.63,7-6.63,4,0,6.67,2.75,6.67,6.85,0,4.79-3.32,6.7-6.48,6.7-3.94,0-5.07-2-6.07-2-.5,0-.94.38-1.6.88a3.28,3.28,0,0,1-.81.41,3,3,0,0,1-1.16.19,21.75,21.75,0,0,1-3.88-.78,9.59,9.59,0,0,1-2.75-1.47.48.48,0,0,1-.16-.28c0-.09.16-.28.44-.5.59-.47,1-.78,1.31-.78A1.83,1.83,0,0,1,245.62,26ZM258.83,27a3.35,3.35,0,0,0,3.5-3.5,3.71,3.71,0,0,0-3.79-3.82,3.8,3.8,0,0,0-3.76,3.85C254.79,25.7,256.48,27,258.83,27Z"/><path class="cls-1" d="M270.65,22.67a5.92,5.92,0,0,1,6.29-6.16c1.66,0,4.88.59,4.88,2.5,0,1.25-1,1.22-1,1.19-1,0-1.53-.59-3.63-.59a3.27,3.27,0,0,0-3.5,3.44c0,2.6,2.28,3.85,4.29,3.85,2.19,0,2.57-.72,4.13-.72.72,0,1.25.22,1.25,1.06,0,2.57-5.41,2.79-10.14,2.79a25.32,25.32,0,0,1-8-1.22,9.55,9.55,0,0,1-2.66-1.31.59.59,0,0,1-.25-.44,1.94,1.94,0,0,1,1.44-1.41,7.32,7.32,0,0,1,1.47.31,19,19,0,0,0,7.29,1.28A6.33,6.33,0,0,1,270.65,22.67Z"/><path class="cls-1" d="M290.31,3.64c-.28,0-.69-.13-.69-.91,0-1.1,4.38-2,5.76-2.44a1.54,1.54,0,0,1,.47-.09c.25,0,.78.22.78,1.06,0,1.16-2.16,1.25-3.25,1.5s-1.78.5-2.79.84C290.49,3.61,290.43,3.64,290.31,3.64Z"/><path class="cls-1" d="M296.35,27.14c4.1,0,5.29-.72,5.29-4.51,0-5.6-.78-10.7-.78-13.11,0-1,.22-2.1,1.72-2.1,1.75,0,1.91,1,1.91,2.1s-.16,12.67-.16,15.55c0,2-.84,4.91-8,4.91-5.85,0-10.58-.59-10.58-2.44A1.12,1.12,0,0,1,287,26.3c.47,0,3.41.53,6.45.78.09-1,.06-2.6.06-3.69,0-1.56-.31-7-.31-7.54,0-1,.19-1.75,1.6-1.75s1.75.59,1.75,1.47c0,.5-.22,5.48-.22,8.92Zm1.35-17.34c.28,0,.41.25.41.72,0,.72-.75.88-1.22.88-3.25,0-4.35.25-4.94.25-.28,0-.41-.16-.41-.66s.19-1.22,2-1.22a2.8,2.8,0,0,1-1.19-2.16c0-1.88,1.56-2.6,3-2.6,1.13,0,2.5.25,2.5,1.35,0,.47-.28.63-.5.63a11.42,11.42,0,0,0-1.6-.25,1.36,1.36,0,0,0-1.53,1.31c0,1.38,1.38,1.75,2.79,1.75Z"/><path class="cls-1" d="M307.64,27.17c0-.56.56-4.82.56-10.23,0-1.5-.41-6.92-.41-7.54,0-1,.25-1.85,1.5-1.85,1.56,0,1.56.81,1.56,1.69,0,.56-.28,5.45-.28,9,0,4.57.47,9.23.47,9.8,0,.75-.19,1.5-1.69,1.5S307.64,28.52,307.64,27.17Z"/><path class="cls-1" d="M319.57,21.85a2,2,0,0,1,2.19,1.69c0,1.16-1.41,2.07-1.41,4.69,0,3.22,2.5,4.6,5.95,4.6,4.16,0,7.07-1.47,7.07-6.85,0-7.51-1.22-11.89-1.22-15.4,0-1.88.25-3.19,2.19-3.19,1.78,0,1.94,1.38,1.94,2.5,0,4.6-.34,9.7-.34,14.61,0,6.16-1.13,11.27-9.45,11.27-6.35,0-9.29-3.79-9.29-8.67C317.19,24.73,317.47,21.85,319.57,21.85Z"/><path class="cls-1" d="M336.37,26a8.2,8.2,0,0,0,4.51.94c2.82,0,3-1.66,3-2.63,0-3.32-1-3.72-1-4.91,0-.44.19-1.22,1.53-1.22,2.13,0,2.32,3.38,2.32,5.63,0,4.13-1.66,5.85-5.79,5.85a16.7,16.7,0,0,1-4.57-.81,20.53,20.53,0,0,1-2-.69q-.94-.38-.94-.56c0-.47,1.13-1.78,1.75-1.78A3,3,0,0,1,336.37,26Zm5.51,7.39a1.77,1.77,0,0,1,1.75,1.85A1.67,1.67,0,0,1,341.82,37c-1,0-1.82-.41-1.82-1.56S340.47,33.34,341.88,33.34Zm2.66,1.85a1.72,1.72,0,0,1,1.78-1.85c1.41,0,1.82,1,1.82,2,0,.88-.44,1.66-1.82,1.66C345.23,37,344.54,36.56,344.54,35.19Z"/><path class="cls-1" d="M346.45,26a11.75,11.75,0,0,0,4.38.94c2.5,0,3.54-.56,3.54-5.82,0-5.76-.66-10.92-.66-11.67s.28-2,1.78-2,1.91,1.28,1.91,2.38-.31,9.83-.31,12.67c0,4.6-.88,7-5.51,7a23.18,23.18,0,0,1-2.6-.16,17.83,17.83,0,0,1-2.53-.53,10.58,10.58,0,0,1-2.79-1.1.38.38,0,0,1-.13-.28,2.47,2.47,0,0,1,.69-.94C344.91,25.89,345,25.45,346.45,26Z"/><path class="cls-1" d="M361.75,11.53c-.28,0-.69-.13-.69-.91,0-1.1,4.38-2,5.76-2.44a1.54,1.54,0,0,1,.47-.09c.25,0,.78.22.78,1.06,0,1.16-2.16,1.25-3.25,1.5s-1.78.5-2.79.84C361.94,11.5,361.87,11.53,361.75,11.53Z"/><path class="cls-1" d="M359.84,28.05c0-1.35.38-2.07.84-2.07,1.06,0,2.75,1.6,6.26,1.6,1.66,0,3.19-.72,3.22-2.35-.13-3.07-6.29-5.19-6.29-6.79a3.12,3.12,0,0,1,3-2.66c2.72,0,5.95,5.29,5.95,9,0,3.25-1.31,6.29-7.23,6.29a13.21,13.21,0,0,1-3.72-.44C360.62,30.12,359.84,29.52,359.84,28.05Z"/><path class="cls-2" d="M0,48.13l13.91-2.24c12.22-1.68,19.57,3.92,21.69,17.4s-3.16,21.1-15.28,23.35L6.4,88.88ZM9.71,84.95l8.17-1.32c11.55-1.86,15.8-7.52,13.89-19.73s-7.7-16.26-19.25-14.39L4.35,50.82Z"/><path class="cls-2" d="M35,42.5l3.83-.62,4,25.23c1.48,9.41,6.39,12.36,13.82,11.16s11.26-5.55,9.78-15l-4-25.22,3.83-.62,4.1,26.08c1.32,8.39-2,16.24-13.23,18S40.36,77,39,68.57Z"/><path class="cls-2" d="M73.95,37.47h8.55V53.31h.12c2.1-3.22,6-4.69,9.81-4.69,6.2,0,12.88,5.06,12.88,16.58S98.62,81.83,92.42,81.83c-4.57,0-8.37-1.4-10.23-4.88h-.12v4H73.95ZM89.47,55.14c-5.05,0-7.28,4.76-7.28,10.11s2.23,10.05,7.28,10.05,7.28-4.81,7.28-10.05S94.53,55.14,89.47,55.14Z"/><path class="cls-2" d="M106.75,59.27c.47-8,7.63-10.54,14.62-10.54,6.19,0,13.65,1.4,13.65,9V74.08c0,2.86.3,5.72,1.08,7h-8.66a13.13,13.13,0,0,1-.61-3.05c-2.7,2.86-6.61,3.9-10.46,3.9-6,0-10.59-3-10.59-9.44.12-14.33,21.05-6.65,20.7-13.71,0-3.66-2.53-4.27-5.54-4.27-3.31,0-5.35,1.34-5.66,4.75Zm19.73,6.4C125,67,122,67,119.38,67.5s-5.06,1.46-5.06,4.63,2.47,4,5.24,4c6.68,0,6.92-5.3,6.92-7.25Z"/><path class="cls-2" d="M138,49.48h8.12v5.85h.12a10.94,10.94,0,0,1,9.93-6.7,6.33,6.33,0,0,1,1.86.31v8a15.69,15.69,0,0,0-3.07-.3c-6.32,0-8.42,4.51-8.42,10.12V81H138Z"/><path class="cls-2" d="M158.66,59.18c.48-8,7.64-10.54,14.62-10.54,6.19,0,13.66,1.4,13.66,9V74c0,2.87.3,5.73,1.08,7h-8.67a13.46,13.46,0,0,1-.6-3.05c-2.7,2.87-6.61,3.9-10.47,3.9-6,0-10.6-3-10.6-9.45.12-14.32,21.06-6.63,20.7-13.7,0-3.66-2.53-4.27-5.54-4.27-3.31,0-5.35,1.34-5.65,4.75Zm19.74,6.4c-1.44,1.28-4.45,1.34-7.1,1.83s-5,1.46-5,4.63,2.47,4,5.23,4c6.67,0,6.92-5.3,6.92-7.25Z"/><path class="cls-2" d="M190,37.47h8.55v16.4h.17a10.75,10.75,0,0,1,9.09-5.25c9.08,0,11.37,5.18,11.37,13V81h-8.55V63.19c0-5.18-1.45-7.74-5.48-7.74-4.64,0-6.61,2.62-6.61,9V81H190Z"/><path class="cls-2" d="M242,55.56l1.75,0q.94,0,1.86.11a14.22,14.22,0,0,1,1.72.27,4.34,4.34,0,0,1,1.36.53,6.6,6.6,0,0,1,2.11,2.06,5.72,5.72,0,0,1,.87,3.23,6.18,6.18,0,0,1-1,3.49A5.74,5.74,0,0,1,248,67.44v.07a5.83,5.83,0,0,1,3.58,2.13,6.36,6.36,0,0,1,1.24,4,7.55,7.55,0,0,1-.5,2.69,6.76,6.76,0,0,1-1.47,2.32,7.36,7.36,0,0,1-2.41,1.63,8.29,8.29,0,0,1-3.31.62H232.86V55.56ZM243,66.45a6.64,6.64,0,0,0,4.13-1,3.65,3.65,0,0,0,1.26-3,4.47,4.47,0,0,0-.43-2.13,3,3,0,0,0-1.17-1.2,4.61,4.61,0,0,0-1.72-.55A16.5,16.5,0,0,0,243,58.4h-6.73v8ZM244.67,78a4.84,4.84,0,0,0,3.49-1.21,4.4,4.4,0,0,0,1.26-3.33,4.14,4.14,0,0,0-.46-2.06,3.58,3.58,0,0,0-1.22-1.29,5.14,5.14,0,0,0-1.75-.67,10.67,10.67,0,0,0-2.06-.19h-7.69V78Z"/><path class="cls-2" d="M269,80.87V78h-.07a6.16,6.16,0,0,1-2.45,2.5,7.33,7.33,0,0,1-3.51.8,8.22,8.22,0,0,1-3-.48A4.8,4.8,0,0,1,258,79.42a5.13,5.13,0,0,1-1-2.11,11.33,11.33,0,0,1-.3-2.71V62.55h3V75a3.64,3.64,0,0,0,1,2.69,3.69,3.69,0,0,0,2.73,1,6.14,6.14,0,0,0,2.39-.43A4.49,4.49,0,0,0,267.46,77a5.2,5.2,0,0,0,1-1.83,7.42,7.42,0,0,0,.34-2.29V62.55h3V80.87Z"/><path class="cls-2" d="M278.66,76.78a3.2,3.2,0,0,0,1.12,1.1,5,5,0,0,0,1.56.58,8.9,8.9,0,0,0,1.79.18,11,11,0,0,0,1.49-.11,5.45,5.45,0,0,0,1.44-.39,2.69,2.69,0,0,0,1.08-.83,2.22,2.22,0,0,0,.43-1.4,2,2,0,0,0-.89-1.77,7.56,7.56,0,0,0-2.22-1q-1.33-.37-2.89-.67a14.94,14.94,0,0,1-2.89-.85,6,6,0,0,1-2.22-1.54,4,4,0,0,1-.89-2.76,4.39,4.39,0,0,1,.62-2.37,5.07,5.07,0,0,1,1.59-1.61,7.35,7.35,0,0,1,2.2-.92,10.13,10.13,0,0,1,2.43-.3,14.48,14.48,0,0,1,2.87.27,6.65,6.65,0,0,1,2.32.92,4.77,4.77,0,0,1,1.61,1.77,6.73,6.73,0,0,1,.71,2.78h-3a3.06,3.06,0,0,0-.46-1.47,3,3,0,0,0-1-.94,4.52,4.52,0,0,0-1.33-.51,6.83,6.83,0,0,0-1.47-.16,9,9,0,0,0-1.36.11,4.58,4.58,0,0,0-1.26.37,2.53,2.53,0,0,0-.92.71,1.79,1.79,0,0,0-.35,1.15,1.69,1.69,0,0,0,.55,1.29,4.37,4.37,0,0,0,1.4.85,12.22,12.22,0,0,0,1.91.57l2.13.48a22.87,22.87,0,0,1,2.22.6,7.24,7.24,0,0,1,1.91.94,4.6,4.6,0,0,1,1.35,1.47,4.33,4.33,0,0,1,.51,2.2,5.1,5.1,0,0,1-.69,2.76,5.4,5.4,0,0,1-1.81,1.77,7.55,7.55,0,0,1-2.52.94,14.9,14.9,0,0,1-2.78.27,12.88,12.88,0,0,1-2.91-.32,7.13,7.13,0,0,1-2.45-1,5.33,5.33,0,0,1-1.7-1.91,6.63,6.63,0,0,1-.71-2.89h3A3.39,3.39,0,0,0,278.66,76.78Z"/><path class="cls-2" d="M294.25,59.25V55.56h3v3.69Zm3,3.3V80.87h-3V62.55Z"/><path class="cls-2" d="M304.78,62.55v2.91h.07a6.34,6.34,0,0,1,6-3.33,8,8,0,0,1,3,.5A5,5,0,0,1,315.77,64a5.14,5.14,0,0,1,1,2.11,11.36,11.36,0,0,1,.3,2.71V80.87h-3V68.47a3.64,3.64,0,0,0-1-2.69,3.69,3.69,0,0,0-2.73-1,6.14,6.14,0,0,0-2.39.43,4.48,4.48,0,0,0-1.68,1.2,5.2,5.2,0,0,0-1,1.83,7.41,7.41,0,0,0-.34,2.29V80.87h-3V62.55Z"/><path class="cls-2" d="M334.62,79.7a8.32,8.32,0,0,1-5.17,1.56,9.42,9.42,0,0,1-3.81-.71,7.5,7.5,0,0,1-2.71-2,8.42,8.42,0,0,1-1.65-3,14.65,14.65,0,0,1-.62-3.86,11,11,0,0,1,.64-3.83,9.15,9.15,0,0,1,1.79-3,8.13,8.13,0,0,1,2.73-2,8.34,8.34,0,0,1,3.46-.71,7.52,7.52,0,0,1,4.06,1,8,8,0,0,1,2.59,2.57,10.17,10.17,0,0,1,1.35,3.4,14.6,14.6,0,0,1,.3,3.51H323.85a7.27,7.27,0,0,0,.28,2.29,5.16,5.16,0,0,0,1,1.91A5.06,5.06,0,0,0,327,78.14a6.23,6.23,0,0,0,2.59.5,5.21,5.21,0,0,0,3.14-.89,4.28,4.28,0,0,0,1.61-2.69h3A7.33,7.33,0,0,1,334.62,79.7Zm-.73-11.77a5.17,5.17,0,0,0-1.1-1.65,5.22,5.22,0,0,0-1.63-1.1,5.16,5.16,0,0,0-2.07-.41,5.25,5.25,0,0,0-2.11.41,4.87,4.87,0,0,0-1.61,1.12A5.35,5.35,0,0,0,324.31,68a6.26,6.26,0,0,0-.46,2h10.53A6.18,6.18,0,0,0,333.9,67.93Z"/><path class="cls-2" d="M343,76.78a3.2,3.2,0,0,0,1.12,1.1,5,5,0,0,0,1.56.58,8.9,8.9,0,0,0,1.79.18,11,11,0,0,0,1.49-.11,5.45,5.45,0,0,0,1.44-.39,2.69,2.69,0,0,0,1.08-.83,2.22,2.22,0,0,0,.43-1.4,2,2,0,0,0-.89-1.77,7.56,7.56,0,0,0-2.22-1q-1.33-.37-2.89-.67a14.94,14.94,0,0,1-2.89-.85,6,6,0,0,1-2.22-1.54,4,4,0,0,1-.89-2.76,4.39,4.39,0,0,1,.62-2.37,5.07,5.07,0,0,1,1.59-1.61,7.35,7.35,0,0,1,2.2-.92,10.13,10.13,0,0,1,2.43-.3,14.48,14.48,0,0,1,2.87.27,6.65,6.65,0,0,1,2.32.92,4.77,4.77,0,0,1,1.61,1.77,6.73,6.73,0,0,1,.71,2.78h-3a3.06,3.06,0,0,0-.46-1.47,3,3,0,0,0-1-.94,4.52,4.52,0,0,0-1.33-.51,6.83,6.83,0,0,0-1.47-.16,9,9,0,0,0-1.36.11,4.58,4.58,0,0,0-1.26.37,2.53,2.53,0,0,0-.92.71,1.79,1.79,0,0,0-.35,1.15,1.69,1.69,0,0,0,.55,1.29,4.37,4.37,0,0,0,1.4.85,12.22,12.22,0,0,0,1.91.57l2.13.48a22.87,22.87,0,0,1,2.22.6,7.24,7.24,0,0,1,1.91.94,4.6,4.6,0,0,1,1.35,1.47,4.33,4.33,0,0,1,.51,2.2,5.1,5.1,0,0,1-.69,2.76,5.4,5.4,0,0,1-1.81,1.77,7.55,7.55,0,0,1-2.52.94,14.9,14.9,0,0,1-2.78.27,12.88,12.88,0,0,1-2.91-.32,7.13,7.13,0,0,1-2.45-1,5.33,5.33,0,0,1-1.7-1.91,6.63,6.63,0,0,1-.71-2.89h3A3.39,3.39,0,0,0,343,76.78Z"/><path class="cls-2" d="M360.71,76.78a3.2,3.2,0,0,0,1.12,1.1,5,5,0,0,0,1.56.58,8.9,8.9,0,0,0,1.79.18,11,11,0,0,0,1.49-.11,5.45,5.45,0,0,0,1.44-.39,2.69,2.69,0,0,0,1.08-.83,2.22,2.22,0,0,0,.43-1.4,2,2,0,0,0-.89-1.77,7.56,7.56,0,0,0-2.22-1q-1.33-.37-2.89-.67a14.94,14.94,0,0,1-2.89-.85,6,6,0,0,1-2.22-1.54,4,4,0,0,1-.89-2.76,4.39,4.39,0,0,1,.62-2.37,5.07,5.07,0,0,1,1.59-1.61,7.35,7.35,0,0,1,2.2-.92,10.13,10.13,0,0,1,2.43-.3,14.48,14.48,0,0,1,2.87.27,6.65,6.65,0,0,1,2.32.92,4.77,4.77,0,0,1,1.61,1.77,6.73,6.73,0,0,1,.71,2.78h-3a3.06,3.06,0,0,0-.46-1.47,3,3,0,0,0-1-.94,4.52,4.52,0,0,0-1.33-.51,6.83,6.83,0,0,0-1.47-.16,9,9,0,0,0-1.36.11,4.58,4.58,0,0,0-1.26.37,2.53,2.53,0,0,0-.92.71,1.79,1.79,0,0,0-.35,1.15,1.69,1.69,0,0,0,.55,1.29,4.37,4.37,0,0,0,1.4.85,12.22,12.22,0,0,0,1.91.57l2.13.48a22.87,22.87,0,0,1,2.22.6,7.24,7.24,0,0,1,1.91.94,4.6,4.6,0,0,1,1.35,1.47,4.33,4.33,0,0,1,.51,2.2,5.1,5.1,0,0,1-.69,2.76,5.4,5.4,0,0,1-1.81,1.77,7.55,7.55,0,0,1-2.52.94,14.9,14.9,0,0,1-2.78.27,12.88,12.88,0,0,1-2.91-.32,7.13,7.13,0,0,1-2.45-1,5.33,5.33,0,0,1-1.7-1.91,6.63,6.63,0,0,1-.71-2.89h3A3.39,3.39,0,0,0,360.71,76.78Z"/></g></g></svg>