<svg id="Layer_1" data-name="Layer 1" xmlns="http://www.w3.org/2000/svg" xmlns:xlink="http://www.w3.org/1999/xlink" viewBox="0 0 1088.93 375"><defs><linearGradient id="linear-gradient" x1="769.18" y1="375" x2="769.18" y2="345.28" gradientUnits="userSpaceOnUse"><stop offset="0" stop-color="#fff"/><stop offset="1"/></linearGradient><linearGradient id="linear-gradient-2" x1="718.89" x2="718.89" y2="337.88" xlink:href="#linear-gradient"/><linearGradient id="linear-gradient-3" x1="653.83" x2="653.83" y2="343.45" xlink:href="#linear-gradient"/><linearGradient id="linear-gradient-4" x1="595.17" x2="595.17" y2="340.99" xlink:href="#linear-gradient"/><linearGradient id="linear-gradient-5" x1="512.12" x2="512.12" y2="341.74" xlink:href="#linear-gradient"/><linearGradient id="linear-gradient-6" x1="475.12" x2="475.12" y2="341.74" xlink:href="#linear-gradient"/><linearGradient id="linear-gradient-7" x1="799.82" x2="799.82" y2="342.51" xlink:href="#linear-gradient"/><linearGradient id="linear-gradient-8" x1="855.5" x2="855.5" y2="343.12" xlink:href="#linear-gradient"/><linearGradient id="linear-gradient-9" x1="881.19" x2="881.19" y2="342.51" xlink:href="#linear-gradient"/><linearGradient id="linear-gradient-10" x1="670.48" x2="670.48" y2="346.76" xlink:href="#linear-gradient"/><linearGradient id="linear-gradient-11" x1="591.38" x2="591.38" y2="344.74" xlink:href="#linear-gradient"/><linearGradient id="linear-gradient-12" x1="715.61" x2="715.61" y2="338.3" xlink:href="#linear-gradient"/><linearGradient id="linear-gradient-13" x1="639.77" x2="639.77" y2="343.92" xlink:href="#linear-gradient"/><linearGradient id="linear-gradient-14" x1="785.35" x2="785.35" y2="343.92" xlink:href="#linear-gradient"/><linearGradient id="linear-gradient-15" x1="881.95" x2="881.95" y2="346.3" xlink:href="#linear-gradient"/></defs><title>dubarahsol</title><text transform="translate(398.52 36.49)" font-size="9.52" fill="#fff" font-family="HelveticaNeue, HelveticaNeue"><tspan letter-spacing="-0.01em">f</tspan><tspan x="2.66" y="0">or</tspan></text><polyline points="1088.93 0 1088.93 347.25 0 347.25 0 0" fill="#424649"/><rect x="0.68" y="186.04" width="471.49" height="188.87" fill="#f5f5f5"/><path d="M-.93,185.36l440-96a29.08,29.08,0,0,1,34.59,22.26L531,374.91" transform="translate(0.93)" fill="#f5f5f5"/><path d="M223.53,184.75h13.1V209h.18c3.22-4.94,9.13-7.19,15-7.19,9.51,0,19.75,7.75,19.75,25.41s-10.24,25.5-19.75,25.5c-7,0-12.82-2.15-15.68-7.48H236v6.16H223.53Zm23.8,27.09c-7.74,0-11.16,7.29-11.16,15.5,0,8,3.42,15.41,11.16,15.41s11.16-7.37,11.16-15.41C258.49,219.14,255.08,211.85,247.33,211.85Z" transform="translate(0.93)" fill="#424649"/><path d="M273.82,218.17c.72-12.33,11.7-16.16,22.41-16.16,9.49,0,20.92,2.15,20.92,13.73v25.13c0,4.39.47,8.77,1.66,10.73H305.53a20.12,20.12,0,0,1-.93-4.68c-4.14,4.39-10.14,6-16,6-9.13,0-16.23-4.57-16.23-14.47.18-22,32.27-10.19,31.73-21,0-5.61-3.87-6.54-8.49-6.54-5.07,0-8.21,2.06-8.67,7.29ZM304.06,228c-2.21,2-6.83,2.06-10.88,2.8s-7.76,2.25-7.76,7.1,3.78,6.17,8,6.17c10.24,0,10.6-8.12,10.6-11.11Z" transform="translate(0.93)" fill="#424649"/><path d="M321.76,203.16h12.45v9h.18a16.76,16.76,0,0,1,15.22-10.28,9.71,9.71,0,0,1,2.86.47v12.33a24,24,0,0,0-4.7-.47c-9.68,0-12.91,6.91-12.91,15.51v21.76h-13.1Z" transform="translate(0.93)" fill="#424649"/><path d="M353.39,218c.74-12.33,11.72-16.16,22.42-16.16,9.5,0,20.93,2.15,20.93,13.73v25.12c0,4.4.46,8.78,1.66,10.74H385.11a20.64,20.64,0,0,1-.91-4.68c-4.14,4.39-10.14,6-16,6-9.14,0-16.24-4.57-16.24-14.48.19-21.95,32.28-10.17,31.73-21,0-5.61-3.88-6.54-8.49-6.54-5.07,0-8.2,2-8.66,7.28Zm30.25,9.81c-2.21,2-6.82,2.06-10.89,2.8s-7.74,2.24-7.74,7.09,3.78,6.17,8,6.17c10.23,0,10.61-8.12,10.61-11.12Z" transform="translate(0.93)" fill="#424649"/><path d="M401.36,184.75h13.1v25.14h.27a16.49,16.49,0,0,1,13.93-8c13.92,0,17.44,7.94,17.44,19.9v29.69H433V224.18c0-7.94-2.22-11.86-8.4-11.86-7.11,0-10.13,4-10.13,13.83v25.31h-13.1Z" transform="translate(0.93)" fill="#424649"/><path d="M163.76,192.46l5.87-1,6.09,38.67c2.26,14.43,9.8,19,21.19,17.11s17.27-8.51,15-23l-6.08-38.66,5.87-1,6.29,40c2,12.87-3.09,24.89-20.28,27.66-17,2.75-25.65-7.08-27.66-19.93Z" transform="translate(0.93)" fill="#424649"/><path d="M182.75,254.66c14,0,21.67,11.3,21.65,24.68S196.73,304,182.69,304,161,292.66,161,279.28,168.72,254.64,182.75,254.66Zm-.06,48c12.65,0,20.18-9.79,20.4-23.3-.18-13.51-7.68-23.34-20.33-23.36s-20.18,9.79-20.4,23.3C162.54,292.79,170,302.62,182.69,302.64Z" transform="translate(0.93)" fill="#43474a"/><path d="M238.77,301.59v1.32l-28.8,0,.06-47.06h1.32l-.06,45.74Z" transform="translate(0.93)" fill="#0c829a"/><path d="M274.95,255.9h1.32l0,29.53c0,12.59-6.15,18.64-17.29,18.63s-17.26-6.09-17.24-18.67l0-29.53H243l0,29.53c0,11.27,5.12,17.34,15.93,17.35s16-6,16-17.31Z" transform="translate(0.93)" fill="#eb713c"/><path d="M278.7,257.22V255.9l35.19,0v1.32l-16.94,0L296.9,303h-1.32l.06-45.74Z" transform="translate(0.93)" fill="#f0b533"/><path d="M316.33,256h1.32L317.59,303h-1.32Z" transform="translate(0.93)" fill="#585757"/><path d="M345,254.87c14,0,21.67,11.3,21.65,24.68s-7.68,24.64-21.72,24.62-21.67-11.3-21.65-24.68S331,254.85,345,254.87Zm-.06,48c12.65,0,20.18-9.79,20.4-23.3-.18-13.51-7.68-23.34-20.33-23.36s-20.18,9.79-20.4,23.3C324.78,293,332.22,302.83,344.94,302.85Z" transform="translate(0.93)" fill="#3ea1a1"/><path d="M372.28,256h2l32.1,45.45h.13l.06-45.41h1.32l-.06,47.06h-2l-32.1-45.45h-.13l-.06,45.41h-1.32Z" transform="translate(0.93)" fill="#eb713c"/><path d="M448.33,267.26c-.34-10.19-7.17-13.75-16.17-13.77-7,0-15.63,2.49-15.64,11.42S425.15,275,433.66,277c9.28,2.46,17,3.51,17,13.91,0,9.42-9,13.38-17.6,13.37-11.37,0-19.67-5.19-19.44-17.75H415c0,11.93,7.44,16.34,18,16.35,7.81,0,16.19-3.4,16.2-12,0-10-9.75-10.9-17.43-12.79-8.09-1.82-16.74-3.37-16.73-13.14s9-12.83,17-12.82c9.77,0,17,4,17.56,15.16Z" transform="translate(0.93)" fill="#f0b533"/><path d="M128.24,257l9.35-1.51c1.64-.26,3.16-.6,4.61-1a28.63,28.63,0,0,0-3.23-.18C135.35,254.36,131.27,255.06,128.24,257Z" transform="translate(0.93)" fill="none"/><path d="M164.76,224.32c-3.26-20.65-14.52-29.24-33.25-26.67l-21.32,3.44L120,263.56l2.58-.42a10.44,10.44,0,0,1,2.85-5.67l-.35.06-8.22-52.31,12.52-2c17.71-2.86,26.56,3.34,29.51,22.06,2.47,15.76-1.79,24.38-13.75,28.42q-1.4.47-2.93.86c-1.45.37-3,.7-4.61,1L128.24,257a9.37,9.37,0,0,0-4.23,5.89l17.31-2.8a41.43,41.43,0,0,0,8.84-2.62c.47-.2.92-.42,1.36-.64C162.76,251.39,167.32,240.67,164.76,224.32Z" transform="translate(0.93)" fill="#424649"/><path d="M154.74,267.79h1.36c-.25-5.05-1.91-8.58-4.57-10.93-.45.22-.89.43-1.36.64C152.88,259.62,154.58,262.92,154.74,267.79Z" transform="translate(0.93)" fill="#e7422b"/><path d="M140.43,277.3c-8.3-2-16.73-3-16.72-11.79a11.44,11.44,0,0,1,.3-2.59,9.37,9.37,0,0,1,4.23-5.89c3-2,7.11-2.66,10.73-2.66a28.63,28.63,0,0,1,3.23.18q1.54-.39,2.93-.86A26.43,26.43,0,0,0,139,253c-5,0-10.3,1.17-13.55,4.47a10.44,10.44,0,0,0-2.85,5.67,13.61,13.61,0,0,0-.22,2.36c0,9.53,8.42,11,16.31,12.81,7.48,1.85,17,2.68,17,12.47,0,8.44-8.18,11.76-15.8,11.75-10.34,0-17.62-4.31-17.6-15.95h-1.36c-.22,12.25,7.87,17.29,19,17.31,8.37,0,17.15-3.86,17.16-13C157,280.72,149.48,279.69,140.43,277.3Z" transform="translate(0.93)" fill="#e7422b"/><polyline points="929.18 0.68 929.18 347.93 1.74 347.93 1.74 0.68" fill="none"/><rect x="446.5" y="324.04" width="482.91" height="50.96" fill="#f5f5f5"/><polygon points="758.87 345.28 766.98 375 779.49 375 769.86 345.28 758.87 345.28" opacity="0.15" fill="url(#linear-gradient)"/><polygon points="705.57 348.37 706.36 375 732.2 375 727.62 348.18 725.17 340.57 717.73 337.88 705.57 348.37" opacity="0.15" fill="url(#linear-gradient-2)"/><polygon points="633.59 349.8 628.14 375 678.88 375 679.52 348.18 662.94 347.4 651.01 343.45 633.59 349.8" opacity="0.15" fill="url(#linear-gradient-3)"/><polygon points="581.08 342.51 567.7 375 616.26 375 622.64 348.37 602.14 340.99 590.56 343.45 581.08 342.51" opacity="0.15" fill="url(#linear-gradient-4)"/><polygon points="493.86 375 513.72 375 530.38 347.18 516.04 341.74 493.86 375" opacity="0.2" fill="url(#linear-gradient-5)"/><polygon points="446.5 375 484.42 375 503.75 346.15 463.93 341.74 446.5 362.39 446.5 375" opacity="0.2" fill="url(#linear-gradient-6)"/><polygon points="788.49 346.76 799.21 375 811.15 375 797.52 342.51 788.49 346.76" opacity="0.15" fill="url(#linear-gradient-7)"/><polygon points="834.47 349.14 850.91 375 876.52 375 855.5 343.12 834.47 349.14" opacity="0.15" fill="url(#linear-gradient-8)"/><polygon points="864.49 346.76 885.96 375 897.9 375 873.52 342.51 864.49 346.76" opacity="0.15" fill="url(#linear-gradient-9)"/><polygon points="662.81 346.76 661.44 375 679.04 375 679.52 348.18 662.81 346.76" opacity="0.15" fill="url(#linear-gradient-10)"/><polygon points="587.56 344.74 577.09 375 596.09 375 605.67 346.15 587.56 344.74" opacity="0.15" fill="url(#linear-gradient-11)"/><polygon points="707.73 347.61 709.08 375 723.48 374.87 718.88 338.3 707.73 347.61" opacity="0.15" fill="url(#linear-gradient-12)"/><polygon points="633.59 349.8 628.57 375 647.85 375 650.97 343.92 633.59 349.8" opacity="0.15" fill="url(#linear-gradient-13)"/><polygon points="758.87 345.28 766.98 375 811.84 375 798.11 343.92 758.87 345.28" opacity="0.15" fill="url(#linear-gradient-14)"/><polygon points="834.47 349.14 850.91 375 929.42 375 900.87 346.43 855.5 346.3 834.47 349.14" opacity="0.15" fill="url(#linear-gradient-15)"/><path d="M601.17,140.41s-2.11,10.72-5,14.74c-1.14,1.61-2.9.55-2.93,1.07s12.91,10.66,13.94,10.66,7.72-5.56,6.83-6.32c-2.9-2.48-.75-8.08-.75-8.08s-4.63,2.38-3-3.52S601.17,140.41,601.17,140.41Z" transform="translate(0.93)" fill="#f8c5b0"/><path d="M620.79,138.7a10.18,10.18,0,0,0-19.33-6.36c-1.76,5.34-7.74,13.75,4.83,17.89S619,144,620.79,138.7Z" transform="translate(0.93)" fill="#f8c5b0"/><path d="M619.83,141.92c-.53.64-2.1.84-2.32,1.55s-1.13,3.77-1.84,5.53c-3.18,1.23-6.85,1.7-8.1,1.33s-6.6-4.19-7.51-5.93c.42-2.69,1.22-4.8,1.4-5.94.11-.73-1.24-2.18-1.28-3l-2.68,8.59,9.16,9.82L617,150.75Z" transform="translate(0.93)" fill="#2a0d0e"/><path d="M615.25,122.74s-.47,4.84-1.67,5.3c-.52.2-8.22-.17-8.22-.17l-2,4.48a15.21,15.21,0,0,0-3,4.39c-.08.22-.13-1.14-.21-.9-.56-2.79.48-13.33.48-13.33S611.42,116.68,615.25,122.74Z" transform="translate(0.93)" fill="#2a0d0e"/><path d="M618.86,130.86s2.53,4.17.77,6.56c-.69,2.66-1.68,6.37.14,4.86,1.62-1.61,6.58-13.57,6.58-13.57s-3.32-4.27-5.19-3.57C619.94,125.61,618.86,130.86,618.86,130.86Z" transform="translate(0.93)" fill="#2a0d0e"/><polygon points="624.02 123.82 609.59 118.78 608.05 129.17 621.05 130.43 624.02 123.82" fill="#2a0d0e"/><path d="M609.32,145.4s2.67.61,3.39.81,1.49,1.84.23,4.23c-.17-1.61-.24-2.78-.72-3-.22-.09-2.68-.59-3.11-.73S608.92,145.46,609.32,145.4Z" transform="translate(0.93)" fill="#2a0d0e"/><path d="M608.29,145.06s-2.51-1.09-3.21-1.36-2.3.6-2.7,3.27c1.1-1.2,1.84-2.09,2.34-2,.23.06,2.5,1.12,2.94,1.26S608.58,145.34,608.29,145.06Z" transform="translate(0.93)" fill="#2a0d0e"/><path d="M609.56,158.91s-1.28-9.25-1.5-9.83,2.92-3.06,3.77-3.28,4.1,2,4.68,2.95.58,3.92.58,3.92c-1-.25-2.17-2.84-2.25-3.17s-1.25-.5-1.92-.58,3,6.17,1,12Z" transform="translate(0.93)" fill="#f8bd9f"/><path d="M696.86,145.31s-7.76-2-7.74,8.73,2,12.85,7.47,18.1c-3.4-10.93,3.14-2.92,3.14-2.92Z" transform="translate(0.93)" fill="#eb6749"/><path d="M696.86,145.31s-7.76-2-7.74,8.73,2,12.85,7.47,18.1c-3.4-10.93,3.14-2.92,3.14-2.92Z" transform="translate(0.93)" opacity="0.1"/><path d="M853.18,247.7l2.12,0,21.13,1.43.88,6.91s-18.81-4.68-21.67-4.72-3-.19-3-.19Z" transform="translate(0.93)" fill="#fbcfa9"/><rect x="776.83" y="295.97" width="2.62" height="45.02" fill="#adaba8"/><rect x="765.62" y="294.48" width="25.03" height="2.97" fill="#48546a"/><rect x="775.61" y="298.55" width="5.06" height="10.9" fill="#48546a"/><rect x="775.61" y="328.62" width="5.06" height="11.72" fill="#48546a"/><rect x="776.22" y="322.06" width="3.82" height="8.34" fill="#48546a"/><rect x="777.13" y="339.56" width="2.02" height="4.37" fill="#333745"/><polygon points="795.67 343.43 778.14 341.44 760.6 343.43 760.6 342.25 778.14 339.46 795.67 342.25 795.67 343.43" fill="#333745"/><rect x="778.14" y="328.62" width="2.53" height="11.72" fill="#333745"/><rect x="778.14" y="298.55" width="2.53" height="10.9" fill="#333745"/><path d="M878.24,223.44l15.24-9.3s-4.15-3-7.79-13.42c-1.68-4.78-12.22,2.31-9.37,8.41A25.24,25.24,0,0,1,878.24,223.44Z" transform="translate(0.93)" fill="#fbcfa9"/><path d="M862.87,198.73c.67,2.2.1,4.5,1.88,4.88.43,2.47-.22,4.29.16,4.78s1.72-.33,2.11-.13c.65.32.88,1.48,1.13,2,.09.2.17.53.27.76a14.89,14.89,0,0,1,1.46,2.6c3,.26,6.67-1.63,9.89-4.36.51-.43-.63-2.55-.15-3,3.07-3,7.14-5,7.73-7.92,1.61-8-3.75-14.44-10.22-15S859.66,188.22,862.87,198.73Z" transform="translate(0.93)" fill="#fbcfa9"/><path d="M799.73,264.52a1.92,1.92,0,0,1-1.77,2H756.53a1.92,1.92,0,0,1-1.77-2v-41.7a1.92,1.92,0,0,1,1.77-2H798a1.92,1.92,0,0,1,1.77,2Z" transform="translate(0.93)" fill="#263369"/><path d="M797.19,217.49c-3.34-1.08-13.21-6.25-13.21-6.25L777.62,216l-1.08.91v.19l-1.07-1.1-6-4.73s-11.92,3.65-15.26,4.73c-.32,2,3.84,26.11,5.71,42.12-.52,11.58.31,12,.31,12l32.42-.43s1.2-2.46-.68-12C792.87,241.43,797.49,219.4,797.19,217.49Z" transform="translate(0.93)" fill="#f1ad2c"/><polygon points="771.45 207.1 765.95 208.15 765.54 213.73 771.44 211.72 771.45 207.1" fill="#da9a41"/><polygon points="603.02 332.37 602.14 340.99 623.09 349.52 611.8 337.34 608.52 327.79 603.02 332.37" fill="#8f847f"/><polygon points="586.16 329.8 585.22 341.77 605.12 343.63 593.12 336.91 591.37 325.75 586.16 329.8" fill="#8f847f"/><path d="M717.41,243c-1.51,5.86-2.17,14.66-3.69,21.21-1.31,5.67-7.07,24.13-7.07,24.13s3.28,6.79,6.86,12.9c.76,1.3,2,4.3,2,4.3s-1.77,20,4.58,31a25.56,25.56,0,0,1-5.43,4.36s-10.34-43.07-17.38-52.23c.21-6,4.18-53,4.18-53S715.75,235.73,717.41,243Z" transform="translate(0.93)" fill="#007287"/><path d="M709.81,332.63a17.28,17.28,0,0,1-5.17,15.74c7.52-2,15-10.86,14.57-13.49-.66-4.51-1.38-5.3-1.38-5.3Z" transform="translate(0.93)" fill="#eb6749"/><path d="M715,335.26l3.39,9.39,2.26-.61s-.82-8.59-3.16-12.6C715,331.53,715,335.26,715,335.26Z" transform="translate(0.93)" fill="#eb6749"/><path d="M715.73,233.42s-.48,28.82,3.06,55.53c.32,4,.85,36.23,1.47,51.62,3.31.89,4.91-.5,4.91-.5s-.05-.7.24-8.94c.28-7.78,4.2-22.08,4.2-22.08a35.57,35.57,0,0,0-.67-4.56c-2.2-8.28-1.68-12.9-1.54-14s7.18-47.82,7.18-47.82l-4.76-14.12Z" transform="translate(0.93)" fill="#058098"/><polygon points="702.38 237.54 717.2 251.15 729.14 230.28 714.25 233.46 702.38 237.54" fill="#058098"/><path d="M692.93,180.58s-4,30.72-5.44,33.62c-2.17.72-17.58,3.56-19.76,4a5.88,5.88,0,0,0,1.12,3.34c.75,1.46,21.43-3.34,21.43-3.34l2.56-1.48s5.88-27,5.82-36.14C697.11,180.68,692.93,180.58,692.93,180.58Z" transform="translate(0.93)" fill="#f8c5b0"/><path d="M701.13,144s17.82-3.72,13.12,27.73c-2-3.93-6.2-4.32-6.48-2.47C706.82,166.22,701.13,144,701.13,144Z" transform="translate(0.93)" fill="#eb6749"/><path d="M700.94,170.16s1.94,4.55.37,11.31c2.7,1.65,3.5,11.93,5,11.15S715,179.11,715,179.11s-6.76-12.94-9.24-14.88S700.12,166.73,700.94,170.16Z" transform="translate(0.93)" fill="#f8c5b0"/><path d="M677.71,292.2a2.14,2.14,0,0,1-2,2.28H629.6a2.14,2.14,0,0,1-2-2.28v-1a2.14,2.14,0,0,1,2-2.28h46.14a2.14,2.14,0,0,1,2,2.28Z" transform="translate(0.93)" fill="#263369"/><path d="M675.44,264.52a1.92,1.92,0,0,1-1.77,2H632.24a1.92,1.92,0,0,1-1.77-2v-41.7a1.92,1.92,0,0,1,1.77-2h41.43a1.92,1.92,0,0,1,1.77,2Z" transform="translate(0.93)" fill="#263369"/><path d="M574.56,156.53s4.21-.93,4-4.09c4.55,1.12,13.23.05,18.8,1.4,2.73,7,10.49,11.46,10.49,11.46s7-7.26,9.66-6.77c6.37,1.16,4.68.84,6.32,1.16-1.2,18.9-14,34.89-10.4,42.57l5.11,11-39.83,7.06,1.54-23.44Z" transform="translate(0.93)" fill="#eb671b"/><path d="M575.21,156.63s4.28,34.4,5,40.24-1.54,23.44-1.54,23.44l39.54-6.85s-7.91-8.25-11.13-13.16S576.32,171.38,575.21,156.63Z" transform="translate(0.93)" opacity="0.1"/><path d="M668.39,269.67s3.73,2.19,4,10.78c.26,7.58,3.33,11.86-21,11.18-8.74,0-4.19,0-6.83,0-6,0-12.11-2.05-11.28-5,3.8-13.46,2.49-17,2.49-17Z" transform="translate(0.93)" fill="#db5a41"/><path d="M659.69,211.24s11.29,3.45,14.63,4.53c.51,3.24-7.32,56.5-7.32,56.5l-14.42,1.19-.33-56.58,1.08-.91Z" transform="translate(0.93)" fill="#97cdd3"/><path d="M645.24,211.24S633.32,214.89,630,216c-.51,3.24,8.54,56.36,8.54,56.36l14.3,1.13-.15-56L651.22,216Z" transform="translate(0.93)" fill="#97cdd3"/><polygon points="630.91 215.49 621.74 251.16 624.63 254.27 643.94 258.09 643.29 254.63 630.89 248.45 636.15 229.32 630.91 215.49" fill="#8f847f"/><polygon points="646.71 202.02 645.79 210.89 652.15 215.97 654.27 215.97 660.63 210.89 658.89 202.02 646.71 202.02" fill="#f4beaa"/><path d="M578.13,202.47s-14.94-2.47-23.23-6.7c-1.07,3.12-4.17,12.72-4.05,18.35,4.39,1.84,14.16,1.73,24.69,0C575,211.73,574.82,206.16,578.13,202.47Z" transform="translate(0.93)" fill="#f1e6c2"/><polygon points="619.47 213.24 616.08 288.62 611.8 337.34 601.06 336.65 602.48 287.83 599.68 242.91 619.47 213.24" fill="#60767f"/><path d="M588.29,205.91S575.93,208,574.11,208s-6.28-2.95-7.35-3.64c1.28-3,4.91-3.17,4.91-3.17l6.46,1.29a28.16,28.16,0,0,1,9-2.17C591.68,200.11,588.29,205.91,588.29,205.91Z" transform="translate(0.93)" fill="#f8bd9f"/><path d="M578.56,152.44l-4.46,3.48,6.27,22.4,4.94,19s2.47,1.72,5.22,3.7c1.08-.74,4.46.49,6.24-2.48,6.33-10.57,16.55-31.46,18.89-38.33a18.81,18.81,0,0,0-6.16-2.53s-14.58,28.13-16,30.44c-.13-1.49-2.33-14.13-2.33-14.13l-4.77-12Z" transform="translate(0.93)" fill="#f18a49"/><path d="M629.13,163.59l-5.25-3.89-5.6,18.8-3.93,13.75s-24,7.57-27.21,8.05,0,5.9,0,5.9,33.13-3.81,34.31-4.46S629.13,163.59,629.13,163.59Z" transform="translate(0.93)" fill="#f18a49"/><path d="M578.71,220.3s3,65,4.85,67.5c.47,2.54-1.07,47.84-1.07,47.84l10,.69,7.66-49.76,1.34-44.93Z" transform="translate(0.93)" fill="#728592"/><polygon points="619.47 213.24 579.64 220.3 596.16 262.24 602.75 240.46 619.47 213.24" fill="#728592"/><polygon points="613.03 192.23 615.45 195.09 614.03 191.92 617.88 196.45 615.7 191.48 617.86 192.24 615.7 189.93 613.03 192.23" fill="#eb671b"/><polygon points="594.19 185 592.51 187.56 594.3 185.83 594.32 186.6 593.91 192.86 595.07 186.66 596.87 189.41 595.56 185.85 594.19 185" fill="#eb671b"/><path d="M643.15,194s-3.32-1.47-2.62,1.68,2.86,3.41,2.86,3.41Z" transform="translate(0.93)" fill="#f8c5b0"/><path d="M662.62,194.15c0-5.25-4.6-9.51-10.27-9.51s-10.27,4.26-10.27,9.51c0,3,1.92,8.17,1.92,8.17l5.72,5.83h5.45l5.48-5.83S662.62,197.45,662.62,194.15Z" transform="translate(0.93)" fill="#f8c5b0"/><path d="M644.82,188.67c-.1,2.25-2.29,2.06-1.35,4.7-.52.79-.52,2.73-1.17,2.67,0-3.15-1-3.59-1.29-11.7C644.79,181.77,645,183.67,644.82,188.67Z" transform="translate(0.93)" fill="#2a0d0e"/><path d="M660.3,182c-3.91-2.52-12-2.28-14.75-.66-6.81,4.1-1.3,7.53,2.79,8,4.25.46,13.33,1,13.86-3.91C662.55,182.19,661.36,182.67,660.3,182Z" transform="translate(0.93)" fill="#2a0d0e"/><path d="M642.6,184.33s-1.05-.82-1-1.5c.35.15,1.35.28,1.49.11a1.49,1.49,0,0,0-.46-1.88,2.2,2.2,0,0,1,1.4.63c-.31-.77-.54-1.79-.26-2.1a3.25,3.25,0,0,0,1.51,1.12,1.27,1.27,0,0,0-.47-1.12c.45.15,1.39.22,1.77.85.07-.85.11-1.71.59-2,.12.72.07,1.05.71,1.38s-.22-1.58.41-2.1c.31.82.91,1.69,1.51,1.84a1.79,1.79,0,0,0-.63-1.46,1.83,1.83,0,0,1,1.8,1.34c0-1.08-.44-1.69.76-2.39a2.82,2.82,0,0,0,.72,2.19c.22-.7.41-.93-.25-1.61a1.7,1.7,0,0,1,1.7,1.61c.22-1.14,1.07-1.31.72-2.19a3.24,3.24,0,0,1,.72,2.1c.66-.53.41-1.2,1.64-1.55a2.17,2.17,0,0,0,0,1.61c.38-.15,1-.85,1.83-.65-.38.38-.91.85-.16,1.55.39-.29.82-.5.82-1,.41.47,1,.3.54,1.58.82-.06,2.08-.09,2.58.38-1.2.17-1.61.78-1.61,1,1.26-.18,1.86,0,2,.25a23.5,23.5,0,0,1-3.89.7Z" transform="translate(0.93)" fill="#2a0d0e"/><path d="M661.39,194s3.32-1.47,2.62,1.68-2.86,3.41-2.86,3.41Z" transform="translate(0.93)" fill="#f8c5b0"/><path d="M659.76,188.67c.1,2.25,2.29,2.06,1.35,4.7.52.79.52,2.73,1.17,2.67,0-3.15,1-3.59,1.29-11.7C659.8,181.77,659.54,183.67,659.76,188.67Z" transform="translate(0.93)" fill="#2a0d0e"/><polygon points="654.27 215.97 661.33 207.31 662.48 210.53 659.28 220.72 654.27 215.97" fill="#5eb4aa"/><rect x="653.19" y="215.97" width="1.08" height="35.22" fill="#5eb4aa"/><polygon points="652.15 215.97 645.08 207.31 643.94 210.53 647.14 220.72 652.15 215.97" fill="#5eb4aa"/><rect x="652.15" y="215.97" width="1.08" height="35.22" fill="#5eb4aa"/><polygon points="641.74 212.3 653.75 257.2 653.73 274.86 636.88 272.34 630.91 215.42 641.74 212.3" fill="#8f847f"/><polygon points="665.25 212.3 653.75 257.2 653.73 274.86 671.57 273.46 675.5 215.42 665.25 212.3" fill="#8f847f"/><polygon points="636.74 271.93 653.73 274.86 671.57 273.46 672.95 261.79 635.71 261.79 636.74 271.93" fill="#867568"/><polygon points="630.91 215.49 636.06 265.12 637.6 236.79 630.91 215.49" fill="#867568"/><polygon points="675.48 215.49 689.21 242.76 688.25 247.1 667.32 257.15 663.1 251.2 680.03 242.79 673.54 231.38 675.48 215.49" fill="#8f847f"/><polygon points="674.22 232.57 679.91 242.58 682.75 242.35 674.22 230.28 674.22 232.57" fill="#867568"/><circle cx="653.52" cy="244.22" r="1.95" fill="#d1d6d6"/><path d="M661.27,269.11l8.47-3.34,4.58,1.59,3.78,7.85s-14,36.19-26.59,60.18c-2.55,3.31-7.5,2.66-8.62,1.74,1.93-4.48,6.95-13.58,8.19-26.19C652,301.7,661.27,269.11,661.27,269.11Z" transform="translate(0.93)" fill="#e56557"/><polygon points="655.3 333.88 650.97 343.92 633.08 349.98 641.86 340.85 645.04 329.8 655.3 333.88" fill="#8f847f"/><polygon points="642.52 326.19 659.65 329.65 656.24 336.02 642.09 331.06 642.52 326.19" fill="#867568"/><path d="M643.54,273.1l-8.4-3.12-4.43,1.91-3.07,8.1s17.18,35.07,31.83,58.1c2.83,3.12,7.72,2.12,8.74,1.12-2.32-4.33-8.13-13-10.48-25.52C656,304.52,643.54,273.1,643.54,273.1Z" transform="translate(0.93)" fill="#ed7264"/><polygon points="658.62 336.87 662.94 347.4 679.04 348.2 671.15 341.23 666.72 331.72 658.62 336.87" fill="#8f847f"/><polygon points="636.82 346.09 633.08 349.98 650.97 343.93 655.3 333.88 654.34 333.5 650.97 341.31 636.82 346.09" opacity="0.1"/><polygon points="662.94 344.79 659.47 336.33 658.62 336.87 662.94 347.41 679.04 348.2 675.9 345.43 662.94 344.79" opacity="0.1"/><polygon points="656.09 332.9 667.83 328.46 670.23 334.48 657.18 339.31 656.09 332.9" fill="#867568"/><polygon points="665.5 329.33 660.82 331.1 664.6 327.24 665.5 329.33" fill="#f1f1f1"/><polygon points="645.93 326.88 652.14 328.13 647.09 325.44 645.93 326.88" fill="#f1f1f1"/><polygon points="642.71 212.3 646.08 220.04 647.14 220.72 644.39 211.97 642.71 212.3" fill="#88bfc1"/><polygon points="652.15 215.97 646.08 220.04 646.67 221.77 652.15 217.49 652.15 215.97" fill="#88bfc1"/><polygon points="654.27 215.97 659.28 220.72 654.27 219 654.27 217.49 654.27 215.97" fill="#88bfc1"/><polygon points="662.63 196.46 657 205.94 661.29 201.6 662.63 196.46" fill="#f4beaa"/><polygon points="643.67 196.46 649.29 205.94 645.01 201.6 643.67 196.46" fill="#f4beaa"/><path d="M802,292.2a2.14,2.14,0,0,1-2,2.28H753.89a2.14,2.14,0,0,1-2-2.28v-1a2.14,2.14,0,0,1,2-2.28H800a2.14,2.14,0,0,1,2,2.28Z" transform="translate(0.93)" fill="#263369"/><path d="M793.46,267.52a8.11,8.11,0,0,0,.43,3.86c.78,2.16,2.66,4.7,2.81,9.07.35,10.14-4.12,11.65-21,11.18-8.74,0-4.19,0-6.83,0-6,0-10.78-2-11.28-5-1.21-7.19,1.12-12.69,2-15.79.72-2.55-.07-3.33-.07-3.33Z" transform="translate(0.93)" fill="#0696ad"/><polygon points="755.17 215.97 746.03 251.16 747.78 254.62 753.98 254.62 755.18 248.45 757.47 235.02 755.17 215.97" fill="#f2ba54"/><path d="M693.53,159.19s-3.34-1.08-1.95,2.43S695,165,695,165Z" transform="translate(0.93)" fill="#f8c5b0"/><path d="M710.31,155.05c-1.27-6.08-6.23-10.18-11.09-9.17s-7.76,6.76-6.5,12.84c.73,3.52,1.61,6.22,2.8,8s6.94,6.87,9.37,6.36c2.84-.59,5.6-7.79,6-9.57S711.1,158.87,710.31,155.05Z" transform="translate(0.93)" fill="#f8c5b0"/><path d="M709.94,156.08s2.64-2.32,2.76,1.45-1.75,4.48-1.75,4.48Z" transform="translate(0.93)" fill="#f8c5b0"/><path d="M699.39,148.31a4.24,4.24,0,0,1,.13-3.48c1-1.47,7-1.74,9.56,2.09s2.16,9.52,2.3,11.73c-2.11-3.53-5.5-8.31-7.39-9.26A13.78,13.78,0,0,0,699.39,148.31Z" transform="translate(0.93)" fill="#eb6749"/><path d="M700.11,145.34s-2.4-3.39-6.1.13-3.79,10.19-.38,18.29c-.91-7.93,2.06-12.77,6.34-14.72C701.61,148.28,700.11,145.34,700.11,145.34Z" transform="translate(0.93)" fill="#eb6749"/><path d="M692.93,180.58s3.4-.38,8-1a72.59,72.59,0,0,1,5.3,10.9s6.49-8.31,8.16-12.91a61.29,61.29,0,0,0,9-2.07c2.07,3.82,2.55,20.39,2.55,20.39s-.36,16.21-1,20.17c1.66,4,3.35,9.28,9.14,16.9-1.62.94-19.36,5.66-35.34,5.48,3.31-4.8,5-11.48,8.33-21C703.34,194,699,195.42,692.93,180.58Z" transform="translate(0.93)" fill="#f1e6c2"/><path d="M697.27,186.73s-.2,11.71-1.31,14.33c5.17,3.77,9,2.33,10.76,6.26S700.44,186.84,697.27,186.73Z" transform="translate(0.93)" fill="#f1e6c2"/><path d="M723.38,175.5S741.1,198.78,742.21,201s-10,23.23-11.34,27.09a3.73,3.73,0,0,1-1.49-3.41s6.48-19.82,6.21-21.36-7.94-11.69-10.94-14.68S721.79,176.15,723.38,175.5Z" transform="translate(0.93)" fill="#f8c5b0"/><polygon points="707.64 216.43 726.36 213.96 726.49 216.14 707.8 218.77 707.64 216.43" fill="#90cbbd"/><path d="M696,201.06s8.28,1.06,13.25.14,7.47-1.33,7.47-1.33l6,14.54-15.57,2s-1.27-7.88-2.26-11.31C702.93,203.9,699.73,204.21,696,201.06Z" transform="translate(0.93)" opacity="0.1"/><path d="M720.64,344a56.58,56.58,0,0,0-1.51-8.35,2.12,2.12,0,0,0,.07-.8c-.66-4.51-1.38-5.3-1.38-5.3l-8,3a17.28,17.28,0,0,1-5.17,15.74c4.65-1.26,9.27-5.12,12-8.5l1.72,4.77Z" transform="translate(0.93)" opacity="0.1"/><path d="M719.22,334.33a17.28,17.28,0,0,1-9.11,13.84c7.79,0,17.56-4.91,17.2-9.45s-1.36-5.35-1.36-5.35Z" transform="translate(0.93)" fill="#eb6749"/><path d="M723.54,338.23l.81,9.95h2.34s1.46-8.5.25-13C724.52,334.63,723.54,338.23,723.54,338.23Z" transform="translate(0.93)" fill="#eb6749"/><path d="M718.4,331.45s7.18.91,10.2,0a27.53,27.53,0,0,1,0,3.75l-10.2.08Z" transform="translate(0.93)" fill="#f1e6c2"/><path d="M707.65,330.06s7.16-1,9.85-2.67a27.63,27.63,0,0,1,1,3.62l-9.83,2.75Z" transform="translate(0.93)" fill="#f1e6c2"/><polygon points="763.62 213.73 762.06 216.66 763.31 218.13 778.47 223.41 763.62 213.73" fill="#da9a41"/><polygon points="778.71 234.19 777.15 237.12 770.7 237.66 780.63 223.19 778.71 234.19" fill="#da9a41"/><path d="M728.43,224.22s-4.64-1.58-5.59-1.18-3.75,2-3.94,2.49.86,1.81,1.5,1.65c.84-.21,3.52-.85,4.24-1s3.56,3,5.15,2.83C732.38,228.75,729.83,224.27,728.43,224.22Z" transform="translate(0.93)" fill="#f8c5b0"/><path d="M728.1,225.18a11.41,11.41,0,0,0-2.22-2.21c-1.2-.83-.51-1.42.19-1.07.87.44,1.64,1.67,3.43,2.22C730.86,224.53,728.66,225.27,728.1,225.18Z" transform="translate(0.93)" fill="#f8c5b0"/><path d="M720.55,216.85s-4.73,16.31-8.66,20.82c-5.68.54-11.47.87-13.13.78,1.73-2.86,5.56-12.74,8.11-19.68Z" transform="translate(0.93)" opacity="0.1"/><path d="M711.07,168.57s5.62,2.48,3.42,13.61-.35,13.27.51,13.86c-.38-2.86,5.65-11.35,5.69-14.22.15-10.51-8-8-7-19.78C714.06,158.11,710.68,167.13,711.07,168.57Z" transform="translate(0.93)" fill="#eb6749"/><path d="M716,181.79c2.21-11.13-3.42-13.61-3.42-13.61h0a2.86,2.86,0,0,0-2.95,0,4.42,4.42,0,0,1,1.4.38h0s5.62,2.48,3.42,13.61-.35,13.27.51,13.86a5.17,5.17,0,0,1,.4-2.18C714.84,192.09,714.66,188.64,716,181.79Z" transform="translate(0.93)" opacity="0.1"/><polygon points="783.49 205.79 771.31 205.79 770.63 212 766.6 213.35 769.65 216.37 770.13 216.54 770.1 216.78 774.46 220.62 778.47 223.41 786.55 218.13 783.49 205.79" fill="#fcdfc4"/><rect x="760.08" y="268.01" width="34.75" height="2.84" fill="#745b44"/><path d="M779.19,281.59l6.49-6.39,4.84-.34,6.56,5.74s-1.59,29.7-2.16,62.85c-1,4-5.26.68-6.65.26,0-4.88.14-7.38-1.41-21.17C785.59,311.29,779.19,281.59,779.19,281.59Z" transform="translate(0.93)" fill="#09adbf"/><polygon points="797.27 336.13 797.63 345.54 793.06 349.14 788.49 346.76 787.92 336.48 797.27 336.13" fill="#8f847f"/><path d="M774.94,277.43l-6.77-4.9-4.81-.26-6.2,4.46s3.46,38.83,2.69,66.19c1.15,4.05,6.1,1.68,7.46,1.24-.16-4.91.26-12.6,1.85-25.2C771.53,300.07,774.94,277.43,774.94,277.43Z" transform="translate(0.93)" fill="#09adbf"/><polygon points="759.88 336.82 758.87 345.28 764.36 348.27 769.86 345.28 769.12 336.25 759.88 336.82" fill="#8f847f"/><path d="M777.54,223.42s-7.79-6.84-11.18-10.93c-2.73-3.29,1.45-4.48,2.26-4.53.1-.93.17-1.62.17-1.62l-4.52.06-3.65,4.14.27,4.37Z" transform="translate(0.93)" fill="#eacc40"/><polygon points="784.73 207.1 790.23 208.15 790.63 213.73 784.74 211.72 784.73 207.1" fill="#da9a41"/><path d="M777.54,223.42a80.66,80.66,0,0,0,9.21-8.81c2.73-3.29-.24-6.6-1-6.65-.1-.93-.17-1.62-.17-1.62l3.77,1.82,3.53,4-1.06,2.74Z" transform="translate(0.93)" fill="#eacc40"/><path d="M865.73,346.4a10.71,10.71,0,0,0,6.5-1.68c2.46-1.62,2.58-5.23,5.33-10.7,3-6-7.95-6.47-7.95-6.47l-1.14,4.11s2.31,4.88.24,8.84c-1.71,3.27-7.49,4.67-6.65,5.4S865.73,346.4,865.73,346.4Z" transform="translate(0.93)" fill="#09adbf"/><path d="M872.22,342.28c2.32-1.82,2.58-5.23,5.33-10.7a6,6,0,0,0,.28-.64,3.47,3.47,0,0,1-.28,3.08c-2.75,5.47-2.87,9.08-5.33,10.7a10.72,10.72,0,0,1-6.5,1.68s-2.84.23-3.68-.5a.2.2,0,0,1,0-.28C863,346.17,867.78,345.76,872.22,342.28Z" transform="translate(0.93)" fill="#0696ad"/><path d="M832.63,278.92s33.54,50.13,36,56.14c.88.3,5.46-5.25,5.53-6.71-.52-1.22-4.09-.1-12.69-22.72-5.31-14-9-24.73-16.85-32.7-1.31,0-1.94-3.76-6.72-2.8A26.82,26.82,0,0,0,832.63,278.92Z" transform="translate(0.93)" fill="#604332"/><path d="M850.11,279.25s37.5,11.32,44.23,7.79c6.55-3.44,7.81-15.89,7.81-15.89l-16.72-4.28-47.58,3.27Z" transform="translate(0.93)" fill="#604332"/><path d="M851,250.34l3.55-1.16c-.51.08-2.65,2.88-4.41,3.52-.9.33-3.87.58-5,.86-1.88.46-3.73,1.47-3.88.61s1.09-1.54,1.89-1.74c1.43-.36-.25-1-1.72-1.26C843,251,848.67,250.15,851,250.34Z" transform="translate(0.93)" fill="#f4b4aa"/><path d="M844.72,248.3a100.81,100.81,0,0,1,10.58-.64c2.72,1.34,5.35,2.09,3,2.4a38.21,38.21,0,0,0-7,1.54c-1.73.66-6.32-.26-6.66-.27a24.19,24.19,0,0,0-4.16.42c-2.42.86-4.42,2.53-5.25,2.45a27.15,27.15,0,0,1,3-3.24C840.84,249.75,842.69,249.51,844.72,248.3Z" transform="translate(0.93)" fill="#fbcfa9"/><path d="M833.85,349.31s15.49-.42,18.74-1.74c4.85-2,4-8.18,4-8.18l-6.21-2.46a10.89,10.89,0,0,1-4.25,4.9c-4,2.5-7.8,3.37-11,5.2C832.6,348.47,833.85,349.31,833.85,349.31Z" transform="translate(0.93)" fill="#09adbf"/><path d="M856.51,339.46l.09,0s.84,6.22-4,8.18c-3.26,1.32-18.74,1.74-18.74,1.74a.74.74,0,0,1-.27-.84c2.18-.14,14.2-1,19-3.39A7.32,7.32,0,0,0,856.51,339.46Z" transform="translate(0.93)" fill="#0696ad"/><polygon points="825.69 257.3 858 257.3 858.92 254.72 824.43 254.72 825.69 257.3" fill="#96c8bc"/><polygon points="809.84 223.74 824.5 254.77 825.75 254.92 810.35 222.41 809.84 223.74" fill="#96c8bc"/><polygon points="810.66 223.04 825.32 254.07 825.87 253.92 811.17 222.8 810.66 223.04" fill="#263369"/><path d="M902.17,288.56s6.71-27.81,7.69-31.63S916,252.8,916,252.8l-10.08,39.81a2.26,2.26,0,0,1-.75,1.21,3.16,3.16,0,0,1-1.53.51H854.28s.74-5.77,5.66-5.77Z" transform="translate(0.93)" fill="#79c6c4"/><path d="M902.48,292.44a3.17,3.17,0,0,0,1.53-.52,2.26,2.26,0,0,0,.75-1.21l9.52-37.6a9.43,9.43,0,0,1,1.71-.31l-10.08,39.81a2.26,2.26,0,0,1-.75,1.21,3.16,3.16,0,0,1-1.53.51H854.28a8.88,8.88,0,0,1,.52-1.89Z" transform="translate(0.93)" fill="#333745"/><path d="M880.22,259.4a14.94,14.94,0,0,0,0-1.85l-.08-2.35c-.24-2.64,1-5.43-.69-8.61a50.46,50.46,0,0,1-6-19.58l8-13.17,7.39-2.65s7.54-1.53,11.94,19.64c2.43,11.69.5,39.32.5,39.32l-22.5-5.57a15.77,15.77,0,0,0,1.17-3.64Z" transform="translate(0.93)" fill="#ee7a6f"/><path d="M876.84,227a17.33,17.33,0,0,0,3.84-8.76c6.4-5.24,11.58-6.23,11.58-6.23a34.52,34.52,0,0,0-3.13-4.73c-4.15,2.9-6,4.35-8.32,6-3.89,2.87-4.64,3.54-4.64,3.54Z" transform="translate(0.93)" fill="#ea5a5b"/><path d="M850.63,256a.49.49,0,0,0,.49.49h.73a.49.49,0,0,0,.49-.49h0a.49.49,0,0,0-.49-.49h-.73a.49.49,0,0,0-.49.49Z" transform="translate(0.93)" fill="#7f4b54"/><path d="M832.44,256a.49.49,0,0,0,.49.49h.73a.49.49,0,0,0,.49-.49h0a.49.49,0,0,0-.49-.49h-.73a.49.49,0,0,0-.49.49Z" transform="translate(0.93)" fill="#7f4b54"/><path d="M829.92,256a.49.49,0,0,0,.49.49h.73a.49.49,0,0,0,.49-.49h0a.49.49,0,0,0-.49-.49h-.73a.49.49,0,0,0-.49.49Z" transform="translate(0.93)" fill="#7f4b54"/><rect x="837.48" y="255.52" width="10.99" height="0.99" fill="#7f4b54"/><rect x="826.96" y="254.07" width="31.1" height="0.66" fill="#96c8bc"/><path d="M843.88,250a22.86,22.86,0,0,0-3.89,1.78,23.91,23.91,0,0,1-2.71,2.08c-.13.14.23.34,1.39-.14a4.5,4.5,0,0,0,2.17-1.29c1.71-.75,3.74-1.15,4.23-1.41C845.9,250.62,843.88,250,843.88,250Z" transform="translate(0.93)" fill="#fbcfa9"/><path d="M726.81,224.94a18.63,18.63,0,0,0-3.17,1.45,19.48,19.48,0,0,1-2.21,1.7c-.11.11.19.28,1.13-.11a3.66,3.66,0,0,0,1.77-1c1.39-.61,3-.94,3.44-1.15C728.46,225.41,726.81,224.94,726.81,224.94Z" transform="translate(0.93)" fill="#f8c5b0"/><path d="M870,198.61a13.29,13.29,0,0,0-3.44-3.85c-7.22,2.29-6.45-1.11-6.45-1.11,5.7-12.74,17.36-11.14,18.86-11.08a4.68,4.68,0,0,0,3.19-1c0,.45.21,1.91,1.09,2.29-.43,1.47,4,6.54,5.88,9-1,1.12-2.87,3.95-.76,14.2-2-1-3.7-2.73-6-3.1-.63-.26-3.84-6.11-7.36-4.62-.59.25-1.19-.23-1.37.86.77,2.29.44,2.76-.63,2.26A16.31,16.31,0,0,0,870,198.61Z" transform="translate(0.93)" fill="#e6c280"/><path d="M867.3,201.26a8.45,8.45,0,0,0-2.62.91c-.5.49-.57-.88.54-1.17a2.13,2.13,0,0,1,1.51-.05C867,201,867.83,201.15,867.3,201.26Z" transform="translate(0.93)" fill="#e6a565"/><path id="_Path_" data-name="&lt;Path&gt;" d="M846.58,286.64s41.3,6.89,48.1,2.67c6.61-4.1,6.57-16.45,6.57-16.45l-22.15-2-41.55,4Z" transform="translate(0.93)" fill="#745b44"/><path d="M832.63,278.5s14.16,58.7,14.82,61.84c.66.52,8.83.7,9.42-.59-1.07-4.68-4.31-14.68-5.3-25.84-1.23-13.86-1.94-26.42-5.85-35.77C847.54,277.34,838.66,270.15,832.63,278.5Z" transform="translate(0.93)" fill="#745b44"/><path d="M895.59,272.42c-.63,3.94-2.21,9.34-6.16,11.79-5.94,3.69-38.29-1.12-46.3-2.38,1.7,7.87,2.31,17.1,3.19,27,.91,10.23,4.67,25.86,6.12,32,2.12-.06,4.17-.34,4.46-1-1.07-4.68-4.31-14.68-5.3-25.84-.88-9.89-1.49-19.11-3.19-27,8,1.26,40.36,6.07,46.3,2.38,6.61-4.1,6.57-16.45,6.57-16.45Z" transform="translate(0.93)" fill="#664e38"/><path d="M889.12,192.82s-15.19.31-12.84,3.71,5.49,7.27,6.07,7.39,4.6,2.4,6,3.1C887.92,204.71,886.07,195.62,889.12,192.82Z" transform="translate(0.93)" fill="#e6a565"/><path d="M881.8,257.4l8.33-.53s2.39-15.73,3.27-25.9a27.27,27.27,0,0,0-.68-8.35c-.44-1.39-2.91-3.55-6.59-3.15-4.71.52-5.46,3.48-5.46,3.48s.55,6.61,1.73,14.06C883.92,246.5,881.8,257.4,881.8,257.4Z" transform="translate(0.93)" fill="#ea5a5b"/><path d="M876.43,249.09l1,7.36,9.06.81a9.21,9.21,0,0,1,.78-5.88,2.72,2.72,0,0,0-2.51-2.61Z" transform="translate(0.93)" fill="#ea5a5b"/><path d="M873.26,198.87s2.23-2.56,2.87.58-1.08,4.16-1.08,4.16Z" transform="translate(0.93)" fill="#f8c5b0"/><path d="M872.79,202.07s2.7,6.1,2.5,7.2c-.1.55-5.78,2.95-5.94,3.28s.2.9.53.79,6.28-2.12,6.91-3.79c.38-1-1.54-5.51-2.77-7.89S872.79,202.07,872.79,202.07Z" transform="translate(0.93)" fill="#e6a565"/><path d="M862.2,191.29s-3.33,3-4.1,1.38c1.13,2.23,2.25,1.73,3.36,1.36a1.2,1.2,0,0,0,.6-.55C862.63,192.57,862.66,190.91,862.2,191.29Z" transform="translate(0.93)" fill="#e6c280"/><path d="M862.32,192.13s-1.77,3-2.86,3.23c1.43.72,2.71-.2,3.48-1.07a3.87,3.87,0,0,0,.65-1.18C863.73,192.12,862.56,191.61,862.32,192.13Z" transform="translate(0.93)" fill="#e6c280"/><path d="M862.56,192.79s-2.74.52-3.25,2.19a28.46,28.46,0,0,0,3.58-1.21Z" transform="translate(0.93)" fill="#e6c280"/><polygon points="876.31 248.35 877.21 251.5 877.92 256.67 879.15 256.95 879.18 256.46 879.44 256.97 880.04 257.09 880.61 256.79 881.09 257.23 881.58 257.26 881.21 248.36 880.86 248.34 880.34 247.98 880 248.16 879.97 248.7 879.45 248.94 879.23 248.23 878.67 248.2 878.55 248.88 878.07 248.85 877.4 248.36 876.31 248.35" fill="#ee7a6f"/><circle cx="875.92" cy="199.93" r="3.64" fill="#aaaab0"/><polygon points="756.3 225.71 750.94 251.15 753.62 254.19 754.56 251.63 757.68 235.02 756.3 225.71" fill="#f1ad2c"/><path d="M769.77,200.17s-2.74-2.1-2.75,1.16,1.92,3.94,1.92,3.94Z" transform="translate(0.93)" fill="#fcdfc4"/><path d="M788.23,204.22a9.64,9.64,0,1,0-18.87-4c-.64,3,0,10.4,0,10.4l4,5,5,1.06,5.46-3S787.54,207.49,788.23,204.22Z" transform="translate(0.93)" fill="#fcdfc4"/><path d="M787.78,204s3.36-.81,2.05,2.17-3.35,2.83-3.35,2.83Z" transform="translate(0.93)" fill="#fbcfa9"/><polygon points="789.31 203.33 781.68 203.59 779.76 205.27 778.47 210.41 777.25 216.33 783.18 214.6 785.47 212.57 787.42 208.45 789.31 203.33" fill="#fbcfa9"/><path d="M773,195.32c-.56,2.21-2.53,1.6-2.23,4.4-.65.68-1,2.61-1.63,2.42.7-3.12-.2-3.76,1.27-11.86C774.45,188.47,774.29,190.41,773,195.32Z" transform="translate(0.93)" fill="#6fc2b9"/><path d="M788.66,191.7c-3.06-3.26-10.59-4.6-13.41-3.52-7.12,2.74-2.77,7.22.89,8.46s12,3.58,13.55-1.18C790.68,192.35,789.48,192.59,788.66,191.7Z" transform="translate(0.93)" fill="#6fc2b9"/><path d="M786.76,198.23c-.38,2.25,1.67,2.49.26,4.92.32.88-.1,2.81.51,2.88.62-3.13,1.71-3.36,3.64-11.36C788.24,191.39,787.61,193.22,786.76,198.23Z" transform="translate(0.93)" fill="#68aba8"/><path d="M772.81,190.22s.47-4,2.27-4.33,6.48-1.44,9.57,1.12,4.39,6.1,8.17,5.45a7.77,7.77,0,0,1-4.39,2c-.8-.09-5.27-5.52-7.67-5.31S777.41,189.92,772.81,190.22Z" transform="translate(0.93)" fill="#6fc2b9"/><path d="M782.06,191.56s-.74-3.06,2-2.79,3.19,2.93,5.73,1.21c-.4,1.68-2.44,2.94-4.84,2.71S782.06,191.56,782.06,191.56Z" transform="translate(0.93)" fill="#6fc2b9"/><path d="M785.94,208.86c-.36.92-1.38,2.39-2.22,4.56-1.42.9-6.92,2.85-7.92,2.68s-5.22-4.26-6.15-5.66c.11-2.32-.23-4.08-.19-5.07a11.55,11.55,0,0,0-.36-2.05,53.44,53.44,0,0,1-1.12,7.62c2.2,1.76,7.39,7.18,7.39,7.18h0s6.94-2.86,9.66-3.57a53.6,53.6,0,0,1,2.06-7.42A11.55,11.55,0,0,0,785.94,208.86Z" transform="translate(0.93)" fill="#6fc2b9"/><path d="M779.85,221.29s-.86-5,.46-5.82,4.17-.8,4.81-2.81,1.69-4.75,1.69-4.75,2.25,3.61,1.48,5.73-2.89,2.85-3.6,4.07a5.37,5.37,0,0,0-.42,3Z" transform="translate(0.93)" fill="#fbcfa9"/><path d="M786.8,207.91l-.42,1.13c.6,1.24,1.37,3.23.87,4.61-.76,2.12-2.89,2.85-3.6,4.07a5.26,5.26,0,0,0-.43,3,.51.51,0,0,1,.09.17l1-.12a5.37,5.37,0,0,1,.42-3c.71-1.22,2.84-1.95,3.6-4.07S786.8,207.91,786.8,207.91Z" transform="translate(0.93)" fill="#fbcfa9"/><path d="M792.15,215.58l5,1.91L794,236.26l-4.37,18.14s-2.16,1.51-4.58,3.25c-.94-.65-3.92.43-5.48-2.18-5.55-9.28-.07-26.06-.07-34.38a15.07,15.07,0,0,1,6.34-.48s2.49,17.85-1,23.07c.12-1.31,5.32-19.9,5.32-19.9l1.55-6.81Z" transform="translate(0.93)" fill="#f2ba54"/><polygon points="797.23 255.62 758.39 255.62 757.47 230.21 798.15 230.21 797.23 255.62" fill="#f1e6c2"/><rect x="757.47" y="255.62" width="40.68" height="1.52" fill="#f1e6c2"/><circle cx="777.81" cy="244.16" r="1.95" fill="#d1d6d6"/><path d="M753.85,256.09c0,1.35-2,1-4.53,1s-4.53.35-4.53-1,2-2.43,4.53-2.43S753.85,254.74,753.85,256.09Z" transform="translate(0.93)" fill="#eb6654"/><polygon points="778.74 276.62 787.01 289.38 777.81 280 778.74 276.62" fill="#0696ad"/><polygon points="661.04 274.29 663.59 284.07 659.14 275.89 661.04 274.29" fill="#db5a41"/><polygon points="648.27 274.99 641.52 282.5 645.88 274.29 648.27 274.99" fill="#db5a41"/><polygon points="776.44 272.27 771.01 284.73 776.64 276.62 776.44 272.27" fill="#0696ad"/><path d="M789.64,337.79s-1.25-4.93-.31-5.1,4.73-.34,4.9,0a31.3,31.3,0,0,1-.51,5.28C793.59,338.27,790.55,337.74,789.64,337.79Z" transform="translate(0.93)" fill="#8f847f"/><path d="M761.45,337.64s-1.25-4.93-.31-5.1,4.73-.34,4.9,0a31.3,31.3,0,0,1-.51,5.28C765.4,338.12,762.35,337.59,761.45,337.64Z" transform="translate(0.93)" fill="#8f847f"/><polygon points="771.1 336.82 763.73 336.58 771.26 334.01 771.1 336.82" fill="#f1f1f1"/><polygon points="730.61 332.39 723.23 331.79 730.76 329.58 730.61 332.39" fill="#f1f1f1"/><polygon points="786.74 337.79 794.4 336.21 787.37 335.6 786.74 337.79" fill="#f1f1f1"/><polygon points="846.2 341.43 855.5 340.99 846.86 338.06 846.2 341.43" fill="#f1f1f1"/><polygon points="877.69 327.55 872.13 332.91 875.04 325.24 877.69 327.55" fill="#f1f1f1"/><polygon points="852.45 288 845.18 283.86 851.36 291.08 852.45 288" fill="#604332"/><path d="M780.82,289.38l6.22,3.07L788.13,334s-1.28-11.46-4.49-30.58C782.12,294.37,780.81,291.36,780.82,289.38Z" transform="translate(0.93)" fill="#0696ad"/><path d="M767.6,287.72l6.61-5.41L767.6,334a224.34,224.34,0,0,1,0-28.84C768.12,296,767.59,289.7,767.6,287.72Z" transform="translate(0.93)" fill="#0696ad"/><path d="M764.49,336.82s.34,4.54-1.29,7.49l5.72,1-.7-8.58Z" transform="translate(0.93)" opacity="0.1"/><path d="M791.43,336.63s0,5.44.89,8.28a18.84,18.84,0,0,0-4.77,1.85l-.51-9.23Z" transform="translate(0.93)" opacity="0.1"/><path d="M749.34,250.93c.07.43.51,3.6,1,3.77s1.89.78,1.59-.85a23.85,23.85,0,0,0-.86-3.61C750.88,249.77,749.13,249.72,749.34,250.93Z" transform="translate(0.93)" fill="#fcdfc4"/><path d="M753.62,252.6c-.21.17-1.78,1.32-1.67,1.83s.32,1.92,1.09,1.26a9.79,9.79,0,0,0,1.64-1.64C754.87,253.75,754.21,252.12,753.62,252.6Z" transform="translate(0.93)" fill="#fcdfc4"/><path d="M747.07,250.16c.07.43.51,3.6,1,3.77s1.89.78,1.59-.85a23.79,23.79,0,0,0-.86-3.61C748.61,249,746.86,248.95,747.07,250.16Z" transform="translate(0.93)" fill="#fcdfc4"/><path d="M746,251.69c.06.36.43,3,.85,3.13s1.57.65,1.32-.71a19.6,19.6,0,0,0-.71-3C747.3,250.73,745.85,250.68,746,251.69Z" transform="translate(0.93)" fill="#fcdfc4"/><path d="M744.81,252c0,.26.34,2.18.69,2.28s1.27.47,1.06-.52a13.27,13.27,0,0,0-.58-2.18C745.84,251.33,744.67,251.29,744.81,252Z" transform="translate(0.93)" fill="#fcdfc4"/><path d="M756.54,230.21s24.69,20.65,33.6,25.41H757.45Z" transform="translate(0.93)" fill="#7c8080" opacity="0.2"/><rect x="882.85" y="295.97" width="2.62" height="45.02" fill="#adaba8"/><path d="M772.84,194.65s4.76,4.48,14.27,3.32c.87-.12,4.07-3.3,4.07-3.3a15,15,0,0,1-6.82.5C780.68,194.54,777.54,195.26,772.84,194.65Z" transform="translate(0.93)" fill="#68aba8"/><rect x="871.64" y="294.48" width="25.03" height="2.97" fill="#48546a"/><rect x="881.63" y="298.55" width="5.06" height="10.9" fill="#48546a"/><rect x="881.63" y="328.62" width="5.06" height="11.72" fill="#48546a"/><rect x="882.25" y="322.06" width="3.82" height="8.34" fill="#48546a"/><rect x="883.15" y="339.56" width="2.02" height="4.37" fill="#333745"/><circle cx="901.56" cy="345.2" r="2.69" fill="#60767f"/><circle cx="867.07" cy="345.2" r="2.69" fill="#60767f"/><polygon points="904.16 343.43 884.16 341.44 864.16 343.43 864.16 342.25 884.16 339.46 904.16 342.25 904.16 343.43" fill="#333745"/><rect x="884.16" y="328.62" width="2.53" height="11.72" fill="#333745"/><rect x="884.16" y="298.55" width="2.53" height="10.9" fill="#333745"/><rect x="508.41" y="295.97" width="2.62" height="45.02" fill="#adaba8"/><rect x="497.2" y="294.48" width="25.03" height="2.97" fill="#48546a"/><rect x="507.19" y="298.55" width="5.06" height="10.9" fill="#48546a"/><rect x="507.19" y="328.62" width="5.06" height="11.72" fill="#48546a"/><rect x="507.8" y="322.06" width="3.82" height="8.34" fill="#48546a"/><rect x="508.71" y="339.56" width="2.02" height="4.37" fill="#333745"/><circle cx="527.11" cy="345.2" r="2.69" fill="#60767f"/><circle cx="492.63" cy="345.2" r="2.69" fill="#60767f"/><polygon points="529.72 343.43 509.72 341.44 489.72 343.43 489.72 342.25 509.72 339.46 529.72 342.25 529.72 343.43" fill="#333745"/><rect x="509.72" y="328.62" width="2.53" height="11.72" fill="#333745"/><rect x="509.72" y="298.55" width="2.53" height="10.9" fill="#333745"/><polygon points="877.09 216.89 876.16 227.03 874.39 227 874.97 218.64 877.09 216.89" fill="#ea5a5b"/><polygon points="879.19 267.17 902.97 274.05 903.52 270.41 879.49 263.93 879.19 267.17" fill="#90a838"/><path d="M718.93,292l2.68,3.77s3.81,8.9,3.54,13-2.54,23-2.54,23H720Z" transform="translate(0.93)" fill="#007287"/><path d="M693.48,161.83s6.85-1.28,8,1.27,4.37,9.68,3.42,10S694.73,169.18,693.48,161.83Z" transform="translate(0.93)" fill="#f8bd9f"/><path d="M697.68,149.23s-2.37,4.86-2.15,6.93c.74-.15,2.94-.75,4.15,0,.43-.65.16-1.94.33-2.82.44,1.11,6.31,2.49,6.31,2.49l4.75,3.66s-2.31-6.42-6-10.08S699.09,147.88,697.68,149.23Z" transform="translate(0.93)" fill="#eb6749"/><path d="M707.65,330.06s7.16-1,9.85-2.67a27.63,27.63,0,0,1,1,3.62l-9.83,2.75Z" transform="translate(0.93)" opacity="0.1"/><polygon points="600.88 287.72 594.04 294.82 593.39 336.32 600.88 287.72" fill="#60767f"/><path d="M621.3,139.06s-2.06-.77-3.45-1.11a11.88,11.88,0,0,0-3.54-.57h0a5.26,5.26,0,0,1-4.37-1.44h0a11.89,11.89,0,0,0-3.19-1.64c-1.32-.55-3.44-1.15-3.44-1.15s-.19.49-.36,1.08a4,4,0,0,1,.37,1.05h0c0,.28,0,.59-.06.89-.1,1.32.24,2.68,2.41,3.68a5.71,5.71,0,0,0,.6.24,3.44,3.44,0,0,0,4.38-1.75,1.66,1.66,0,0,0,.13-.33,1.49,1.49,0,0,1,1.61.53,1.64,1.64,0,0,0-.09.34,3.44,3.44,0,0,0,2.49,4,5.76,5.76,0,0,0,.63.17c2.34.48,3.43-.41,4.13-1.53l.48-.75h0a4,4,0,0,1,.92-.63C621.16,139.56,621.3,139.06,621.3,139.06Zm-11.23-.83a2.81,2.81,0,0,1-3.68,1.56,5.24,5.24,0,0,1-.57-.23c-1.88-.87-2.2-2-2.09-3.36.06-.82.19-1.42.57-1.68s.9-.32,2.26.13c.22.07,1,.36,1.27.48,1.5.73,2.17,1.16,2.46,1.88C610.45,137.44,610.32,137.73,610.06,138.23Zm9.09,3c-.74,1.18-1.64,1.88-3.68,1.47a5.36,5.36,0,0,1-.59-.16,2.81,2.81,0,0,1-2-3.44c.09-.55.16-.86.54-1.1.66-.41,1.45-.36,3.09-.06.27,0,1.09.29,1.31.36,1.36.45,1.72.75,1.9,1.24S619.59,140.58,619.16,141.28Z" transform="translate(0.93)" fill="#eb671b"/><rect x="569.02" y="262.52" width="4.3" height="83.55" fill="#745b44"/><path d="M523.14,346.4a10.71,10.71,0,0,1-6.5-1.68c-2.46-1.62-2.58-5.23-5.33-10.7-3-6,7.95-6.47,7.95-6.47l1.14,4.11s-2.31,4.88-.24,8.84c1.71,3.27,7.49,4.67,6.65,5.4S523.14,346.4,523.14,346.4Z" transform="translate(0.93)" fill="#eb6568"/><path d="M516.64,342.28c-2.32-1.82-2.58-5.23-5.33-10.7a5.81,5.81,0,0,1-.28-.64,3.47,3.47,0,0,0,.28,3.08c2.75,5.47,2.87,9.08,5.33,10.7a10.72,10.72,0,0,0,6.5,1.68s2.84.23,3.68-.5a.2.2,0,0,0,0-.28C525.89,346.17,521.08,345.76,516.64,342.28Z" transform="translate(0.93)" fill="#ea585b"/><path d="M556.23,278.92s-33.54,50.13-36,56.14c-.88.3-5.46-5.25-5.53-6.71.52-1.22,4.09-.1,12.69-22.72,5.31-14,9-24.73,16.85-32.7,1.31,0,1.94-3.76,6.72-2.8A26.84,26.84,0,0,1,556.23,278.92Z" transform="translate(0.93)" fill="#263369"/><path d="M538.76,279.25s-37.5,11.32-44.23,7.79c-6.55-3.44-7.81-15.89-7.81-15.89l14.85-3.62,49.45,2.6Z" transform="translate(0.93)" fill="#263369"/><path d="M556.8,249.33l-3.47-1.39c.51.11,2.46,3,4.17,3.79.88.38,3.82.82,4.94,1.17,1.85.58,3.63,1.7,3.83.85s-1-1.6-1.78-1.86c-1.4-.45.31-1,1.8-1.14C564.71,250.51,559.1,249.28,556.8,249.33Z" transform="translate(0.93)" fill="#f4b4aa"/><path d="M563.16,247.68a100.71,100.71,0,0,0-10.52-1.31c-2.79,1.17-5.47,1.74-3.19,2.2a38.13,38.13,0,0,1,6.84,2c1.69.76,6.33.14,6.66.16a24,24,0,0,1,4.13.69c2.36,1,4.25,2.81,5.09,2.78a27.14,27.14,0,0,0-2.75-3.43C566.93,249.38,565.1,249,563.16,247.68Z" transform="translate(0.93)" fill="#f8c5b0"/><path d="M506.21,223.2l-11.36-10.4a68.69,68.69,0,0,1,10.31-12.57c3.68-3.63,8.22,2.82,4.63,8.67A25.74,25.74,0,0,0,506.21,223.2Z" transform="translate(0.93)" fill="#f8c5b0"/><path d="M524.29,200.38c-1.48,3.14-3.34,3.88-3.5,8.68a2.68,2.68,0,0,0-2.85.91c-.55.71-.34.77-.67,1.27a3.49,3.49,0,0,1-2.77-1c.46,1.21,2.52,1.48,2.39,1.7a15.27,15.27,0,0,0-1.86,2.41c-6.61-.39-15-11.4-15.38-18-.44-8.33,5.92-14,12.52-13.63S529.08,190.25,524.29,200.38Z" transform="translate(0.93)" fill="#f8c5b0"/><path d="M515,214.37s-5.1.21-11.66-8.8c-.42-2-1.09-3.25-.7-3.42,6.21-2.62,3.18,3.32,6.29,6.37C511.68,211.2,515.72,213.38,515,214.37Z" transform="translate(0.93)" fill="#ebb196"/><path d="M604.36,347.07s-15.49-.42-18.75-1.74c-4.85-2-4-8.18-4-8.18l6.21-2.46a10.89,10.89,0,0,0,4.25,4.9c4,2.5,7.8,3.37,11,5.2C605.62,346.24,604.36,347.07,604.36,347.07Z" transform="translate(0.93)" fill="#eb6568"/><path d="M581.7,337.23l-.09,0s-.84,6.22,4,8.18c3.26,1.32,18.75,1.74,18.75,1.74a.74.74,0,0,0,.27-.84c-2.18-.14-14.2-1-19-3.39A7.32,7.32,0,0,1,581.7,337.23Z" transform="translate(0.93)" fill="#ea585b"/><path d="M536.27,228.21a22.93,22.93,0,0,0,1.89-4.16c.23-1.21,2-1.26,2.19-1.34a31.42,31.42,0,0,1,3.11,3.89c.05.15.93,3.58.72,3.53s-5.07.52-6.24,1.68S536.33,229.48,536.27,228.21Z" transform="translate(0.93)" fill="#f8c5b0"/><path d="M523,251.45l-3.21,5.85S505.49,245.43,498,237.68a30,30,0,0,1-5.07-7.27c-.59-1.42-2-2.76,1-5a7,7,0,0,1,3.84-1.5,38.51,38.51,0,0,1,11.07,11.3C514,243.92,523,251.45,523,251.45Z" transform="translate(0.93)" fill="#90a838"/><path d="M536.53,227.3l2.58,5.41L519.75,257.3s-2.86-2.9-3.82-3.94c-1.72-1.78.85-5.3.85-5.3Z" transform="translate(0.93)" fill="#90a838"/><polygon points="866.28 262.52 522.46 262.52 519.89 257.2 868.93 257.2 866.28 262.52" fill="#745b44"/><polygon points="868.93 257.2 519.89 257.2 520.84 259.17 867.95 259.17 868.93 257.2" fill="#eea163"/><polygon points="603.55 221.25 593.91 254.2 593.35 254.13 603.01 221.1 603.55 221.25" fill="#263369"/><path d="M486.69,288.56S480,260.75,479,256.94s-6.13-4.14-6.13-4.14L483,292.61a2.26,2.26,0,0,0,.75,1.21,3.16,3.16,0,0,0,1.53.51h49.35s-.74-5.77-5.66-5.77Z" transform="translate(0.93)" fill="#79c6c4"/><path d="M551,273.12l-43.44-6.23-21.15,4.24s0,12.52,6.67,16.68c5.67,3.52,35-.59,45.26-2.15l-.06-.11,4.35-2.9-1.3,2.54.53-.09.22-.29a1.94,1.94,0,0,1-.22.29c.15.36.31.72.48,1.08l3.91-3.59-2.15,5.64h-.75c4.74,9.19,12.86,18.35,21.49,28.65,7.73,9.23,15.49,20.13,16.11,24,1.38.49,7.7-4.16,7.76-5.1C586.79,332.85,551,273.12,551,273.12Z" transform="translate(0.93)" fill="#344a99"/><path d="M585.28,333.75c-.61-3.83-8.37-14.74-16.11-24-8.62-10.29-16.74-19.46-21.49-28.65l-5-2.58c-10.23,1.56-39.59,5.67-45.26,2.15-3.56-2.21-5.22-6.78-6-10.58l-5,1s0,12.52,6.67,16.68c5.67,3.52,35-.59,45.26-2.15l-.06-.11,4.35-2.9-1.3,2.54.53-.09.22-.29a1.94,1.94,0,0,1-.22.29c.15.36.31.72.48,1.08l3.91-3.59-2.15,5.64h-.75c4.74,9.19,12.86,18.35,21.49,28.65,7.73,9.23,15.49,20.13,16.11,24,1.38.49,7.7-4.16,7.76-5.1-.19-.29-.73-1.17-1.55-2.51A3.06,3.06,0,0,1,585.28,333.75Z" transform="translate(0.93)" fill="#234092"/><path d="M486.39,292.44a3.16,3.16,0,0,1-1.53-.52,2.25,2.25,0,0,1-.75-1.21l-9.52-37.6a9.43,9.43,0,0,0-1.71-.31L483,292.61a2.26,2.26,0,0,0,.75,1.21,3.16,3.16,0,0,0,1.53.51h49.35a8.88,8.88,0,0,0-.52-1.89Z" transform="translate(0.93)" fill="#44afa3"/><path d="M505.25,262.05a21.16,21.16,0,0,1-.58-2.24l-.33-2.33a22.7,22.7,0,0,1,1.13-9.17A50.46,50.46,0,0,0,507.88,228l-10.2-11.54-7.74-1.3s-6.52,7.53-8.6,25.28c-1.39,11.86,5.08,30.7,5.08,30.7l21.15-4.24a15.82,15.82,0,0,1-1.8-3.37Z" transform="translate(0.93)" fill="#9cbf2e"/><path d="M553,245.5l-28,.9-.94,2-.47-1.7-.93,2.76-.12-3.11.15-.11c-3.37-2.67-8.51-7-12.05-12a139.94,139.94,0,0,0-9.3-11.74s-2.74-1.66-6.48,1.36c-2.92,2.36-3.05,5.76-2.32,7.12a30.05,30.05,0,0,0,5.78,6.72c8.24,7,23.61,18.36,23.61,18.36l32.21-5.61Z" transform="translate(0.93)" fill="#9cbf2e"/><path d="M513.59,201s3.28-1,6.88-1.85a23.36,23.36,0,0,0,7.37-3.51c-3.88-13.7-15.87-13.8-17.4-14a4.78,4.78,0,0,1-3.07-1.49c0,.46-.5,1.89-1.44,2.15.22,1.55-5,6-7.26,8.18.85,1.28-.93,6.56.69,8.89s.42,5.77.26,6.81c.79-.2,2.26-.68,3.83-1.12-1.29,3.7,1.8,4.53,2.42,5.23s6.18,4,6.78,4.49c2.42,2,3.84-2.07,3.4-2a4.33,4.33,0,0,1-3.15-1c.09-.85.34-2.22,1.06-2.44,1.06-.33,3.23.58,3.61.95s.84-.83.84-.83a15.32,15.32,0,0,0-1.52-1.11,5.82,5.82,0,0,0-5.83,1.93,18.27,18.27,0,0,1-1.84-2c-.75-1,.8-4.54.8-4.54.12-.24-.21-.47-.75-.67a9.56,9.56,0,0,1,6.64-5.7C515,198,513.59,201,513.59,201Z" transform="translate(0.93)" fill="#4d2911"/><path d="M509.24,232.33a60.62,60.62,0,0,0-6.13-7.81c-5.62-6-14.34-8.63-14.34-8.63s4.35-6.28,7.39-7a23.17,23.17,0,0,0,5,8.44c3.5,3.33,5.45,3.56,5.45,3.56Z" transform="translate(0.93)" fill="#90a838"/><polygon points="540.96 232.59 538.87 235.2 534.91 229.02 537.2 226.77 540.96 232.59" fill="#fdc504"/><path d="M566.77,256a.49.49,0,0,1-.49.49h-.73A.49.49,0,0,1,565,256h0a.49.49,0,0,1,.49-.49h.73a.49.49,0,0,1,.49.49Z" transform="translate(0.93)" fill="#7f4b54"/><path d="M585,256a.49.49,0,0,1-.49.49h-.73a.49.49,0,0,1-.49-.49h0a.49.49,0,0,1,.49-.49h.73a.49.49,0,0,1,.49.49Z" transform="translate(0.93)" fill="#7f4b54"/><path d="M587.48,256a.49.49,0,0,1-.49.49h-.73a.49.49,0,0,1-.49-.49h0a.49.49,0,0,1,.49-.49H587a.49.49,0,0,1,.49.49Z" transform="translate(0.93)" fill="#7f4b54"/><rect x="570.8" y="255.52" width="10.99" height="0.99" fill="#7f4b54"/><rect x="561.21" y="254.07" width="31.1" height="0.66" fill="#263369"/><path d="M492.92,231.56s.77,3,13.66,12.84c-.21.84-1.56,4.76-1.56,4.76S492.09,238.22,492.92,231.56Z" transform="translate(0.93)" fill="#90a838"/><polygon points="813.16 257.19 804.67 257.19 803.91 242.08 814.03 242.08 813.16 257.19" fill="#e4d7c6"/><polygon points="814.55 239.7 803.38 239.7 803.1 242.08 814.85 242.08 814.55 239.7" fill="#593119"/><rect x="803.91" y="238.14" width="10.12" height="1.57" fill="#733a10"/><polygon points="803.91 246.56 804.2 252.33 813.71 252.33 814.04 246.56 803.91 246.56" fill="#593119"/><path d="M808.42,249.76a2.58,2.58,0,0,0-1.45-1.34c-.11-.06-.22,0-.24.11a2,2,0,0,0,.6,2.09,2.14,2.14,0,0,0,2.09.6c.06,0,.09-.14.05-.18A4.41,4.41,0,0,1,808.42,249.76Z" transform="translate(0.93)" fill="#f4d3bd"/><path d="M809.32,248.62a2,2,0,0,0-2.1-.58c-.07,0-.18.13,0,.21a2.52,2.52,0,0,1,1.46,1.39,3.6,3.6,0,0,0,.94,1.25s.06.06.11.06a.18.18,0,0,0,.13-.09A1.88,1.88,0,0,0,809.32,248.62Z" transform="translate(0.93)" fill="#f4d3bd"/><polygon points="552.44 228.62 545.08 231.33 539.59 218.47 548.37 215.24 552.44 228.62" fill="#e4d7c6"/><polygon points="548.06 213.01 538.37 216.58 538.89 218.73 549.07 214.98 548.06 213.01" fill="#593119"/><rect x="537.36" y="213.39" width="9.35" height="1.45" transform="translate(-39.67 200.49) rotate(-20.22)" fill="#733a10"/><path d="M540.86,224.17a8.2,8.2,0,0,1-.61,3.51A9.53,9.53,0,0,0,543,227S541.74,224.22,540.86,224.17Z" transform="translate(0.93)" fill="#f4b4aa"/><polygon points="541.02 222.36 543.11 227.27 551.36 224.23 549.81 219.13 541.02 222.36" fill="#593119"/><path d="M545.83,223.4a2.39,2.39,0,0,0-1.68-.7c-.12,0-.17.11-.18.17a1.82,1.82,0,0,0,1.19,1.62,2,2,0,0,0,2-.14s0-.15,0-.17A4.07,4.07,0,0,1,545.83,223.4Z" transform="translate(0.93)" fill="#f4d3bd"/><path d="M546.24,222.12a1.82,1.82,0,0,0-2,.16s-.11.17.05.18a2.33,2.33,0,0,1,1.71.74,3.33,3.33,0,0,0,1.21.78s.07,0,.11,0a.17.17,0,0,0,.08-.11A1.74,1.74,0,0,0,546.24,222.12Z" transform="translate(0.93)" fill="#f4d3bd"/><path d="M539.44,220a10.9,10.9,0,0,0-1.27,3c-.1,2-.15,3.41.67,3.63,3.6,1,.55-3.48,1.53-4.43a2.56,2.56,0,0,0,.89-1.39c.33-1.07.21-1.62-.49-2A3.25,3.25,0,0,0,539.44,220Z" transform="translate(0.93)" fill="#f8c5b0"/><path d="M563.88,249.48a22.9,22.9,0,0,1,3.77,2c1.19,1.23,2.22,2.12,2.56,2.4.12.15-.25.32-1.38-.23a5.08,5.08,0,0,1-2.07-1.57c-1.66-.85-3.66-1.38-4.13-1.67C561.83,249.93,563.88,249.48,563.88,249.48Z" transform="translate(0.93)" fill="#f8c5b0"/><polygon points="509.05 266.72 487.15 273.57 486.6 269.93 507.29 263.79 509.05 266.72" fill="#79c6c4"/><polygon points="555.41 250.76 552.09 251.16 551.26 245.37 554.45 245.07 555.41 250.76" fill="#fdc504"/><path d="M518.74,201s3.69,1.32,4.13,1.89,1.2-1,.12-1.47a14.06,14.06,0,0,0-3.63-.65C519.08,200.81,518.22,200.85,518.74,201Z" transform="translate(0.93)" fill="#4d2911"/><rect x="461.52" y="318.87" width="42.6" height="27.98" rx="1.15" ry="1.15" fill="#604332"/><rect x="473.49" y="317.39" width="18.97" height="1.48" fill="#ed7264"/><path d="M491.83,317.68a19,19,0,0,1-6.69-1.38,6.95,6.95,0,0,0-6.58,0,17.77,17.77,0,0,1-6.34,1.36.29.29,0,0,1,0-.57,17.31,17.31,0,0,0,6.15-1.32,10.89,10.89,0,0,1,3.52-.88,10.78,10.78,0,0,1,3.45.85,18.22,18.22,0,0,0,6.49,1.35.29.29,0,0,1,0,.57Z" transform="translate(0.93)" fill="#ed7264"/><rect x="484.4" y="326.52" width="16.71" height="18.93" fill="#8f847f"/><rect x="464.52" y="326.52" width="16.71" height="18.93" fill="#8f847f"/><path d="M501,318.87H462.82a1.12,1.12,0,0,0-1.09,1.15v10.77a1.12,1.12,0,0,0,1.09,1.15H501a1.12,1.12,0,0,0,1.09-1.15V320A1.12,1.12,0,0,0,501,318.87Z" transform="translate(0.93)" fill="#f1e6c2"/><rect x="464.04" y="318.87" width="0.21" height="0.41" fill="#604332"/><path d="M499,330.86h-.84v-.21H499Zm-1.67,0h-.84v-.21h.84Zm-1.67,0h-.84v-.21h.84Zm-1.67,0h-.84v-.21H494Zm-1.67,0h-.84v-.21h.84Zm-1.67,0h-.84v-.21h.84Zm-1.67,0h-.84v-.21H489Zm-1.67,0h-.84v-.21h.84Zm-1.67,0h-.84v-.21h.84Zm-1.67,0h-.84v-.21H484Zm-1.67,0h-.84v-.21h.84Zm-1.67,0h-.84v-.21h.84Zm-1.67,0h-.84v-.21H479Zm-1.67,0h-.84v-.21h.84Zm-1.67,0h-.84v-.21h.84Zm-1.67,0h-.84v-.21h.84Zm-1.67,0h-.84v-.21h.84Zm-1.67,0h-.84v-.21h.84Zm-1.67,0h-.84v-.21h.84Zm-1.67,0h-.84v-.21h.84Zm-1.67,0h-.84v-.21h.84Zm34.34-.06-.07-.2a.92.92,0,0,0,.54-.49l.19.09A1.13,1.13,0,0,1,499.9,330.81Zm-36,0a1.13,1.13,0,0,1-.66-.61l.19-.08a.92.92,0,0,0,.54.5Zm36.8-1.47h-.21v-.84h.21Zm-37.35,0h-.21v-.84h.21Zm37.35-1.67h-.21v-.84h.21Zm-37.35,0h-.21v-.84h.21ZM500.67,326h-.21v-.84h.21Zm-37.35,0h-.21v-.84h.21Zm37.35-1.67h-.21v-.84h.21Zm-37.35,0h-.21v-.84h.21Zm37.35-1.67h-.21v-.84h.21Zm-37.35,0h-.21v-.84h.21ZM500.67,321h-.21v-.84h.21Zm-37.35,0h-.21v-.84h.21Z" transform="translate(0.93)" fill="#604332"/><rect x="501.39" y="318.87" width="0.21" height="0.41" fill="#604332"/><path d="M471.85,328.37a1.29,1.29,0,0,0-1.34,1.24v17.24h2.68V329.61A1.29,1.29,0,0,0,471.85,328.37Z" transform="translate(0.93)" fill="#ed7264"/><path d="M491.83,328.37a1.29,1.29,0,0,0-1.34,1.24v17.24h2.68V329.61A1.29,1.29,0,0,0,491.83,328.37Z" transform="translate(0.93)" fill="#ed7264"/><rect x="471.25" y="337.13" width="3.06" height="0.76" fill="#fdc504"/><rect x="491.23" y="337.13" width="3.06" height="0.76" fill="#fdc504"/><path d="M471.83,333.49c1,0,1.23,1.13,1.37,2.19a.78.78,0,0,0,.13-.48c0-1.29-.19-2.34-1.5-2.34s-1.48,1-1.48,2.34a.74.74,0,0,0,.11.48C470.6,334.62,470.78,333.49,471.83,333.49Z" transform="translate(0.93)" fill="#fdc504"/><path d="M491.82,333.49c1,0,1.23,1.13,1.36,2.19a.78.78,0,0,0,.13-.48c0-1.29-.19-2.34-1.5-2.34s-1.48,1-1.48,2.34a.74.74,0,0,0,.11.48C490.58,334.62,490.76,333.49,491.82,333.49Z" transform="translate(0.93)" fill="#fdc504"/><rect x="472.69" y="332.76" width="0.18" height="2.26" fill="#fdc504"/><rect x="492.67" y="332.76" width="0.18" height="2.26" fill="#fdc504"/><rect x="479.27" y="329.55" width="7.36" height="5.11" rx="1.81" ry="1.81" fill="#09adbf"/><rect x="812.3" y="262.52" width="4.3" height="83.55" fill="#745b44"/><path d="M897.73,245.2c-1.41,9.84-4.7,19.43-6.69,21.67l10.22.08s.58-6.19.76-17.37C902.18,239.59,899.27,234.43,897.73,245.2Z" transform="translate(0.93)" fill="#ea5a5b"/><polygon points="629.92 282.72 638.4 284.73 650.87 318.67 650.87 322.16 629.92 282.72" fill="#e56557"/><polygon points="578.7 345.83 586.69 338.57 578.64 342.23 578.7 345.83" fill="#f1f1f1"/><polygon points="513.42 327.82 518.56 332.86 515.1 326.04 513.42 327.82" fill="#f1f1f1"/><rect x="928.93" y="324" width="160" height="51" fill="#f5f5f5"/></svg>