<svg id="Layer_1" data-name="Layer 1" xmlns="http://www.w3.org/2000/svg" viewBox="0 0 151.97 35.66"><defs><style>.cls-1{fill:#222;}</style></defs><title>dublack</title><path class="cls-1" d="M729.69,347.84l9.65-1.56c8.47-1.17,13.57,2.72,15,12.07s-2.19,14.63-10.6,16.19l-9.65,1.56Zm6.74,25.53,5.66-.91c8-1.29,11-5.21,9.63-13.68s-5.34-11.27-13.35-10l-5.66.91Z" transform="translate(-729.69 -340.43)"/><path class="cls-1" d="M753.93,343.93l2.65-.43,2.75,17.5c1,6.53,4.43,8.57,9.59,7.74s7.81-3.85,6.78-10.38L773,340.86l2.66-.43,2.85,18.09c.91,5.82-1.4,11.26-9.17,12.51s-11.61-3.2-12.52-9Z" transform="translate(-729.69 -340.43)"/><path class="cls-1" d="M781,340.44h5.93v11H787a7.93,7.93,0,0,1,6.8-3.25c4.3,0,8.93,3.51,8.93,11.5s-4.63,11.54-8.93,11.54c-3.17,0-5.8-1-7.1-3.38h-.08v2.79H781Zm10.77,12.26c-3.5,0-5,3.3-5,7s1.55,7,5,7,5-3.34,5-7S795.24,352.7,791.74,352.7Z" transform="translate(-729.69 -340.43)"/><path class="cls-1" d="M803.72,355.56c.33-5.58,5.29-7.31,10.14-7.31,4.29,0,9.47,1,9.47,6.21v11.37c0,2,.21,4,.75,4.86h-6a9.11,9.11,0,0,1-.42-2.12,9.75,9.75,0,0,1-7.26,2.71c-4.13,0-7.34-2.07-7.34-6.55.08-9.94,14.6-4.61,14.35-9.51,0-2.54-1.75-3-3.84-3-2.29,0-3.71.93-3.92,3.3ZM817.4,360c-1,.89-3.09.93-4.92,1.27s-3.51,1-3.51,3.21,1.71,2.79,3.63,2.79c4.63,0,4.8-3.67,4.8-5Z" transform="translate(-729.69 -340.43)"/><path class="cls-1" d="M825.41,348.77H831v4.06h.08a7.58,7.58,0,0,1,6.89-4.65,4.39,4.39,0,0,1,1.29.21V354a10.88,10.88,0,0,0-2.13-.21c-4.38,0-5.84,3.13-5.84,7v9.84h-5.93Z" transform="translate(-729.69 -340.43)"/><path class="cls-1" d="M839.72,355.5c.33-5.58,5.3-7.31,10.14-7.31,4.3,0,9.47,1,9.47,6.21v11.37c0,2,.21,4,.75,4.86h-6a9.33,9.33,0,0,1-.41-2.12,9.75,9.75,0,0,1-7.26,2.71c-4.13,0-7.35-2.07-7.35-6.55.08-9.93,14.61-4.6,14.36-9.5,0-2.54-1.75-3-3.84-3-2.3,0-3.71.93-3.92,3.29Zm13.69,4.44c-1,.89-3.08.93-4.93,1.27s-3.5,1-3.5,3.21,1.71,2.79,3.63,2.79c4.63,0,4.8-3.67,4.8-5Z" transform="translate(-729.69 -340.43)"/><path class="cls-1" d="M861.42,340.44h5.93v11.37h.12a7.46,7.46,0,0,1,6.3-3.64c6.3,0,7.89,3.59,7.89,9v13.43h-5.93V358.28c0-3.59-1-5.37-3.8-5.37-3.22,0-4.59,1.82-4.59,6.25v11.45h-5.93Z" transform="translate(-729.69 -340.43)"/></svg>