<svg xmlns="http://www.w3.org/2000/svg" viewBox="0 0 256.49 170.13"><defs><style>.cls-1{fill:#566371;}.cls-2{fill:#fff;}</style></defs><title>Asset 3</title><g id="Layer_2" data-name="Layer 2"><g id="Layer_1-2" data-name="Layer 1"><path class="cls-1" d="M256.49,170.13V15.5A15.5,15.5,0,0,0,241,0H15.5A15.5,15.5,0,0,0,0,15.5V170.13Z"/><path class="cls-2" d="M64.72,97.77a61.7,61.7,0,0,1,6.33-.21c6.28,0,10.12,4,10.12,9.4s-3,9.53-10.36,9.53a45.26,45.26,0,0,1-6.27-.37C64.41,114.53,64.46,100.18,64.72,97.77ZM71.18,103c-.31,0-.71,0-1,0,0,2.44,0,5.67,0,8.1a7.82,7.82,0,0,0,1.27.08c1.56,0,3.68-.53,3.68-4A3.89,3.89,0,0,0,71.18,103Z"/><path class="cls-2" d="M89.11,97.88c.18.31-.27,6.85-.27,9.74,0,2.49.66,3.31,2.23,3.31,1.82,0,2.19-1.35,2.19-3.21,0-2.88-.21-8.52-.24-10,.35-.24,6.2-.48,6.25-.21.11.48.21,7.83.21,10.67,0,4.71-1.66,8.55-8.31,8.55-5.19,0-8.31-2.3-8.31-8.31,0-2.28.18-9,.42-10.41C83.36,97.43,89,97.69,89.11,97.88Z"/><path class="cls-2" d="M114,106.64a4.34,4.34,0,0,1,3.33,4.58c0,3.57-2.86,5.13-7.62,5.13-2.6,0-7.34-.21-7.47-.31S101.92,98.19,102,98a44.62,44.62,0,0,1,5.61-.32c4.21,0,8.45.9,8.45,5a3.85,3.85,0,0,1-2,3.79Zm-6.41-1.91a3.14,3.14,0,0,0,.53,0c1.43,0,2.2-.5,2.2-1.46s-1.25-1.27-2.09-1.27a5,5,0,0,0-.61,0C107.61,102.48,107.61,104.73,107.61,104.73Zm.27,7a8.73,8.73,0,0,0,1.08.08c1.64,0,2.25-.64,2.25-1.54,0-1.06-.93-1.51-2.38-1.51-.29,0-.61,0-.93.06C107.88,109.23,107.88,111.75,107.88,111.75Z"/><path class="cls-2" d="M129.24,113c-.29,0-4-.06-4.55-.08a29.26,29.26,0,0,1-1,3.52,42.55,42.55,0,0,1-6.14-.51c.48-1.8,5.38-18,5.61-18.18a62.32,62.32,0,0,1,7.5-.19c.08,0,5.29,14.91,5.9,18.37a42.77,42.77,0,0,1-6.09.56C130.35,116.43,129.43,113.68,129.24,113Zm-2.25-10c-.37,1.33-1.25,4.77-1.51,5.56.48,0,2.33,0,3.2,0-.31-.95-1.16-4.31-1.53-5.58Z"/><path class="cls-2" d="M138,116.28c-.13-1.59,0-16,.27-18.46,1.77-.16,4.66-.26,6.62-.26,5.35,0,8.42,2.06,8.42,6.54,0,2.64-1.09,4.23-3,5.13a33.89,33.89,0,0,1,3.65,5.51,14.85,14.85,0,0,1-5.08,2c-.08,0-2.23-3.63-4.32-6.49h-.79c0,2.44-.05,5.27-.16,6A33.12,33.12,0,0,1,138,116.28Zm7.36-10.46c1.3,0,2.12-.45,2.12-1.56s-.45-1.65-2.33-1.65a5.88,5.88,0,0,0-1,.06c0,1,0,2.14,0,3.09C144.41,105.79,145,105.82,145.33,105.82Z"/><path class="cls-2" d="M166,113c-.29,0-4-.06-4.56-.08a27.69,27.69,0,0,1-1,3.52,42.55,42.55,0,0,1-6.14-.51c.48-1.8,5.37-18,5.61-18.18a62.21,62.21,0,0,1,7.49-.19c.08,0,5.3,14.91,5.91,18.37a42.77,42.77,0,0,1-6.09.56A35.65,35.65,0,0,1,166,113Zm-2.25-10c-.37,1.33-1.25,4.77-1.51,5.56.47,0,2.33,0,3.2,0-.32-.95-1.16-4.31-1.53-5.58Z"/><path class="cls-2" d="M185.92,116.28c-.06-.61-.11-3.24-.13-6.28-1.59,0-3.34,0-4.9,0,0,2.64,0,5.11-.08,6.35-1.11.24-5.91.32-5.93,0-.16-1.08-.4-17.23-.16-18.66.08-.56,5.8-.29,5.9-.11s.16,3.34.21,7c1.59,0,3.34,0,5,0,0-3.07.07-5.88.18-6.81a29.06,29.06,0,0,1,5.88,0c.21.16.18,17.39-.06,18.4C191.66,116.72,185.94,116.49,185.92,116.28Z"/><path class="cls-2" d="M96.14,135c2.58.52,5,2.86,5,6.87,0,5.36-4.29,7.71-11.44,7.71-3.89,0-11-.32-11.19-.48S78,122.29,78.11,122s7.62-.48,8.42-.48c6.31,0,12.66,1.35,12.66,7.55,0,3.21-1.23,4.56-3,5.68Zm-9.61-2.85a7,7,0,0,0,.79,0c2.15,0,3.3-.75,3.3-2.18s-1.87-1.9-3.14-1.9a4.89,4.89,0,0,0-.91.08C86.53,128.72,86.53,132.1,86.53,132.1Zm.4,10.52a12.37,12.37,0,0,0,1.62.12c2.46,0,3.38-1,3.38-2.31,0-1.59-1.39-2.26-3.58-2.26-.43,0-.91,0-1.38.08C86.93,138.84,86.93,142.62,86.93,142.62Z"/><path class="cls-2" d="M122.78,149.21c-.08.28-17.15.16-18.94-.08-.24-2.66-.24-27.12.08-27.56.2-.27,8.58-.51,8.62-.19.12,1.62.08,17.27-.08,20.16,3.41-.11,8.69-.15,10.16,0A36,36,0,0,1,122.78,149.21Z"/><path class="cls-2" d="M151.93,136c0,7.06-4.53,14.09-14.14,14.09-8.61,0-14.21-5.68-14.21-15,0-7.14,4.76-14.09,14.09-14.09C146.21,121,151.93,126.66,151.93,136Zm-14.18-7c-3.13,0-5.08,2.46-5.08,6.63,0,3.77,2,6.43,4.92,6.43,3.26,0,5-2.42,5-6.63C142.56,130.67,140.41,128.92,137.75,128.92Z"/><path class="cls-2" d="M168.69,142.46a9.39,9.39,0,0,0,2.54-.44c0-.52-.08-2.26-.08-2.26s-3,.08-3.58.12a24.51,24.51,0,0,1-.07-6.12c1.19-.27,11.31-.59,11.63-.31s.16,13.42,0,13.49c-1.87,1.55-6.67,3.26-11.44,3.26-9.72,0-14.17-6.71-14.17-15,0-8.14,5.56-14.13,15-14.13,4.84,0,8.3,1.63,9.49,2.9,0,1-2.78,6-3.66,6.94a12,12,0,0,0-5.67-1.58,5.84,5.84,0,0,0-6,6.23C162.69,140.75,165.55,142.46,168.69,142.46Z"/><path id="pen" class="cls-2" d="M147,31.34a11.93,11.93,0,0,0-8.3-3.6,9.13,9.13,0,0,0-6.52,2.62l-6.8,6.85-.06,0,0,0h0L110.81,51.84a5.66,5.66,0,0,0-1.41,2.38L106.12,66.1a10.12,10.12,0,0,0-.22,1.44,4.89,4.89,0,0,0,4.9,4.89,10.8,10.8,0,0,0,1.61-.26l11.84-3.11a5.68,5.68,0,0,0,2.38-1.42L148,46.16C151.82,42.27,151.39,35.77,147,31.34ZM128.27,61a11.41,11.41,0,0,0-1-3.67l13.21-13.2a6.83,6.83,0,0,1-1.38,7l0,0,0,0L128.28,62C128.28,61.67,128.3,61.33,128.27,61ZM126.56,56a12.89,12.89,0,0,0-1.84-2.42,12.75,12.75,0,0,0-2.86-2.08l13.31-13.31a9.42,9.42,0,0,1,2.93,2,9.53,9.53,0,0,1,1.79,2.47Zm-6-5.16a11,11,0,0,0-4-.83L127.3,39.2a6.71,6.71,0,0,1,6.41-1.49Zm-8.83,18.59a9.13,9.13,0,0,1-1,.18,2.12,2.12,0,0,1-2.08-2.1,7.8,7.8,0,0,1,.15-.78l1.47-5.33a6.62,6.62,0,0,1,6.61,6.67Zm6.57-1.73A7.78,7.78,0,0,0,116,62.37,8,8,0,0,0,110.7,60l1.39-5a2.71,2.71,0,0,1,.55-1c2.8-2,7.11-1.42,10.1,1.58,3.17,3.17,3.66,7.8,1.22,10.57a2.91,2.91,0,0,1-.51.22ZM146,44.18l-2.35,2.37c0-.31,0-.62,0-.94a12.1,12.1,0,0,0-3.55-7.36,12,12,0,0,0-8.28-3.59l2.31-2.33a6.38,6.38,0,0,1,4.54-1.8,9.66,9.66,0,0,1,9.13,8.61A6.4,6.4,0,0,1,146,44.18Z"/></g></g></svg>