<svg xmlns="http://www.w3.org/2000/svg" viewBox="0 0 256.49 170.13"><defs><style>.cls-1{fill:#84af9b;}.cls-2{fill:#fff;}</style></defs><title>Asset 2</title><g id="Layer_2" data-name="Layer 2"><g id="Layer_1-2" data-name="Layer 1"><path class="cls-1" d="M256.49,170.13V15.5A15.5,15.5,0,0,0,241,0H15.5A15.5,15.5,0,0,0,0,15.5V170.13Z"/><path class="cls-2" d="M64.73,97.77a61.48,61.48,0,0,1,6.32-.21c6.28,0,10.12,4,10.12,9.4s-3,9.53-10.35,9.53a45.32,45.32,0,0,1-6.28-.37C64.41,114.53,64.46,100.18,64.73,97.77ZM71.19,103c-.32,0-.72,0-1,0,0,2.44,0,5.67,0,8.1a7.82,7.82,0,0,0,1.27.08c1.56,0,3.68-.53,3.68-4A3.89,3.89,0,0,0,71.19,103Z"/><path class="cls-2" d="M89.11,97.88c.18.31-.27,6.85-.27,9.74,0,2.49.66,3.31,2.23,3.31,1.82,0,2.19-1.35,2.19-3.21,0-2.88-.21-8.52-.23-10,.34-.24,6.19-.48,6.24-.21.11.48.22,7.83.22,10.67,0,4.71-1.67,8.55-8.32,8.55-5.19,0-8.31-2.3-8.31-8.31,0-2.28.18-9,.42-10.41C83.36,97.43,89,97.69,89.11,97.88Z"/><path class="cls-2" d="M114,106.64a4.34,4.34,0,0,1,3.33,4.58c0,3.57-2.86,5.13-7.62,5.13-2.59,0-7.33-.21-7.47-.31S101.92,98.19,102,98a44.62,44.62,0,0,1,5.61-.32c4.21,0,8.45.9,8.45,5a3.83,3.83,0,0,1-2,3.79Zm-6.41-1.91a3.2,3.2,0,0,0,.53,0c1.43,0,2.2-.5,2.2-1.46s-1.25-1.27-2.09-1.27a5.19,5.19,0,0,0-.61,0C107.61,102.48,107.61,104.73,107.61,104.73Zm.27,7a8.73,8.73,0,0,0,1.08.08c1.64,0,2.25-.64,2.25-1.54,0-1.06-.92-1.51-2.38-1.51-.29,0-.61,0-.93.06C107.88,109.23,107.88,111.75,107.88,111.75Z"/><path class="cls-2" d="M129.24,113c-.29,0-4-.06-4.55-.08a31.43,31.43,0,0,1-1,3.52,42.8,42.8,0,0,1-6.15-.51c.48-1.8,5.38-18,5.62-18.18a62.15,62.15,0,0,1,7.49-.19c.08,0,5.29,14.91,5.9,18.37a42.64,42.64,0,0,1-6.09.56C130.35,116.43,129.43,113.68,129.24,113Zm-2.25-10c-.37,1.33-1.24,4.77-1.51,5.56.48,0,2.33,0,3.2,0-.31-.95-1.16-4.31-1.53-5.58Z"/><path class="cls-2" d="M138,116.28c-.14-1.59,0-16,.26-18.46,1.77-.16,4.66-.26,6.62-.26,5.35,0,8.42,2.06,8.42,6.54,0,2.64-1.09,4.23-3,5.13a33.15,33.15,0,0,1,3.65,5.51,14.85,14.85,0,0,1-5.08,2c-.08,0-2.22-3.63-4.31-6.49h-.8c0,2.44-.05,5.27-.16,6A33,33,0,0,1,138,116.28Zm7.36-10.46c1.29,0,2.11-.45,2.11-1.56s-.45-1.65-2.33-1.65a5.88,5.88,0,0,0-1,.06c0,1,0,2.14,0,3.09C144.41,105.79,145,105.82,145.34,105.82Z"/><path class="cls-2" d="M166,113c-.29,0-4-.06-4.55-.08a29.26,29.26,0,0,1-1,3.52,42.55,42.55,0,0,1-6.14-.51c.48-1.8,5.38-18,5.61-18.18a62.21,62.21,0,0,1,7.49-.19c.08,0,5.3,14.91,5.91,18.37a42.77,42.77,0,0,1-6.09.56A35.65,35.65,0,0,1,166,113Zm-2.25-10c-.37,1.33-1.25,4.77-1.51,5.56.48,0,2.33,0,3.2,0-.32-.95-1.16-4.31-1.53-5.58Z"/><path class="cls-2" d="M185.92,116.28c0-.61-.11-3.24-.13-6.28-1.59,0-3.34,0-4.9,0,0,2.64,0,5.11-.08,6.35-1.11.24-5.9.32-5.93,0-.16-1.08-.4-17.23-.16-18.66.08-.56,5.8-.29,5.9-.11s.16,3.34.22,7c1.58,0,3.33,0,4.95,0,0-3.07.08-5.88.18-6.81a29.06,29.06,0,0,1,5.88,0c.21.16.18,17.39,0,18.4C191.66,116.72,186,116.49,185.92,116.28Z"/><path class="cls-2" d="M53.35,135c2.58.52,5,2.86,5,6.87,0,5.36-4.28,7.71-11.43,7.71-3.89,0-11-.32-11.2-.48s-.51-26.76-.39-27.08,7.62-.48,8.41-.48c6.32,0,12.67,1.35,12.67,7.55,0,3.21-1.23,4.56-3.06,5.68Zm-9.61-2.85a7.13,7.13,0,0,0,.8,0c2.14,0,3.29-.75,3.29-2.18s-1.86-1.9-3.13-1.9a5,5,0,0,0-.92.08C43.74,128.72,43.74,132.1,43.74,132.1Zm.4,10.52a12.52,12.52,0,0,0,1.63.12c2.46,0,3.37-1,3.37-2.31,0-1.59-1.39-2.26-3.57-2.26-.44,0-.91,0-1.39.08C44.14,138.84,44.14,142.62,44.14,142.62Z"/><path class="cls-2" d="M69.91,121.81c.28.48-.39,10.29-.39,14.61,0,3.74,1,5,3.33,5,2.74,0,3.3-2,3.3-4.81,0-4.33-.32-12.78-.36-15.05.51-.35,9.29-.71,9.37-.31.16.71.32,11.75.32,16C85.48,144.28,83,150,73,150c-7.78,0-12.47-3.45-12.47-12.47,0-3.41.28-13.45.64-15.6C61.3,121.14,69.75,121.53,69.91,121.81Z"/><path class="cls-2" d="M88.06,147c-.2-.79,2-7.22,2.46-7.06.84.27,4.09,2.46,7.35,2.46,1.78,0,2.66-.44,2.66-1.31s-.48-1.47-4.09-2.15c-5.12-.95-8.22-3.33-8.22-9.09,0-4.72,3.85-8.77,11-8.77,4.33,0,8.22,1,9.77,2.22.59.44-2.19,6.79-2.63,6.83-.27.08-3.45-1.55-7-1.55-1.75,0-2.47.48-2.47,1.15,0,1,.64,1.19,4,1.91,4.65,1,9,2.94,9,8.93,0,3.93-3.1,8.94-11.67,8.94A21.69,21.69,0,0,1,88.06,147Z"/><path class="cls-2" d="M121.57,121.65c.32.24.28,26.09-.08,27.6-.19.83-8.73.47-8.77.16-.2-2.39-.32-24.06.08-27.68A44.67,44.67,0,0,1,121.57,121.65Z"/><path class="cls-2" d="M142.78,149.45c-.84-1-4.61-7.67-8.3-13.38,0,5.16.28,10.6.16,12.94-1.67.36-8.54.4-8.58,0-.24-1.63-.36-25,0-27.12.12-.83,8-.83,8.14-.55.56.87,5.4,8.53,8.5,14.57,0-5.84-.2-12.43,0-14.14a40.63,40.63,0,0,1,8.53,0c.32.24,0,25.53-.31,27C150.72,149.64,143.33,149.76,142.78,149.45Z"/><path class="cls-2" d="M175.18,149.41c.44.23-15.48.23-19.73-.08-.2-2.82.08-22,.35-27.76,4.49-.27,19.62-.31,19.74-.08a33.7,33.7,0,0,1,0,7.43c-1.47.16-8.14.12-11.56,0l.08,2.66c4,0,8.22.08,8.46.32.44.43.08,6.83.08,7s-4.37.24-8.58.12v3c3.58-.12,9.77-.12,11.16,0A31.81,31.81,0,0,1,175.18,149.41Z"/><path class="cls-2" d="M177.57,147c-.2-.79,2-7.22,2.46-7.06.83.27,4.09,2.46,7.34,2.46,1.79,0,2.66-.44,2.66-1.31s-.47-1.47-4.09-2.15c-5.12-.95-8.22-3.33-8.22-9.09,0-4.72,3.86-8.77,11-8.77,4.33,0,8.22,1,9.77,2.22.59.44-2.18,6.79-2.62,6.83-.28.08-3.46-1.55-7-1.55-1.75,0-2.46.48-2.46,1.15,0,1,.63,1.19,4,1.91,4.64,1,9,2.94,9,8.93,0,3.93-3.09,8.94-11.67,8.94A21.6,21.6,0,0,1,177.57,147Z"/><path class="cls-2" d="M200.79,147c-.19-.79,2-7.22,2.47-7.06.83.27,4.09,2.46,7.34,2.46,1.79,0,2.66-.44,2.66-1.31s-.48-1.47-4.09-2.15c-5.12-.95-8.22-3.33-8.22-9.09,0-4.72,3.85-8.77,11-8.77,4.33,0,8.22,1,9.77,2.22.59.44-2.19,6.79-2.62,6.83-.28.08-3.46-1.55-7-1.55-1.75,0-2.46.48-2.46,1.15,0,1,.63,1.19,4,1.91,4.64,1,9,2.94,9,8.93,0,3.93-3.1,8.94-11.67,8.94A21.69,21.69,0,0,1,200.79,147Z"/><path id="shop" class="cls-2" d="M149.75,43.38l-4.19-5.58a3.47,3.47,0,0,0-.56-.59V30.53a2.79,2.79,0,0,0-2.79-2.79H114.28a2.79,2.79,0,0,0-2.79,2.79v6.68a3.91,3.91,0,0,0-.56.59l-4.19,5.58a4.22,4.22,0,0,0-.84,2.52v1.39a4.2,4.2,0,0,0,4.19,4.19h0V69.64a2.79,2.79,0,0,0,2.79,2.79h30.73a2.79,2.79,0,0,0,2.79-2.79V51.48h0a4.2,4.2,0,0,0,4.19-4.19V45.9A4.22,4.22,0,0,0,149.75,43.38Zm-7.54-12.85v5.59H114.28V30.53ZM120.14,48.69h-5.85l5.58-9.78h3.06Zm4.24-9.78h3.17v9.78h-6Zm4.56,0h3.17l2.79,9.78h-6Zm4.62,0h3.06l5.58,9.78h-5.85Zm-24.87,8.38V45.9a1.39,1.39,0,0,1,.28-.84l4.19-5.59a1.42,1.42,0,0,1,1.12-.56h4l-5.58,9.78h-2.59A1.4,1.4,0,0,1,108.69,47.29Zm25.14,22.35H123.36v-14h10.47Zm9.78,0h-8.38v-14a1.4,1.4,0,0,0-1.4-1.39H123.36a1.4,1.4,0,0,0-1.4,1.39v14h-9.08V51.48h30.73Zm4.19-22.35a1.4,1.4,0,0,1-1.4,1.4h-2.59l-5.58-9.78h4a1.42,1.42,0,0,1,1.12.56l4.19,5.59a1.39,1.39,0,0,1,.28.84Z"/></g></g></svg>