<svg xmlns="http://www.w3.org/2000/svg" viewBox="0 0 256.49 170.13"><defs><style>.cls-1{fill:#00829b;}.cls-2,.cls-3{fill:#fff;}.cls-3{fill-rule:evenodd;}</style></defs><title>Asset 1</title><g id="Layer_2" data-name="Layer 2"><g id="Layer_1-2" data-name="Layer 1"><path class="cls-1" d="M256.49,170.13V15.5A15.5,15.5,0,0,0,241,0H15.5A15.5,15.5,0,0,0,0,15.5V170.13Z"/><path class="cls-2" d="M64.72,96.37a61.7,61.7,0,0,1,6.33-.21c6.28,0,10.12,4,10.12,9.4s-3,9.53-10.36,9.53a43.7,43.7,0,0,1-6.27-.37C64.41,113.13,64.46,98.78,64.72,96.37Zm6.46,5.22c-.31,0-.71,0-1,0,0,2.43,0,5.66,0,8.1a9.15,9.15,0,0,0,1.27.08c1.56,0,3.68-.53,3.68-4A3.9,3.9,0,0,0,71.18,101.59Z"/><path class="cls-2" d="M89.11,96.48c.18.32-.27,6.86-.27,9.74,0,2.49.66,3.31,2.23,3.31,1.82,0,2.19-1.35,2.19-3.2,0-2.89-.21-8.53-.24-10,.35-.23,6.2-.47,6.25-.21.11.48.21,7.84.21,10.67,0,4.71-1.66,8.55-8.31,8.55-5.19,0-8.31-2.3-8.31-8.31,0-2.28.18-9,.42-10.41C83.36,96,89,96.29,89.11,96.48Z"/><path class="cls-2" d="M114,105.24a4.36,4.36,0,0,1,3.33,4.58c0,3.58-2.86,5.14-7.62,5.14-2.6,0-7.34-.21-7.47-.32s-.34-17.84-.26-18.06a44.76,44.76,0,0,1,5.61-.31c4.21,0,8.45.9,8.45,5a3.84,3.84,0,0,1-2,3.78Zm-6.41-1.9a4.7,4.7,0,0,0,.53,0c1.43,0,2.2-.5,2.2-1.45s-1.25-1.27-2.09-1.27a3.58,3.58,0,0,0-.61,0C107.61,101.09,107.61,103.34,107.61,103.34Zm.27,7a8.73,8.73,0,0,0,1.08.08c1.64,0,2.25-.63,2.25-1.53,0-1.06-.93-1.51-2.38-1.51-.29,0-.61,0-.93,0C107.88,107.84,107.88,110.35,107.88,110.35Z"/><path class="cls-2" d="M129.24,111.57c-.29,0-4,0-4.55-.08a28.72,28.72,0,0,1-1,3.52,42.48,42.48,0,0,1-6.14-.5c.48-1.8,5.38-18,5.61-18.19a62.32,62.32,0,0,1,7.5-.19c.08,0,5.29,14.91,5.9,18.38a42.47,42.47,0,0,1-6.09.55C130.35,115,129.43,112.28,129.24,111.57Zm-2.25-10c-.37,1.32-1.25,4.76-1.51,5.55.48,0,2.33,0,3.2,0-.31-1-1.16-4.31-1.53-5.58Z"/><path class="cls-2" d="M138,114.88c-.13-1.59,0-16,.27-18.45,1.77-.16,4.66-.27,6.62-.27,5.35,0,8.42,2.07,8.42,6.54,0,2.65-1.09,4.24-3,5.14a34.49,34.49,0,0,1,3.65,5.5,14.46,14.46,0,0,1-5.08,2c-.08,0-2.23-3.63-4.32-6.48h-.79c0,2.43-.05,5.26-.16,6A33.12,33.12,0,0,1,138,114.88Zm7.36-10.46c1.3,0,2.12-.45,2.12-1.56s-.45-1.64-2.33-1.64a7,7,0,0,0-1,0c0,1,0,2.15,0,3.1C144.41,104.39,145,104.42,145.33,104.42Z"/><path class="cls-2" d="M166,111.57c-.29,0-4,0-4.56-.08a27.2,27.2,0,0,1-1,3.52,42.48,42.48,0,0,1-6.14-.5c.48-1.8,5.37-18,5.61-18.19a62.21,62.21,0,0,1,7.49-.19c.08,0,5.3,14.91,5.91,18.38a42.59,42.59,0,0,1-6.09.55A34.73,34.73,0,0,1,166,111.57Zm-2.25-10c-.37,1.32-1.25,4.76-1.51,5.55.47,0,2.33,0,3.2,0-.32-1-1.16-4.31-1.53-5.58C163.81,101.51,163.76,101.54,163.71,101.54Z"/><path class="cls-2" d="M185.92,114.88c-.06-.61-.11-3.23-.13-6.28-1.59,0-3.34,0-4.9,0,0,2.65,0,5.11-.08,6.36-1.11.23-5.91.31-5.93,0-.16-1.09-.4-17.24-.16-18.67.08-.55,5.8-.29,5.9-.1s.16,3.33.21,7c1.59,0,3.34,0,5,0,0-3.07.07-5.88.18-6.8a29.18,29.18,0,0,1,5.88-.06c.21.16.18,17.4-.06,18.4C191.66,115.33,185.94,115.09,185.92,114.88Z"/><path class="cls-2" d="M82,138.92a6.37,6.37,0,0,0,3.46,1.39c1.31,0,2.54-.68,2.54-3.26,0-4.76-.4-12.9-.32-16.67,1.67-.36,8.46-.68,8.78-.44s.43,11.51.43,17.91c0,6.9-3.37,10.6-9.8,10.6-4.29,0-6.75-1.16-8.1-2.5C78.83,145.35,81.17,139.63,82,138.92Z"/><path class="cls-2" d="M127.83,134.55c0,7.07-4.53,14.09-14.14,14.09-8.61,0-14.21-5.67-14.21-15,0-7.15,4.76-14.1,14.09-14.1C122.11,119.58,127.83,125.26,127.83,134.55Zm-14.18-7c-3.14,0-5.08,2.46-5.08,6.63,0,3.77,2,6.43,4.92,6.43,3.26,0,5-2.42,5-6.63C118.46,129.27,116.31,127.52,113.65,127.52Z"/><path class="cls-2" d="M148.67,133.56c2.58.51,5,2.86,5,6.87,0,5.36-4.29,7.7-11.44,7.7-3.89,0-11-.32-11.19-.48s-.52-26.76-.4-27.08,7.62-.47,8.42-.47c6.31,0,12.66,1.35,12.66,7.54,0,3.22-1.23,4.57-3.06,5.68Zm-9.6-2.86a5.16,5.16,0,0,0,.79,0c2.14,0,3.29-.76,3.29-2.19s-1.86-1.9-3.13-1.9a6.06,6.06,0,0,0-.92.08C139.07,127.32,139.07,130.7,139.07,130.7Zm.39,10.52a12.52,12.52,0,0,0,1.63.12c2.46,0,3.38-1,3.38-2.3,0-1.59-1.39-2.27-3.58-2.27-.43,0-.91,0-1.39.08C139.46,137.45,139.46,141.22,139.46,141.22Z"/><path class="cls-2" d="M155,145.59c-.2-.8,2-7.23,2.46-7.07.84.28,4.09,2.46,7.35,2.46,1.78,0,2.66-.44,2.66-1.31s-.48-1.47-4.09-2.14c-5.12-.95-8.22-3.34-8.22-9.09,0-4.73,3.85-8.78,11-8.78,4.32,0,8.22,1,9.76,2.22.6.44-2.18,6.79-2.62,6.83-.27.08-3.45-1.54-7-1.54-1.75,0-2.47.47-2.47,1.15,0,1,.64,1.19,4,1.9,4.65,1,9,2.94,9,8.94,0,3.93-3.1,8.93-11.68,8.93A21.82,21.82,0,0,1,155,145.59Z"/><g id="note"><path class="cls-3" d="M149.77,38.34,141.39,30a2.75,2.75,0,0,0-2-.82H110.09a4.2,4.2,0,0,0-4.19,4.19V66.84A4.2,4.2,0,0,0,110.09,71H146.4a4.2,4.2,0,0,0,4.19-4.19V40.31A2.75,2.75,0,0,0,149.77,38.34Zm-2,28.5a1.4,1.4,0,0,1-1.4,1.4H110.09a1.4,1.4,0,0,1-1.4-1.4V33.33a1.4,1.4,0,0,1,1.4-1.4H138v5.59h0a4.2,4.2,0,0,0,4.19,4.19h5.59Zm-4.19-26.53h-1.4a2.79,2.79,0,0,1-2.79-2.79h0V31.93l8.38,8.38Z"/><path class="cls-3" d="M127.55,38.91h7a.7.7,0,1,0,0-1.39h-7a.7.7,0,1,0,0,1.39Z"/><path class="cls-3" d="M127.55,43.1h7a.7.7,0,1,0,0-1.39h-7a.7.7,0,1,0,0,1.39Z"/><path class="cls-3" d="M126.85,46.59a.7.7,0,0,0,.7.7h16.76a.7.7,0,0,0,0-1.39H127.55A.69.69,0,0,0,126.85,46.59Z"/><path class="cls-3" d="M144.31,54.28H112.19a.7.7,0,1,0,0,1.39h32.12a.7.7,0,0,0,0-1.39Z"/><path class="cls-3" d="M144.31,58.47H112.19a.7.7,0,1,0,0,1.39h32.12a.7.7,0,0,0,0-1.39Z"/><path class="cls-3" d="M144.31,62.65H112.19a.7.7,0,0,0,0,1.4h32.12a.7.7,0,0,0,0-1.4Z"/><path class="cls-3" d="M144.31,50.09H112.19a.7.7,0,1,0,0,1.39h32.12a.7.7,0,0,0,0-1.39Z"/><path class="cls-3" d="M112.88,47.29h9.78a1.4,1.4,0,0,0,1.4-1.39V37.52a1.4,1.4,0,0,0-1.4-1.4h-9.78a1.4,1.4,0,0,0-1.39,1.4V45.9A1.39,1.39,0,0,0,112.88,47.29Zm1.4-8.38h7V44.5h-7Z"/></g></g></g></svg>