<svg id="Layer_1" data-name="Layer 1" xmlns="http://www.w3.org/2000/svg" viewBox="0 0 337.77 118.6"><title>dus_logo</title><path d="M951.27,731.73h13v24.09h.18c3.2-4.9,9.06-7.13,14.91-7.13,9.43,0,19.59,7.69,19.59,25.21s-10.16,25.3-19.59,25.3c-6.95,0-12.72-2.13-15.56-7.42h-.18v6.11H951.27Zm23.61,26.88c-7.68,0-11.07,7.23-11.07,15.38,0,8,3.39,15.29,11.07,15.29S985.95,782,985.95,774C985.95,765.84,982.56,758.6,974.88,758.6Z" transform="translate(-838.82 -731.7)" fill="#fff"/><path d="M1001.15,764.88c.71-12.23,11.61-16,22.23-16,9.41,0,20.76,2.13,20.76,13.62v24.93c0,4.35.46,8.7,1.64,10.65h-13.17a20,20,0,0,1-.92-4.64c-4.11,4.36-10.06,5.93-15.91,5.93-9.06,0-16.1-4.53-16.1-14.35.18-21.78,32-10.11,31.48-20.85,0-5.56-3.84-6.49-8.42-6.49-5,0-8.14,2-8.6,7.23Zm30,9.73c-2.2,2-6.77,2-10.79,2.78s-7.69,2.23-7.69,7,3.75,6.12,8,6.12c10.16,0,10.52-8.06,10.52-11Z" transform="translate(-838.82 -731.7)" fill="#fff"/><path d="M1048.71,750h12.35v8.9h.18a16.63,16.63,0,0,1,15.1-10.2,9.63,9.63,0,0,1,2.83.47v12.23a23.85,23.85,0,0,0-4.66-.46c-9.61,0-12.8,6.86-12.8,15.38v21.59h-13Z" transform="translate(-838.82 -731.7)" fill="#fff"/><path d="M1080.09,764.74c.73-12.23,11.62-16,22.24-16,9.42,0,20.77,2.13,20.77,13.62v24.92c0,4.37.46,8.71,1.64,10.66h-13.18a20.48,20.48,0,0,1-.91-4.64c-4.11,4.36-10.06,5.94-15.91,5.94-9.06,0-16.11-4.54-16.11-14.37.18-21.77,32-10.09,31.48-20.84,0-5.57-3.84-6.49-8.42-6.49-5,0-8.13,2-8.59,7.22Zm30,9.73c-2.2,1.94-6.76,2-10.8,2.78s-7.67,2.22-7.67,7,3.75,6.12,8,6.12c10.15,0,10.52-8.06,10.52-11Z" transform="translate(-838.82 -731.7)" fill="#fff"/><path d="M1127.67,731.73h13v24.94h.26a16.35,16.35,0,0,1,13.82-8c13.81,0,17.3,7.88,17.3,19.75v29.45h-13V770.83c0-7.88-2.2-11.77-8.33-11.77-7.05,0-10.05,4-10.05,13.71v25.1h-13Z" transform="translate(-838.82 -731.7)" fill="#fff"/><path d="M892,739.37l5.82-.95,6,38.36c2.24,14.32,9.72,18.8,21,17S942,785.32,939.72,771l-6-38.35,5.82-.94,6.24,39.65c2,12.76-3.06,24.69-20.11,27.44-16.88,2.73-25.45-7-27.44-19.77Z" transform="translate(-838.82 -731.7)" fill="#fff"/><path d="M910.81,801.07c13.93,0,21.5,11.21,21.48,24.48S924.68,850,910.75,850s-21.5-11.21-21.48-24.48S896.89,801.06,910.81,801.07Zm-.06,47.6c12.55,0,20-9.71,20.23-23.12-.18-13.4-7.62-23.15-20.17-23.17s-20,9.71-20.23,23.12C890.76,838.9,898.13,848.65,910.75,848.67Z" transform="translate(-838.82 -731.7)" fill="#fff"/><path d="M966.39,847.63v1.31l-28.57,0,.06-46.68h1.31l-.06,45.37Z" transform="translate(-838.82 -731.7)" fill="#fff"/><path d="M1002.27,802.3h1.31l0,29.29c0,12.49-6.11,18.49-17.15,18.48s-17.12-6-17.11-18.52l0-29.29h1.31l0,29.29c0,11.18,5.08,17.2,15.8,17.22s15.83-6,15.84-17.17Z" transform="translate(-838.82 -731.7)" fill="#fff"/><path d="M1006,803.62v-1.31l34.91,0v1.31l-16.8,0L1024,849h-1.31l.06-45.37Z" transform="translate(-838.82 -731.7)" fill="#fff"/><path d="M1043.32,802.36h1.31l-.06,46.68h-1.31Z" transform="translate(-838.82 -731.7)" fill="#fff"/><path d="M1071.76,801.28c13.93,0,21.5,11.21,21.48,24.48s-7.62,24.44-21.54,24.42-21.5-11.21-21.48-24.48S1057.84,801.27,1071.76,801.28Zm-.06,47.6c12.55,0,20-9.72,20.23-23.12-.18-13.4-7.62-23.16-20.17-23.17s-20,9.72-20.23,23.12C1051.71,839.11,1059.08,848.86,1071.7,848.88Z" transform="translate(-838.82 -731.7)" fill="#fff"/><path d="M1098.83,802.43h2l31.85,45.09h.13l.06-45h1.31l-.06,46.68h-2l-31.85-45.09h-.13l-.06,45h-1.31Z" transform="translate(-838.82 -731.7)" fill="#fff"/><path d="M1174.26,813.57c-.33-10.11-7.11-13.64-16-13.66-6.92,0-15.51,2.47-15.52,11.33s8.57,10,17,12c9.2,2.44,16.88,3.48,16.87,13.8,0,9.34-8.95,13.28-17.46,13.27-11.28,0-19.51-5.15-19.29-17.6h1.38c0,11.84,7.39,16.21,17.91,16.22,7.75,0,16.06-3.37,16.07-12,0-10-9.68-10.81-17.29-12.69-8-1.81-16.61-3.34-16.59-13s8.94-12.72,16.9-12.71c9.69,0,16.88,4,17.42,15Z" transform="translate(-838.82 -731.7)" fill="#fff"/><path d="M856.74,803.42l9.27-1.5c1.63-.26,3.13-.59,4.57-1a28.4,28.4,0,0,0-3.2-.18C863.78,800.78,859.74,801.47,856.74,803.42Z" transform="translate(-838.82 -731.7)" fill="#fff"/><path d="M893,771c-3.23-20.49-14.41-29-33-26.46l-21.15,3.41,9.74,62,2.56-.41a10.36,10.36,0,0,1,2.82-5.62l-.35.06L845.44,752l12.42-2c17.57-2.84,26.35,3.31,29.27,21.88,2.45,15.63-1.77,24.18-13.64,28.19q-1.38.47-2.91.85c-1.44.37-2.94.7-4.57,1l-9.27,1.5a9.3,9.3,0,0,0-4.19,5.84l17.17-2.77a41.1,41.1,0,0,0,8.77-2.59c.46-.2.91-.41,1.35-.63C891,797.83,895.5,787.19,893,771Z" transform="translate(-838.82 -731.7)" fill="#fff"/><path d="M883,814.1h1.35c-.24-5-1.9-8.51-4.53-10.84-.44.22-.89.43-1.35.63C881.18,806,882.86,809.27,883,814.1Z" transform="translate(-838.82 -731.7)" fill="#fff"/><path d="M868.83,823.53c-8.23-2-16.6-3-16.59-11.7a11.35,11.35,0,0,1,.3-2.57,9.3,9.3,0,0,1,4.19-5.84c3-1.94,7-2.64,10.64-2.63a28.4,28.4,0,0,1,3.2.18q1.52-.39,2.91-.85a26.22,26.22,0,0,0-6.11-.68c-4.92,0-10.22,1.16-13.44,4.44a10.36,10.36,0,0,0-2.82,5.62,13.5,13.5,0,0,0-.22,2.34c0,9.45,8.36,10.95,16.18,12.71,7.42,1.83,16.87,2.65,16.86,12.37,0,8.37-8.11,11.67-15.67,11.66-10.26,0-17.48-4.28-17.46-15.82h-1.35c-.22,12.15,7.81,17.15,18.81,17.17,8.3,0,17-3.82,17-12.94C885.3,826.93,877.81,825.91,868.83,823.53Z" transform="translate(-838.82 -731.7)" fill="#fff"/></svg>