<svg xmlns="http://www.w3.org/2000/svg" viewBox="0 0 256.49 170.13"><defs><style>.cls-1{fill:#43474a;}.cls-2{fill:#fff;}.cls-3{fill:#f7c624;}.cls-4{fill:#45c7f0;}.cls-5{fill:#eb713b;}.cls-6{fill:#efb532;}.cls-7{fill:#595858;}.cls-8{fill:none;}.cls-9{fill:#e8442c;}</style></defs><title>Asset 4</title><g id="Layer_2" data-name="Layer 2"><g id="Layer_1-2" data-name="Layer 1"><path class="cls-1" d="M256.49,170.13V15.5A15.5,15.5,0,0,0,241,0H15.5A15.5,15.5,0,0,0,0,15.5V170.13Z"/><path class="cls-2" d="M97.29,62.29h7.22V75.68h.11c1.77-2.72,5-4,8.29-4,5.24,0,10.89,4.27,10.89,14S118.15,99.8,112.91,99.8c-3.87,0-7.08-1.19-8.65-4.13h-.1v3.4H97.29Zm13.12,14.94c-4.27,0-6.15,4-6.15,8.55s1.88,8.51,6.15,8.51,6.16-4.07,6.16-8.51S114.69,77.23,110.41,77.23Z"/><path class="cls-2" d="M125,80.72c.4-6.8,6.46-8.91,12.36-8.91,5.24,0,11.55,1.19,11.55,7.58V93.25c0,2.42.25,4.84.91,5.92h-7.32a10.73,10.73,0,0,1-.51-2.58,11.91,11.91,0,0,1-8.85,3.3c-5,0-9-2.52-9-8,.1-12.11,17.81-5.62,17.5-11.6,0-3.09-2.13-3.61-4.68-3.61-2.79,0-4.52,1.14-4.78,4Zm16.68,5.41c-1.22,1.09-3.76,1.14-6,1.55s-4.28,1.24-4.28,3.91S133.51,95,135.86,95c5.64,0,5.84-4.48,5.84-6.13Z"/><path class="cls-2" d="M151.47,72.44h6.87v5h.1a9.24,9.24,0,0,1,8.4-5.67,5.17,5.17,0,0,1,1.57.26v6.8a13.26,13.26,0,0,0-2.59-.26c-5.34,0-7.12,3.81-7.12,8.55v12h-7.23Z"/><path class="cls-2" d="M168.92,80.64c.41-6.8,6.46-8.91,12.37-8.91,5.23,0,11.54,1.18,11.54,7.57V93.16c0,2.43.26,4.84.92,5.93h-7.33a11.68,11.68,0,0,1-.51-2.58c-2.28,2.42-5.59,3.3-8.85,3.3-5,0-8.95-2.52-8.95-8,.1-12.11,17.8-5.61,17.5-11.59,0-3.09-2.14-3.6-4.68-3.6-2.8,0-4.53,1.13-4.78,4Zm16.69,5.41c-1.22,1.09-3.76,1.14-6,1.55s-4.27,1.24-4.27,3.91,2.09,3.41,4.43,3.41c5.64,0,5.85-4.48,5.85-6.14Z"/><path class="cls-2" d="M195.38,62.29h7.23V76.15h.14a9.1,9.1,0,0,1,7.69-4.43c7.68,0,9.61,4.38,9.61,11V99.07h-7.22V84c0-4.38-1.23-6.54-4.63-6.54-3.92,0-5.59,2.21-5.59,7.63V99.07h-7.23Z"/><path class="cls-2" d="M64.31,66.54,67.55,66l3.36,21.33c1.25,8,5.4,10.46,11.69,9.44s9.52-4.69,8.27-12.66L87.51,62.8l3.24-.53,3.47,22c1.12,7.1-1.7,13.74-11.18,15.26s-14.15-3.9-15.26-11Z"/><path class="cls-3" d="M74.79,100.85c7.75,0,11.95,6.23,11.94,13.61s-4.23,13.59-12,13.58-12-6.23-12-13.61S67.05,100.84,74.79,100.85Zm0,26.46c7,0,11.13-5.4,11.25-12.85-.1-7.45-4.24-12.88-11.22-12.89S63.66,107,63.54,114.43C63.64,121.88,67.74,127.31,74.76,127.31Z"/><path class="cls-4" d="M105.69,126.74v.72l-15.88,0,0-25.95h.73l0,25.23Z"/><path class="cls-5" d="M125.65,101.53h.72l0,16.29c0,6.94-3.39,10.28-9.53,10.28s-9.53-3.36-9.52-10.3l0-16.29h.73l0,16.29c0,6.21,2.82,9.56,8.79,9.57s8.8-3.33,8.81-9.55Z"/><path class="cls-6" d="M127.72,102.26v-.72l19.41,0v.73h-9.34l0,25.23H137l0-25.24Z"/><path class="cls-7" d="M148.48,101.56h.72l0,26h-.73Z"/><path class="cls-4" d="M164.29,101c7.74,0,12,6.23,11.94,13.61s-4.23,13.59-12,13.58-11.95-6.23-11.94-13.61S156.55,101,164.29,101Zm0,26.46c7,0,11.13-5.4,11.25-12.85-.1-7.46-4.24-12.88-11.22-12.89s-11.13,5.4-11.25,12.86C153.14,122,157.24,127.42,164.26,127.43Z"/><path class="cls-5" d="M179.34,101.6h1.09l17.71,25.08h.07l0-25.05H199l0,26h-1.09l-17.71-25.07h-.08l0,25h-.73Z"/><path class="cls-6" d="M221.29,107.8c-.19-5.62-4-7.59-8.92-7.6-3.85,0-8.63,1.38-8.63,6.3s4.76,5.55,9.46,6.67c5.11,1.36,9.38,1.94,9.38,7.68,0,5.19-5,7.38-9.71,7.37-6.27,0-10.85-2.86-10.73-9.79h.77c0,6.58,4.11,9,10,9,4.31,0,8.93-1.87,8.94-6.64,0-5.55-5.38-6-9.61-7.06-4.47-1-9.24-1.86-9.23-7.25s5-7.07,9.4-7.07c5.39,0,9.39,2.21,9.69,8.37Z"/><path class="cls-8" d="M44.72,102.15l5.16-.83c.9-.15,1.74-.33,2.54-.53a14.7,14.7,0,0,0-1.78-.1A11.11,11.11,0,0,0,44.72,102.15Z"/><path class="cls-2" d="M64.86,84.12c-1.79-11.4-8-16.14-18.34-14.72L34.76,71.3l5.41,34.46,1.43-.23a5.76,5.76,0,0,1,1.56-3.13l-.19,0L38.44,73.58l6.9-1.11C55.11,70.89,60,74.31,61.62,84.63c1.37,8.7-1,13.45-7.58,15.68-.52.17-1,.33-1.62.48-.8.2-1.64.38-2.54.53l-5.16.83a5.16,5.16,0,0,0-2.33,3.25l9.55-1.54a22.74,22.74,0,0,0,4.88-1.45c.26-.11.5-.23.75-.35C63.76,99,66.28,93.13,64.86,84.12Z"/><path class="cls-9" d="M59.34,108.09h.75a8.22,8.22,0,0,0-2.52-6c-.25.12-.49.24-.75.35A7.08,7.08,0,0,1,59.34,108.09Z"/><path class="cls-9" d="M51.45,113.34c-4.58-1.1-9.23-1.67-9.23-6.51a6.37,6.37,0,0,1,.17-1.43,5.16,5.16,0,0,1,2.33-3.25,11.11,11.11,0,0,1,5.92-1.46,14.7,14.7,0,0,1,1.78.1c.57-.15,1.1-.31,1.62-.48a15.19,15.19,0,0,0-3.4-.38c-2.74,0-5.68.65-7.48,2.47a5.76,5.76,0,0,0-1.56,3.13,6.66,6.66,0,0,0-.13,1.3c0,5.25,4.65,6.09,9,7.07,4.13,1,9.38,1.47,9.37,6.88,0,4.65-4.51,6.49-8.71,6.48-5.71,0-9.72-2.38-9.71-8.8h-.75C40.55,125.22,45,128,51.13,128c4.61,0,9.46-2.13,9.47-7.19C60.6,115.22,56.44,114.66,51.45,113.34Z"/></g></g></svg>