<svg id="Layer_1" data-name="Layer 1" xmlns="http://www.w3.org/2000/svg" viewBox="0 0 68.95 26"><title>edit_p</title><text transform="translate(33 19.35)" font-size="19.66" fill="#222" font-family="HelveticaNeue, HelveticaNeue" letter-spacing="0em">E<tspan x="9.59" y="0" letter-spacing="0em">dit </tspan></text><g id="settings"><path d="M837.83,303.21l-2.49-.5a9.81,9.81,0,0,0-.44-1l1.41-2.12a1.62,1.62,0,0,0-.2-2.05l-1.56-1.56a1.62,1.62,0,0,0-2.05-.2l-2.12,1.41a9.82,9.82,0,0,0-1-.44l-.5-2.49a1.62,1.62,0,0,0-1.59-1.31H825a1.63,1.63,0,0,0-1.59,1.31l-.5,2.49a9.82,9.82,0,0,0-1,.44l-2.12-1.41a1.63,1.63,0,0,0-2.05.2l-1.56,1.56a1.62,1.62,0,0,0-.2,2.05l1.41,2.12a9.74,9.74,0,0,0-.44,1l-2.49.5a1.62,1.62,0,0,0-1.31,1.59V307a1.62,1.62,0,0,0,1.31,1.59l2.49.5a9.81,9.81,0,0,0,.44,1L816,312.27a1.62,1.62,0,0,0,.2,2.05l1.56,1.56a1.63,1.63,0,0,0,2.05.2l2.12-1.41a9.66,9.66,0,0,0,1,.44l.5,2.49a1.63,1.63,0,0,0,1.59,1.31h2.21a1.62,1.62,0,0,0,1.59-1.31l.5-2.49a9.82,9.82,0,0,0,1-.44l2.12,1.41a1.62,1.62,0,0,0,2.05-.2l1.56-1.56a1.62,1.62,0,0,0,.2-2.05l-1.41-2.12a9.56,9.56,0,0,0,.44-1l2.49-.5a1.63,1.63,0,0,0,1.31-1.59V304.8A1.63,1.63,0,0,0,837.83,303.21Zm-2.81,4.3a1.62,1.62,0,0,0-1.22,1.06,8.28,8.28,0,0,1-.36.87,1.62,1.62,0,0,0,.11,1.61l1.41,2.12-1.56,1.56-2.12-1.41a1.63,1.63,0,0,0-1.61-.11,8.19,8.19,0,0,1-.87.36,1.62,1.62,0,0,0-1.06,1.22l-.5,2.49H825l-.5-2.49a1.62,1.62,0,0,0-1.06-1.22,8.13,8.13,0,0,1-.87-.36,1.62,1.62,0,0,0-1.61.11l-2.12,1.41-1.56-1.56,1.41-2.12a1.63,1.63,0,0,0,.11-1.61,8.17,8.17,0,0,1-.36-.87,1.62,1.62,0,0,0-1.22-1.06l-2.49-.5V304.8l2.49-.5a1.62,1.62,0,0,0,1.22-1.06,8.11,8.11,0,0,1,.36-.87,1.62,1.62,0,0,0-.11-1.61l-1.41-2.12,1.56-1.56,2.12,1.41a1.63,1.63,0,0,0,1.61.11,8.15,8.15,0,0,1,.87-.36,1.62,1.62,0,0,0,1.06-1.22l.5-2.49h2.21l.5,2.49a1.62,1.62,0,0,0,1.06,1.22,8.1,8.1,0,0,1,.87.36,1.63,1.63,0,0,0,1.61-.11l2.12-1.41,1.56,1.56-1.41,2.12a1.63,1.63,0,0,0-.11,1.61,8.18,8.18,0,0,1,.36.87A1.62,1.62,0,0,0,835,304.3l2.49.5V307Z" transform="translate(-813.14 -292.91)" fill="#222"/><path d="M826.14,300.22a5.69,5.69,0,1,0,5.69,5.69A5.69,5.69,0,0,0,826.14,300.22Zm0,10.66a5,5,0,1,1,5-5A5,5,0,0,1,826.14,310.88Z" transform="translate(-813.14 -292.91)" fill="#222"/><path d="M826.14,302.66a3.25,3.25,0,1,0,3.25,3.25A3.25,3.25,0,0,0,826.14,302.66Zm0,5.69a2.44,2.44,0,1,1,2.44-2.44A2.44,2.44,0,0,1,826.14,308.34Z" transform="translate(-813.14 -292.91)" fill="#222"/></g></svg>