<svg xmlns="http://www.w3.org/2000/svg" viewBox="0 0 39.53 27.81"><defs><style>.cls-1{fill:#fff;}</style></defs><title>Asset 16</title><g id="Layer_2" data-name="Layer 2"><g id="Layer_1-2" data-name="Layer 1"><path class="cls-1" d="M34.92,27.81H4.61A4.62,4.62,0,0,1,0,23.2V4.61A4.62,4.62,0,0,1,4.61,0H34.92a4.62,4.62,0,0,1,4.61,4.61V23.2A4.62,4.62,0,0,1,34.92,27.81ZM4.61,2.71a1.9,1.9,0,0,0-1.9,1.9V23.2a1.91,1.91,0,0,0,1.9,1.9H34.92a1.91,1.91,0,0,0,1.9-1.9V4.61a1.9,1.9,0,0,0-1.9-1.9Z"/><path class="cls-1" d="M2.39,3.67l14.5,15.64a3.21,3.21,0,0,0,4.49,0l15.43-16a.29.29,0,0,0-.16-.53L2.93,2A.9.9,0,0,0,2.39,3.67Z"/></g></g></svg>