<svg xmlns="http://www.w3.org/2000/svg" viewBox="0 0 34.14 34.14"><defs><style>.cls-1{fill:#d0d2d3;}.cls-2{fill:#fff;}</style></defs><title>Asset 22</title><g id="Layer_2" data-name="Layer 2"><g id="Layer_1-2" data-name="Layer 1"><path class="cls-1" d="M34.14,32.14a2,2,0,0,1-2,2H2a2,2,0,0,1-2-2V2A2,2,0,0,1,2,0H32.14a2,2,0,0,1,2,2Z"/><path id="Facebook" class="cls-2" d="M14.62,11.75V14.3H12.75v3.12h1.87V26h3.84V17.42H21s.24-1.49.36-3.13H18.47V12.16a.91.91,0,0,1,.83-.75h2.09V8.16H18.55C14.52,8.16,14.62,11.28,14.62,11.75Z"/></g></g></svg>