<?xml version="1.0" encoding="utf-8"?>
<!-- Generator: Adobe Illustrator 21.0.0, SVG Export Plug-In . SVG Version: 6.00 Build 0)  -->
<svg version="1.1" id="Layer_1" xmlns="http://www.w3.org/2000/svg" xmlns:xlink="http://www.w3.org/1999/xlink" x="0px" y="0px"
	 viewBox="0 0 891.9 350.8" style="enable-background:new 0 0 891.9 350.8;" xml:space="preserve">
<style type="text/css">
	.st0{fill:#F7C623;}
	.st1{fill:#222222;}
</style>
<g>
	<g>
		<g>
			<path class="st0" d="M859.1,24.5H56.6c-14.8,0-26.8,12-26.8,26.8v250.2c0,14.8,12,26.8,26.8,26.8h802.5L754.3,176.4L859.1,24.5z"
				/>
		</g>
	</g>
	<g>
		<g>
			<path class="st1" d="M142.8,166.1c-0.3-3-0.5-15.8-0.6-30.6c-7.8,0-16.3-0.1-23.9-0.3c0,12.9-0.1,24.9-0.4,31
				c-5.4,1.2-28.8,1.6-29,0.3c-0.8-5.3-1.9-84.1-0.8-91.1c0.4-2.7,28.3-1.4,28.8-0.5c0.4,0.8,0.8,16.3,1,34.4
				c7.8-0.1,16.3-0.1,24.2,0c0.1-15,0.4-28.7,0.9-33.2c5.4-1.2,27.7-1,28.7-0.3c1,0.8,0.9,84.9-0.3,89.8
				C170.9,168.2,142.9,167.1,142.8,166.1z"/>
			<path class="st1" d="M250.1,166.1c1.4,0.8-50.4,0.8-64.2-0.3c-0.6-9.2,0.3-71.7,1.2-90.4c14.6-0.9,63.9-1,64.2-0.3
				c0.9,3,1,18.6,0.1,24.2c-4.8,0.5-26.5,0.4-37.6,0l0.3,8.7c13-0.1,26.8,0.3,27.5,1c1.4,1.4,0.3,22.2,0.3,22.9
				c0,0.8-14.2,0.8-27.9,0.4v9.8c11.6-0.4,31.8-0.4,36.3,0C251.1,147.7,251,163.1,250.1,166.1z"/>
			<path class="st1" d="M261.9,166.1c-0.6-7.8,0-78.3,1.3-90.1c8.7-0.8,22.8-1.3,32.3-1.3c26.1,0,41.1,10.1,41.1,31.9
				c0,12.9-5.3,20.7-14.7,25.1c9.3,11.8,18.2,26.4,17.8,26.9c-1.7,2.1-20,9.8-24.8,9.6c-0.4,0-10.9-17.7-21.1-31.7H290
				c-0.1,11.9-0.3,25.7-0.8,29.1C287.8,166.1,262.1,167.1,261.9,166.1z M297.9,115c6.3,0,10.3-2.2,10.3-7.6c0-4.8-2.2-8-11.4-8
				c-1,0-3.6,0-4.9,0.3c0.1,4.7,0,10.5-0.1,15.1C293.3,114.9,296,115,297.9,115z"/>
			<path class="st1" d="M435,122.2c0,23-14.7,45.9-46,45.9c-28,0-46.3-18.5-46.3-48.7c0-23.3,15.5-45.9,45.9-45.9
				C416.4,73.5,435,92,435,122.2z M388.8,99.4c-10.2,0-16.5,8-16.5,21.6c0,12.3,6.6,20.9,16,20.9c10.6,0,16.2-7.9,16.2-21.6
				C404.5,105,397.5,99.4,388.8,99.4z"/>
			<path class="st1" d="M133.1,258.1c10.1,0,16-5.2,18.7-7.1c3.5,2.3,10.6,15.5,13.2,20.8C159,279,145.5,285,130,285
				c-31.7,0-46.1-21.8-46.1-48.9c0-26.5,19.4-46,50-46c15.8,0,27,4.5,30.9,8.7c-0.1,3.1-6.6,20.6-10.6,23.9
				c-4.7-2.6-12.5-5.9-19.8-5.9c-11.2,0-20.4,8.3-20.4,20.6C114,254.2,125.5,258.1,133.1,258.1z"/>
			<path class="st1" d="M202,192c1,0.8,0.9,84.9-0.3,89.8c-0.7,2.7-28.4,1.6-28.6,0.5c-0.7-7.8-1-78.3,0.3-90.1
				C178.8,191.1,201,191.2,202,192z"/>
			<path class="st1" d="M211,192.5c0.6-1,66.4-2.6,70.7-1.4c2.2,0.4,1.8,24.2,0.9,24.3c-2.3,0.4-11,0.8-21.5,1.2
				c0.1,26.2,0.4,63.7-0.3,64.6c-0.6,0.9-27.9,1.7-28,0.6c-0.5-5.3-0.8-40.6-0.5-65.5c-9.6,0.1-17.4,0-20.7-0.4
				C210.6,210.8,210.4,193.4,211,192.5z"/>
			<path class="st1" d="M320.7,192c1,0.8,0.9,84.9-0.3,89.8c-0.7,2.7-28.4,1.6-28.6,0.5c-0.7-7.8-1-78.3,0.3-90.1
				C297.6,191.1,319.7,191.2,320.7,192z"/>
			<path class="st1" d="M369.3,257.3c3.9-0.1,27.9-0.3,29.7,0.5c0.7,0.3,0.4,23.1-0.4,23.8c-1,0.8-65.1,1.2-65.4,0.4
				c-1.3-4.3-1.4-22.7-1.3-23.3c0.3-0.5,26.1-36.6,30.1-41.9l0.1-0.6c-3.4,0-28.6,0.1-29.1,0c-0.4-0.1-2.3-24-0.8-24.6
				c1.7-0.6,64.2-0.8,64.8-0.6c0.5,0.3,2.7,22.4,2.2,24.2c-0.1,0.5-26.1,37.2-30,41.6V257.3z"/>
			<path class="st1" d="M474,282.4c1.4,0.8-50.4,0.8-64.2-0.3c-0.6-9.2,0.3-71.7,1.2-90.4c14.6-0.9,63.9-1,64.2-0.3
				c0.9,3,1,18.6,0.1,24.2c-4.8,0.5-26.5,0.4-37.6,0l0.3,8.7c13-0.1,26.8,0.3,27.5,1c1.4,1.4,0.3,22.2,0.3,22.9
				c0,0.8-14.2,0.8-27.9,0.4v9.8c11.6-0.4,31.8-0.4,36.3,0C475,264,474.9,279.4,474,282.4z"/>
			<path class="st1" d="M540.7,282.5c-2.7-3.4-15-24.9-27-43.6c0,16.8,0.9,34.5,0.5,42.1c-5.4,1.2-27.8,1.3-27.9,0
				c-0.8-5.3-1.2-81.3,0-88.3c0.4-2.7,26-2.7,26.5-1.8c1.8,2.8,17.6,27.8,27.7,47.4c0.1-19-0.7-40.5,0-46c5.4-1.2,26.8-0.8,27.8,0
				c1,0.8,0.1,83.1-1,88C566.5,283.1,542.5,283.5,540.7,282.5z"/>
		</g>
	</g>
</g>
</svg>
