<svg xmlns="http://www.w3.org/2000/svg" viewBox="0 0 34.14 34.14"><defs><style>.cls-1{fill:#d0d2d3;}.cls-2{fill:#fff;}</style></defs><title>Asset 25</title><g id="Layer_2" data-name="Layer 2"><g id="Layer_1-2" data-name="Layer 1"><path class="cls-1" d="M34.14,32.14a2,2,0,0,1-2,2H2a2,2,0,0,1-2-2V2A2,2,0,0,1,2,0H32.14a2,2,0,0,1,2,2Z"/><polygon class="cls-2" points="22.88 11.69 22.88 9.06 21.76 9.06 21.76 11.69 19.12 11.69 19.12 12.8 21.76 12.8 21.76 15.45 22.88 15.45 22.88 12.8 25.51 12.8 25.51 11.69 22.88 11.69"/><path class="cls-2" d="M18.15,19.38a4.84,4.84,0,0,0-.57-.63l-.66-.59-.76-.59-.36-.35a.76.76,0,0,1-.19-.56.89.89,0,0,1,.19-.59c.13-.15.26-.3.4-.44s.44-.35.65-.54a4.27,4.27,0,0,0,.57-.63,2.79,2.79,0,0,0,.4-.79,3.2,3.2,0,0,0,.15-1,3.12,3.12,0,0,0-.17-1.05,3.82,3.82,0,0,0-.4-.81,3.71,3.71,0,0,0-.48-.59q-.26-.24-.45-.39h1.31l1.34-.74H14.79a9.14,9.14,0,0,0-1.86.21,4.48,4.48,0,0,0-1.9,1,3.86,3.86,0,0,0-1,1.33A3.51,3.51,0,0,0,9.68,13a3.4,3.4,0,0,0,.23,1.2,3.25,3.25,0,0,0,.68,1.07,3.33,3.33,0,0,0,1.09.74,3.67,3.67,0,0,0,1.49.28h.34l.33,0c-.05.13-.1.25-.14.37a1.76,1.76,0,0,0,.14,1.27,6.26,6.26,0,0,0,.43.62l-.84.06a8.41,8.41,0,0,0-1,.15,9.35,9.35,0,0,0-1.1.28,5.16,5.16,0,0,0-1,.47A3,3,0,0,0,9,20.79a2.91,2.91,0,0,0-.35,1.29A2.43,2.43,0,0,0,8.9,23.2a2.64,2.64,0,0,0,.85,1,4.46,4.46,0,0,0,1.42.67,6.84,6.84,0,0,0,2,.26,7.61,7.61,0,0,0,2.39-.35,5.94,5.94,0,0,0,1.74-.91,3.67,3.67,0,0,0,1-1.27,3.21,3.21,0,0,0,.36-1.46,2.85,2.85,0,0,0-.15-1A2.58,2.58,0,0,0,18.15,19.38Zm-4-3.63A1.83,1.83,0,0,1,13,15.36a3.48,3.48,0,0,1-.82-1,4.7,4.7,0,0,1-.48-1.23A4.81,4.81,0,0,1,11.53,12a3.23,3.23,0,0,1,.1-.82,1.82,1.82,0,0,1,.36-.74,1.89,1.89,0,0,1,.66-.51,2,2,0,0,1,.82-.19,1.79,1.79,0,0,1,1.14.39,3.35,3.35,0,0,1,.83,1A4.63,4.63,0,0,1,16,12.37a5.33,5.33,0,0,1,.17,1.25,3.78,3.78,0,0,1-.09.73,1.48,1.48,0,0,1-.44.81,2,2,0,0,1-.64.42A2,2,0,0,1,14.16,15.75Zm2.33,7.81a3.59,3.59,0,0,1-2.31.64,4.62,4.62,0,0,1-2.7-.71,2.19,2.19,0,0,1-1-1.85,1.83,1.83,0,0,1,.22-.95,2.7,2.7,0,0,1,.51-.63,2.55,2.55,0,0,1,.6-.39l.48-.2c.22-.07.46-.13.69-.18a6.22,6.22,0,0,1,.68-.1c.2,0,.39,0,.54,0l.3,0h.26l.22,0,1,.75a6.07,6.07,0,0,1,.72.65,2.71,2.71,0,0,1,.41.65,1.81,1.81,0,0,1,.14.72A2,2,0,0,1,16.49,23.56Z"/></g></g></svg>