<svg xmlns="http://www.w3.org/2000/svg" xmlns:xlink="http://www.w3.org/1999/xlink" viewBox="0 0 203.5 70.41"><defs><style>.cls-1{fill:#575756;}.cls-2{fill:none;}.cls-3{fill:url(#linear-gradient);}.cls-4{fill:url(#linear-gradient-2);}.cls-5{fill:url(#linear-gradient-3);}.cls-6{fill:url(#linear-gradient-4);}</style><linearGradient id="linear-gradient" x1="4626.83" y1="1361.86" x2="4605.1" y2="1348.26" gradientTransform="translate(-2285.45 -4191.39) rotate(45)" gradientUnits="userSpaceOnUse"><stop offset="0" stop-color="#d6e59d"/><stop offset="0.45" stop-color="#94c3a9"/><stop offset="1" stop-color="#00a3b6"/></linearGradient><linearGradient id="linear-gradient-2" x1="4614.2" y1="1350.24" x2="4642.37" y2="1357.61" gradientTransform="translate(-2285.45 -4191.39) rotate(45)" gradientUnits="userSpaceOnUse"><stop offset="0" stop-color="#ec297b"/><stop offset="0.02" stop-color="#ed327c"/><stop offset="0.7" stop-color="#f5bb80"/><stop offset="1" stop-color="#fce974"/></linearGradient><linearGradient id="linear-gradient-3" x1="4629.92" y1="1372.18" x2="4599.37" y2="1354.2" gradientTransform="translate(-2285.45 -4191.39) rotate(45)" gradientUnits="userSpaceOnUse"><stop offset="0" stop-color="#88cebc"/><stop offset="0.09" stop-color="#7dbdba"/><stop offset="0.54" stop-color="#467cac"/><stop offset="0.85" stop-color="#1d5aa1"/><stop offset="1" stop-color="#094f9c"/></linearGradient><linearGradient id="linear-gradient-4" x1="4641.01" y1="1357.9" x2="4622.2" y2="1382.69" gradientTransform="translate(-2285.45 -4191.39) rotate(45)" gradientUnits="userSpaceOnUse"><stop offset="0" stop-color="#ef4b29"/><stop offset="0.47" stop-color="#b4506b"/><stop offset="0.84" stop-color="#8b5191"/><stop offset="1" stop-color="#7951a0"/></linearGradient></defs><title>Asset 12</title><g id="Layer_2" data-name="Layer 2"><g id="Layer_1-2" data-name="Layer 1"><path class="cls-1" d="M192.3,70.41H11.68A11.7,11.7,0,0,1,0,58.72v-47A11.69,11.69,0,0,1,11.68,0H192.3c6.28,0,11.2,5.13,11.2,11.68V59.89C203.5,66.18,199,70.41,192.3,70.41ZM11.68,1.09A10.6,10.6,0,0,0,1.09,11.68v47A10.6,10.6,0,0,0,11.68,69.31H192.3c6,0,10.11-3.79,10.11-9.42V11.68A10.25,10.25,0,0,0,192.3,1.09Z"/><path class="cls-1" d="M138.87,50.3l-1.52,1.43c-.35.19-.7.42-1,.58a7.33,7.33,0,0,1-3.08.6A6.83,6.83,0,0,1,129,51.67a8.23,8.23,0,0,1-3.24-6.7A7.2,7.2,0,0,1,133,37.63a6.15,6.15,0,0,1,3.28.89,5.31,5.31,0,0,1,2.22,3.14l-7.47,3-2.45.19c.8,4,3.53,6.39,6.55,6.39a7.84,7.84,0,0,0,3.66-1S139,50.15,138.87,50.3Zm-4.5-8c.6-.22.92-.41.92-.85a3.16,3.16,0,0,0-3.15-2.73c-1.27,0-3.65,1-3.65,4.42,0,.53.06,1.1.09,1.68Z"/><path class="cls-1" d="M123.25,50.05c0,1.24.22,1.43,1.27,1.53.54.06,1.09.09,1.63.15l-1.18.7h-5.6c.74-1,.86-1,.86-1.68V31.15h-2.48L120.12,30h4.55a2.2,2.2,0,0,0-1.41,2Z"/><path class="cls-1" d="M114.57,39.19a5.34,5.34,0,0,1,2.25,4.28c0,2.35-1.32,3.46-2.66,4.51a2.29,2.29,0,0,0-.89,1.56,1.78,1.78,0,0,0,.82,1.37l1.15.88c1.4,1.18,2.67,2.26,2.67,4.46,0,3-2.89,6-8.36,6-4.6,0-6.83-2.19-6.83-4.54a4.56,4.56,0,0,1,2.45-3.88,13.56,13.56,0,0,1,6.07-1.46,3.34,3.34,0,0,1-1-2.16A2.93,2.93,0,0,1,110.6,49c-.35,0-.7.07-1,.07a5,5,0,0,1-5.27-5,5.71,5.71,0,0,1,2-4.25A8.62,8.62,0,0,1,112,38h6.55l-2,1.14h-2Zm-2.25,14.1a5.55,5.55,0,0,0-.73,0,12.5,12.5,0,0,0-3.34.51c-.7.26-2.73,1-2.73,3.27s2.19,3.88,5.59,3.88c3,0,4.67-1.46,4.67-3.43C115.78,55.87,114.73,55,112.32,53.29Zm.91-6a3.17,3.17,0,0,0,.8-2.32c0-2.28-1.36-5.84-4-5.84a3,3,0,0,0-2.23,1,3.7,3.7,0,0,0-.69,2.35c0,2.12,1.24,5.65,4,5.65A3.21,3.21,0,0,0,113.23,47.25Z"/><path class="cls-1" d="M94.87,52.84a7.49,7.49,0,0,1-7.75-7.49,7.87,7.87,0,0,1,8.23-7.72,7.42,7.42,0,0,1,7.59,7.49A7.76,7.76,0,0,1,94.87,52.84Zm4-2.57a5.67,5.67,0,0,0,1-3.52c0-2.8-1.34-8.14-5.28-8.14a4.43,4.43,0,0,0-2.86,1.08,4.8,4.8,0,0,0-1.46,3.88c0,3.14,1.55,8.32,5.4,8.32A4,4,0,0,0,98.84,50.27Z"/><path class="cls-1" d="M78,52.84a7.49,7.49,0,0,1-7.75-7.49,7.88,7.88,0,0,1,8.23-7.72A7.42,7.42,0,0,1,86,45.12,7.76,7.76,0,0,1,78,52.84Zm4-2.57a5.67,5.67,0,0,0,1-3.52c0-2.8-1.34-8.14-5.28-8.14a4.43,4.43,0,0,0-2.86,1.08,4.8,4.8,0,0,0-1.46,3.88c0,3.14,1.56,8.32,5.4,8.32A4,4,0,0,0,81.93,50.27Z"/><path class="cls-1" d="M68.19,51.74l-4.26,1a31.49,31.49,0,0,1-4.92.51c-8.21,0-11.35-6-11.35-10.78,0-5.78,4.44-11.14,12-11.14a17.62,17.62,0,0,1,4.56.61,11.56,11.56,0,0,1,3.93,1.86l-2.48,2.35-1,.23.74-1.18A8.46,8.46,0,0,0,59,32.38c-4.7,0-8.25,3.57-8.25,8.79,0,5.6,4.05,10.87,10.54,10.87a9,9,0,0,0,3.78-.74V46.49l-4.49.24L63,45.45h6.31l-.77.75a.62.62,0,0,0-.29.47c0,.28-.06,1.14-.06,1.44v3.63Z"/><path class="cls-1" d="M148,50.43v8.1h-1.6V37.93H148v2.35a6.38,6.38,0,0,1,5.18-2.72c4,0,6.68,3,6.68,7.81s-2.69,7.84-6.68,7.84A6.38,6.38,0,0,1,148,50.43Zm10.13-5.06c0-3.61-1.88-6.36-5.22-6.36A6.38,6.38,0,0,0,148,42.06v6.59a6.44,6.44,0,0,0,4.91,3.11C156.28,51.76,158.16,49,158.16,45.37Z"/><path class="cls-1" d="M162.08,52.84V32.25h1.61V52.84Z"/><path class="cls-1" d="M181.72,57.2a3.88,3.88,0,0,0,1.3.24c1,0,1.67-.4,2.29-1.82L186.48,53l-6.33-15h1.79l5.43,13,5.38-13h1.82l-7.72,18.19a4,4,0,0,1-3.8,2.77,6.46,6.46,0,0,1-1.6-.21Z"/><path class="cls-1" d="M177,52.8c-.11-.52-.19-1-.25-1.36a8.92,8.92,0,0,1-.07-1.16,6.89,6.89,0,0,1-5.58,2.81,5.27,5.27,0,0,1-3.65-1.17,4.09,4.09,0,0,1-1.3-3.18,3.76,3.76,0,0,1,1.89-3.25A8.69,8.69,0,0,1,173,44.25h3.75V42.39a3.09,3.09,0,0,0-1.1-2.51,4.63,4.63,0,0,0-3.07-.92,4.86,4.86,0,0,0-2.95.83,2.52,2.52,0,0,0-1.11,2.09h-1.65l0-.08a3.46,3.46,0,0,1,1.55-3,6.77,6.77,0,0,1,4.28-1.28,6.69,6.69,0,0,1,4.24,1.26,4.32,4.32,0,0,1,1.6,3.62v7.35a12.88,12.88,0,0,0,.09,1.54,10.71,10.71,0,0,0,.32,1.47Zm-5.71-1.17a6.06,6.06,0,0,0,3.35-.91,4.55,4.55,0,0,0,2-2.33V45.52h-3.76a6.13,6.13,0,0,0-3.57,1A2.78,2.78,0,0,0,168,48.8a2.58,2.58,0,0,0,.9,2.05A3.68,3.68,0,0,0,171.32,51.63Z"/><path class="cls-1" d="M47.73,15.35A5.06,5.06,0,0,1,53,10.15a4.72,4.72,0,0,1,4,2.08l-1.43.83A3.28,3.28,0,0,0,53,11.72a3.44,3.44,0,0,0-3.47,3.63A3.45,3.45,0,0,0,53,19a3.59,3.59,0,0,0,2.38-.9V16.53h-3V15h4.76v3.76A5.44,5.44,0,0,1,53,20.57,5.08,5.08,0,0,1,47.73,15.35Z"/><path class="cls-1" d="M59.32,20.37v-10h6.89v1.55H61.08v2.59h5V16h-5v2.81h5.13v1.55Z"/><path class="cls-1" d="M71.09,20.37v-8.5H68V10.32h7.85v1.55h-3v8.5Z"/><path class="cls-1" d="M82,20.37v-10h1.77V20.37Z"/><path class="cls-1" d="M88.7,20.37v-8.5h-3V10.32H93.5v1.55h-3v8.5Z"/><path class="cls-1" d="M99.2,15.35a5.14,5.14,0,1,1,10.28,0,5.14,5.14,0,1,1-10.28,0Zm8.47,0a3.34,3.34,0,1,0-6.66,0,3.34,3.34,0,1,0,6.66,0Z"/><path class="cls-1" d="M118.54,20.37l-5.24-7.19v7.19h-1.76v-10h1.81l5.13,7v-7h1.77V20.37Z"/><polygon class="cls-2" points="26.68 44.53 31.83 39.38 31.83 39.38 26.68 44.53 10.22 28.07 10.22 28.07 26.68 44.53 10.19 61.02 10.19 61.02 26.68 44.53 31.86 49.71 31.86 49.71 26.68 44.53"/><path class="cls-3" d="M31.83,39.38,11.74,28.33a1.94,1.94,0,0,0-1.52-.25L26.68,44.53Z"/><path class="cls-4" d="M31.86,49.71l6.86-3.77c1.39-.77,1.39-2,0-2.78l-6.89-3.78-5.15,5.15Z"/><path class="cls-5" d="M10.22,28.07a1.67,1.67,0,0,0-1,1.75V59.28a1.68,1.68,0,0,0,1,1.74L26.68,44.53Z"/><path class="cls-6" d="M10.19,61a2,2,0,0,0,1.55-.24L31.86,49.71l-5.18-5.18Z"/></g></g></svg>