<svg xmlns="http://www.w3.org/2000/svg" viewBox="0 0 1440 234.56"><defs><style>.cls-1{fill:#febe29;}.cls-2,.cls-7,.cls-8{font-size:20.58px;}.cls-10,.cls-11,.cls-2,.cls-7,.cls-8{fill:#222;}.cls-2,.cls-8{font-family:HelveticaNeue, HelveticaNeue;}.cls-3{letter-spacing:-0.01em;}.cls-4{letter-spacing:0em;}.cls-5{letter-spacing:0em;}.cls-6{letter-spacing:0em;}.cls-7{font-family:HelveticaNeue-Bold, HelveticaNeue Bold;font-weight:700;}.cls-8{letter-spacing:-0.01em;}.cls-9{fill:#414042;}.cls-11{stroke:#222;stroke-miterlimit:10;stroke-width:0.61px;}</style></defs><title>Asset 3</title><g id="Layer_2" data-name="Layer 2"><g id="Layer_1-2" data-name="Layer 1"><rect class="cls-1" width="1440" height="234.56"/><text class="cls-2" transform="translate(1227.19 209.18)"><tspan class="cls-3">C</tspan><tspan class="cls-4" x="11.71" y="0">ou</tspan><tspan class="cls-5" x="34.35" y="0">n</tspan><tspan x="45.69" y="0">t</tspan><tspan class="cls-6" x="52.5" y="0">r</tspan><tspan x="59.32" y="0">ies</tspan></text><text class="cls-7" transform="translate(1194.49 209.26)">18</text><text class="cls-8" transform="translate(1092.2 209.14)">U<tspan class="cls-4" x="13.19" y="0">sers</tspan></text><text class="cls-7" transform="translate(1017.58 209.22)">50,243</text><rect class="cls-9" x="666.9" y="137.37" width="2.4" height="2.4"/><rect class="cls-9" x="671.97" y="137.37" width="2.4" height="2.4"/><rect class="cls-9" x="677.04" y="137.37" width="2.4" height="2.4"/><rect class="cls-9" x="682.1" y="137.37" width="2.4" height="2.4"/><rect class="cls-9" x="687.17" y="137.37" width="2.4" height="2.4"/><rect class="cls-9" x="692.23" y="137.37" width="2.4" height="2.4"/><rect class="cls-9" x="697.3" y="137.37" width="2.4" height="2.4"/><rect class="cls-9" x="702.36" y="137.37" width="2.4" height="2.4"/><rect class="cls-9" x="707.43" y="137.37" width="2.4" height="2.4"/><rect class="cls-9" x="712.49" y="137.37" width="2.4" height="2.4"/><rect class="cls-9" x="915.01" y="67.38" width="2.4" height="2.4"/><rect class="cls-9" x="920.08" y="67.38" width="2.4" height="2.4"/><rect class="cls-9" x="925.14" y="67.38" width="2.4" height="2.4"/><rect class="cls-9" x="930.21" y="67.38" width="2.4" height="2.4"/><rect class="cls-9" x="935.27" y="67.38" width="2.4" height="2.4"/><rect class="cls-9" x="940.34" y="67.38" width="2.4" height="2.4"/><rect class="cls-9" x="945.4" y="67.38" width="2.4" height="2.4"/><rect class="cls-9" x="950.47" y="67.38" width="2.4" height="2.4"/><rect class="cls-9" x="955.54" y="67.38" width="2.4" height="2.4"/><rect class="cls-9" x="960.6" y="67.38" width="2.4" height="2.4"/><rect class="cls-9" x="811.62" y="108.13" width="2.4" height="2.4"/><rect class="cls-9" x="816.69" y="108.13" width="2.4" height="2.4"/><rect class="cls-9" x="821.76" y="108.13" width="2.4" height="2.4"/><rect class="cls-9" x="826.82" y="108.13" width="2.4" height="2.4"/><rect class="cls-9" x="831.89" y="108.13" width="2.4" height="2.4"/><rect class="cls-9" x="836.95" y="108.13" width="2.4" height="2.4"/><rect class="cls-9" x="842.02" y="108.13" width="2.4" height="2.4"/><rect class="cls-9" x="847.08" y="108.13" width="2.4" height="2.4"/><rect class="cls-9" x="852.15" y="108.13" width="2.4" height="2.4"/><rect class="cls-9" x="857.21" y="108.13" width="2.4" height="2.4"/><rect class="cls-9" x="622.76" y="50.61" width="3.42" height="3.42"/><rect class="cls-9" x="629.97" y="50.61" width="3.42" height="3.42"/><rect class="cls-9" x="637.18" y="50.61" width="3.42" height="3.42"/><rect class="cls-9" x="644.39" y="50.61" width="3.42" height="3.42"/><rect class="cls-9" x="651.6" y="50.61" width="3.42" height="3.42"/><rect class="cls-9" x="658.81" y="50.61" width="3.42" height="3.42"/><rect class="cls-9" x="666.02" y="50.61" width="3.42" height="3.42"/><rect class="cls-9" x="673.23" y="50.61" width="3.42" height="3.42"/><rect class="cls-9" x="680.44" y="50.61" width="3.42" height="3.42"/><rect class="cls-9" x="687.65" y="50.61" width="3.42" height="3.42"/><rect class="cls-9" x="420.36" y="64.6" width="2.4" height="2.4"/><rect class="cls-9" x="425.43" y="64.6" width="2.4" height="2.4"/><rect class="cls-9" x="430.49" y="64.6" width="2.4" height="2.4"/><rect class="cls-9" x="435.56" y="64.6" width="2.4" height="2.4"/><rect class="cls-9" x="440.62" y="64.6" width="2.4" height="2.4"/><rect class="cls-9" x="445.69" y="64.6" width="2.4" height="2.4"/><rect class="cls-9" x="450.75" y="64.6" width="2.4" height="2.4"/><rect class="cls-9" x="455.82" y="64.6" width="2.4" height="2.4"/><rect class="cls-9" x="460.88" y="64.6" width="2.4" height="2.4"/><rect class="cls-9" x="465.95" y="64.6" width="2.4" height="2.4"/><path class="cls-9" d="M795.93,40.07l-4.86-4.87,4.86-4.87,4.86,4.87Zm-1.53-4.87,1.53,1.54,1.53-1.54-1.53-1.53Z"/><path class="cls-9" d="M928.14,133.3l-2.59-2.6,2.59-2.59,2.59,2.59Zm-.82-2.6.82.82.82-.82-.82-.82Z"/><path class="cls-9" d="M906.87,34l-3-3,3-3,3,3Zm-.94-3,.94.95.95-.95-.95-.94Z"/><path class="cls-9" d="M428,42.27l-3.55-3.55L428,35.18l3.55,3.55Zm-1.12-3.55L428,39.85l1.12-1.12L428,37.61Z"/><path class="cls-9" d="M706.57,58.36l-5.41-5.41,5.41-5.41L712,52.95Zm-1.7-5.41,1.7,1.71,1.71-1.71-1.71-1.7Z"/><path class="cls-9" d="M560.4,76.65,555,71.22l5.43-5.43,5.43,5.43Zm-1.71-5.43,1.71,1.71,1.71-1.71-1.71-1.71Z"/><path class="cls-9" d="M581.66,114.48l-5.15-5.15,5.15-5.15,5.15,5.15ZM580,109.33l1.62,1.63,1.62-1.63-1.62-1.62Z"/><rect class="cls-9" x="790.33" y="55.9" width="3.41" height="3.41"/><polygon class="cls-9" points="799.49 61.78 796.54 60.06 798.26 57.11 801.21 58.82 799.49 61.78"/><rect class="cls-9" x="802.15" y="62.76" width="3.41" height="3.41" transform="translate(73.68 406.78) rotate(-29.7)"/><rect class="cls-9" x="803.94" y="69.61" width="3.41" height="3.42" transform="translate(728.68 876.45) rotate(-89.6)"/><rect class="cls-9" x="802.05" y="76.43" width="3.41" height="3.41" transform="translate(327.27 730.12) rotate(-59.39)"/><rect class="cls-9" x="796.98" y="81.38" width="3.41" height="3.41" transform="translate(61.51 401.49) rotate(-29.3)"/><rect class="cls-9" x="790.12" y="83.12" width="3.41" height="3.41" transform="translate(694.18 875.16) rotate(-89.07)"/><rect class="cls-9" x="783.31" y="81.16" width="3.41" height="3.41" transform="translate(308.84 712.45) rotate(-58.92)"/><rect class="cls-9" x="778.41" y="76.06" width="3.42" height="3.41" transform="translate(59.07 385.54) rotate(-28.81)"/><polygon class="cls-9" points="780.18 69.22 780.1 72.64 776.69 72.55 776.77 69.14 780.18 69.22"/><rect class="cls-9" x="778.73" y="62.39" width="3.41" height="3.41" transform="translate(318.24 696.21) rotate(-58.52)"/><polygon class="cls-9" points="787.89 59.93 784.89 61.55 783.26 58.55 786.27 56.92 787.89 59.93"/><rect class="cls-9" x="1063.67" y="88.99" width="1.58" height="1.58"/><rect class="cls-9" x="1066.83" y="89.83" width="1.58" height="1.57" transform="translate(451.48 967.2) rotate(-59.75)"/><rect class="cls-9" x="1069.13" y="92.15" width="1.57" height="1.57" transform="translate(94.01 541.23) rotate(-29.64)"/><rect class="cls-9" x="1069.96" y="95.31" width="1.57" height="1.58" transform="translate(967.21 1166.15) rotate(-89.6)"/><rect class="cls-9" x="1069.08" y="98.46" width="1.57" height="1.58" transform="translate(439.96 969.7) rotate(-59.41)"/><rect class="cls-9" x="1066.74" y="100.74" width="1.57" height="1.58" transform="translate(87.03 535.76) rotate(-29.32)"/><rect class="cls-9" x="1063.58" y="101.55" width="1.57" height="1.57" transform="translate(945.2 1164.94) rotate(-89.09)"/><rect class="cls-9" x="1060.44" y="100.65" width="1.57" height="1.57" transform="translate(426.82 958.18) rotate(-58.94)"/><rect class="cls-9" x="1058.17" y="98.29" width="1.58" height="1.57" transform="translate(83.05 521.93) rotate(-28.77)"/><rect class="cls-9" x="1057.4" y="95.12" width="1.57" height="1.58" transform="translate(937.64 1151.57) rotate(-88.66)"/><rect class="cls-9" x="1058.32" y="91.98" width="1.58" height="1.58" transform="translate(425.8 946.72) rotate(-58.44)"/><rect class="cls-9" x="1060.69" y="89.74" width="1.57" height="1.57" transform="translate(84.65 515.67) rotate(-28.39)"/><rect class="cls-9" x="499.19" y="50.93" width="2.5" height="2.5"/><rect class="cls-9" x="504.19" y="52.28" width="2.5" height="2.5" transform="translate(204.96 463.46) rotate(-59.8)"/><rect class="cls-9" x="507.83" y="55.95" width="2.5" height="2.5" transform="translate(38.54 259.75) rotate(-29.7)"/><rect class="cls-9" x="509.14" y="60.96" width="2.5" height="2.5" transform="translate(444.41 572.13) rotate(-89.58)"/><rect class="cls-9" x="507.76" y="65.95" width="2.49" height="2.5" transform="translate(191.95 471.02) rotate(-59.38)"/><rect class="cls-9" x="504.05" y="69.57" width="2.5" height="2.5" transform="translate(29.94 256.22) rotate(-29.29)"/><rect class="cls-9" x="499.03" y="70.84" width="2.49" height="2.49" transform="translate(420.79 571.24) rotate(-89.15)"/><rect class="cls-9" x="494.06" y="69.41" width="2.49" height="2.49" transform="translate(179.19 458.46) rotate(-58.93)"/><rect class="cls-9" x="490.47" y="65.68" width="2.5" height="2.49" transform="translate(28.7 245.46) rotate(-28.84)"/><rect class="cls-9" x="489.24" y="60.65" width="2.49" height="2.5" transform="translate(417.39 550.84) rotate(-88.69)"/><rect class="cls-9" x="490.7" y="55.68" width="2.49" height="2.5" transform="translate(186.46 446.72) rotate(-58.51)"/><polygon class="cls-9" points="497.4 53.88 495.21 55.06 494.02 52.87 496.22 51.68 497.4 53.88"/><path class="cls-9" d="M953.81,123.7a.66.66,0,0,1-.29-.41.66.66,0,0,1,.64-.8.68.68,0,0,1,.33.09l3.86,2.39a.65.65,0,0,1,.22.9.65.65,0,0,1-.56.31.74.74,0,0,1-.35-.09Zm4.73,7.75a.66.66,0,0,0-.05-.5.66.66,0,0,0-.89-.26l-4,2.17a.66.66,0,0,0-.31.39.65.65,0,0,0,.62.84.68.68,0,0,0,.32-.08l4-2.18A.64.64,0,0,0,958.54,131.45Zm8.71-5.49a.66.66,0,0,0,.57.33.69.69,0,0,0,.32-.08L972.1,124a.61.61,0,0,0,.31-.39.63.63,0,0,0-.06-.5.65.65,0,0,0-.57-.33.64.64,0,0,0-.32.09l-3.94,2.24A.67.67,0,0,0,967.25,126ZM960,132.74a.65.65,0,0,0-.56.32l-2.36,3.88a.65.65,0,0,0,.22.9.62.62,0,0,0,.34.09.64.64,0,0,0,.56-.32l2.36-3.88a.67.67,0,0,0-.22-.9A.7.7,0,0,0,960,132.74Zm5.74-8.55a.64.64,0,0,0,.56-.32l2.29-3.93a.66.66,0,0,0,.06-.49A.67.67,0,0,0,968,119a.65.65,0,0,0-.56.33l-2.28,3.93a.62.62,0,0,0-.07.49.63.63,0,0,0,.64.49Zm-7.88,4.47a.71.71,0,0,0-.17-.48.62.62,0,0,0-.47-.24l-4.55.09c-.53,0-.65.27-.65.5s.07.51.63.53l4.56.28A.7.7,0,0,0,957.85,128.67Zm10.31,2.14a.66.66,0,0,0-.34-.09.67.67,0,0,0-.57.32.65.65,0,0,0-.07.5.62.62,0,0,0,.3.4l3.9,2.32a.65.65,0,0,0,.33.09.65.65,0,0,0,.63-.81.61.61,0,0,0-.3-.4Zm-9.54-11.64a.66.66,0,0,0-.58-.34.65.65,0,0,0-.31.07.7.7,0,0,0-.32.39.65.65,0,0,0,.05.5l2.14,4a.65.65,0,0,0,.57.35.63.63,0,0,0,.31-.08.68.68,0,0,0,.31-.39.63.63,0,0,0,0-.49ZM973.14,128l-4.55.05a.61.61,0,0,0-.65.59.57.57,0,0,0,.16.41.69.69,0,0,0,.49.19l4.55.12a.68.68,0,0,0,0-1.37Zm-6.87,5.15a.64.64,0,0,0-.57-.34.7.7,0,0,0-.32.08.66.66,0,0,0-.25.89l2.21,4a.65.65,0,0,0,.57.34.71.71,0,0,0,.32-.08.66.66,0,0,0,.25-.89Zm-3.43-15.54a.65.65,0,0,0-.65.65v4.54a.65.65,0,1,0,1.3,0v-4.54A.65.65,0,0,0,962.84,117.6Zm0,15.94a.67.67,0,0,0-.63.63l-.08,4.53a.61.61,0,0,0,.18.45.64.64,0,0,0,.47.19h0a.64.64,0,0,0,.66-.62l.08-4.52A.66.66,0,0,0,962.81,133.54Z"/><path class="cls-9" d="M832,55h2.62V52.31h1.89V55h2.64v1.78h-2.64V59.6h-1.89V56.83H832Z"/><path class="cls-9" d="M727.61,100.45h2.62V97.71h1.89v2.74h2.64v1.78h-2.64V105h-1.89v-2.77h-2.62Z"/><path class="cls-9" d="M593.76,64.89h2.62V62.15h1.89v2.74h2.64v1.78h-2.64v2.77h-1.89V66.67h-2.62Z"/><path class="cls-9" d="M1040.69,107.22h2.62v-2.74h1.89v2.74h2.64V109h-2.64v2.77h-1.89V109h-2.62Z"/><path class="cls-9" d="M953.89,45.18H957V42h2.24v3.23h3.12v2.1h-3.12v3.27H957V47.29h-3.1Z"/><path class="cls-9" d="M890.8,127.22h2.62v-2.74h1.89v2.74H898V129h-2.64v2.77h-1.89V129H890.8Z"/><path class="cls-9" d="M744.89,45.35h2.62V42.61h1.89v2.74H752v1.78h-2.64V49.9h-1.89V47.13h-2.62Z"/><path class="cls-9" d="M434.38,78.24H437V75.5h1.89v2.74h2.64V80H438.9v2.77H437V80h-2.62Z"/><path class="cls-9" d="M476.5,19.32h2.45V16.77h1.77v2.55h2.46V21h-2.46v2.58h-1.77V21H476.5Z"/><rect class="cls-9" x="670.85" y="82.5" width="92.67" height="2.83"/><rect class="cls-9" x="936.56" y="106.5" width="92.67" height="2.83"/><rect class="cls-9" x="641.02" y="99.94" width="76.16" height="2.83"/><rect class="cls-9" x="783.26" y="125.65" width="42.34" height="2.83"/><rect class="cls-9" x="835.23" y="125.65" width="42.34" height="2.83"/><rect class="cls-9" x="846.95" y="92.03" width="124.54" height="2.83"/><rect class="cls-9" x="605.68" y="99.94" width="27.95" height="2.83"/><rect class="cls-9" x="411.13" y="89.04" width="113.74" height="2.83"/><rect class="cls-9" x="456.77" y="78.07" width="68.86" height="2.83"/><path class="cls-9" d="M880,48.79h-5.19V43.6H880Zm-3.47-1.73h1.74V45.32h-1.74Z"/><path class="cls-9" d="M880,87.91h-5.19v-5.2H880Zm-3.47-1.73h1.74V84.44h-1.74Z"/><path class="cls-9" d="M899.57,68.35h-5.2v-5.2h5.2Zm-3.47-1.73h1.74V64.88H896.1Z"/><path class="cls-9" d="M860.45,68.35h-5.2v-5.2h5.2ZM857,66.63h1.74V64.88H857Z"/><path class="cls-9" d="M879.14,86.1a.86.86,0,0,1-.07-1.72,18.65,18.65,0,0,0,17-17,.86.86,0,0,1,1.72.15A20.37,20.37,0,0,1,879.22,86.1Z"/><path class="cls-9" d="M896.9,64.89a.86.86,0,0,1-.86-.79,18.65,18.65,0,0,0-17-17,.86.86,0,1,1,.15-1.72,20.37,20.37,0,0,1,18.53,18.54.86.86,0,0,1-.78.94Z"/><path class="cls-9" d="M857.93,64.88h-.08a.86.86,0,0,1-.78-.93,20.4,20.4,0,0,1,18.37-18.52.86.86,0,0,1,.16,1.72,18.68,18.68,0,0,0-16.81,17A.86.86,0,0,1,857.93,64.88Z"/><path class="cls-9" d="M875.68,86.1h-.08a20.37,20.37,0,0,1-18.54-18.54.86.86,0,0,1,1.72-.15,18.65,18.65,0,0,0,17,17,.86.86,0,0,1-.07,1.72Z"/><path class="cls-9" d="M866.83,79.14l-.56-.42,0,0-1-.82,0,0-.56-.5.15-.52a56.73,56.73,0,0,0,1.89-8.22l.06-.58.56-.16c3.36-.95,8.29-4.65,8.34-4.69l.58-.43,4.08,3.77-.39.61c0,.05-3.32,5.28-4,8.7l-.12.6-.6.09a45.69,45.69,0,0,0-8,2.43Zm5-5.55L869,76.53a46.42,46.42,0,0,1,5.44-1.58,35.87,35.87,0,0,1,3.73-8.09l-2-1.83a35.12,35.12,0,0,1-7.79,4.38,59.17,59.17,0,0,1-1.31,5.92l3-3.18a2.07,2.07,0,0,1-.17-.64A2.23,2.23,0,0,1,872,69.18h0a2.25,2.25,0,0,1,2.32,2.13,2.23,2.23,0,0,1-2.13,2.33A2.52,2.52,0,0,1,871.79,73.6Zm0-1.77.38.08a.5.5,0,0,0,.32-.16.49.49,0,0,0,.13-.36.5.5,0,1,0-1,0Z"/><path class="cls-9" d="M880.91,68.3a1.94,1.94,0,0,1-1.38-.57l-4.78-4.78a1.95,1.95,0,0,1,0-2.76l6.69-6.69a2,2,0,0,1,2.76,0L889,58.28A1.95,1.95,0,0,1,889,61l-6.69,6.69A1.93,1.93,0,0,1,880.91,68.3Zm1.9-13.64a.21.21,0,0,0-.16.07L876,61.41a.25.25,0,0,0,0,.32l4.78,4.78a.2.2,0,0,0,.32,0l6.69-6.69a.25.25,0,0,0,0-.32L883,54.72A.21.21,0,0,0,882.81,54.65Z"/><path class="cls-9" d="M773.29,113.07a18.06,18.06,0,1,0-25.71,16.36v.82h0v12.84h2.95a1.08,1.08,0,0,0-.06.31,1.11,1.11,0,0,0,1.1,1.1h7.34a1.1,1.1,0,0,0,1.1-1.1,1,1,0,0,0-.06-.31h2.95V130.25h0v-.82A18,18,0,0,0,773.29,113.07Zm-23.51,27.81v-8.43h10.9v8.43Zm0-10.63V128l-.68-.28a15.85,15.85,0,1,1,12.25,0l-.68.28v2.28Z"/><path class="cls-9" d="M758.9,134h-7.34a1.1,1.1,0,1,0,0,2.21h7.34a1.1,1.1,0,1,0,0-2.21Z"/><path class="cls-9" d="M758.9,137.17h-7.34a1.1,1.1,0,1,0,0,2.2h7.34a1.1,1.1,0,1,0,0-2.2Z"/><path class="cls-9" d="M1038.75,77.33a.84.84,0,0,1-.59-1.43l3.75-3.74-3.49-3.49a.84.84,0,0,1,1.18-1.18l4.67,4.67-4.93,4.93A.83.83,0,0,1,1038.75,77.33Z"/><path class="cls-9" d="M1001.48,77.33a.83.83,0,0,1-.59-.25L996,72.16l4.67-4.67a.84.84,0,0,1,1.18,1.18l-3.49,3.49,3.75,3.74a.84.84,0,0,1-.59,1.43Z"/><path class="cls-9" d="M1020.09,86.13l-15.72-18.32h31.44ZM1008,69.49l12.08,14.08,12.08-14.08Z"/><polygon class="cls-9" points="1005.99 68.77 1004.6 67.84 1010.27 59.36 1029.92 59.36 1035.54 67.83 1034.14 68.75 1029.03 61.03 1011.16 61.03 1005.99 68.77"/><rect class="cls-9" x="1012.65" y="59.9" width="1.67" height="9.22" transform="translate(126.98 559.91) rotate(-32.84)"/><rect class="cls-9" x="1021.85" y="63.68" width="9.21" height="1.67" transform="translate(415.67 891.99) rotate(-57.16)"/><rect class="cls-9" x="1013.32" y="63.59" width="9.08" height="1.67" transform="translate(461.51 919.22) rotate(-60.56)"/><rect class="cls-9" x="1021.11" y="60.07" width="1.67" height="8.73" transform="translate(69.21 439.68) rotate(-25.11)"/><rect class="cls-9" x="1017.02" y="68.32" width="1.67" height="16.83" transform="translate(16.17 273.03) rotate(-15.4)"/><rect class="cls-9" x="1013.62" y="75.9" width="16.65" height="1.67" transform="translate(719.39 1055.87) rotate(-77.12)"/><path class="cls-9" d="M547.43,49.78a14.57,14.57,0,1,1,10.3-4.27A14.47,14.47,0,0,1,547.43,49.78Zm0-27.3a12.72,12.72,0,1,0,9,3.73A12.64,12.64,0,0,0,547.43,22.48Z"/><path class="cls-9" d="M547.43,47.3A12.09,12.09,0,1,1,556,43.76,12,12,0,0,1,547.43,47.3Zm0-22.33a10.24,10.24,0,1,0,7.24,3A10.17,10.17,0,0,0,547.43,25Z"/><path class="cls-9" d="M560.56,49.26a.92.92,0,0,1-.65-.27l-3.48-3.48a.92.92,0,1,1,1.31-1.31l3.48,3.48a.92.92,0,0,1-.65,1.58Z"/><path class="cls-9" d="M566.65,59.4l-9.24-9.24,5-5,9.23,9.24ZM560,50.17l6.62,6.62L569,54.43l-6.62-6.62Z"/><path class="cls-9" d="M547.43,41.3a6.09,6.09,0,1,1,6.09-6.09A6.1,6.1,0,0,1,547.43,41.3Zm0-10.33a4.24,4.24,0,1,0,4.24,4.24A4.25,4.25,0,0,0,547.43,31Z"/><path class="cls-9" d="M552.19,29.38a.92.92,0,0,1-.65-.27,5.81,5.81,0,0,0-8.21,0A.92.92,0,1,1,542,27.81a7.66,7.66,0,0,1,10.82,0,.93.93,0,0,1-.65,1.58Z"/><circle class="cls-9" cx="547.43" cy="35.21" r="3.07"/><path class="cls-10" d="M163.33,113.31c-.16-1.84-.32-9.78-.4-19-4.81,0-10.1-.08-14.82-.16,0,8-.08,15.47-.24,19.23-3.37.72-17.87,1-17.95.16-.48-3.29-1.2-52.16-.48-56.49.24-1.68,17.55-.88,17.87-.32s.48,10.1.64,21.31c4.81-.08,10.1-.08,15,0,.08-9.29.24-17.79.56-20.59,3.37-.72,17.15-.64,17.79-.16s.56,52.65-.16,55.69C180.71,114.67,163.41,114,163.33,113.31Z"/><path class="cls-10" d="M229.83,113.31c.88.48-31.25.48-39.82-.16-.4-5.69.16-44.47.72-56,9.05-.56,39.58-.64,39.82-.16.56,1.84.64,11.54.08,15-3,.32-16.43.24-23.32,0l.16,5.37c8.09-.08,16.59.16,17.07.64.88.88.16,13.78.16,14.18s-8.81.48-17.31.24v6.09c7.21-.24,19.71-.24,22.52,0C230.47,101.93,230.39,111.47,229.83,113.31Z"/><path class="cls-10" d="M237.2,113.31c-.4-4.81,0-48.56.8-55.85,5.37-.48,14.1-.8,20-.8,16.19,0,25.48,6.25,25.48,19.79,0,8-3.29,12.82-9.13,15.55,5.77,7.29,11.3,16.35,11.06,16.67-1,1.28-12.42,6.09-15.38,5.93-.24,0-6.73-11-13.06-19.63h-2.4c-.08,7.37-.16,15.95-.48,18C253.22,113.31,237.28,114,237.2,113.31Zm22.28-31.65c3.93,0,6.41-1.36,6.41-4.73,0-3-1.36-5-7.05-5a20.41,20.41,0,0,0-3,.16c.08,2.88,0,6.49-.08,9.37C256.67,81.58,258.35,81.66,259.47,81.66Z"/><path class="cls-10" d="M344.48,86.15c0,14.26-9.13,28.45-28.53,28.45-17.39,0-28.69-11.46-28.69-30.21,0-14.42,9.62-28.45,28.45-28.45C332.95,55.94,344.48,67.4,344.48,86.15ZM315.88,72c-6.33,0-10.26,5-10.26,13.38,0,7.61,4.09,13,9.94,13,6.57,0,10-4.89,10-13.38C325.57,75.49,321.25,72,315.88,72Z"/><path class="cls-10" d="M157.32,162c6.25,0,9.94-3.21,11.62-4.41,2.16,1.44,6.57,9.62,8.17,12.9-3.77,4.49-12.1,8.17-21.72,8.17-19.63,0-28.61-13.54-28.61-30.29,0-16.43,12-28.53,31-28.53,9.78,0,16.75,2.8,19.15,5.37-.08,1.92-4.09,12.74-6.57,14.82-2.88-1.6-7.77-3.69-12.26-3.69a12.36,12.36,0,0,0-12.66,12.74C145.46,159.55,152.59,162,157.32,162Z"/><path class="cls-10" d="M200,121c.64.48.56,52.65-.16,55.69-.4,1.68-17.63,1-17.71.32-.4-4.81-.64-48.56.16-55.85C185.68,120.44,199.38,120.52,200,121Z"/><path class="cls-10" d="M205.63,121.33c.4-.64,41.19-1.6,43.83-.88,1.36.24,1.12,15,.56,15.06-1.44.24-6.81.48-13.3.72.08,16.27.24,39.5-.16,40.06s-17.31,1-17.39.4c-.32-3.29-.48-25.16-.32-40.63-5.93.08-10.82,0-12.82-.24C205.39,132.62,205.23,121.89,205.63,121.33Z"/><path class="cls-10" d="M273.65,121c.64.48.56,52.65-.16,55.69-.4,1.68-17.63,1-17.71.32-.4-4.81-.64-48.56.16-55.85C259.31,120.44,273,120.52,273.65,121Z"/><path class="cls-10" d="M303.78,161.47c2.4-.08,17.31-.16,18.43.32.4.16.24,14.34-.24,14.74-.64.48-40.39.72-40.55.24-.8-2.64-.88-14.1-.8-14.42s16.19-22.68,18.67-26l.08-.4c-2.08,0-17.71.08-18,0s-1.44-14.9-.48-15.22,39.82-.48,40.14-.4,1.68,13.86,1.36,15c-.08.32-16.19,23.08-18.59,25.8Z"/><path class="cls-10" d="M368.68,177c.88.48-31.25.48-39.82-.16-.4-5.69.16-44.47.72-56,9.05-.56,39.58-.64,39.82-.16.56,1.84.64,11.54.08,15-3,.32-16.43.24-23.32,0l.16,5.37c8.09-.08,16.59.16,17.07.64.88.88.16,13.78.16,14.18s-8.81.48-17.31.24v6.09c7.21-.24,19.71-.24,22.52,0C369.32,165.64,369.24,175.17,368.68,177Z"/><path class="cls-10" d="M410,177.1c-1.68-2.08-9.3-15.46-16.75-27,0,10.42.56,21.39.32,26.12-3.37.72-17.23.8-17.31,0-.48-3.29-.72-50.4,0-54.73.24-1.68,16.11-1.68,16.43-1.12,1.12,1.76,10.9,17.23,17.15,29.41.08-11.78-.4-25.08,0-28.53,3.37-.72,16.59-.48,17.23,0s.08,51.52-.64,54.57C426,177.5,411.14,177.74,410,177.1Z"/><path class="cls-10" d="M438.33,123.77v8.7h-2.7v-8.7h-3.06v-2.1h8.76v2.1Zm14.35,8.7v-7.62h0l-2.76,7.62h-1.77l-2.82-7.62h-.06v7.62h-2.46v-10.8h3.54l2.67,7.08,2.7-7.08h3.54v10.8Z"/><path class="cls-11" d="M444.75,160a2.45,2.45,0,0,1,2.65,2c0,1.4-1.71,2.5-1.71,5.69,0,3.9,3,5.57,7.2,5.57,5,0,8.57-1.78,8.57-8.3,0-9.1-1.48-14.41-1.48-18.65,0-2.27.3-3.87,2.65-3.87,2.16,0,2.35,1.67,2.35,3,0,5.57-.42,11.75-.42,17.7,0,7.47-1.36,13.65-11.45,13.65-7.7,0-11.26-4.59-11.26-10.5C441.87,163.53,442.21,160,444.75,160Z"/><path class="cls-11" d="M469.09,166c.11-1.74.53-7.24.53-12.7,0-1.82-.38-7.89-.38-8.49a1.91,1.91,0,0,1,2.12-2c1.33,0,2,.57,2,1.67s-.64,8-.76,12.32a11.33,11.33,0,0,1,10.2-5.42c6.18,0,9.1,4.4,9.1,8.64,0,5-2.54,9.93-17.4,9.93a49.4,49.4,0,0,1-9.4-1.44c-2-.61-3.53-.91-3.53-2.5a1.16,1.16,0,0,1,1.33-1.33,8.31,8.31,0,0,1,2.2.38A18.54,18.54,0,0,0,469.09,166Zm10.35.3c4.93,0,8.26-2,8.26-5.19,0-2.65-2.12-5.23-6.37-5.23-5,0-8.68,3.75-8.68,7.24C472.65,165.7,475,166.3,479.44,166.3Z"/><path class="cls-11" d="M494.95,150.19c-.34,0-.83-.15-.83-1.1,0-1.33,5.31-2.43,7-3a1.88,1.88,0,0,1,.57-.11c.3,0,.95.27.95,1.29,0,1.4-2.62,1.52-3.94,1.82-1.18.3-2.16.61-3.37,1C495.17,150.15,495.1,150.19,494.95,150.19Z"/><path class="cls-11" d="M490.51,165c.87.49,2.2,1.14,5.46,1.14,3.41,0,3.68-2,3.68-3.18,0-4-1.25-4.51-1.25-6,0-.53.23-1.48,1.86-1.48,2.58,0,2.81,4.09,2.81,6.82,0,5-2,7.09-7,7.09a20.23,20.23,0,0,1-5.53-1,24.88,24.88,0,0,1-2.39-.83q-1.14-.45-1.14-.68c0-.57,1.36-2.16,2.12-2.16A3.64,3.64,0,0,1,490.51,165Zm9.33,8.95A2.15,2.15,0,0,1,502,176.2a2,2,0,0,1-2.2,2.2c-1.25,0-2.2-.49-2.2-1.9S498.13,174,499.84,174Z"/><path class="cls-11" d="M502.72,165a14.24,14.24,0,0,0,5.31,1.14c3,0,4.28-.68,4.28-7.05,0-7-.8-13.23-.8-14.14,0-1.06.34-2.43,2.16-2.43s2.31,1.55,2.31,2.88-.38,11.9-.38,15.35c0,5.57-1.06,8.53-6.67,8.53a28,28,0,0,1-3.15-.19,21.61,21.61,0,0,1-3.07-.64,12.82,12.82,0,0,1-3.37-1.33.46.46,0,0,1-.15-.34,3,3,0,0,1,.83-1.14C500.86,164.94,501,164.41,502.72,165Z"/><path class="cls-11" d="M519.82,166.49c0-.68.68-5.84.68-12.4,0-1.82-.49-8.38-.49-9.14,0-1.25.3-2.24,1.82-2.24,1.9,0,1.9,1,1.9,2,0,.68-.34,6.6-.34,10.84,0,5.54.57,11.18.57,11.87,0,.91-.23,1.82-2,1.82S519.82,168.12,519.82,166.49Z"/><path class="cls-11" d="M532.74,160a2.45,2.45,0,0,1,2.65,2c0,1.44-1.71,2.46-1.71,5.53,0,4.06,3,5.72,7.2,5.72,5,0,7.73-2.46,7.73-5.8,0-3.72-1.93-4.74-1.93-7.05a2.2,2.2,0,0,1,2.46-2.35c3,0,3.34,2.81,3.34,7.47s-1.93,11.3-11.75,11.3c-7.54,0-10.88-4.59-10.88-10.5C529.86,163.53,530.2,160,532.74,160Zm8.64-11.11c2,0,2.27,1.06,2.27,2.31a2,2,0,0,1-2.27,2.24c-1.25,0-2.27-.45-2.27-2.24A2.1,2.1,0,0,1,541.39,148.94Z"/><path class="cls-11" d="M556.48,166c.11-1.74.53-7.24.53-12.7,0-1.82-.38-7.89-.38-8.49a1.91,1.91,0,0,1,2.12-2c1.33,0,2,.57,2,1.67s-.64,8-.76,12.32a11.33,11.33,0,0,1,10.2-5.42c6.18,0,9.1,4.4,9.1,8.64,0,5-2.54,9.93-17.4,9.93a49.39,49.39,0,0,1-9.4-1.44c-2-.61-3.53-.91-3.53-2.5a1.16,1.16,0,0,1,1.33-1.33,8.31,8.31,0,0,1,2.2.38A18.53,18.53,0,0,0,556.48,166Zm10.35.3c4.93,0,8.26-2,8.26-5.19,0-2.65-2.12-5.23-6.37-5.23-5,0-8.68,3.75-8.68,7.24C560,165.7,562.39,166.3,566.83,166.3Z"/><path class="cls-11" d="M583.13,166.49c0-.68.68-5.84.68-12.4,0-1.82-.49-8.38-.49-9.14,0-1.25.3-2.24,1.82-2.24,1.9,0,1.9,1,1.9,2,0,.68-.34,6.6-.34,10.84,0,5.54.57,11.18.57,11.87,0,.91-.23,1.82-2,1.82S583.13,168.12,583.13,166.49Z"/><path class="cls-11" d="M594,174c5,0,8.91-1.9,8.91-4.78,0-.49-.19-.95-.53-.95-.61,0-1.4.95-3.79.95-4.74,0-7.16-3.07-7.16-6.94,0-5.19,3.45-8.42,7.58-8.42,3.94,0,7.66,2.35,7.66,11.64,0,8.38-5,12.85-12.28,12.85-2.54,0-3.26-.83-3.26-2.16C591.09,174.34,592.64,174,594,174Zm5-8c2.24,0,3.9-1.33,3.9-4.47,0-3-1.82-4.74-3.94-4.74-2.62,0-4.28,2.09-4.28,4.93C594.65,164,595.79,166,599,166Z"/><path class="cls-11" d="M617.33,145.22a2.85,2.85,0,0,1,2.84-2.88,2.66,2.66,0,0,1,2.84,2.77c0,2.88-3.49,4.28-5.88,4.28s-3.87-.42-3.87-1.52a1,1,0,0,1,1-1.06c1,0,2.16.76,3.18.76a1.55,1.55,0,0,0,1-.27A2.53,2.53,0,0,1,617.33,145.22Zm2.84,1.25a1.2,1.2,0,0,0,1.18-1.25,1.18,1.18,0,1,0-2.35.08A1.2,1.2,0,0,0,620.17,146.48Z"/><path class="cls-11" d="M606.63,165a7.93,7.93,0,0,0,3.37.68c1.63,0,3.53-1.18,4.25-4.06,1.21-5.35,4.47-8,8.53-8,4.85,0,8.07,3.34,8.07,8.3,0,5.8-4,8.11-7.85,8.11-4.78,0-6.14-2.39-7.35-2.39-.61,0-1.14.45-1.93,1.06a4,4,0,0,1-1,.49,3.61,3.61,0,0,1-1.4.23,26.35,26.35,0,0,1-4.7-.95,11.61,11.61,0,0,1-3.34-1.78.58.58,0,0,1-.19-.34c0-.11.19-.34.53-.61.72-.57,1.18-.95,1.59-.95A2.22,2.22,0,0,1,606.63,165Zm16,1.29a4.06,4.06,0,0,0,4.25-4.25,4.5,4.5,0,0,0-4.59-4.63,4.6,4.6,0,0,0-4.55,4.66C617.74,164.71,619.79,166.3,622.63,166.3Z"/><path class="cls-11" d="M630.37,165a14.24,14.24,0,0,0,5.31,1.14c3,0,4.28-.68,4.28-7.05,0-7-.8-13.23-.8-14.14,0-1.06.34-2.43,2.16-2.43s2.31,1.55,2.31,2.88-.38,11.9-.38,15.35c0,5.57-1.06,8.53-6.67,8.53a28,28,0,0,1-3.15-.19,21.6,21.6,0,0,1-3.07-.64,12.82,12.82,0,0,1-3.37-1.33.46.46,0,0,1-.15-.34,3,3,0,0,1,.83-1.14C628.51,164.94,628.62,164.41,630.37,165Z"/><path class="cls-11" d="M647.47,166.49c0-.68.68-5.84.68-12.4,0-1.82-.49-8.38-.49-9.14,0-1.25.3-2.24,1.82-2.24,1.9,0,1.9,1,1.9,2,0,.68-.34,6.6-.34,10.84,0,5.54.57,11.18.57,11.87,0,.91-.23,1.82-2,1.82S647.47,168.12,647.47,166.49Z"/></g></g></svg>