<svg xmlns="http://www.w3.org/2000/svg" viewBox="0 0 1440 374.07"><defs><style>.cls-1{fill:#febe29;}.cls-2{fill:#414042;}.cls-3{fill:#808285;}.cls-4{fill:#fff;}.cls-5{fill:#ffd586;}.cls-6{fill:#ff7043;}.cls-7{fill:#ffe2d9;}.cls-8{fill:#ffb936;}.cls-9{fill:#ff8d69;}.cls-10{fill:#58595b;}.cls-11{fill:#f1f2f2;}.cls-12{fill:#d1d3d4;}.cls-13{fill:#6d6e71;}.cls-14{fill:#bcbec0;}.cls-15{font-size:21.51px;font-family:HelveticaNeue-Bold, HelveticaNeue Bold;font-weight:700;}.cls-15,.cls-21,.cls-22{fill:#222;}.cls-16{letter-spacing:-0.01em;}.cls-17{letter-spacing:0.02em;}.cls-18{letter-spacing:-0.01em;}.cls-19{letter-spacing:-0.01em;}.cls-20{letter-spacing:-0.01em;}.cls-22{stroke:#222;stroke-miterlimit:10;stroke-width:0.61px;}</style></defs><title>Asset 1</title><g id="Layer_2" data-name="Layer 2"><g id="Layer_1-2" data-name="Layer 1"><rect class="cls-1" width="1440" height="374.07"/><rect class="cls-2" x="849.75" y="153.21" width="2.11" height="2.11"/><rect class="cls-2" x="854.21" y="153.21" width="2.11" height="2.11"/><rect class="cls-2" x="858.67" y="153.21" width="2.11" height="2.11"/><rect class="cls-2" x="863.12" y="153.21" width="2.11" height="2.11"/><rect class="cls-2" x="867.58" y="153.21" width="2.11" height="2.11"/><rect class="cls-2" x="872.04" y="153.21" width="2.11" height="2.11"/><rect class="cls-2" x="876.5" y="153.21" width="2.11" height="2.11"/><rect class="cls-2" x="880.96" y="153.21" width="2.11" height="2.11"/><rect class="cls-2" x="885.41" y="153.21" width="2.11" height="2.11"/><rect class="cls-2" x="889.87" y="153.21" width="2.11" height="2.11"/><rect class="cls-2" x="1068.09" y="91.62" width="2.11" height="2.11"/><rect class="cls-2" x="1072.55" y="91.62" width="2.11" height="2.11"/><rect class="cls-2" x="1077.01" y="91.62" width="2.11" height="2.11"/><rect class="cls-2" x="1081.47" y="91.62" width="2.11" height="2.11"/><rect class="cls-2" x="1085.92" y="91.62" width="2.11" height="2.11"/><rect class="cls-2" x="1090.38" y="91.62" width="2.11" height="2.11"/><rect class="cls-2" x="1094.84" y="91.62" width="2.11" height="2.11"/><rect class="cls-2" x="1099.3" y="91.62" width="2.11" height="2.11"/><rect class="cls-2" x="1103.75" y="91.62" width="2.11" height="2.11"/><rect class="cls-2" x="1108.21" y="91.62" width="2.11" height="2.11"/><rect class="cls-2" x="977.11" y="127.48" width="2.11" height="2.11"/><rect class="cls-2" x="981.57" y="127.48" width="2.11" height="2.11"/><rect class="cls-2" x="986.02" y="127.48" width="2.11" height="2.11"/><rect class="cls-2" x="990.48" y="127.48" width="2.11" height="2.11"/><rect class="cls-2" x="994.94" y="127.48" width="2.11" height="2.11"/><rect class="cls-2" x="999.4" y="127.48" width="2.11" height="2.11"/><rect class="cls-2" x="1003.86" y="127.48" width="2.11" height="2.11"/><rect class="cls-2" x="1008.31" y="127.48" width="2.11" height="2.11"/><rect class="cls-2" x="1012.77" y="127.48" width="2.11" height="2.11"/><rect class="cls-2" x="1017.23" y="127.48" width="2.11" height="2.11"/><rect class="cls-2" x="810.9" y="76.86" width="3.01" height="3.01"/><rect class="cls-2" x="817.24" y="76.86" width="3.01" height="3.01"/><rect class="cls-2" x="823.59" y="76.86" width="3.01" height="3.01"/><rect class="cls-2" x="829.94" y="76.86" width="3.01" height="3.01"/><rect class="cls-2" x="836.28" y="76.86" width="3.01" height="3.01"/><rect class="cls-2" x="842.63" y="76.86" width="3.01" height="3.01"/><rect class="cls-2" x="848.97" y="76.86" width="3.01" height="3.01"/><rect class="cls-2" x="855.32" y="76.86" width="3.01" height="3.01"/><rect class="cls-2" x="861.66" y="76.86" width="3.01" height="3.01"/><rect class="cls-2" x="868.01" y="76.86" width="3.01" height="3.01"/><rect class="cls-2" x="632.78" y="89.17" width="2.11" height="2.11"/><rect class="cls-2" x="637.24" y="89.17" width="2.11" height="2.11"/><rect class="cls-2" x="641.7" y="89.17" width="2.11" height="2.11"/><rect class="cls-2" x="646.16" y="89.17" width="2.11" height="2.11"/><rect class="cls-2" x="650.62" y="89.17" width="2.11" height="2.11"/><rect class="cls-2" x="655.07" y="89.17" width="2.11" height="2.11"/><rect class="cls-2" x="659.53" y="89.17" width="2.11" height="2.11"/><rect class="cls-2" x="663.99" y="89.17" width="2.11" height="2.11"/><rect class="cls-2" x="668.45" y="89.17" width="2.11" height="2.11"/><rect class="cls-2" x="672.9" y="89.17" width="2.11" height="2.11"/><path class="cls-2" d="M963.3,67.59,959,63.31,963.3,59l4.28,4.28Zm-1.35-4.28,1.35,1.35,1.35-1.35L963.3,62Z"/><path class="cls-2" d="M1079.65,149.63l-2.28-2.28,2.28-2.28,2.28,2.28Zm-.72-2.28.72.72.72-.72-.72-.72Z"/><path class="cls-2" d="M1060.93,62.28l-2.64-2.64,2.64-2.64,2.64,2.64Zm-.83-2.64.83.83.83-.83-.83-.83Z"/><path class="cls-2" d="M639.5,69.53l-3.12-3.12,3.12-3.12,3.12,3.12Zm-1-3.12,1,1,1-1-1-1Z"/><path class="cls-2" d="M884.66,83.68l-4.76-4.76,4.76-4.76,4.76,4.76Zm-1.5-4.76,1.5,1.5,1.5-1.5-1.5-1.5Z"/><path class="cls-2" d="M756,99.78,751.25,95,756,90.23,760.8,95ZM754.52,95l1.5,1.51L757.53,95,756,93.5Z"/><path class="cls-2" d="M774.73,133.07l-4.53-4.53,4.53-4.53,4.53,4.53Zm-1.43-4.53,1.43,1.43,1.43-1.43-1.43-1.43Z"/><rect class="cls-2" x="958.37" y="81.51" width="3" height="3"/><rect class="cls-2" x="964.38" y="83.13" width="3.01" height="3" transform="translate(406.49 876.58) rotate(-59.77)"/><rect class="cls-2" x="968.77" y="87.56" width="3" height="3" transform="translate(83.36 492.48) rotate(-29.7)"/><rect class="cls-2" x="970.35" y="93.58" width="3" height="3.01" transform="translate(869.95 1066.25) rotate(-89.6)"/><rect class="cls-2" x="968.68" y="99.58" width="3" height="3" transform="translate(389.21 884.63) rotate(-59.39)"/><rect class="cls-2" x="964.22" y="103.94" width="3" height="3" transform="translate(71.94 486.09) rotate(-29.3)"/><rect class="cls-2" x="958.18" y="105.47" width="3" height="3" transform="translate(837.18 1064.79) rotate(-89.07)"/><rect class="cls-2" x="952.19" y="103.75" width="3" height="3" transform="translate(371.28 867.75) rotate(-58.92)"/><rect class="cls-2" x="947.88" y="99.26" width="3.01" height="3" transform="translate(68.94 469.95) rotate(-28.81)"/><polygon class="cls-2" points="949.44 93.24 949.37 96.25 946.36 96.17 946.43 93.17 949.44 93.24"/><rect class="cls-2" x="948.16" y="87.23" width="3" height="3" transform="translate(378.1 852.31) rotate(-58.52)"/><polygon class="cls-2" points="956.22 85.06 953.58 86.49 952.15 83.85 954.8 82.42 956.22 85.06"/><rect class="cls-2" x="1198.92" y="110.63" width="1.39" height="1.39"/><rect class="cls-2" x="1201.7" y="111.38" width="1.39" height="1.39" transform="translate(499.83 1094.27) rotate(-59.75)"/><rect class="cls-2" x="1203.72" y="113.42" width="1.39" height="1.39" transform="translate(101.14 610.51) rotate(-29.64)"/><rect class="cls-2" x="1204.45" y="116.2" width="1.39" height="1.39" transform="translate(1079.88 1321.2) rotate(-89.6)"/><rect class="cls-2" x="1203.68" y="118.97" width="1.38" height="1.39" transform="translate(488.43 1095.51) rotate(-59.41)"/><rect class="cls-2" x="1201.62" y="120.98" width="1.39" height="1.39" transform="translate(94.43 604.34) rotate(-29.32)"/><rect class="cls-2" x="1198.83" y="121.69" width="1.39" height="1.38" transform="matrix(0.02, -1, 1, 0.02, 1058.18, 1319.82)"/><rect class="cls-2" x="1196.07" y="120.89" width="1.39" height="1.39" transform="translate(475.17 1084.05) rotate(-58.94)"/><rect class="cls-2" x="1194.08" y="118.82" width="1.39" height="1.38" transform="translate(89.98 589.82) rotate(-28.77)"/><rect class="cls-2" x="1193.4" y="116.03" width="1.39" height="1.39" transform="translate(1049.57 1307.77) rotate(-88.66)"/><rect class="cls-2" x="1194.21" y="113.27" width="1.39" height="1.39" transform="matrix(0.52, -0.85, 0.85, 0.52, 472.47, 1072.54)"/><rect class="cls-2" x="1196.3" y="111.3" width="1.39" height="1.39" transform="translate(90.75 582.69) rotate(-28.39)"/><rect class="cls-2" x="702.15" y="77.14" width="2.2" height="2.2"/><rect class="cls-2" x="706.55" y="78.33" width="2.2" height="2.2" transform="translate(283.09 651.11) rotate(-59.8)"/><rect class="cls-2" x="709.76" y="81.56" width="2.2" height="2.2" transform="translate(52.43 363.07) rotate(-29.7)"/><rect class="cls-2" x="710.91" y="85.97" width="2.2" height="2.2" transform="translate(619.68 798.42) rotate(-89.58)"/><rect class="cls-2" x="709.7" y="90.36" width="2.19" height="2.2" transform="translate(270.09 656.59) rotate(-59.38)"/><rect class="cls-2" x="706.44" y="93.54" width="2.2" height="2.2" transform="translate(44.13 358.19) rotate(-29.29)"/><rect class="cls-2" x="702.02" y="94.66" width="2.2" height="2.19" transform="translate(596.95 797.38) rotate(-89.15)"/><rect class="cls-2" x="697.64" y="93.41" width="2.19" height="2.2" transform="translate(257.22 644.26) rotate(-58.93)"/><rect class="cls-2" x="694.48" y="90.12" width="2.2" height="2.19" transform="translate(42.26 346.8) rotate(-28.84)"/><rect class="cls-2" x="693.4" y="85.7" width="2.2" height="2.2" transform="translate(591.85 779.13) rotate(-88.69)"/><rect class="cls-2" x="694.69" y="81.33" width="2.2" height="2.2" transform="translate(262.1 632.72) rotate(-58.51)"/><rect class="cls-2" x="698" y="78.19" width="2.2" height="2.2" transform="translate(46.34 341.84) rotate(-28.38)"/><path class="cls-2" d="M1102.23,141.19a.58.58,0,0,1-.26-.36.58.58,0,0,1,.57-.71.6.6,0,0,1,.29.08l3.4,2.1a.57.57,0,0,1,.19.79.57.57,0,0,1-.49.27.65.65,0,0,1-.3-.08Zm4.16,6.82a.58.58,0,0,0,0-.44.58.58,0,0,0-.79-.23l-3.51,1.91a.58.58,0,0,0-.28.35.57.57,0,0,0,.55.74.6.6,0,0,0,.28-.07l3.51-1.92A.57.57,0,0,0,1106.4,148Zm7.67-4.83a.58.58,0,0,0,.51.29.61.61,0,0,0,.28-.07l3.47-2a.54.54,0,0,0,.27-.34.56.56,0,0,0-.06-.44.57.57,0,0,0-.5-.29.56.56,0,0,0-.28.08l-3.47,2A.59.59,0,0,0,1114.07,143.17Zm-6.4,6a.57.57,0,0,0-.5.28l-2.07,3.42a.58.58,0,0,0,.2.79.55.55,0,0,0,.3.08.57.57,0,0,0,.49-.28l2.07-3.42a.59.59,0,0,0-.19-.79A.62.62,0,0,0,1107.67,149.14Zm5.05-7.52a.56.56,0,0,0,.49-.28l2-3.46a.58.58,0,0,0,.06-.44.59.59,0,0,0-.56-.43.58.58,0,0,0-.49.29l-2,3.46a.55.55,0,0,0-.06.43.56.56,0,0,0,.56.43Zm-6.93,3.93a.62.62,0,0,0-.15-.42.55.55,0,0,0-.42-.21l-4,.08c-.46,0-.57.24-.57.44s.06.45.56.47l4,.24A.61.61,0,0,0,1105.79,145.55Zm9.07,1.88a.58.58,0,0,0-.3-.08.59.59,0,0,0-.5.28.57.57,0,0,0-.06.44.54.54,0,0,0,.27.35l3.43,2a.57.57,0,0,0,.29.08.57.57,0,0,0,.56-.72.54.54,0,0,0-.26-.35Zm-8.4-10.24a.58.58,0,0,0-.51-.3.57.57,0,0,0-.28.06.61.61,0,0,0-.28.34.57.57,0,0,0,0,.44l1.88,3.52a.57.57,0,0,0,.51.31.55.55,0,0,0,.28-.07.6.6,0,0,0,.28-.34.55.55,0,0,0,0-.44Zm12.79,7.76-4,0a.53.53,0,0,0-.58.52.5.5,0,0,0,.14.36.6.6,0,0,0,.43.17l4,.11a.6.6,0,0,0,0-1.2Zm-6,4.53a.57.57,0,0,0-.5-.3.62.62,0,0,0-.28.07.58.58,0,0,0-.22.79l1.94,3.49a.58.58,0,0,0,.5.3.62.62,0,0,0,.28-.07.58.58,0,0,0,.22-.78Zm-3-13.67a.57.57,0,0,0-.57.58v4a.57.57,0,1,0,1.15,0v-4A.57.57,0,0,0,1110.19,135.82Zm0,14a.59.59,0,0,0-.56.56l-.07,4a.53.53,0,0,0,.16.39.56.56,0,0,0,.41.17h0a.56.56,0,0,0,.58-.55l.07-4A.58.58,0,0,0,1110.16,149.85Z"/><path class="cls-2" d="M995.08,80.77h2.31V78.36h1.67v2.41h2.32v1.57h-2.32v2.44h-1.67V82.34h-2.31Z"/><path class="cls-2" d="M903.17,120.72h2.31v-2.41h1.67v2.41h2.32v1.57h-2.32v2.44h-1.67v-2.44h-2.31Z"/><path class="cls-2" d="M785.38,89.43h2.31V87h1.67v2.41h2.32V91h-2.32v2.44h-1.67V91h-2.31Z"/><path class="cls-2" d="M1178.69,126.68H1181v-2.41h1.67v2.41H1185v1.57h-2.32v2.44H1181v-2.44h-2.31Z"/><path class="cls-2" d="M1102.3,72.09H1105V69.24h2v2.85h2.74v1.85H1107v2.88h-2V73.94h-2.73Z"/><path class="cls-2" d="M1046.78,144.28h2.31v-2.41h1.67v2.41h2.32v1.57h-2.32v2.44h-1.67v-2.44h-2.31Z"/><path class="cls-2" d="M918.38,72.23h2.31V69.83h1.67v2.41h2.32V73.8h-2.32v2.44h-1.67V73.8h-2.31Z"/><path class="cls-2" d="M645.12,101.17h2.31V98.77h1.67v2.41h2.32v1.57H649.1v2.44h-1.67v-2.44h-2.31Z"/><path class="cls-2" d="M682.19,49.32h2.15V47.08h1.55v2.25h2.16v1.46H685.9v2.27h-1.55V50.78h-2.15Z"/><rect class="cls-2" x="853.22" y="104.92" width="81.55" height="2.49"/><rect class="cls-2" x="1087.06" y="126.05" width="81.55" height="2.49"/><rect class="cls-2" x="826.97" y="120.28" width="67.02" height="2.49"/><rect class="cls-2" x="952.15" y="142.9" width="37.26" height="2.49"/><rect class="cls-2" x="997.88" y="142.9" width="37.26" height="2.49"/><rect class="cls-2" x="1008.19" y="113.32" width="109.6" height="2.49"/><rect class="cls-2" x="795.87" y="120.28" width="24.6" height="2.49"/><rect class="cls-2" x="624.66" y="110.68" width="100.09" height="2.49"/><rect class="cls-2" x="664.82" y="101.03" width="60.6" height="2.49"/><path class="cls-2" d="M1037.29,75.26h-4.57V70.69h4.57Zm-3.05-1.52h1.53V72.21h-1.53Z"/><path class="cls-2" d="M1037.29,109.69h-4.57v-4.57h4.57Zm-3.05-1.52h1.53v-1.53h-1.53Z"/><path class="cls-2" d="M1054.5,92.48h-4.57V87.9h4.57ZM1051.45,91H1053V89.42h-1.54Z"/><path class="cls-2" d="M1020.08,92.48h-4.57V87.9h4.57ZM1017,91h1.53V89.42H1017Z"/><path class="cls-2" d="M1036.53,108.1a.76.76,0,0,1-.07-1.52,16.41,16.41,0,0,0,14.93-14.93.76.76,0,0,1,1.51.13,17.93,17.93,0,0,1-16.31,16.31Z"/><path class="cls-2" d="M1052.15,89.43a.76.76,0,0,1-.76-.69,16.41,16.41,0,0,0-14.93-14.93.76.76,0,1,1,.13-1.51,17.93,17.93,0,0,1,16.31,16.31.76.76,0,0,1-.69.82Z"/><path class="cls-2" d="M1017.86,89.42h-.07a.76.76,0,0,1-.69-.82,18,18,0,0,1,16.16-16.3.76.76,0,0,1,.14,1.51,16.44,16.44,0,0,0-14.8,14.92A.76.76,0,0,1,1017.86,89.42Z"/><path class="cls-2" d="M1033.48,108.1h-.07a17.93,17.93,0,0,1-16.31-16.31.76.76,0,0,1,1.51-.13,16.41,16.41,0,0,0,14.93,14.93.76.76,0,0,1-.07,1.52Z"/><path class="cls-2" d="M1025.69,102l-.49-.37,0,0-.88-.72,0,0-.5-.44.13-.46a49.93,49.93,0,0,0,1.66-7.23l.05-.51.5-.14c3-.83,7.3-4.1,7.34-4.13l.51-.38,3.59,3.32-.34.54s-2.92,4.64-3.53,7.65l-.11.52-.53.08a40.21,40.21,0,0,0-7,2.14Zm4.36-4.88-2.47,2.58a40.85,40.85,0,0,1,4.79-1.39,31.56,31.56,0,0,1,3.29-7.12l-1.74-1.61a30.91,30.91,0,0,1-6.85,3.85,52.07,52.07,0,0,1-1.15,5.21l2.6-2.8a1.82,1.82,0,0,1-.15-.57,2,2,0,0,1,1.87-2h0a2,2,0,0,1,2,1.87,2,2,0,0,1-1.87,2.05A2.22,2.22,0,0,1,1030.06,97.09Zm0-1.56.34.07a.44.44,0,0,0,.28-.14.43.43,0,0,0,.12-.32.44.44,0,1,0-.89,0Z"/><path class="cls-2" d="M1038.08,92.43a1.71,1.71,0,0,1-1.21-.5l-4.21-4.21a1.71,1.71,0,0,1,0-2.43l5.88-5.88a1.76,1.76,0,0,1,2.43,0l4.21,4.21a1.72,1.72,0,0,1,0,2.43l-5.89,5.88A1.7,1.7,0,0,1,1038.08,92.43Zm1.67-12a.18.18,0,0,0-.14.06l-5.89,5.88a.22.22,0,0,0,0,.28l4.21,4.21a.17.17,0,0,0,.28,0l5.88-5.89a.22.22,0,0,0,0-.28l-4.21-4.21A.19.19,0,0,0,1039.76,80.42Z"/><path class="cls-2" d="M943.37,131.83a15.89,15.89,0,1,0-22.62,14.39v.72h0v11.3h2.59a1,1,0,0,0-.06.27,1,1,0,0,0,1,1h6.46a1,1,0,0,0,1-1,.92.92,0,0,0-.06-.27h2.59v-11.3h0v-.72A15.85,15.85,0,0,0,943.37,131.83Zm-20.69,24.48v-7.42h9.59v7.42Zm0-9.36v-2l-.6-.25a13.95,13.95,0,1,1,10.78,0l-.59.25v2Z"/><path class="cls-2" d="M930.71,150.23h-6.46a1,1,0,1,0,0,1.94h6.46a1,1,0,1,0,0-1.94Z"/><path class="cls-2" d="M930.71,153h-6.46a1,1,0,1,0,0,1.94h6.46a1,1,0,1,0,0-1.94Z"/><path class="cls-2" d="M1177,100.38a.74.74,0,0,1-.52-1.26l3.3-3.29-3.07-3.07a.74.74,0,0,1,1-1l4.11,4.11-4.34,4.34A.73.73,0,0,1,1177,100.38Z"/><path class="cls-2" d="M1144.19,100.38a.73.73,0,0,1-.52-.22l-4.34-4.34,4.11-4.11a.74.74,0,1,1,1,1l-3.07,3.07,3.3,3.29a.74.74,0,0,1-.52,1.26Z"/><path class="cls-2" d="M1160.57,108.12,1146.74,92h27.67Zm-10.63-14.65,10.63,12.39,10.63-12.39Z"/><polygon class="cls-2" points="1148.16 92.85 1146.93 92.03 1151.92 84.56 1169.22 84.56 1174.16 92.02 1172.93 92.83 1168.43 86.03 1152.71 86.03 1148.16 92.85"/><rect class="cls-2" x="1154.02" y="85.04" width="1.47" height="8.11" transform="translate(136.22 640.45) rotate(-32.84)"/><rect class="cls-2" x="1162.12" y="88.36" width="8.11" height="1.47" transform="translate(458.96 1020.63) rotate(-57.16)"/><rect class="cls-2" x="1154.6" y="88.29" width="7.99" height="1.47" transform="translate(511.67 1054.3) rotate(-60.56)"/><rect class="cls-2" x="1161.46" y="85.18" width="1.47" height="7.68" transform="translate(72.02 501.51) rotate(-25.11)"/><rect class="cls-2" x="1157.87" y="92.44" width="1.47" height="14.81" transform="translate(15.08 311.23) rotate(-15.4)"/><rect class="cls-2" x="1154.87" y="99.11" width="14.65" height="1.47" transform="translate(805.84 1210.56) rotate(-77.12)"/><path class="cls-2" d="M744.61,76.13a12.82,12.82,0,1,1,9.07-3.76A12.74,12.74,0,0,1,744.61,76.13Zm0-24a11.2,11.2,0,1,0,7.92,3.28A11.12,11.12,0,0,0,744.61,52.11Z"/><path class="cls-2" d="M744.61,73.95a10.64,10.64,0,1,1,7.52-3.12A10.57,10.57,0,0,1,744.61,73.95Zm0-19.65A9,9,0,1,0,751,56.93,9,9,0,0,0,744.61,54.29Z"/><path class="cls-2" d="M756.16,75.67a.81.81,0,0,1-.58-.24l-3.06-3.06a.81.81,0,1,1,1.15-1.15l3.06,3.06a.81.81,0,0,1-.58,1.39Z"/><path class="cls-2" d="M761.53,84.6l-8.13-8.13,4.38-4.37,8.13,8.13Zm-5.83-8.13,5.83,5.83,2.07-2.07-5.82-5.83Z"/><path class="cls-2" d="M744.61,68.67A5.36,5.36,0,1,1,750,63.31,5.37,5.37,0,0,1,744.61,68.67Zm0-9.09a3.73,3.73,0,1,0,3.73,3.73A3.74,3.74,0,0,0,744.61,59.57Z"/><path class="cls-2" d="M748.8,58.18a.81.81,0,0,1-.58-.24,5.11,5.11,0,0,0-7.22,0,.81.81,0,1,1-1.15-1.15,6.74,6.74,0,0,1,9.53,0,.81.81,0,0,1-.58,1.39Z"/><circle class="cls-2" cx="744.61" cy="63.31" r="2.7"/><path class="cls-2" d="M738.45,158.77h-2.23a2.79,2.79,0,0,1-2-.83,2.82,2.82,0,0,1-.83-2v-2.26a14.52,14.52,0,0,1-3.23-1.35l-1.6,1.59a2.89,2.89,0,0,1-4,0L723,152.32a2.84,2.84,0,0,1,0-4l1.61-1.6a14.39,14.39,0,0,1-1.33-3.23H721a2.83,2.83,0,0,1-2.82-2.84l0-2.22a2.82,2.82,0,0,1,2.81-2.81h2.28a14.4,14.4,0,0,1,1.35-3.22l-1.59-1.61a2.84,2.84,0,0,1,0-4l1.58-1.57a2.9,2.9,0,0,1,4,0l1.59,1.61a14.49,14.49,0,0,1,3.16-1.3v-2.26a2.83,2.83,0,0,1,2.83-2.83h2.22a2.83,2.83,0,0,1,2.83,2.83v2.26a14.34,14.34,0,0,1,3.23,1.34l1.6-1.6a2.89,2.89,0,0,1,4,0l1.57,1.57a2.8,2.8,0,0,1,.83,2,2.83,2.83,0,0,1-.83,2l-1.6,1.6a14.41,14.41,0,0,1,1.34,3.23h2.26a2.83,2.83,0,0,1,2.82,2.82v2.22a2.84,2.84,0,0,1-2.83,2.83h-2.26a14.48,14.48,0,0,1-1.34,3.23l1.59,1.61a2.82,2.82,0,0,1,0,4L750.12,154a2.9,2.9,0,0,1-4,0l-1.6-1.6a14.46,14.46,0,0,1-3.23,1.33v2.26A2.83,2.83,0,0,1,738.45,158.77ZM729.92,150l.61.39a12.74,12.74,0,0,0,4,1.67l.71.16v3.69a1,1,0,0,0,.3.72,1,1,0,0,0,.71.3h2.22a1,1,0,0,0,1-1v-3.7l.71-.16a12.65,12.65,0,0,0,4-1.65l.61-.39,2.61,2.62a1,1,0,0,0,1.44,0l1.57-1.56a1,1,0,0,0,0-1.43l-2.6-2.62.39-.61a12.62,12.62,0,0,0,1.66-4l.16-.71h3.7a1,1,0,0,0,1-1v-2.22a1,1,0,0,0-1-1H750l-.16-.7a12.66,12.66,0,0,0-1.66-4l-.39-.61,2.61-2.62a1,1,0,0,0,.3-.72,1,1,0,0,0-.29-.71l-1.57-1.57a1,1,0,0,0-1.43,0l-2.62,2.62-.61-.39a12.62,12.62,0,0,0-4-1.66l-.71-.16v-3.69a1,1,0,0,0-1-1h-2.22a1,1,0,0,0-1,1V127l-.71.16a12.63,12.63,0,0,0-3.93,1.62l-.62.39-2.6-2.63a1,1,0,0,0-1.43,0l-1.58,1.56a1,1,0,0,0,0,1.43l2.6,2.63-.39.61a12.78,12.78,0,0,0-1.67,4l-.17.71h-3.69a1,1,0,0,0-1,1l0,2.23a1,1,0,0,0,.29.71,1,1,0,0,0,.71.3l3.69,0,.16.71a12.64,12.64,0,0,0,1.65,4l.39.62-2.63,2.61a1,1,0,0,0,0,1.43l1.56,1.57a1,1,0,0,0,1.43,0Zm7.47-3.41a7,7,0,1,1,7-7A7,7,0,0,1,737.39,146.61Zm0-12.18a5.18,5.18,0,1,0,5.18,5.18A5.19,5.19,0,0,0,737.39,134.43Z"/><path class="cls-3" d="M1230.3,243.37c-14.22-12.22-7.53-54.58-7.53-54.58a43.7,43.7,0,0,0-43.71-43.71h0a43.71,43.71,0,0,0-43.71,43.71s8,41.56-7.53,54.58l52.36,13Z"/><path class="cls-2" d="M1180.2,257.69l-55-13.71,1.87-1.57c14.8-12.42,7.19-53,7.11-53.4l0-.23a45,45,0,0,1,89.9,0V189c-.07.42-6.42,41.82,7.11,53.45l1.8,1.55Zm-49.87-15,49.86,12.42,47.69-12.41c-12.29-13.9-6.77-51.31-6.35-54a42.46,42.46,0,0,0-84.93,0C1137.14,191.51,1143.74,228.23,1130.32,242.71Z"/><path class="cls-4" d="M1214.3,218.25h2a4.66,4.66,0,0,0,4.66-4.66v-7.38a4.66,4.66,0,0,0-4.66-4.66h-2Z"/><path class="cls-4" d="M1143.56,218.25h-2a4.66,4.66,0,0,1-4.66-4.66v-7.38a4.66,4.66,0,0,1,4.66-4.66h2Z"/><path class="cls-2" d="M1216.33,219.49h-3.27V200.3h3.27a5.91,5.91,0,0,1,5.9,5.91v7.38A5.91,5.91,0,0,1,1216.33,219.49Zm-.78-2.49h.78a3.42,3.42,0,0,0,3.42-3.42v-7.38a3.42,3.42,0,0,0-3.42-3.42h-.78Z"/><path class="cls-2" d="M1144.8,219.49h-3.27a5.91,5.91,0,0,1-5.9-5.9v-7.38a5.91,5.91,0,0,1,5.9-5.91h3.27Zm-3.27-16.71a3.42,3.42,0,0,0-3.42,3.42v7.38a3.42,3.42,0,0,0,3.42,3.42h.78V202.79Z"/><polygon class="cls-4" points="1195.3 224.38 1195.3 260.99 1216.08 267.24 1180.56 307.76 1138.01 269.16 1165.2 260.99 1165.2 224.38 1195.3 224.38"/><path class="cls-2" d="M1180.66,309.53l-45.12-40.93,28.41-8.54V223.13h32.59v36.93l21.75,6.55Zm-40.19-39.81,40,36.27,33.41-38.12-19.82-6V225.62h-27.61v36.29Z"/><path class="cls-4" d="M1216.08,175.81v43.06a37,37,0,0,1-37,37h0a37,37,0,0,1-37-37V180.11h50Z"/><path class="cls-2" d="M1179.07,257.13a38.31,38.31,0,0,1-38.26-38.26v-40h51.13l25.39-4.54v44.55A38.3,38.3,0,0,1,1179.07,257.13Zm-35.77-75.78v37.52a35.77,35.77,0,1,0,71.54,0V177.29L1192,181.35Z"/><polygon class="cls-5" points="1241.11 335.63 1120.02 335.63 1124.28 273.09 1152.17 265.11 1180.56 298.51 1208.58 265.13 1236.83 273.09 1236.8 290.42 1241.11 335.63"/><rect class="cls-2" x="1211.28" y="308.8" width="2.48" height="26.73" transform="translate(-29.95 148.21) rotate(-6.91)"/><rect class="cls-2" x="1134.63" y="320.93" width="26.73" height="2.48" transform="translate(690.53 1423.27) rotate(-83.11)"/><path class="cls-2" d="M1178.86,218.08a1.24,1.24,0,0,1-1.24-1.24V208a1.24,1.24,0,0,1,2.49,0v8.87A1.24,1.24,0,0,1,1178.86,218.08Z"/><path class="cls-2" d="M1156.22,208a1.24,1.24,0,0,1-.88-2.12,9.08,9.08,0,0,1,12.84,0,1.24,1.24,0,0,1-1.76,1.76,6.75,6.75,0,0,0-9.33,0A1.24,1.24,0,0,1,1156.22,208Z"/><path class="cls-2" d="M1190.62,208a1.24,1.24,0,0,1-.88-2.12,9.08,9.08,0,0,1,12.84,0,1.24,1.24,0,0,1-1.76,1.76,6.75,6.75,0,0,0-9.33,0A1.24,1.24,0,0,1,1190.62,208Z"/><path class="cls-6" d="M1191.49,235.17h-25.27s0,9.11,12.31,9.11C1191.49,244.27,1191.49,235.17,1191.49,235.17Z"/><path class="cls-2" d="M1239.86,335.71l-4.3-59.61a2.84,2.84,0,0,0-1.89-2.61L1209,266.54l-28.45,33.89-28.83-33.9-24.3,7a3.38,3.38,0,0,0-2.19,2.64l-4,59.59-2.48-.17,4-59.63a5.88,5.88,0,0,1,4-4.83l25.84-7.39,28,32.88,27.59-32.87,26.2,7.39A5.29,5.29,0,0,1,1238,276l4.3,59.51Z"/><rect class="cls-2" x="1107.91" y="334.38" width="176.3" height="2.49"/><polygon class="cls-5" points="1109.4 335.57 1134.65 335.57 1108.56 285.29 1083.3 285.29 1109.4 335.57"/><path class="cls-2" d="M1135.81,336.82h-28L1081.28,284h28Zm-26.5-2.49h22.47l-24-47.8h-22.48Z"/><path class="cls-3" d="M1218.66,174.95s-19,13.72-31.82,12.38l-1.17-3.83c-5,1.51-16.79,8.75-21.4,9.77-.54.12-.08-5.51-.54-5.42-12.38,2.36-21.19,4.94-23.52,1.24V175.61l44.57-19.78Z"/><path class="cls-2" d="M1163.34,194.71l-.52-.44c-.37-.34-.78-.73-.46-4.93-2.27.42-4.52.93-6.7,1.44-7,1.61-12.53,2.88-15,0a1.24,1.24,0,1,1,1.89-1.61c1.5,1.76,6.86.52,12.55-.79,2.73-.63,5.55-1.27,8.44-1.74l1.59-.25L1165,188c-.13,1.34-.23,2.91-.24,3.93,3.17-.85,6.83-2.84,10.39-4.78a61.85,61.85,0,0,1,10.19-4.8l1.45-.46.16,1.51a14.91,14.91,0,0,0,.53,2.76c14.92,1,29.24-11.33,29.38-11.46a1.24,1.24,0,1,1,1.63,1.88c-.63.55-15.62,13.39-31.72,12-.51,0-1.5-.13-2.08-3.39a74.73,74.73,0,0,0-8.35,4.12c-4.19,2.28-8.53,4.64-12.36,5.31Z"/><path class="cls-2" d="M1183.45,179.05h0a1.24,1.24,0,0,1,0-2.49c.11,0,10.87-.13,20.19-10.41a1.24,1.24,0,0,1,1.84,1.67C1195.45,178.89,1184.07,179.05,1183.45,179.05Z"/><path class="cls-2" d="M1160.09,181.42a1.24,1.24,0,0,1-.15-2.48,40.92,40.92,0,0,0,19.4-8.85A1.24,1.24,0,0,1,1181,172a42.69,42.69,0,0,1-20.72,9.44Z"/><polygon class="cls-4" points="1167.3 235.96 1171.9 238.11 1184.52 238.11 1190.62 235.96 1167.3 235.96"/><path class="cls-2" d="M1178.53,245.52c-13.4,0-13.55-10.24-13.55-10.35v-1.24h27.76v1.24C1192.74,235.27,1192.57,245.52,1178.53,245.52Zm-10.89-9.11c.52,2.22,2.61,6.62,10.89,6.62,8.77,0,11-4.39,11.53-6.62Z"/><circle class="cls-7" cx="1156.72" cy="224.38" r="6.9"/><circle class="cls-7" cx="1199.98" cy="224.38" r="6.9"/><path class="cls-2" d="M1178.86,224.87a7.14,7.14,0,0,1-6.15-3.55,1.24,1.24,0,1,1,2.15-1.25,4.62,4.62,0,0,0,8.63-2.31,1.24,1.24,0,0,1,2.49,0,7.1,7.1,0,0,1-7.11,7.11Z"/><path class="cls-2" d="M1169,272.21a4.18,4.18,0,1,1,4.18-4.18A4.18,4.18,0,0,1,1169,272.21Zm0-5.87a1.69,1.69,0,1,0,1.69,1.69A1.7,1.7,0,0,0,1169,266.33Z"/><path class="cls-2" d="M1180.56,275.15a4.18,4.18,0,1,1,4.18-4.18A4.19,4.19,0,0,1,1180.56,275.15Zm0-5.87a1.69,1.69,0,1,0,1.69,1.69A1.7,1.7,0,0,0,1180.56,269.27Z"/><path class="cls-2" d="M1191.49,271.58a4.18,4.18,0,1,1,4.18-4.18A4.18,4.18,0,0,1,1191.49,271.58Zm0-5.87a1.69,1.69,0,1,0,1.69,1.69A1.7,1.7,0,0,0,1191.49,265.71Z"/><path class="cls-2" d="M1166,266.62a1.24,1.24,0,0,1-1-.5,8.08,8.08,0,0,1-1.71-4.86,1.24,1.24,0,1,1,2.49,0,5.56,5.56,0,0,0,1.21,3.36,1.24,1.24,0,0,1-1,2Z"/><path class="cls-2" d="M1177.63,272.21h-.11a21.33,21.33,0,0,1-6.08-1.54,1.24,1.24,0,1,1,.9-2.32,18.66,18.66,0,0,0,5.4,1.38,1.24,1.24,0,0,1-.11,2.48Z"/><path class="cls-2" d="M1184,271.89a1.24,1.24,0,0,1-.2-2.47,16.06,16.06,0,0,0,4.75-1.39,1.24,1.24,0,1,1,1.08,2.24,18.76,18.76,0,0,1-5.43,1.61Z"/><path class="cls-2" d="M1194.13,266.63a1.24,1.24,0,0,1-1-2,5.56,5.56,0,0,0,1.21-3.36,1.24,1.24,0,0,1,2.49,0,8,8,0,0,1-1.71,4.86A1.24,1.24,0,0,1,1194.13,266.63Z"/><path class="cls-8" d="M715.21,184.89c0,3.66-3.77,6.84-4.55,10.27s1.19,8-.34,11.23-6.34,4.48-8.57,7.26-2.38,7.73-5.18,10-7.62,1.28-10.86,2.84-5.46,5.93-9,6.73-7.36-2.17-11-2.17-7.6,3-11,2.17-5.8-5.19-9-6.73-8.08-.62-10.86-2.84-2.95-7.17-5.18-10-7-4-8.57-7.26.46-7.69-.34-11.22-4.55-6.61-4.55-10.27,3.77-6.84,4.55-10.27-1.19-8,.34-11.22,6.34-4.48,8.57-7.26,2.38-7.73,5.18-10,7.62-1.28,10.86-2.84,5.46-5.93,9-6.73,7.36,2.17,11,2.17,7.6-3,11-2.17,5.8,5.19,9,6.73,8.08.62,10.86,2.84,2.95,7.17,5.18,10,7,4,8.57,7.26-.46,7.69.34,11.22S715.21,181.23,715.21,184.89Z"/><path class="cls-2" d="M675.5,234.55a16.38,16.38,0,0,1-5.22-1.21,10.1,10.1,0,0,0-9.16,0,16.39,16.39,0,0,1-5.23,1.21,6.75,6.75,0,0,1-1.49-.16c-2.34-.53-4.08-2.27-5.76-3.95a14.3,14.3,0,0,0-3.5-2.88,14.58,14.58,0,0,0-4.52-1c-2.34-.27-4.75-.55-6.58-2s-2.65-3.77-3.43-6a9.72,9.72,0,0,0-5.55-7c-2-1.26-4.07-2.56-5.11-4.7s-.75-4.51-.49-6.84a14.7,14.7,0,0,0,.05-4.65,14.2,14.2,0,0,0-2-4c-1.27-2-2.58-4.11-2.58-6.53s1.31-4.51,2.58-6.53a14.18,14.18,0,0,0,2-4,14.7,14.7,0,0,0-.05-4.65c-.26-2.33-.52-4.74.49-6.84s3.1-3.44,5.1-4.7a14.44,14.44,0,0,0,3.61-2.8,14.51,14.51,0,0,0,1.94-4.17c.78-2.22,1.59-4.52,3.43-6s4.25-1.74,6.58-2a14.6,14.6,0,0,0,4.52-1,14.33,14.33,0,0,0,3.5-2.88c1.68-1.68,3.42-3.42,5.75-3.95a5.62,5.62,0,0,1,1.24-.14,13.58,13.58,0,0,1,5.45,1.66,7.93,7.93,0,0,0,9.22,0,13.58,13.58,0,0,1,5.45-1.66,5.6,5.6,0,0,1,1.24.14c2.34.53,4.08,2.27,5.76,3.95a14.32,14.32,0,0,0,3.5,2.87,14.59,14.59,0,0,0,4.52,1c2.34.27,4.75.55,6.58,2s2.65,3.77,3.43,6a14.5,14.5,0,0,0,1.94,4.17,14.45,14.45,0,0,0,3.61,2.8c2,1.26,4.07,2.56,5.1,4.7s.75,4.51.49,6.84a14.72,14.72,0,0,0-.05,4.65,14.18,14.18,0,0,0,2,4c1.27,2,2.58,4.11,2.58,6.53s-1.31,4.51-2.58,6.53a14.2,14.2,0,0,0-2,4,14.73,14.73,0,0,0,.05,4.65c.26,2.33.52,4.74-.49,6.84s-3.1,3.44-5.1,4.7a9.72,9.72,0,0,0-5.55,7c-.78,2.22-1.59,4.52-3.43,6s-4.25,1.74-6.58,2a14.6,14.6,0,0,0-4.52,1,14.35,14.35,0,0,0-3.5,2.87c-1.68,1.68-3.42,3.42-5.76,3.95A6.76,6.76,0,0,1,675.5,234.55Zm-9.8-4.79a16.78,16.78,0,0,1,5.4,1.24c2,.69,3.89,1.3,5.35,1,1.64-.37,3.05-1.79,4.55-3.28a16.27,16.27,0,0,1,4.18-3.36,16.58,16.58,0,0,1,5.31-1.21c2.08-.24,4-.47,5.32-1.48s1.94-2.9,2.64-4.88a12,12,0,0,1,6.58-8.24c1.78-1.12,3.47-2.18,4.19-3.67s.49-3.41.26-5.49a16.7,16.7,0,0,1,0-5.47,16.15,16.15,0,0,1,2.32-4.78c1.13-1.8,2.2-3.5,2.2-5.21s-1.07-3.41-2.2-5.21a16.16,16.16,0,0,1-2.32-4.78,16.7,16.7,0,0,1,0-5.47c.23-2.07.44-4-.26-5.49s-2.41-2.55-4.19-3.67a16.39,16.39,0,0,1-4.23-3.35,16.49,16.49,0,0,1-2.34-4.89c-.7-2-1.35-3.85-2.64-4.88s-3.24-1.25-5.32-1.49a16.58,16.58,0,0,1-5.31-1.21A16.31,16.31,0,0,1,681,141.1c-1.5-1.5-2.91-2.91-4.55-3.28-1.38-.32-3.2.48-5.09,1.36a10.2,10.2,0,0,1-11.3,0c-1.89-.87-3.71-1.67-5.09-1.36-1.64.37-3.05,1.79-4.55,3.28a16.28,16.28,0,0,1-4.18,3.36,16.58,16.58,0,0,1-5.31,1.21c-2.08.24-4,.47-5.32,1.49S633.65,150,633,152a16.47,16.47,0,0,1-2.34,4.89,16.4,16.4,0,0,1-4.23,3.35c-1.78,1.12-3.47,2.18-4.19,3.67s-.49,3.41-.26,5.49a16.7,16.7,0,0,1,0,5.47,16.16,16.16,0,0,1-2.32,4.78c-1.13,1.8-2.2,3.5-2.2,5.21s1.07,3.41,2.2,5.21a16.15,16.15,0,0,1,2.32,4.78,16.68,16.68,0,0,1,0,5.47c-.23,2.07-.44,4,.26,5.48s2.41,2.55,4.19,3.68a12,12,0,0,1,6.57,8.24c.7,2,1.35,3.85,2.64,4.88s3.24,1.24,5.32,1.49a16.58,16.58,0,0,1,5.31,1.21,16.28,16.28,0,0,1,4.18,3.36c1.5,1.5,2.91,2.91,4.55,3.28,1.46.34,3.37-.28,5.35-1A16.78,16.78,0,0,1,665.7,229.76Z"/><path class="cls-2" d="M649.53,164.46a1.24,1.24,0,0,1-.54-2.36,14.33,14.33,0,0,0,3.5-2.88c1.68-1.68,3.42-3.41,5.75-3.95s4.51.52,6.69,1.52a7.92,7.92,0,0,0,9.22,0c2.17-1,4.42-2,6.68-1.52a1.24,1.24,0,0,1-.55,2.42c-1.44-.33-3.22.49-5.09,1.36a10.2,10.2,0,0,1-11.3,0c-1.88-.87-3.65-1.68-5.09-1.36-1.64.37-3.05,1.78-4.55,3.28a16.27,16.27,0,0,1-4.18,3.36A1.24,1.24,0,0,1,649.53,164.46Z"/><path class="cls-4" d="M631,218.25h-2a4.66,4.66,0,0,1-4.66-4.66v-7.38a4.66,4.66,0,0,1,4.66-4.66h2Z"/><path class="cls-4" d="M701.74,218.25h2a4.66,4.66,0,0,0,4.66-4.66v-7.38a4.66,4.66,0,0,0-4.66-4.66h-2Z"/><path class="cls-2" d="M632.24,219.49H629a5.91,5.91,0,0,1-5.9-5.9v-7.38a5.91,5.91,0,0,1,5.9-5.91h3.27ZM629,202.79a3.42,3.42,0,0,0-3.42,3.42v7.38A3.42,3.42,0,0,0,629,217h.78V202.79Z"/><path class="cls-2" d="M703.76,219.49H700.5V200.3h3.27a5.91,5.91,0,0,1,5.91,5.91v7.38A5.91,5.91,0,0,1,703.76,219.49ZM703,217h.78a3.42,3.42,0,0,0,3.42-3.42v-7.38a3.42,3.42,0,0,0-3.42-3.42H703Z"/><polygon class="cls-4" points="650 224.38 650 264.43 665.05 324.07 680.1 264.43 680.1 224.38 650 224.38"/><path class="cls-2" d="M665,329.15l-16.29-64.72V223.13h32.59l0,41.6Zm-13.81-64.87L665,319l13.81-54.71V225.62H651.24Z"/><path class="cls-4" d="M629.22,180.11v38.76a37,37,0,0,0,37,37h0a37,37,0,0,0,37-37V180.11h-74Z"/><path class="cls-2" d="M666.23,257.13A38.3,38.3,0,0,1,628,218.87v-40h76.52v40A38.31,38.31,0,0,1,666.23,257.13Zm-35.77-75.78v37.52a35.77,35.77,0,1,0,71.55,0V181.35Z"/><path class="cls-9" d="M604.19,335.63H725.28L721,273.09l-40.92-11.7s2.22,15.14-15.05,15.44c-13,.23-15.05-15.44-15.05-15.44l-41.53,11.7,0,17.34Z"/><rect class="cls-2" x="619.41" y="320.92" width="26.73" height="2.49" transform="translate(237.12 911.79) rotate(-83.12)"/><rect class="cls-2" x="696.06" y="308.8" width="2.49" height="26.73" transform="translate(-33.69 86.21) rotate(-6.91)"/><path class="cls-2" d="M666.44,219a1.24,1.24,0,0,1-1.24-1.24V206.13a1.24,1.24,0,0,1,2.49,0v11.63A1.24,1.24,0,0,1,666.44,219Z"/><path class="cls-2" d="M666.23,257.13a1.24,1.24,0,0,1-1.24-1.24V248.4a1.24,1.24,0,1,1,2.49,0v7.49A1.24,1.24,0,0,1,666.23,257.13Z"/><path class="cls-2" d="M666.87,241.76a30.18,30.18,0,0,1-7.59-1,1.24,1.24,0,0,1,.69-2.39c.12,0,12.3,3.45,15.63-3a1.24,1.24,0,1,1,2.21,1.14C675.61,240.7,671,241.76,666.87,241.76Z"/><path class="cls-8" d="M706.6,188.92c-.67,2-5.2-6.61-8.48-5.19-2.2,1-3.83,5-6.85,5.7-2.52.56-5.86-4.08-8.76-3.72-2.65.33-5.11,5.73-7.94,5.9s-5.62-4.91-8.4-4.9-5.66,5.1-8.39,5-5.32-5.53-8-5.85c-2.91-.35-6.24,4.31-8.76,3.75-3-.67-4.66-4.74-6.86-5.71-3.28-1.44-7.8,7.17-8.36,5.06l3.38-20.79,41.65-1.22h34.22Z"/><path class="cls-2" d="M657.89,192.92h-.18c-2-.11-3.53-1.78-5-3.4-1-1.1-2.19-2.36-3-2.46-1-.11-2.43.88-3.7,1.76-1.67,1.16-3.4,2.37-5.17,2-2.15-.47-3.6-2.18-4.88-3.68a8.11,8.11,0,0,0-2.21-2.1c-1.07-.48-3.3,1.95-4.49,3.24-1.43,1.55-2.28,2.49-3.41,2.21a1.59,1.59,0,0,1-1.15-1.22,1.24,1.24,0,0,1,.89-1.52,1.23,1.23,0,0,1,.73,0c.33-.32.77-.8,1.13-1.18,2-2.12,4.62-5,7.32-3.84a9.52,9.52,0,0,1,3.1,2.76c1.08,1.27,2.19,2.58,3.52,2.87.72.16,2-.77,3.22-1.58,1.63-1.14,3.49-2.41,5.42-2.19,1.73.21,3.16,1.75,4.54,3.23,1.12,1.2,2.38,2.56,3.34,2.61s2.17-1.12,3.32-2.14c1.55-1.38,3.15-2.81,5-2.81h0c1.85,0,3.45,1.41,5,2.78,1.15,1,2.49,2.16,3.33,2.12s2.22-1.42,3.33-2.63c1.38-1.5,2.8-3,4.53-3.26,1.92-.24,3.78,1,5.42,2.17,1.17.81,2.5,1.74,3.23,1.57,1.32-.29,2.43-1.6,3.5-2.85a9.48,9.48,0,0,1,3.13-2.78c2.69-1.17,5.37,1.74,7.32,3.87.39.42.88,1,1.23,1.29a1.23,1.23,0,0,1,.81,0,1.24,1.24,0,0,1,.79,1.57,1.62,1.62,0,0,1-1.19,1.13c-1.14.25-2-.71-3.48-2.3-1.2-1.31-3.43-3.74-4.5-3.27a8.08,8.08,0,0,0-2.23,2.11c-1.28,1.5-2.72,3.19-4.85,3.67-1.77.4-3.51-.8-5.18-2-1.27-.88-2.71-1.86-3.7-1.74-.83.1-2,1.36-3,2.48-1.5,1.63-3,3.31-5,3.43s-3.53-1.34-5.12-2.74c-1.15-1-2.44-2.16-3.35-2.16h0c-.91,0-2.21,1.16-3.35,2.18C661.28,191.51,659.7,192.92,657.89,192.92Z"/><path class="cls-2" d="M678.2,148.82h-.14A16.68,16.68,0,0,1,672.9,147c-1.88-.9-3.66-1.77-5.26-1.58a1.24,1.24,0,0,1-.28-2.47c2.31-.25,4.5.79,6.62,1.81a14.73,14.73,0,0,0,4.37,1.59,1.24,1.24,0,0,1-.14,2.48Z"/><path class="cls-2" d="M632,172.42a1.24,1.24,0,0,1-1.11-1.8,14.18,14.18,0,0,0,1-4.38c.29-2.37.6-4.81,2.13-6.69s3.86-2.67,6.12-3.43a14.18,14.18,0,0,0,4.09-1.84,1.24,1.24,0,1,1,1.53,2,16.12,16.12,0,0,1-4.82,2.24c-2,.68-3.91,1.33-5,2.65s-1.32,3.32-1.59,5.43a16.13,16.13,0,0,1-1.22,5.17A1.24,1.24,0,0,1,632,172.42Z"/><path class="cls-2" d="M700,179.53a1.24,1.24,0,0,1-1.21-1,16.68,16.68,0,0,1,0-5.47c.23-2.07.44-4-.26-5.48s-2.41-2.55-4.19-3.67a16.4,16.4,0,0,1-4.23-3.35,1.24,1.24,0,1,1,1.94-1.55,14.44,14.44,0,0,0,3.61,2.8c2,1.26,4.07,2.56,5.1,4.7s.75,4.51.49,6.84a14.73,14.73,0,0,0-.05,4.65,1.24,1.24,0,0,1-1.21,1.52Z"/><path class="cls-2" d="M676.69,181.35a1.24,1.24,0,0,1-.34,0,16.56,16.56,0,0,1-4.77-2.63c-1.71-1.2-3.33-2.34-5-2.42s-3.38.87-5.21,1.89a16.47,16.47,0,0,1-5,2.1,1.24,1.24,0,1,1-.42-2.45A14.52,14.52,0,0,0,660.2,176c2.06-1.14,4.2-2.3,6.55-2.2s4.33,1.52,6.26,2.87a14.64,14.64,0,0,0,4,2.27,1.24,1.24,0,0,1-.34,2.44Z"/><path class="cls-2" d="M671.13,225.73h-9.8a4.82,4.82,0,0,1,0-9.64,1.24,1.24,0,1,1,0,2.49,2.33,2.33,0,0,0,0,4.67h9.8a2.34,2.34,0,0,0,2.33-2.33,1.24,1.24,0,0,1,2.49,0A4.82,4.82,0,0,1,671.13,225.73Z"/><path class="cls-2" d="M650,210.43a8.94,8.94,0,0,1-8.67-6.93,1.24,1.24,0,1,1,2.43-.54,6.44,6.44,0,0,0,6.24,5,6.36,6.36,0,0,0,6.23-5,1.24,1.24,0,1,1,2.42.56A8.84,8.84,0,0,1,650,210.43Z"/><circle class="cls-2" cx="681.56" cy="203.27" r="3.01"/><rect class="cls-4" x="649.99" y="286.47" width="28.56" height="49.16"/><path class="cls-2" d="M605.43,335.71l-2.48-.18,4.3-59.61a5.25,5.25,0,0,1,3.69-4.83l40.19-11.32.1,1.53c0,.59,1.17,14.37,13.8,14.28,5.05-.06,8.8-1.47,11.13-4.2,3.49-4.07,2.71-9.76,2.7-9.82l-.28-1.9,40,11.43a5.87,5.87,0,0,1,4,4.79l4,59.66-2.48.17-4-59.63a3.37,3.37,0,0,0-2.19-2.6l-36.42-10.42a15.41,15.41,0,0,1-3.38,9.94c-2.82,3.3-7.19,5-13,5.07h-.24c-12.12,0-15.16-11-15.86-15.1l-37.33,10.52a2.81,2.81,0,0,0-1.89,2.51Z"/><rect class="cls-2" x="561.08" y="334.38" width="176.3" height="2.49"/><polygon class="cls-9" points="735.9 335.57 710.64 335.57 736.74 285.29 762 285.29 735.9 335.57"/><path class="cls-2" d="M737.53,336.82h-28L736,284h28Zm-24-2.49H736l24-47.8H737.51Z"/><path class="cls-10" d="M834.13,292.44a43,43,0,0,1-43,43h0a43,43,0,0,1-43-43V197.26a43,43,0,0,1,43-43h0a43,43,0,0,1,43,43Z"/><path class="cls-2" d="M791.14,336.68a44.29,44.29,0,0,1-44.24-44.24V197.26a44.24,44.24,0,1,1,88.47,0v95.18A44.29,44.29,0,0,1,791.14,336.68Zm0-181.17a41.8,41.8,0,0,0-41.75,41.75v95.18a41.75,41.75,0,1,0,83.5,0V197.26A41.8,41.8,0,0,0,791.14,155.51Z"/><path class="cls-4" d="M774.46,237.65l.12,37.5-29.07,7.67s10.24,49.44,44.54,52.31c42,3.51,44.09-52,44.09-52l-29.56-8.45,0-37Z"/><path class="cls-2" d="M793.8,336.53h0c-1.26,0-2.56-.06-3.86-.17-34.82-2.91-45.55-52.79-45.65-53.3l-.24-1.15,29.28-7.72-.12-37.79H805.8l0,37.32,29.59,8.46,0,1C835.36,283.7,832.95,336.53,793.8,336.53ZM747,283.71c1.81,7.36,13.06,47.66,43.16,50.18,1.24.1,2.46.16,3.65.16,33.92,0,38.51-43,39-50l-29.5-8.44,0-36.71H775.7l.12,37.21Z"/><path class="cls-4" d="M753.67,193.38v38.76a37,37,0,0,0,37,37h0a37,37,0,0,0,37-37V193.38H776.13l-2.37-4.46-2.64,4.46Z"/><path class="cls-2" d="M790.69,270.41a38.3,38.3,0,0,1-38.26-38.26v-40h17.34l4.33-7.63,4.33,7.63h50.52v40A38.3,38.3,0,0,1,790.69,270.41Zm-35.77-75.78v37.52a35.77,35.77,0,1,0,71.55,0V194.63H777l-2.88-5.08-2.88,5.08Z"/><path class="cls-8" d="M728.65,348.9H849.74l-4.26-62.54-17.77-5.08s-9.81,44.81-38.2,45c-27.14.14-38-45.12-38-45.12l-18.6,5.24,0,17.33Z"/><rect class="cls-2" x="743.87" y="334.2" width="26.73" height="2.49" transform="translate(333.5 1047.04) rotate(-83.12)"/><rect class="cls-2" x="820.51" y="322.07" width="2.49" height="26.73" transform="translate(-34.39 101.31) rotate(-6.91)"/><path class="cls-6" d="M801.8,246.37c-.79,5-5.79,10.08-10.85,10.06s-10.17-5.11-11.19-10.06Z"/><rect class="cls-2" x="685.54" y="347.66" width="176.3" height="2.49"/><path class="cls-2" d="M729.89,349l-2.48-.18,4.3-59.61a5.26,5.26,0,0,1,3.69-4.83l17-4.8.3,1.26c.11.44,10.93,44,36.78,44.16h.14c26.53,0,36.75-43.55,36.85-44l.29-1.28L843,284.36a5.87,5.87,0,0,1,4,4.8l4,59.66-2.48.17-4-59.63a3.37,3.37,0,0,0-2.19-2.6l-13.71-3.92c-1.94,7.56-12.82,44.65-39,44.65h-.15c-25.53-.14-36.83-37.31-38.86-44.82l-14.56,4.11a2.82,2.82,0,0,0-1.89,2.51Z"/><polygon class="cls-8" points="860.36 348.85 835.1 348.85 861.2 298.56 886.46 298.56 860.36 348.85"/><path class="cls-2" d="M862,350.09h-28l26.49-52.77h28Zm-24-2.49h22.47l24-47.8H862Z"/><rect class="cls-2" x="801.62" y="214.14" width="5.91" height="5.91"/><rect class="cls-2" x="774.57" y="214.14" width="5.91" height="5.91"/><path class="cls-2" d="M792.73,235.44h-5.37a1.24,1.24,0,0,1,0-2.49h5.37a.74.74,0,0,0,.73-.73v-2.84a.74.74,0,0,0-.73-.74h-3.17v-7.32a1.24,1.24,0,0,1,2.49,0v4.84h.68a3.23,3.23,0,0,1,3.22,3.22v2.84A3.22,3.22,0,0,1,792.73,235.44Z"/><polygon class="cls-4" points="781.88 247.58 783.57 249.53 798.6 249.53 801.11 245.99 781.88 247.58"/><path class="cls-2" d="M791,257.67h0c-6,0-11.33-5.84-12.4-11.06l-.3-1.49h25l-.23,1.44C802.1,252.48,796.47,257.67,791,257.67Zm-9.55-10.06c1.48,3.77,5.49,7.56,9.53,7.58l0,1.24v-1.24c3.77,0,7.9-3.51,9.25-7.58Z"/><path class="cls-2" d="M783.46,212.41a1.24,1.24,0,0,1-.88-.36,7.14,7.14,0,0,0-10.1,0,1.24,1.24,0,1,1-1.76-1.76,9.63,9.63,0,0,1,13.62,0,1.24,1.24,0,0,1-.88,2.12Z"/><path class="cls-2" d="M810.51,211.18a1.24,1.24,0,0,1-.88-.36,7.14,7.14,0,0,0-10.1,0,1.24,1.24,0,0,1-1.76-1.76,9.63,9.63,0,0,1,13.62,0,1.24,1.24,0,0,1-.88,2.12Z"/><rect class="cls-2" x="787.95" y="315.47" width="2.49" height="9.35"/><path class="cls-4" d="M1091,231.52h2a4.66,4.66,0,0,0,4.66-4.66v-7.38a4.66,4.66,0,0,0-4.66-4.66h-2Z"/><path class="cls-4" d="M1020.24,231.52h-2a4.66,4.66,0,0,1-4.66-4.66v-7.38a4.66,4.66,0,0,1,4.66-4.66h2Z"/><path class="cls-2" d="M1093,232.77h-3.27V213.58H1093a5.91,5.91,0,0,1,5.9,5.9v7.38A5.91,5.91,0,0,1,1093,232.77Zm-.78-2.49h.78a3.42,3.42,0,0,0,3.42-3.42v-7.38a3.42,3.42,0,0,0-3.42-3.42h-.78Z"/><path class="cls-2" d="M1021.49,232.77h-3.27a5.91,5.91,0,0,1-5.91-5.91v-7.38a5.91,5.91,0,0,1,5.91-5.9h3.27Zm-3.27-16.71a3.42,3.42,0,0,0-3.42,3.42v7.38a3.42,3.42,0,0,0,3.42,3.42h.78V216.06Z"/><polygon class="cls-4" points="1071.98 237.65 1071.98 277.7 1056.93 337.34 1041.88 277.7 1041.88 237.65 1071.98 237.65"/><path class="cls-2" d="M1056.93,342.42l-16.29-64.72V236.41h32.59l0,41.6Zm-13.81-64.88,13.81,54.71,13.81-54.71V238.89h-27.62Z"/><path class="cls-4" d="M1092.77,193.38v38.76a37,37,0,0,1-37,37h0a37,37,0,0,1-37-37V193.38h74Z"/><path class="cls-2" d="M1055.75,270.41a38.3,38.3,0,0,1-38.26-38.26v-40H1094v40A38.3,38.3,0,0,1,1055.75,270.41ZM1020,194.63v37.52a35.77,35.77,0,1,0,71.55,0V194.63Z"/><path class="cls-11" d="M1117.79,348.9H996.7l4.26-62.54,40.92-11.7s-2.22,15.15,15.05,15.44c13,.23,15.05-15.44,15.05-15.44l41.53,11.7,0,17.33Z"/><rect class="cls-2" x="1087.97" y="322.07" width="2.49" height="26.73" transform="translate(-32.44 133.46) rotate(-6.91)"/><rect class="cls-2" x="1011.32" y="334.2" width="26.73" height="2.49" transform="translate(568.91 1312.56) rotate(-83.12)"/><rect class="cls-2" x="1069.11" y="213.67" width="5.73" height="5.73"/><rect class="cls-2" x="1037.56" y="213.67" width="5.73" height="5.73"/><polygon class="cls-12" points="986.08 348.85 1011.34 348.85 985.24 298.56 959.98 298.56 986.08 348.85"/><path class="cls-2" d="M1012.49,350.09h-28L958,297.32h28ZM986,347.6h22.47l-24-47.8H962Z"/><path class="cls-13" d="M1096.31,212.72v-7.59c0-10-2.18-16.59-9-24.09-.46-.5,3.16-2.48,2.69-3-2.55-2.54-11.72-6.87-14.75-8.55-.74-.41,1.37-3.06.63-3.47-2.74-1.5-13.95.88-20.2,1.18-1,.05,1.15-2.69.09-2.69h0c-7,0-16.47,4.86-21.31,10.77-.52.64.61-5.11-.09-4.67a40.54,40.54,0,0,0-19.17,34.47l-.19,7.22a19.76,19.76,0,0,0,4.2,0c10.87-3.11,16.48-17.75,16.48-17.75s17,12.89,56.06,18.12A44.58,44.58,0,0,0,1096.31,212.72Z"/><path class="cls-2" d="M1093.43,214h0a15.6,15.6,0,0,1-1.85-.08c-33.45-4.48-50.69-14.4-55.35-17.46-1.77,3.89-7.31,14.37-16.69,17.05a7.22,7.22,0,0,1-1.88.18c-1.29,0-2.72-.13-2.78-.13l-1.16-.11.22-8.38a41.58,41.58,0,0,1,19.75-35.49l.3-.19,1,0,.43.44c.41.45.48,1,.39,2.25,5.42-5.07,13.6-8.76,20-8.76a1.51,1.51,0,0,1,1.29.66,2,2,0,0,1,0,1.93c1.77-.15,3.84-.41,6-.69a85.78,85.78,0,0,1,9.61-.89,8.05,8.05,0,0,1,3.78.65c1.37.75.65,2.36.22,3.33l-.21.49,2.41,1.25c4.18,2.15,9.91,5.09,12,7.16l.4.4v.67c-.05.85-.77,1.41-1.85,2.25l-.53.42c6.31,7.18,8.68,13.84,8.68,24.18v8.78l-1.19.05S1094.81,214,1093.43,214Zm-58.31-21.42,1.32,1c.17.13,17.22,12.76,55.47,17.88a13.19,13.19,0,0,0,1.52.06h0l1.63,0v-6.39c0-10.13-2.28-16.21-8.7-23.25l-.37-.4v-.66c.07-.84.79-1.4,1.87-2.25l.39-.31c-2.35-1.79-7.19-4.28-10.53-6-1.28-.66-2.38-1.22-3.12-1.63-1.37-.76-.65-2.37-.21-3.33l.15-.34a10.87,10.87,0,0,0-1.88-.13,84.55,84.55,0,0,0-9.29.87c-2.82.36-5.49.7-7.66.81a1.71,1.71,0,0,1-1.34-.65,2.07,2.07,0,0,1,0-2c-6.42.57-14.65,4.95-19,10.25l-.37.46-1.21,0-.4-.42c-.48-.53-.42-1.08-.23-2.91l0-.4a39.1,39.1,0,0,0-16.8,32.24l-.16,6.06c.43,0,.93,0,1.39,0a5.11,5.11,0,0,0,1.2-.08c10.15-2.9,15.61-16.86,15.66-17Z"/><path class="cls-2" d="M1055.54,230.55a1.24,1.24,0,0,1-1.24-1.24V217.69a1.24,1.24,0,1,1,2.49,0v11.63A1.24,1.24,0,0,1,1055.54,230.55Z"/><path class="cls-2" d="M1051.12,237.38a1.24,1.24,0,0,1-.88-2.12,7.5,7.5,0,0,1,10.6,0,1.24,1.24,0,1,1-1.76,1.76,5.13,5.13,0,0,0-7.09,0A1.24,1.24,0,0,1,1051.12,237.38Z"/><path class="cls-13" d="M1072,247.9c10.4-.21,16.94-11.13,19.83-15.2.55-.78.81-.66.81.29,0,20.44-22.28,45.64-37.07,45.64-13.66,0-36.94-27.82-36.61-44.77,0-1,.08-1,.49-.13,1.94,4,6.87,14.17,18.13,14.59,4.69.17,16.4-7.5,16.4-7.5.48,0,2.92,0,3.36,0C1057.32,240.81,1067.66,248,1072,247.9Z"/><path class="cls-2" d="M1055.54,279.87c-5.55,0-12.92-4.26-20.2-11.69-8.94-9.12-17.87-23.28-17.65-34.35,0-.54,0-2,1.35-2,.87,0,1.22.73,1.5,1.32,2,4,6.52,13.5,17.06,13.89h0c3.71,0,11.92-5.25,14.78-7.27l.34-.24h4.43l1.12,0,.37,0,.29.22c2.52,1.9,9.75,6.83,13,6.83,8.92-.18,14.87-8.83,18.06-13.48l.83-1.2a2.05,2.05,0,0,1,1.58-1c.45,0,1.49.2,1.49,2,0,9.66-5,21.35-13.27,31.28C1072.52,273.89,1062.92,279.87,1055.54,279.87Zm-34.87-41.18c1.76,8.44,8,19.14,16.44,27.75,6.82,7,13.54,10.94,18.43,10.94,6.67,0,15.53-5.64,23.14-14.71,7.18-8.57,11.75-18.45,12.56-27-3.44,4.93-9.84,13.26-19.24,13.45-4.39,0-12.35-5.69-14.24-7.09h-4.27c-2.07,1.44-11.07,7.5-15.77,7.5h-.21C1028.73,249.23,1023.58,243.4,1020.67,238.69Z"/><path class="cls-2" d="M1062.37,255.6h-13.23a1.24,1.24,0,0,1,0-2.49h13.23a1.24,1.24,0,0,1,0,2.49Z"/><path class="cls-14" d="M1080.71,277.12V348.9h-47.4v-72l8.58-2.24s-3.91,15.87,13.89,15.4c0,0,15.39.22,16.22-15.4Z"/><path class="cls-2" d="M1116.55,349l-4.3-59.61a2.84,2.84,0,0,0-1.89-2.61L1073,276.24c-.71,4.09-3.74,15.1-15.86,15.1h-.24c-5.8-.07-10.17-1.77-13-5.07a15.41,15.41,0,0,1-3.38-9.94l-36.43,10.42a3.38,3.38,0,0,0-2.19,2.64l-4,59.59-2.48-.17,4-59.63a5.88,5.88,0,0,1,4-4.83l39.94-11.42-.27,1.9c0,.06-.76,5.79,2.72,9.84,2.33,2.72,6.07,4.12,11.12,4.18h.21c12.47,0,13.55-13.7,13.59-14.28l.1-1.53L1111,284.37a5.29,5.29,0,0,1,3.7,4.93l4.3,59.51Z"/><rect class="cls-2" x="984.6" y="347.66" width="176.3" height="2.49"/><path class="cls-2" d="M1076.56,204.32h-.17c-19.61-2.61-29.15-10.25-29.55-10.57a1.24,1.24,0,0,1,1.57-1.93c.09.07,9.45,7.52,28.3,10a1.24,1.24,0,0,1-.16,2.48Z"/><path class="cls-2" d="M1063.37,195.4a1.25,1.25,0,0,1-.32,0c-12.83-3.4-18.78-9.75-19-10a1.24,1.24,0,0,1,1.83-1.69c.06.06,5.76,6.1,17.83,9.3a1.24,1.24,0,0,1-.32,2.45Z"/><path class="cls-4" d="M881.82,238.28a5.32,5.32,0,0,1-5.32,5.32h0a5.32,5.32,0,0,1-5.32-5.32v-5.15a5.32,5.32,0,0,1,5.32-5.32h0a5.32,5.32,0,0,1,5.32,5.32Z"/><path class="cls-2" d="M876.5,244.84a6.57,6.57,0,0,1-6.56-6.56v-5.15a6.56,6.56,0,1,1,13.12,0v5.15A6.57,6.57,0,0,1,876.5,244.84Zm0-15.79a4.08,4.08,0,0,0-4.07,4.07v5.15a4.07,4.07,0,1,0,8.15,0v-5.15A4.08,4.08,0,0,0,876.5,229.05Z"/><path class="cls-4" d="M967.4,238.28a5.32,5.32,0,0,1-5.32,5.32h0a5.32,5.32,0,0,1-5.32-5.32v-5.15a5.32,5.32,0,0,1,5.32-5.32h0a5.32,5.32,0,0,1,5.32,5.32Z"/><path class="cls-2" d="M962.08,244.84a6.57,6.57,0,0,1-6.56-6.56v-5.15a6.56,6.56,0,1,1,13.12,0v5.15A6.57,6.57,0,0,1,962.08,244.84Zm0-15.79a4.08,4.08,0,0,0-4.07,4.07v5.15a4.07,4.07,0,1,0,8.15,0v-5.15A4.08,4.08,0,0,0,962.08,229.05Z"/><polygon class="cls-4" points="939.34 244.55 939.34 291.93 921.89 312.7 903.72 291.93 903.72 244.55 939.34 244.55"/><path class="cls-2" d="M921.91,314.61,902.48,292.4V243.3h38.1v49.08ZM905,291.47l16.91,19.32,16.22-19.31V245.79H905Z"/><path class="cls-4" d="M961,200.15v43a41.09,41.09,0,0,1-41.09,41.09h0a41.09,41.09,0,0,1-41.09-41.09v-43Z"/><path class="cls-2" d="M919.87,285.5a42.38,42.38,0,0,1-42.33-42.33V198.9h84.67v44.27A42.38,42.38,0,0,1,919.87,285.5ZM880,201.39v41.78a39.85,39.85,0,0,0,79.69,0V201.39Z"/><path class="cls-8" d="M975.71,172.25v17.38A16.74,16.74,0,0,1,959,206.37H892.41a8.37,8.37,0,0,0-8.37,8.37v11a1.67,1.67,0,0,1-1.67,1.67H874a1.67,1.67,0,0,1-1.67-1.67V193.9C875,186,884,189,884,189a16.74,16.74,0,0,1,16.74-16.74Z"/><path class="cls-5" d="M957.21,199.5a18.12,18.12,0,0,0,18.12-18.12v-9.14H900.78A16.74,16.74,0,0,0,884,189s-9.05-3-11.68,4.92v32.63H876a1.81,1.81,0,0,0,1.81-1.81V208.56a9.06,9.06,0,0,1,9.06-9.06Z"/><path class="cls-2" d="M882.37,228.61H874a2.92,2.92,0,0,1-2.92-2.92l.06-32.18c1.36-4.07,4.58-6.31,9.08-6.31a15,15,0,0,1,2.6.23A18,18,0,0,1,900.78,171H977v18.63a18,18,0,0,1-18,18H892.41a7.13,7.13,0,0,0-7.12,7.13v11A2.92,2.92,0,0,1,882.37,228.61Zm-8.76-34.5v31.58a.43.43,0,0,0,.43.43h8.33a.43.43,0,0,0,.43-.43v-11a9.62,9.62,0,0,1,9.61-9.61H959a15.51,15.51,0,0,0,15.49-15.49V173.49h-73.7A15.51,15.51,0,0,0,885.28,189v1.71l-1.63-.52a12.38,12.38,0,0,0-3.39-.48C876.89,189.68,874.65,191.17,873.61,194.11Z"/><polygon class="cls-6" points="1018.6 370.77 982.11 370.77 973.28 353.67 972.12 370.77 850.3 370.77 855.3 302.18 903.72 288.34 921.89 306.51 939.34 288.34 987.4 302.18 995.99 322.7 1006.75 344.68 1018.6 370.77"/><rect class="cls-2" x="864.43" y="350.9" width="37.46" height="2.49" transform="translate(437.64 1192.08) rotate(-83.8)"/><rect class="cls-2" x="900.41" y="226.36" width="5.91" height="5.91"/><rect class="cls-2" x="932.84" y="226.36" width="5.91" height="5.91"/><path class="cls-2" d="M920,267.56h-.43c-3.93-.12-7.15-1.81-8.41-4.39a1.24,1.24,0,0,1,2.24-1.09c.84,1.73,3.3,2.9,6.25,3,3.24.11,6.06-1.1,7.18-3.06a1.24,1.24,0,1,1,2.16,1.23C927.22,266.44,923.28,267.56,920,267.56Z"/><path class="cls-2" d="M924.43,253.05h-9a1.24,1.24,0,0,1,0-2.49h6.51V240.2a1.24,1.24,0,1,1,2.49,0Z"/><rect class="cls-2" x="811.29" y="369.53" width="245.49" height="2.49"/><polygon class="cls-2" points="981.68 370.85 974.03 356.59 974.03 370.26 971.54 370.26 971.54 346.69 983.87 369.67 981.68 370.85"/><polygon class="cls-4" points="921.89 306.51 913.06 320.15 894 291.12 903.72 288.34 921.89 306.51"/><path class="cls-2" d="M913.07,322.42l-21-32,12.05-3.45,19.4,19.4ZM896,291.85l17.09,26,7.24-11.19-16.94-16.95Z"/><polygon class="cls-4" points="921.93 306.51 930.76 320.15 949.83 291.12 940.1 288.34 921.93 306.51"/><polygon class="cls-2" points="930.75 322.42 920.89 307.19 922.98 305.84 930.77 317.87 947.86 291.85 939.76 289.53 940.44 287.14 951.79 290.39 930.75 322.42"/><path class="cls-4" d="M1001,305.67l3-29.63c.7-3.9,5.44-3.95,5.11.61l-1.67,17.77c-.12,1.24,2.86,1.61,3.08.31l2.52-21c.48-5,5.44-3.48,5,.34L1016,295.83c-.06.91,2.41,1.31,2.59.1l2.29-18.45c.48-3.66,5.12-3,4.91.37l-2.27,18.34a1.44,1.44,0,0,0,2.83.51s.92-8.05,1.27-10.7c.44-3.21,5.09-2.72,4.86.76L1029.77,314s-.23,4.48-3.23,7.18l-.72,6.31-23.08-2.62.34-3s-4.07-4.51-7.42-8.6c-2.93-3.56-1.78-19.58-1.78-19.58,3.3.24,5.14,1.84,5,4.25-.08,1.26-.55,4-.55,4l1.23,3.74Z"/><path class="cls-2" d="M1026.91,328.89l-25.55-2.9.42-3.66c-1.09-1.22-4.34-4.88-7.08-8.23-3.15-3.83-2.18-18.77-2.06-20.46l.09-1.24,1.24.09c4,.29,6.33,2.43,6.14,5.56-.06,1.07-.39,3.06-.52,3.82l.4,1.23,2.78-27.2c.49-2.77,2.44-4,4.05-4a3.31,3.31,0,0,1,2.45,1.07,4.75,4.75,0,0,1,1.09,3.75l-1.65,17.49a1.57,1.57,0,0,0,.62.06l2.48-20.68c.3-3.13,2.19-4.25,3.7-4.25a3.69,3.69,0,0,1,2.72,1.26,4.59,4.59,0,0,1,1.09,3.61l-2.07,21.21h.11l2.25-18.12a3.76,3.76,0,0,1,3.69-3.56,3.68,3.68,0,0,1,2.67,1.15,4,4,0,0,1,1,3l-2.28,18.42c0,.14.15.14.22.17s1.06-8,1.42-10.68a3.55,3.55,0,0,1,3.58-3.23,3.76,3.76,0,0,1,2.74,1.18,4,4,0,0,1,1,3.06L1031,314.14a12.89,12.89,0,0,1-3.28,7.64Zm-22.79-5.09,20.61,2.34.64-5.55.35-.32c2.56-2.31,2.81-6.28,2.82-6.32l2.69-27.32a1.51,1.51,0,0,0-.35-1.16,1.26,1.26,0,0,0-.92-.39,1.09,1.09,0,0,0-1.11,1.08c-.35,2.64-1.27,10.67-1.27,10.67a2.59,2.59,0,0,1-2.61,2.17,2.75,2.75,0,0,1-2-.88,2.63,2.63,0,0,1-.65-2.05l2.28-18.37a1.46,1.46,0,0,0-.35-1.08,1.19,1.19,0,0,0-.86-.37c-.66,0-1.11.51-1.23,1.39l-2.29,18.44a2.25,2.25,0,0,1-2.41,1.85,3.06,3.06,0,0,1-2.17-.84,1.78,1.78,0,0,1-.49-1.35l2.13-21.77a2.15,2.15,0,0,0-.46-1.69,1.23,1.23,0,0,0-.87-.44c-.64,0-1.11.78-1.23,2l-2.52,21a2.4,2.4,0,0,1-2.61,1.91,3.28,3.28,0,0,1-2.42-.95,2,2,0,0,1-.52-1.55l1.67-17.76a2.5,2.5,0,0,0-.43-1.85c-.59-.64-1.9-.21-2.22,1.57l-3.13,30.62-3.46.11L997,302.06l.05-.31s.47-2.67.54-3.85c.1-1.72-1.27-2.45-2.59-2.75-.33,6.1-.19,15.22,1.58,17.37,3.29,4,7.34,8.51,7.38,8.56l.38.42Z"/><path class="cls-2" d="M1017.47,371.29l-30.15-65.12c-.63-1.64-1.79-3.53-2.52-3.73l-45.09-12.71-17.81,18.55-18.55-18.55L859,302.43a4.25,4.25,0,0,0-2.76,3.32l-4.3,65.1-2.48-.17,4.31-65.14a6.72,6.72,0,0,1,4.55-5.51l45.79-13.1,17.79,17.8L939,286.94,985.48,300c2.33.66,3.85,4.42,4.13,5.16l30.11,65Z"/><polygon class="cls-6" points="1022.15 370.36 991.68 370.36 999.39 323.7 1029.86 323.7 1022.15 370.36"/><path class="cls-2" d="M1023.2,371.6h-33l8.12-49.14h33Zm-30.06-2.49h27.95l7.3-44.17h-27.95Z"/><rect class="cls-2" x="920.15" y="323.32" width="2.77" height="2.77"/><rect class="cls-2" x="920.15" y="337.26" width="2.77" height="2.77"/><rect class="cls-2" x="920.15" y="351.19" width="2.77" height="2.77"/><rect class="cls-2" x="920.15" y="365.13" width="2.77" height="2.77"/><path class="cls-2" d="M910.6,238.19H896.14A5.17,5.17,0,0,1,891,233v-7.19a5.17,5.17,0,0,1,5.17-5.17H910.6a5.17,5.17,0,0,1,5.17,5.17V233A5.17,5.17,0,0,1,910.6,238.19Zm-14.46-15a2.68,2.68,0,0,0-2.68,2.68V233a2.68,2.68,0,0,0,2.68,2.68H910.6a2.68,2.68,0,0,0,2.68-2.68v-7.19a2.68,2.68,0,0,0-2.68-2.68Z"/><path class="cls-2" d="M943,238.19H928.56A5.17,5.17,0,0,1,923.4,233v-7.19a5.17,5.17,0,0,1,5.17-5.17H943a5.17,5.17,0,0,1,5.17,5.17V233A5.17,5.17,0,0,1,943,238.19Zm-14.46-15a2.68,2.68,0,0,0-2.68,2.68V233a2.68,2.68,0,0,0,2.68,2.68H943a2.68,2.68,0,0,0,2.68-2.68v-7.19a2.68,2.68,0,0,0-2.68-2.68Z"/><path class="cls-2" d="M892.21,230.67h-.15L878.64,229a1.24,1.24,0,0,1,.3-2.47l13.43,1.61a1.24,1.24,0,0,1-.15,2.48Z"/><path class="cls-2" d="M947.61,230.67a1.24,1.24,0,0,1-.15-2.48l13.43-1.61a1.24,1.24,0,0,1,.3,2.47l-13.43,1.61Z"/><path class="cls-2" d="M924.64,229.05h-9.1a1.24,1.24,0,0,1,0-2.49h9.1a1.24,1.24,0,1,1,0,2.49Z"/><path class="cls-4" d="M866.06,307.63a2.7,2.7,0,0,1-2.85,2.55h-.15a2.7,2.7,0,0,1-2.55-2.85l.79-14.25a2.7,2.7,0,0,1,2.85-2.55h.15a2.7,2.7,0,0,1,2.55,2.85Z"/><path class="cls-4" d="M873.65,310.1a2.7,2.7,0,0,1-2.7,2.71h-.15a2.7,2.7,0,0,1-2.7-2.71V293a2.7,2.7,0,0,1,2.7-2.7h.15a2.7,2.7,0,0,1,2.7,2.7Z"/><path class="cls-4" d="M881.22,308.2a2.7,2.7,0,0,1-2.55,2.84h-.15a2.7,2.7,0,0,1-2.85-2.56l-.82-15.3a2.7,2.7,0,0,1,2.55-2.85h.15a2.7,2.7,0,0,1,2.85,2.56Z"/><path class="cls-4" d="M887.65,305.18a2.35,2.35,0,0,1-2.12,2.56h-.13a2.35,2.35,0,0,1-2.56-2.13l-1.17-12.7a2.35,2.35,0,0,1,2.12-2.56h.13a2.35,2.35,0,0,1,2.56,2.13Z"/><path class="cls-2" d="M863.36,311.42h-.22a4,4,0,0,1-2.87-1.32,3.92,3.92,0,0,1-1-2.85l.79-14.25a4,4,0,0,1,3.94-3.73h.22a4,4,0,0,1,2.87,1.32,3.93,3.93,0,0,1,1,2.85l-.79,14.25A4,4,0,0,1,863.36,311.42Zm.63-20.91v1.24a1.46,1.46,0,0,0-1.45,1.38l-.79,14.25a1.46,1.46,0,0,0,1.38,1.54l.23,1.25v-1.24a1.46,1.46,0,0,0,1.46-1.38l.79-14.25a1.46,1.46,0,0,0-1.38-1.54Z"/><path class="cls-2" d="M870.94,314.05h-.15a4,4,0,0,1-3.95-3.95V293a4,4,0,0,1,8,0V310.1A4,4,0,0,1,870.94,314.05Zm0-22.48a1.5,1.5,0,0,0-1.61,1.46V310.1a1.46,1.46,0,0,0,1.46,1.46h.15a1.46,1.46,0,0,0,1.46-1.46V293A1.46,1.46,0,0,0,870.94,291.57Z"/><path class="cls-2" d="M878.37,312.3a4,4,0,0,1-3.94-3.73l-.82-15.3a4,4,0,0,1,3.73-4.15h.36a4,4,0,0,1,3.94,3.74l.82,15.3a4,4,0,0,1-3.73,4.15Zm-.67-20.72h-.23a1.46,1.46,0,0,0-1.38,1.54l.82,15.3a1.46,1.46,0,0,0,1.46,1.38v1.24l.08-1.24a1.5,1.5,0,0,0,1.53-1.55l-.82-15.3A1.46,1.46,0,0,0,877.7,291.58Z"/><path class="cls-2" d="M885.18,309a3.58,3.58,0,0,1-3.58-3.26L880.43,293a3.61,3.61,0,0,1,3.24-3.91l.46,0a3.58,3.58,0,0,1,3.58,3.26l1.17,12.69a3.6,3.6,0,0,1-3.25,3.91Zm-1-17.41-.24,0a1.11,1.11,0,0,0-1,1.21l1.17,12.69a1.1,1.1,0,0,0,1.1,1h.11a1.15,1.15,0,0,0,1.13-1.22l-1.17-12.69A1.1,1.1,0,0,0,884.14,291.59Z"/><path class="cls-4" d="M740.06,298.29a2.7,2.7,0,0,1-2.85,2.55h-.15a2.7,2.7,0,0,1-2.55-2.85l.79-14.25a2.7,2.7,0,0,1,2.85-2.55h.15a2.7,2.7,0,0,1,2.55,2.85Z"/><rect class="cls-4" x="742.09" y="280.99" width="5.56" height="22.48" rx="2.7" ry="2.7"/><path class="cls-4" d="M755.22,298.86a2.7,2.7,0,0,1-2.55,2.84h-.15a2.7,2.7,0,0,1-2.85-2.56l-.83-15.3A2.71,2.71,0,0,1,751.4,281h.15a2.7,2.7,0,0,1,2.85,2.56Z"/><path class="cls-4" d="M761.65,295.84a2.35,2.35,0,0,1-2.12,2.56h-.13a2.36,2.36,0,0,1-2.56-2.13l-1.17-12.7a2.36,2.36,0,0,1,2.12-2.56h.13a2.35,2.35,0,0,1,2.56,2.13Z"/><path class="cls-2" d="M737.36,302.09h-.22a4,4,0,0,1-2.87-1.31,3.93,3.93,0,0,1-1-2.86l.79-14.25a4,4,0,0,1,3.94-3.73h.22a4,4,0,0,1,2.87,1.32,3.92,3.92,0,0,1,1,2.85l-.79,14.25A4,4,0,0,1,737.36,302.09Zm.64-20.91v1.24a1.46,1.46,0,0,0-1.45,1.38L735.75,298a1.46,1.46,0,0,0,1.38,1.54l.23,1.26V299.6a1.46,1.46,0,0,0,1.46-1.38l.79-14.25a1.46,1.46,0,0,0-1.38-1.54Z"/><path class="cls-2" d="M744.94,304.71h-.15a4,4,0,0,1-3.95-3.95V283.7a4,4,0,0,1,8,0v17.07A4,4,0,0,1,744.94,304.71Zm0-22.48a1.5,1.5,0,0,0-1.61,1.46v17.07a1.46,1.46,0,0,0,1.46,1.46h.15a1.46,1.46,0,0,0,1.46-1.46V283.7A1.46,1.46,0,0,0,744.94,282.24Z"/><path class="cls-2" d="M752.37,303a4,4,0,0,1-3.94-3.74l-.83-15.3a4,4,0,0,1,3.73-4.15h.37a4,4,0,0,1,3.94,3.74l.82,15.3a3.94,3.94,0,0,1-3.73,4.15Zm-1-22,.07,1.24a1.47,1.47,0,0,0-1.38,1.54l.83,15.3a1.46,1.46,0,0,0,1.46,1.38v1.24l.08-1.24a1.57,1.57,0,0,0,1.15-.49,1.45,1.45,0,0,0,.37-1.05l-.82-15.3a1.46,1.46,0,0,0-1.46-1.38Z"/><path class="cls-2" d="M759.18,299.67a3.58,3.58,0,0,1-3.58-3.26l-1.17-12.7a3.61,3.61,0,0,1,3.24-3.91l.46,0a3.58,3.58,0,0,1,3.58,3.26l1.17,12.69a3.6,3.6,0,0,1-3.25,3.91Zm-1-17.41-.24,0a1.11,1.11,0,0,0-1,1.21l1.17,12.69a1.11,1.11,0,0,0,1.11,1h.1a1.15,1.15,0,0,0,1.13-1.22l-1.17-12.69A1.1,1.1,0,0,0,758.14,282.26Z"/><path class="cls-4" d="M978.46,307.63a2.7,2.7,0,0,0,2.85,2.55h.15a2.7,2.7,0,0,0,2.55-2.85l-.79-14.25a2.7,2.7,0,0,0-2.85-2.55h-.15a2.7,2.7,0,0,0-2.55,2.85Z"/><path class="cls-4" d="M970.88,310.1a2.7,2.7,0,0,0,2.7,2.71h.15a2.7,2.7,0,0,0,2.7-2.71V293a2.7,2.7,0,0,0-2.7-2.7h-.15a2.7,2.7,0,0,0-2.7,2.7Z"/><path class="cls-4" d="M963.3,308.2a2.7,2.7,0,0,0,2.55,2.84H966a2.7,2.7,0,0,0,2.85-2.56l.83-15.3a2.71,2.71,0,0,0-2.55-2.85H967a2.7,2.7,0,0,0-2.85,2.56Z"/><path class="cls-4" d="M956.87,305.18a2.35,2.35,0,0,0,2.12,2.56h.13a2.35,2.35,0,0,0,2.56-2.13l1.17-12.7a2.36,2.36,0,0,0-2.12-2.56h-.13a2.35,2.35,0,0,0-2.56,2.13Z"/><path class="cls-2" d="M981.16,311.42a4,4,0,0,1-3.94-3.73l-.79-14.25a4,4,0,0,1,3.72-4.16h.37a4,4,0,0,1,3.94,3.73l.79,14.25a4,4,0,0,1-3.72,4.16Zm-.94-20.9.07,1.24a1.46,1.46,0,0,0-1.38,1.54l.79,14.25a1.46,1.46,0,0,0,1.46,1.38v1.24l.08-1.25a1.5,1.5,0,0,0,1.53-1.55L982,293.14a1.46,1.46,0,0,0-1.45-1.38Z"/><path class="cls-2" d="M973.73,314.05h-.15a4,4,0,0,1-3.95-3.95V293a4,4,0,0,1,8,0V310.1A4,4,0,0,1,973.73,314.05Zm0-22.48a1.5,1.5,0,0,0-1.61,1.46V310.1a1.46,1.46,0,0,0,1.46,1.46h.15a1.46,1.46,0,0,0,1.46-1.46V293A1.46,1.46,0,0,0,973.73,291.57Z"/><path class="cls-2" d="M966.15,312.3h-.22a4,4,0,0,1-3.88-4.16l.82-15.3a4,4,0,0,1,3.94-3.74H967a4,4,0,0,1,3.88,4.16l-.83,15.3A4,4,0,0,1,966.15,312.3Zm.67-22v1.24a1.46,1.46,0,0,0-1.46,1.39l-.82,15.3a1.46,1.46,0,0,0,1.38,1.54l.23,1.25v-1.24a1.46,1.46,0,0,0,1.46-1.38l.83-15.3a1.46,1.46,0,0,0-1.38-1.54Z"/><path class="cls-2" d="M959.34,309H959a3.63,3.63,0,0,1-3.38-3.92l1.17-12.7a3.59,3.59,0,0,1,3.91-3.25,3.64,3.64,0,0,1,3.38,3.92l-1.17,12.7A3.58,3.58,0,0,1,959.34,309Zm1-17.41a1.1,1.1,0,0,0-1.1,1l-1.17,12.7a1.11,1.11,0,0,0,1,1.21l.23,0a1.1,1.1,0,0,0,1.1-1l1.17-12.7a1.11,1.11,0,0,0-1-1.21Z"/><path class="cls-4" d="M1105.7,296.63a2.7,2.7,0,0,0,2.85,2.55h.15a2.7,2.7,0,0,0,2.55-2.85l-.79-14.25a2.7,2.7,0,0,0-2.85-2.55h-.15a2.71,2.71,0,0,0-2.55,2.85Z"/><path class="cls-4" d="M1100.82,279.33h.15a2.7,2.7,0,0,1,2.7,2.7v17.07a2.7,2.7,0,0,1-2.7,2.7h-.15a2.7,2.7,0,0,1-2.7-2.7V282A2.71,2.71,0,0,1,1100.82,279.33Z"/><path class="cls-4" d="M1090.53,297.2a2.7,2.7,0,0,0,2.55,2.84h.15a2.7,2.7,0,0,0,2.85-2.56l.82-15.3a2.71,2.71,0,0,0-2.55-2.85h-.15a2.7,2.7,0,0,0-2.85,2.56Z"/><path class="cls-4" d="M1084.1,294.18a2.35,2.35,0,0,0,2.12,2.56h.13a2.35,2.35,0,0,0,2.56-2.13l1.17-12.7a2.35,2.35,0,0,0-2.12-2.56h-.13a2.35,2.35,0,0,0-2.56,2.13Z"/><path class="cls-2" d="M1108.4,300.43a4,4,0,0,1-3.94-3.73l-.79-14.25a4,4,0,0,1,3.72-4.16h.38a4,4,0,0,1,3.94,3.73l.79,14.25a3.95,3.95,0,0,1-3.72,4.16Zm-.94-20.9.07,1.24a1.47,1.47,0,0,0-1.38,1.54l.79,14.25a1.46,1.46,0,0,0,1.46,1.38v1.24l.08-1.25a1.56,1.56,0,0,0,1.16-.49,1.44,1.44,0,0,0,.37-1.06l-.79-14.25a1.46,1.46,0,0,0-1.45-1.38Z"/><path class="cls-2" d="M1101,303.06h-.15a4,4,0,0,1-3.95-3.95V282a4,4,0,0,1,8,0v17.07A4,4,0,0,1,1101,303.06Zm0-22.48a1.5,1.5,0,0,0-1.61,1.46v17.07a1.46,1.46,0,0,0,1.46,1.46h.15a1.46,1.46,0,0,0,1.46-1.46V282A1.46,1.46,0,0,0,1101,280.58Z"/><path class="cls-2" d="M1093.38,301.3h-.21a4,4,0,0,1-2.88-1.31,3.93,3.93,0,0,1-1-2.85l.82-15.3a4,4,0,0,1,3.94-3.74h.22a4,4,0,0,1,3.88,4.16l-.82,15.3A4,4,0,0,1,1093.38,301.3Zm.67-22v1.24a1.46,1.46,0,0,0-1.46,1.39l-.82,15.3a1.46,1.46,0,0,0,1.38,1.54l.23,1.25v-1.24a1.46,1.46,0,0,0,1.46-1.38l.82-15.3a1.46,1.46,0,0,0-1.38-1.54Z"/><path class="cls-2" d="M1086.58,298h-.33a3.64,3.64,0,0,1-3.38-3.93l1.17-12.7a3.57,3.57,0,0,1,3.91-3.25,3.63,3.63,0,0,1,3.38,3.92l-1.17,12.7A3.58,3.58,0,0,1,1086.58,298Zm1-17.41a1.1,1.1,0,0,0-1.1,1l-1.17,12.69a1.11,1.11,0,0,0,1,1.21l.23,0a1.1,1.1,0,0,0,1.1-1l1.17-12.7a1.11,1.11,0,0,0-1-1.21Z"/><text class="cls-15" transform="translate(224.37 250.42)"><tspan class="cls-16">L</tspan><tspan x="9.85" y="0">et others </tspan><tspan class="cls-17" x="94.05" y="0">k</tspan><tspan x="104.5" y="0">n</tspan><tspan class="cls-18" x="116.44" y="0">o</tspan><tspan x="128.09" y="0">w who </tspan><tspan class="cls-19" x="192.61" y="0">y</tspan><tspan x="202.53" y="0">ou a</tspan><tspan class="cls-20" x="241.11" y="0">r</tspan><tspan x="247.93" y="0">e</tspan></text><path class="cls-21" d="M241.32,157.39c-.16-1.84-.32-9.78-.4-19-4.81,0-10.1-.08-14.82-.16,0,8-.08,15.47-.24,19.23-3.37.72-17.87,1-17.95.16-.48-3.29-1.2-52.16-.48-56.49.24-1.68,17.55-.88,17.87-.32s.48,10.1.64,21.31c4.81-.08,10.1-.08,15,0,.08-9.29.24-17.79.56-20.59,3.37-.72,17.15-.64,17.79-.16s.56,52.65-.16,55.69C258.71,158.75,241.4,158,241.32,157.39Z"/><path class="cls-21" d="M307.82,157.39c.88.48-31.25.48-39.82-.16-.4-5.69.16-44.47.72-56,9.05-.56,39.58-.64,39.82-.16.56,1.84.64,11.54.08,15-3,.32-16.43.24-23.32,0l.16,5.37c8.09-.08,16.59.16,17.07.64.88.88.16,13.78.16,14.18s-8.81.48-17.31.24v6.09c7.21-.24,19.71-.24,22.52,0C308.46,146,308.38,155.55,307.82,157.39Z"/><path class="cls-21" d="M315.19,157.39c-.4-4.81,0-48.56.8-55.85,5.37-.48,14.1-.8,20-.8,16.19,0,25.48,6.25,25.48,19.79,0,8-3.29,12.82-9.13,15.55,5.77,7.29,11.3,16.35,11.06,16.67-1,1.28-12.42,6.09-15.38,5.93-.24,0-6.73-11-13.06-19.63h-2.4c-.08,7.37-.16,15.95-.48,18C331.21,157.39,315.27,158,315.19,157.39Zm22.28-31.65c3.93,0,6.41-1.36,6.41-4.73,0-3-1.36-5-7.05-5a20.41,20.41,0,0,0-3,.16c.08,2.88,0,6.49-.08,9.37C334.66,125.66,336.34,125.74,337.46,125.74Z"/><path class="cls-21" d="M422.47,130.23c0,14.26-9.13,28.45-28.53,28.45-17.39,0-28.69-11.46-28.69-30.21,0-14.42,9.62-28.45,28.45-28.45C410.94,100,422.47,111.48,422.47,130.23ZM393.87,116c-6.33,0-10.26,5-10.26,13.38,0,7.61,4.09,13,9.94,13,6.57,0,10-4.89,10-13.38C403.56,119.57,399.24,116,393.87,116Z"/><path class="cls-21" d="M235.31,206c6.25,0,9.94-3.21,11.62-4.41,2.16,1.44,6.57,9.62,8.17,12.9-3.77,4.49-12.1,8.17-21.72,8.17-19.63,0-28.61-13.54-28.61-30.29,0-16.43,12-28.53,31-28.53,9.78,0,16.75,2.8,19.15,5.37-.08,1.92-4.09,12.74-6.57,14.82-2.88-1.6-7.77-3.69-12.26-3.69a12.36,12.36,0,0,0-12.66,12.74C223.45,203.63,230.58,206,235.31,206Z"/><path class="cls-21" d="M278,165.09c.64.48.56,52.65-.16,55.69-.4,1.68-17.63,1-17.71.32-.4-4.81-.64-48.56.16-55.85C263.67,164.53,277.37,164.61,278,165.09Z"/><path class="cls-21" d="M283.62,165.41c.4-.64,41.19-1.6,43.83-.88,1.36.24,1.12,15,.56,15.06-1.44.24-6.81.48-13.3.72.08,16.27.24,39.5-.16,40.06s-17.31,1-17.39.4c-.32-3.29-.48-25.16-.32-40.63-5.93.08-10.82,0-12.82-.24C283.38,176.71,283.22,166,283.62,165.41Z"/><path class="cls-21" d="M351.64,165.09c.64.48.56,52.65-.16,55.69-.4,1.68-17.63,1-17.71.32-.4-4.81-.64-48.56.16-55.85C337.3,164.53,351,164.61,351.64,165.09Z"/><path class="cls-21" d="M381.77,205.55c2.4-.08,17.31-.16,18.43.32.4.16.24,14.34-.24,14.74-.64.48-40.39.72-40.55.24-.8-2.64-.88-14.1-.8-14.42s16.19-22.68,18.67-26l.08-.4c-2.08,0-17.71.08-18,0s-1.44-14.9-.48-15.22,39.82-.48,40.14-.4,1.68,13.86,1.36,15c-.08.32-16.19,23.08-18.59,25.8Z"/><path class="cls-21" d="M446.67,221.1c.88.48-31.25.48-39.82-.16-.4-5.69.16-44.47.72-56,9.05-.56,39.58-.64,39.82-.16.56,1.84.64,11.54.08,15-3,.32-16.43.24-23.32,0l.16,5.37c8.09-.08,16.59.16,17.07.64.88.88.16,13.78.16,14.18s-8.81.48-17.31.24v6.09c7.21-.24,19.71-.24,22.52,0C447.31,209.72,447.23,219.26,446.67,221.1Z"/><path class="cls-21" d="M488,221.18c-1.68-2.08-9.3-15.46-16.75-27,0,10.42.56,21.39.32,26.12-3.37.72-17.23.8-17.31,0-.48-3.29-.72-50.4,0-54.73.24-1.68,16.11-1.68,16.43-1.12,1.12,1.76,10.9,17.23,17.15,29.41.08-11.78-.4-25.08,0-28.53,3.37-.72,16.59-.48,17.23,0s.08,51.52-.64,54.57C504,221.58,489.13,221.82,488,221.18Z"/><path class="cls-21" d="M516.32,167.85v8.7h-2.7v-8.7h-3.06v-2.1h8.76v2.1Zm14.35,8.7v-7.62h0l-2.76,7.62h-1.77l-2.82-7.62h-.06v7.62h-2.46v-10.8h3.54l2.67,7.08,2.7-7.08h3.54v10.8Z"/></g><g id="Layer_2-2" data-name="Layer 2"><path class="cls-22" d="M213.82,295a2.44,2.44,0,0,1,2.64,2c0,1.4-1.7,2.49-1.7,5.66,0,3.89,3,5.54,7.17,5.54,5,0,8.52-1.77,8.52-8.26,0-9.05-1.47-14.33-1.47-18.56,0-2.26.3-3.85,2.64-3.85,2.15,0,2.34,1.66,2.34,3,0,5.54-.42,11.69-.42,17.62,0,7.43-1.36,13.58-11.39,13.58-7.66,0-11.2-4.56-11.2-10.45C211,298.51,211.3,295,213.82,295Z"/><path class="cls-22" d="M238,301c.11-1.74.53-7.2.53-12.64,0-1.81-.38-7.85-.38-8.45a1.91,1.91,0,0,1,2.11-2c1.32,0,2,.57,2,1.66s-.64,7.92-.75,12.26a11.27,11.27,0,0,1,10.15-5.39c6.15,0,9.05,4.38,9.05,8.6,0,4.94-2.53,9.88-17.31,9.88a49.15,49.15,0,0,1-9.35-1.43c-2-.6-3.51-.91-3.51-2.49a1.16,1.16,0,0,1,1.32-1.32,8.27,8.27,0,0,1,2.19.38A18.44,18.44,0,0,0,238,301Zm10.3.3c4.9,0,8.22-2,8.22-5.17,0-2.64-2.11-5.21-6.34-5.21-5,0-8.64,3.73-8.64,7.2C241.59,300.66,243.93,301.26,248.34,301.26Z"/><path class="cls-22" d="M263.77,285.23c-.34,0-.83-.15-.83-1.09,0-1.32,5.28-2.41,6.94-2.94a1.87,1.87,0,0,1,.57-.11c.3,0,.94.26.94,1.28,0,1.4-2.6,1.51-3.92,1.81-1.17.3-2.15.6-3.36,1C264,285.19,263.92,285.23,263.77,285.23Z"/><path class="cls-22" d="M259.36,300c.87.49,2.19,1.13,5.43,1.13,3.39,0,3.66-2,3.66-3.17,0-4-1.24-4.49-1.24-5.92,0-.53.23-1.47,1.85-1.47,2.56,0,2.79,4.07,2.79,6.79,0,5-2,7.05-7,7.05a20.13,20.13,0,0,1-5.51-1,24.76,24.76,0,0,1-2.38-.83q-1.13-.45-1.13-.68c0-.57,1.36-2.15,2.11-2.15A3.62,3.62,0,0,1,259.36,300Zm9.28,8.9a2.14,2.14,0,0,1,2.11,2.23,2,2,0,0,1-2.19,2.19c-1.24,0-2.19-.49-2.19-1.89S266.94,308.88,268.63,308.88Z"/><path class="cls-22" d="M271.5,300a14.17,14.17,0,0,0,5.28,1.13c3,0,4.26-.68,4.26-7,0-6.94-.79-13.16-.79-14.07,0-1.06.34-2.41,2.15-2.41s2.3,1.55,2.3,2.87-.38,11.84-.38,15.28c0,5.54-1.06,8.49-6.64,8.49a27.9,27.9,0,0,1-3.13-.19,21.5,21.5,0,0,1-3.06-.64,12.75,12.75,0,0,1-3.36-1.32.46.46,0,0,1-.15-.34,3,3,0,0,1,.83-1.13C269.65,299.9,269.77,299.38,271.5,300Z"/><path class="cls-22" d="M288.51,301.45c0-.68.68-5.81.68-12.33,0-1.81-.49-8.34-.49-9.09,0-1.24.3-2.23,1.81-2.23,1.89,0,1.89,1,1.89,2,0,.68-.34,6.56-.34,10.79,0,5.51.57,11.13.57,11.81,0,.91-.23,1.81-2,1.81S288.51,303.07,288.51,301.45Z"/><path class="cls-22" d="M301.38,295a2.44,2.44,0,0,1,2.64,2c0,1.43-1.7,2.45-1.7,5.51,0,4,3,5.7,7.17,5.7,5,0,7.69-2.45,7.69-5.77,0-3.7-1.92-4.71-1.92-7a2.19,2.19,0,0,1,2.45-2.34c3,0,3.32,2.79,3.32,7.43s-1.92,11.24-11.69,11.24c-7.51,0-10.83-4.56-10.83-10.45C298.51,298.51,298.85,295,301.38,295ZM310,284c2,0,2.26,1.06,2.26,2.3a2,2,0,0,1-2.26,2.23c-1.24,0-2.26-.45-2.26-2.23A2.09,2.09,0,0,1,310,284Z"/><path class="cls-22" d="M325,301c.11-1.74.53-7.2.53-12.64,0-1.81-.38-7.85-.38-8.45a1.91,1.91,0,0,1,2.11-2c1.32,0,2,.57,2,1.66s-.64,7.92-.75,12.26a11.27,11.27,0,0,1,10.15-5.39c6.15,0,9.05,4.38,9.05,8.6,0,4.94-2.53,9.88-17.31,9.88a49.15,49.15,0,0,1-9.35-1.43c-2-.6-3.51-.91-3.51-2.49a1.16,1.16,0,0,1,1.32-1.32A8.27,8.27,0,0,1,321,300,18.44,18.44,0,0,0,325,301Zm10.3.3c4.9,0,8.22-2,8.22-5.17,0-2.64-2.11-5.21-6.34-5.21-5,0-8.64,3.73-8.64,7.2C328.54,300.66,330.87,301.26,335.29,301.26Z"/><path class="cls-22" d="M351.51,301.45c0-.68.68-5.81.68-12.33,0-1.81-.49-8.34-.49-9.09,0-1.24.3-2.23,1.81-2.23,1.89,0,1.89,1,1.89,2,0,.68-.34,6.56-.34,10.79,0,5.51.57,11.13.57,11.81,0,.91-.23,1.81-2,1.81S351.51,303.07,351.51,301.45Z"/><path class="cls-22" d="M362.3,308.92c4.94,0,8.86-1.89,8.86-4.75,0-.49-.19-.94-.53-.94-.6,0-1.4.94-3.77.94-4.71,0-7.13-3.06-7.13-6.9,0-5.17,3.43-8.37,7.54-8.37,3.92,0,7.62,2.34,7.62,11.58,0,8.34-5,12.79-12.22,12.79-2.53,0-3.24-.83-3.24-2.15C359.43,309.26,361,308.92,362.3,308.92Zm5-8c2.23,0,3.89-1.32,3.89-4.45,0-3-1.81-4.71-3.92-4.71-2.6,0-4.26,2.07-4.26,4.9C363,299,364.11,301,367.28,301Z"/><path class="cls-22" d="M385.53,280.29a2.83,2.83,0,0,1,2.83-2.87,2.65,2.65,0,0,1,2.83,2.75c0,2.87-3.47,4.26-5.85,4.26s-3.85-.42-3.85-1.51a1,1,0,0,1,1-1.06c1,0,2.15.75,3.17.75a1.54,1.54,0,0,0,1-.26A2.52,2.52,0,0,1,385.53,280.29Zm2.83,1.24a1.19,1.19,0,0,0,1.17-1.24,1.17,1.17,0,1,0-2.34.08A1.2,1.2,0,0,0,388.36,281.54Z"/><path class="cls-22" d="M374.9,300a7.89,7.89,0,0,0,3.36.68c1.62,0,3.51-1.17,4.22-4,1.21-5.32,4.45-8,8.49-8,4.83,0,8,3.32,8,8.26,0,5.77-4,8.07-7.81,8.07-4.75,0-6.11-2.38-7.32-2.38-.6,0-1.13.45-1.92,1.06a4,4,0,0,1-1,.49,3.59,3.59,0,0,1-1.4.23,26.21,26.21,0,0,1-4.68-.94,11.55,11.55,0,0,1-3.32-1.77.57.57,0,0,1-.19-.34c0-.11.19-.34.53-.6.72-.57,1.17-.94,1.58-.94A2.21,2.21,0,0,1,374.9,300Zm15.92,1.28A4,4,0,0,0,395,297a4.48,4.48,0,0,0-4.56-4.6,4.58,4.58,0,0,0-4.53,4.64C385.95,299.68,388,301.26,390.82,301.26Z"/><path class="cls-22" d="M398.51,300a14.17,14.17,0,0,0,5.28,1.13c3,0,4.26-.68,4.26-7,0-6.94-.79-13.16-.79-14.07,0-1.06.34-2.41,2.15-2.41s2.3,1.55,2.3,2.87-.38,11.84-.38,15.28c0,5.54-1.06,8.49-6.64,8.49a27.89,27.89,0,0,1-3.13-.19,21.5,21.5,0,0,1-3.06-.64,12.76,12.76,0,0,1-3.36-1.32.46.46,0,0,1-.15-.34,3,3,0,0,1,.83-1.13C396.66,299.9,396.78,299.38,398.51,300Z"/><path class="cls-22" d="M415.52,301.45c0-.68.68-5.81.68-12.33,0-1.81-.49-8.34-.49-9.09,0-1.24.3-2.23,1.81-2.23,1.89,0,1.89,1,1.89,2,0,.68-.34,6.56-.34,10.79,0,5.51.57,11.13.57,11.81,0,.91-.23,1.81-2,1.81S415.52,303.07,415.52,301.45Z"/></g></g></svg>