<svg id="Layer_1" data-name="Layer 1" xmlns="http://www.w3.org/2000/svg" viewBox="0 0 76.59 74.12"><defs><style>.cls-1{fill:#fdbd29;}.cls-2{fill:#212222;}</style></defs><title>hero_icon</title><path class="cls-1" d="M459.51,236H398.42a7.75,7.75,0,0,0-7.75,7.75v58.62a7.75,7.75,0,0,0,7.75,7.75h61.09a7.75,7.75,0,0,0,7.75-7.75V243.79A7.75,7.75,0,0,0,459.51,236Z" transform="translate(-390.67 -236.04)"/><path class="cls-2" d="M405.89,274c0-.42-.07-2.23-.09-4.33-1.1,0-2.3,0-3.38,0,0,1.83,0,3.53-.05,4.39a16.16,16.16,0,0,1-4.09,0c-.11-.75-.27-11.89-.11-12.88.05-.38,4-.2,4.07-.07s.11,2.3.15,4.86c1.1,0,2.3,0,3.42,0,0-2.12.05-4.06.13-4.7a20.21,20.21,0,0,1,4.06,0c.15.11.13,12,0,12.7C409.86,274.27,405.91,274.1,405.89,274Z" transform="translate(-390.67 -236.04)"/><path class="cls-2" d="M421.06,274c.2.11-7.13.11-9.08,0-.09-1.3,0-10.14.16-12.77,2.06-.13,9-.15,9.08,0a15.05,15.05,0,0,1,0,3.42c-.68.07-3.75.05-5.32,0l0,1.22a23.34,23.34,0,0,1,3.89.15,17.48,17.48,0,0,1,0,3.23,23.52,23.52,0,0,1-3.95.05v1.39c1.64-.05,4.49-.05,5.13,0A14.73,14.73,0,0,1,421.06,274Z" transform="translate(-390.67 -236.04)"/><path class="cls-2" d="M422.74,274c-.09-1.1,0-11.07.18-12.74,1.22-.11,3.22-.18,4.57-.18,3.69,0,5.81,1.43,5.81,4.51a3.52,3.52,0,0,1-2.08,3.54,23.33,23.33,0,0,1,2.52,3.8,10.2,10.2,0,0,1-3.51,1.35c-.05,0-1.53-2.5-3-4.48h-.55c0,1.68,0,3.64-.11,4.11A23,23,0,0,1,422.74,274Zm5.08-7.22c.9,0,1.46-.31,1.46-1.08s-.31-1.13-1.61-1.13a4.65,4.65,0,0,0-.69,0c0,.66,0,1.48,0,2.14C427.18,266.72,427.56,266.74,427.82,266.74Z" transform="translate(-390.67 -236.04)"/><path class="cls-2" d="M447.2,267.76a6.19,6.19,0,0,1-6.5,6.49c-4,0-6.54-2.61-6.54-6.89a6.22,6.22,0,0,1,6.49-6.49C444.57,260.88,447.2,263.49,447.2,267.76Zm-6.52-3.23c-1.44,0-2.34,1.13-2.34,3.05,0,1.74.93,3,2.27,3,1.5,0,2.28-1.11,2.28-3.05C442.89,265.33,441.9,264.53,440.68,264.53Z" transform="translate(-390.67 -236.04)"/><path class="cls-2" d="M404.08,284.42a3.89,3.89,0,0,0,2.47-.94,11.32,11.32,0,0,1,1.74,2.74,6.25,6.25,0,0,1-4.61,1.74c-4.17,0-6.07-2.88-6.07-6.43s2.55-6.06,6.58-6.06a6.11,6.11,0,0,1,4.07,1.14,8.79,8.79,0,0,1-1.39,3.15,5.87,5.87,0,0,0-2.6-.78,2.62,2.62,0,0,0-2.69,2.7A2.42,2.42,0,0,0,404.08,284.42Z" transform="translate(-390.67 -236.04)"/><path class="cls-2" d="M413.15,275.73c.14.1.12,11.18,0,11.82-.09.36-3.74.2-3.76.07-.09-1-.14-10.31,0-11.86A18.65,18.65,0,0,1,413.15,275.73Z" transform="translate(-390.67 -236.04)"/><path class="cls-2" d="M414.34,275.8c.09-.14,8.74-.34,9.31-.19.29.05.24,3.18.12,3.2-.31.05-1.45.1-2.82.15,0,3.45.05,8.39,0,8.51a18,18,0,0,1-3.69.09c-.07-.7-.1-5.34-.07-8.63-1.26,0-2.3,0-2.72-.05A15.13,15.13,0,0,1,414.34,275.8Z" transform="translate(-390.67 -236.04)"/><path class="cls-2" d="M428.78,275.73c.14.1.12,11.18,0,11.82-.09.36-3.74.2-3.76.07-.09-1-.14-10.31,0-11.86A18.65,18.65,0,0,1,428.78,275.73Z" transform="translate(-390.67 -236.04)"/><path class="cls-2" d="M435.17,284.32c.51,0,3.67,0,3.91.07a17.57,17.57,0,0,1-.05,3.13c-.14.1-8.57.15-8.61.05a19.39,19.39,0,0,1-.17-3.06c0-.07,3.44-4.81,4-5.51l0-.09c-.44,0-3.76,0-3.83,0a13.63,13.63,0,0,1-.1-3.23c.22-.09,8.45-.1,8.52-.09a22.07,22.07,0,0,1,.29,3.18c0,.07-3.44,4.9-3.95,5.48Z" transform="translate(-390.67 -236.04)"/><path class="cls-2" d="M449,287.62c.19.1-6.63.1-8.45,0-.09-1.21,0-9.44.15-11.89,1.92-.12,8.4-.14,8.45,0a14,14,0,0,1,0,3.18c-.63.07-3.49.05-5,0l0,1.14a21.73,21.73,0,0,1,3.62.14,16.28,16.28,0,0,1,0,3,21.9,21.9,0,0,1-3.67.05v1.29c1.53-.05,4.18-.05,4.78,0A13.72,13.72,0,0,1,449,287.62Z" transform="translate(-390.67 -236.04)"/><path class="cls-2" d="M457.73,287.64c-.36-.44-2-3.28-3.56-5.73,0,2.21.12,4.54.07,5.55a13.71,13.71,0,0,1-3.67,0c-.1-.7-.15-10.7,0-11.62.05-.36,3.42-.36,3.49-.24.24.37,2.31,3.66,3.64,6.24,0-2.5-.09-5.32,0-6.06a17.28,17.28,0,0,1,3.66,0c.14.1,0,10.94-.14,11.59C461.13,287.72,458,287.77,457.73,287.64Z" transform="translate(-390.67 -236.04)"/></svg>