<svg id="Layer_1" data-name="Layer 1" xmlns="http://www.w3.org/2000/svg" xmlns:xlink="http://www.w3.org/1999/xlink" viewBox="0 0 2560.75 248.6"><defs><pattern id="New_Pattern_Swatch_1" data-name="New Pattern Swatch 1" width="61.45" height="49.52" patternTransform="translate(26.28 -354.88)" patternUnits="userSpaceOnUse" viewBox="0 0 61.45 49.52"><rect width="61.45" height="49.52" fill="none"/><path d="M15.6,33.2c-.34-.55-7.88-8.11-8-8.09A18.17,18.17,0,0,0,5,27.71c.36.45,1.57,1.71,2.9,3.06-.72.7-1.49,1.46-2.17,2.17-1.65-1.6-3.07-3-3.18-3S-.2,32.31,0,32.59c.52.73,7.71,7.71,8.25,8.11a14.52,14.52,0,0,0,2.58-2.62c-.52-.57-1.59-1.66-2.75-2.82.7-.67,1.47-1.43,2.17-2.12,1.35,1.32,2.52,2.45,2.81,2.69C13.17,35.91,15.78,33.5,15.6,33.2Z" fill="#ccc"/><path d="M20.56,24c-.44.37-2.25,2.18-3.26,3.26l-.88-.88a21.12,21.12,0,0,0,2.47-2.54,15.73,15.73,0,0,0-2.08-2,21,21,0,0,0-2.56,2.38l-.8-.75c1-1,3-2.9,3.38-3.38a13.55,13.55,0,0,0-2.18-2.16c-.1,0-4.51,4.4-5.74,5.79,1.59,1.75,7.13,7.45,8,8.22,1.33-1.15,6-5.8,5.79-5.74A13.22,13.22,0,0,0,20.56,24Z" fill="#ccc"/><path d="M26.16,22.63c-.26-.35-1.49-1.6-2.54-2.68l.35-.35c2.17.34,4.7,1,4.73,1a9.15,9.15,0,0,0,1.37-3.09,21,21,0,0,0-4-.81,3.16,3.16,0,0,0-.93-3.57c-2-2-4.21-1.52-6.56.82-.86.86-2.08,2.17-2.79,3,.94,1.17,7.22,7.57,8,8.2A20.66,20.66,0,0,0,26.16,22.63Zm-4.33-4.79c-.41-.43-.92-1-1.35-1.37a4.18,4.18,0,0,1,.42-.46c.82-.82,1.31-.73,1.74-.3s.33,1-.24,1.61C22.24,17.48,22,17.71,21.84,17.84Z" fill="#ccc"/><path d="M26.82,5.45a5.59,5.59,0,0,0,0,8.24c2.72,2.72,6,2.74,8.53.22a5.56,5.56,0,0,0,0-8.25C32.65,2.94,29.32,3,26.82,5.45Zm5.63,2.77c1.23,1.23,1.44,2.44.49,3.39s-2.22.66-3.32-.44-1.37-2.51-.45-3.42S31.08,6.85,32.45,8.22Z" fill="#ccc"/><path d="M16.87,44.81a2.53,2.53,0,0,1,0-3.68,5.66,5.66,0,0,1,2.31-1.24,8.49,8.49,0,0,0-1.2-3.1,5.9,5.9,0,0,0-3.55,2c-2.75,2.75-2.74,6.24-.36,8.62s5.69,3.09,8.53.24a6,6,0,0,0,2-4.33,10.93,10.93,0,0,0-3.05-.68,3.75,3.75,0,0,1-1,2.32A2.34,2.34,0,0,1,16.87,44.81Z" fill="#ccc"/><path d="M18.17,35.43c.94,1.17,7.31,7.47,8.07,8.11.1.08,2.7-2.31,2.52-2.61-.34-.55-7.88-8.11-8-8.09A18,18,0,0,0,18.17,35.43Z" fill="#ccc"/><path d="M23.73,34.12c.33-.26,1-1,1.89-1.82,2.22,2.26,5.41,5.41,5.93,5.84A17.32,17.32,0,0,0,34,35.56c0-.14-3.41-3.48-5.78-5.83.91-1,1.65-1.79,1.82-2,.07-.09-2-2.26-2.26-2.1-.49.28-6.26,6.33-6.22,6.48A14.67,14.67,0,0,0,23.73,34.12Z" fill="#ccc"/><path d="M28.83,24.77c.94,1.17,7.31,7.47,8.07,8.11.1.08,2.7-2.31,2.52-2.61-.34-.55-7.88-8.11-8-8.09A18,18,0,0,0,28.83,24.77Z" fill="#ccc"/><path d="M41.55,23.63c0-.74-1-6.37-1-6.43a21.28,21.28,0,0,0-2.37-2c-.06,0-5.66,5.66-5.76,5.87a13.16,13.16,0,0,0,2.27,2.14c.06,0,2.31-2.31,2.61-2.61l0,.07c.12.84,1,6.39,1.06,6.46a18.64,18.64,0,0,0,2.21,2c.09,0,5.81-5.74,5.84-5.91a16.9,16.9,0,0,0-2.1-2.17c-.23.09-2.38,2.26-2.72,2.62Z" fill="#ccc"/><path d="M51.11,14.38c-.44.37-2.25,2.18-3.26,3.26L47,16.76a21.12,21.12,0,0,0,2.47-2.54,15.73,15.73,0,0,0-2.08-2,21,21,0,0,0-2.56,2.38l-.8-.75c1-1,3-2.9,3.38-3.38a13.55,13.55,0,0,0-2.18-2.16c-.1,0-4.51,4.4-5.74,5.79,1.59,1.75,7.13,7.45,8,8.22,1.33-1.15,6-5.8,5.79-5.74A13.22,13.22,0,0,0,51.11,14.38Z" fill="#ccc"/><path d="M61.44,8c-.34-.55-7.65-8-7.81-8a16.68,16.68,0,0,0-2.5,2.5c.44.56,2.44,2.41,4.13,4.13-2.67-.86-6.32-1.68-6.74-1.78-.13,0-2.43,2.26-2.22,2.54.52.73,7.38,7.52,7.93,7.93a13.21,13.21,0,0,0,2.51-2.51c-.65-.72-2.32-2.23-3.83-3.74,2.75.59,5.79,1.43,6.34,1.49C59.5,10.49,61.62,8.3,61.44,8Z" fill="#ccc"/></pattern></defs><title>hero_cover</title><rect y="0.87" width="2560.1" height="247.73" fill="#e6e6e6"/><rect x="0.65" width="2560.1" height="247.73" opacity="0.3" fill="url(#New_Pattern_Swatch_1)"/></svg>