<svg xmlns="http://www.w3.org/2000/svg" viewBox="0 0 256.49 170.13"><defs><style>.cls-1{fill:#febe29;}.cls-2{fill:#222;}</style></defs><title>Asset 7</title><g id="Layer_2" data-name="Layer 2"><g id="Layer_1-2" data-name="Layer 1"><path class="cls-1" d="M256.49,170.13V15.5A15.5,15.5,0,0,0,241,0H15.5A15.5,15.5,0,0,0,0,15.5V170.13Z"/><path class="cls-2" d="M59.82,83c-.09-1-.17-5.07-.21-9.85-2.5,0-5.24,0-7.69-.09,0,4.16,0,8-.13,10-1.74.37-9.27.5-9.31.08-.25-1.7-.62-27.06-.25-29.3.13-.88,9.11-.46,9.27-.17s.25,5.24.34,11.06c2.49,0,5.23,0,7.77,0,0-4.83.12-9.23.29-10.69A46.23,46.23,0,0,1,69.13,54c.33.25.29,27.31-.08,28.89C68.84,83.71,59.86,83.34,59.82,83Z"/><path class="cls-2" d="M94.32,83c.46.25-16.21.25-20.66-.09-.21-3,.08-23.07.37-29.05,4.7-.29,20.54-.34,20.66-.09a34.43,34.43,0,0,1,0,7.78c-1.53.16-8.52.12-12.09,0l.08,2.78c4.2,0,8.6.09,8.85.34.46.45.09,7.15.09,7.35s-4.58.25-9,.13v3.16c3.74-.13,10.22-.13,11.68,0A33.64,33.64,0,0,1,94.32,83Z"/><path class="cls-2" d="M98.14,83c-.21-2.5,0-25.19.42-29,2.78-.25,7.31-.41,10.39-.41,8.4,0,13.22,3.24,13.22,10.27,0,4.15-1.71,6.65-4.74,8.06,3,3.78,5.86,8.48,5.74,8.65-.54.66-6.45,3.16-8,3.07-.12,0-3.49-5.69-6.77-10.18h-1.25c0,3.82-.08,8.27-.25,9.35C106.45,83,98.18,83.34,98.14,83ZM109.7,66.59c2,0,3.32-.71,3.32-2.46,0-1.53-.7-2.57-3.66-2.57a11.06,11.06,0,0,0-1.58.08c0,1.5,0,3.37,0,4.86C108.24,66.55,109.11,66.59,109.7,66.59Z"/><path class="cls-2" d="M153.8,68.92c0,7.39-4.74,14.75-14.8,14.75-9,0-14.88-5.94-14.88-15.67,0-7.48,5-14.76,14.76-14.76C147.81,53.24,153.8,59.19,153.8,68.92ZM139,61.56c-3.28,0-5.32,2.57-5.32,6.94,0,4,2.12,6.73,5.15,6.73,3.41,0,5.2-2.53,5.2-6.94C144,63.39,141.75,61.56,139,61.56Z"/><path class="cls-2" d="M56.7,108.24a9.56,9.56,0,0,0,6-2.28c1.12.74,3.41,5,4.24,6.69-2,2.33-6.28,4.24-11.27,4.24-10.18,0-14.84-7-14.84-15.71S47.1,86.38,57,86.38c5.07,0,8.69,1.45,9.93,2.78,0,1-2.12,6.61-3.4,7.69a14.4,14.4,0,0,0-6.37-1.91,6.41,6.41,0,0,0-6.56,6.61C50.55,107,54.25,108.24,56.7,108.24Z"/><path class="cls-2" d="M78.85,87c.34.25.3,27.31-.08,28.89-.21.87-9.14.5-9.19.17-.2-2.5-.33-25.19.09-29A45.73,45.73,0,0,1,78.85,87Z"/><path class="cls-2" d="M81.76,87.17c.21-.34,21.37-.83,22.74-.46.71.12.58,7.77.29,7.81-.75.13-3.53.25-6.9.38,0,8.44.13,20.49-.08,20.78s-9,.54-9,.21c-.17-1.7-.25-13-.17-21.07-3.07,0-5.61,0-6.65-.13A37,37,0,0,1,81.76,87.17Z"/><path class="cls-2" d="M117.05,87c.34.25.29,27.31-.08,28.89-.21.87-9.14.5-9.19.17-.2-2.5-.33-25.19.09-29A45.73,45.73,0,0,1,117.05,87Z"/><path class="cls-2" d="M132.68,108c1.25,0,9-.08,9.56.17a42.69,42.69,0,0,1-.12,7.65c-.33.25-21,.37-21,.12a48.1,48.1,0,0,1-.41-7.48c.08-.17,8.4-11.76,9.68-13.47l.05-.21c-1.08,0-9.19,0-9.36,0s-.75-7.73-.25-7.89,20.66-.25,20.83-.21a54.2,54.2,0,0,1,.71,7.77c0,.17-8.4,12-9.65,13.39Z"/><path class="cls-2" d="M166.35,116.06c.46.25-16.21.25-20.66-.09-.21-3,.09-23.07.38-29,4.69-.29,20.53-.34,20.66-.09a34.43,34.43,0,0,1,0,7.78c-1.54.16-8.52.12-12.1,0l.08,2.78c4.2,0,8.61.09,8.86.34.46.45.08,7.15.08,7.35s-4.57.25-9,.13v3.16c3.74-.13,10.23-.13,11.68,0A33.07,33.07,0,0,1,166.35,116.06Z"/><path class="cls-2" d="M187.8,116.1c-.87-1.08-4.82-8-8.69-14,0,5.4.29,11.1.17,13.55-1.75.38-8.94.42-9,0-.25-1.7-.37-26.15,0-28.39.12-.87,8.36-.87,8.52-.58.58.91,5.66,8.94,8.9,15.25,0-6.11-.21-13,0-14.8a43.19,43.19,0,0,1,8.94,0c.33.25,0,26.73-.34,28.31C196.12,116.31,188.38,116.43,187.8,116.1Z"/><path class="cls-2" d="M203.6,88.88v6.19h-1.92V88.88H199.5v-1.5h6.24v1.5Zm10.21,6.19V89.65h0l-2,5.42h-1.26l-2-5.42h0v5.42h-1.76V87.38h2.53l1.9,5,1.92-5h2.52v7.69Z"/></g></g></svg>