<svg id="Layer_1" data-name="Layer 1" xmlns="http://www.w3.org/2000/svg" viewBox="0 0 500 191.64"><defs><style>.cls-1{fill:#222;}</style></defs><title>dubarah</title><path class="cls-1" d="M63,92.07c-.23-2.61-.45-13.86-.57-26.92-6.81,0-14.31-.11-21-.23,0,11.36-.11,21.92-.34,27.26-4.77,1-25.33,1.36-25.44.23C15,87.76,14,18.47,15,12.34c.34-2.39,24.87-1.25,25.33-.45S41,26.2,41.23,42.1C48,42,55.55,42,62.47,42.1c.11-13.17.34-25.21.8-29.19,4.77-1,24.31-.91,25.21-.23s.8,74.62-.23,78.94C87.69,94,63.15,93,63,92.07Z"/><path class="cls-1" d="M157.3,92.07c1.25.68-44.3.68-56.45-.23-.57-8.06.23-63,1-79.39,12.83-.8,56.11-.91,56.45-.23.79,2.61.91,16.36.11,21.24-4.2.45-23.28.34-33.05,0l.23,7.61c11.47-.11,23.51.23,24.19.91,1.25,1.25.23,19.54.23,20.1s-12.49.68-24.53.34v8.63c10.22-.34,27.94-.34,31.92,0C158.21,75.94,158.1,89.46,157.3,92.07Z"/><path class="cls-1" d="M167.75,92.07c-.57-6.81,0-68.83,1.14-79.16,7.61-.68,20-1.14,28.39-1.14,22.94,0,36.12,8.86,36.12,28.05,0,11.36-4.66,18.17-12.95,22,8.18,10.34,16,23.17,15.67,23.62-1.48,1.82-17.6,8.63-21.81,8.4-.34,0-9.54-15.56-18.51-27.83h-3.41c-.11,10.45-.23,22.6-.68,25.55C190.46,92.07,167.86,93,167.75,92.07Zm31.57-44.86c5.57,0,9.09-1.93,9.09-6.7,0-4.2-1.93-7-10-7a28.93,28.93,0,0,0-4.32.23c.11,4.09,0,9.2-.11,13.29C195.34,47.1,197.73,47.21,199.32,47.21Z"/><path class="cls-1" d="M319.82,53.57c0,20.22-12.95,40.32-40.43,40.32-24.65,0-40.66-16.24-40.66-42.82,0-20.44,13.63-40.32,40.32-40.32C303.46,10.75,319.82,27,319.82,53.57Zm-40.55-20.1c-9,0-14.54,7-14.54,19,0,10.79,5.79,18.4,14.08,18.4,9.31,0,14.2-6.93,14.2-19C293,38.46,286.88,33.47,279.27,33.47Z"/><path class="cls-1" d="M54.52,161c8.86,0,14.08-4.54,16.47-6.25,3.07,2,9.31,13.63,11.58,18.29-5.34,6.36-17.15,11.58-30.78,11.58-27.83,0-40.55-19.19-40.55-42.93,0-23.28,17-40.43,44-40.43,13.86,0,23.74,4,27.15,7.61-.11,2.73-5.79,18.06-9.31,21-4.09-2.27-11-5.22-17.38-5.22-9.88,0-17.95,7.27-17.95,18.06C37.71,157.61,47.82,161,54.52,161Z"/><path class="cls-1" d="M115.05,103c.91.68.8,74.62-.23,78.94-.57,2.39-25,1.36-25.1.45-.57-6.81-.91-68.83.23-79.16C94.72,102.19,114.15,102.3,115.05,103Z"/><path class="cls-1" d="M123,103.43c.57-.91,58.38-2.27,62.13-1.25,1.93.34,1.59,21.24.8,21.35-2,.34-9.65.68-18.85,1,.11,23.06.34,56-.23,56.79s-24.53,1.48-24.65.57c-.45-4.66-.68-35.66-.45-57.58-8.4.11-15.33,0-18.17-.34C122.66,119.45,122.43,104.23,123,103.43Z"/><path class="cls-1" d="M219.42,103c.91.68.8,74.62-.23,78.94-.57,2.39-25,1.36-25.1.45-.57-6.81-.91-68.83.23-79.16C199.09,102.19,218.51,102.3,219.42,103Z"/><path class="cls-1" d="M262.12,160.34c3.41-.11,24.53-.23,26.12.45.57.23.34,20.33-.34,20.9-.91.68-57.24,1-57.47.34-1.14-3.75-1.25-20-1.14-20.44s22.94-32.14,26.46-36.8l.11-.57c-3,0-25.1.11-25.55,0s-2-21.13-.68-21.58,56.45-.68,56.9-.57,2.39,19.65,1.93,21.24c-.11.45-22.94,32.71-26.35,36.57Z"/><path class="cls-1" d="M354.11,182.37c1.25.68-44.3.68-56.45-.23-.57-8.06.23-63,1-79.39,12.83-.8,56.11-.91,56.45-.23.8,2.61.91,16.36.11,21.24-4.2.45-23.28.34-33.05,0l.23,7.61c11.47-.11,23.51.23,24.19.91,1.25,1.25.23,19.54.23,20.1s-12.49.68-24.53.34v8.63c10.22-.34,27.94-.34,31.92,0C355,166.24,354.91,179.76,354.11,182.37Z"/><path class="cls-1" d="M412.71,182.48c-2.39-3-13.18-21.92-23.74-38.28,0,14.77.8,30.33.45,37-4.77,1-24.42,1.14-24.53,0-.68-4.66-1-71.44,0-77.57.34-2.39,22.83-2.39,23.28-1.59,1.59,2.5,15.45,24.42,24.31,41.68.11-16.7-.57-35.55,0-40.43,4.77-1,23.51-.68,24.42,0s.11,73-.91,77.35C435.43,183.05,414.3,183.39,412.71,182.48Z"/><path class="cls-1" d="M455.88,108.11V125h-5.25V108.11h-6V104h17v4.09ZM483.79,125V110.21h-.06L478.36,125h-3.45l-5.49-14.83h-.12V125h-4.79V104h6.89l5.2,13.78L481.86,104h6.89v21Z"/></svg>