<svg xmlns="http://www.w3.org/2000/svg" viewBox="0 0 1211.34 261.34"><defs><style>.cls-1{fill:#febe29;}.cls-2{fill:#414042;}.cls-3,.cls-4{fill:#222;}.cls-4{stroke:#222;stroke-miterlimit:10;stroke-width:0.61px;}</style></defs><title>Asset 3</title><g id="Layer_2" data-name="Layer 2"><g id="Layer_1-2" data-name="Layer 1"><rect class="cls-1" width="1211.34" height="261.34"/><rect class="cls-2" x="673.41" y="160.42" width="2.4" height="2.4"/><rect class="cls-2" x="678.48" y="160.42" width="2.4" height="2.4"/><rect class="cls-2" x="683.54" y="160.42" width="2.4" height="2.4"/><rect class="cls-2" x="688.61" y="160.42" width="2.4" height="2.4"/><rect class="cls-2" x="693.67" y="160.42" width="2.4" height="2.4"/><rect class="cls-2" x="698.74" y="160.42" width="2.4" height="2.4"/><rect class="cls-2" x="703.8" y="160.42" width="2.4" height="2.4"/><rect class="cls-2" x="708.87" y="160.42" width="2.4" height="2.4"/><rect class="cls-2" x="713.94" y="160.42" width="2.4" height="2.4"/><rect class="cls-2" x="719" y="160.42" width="2.4" height="2.4"/><rect class="cls-2" x="921.52" y="90.44" width="2.4" height="2.4"/><rect class="cls-2" x="926.58" y="90.44" width="2.4" height="2.4"/><rect class="cls-2" x="931.65" y="90.44" width="2.4" height="2.4"/><rect class="cls-2" x="936.71" y="90.44" width="2.4" height="2.4"/><rect class="cls-2" x="941.78" y="90.44" width="2.4" height="2.4"/><rect class="cls-2" x="946.85" y="90.44" width="2.4" height="2.4"/><rect class="cls-2" x="951.91" y="90.44" width="2.4" height="2.4"/><rect class="cls-2" x="956.98" y="90.44" width="2.4" height="2.4"/><rect class="cls-2" x="962.04" y="90.44" width="2.4" height="2.4"/><rect class="cls-2" x="967.11" y="90.44" width="2.4" height="2.4"/><rect class="cls-2" x="818.13" y="131.18" width="2.4" height="2.4"/><rect class="cls-2" x="823.2" y="131.18" width="2.4" height="2.4"/><rect class="cls-2" x="828.26" y="131.18" width="2.4" height="2.4"/><rect class="cls-2" x="833.33" y="131.18" width="2.4" height="2.4"/><rect class="cls-2" x="838.39" y="131.18" width="2.4" height="2.4"/><rect class="cls-2" x="843.46" y="131.18" width="2.4" height="2.4"/><rect class="cls-2" x="848.53" y="131.18" width="2.4" height="2.4"/><rect class="cls-2" x="853.59" y="131.18" width="2.4" height="2.4"/><rect class="cls-2" x="858.66" y="131.18" width="2.4" height="2.4"/><rect class="cls-2" x="863.72" y="131.18" width="2.4" height="2.4"/><rect class="cls-2" x="629.26" y="73.66" width="3.42" height="3.42"/><rect class="cls-2" x="636.47" y="73.66" width="3.42" height="3.42"/><rect class="cls-2" x="643.68" y="73.66" width="3.42" height="3.42"/><rect class="cls-2" x="650.89" y="73.66" width="3.42" height="3.42"/><rect class="cls-2" x="658.11" y="73.66" width="3.42" height="3.42"/><rect class="cls-2" x="665.32" y="73.66" width="3.42" height="3.42"/><rect class="cls-2" x="672.53" y="73.66" width="3.42" height="3.42"/><rect class="cls-2" x="679.74" y="73.66" width="3.42" height="3.42"/><rect class="cls-2" x="686.95" y="73.66" width="3.42" height="3.42"/><rect class="cls-2" x="694.16" y="73.66" width="3.42" height="3.42"/><rect class="cls-2" x="426.87" y="87.65" width="2.4" height="2.4"/><rect class="cls-2" x="431.93" y="87.65" width="2.4" height="2.4"/><rect class="cls-2" x="437" y="87.65" width="2.4" height="2.4"/><rect class="cls-2" x="442.06" y="87.65" width="2.4" height="2.4"/><rect class="cls-2" x="447.13" y="87.65" width="2.4" height="2.4"/><rect class="cls-2" x="452.2" y="87.65" width="2.4" height="2.4"/><rect class="cls-2" x="457.26" y="87.65" width="2.4" height="2.4"/><rect class="cls-2" x="462.33" y="87.65" width="2.4" height="2.4"/><rect class="cls-2" x="467.39" y="87.65" width="2.4" height="2.4"/><rect class="cls-2" x="472.46" y="87.65" width="2.4" height="2.4"/><path class="cls-2" d="M802.44,63.13l-4.87-4.87,4.87-4.86,4.86,4.86Zm-1.53-4.87,1.53,1.54L804,58.26l-1.53-1.53Z"/><path class="cls-2" d="M934.65,156.36l-2.6-2.59,2.6-2.6,2.59,2.6Zm-.82-2.59.82.82.82-.82-.82-.82Z"/><path class="cls-2" d="M913.38,57.1l-3-3,3-3,3,3Zm-1-3,1,.94.94-.94-.94-1Z"/><path class="cls-2" d="M434.5,65.33,431,61.78l3.54-3.54,3.55,3.54Zm-1.11-3.55,1.11,1.12,1.12-1.12-1.12-1.11Z"/><path class="cls-2" d="M713.08,81.42,707.67,76l5.41-5.41L718.49,76ZM711.37,76l1.71,1.71,1.7-1.71-1.7-1.7Z"/><path class="cls-2" d="M566.91,99.71l-5.43-5.43,5.43-5.43,5.42,5.43Zm-1.71-5.43L566.91,96l1.71-1.72-1.71-1.71Z"/><path class="cls-2" d="M588.16,137.53,583,132.38l5.14-5.15,5.15,5.15Zm-1.62-5.15,1.62,1.63,1.63-1.63-1.63-1.62Z"/><rect class="cls-2" x="796.84" y="78.95" width="3.41" height="3.41"/><polygon class="cls-2" points="806 84.84 803.05 83.12 804.76 80.17 807.72 81.88 806 84.84"/><rect class="cls-2" x="808.66" y="85.82" width="3.41" height="3.41" transform="translate(63.11 413.04) rotate(-29.7)"/><rect class="cls-2" x="810.45" y="92.67" width="3.41" height="3.42" transform="translate(712.09 905.85) rotate(-89.6)"/><rect class="cls-2" x="808.55" y="99.49" width="3.41" height="3.41" transform="translate(310.62 747.04) rotate(-59.39)"/><rect class="cls-2" x="803.49" y="104.44" width="3.41" height="3.41" transform="translate(51.06 407.62) rotate(-29.3)"/><rect class="cls-2" x="796.63" y="106.17" width="3.41" height="3.41" transform="translate(677.53 904.35) rotate(-89.07)"/><rect class="cls-2" x="789.82" y="104.22" width="3.41" height="3.41" transform="translate(292.24 729.18) rotate(-58.92)"/><rect class="cls-2" x="784.91" y="99.12" width="3.42" height="3.41" transform="translate(48.77 391.53) rotate(-28.81)"/><polygon class="cls-2" points="786.69 92.28 786.61 95.7 783.2 95.61 783.27 92.2 786.69 92.28"/><rect class="cls-2" x="785.24" y="85.45" width="3.41" height="3.41" transform="translate(301.69 712.78) rotate(-58.52)"/><polygon class="cls-2" points="794.39 82.98 791.4 84.61 789.77 81.6 792.78 79.98 794.39 82.98"/><rect class="cls-2" x="1070.18" y="112.04" width="1.58" height="1.58"/><rect class="cls-2" x="1073.34" y="112.89" width="1.58" height="1.57" transform="translate(434.79 984.27) rotate(-59.75)"/><rect class="cls-2" x="1075.64" y="115.21" width="1.57" height="1.57" transform="translate(83.46 547.47) rotate(-29.64)"/><rect class="cls-2" x="1076.46" y="118.37" width="1.57" height="1.58" transform="translate(950.62 1195.56) rotate(-89.6)"/><rect class="cls-2" x="1075.59" y="121.52" width="1.57" height="1.58" transform="translate(423.3 986.62) rotate(-59.41)"/><rect class="cls-2" x="1073.25" y="123.8" width="1.57" height="1.58" transform="translate(76.57 541.9) rotate(-29.32)"/><rect class="cls-2" x="1070.08" y="124.6" width="1.57" height="1.57" transform="translate(928.55 1194.14) rotate(-89.09)"/><rect class="cls-2" x="1066.94" y="123.7" width="1.57" height="1.57" transform="matrix(0.52, -0.86, 0.86, 0.52, 410.22, 974.92)"/><rect class="cls-2" x="1064.68" y="121.35" width="1.58" height="1.57" transform="translate(72.75 527.91) rotate(-28.77)"/><rect class="cls-2" x="1063.9" y="118.17" width="1.57" height="1.58" transform="translate(920.95 1180.59) rotate(-88.66)"/><rect class="cls-2" x="1064.83" y="115.04" width="1.58" height="1.58" transform="translate(409.25 963.26) rotate(-58.44)"/><rect class="cls-2" x="1067.2" y="112.8" width="1.57" height="1.57" transform="translate(74.47 521.53) rotate(-28.39)"/><rect class="cls-2" x="505.69" y="73.99" width="2.5" height="2.5"/><rect class="cls-2" x="510.69" y="75.33" width="2.5" height="2.5" transform="translate(188.27 480.54) rotate(-59.8)"/><rect class="cls-2" x="514.34" y="79.01" width="2.5" height="2.5" transform="translate(27.97 266) rotate(-29.7)"/><rect class="cls-2" x="515.65" y="84.02" width="2.5" height="2.5" transform="translate(427.81 601.52) rotate(-89.58)"/><rect class="cls-2" x="514.26" y="89" width="2.49" height="2.5" transform="translate(175.3 487.94) rotate(-59.38)"/><rect class="cls-2" x="510.56" y="92.62" width="2.5" height="2.5" transform="translate(19.49 262.35) rotate(-29.29)"/><rect class="cls-2" x="505.54" y="93.89" width="2.49" height="2.49" transform="translate(404.15 600.46) rotate(-89.15)"/><rect class="cls-2" x="500.56" y="92.47" width="2.49" height="2.49" transform="translate(162.59 475.19) rotate(-58.93)"/><rect class="cls-2" x="496.98" y="88.74" width="2.5" height="2.49" transform="translate(18.38 251.46) rotate(-28.84)"/><rect class="cls-2" x="495.75" y="83.71" width="2.49" height="2.5" transform="translate(400.7 579.88) rotate(-88.69)"/><rect class="cls-2" x="497.21" y="78.74" width="2.49" height="2.5" transform="translate(169.91 463.28) rotate(-58.51)"/><polygon class="cls-2" points="503.91 76.94 501.72 78.12 500.53 75.93 502.73 74.73 503.91 76.94"/><path class="cls-2" d="M960.32,146.76a.7.7,0,0,1-.3-.41.61.61,0,0,1,.09-.49.62.62,0,0,1,.56-.31.66.66,0,0,1,.33.09l3.87,2.39a.61.61,0,0,1,.29.41.6.6,0,0,1-.08.5.66.66,0,0,1-.56.31.74.74,0,0,1-.34-.1Zm4.72,7.75a.65.65,0,0,0-.62-.84.59.59,0,0,0-.32.08l-4,2.17a.69.69,0,0,0-.31.4.65.65,0,0,0,.62.83.68.68,0,0,0,.32-.07l4-2.18A.62.62,0,0,0,965,154.51Zm8.72-5.49a.65.65,0,0,0,.57.32.67.67,0,0,0,.33-.08L978.6,147a.61.61,0,0,0,.31-.39.63.63,0,0,0-.06-.5.68.68,0,0,0-.57-.33.59.59,0,0,0-.32.09l-4,2.24A.67.67,0,0,0,973.76,149Zm-7.27,6.78a.65.65,0,0,0-.57.32L963.57,160a.65.65,0,0,0,.22.9.65.65,0,0,0,.34.1.66.66,0,0,0,.56-.32L967,156.8a.66.66,0,0,0-.22-.91A.68.68,0,0,0,966.49,155.8Zm5.74-8.55a.65.65,0,0,0,.56-.32l2.29-3.93a.64.64,0,0,0,.06-.49.61.61,0,0,0-.3-.4.68.68,0,0,0-.33-.09.65.65,0,0,0-.56.32l-2.29,3.93a.67.67,0,0,0-.07.5.72.72,0,0,0,.3.4A.68.68,0,0,0,972.23,147.25Zm-7.88,4.47a.69.69,0,0,0-.17-.48.64.64,0,0,0-.48-.24l-4.55.1c-.52,0-.64.27-.65.5s.07.52.63.53l4.56.28A.69.69,0,0,0,964.35,151.72Zm10.31,2.14a.66.66,0,0,0-.33-.09.65.65,0,0,0-.64.82.65.65,0,0,0,.31.4l3.9,2.32a.63.63,0,0,0,.33.09.65.65,0,0,0,.57-.32.66.66,0,0,0-.23-.9Zm-9.54-11.63a.66.66,0,0,0-.58-.34.64.64,0,0,0-.31.07.67.67,0,0,0-.32.38.61.61,0,0,0,.05.51l2.13,4a.66.66,0,0,0,.58.35.62.62,0,0,0,.31-.08.69.69,0,0,0,.32-.39.64.64,0,0,0,0-.49ZM979.65,151l-4.55.06a.6.6,0,0,0-.65.59.53.53,0,0,0,.16.41.67.67,0,0,0,.48.19l4.55.12a.69.69,0,0,0,0-1.37Zm-6.87,5.16a.64.64,0,0,0-.56-.34.73.73,0,0,0-.33.08.67.67,0,0,0-.25.89l2.21,4a.66.66,0,0,0,.57.34.76.76,0,0,0,.33-.08.68.68,0,0,0,.25-.9Zm-3.43-15.54a.65.65,0,0,0-.65.65v4.54a.65.65,0,0,0,.65.65.66.66,0,0,0,.66-.65v-4.54A.66.66,0,0,0,969.35,140.66Zm0,15.94a.67.67,0,0,0-.63.63l-.09,4.53a.63.63,0,0,0,.18.45.67.67,0,0,0,.47.19h0a.63.63,0,0,0,.65-.62l.08-4.52A.65.65,0,0,0,969.32,156.6Z"/><path class="cls-2" d="M838.55,78.11h2.62V75.37h1.9v2.74h2.64v1.78h-2.64v2.77h-1.9V79.89h-2.62Z"/><path class="cls-2" d="M734.12,123.51h2.62v-2.74h1.9v2.74h2.63v1.78h-2.63v2.77h-1.9v-2.77h-2.62Z"/><path class="cls-2" d="M600.27,88h2.62V85.21h1.9V88h2.63v1.78h-2.63v2.76h-1.9V89.73h-2.62Z"/><path class="cls-2" d="M1047.19,130.28h2.63v-2.74h1.89v2.74h2.64v1.78h-2.64v2.76h-1.89v-2.76h-2.63Z"/><path class="cls-2" d="M960.39,68.24h3.1V65h2.24v3.23h3.12v2.11h-3.12v3.27h-2.24V70.35h-3.1Z"/><path class="cls-2" d="M897.3,150.28h2.63v-2.74h1.89v2.74h2.64v1.78h-2.64v2.76h-1.89v-2.76H897.3Z"/><path class="cls-2" d="M751.4,68.41H754V65.67h1.9v2.74h2.63v1.78h-2.63V73H754V70.19H751.4Z"/><path class="cls-2" d="M440.89,101.29h2.62V98.56h1.9v2.73H448v1.78h-2.63v2.77h-1.9v-2.77h-2.62Z"/><path class="cls-2" d="M483,42.37h2.45V39.82h1.76v2.55h2.46V44h-2.46v2.58h-1.76V44H483Z"/><rect class="cls-2" x="677.35" y="105.56" width="92.67" height="2.83"/><rect class="cls-2" x="943.07" y="129.56" width="92.67" height="2.83"/><rect class="cls-2" x="647.53" y="123" width="76.16" height="2.83"/><rect class="cls-2" x="789.77" y="148.7" width="42.34" height="2.83"/><rect class="cls-2" x="841.73" y="148.7" width="42.34" height="2.83"/><rect class="cls-2" x="853.45" y="115.09" width="124.54" height="2.83"/><rect class="cls-2" x="612.19" y="123" width="27.95" height="2.83"/><rect class="cls-2" x="417.64" y="112.1" width="113.74" height="2.83"/><rect class="cls-2" x="463.28" y="101.13" width="68.86" height="2.83"/><path class="cls-2" d="M886.52,71.85h-5.2v-5.2h5.2Zm-3.47-1.73h1.74V68.38h-1.74Z"/><path class="cls-2" d="M886.52,111h-5.2v-5.2h5.2Zm-3.47-1.73h1.74V107.5h-1.74Z"/><path class="cls-2" d="M906.08,91.41h-5.2v-5.2h5.2Zm-3.47-1.73h1.74V87.94h-1.74Z"/><path class="cls-2" d="M867,91.41h-5.2v-5.2H867Zm-3.47-1.73h1.74V87.94h-1.74Z"/><path class="cls-2" d="M885.65,109.16a.86.86,0,0,1-.07-1.72,18.64,18.64,0,0,0,17-17,.88.88,0,0,1,.94-.79.86.86,0,0,1,.78.94,20.37,20.37,0,0,1-18.53,18.54Z"/><path class="cls-2" d="M903.4,87.94a.86.86,0,0,1-.86-.78,18.63,18.63,0,0,0-17-17,.86.86,0,1,1,.15-1.72A20.36,20.36,0,0,1,904.26,87a.85.85,0,0,1-.78.93Z"/><path class="cls-2" d="M864.44,87.94h-.08a.86.86,0,0,1-.78-.94,20.4,20.4,0,0,1,18.36-18.52.86.86,0,0,1,.17,1.72,18.66,18.66,0,0,0-16.81,17A.87.87,0,0,1,864.44,87.94Z"/><path class="cls-2" d="M882.19,109.16h-.08a20.36,20.36,0,0,1-18.53-18.54.85.85,0,0,1,.78-.93.88.88,0,0,1,.94.78,18.65,18.65,0,0,0,17,17,.86.86,0,0,1-.07,1.72Z"/><path class="cls-2" d="M873.34,102.2l-.56-.42,0,0-1-.82,0,0-.57-.5.15-.52a57.5,57.5,0,0,0,1.89-8.22l.06-.58.56-.16c3.36-1,8.3-4.65,8.35-4.69l.57-.44,4.09,3.77-.39.61s-3.32,5.28-4,8.7l-.12.6-.6.09a45.31,45.31,0,0,0-8,2.42Zm5-5.54-2.81,2.93A43.7,43.7,0,0,1,880.93,98a36.37,36.37,0,0,1,3.73-8.1l-2-1.83a35,35,0,0,1-7.79,4.38c-.14.88-.49,2.8-1.31,5.92l2.95-3.17a2,2,0,0,1-.16-.65,2.22,2.22,0,0,1,2.12-2.32h0a2.24,2.24,0,0,1,2.32,2.12,2.22,2.22,0,0,1-2.12,2.33A2.73,2.73,0,0,1,878.3,96.66Zm0-1.78a2.53,2.53,0,0,0,.38.09.53.53,0,0,0,.32-.17.52.52,0,0,0,.13-.36.5.5,0,0,0-.5-.48.51.51,0,0,0-.51.53C878.12,94.54,878.21,94.74,878.28,94.88Z"/><path class="cls-2" d="M887.42,91.36a2,2,0,0,1-1.38-.57L881.26,86a1.93,1.93,0,0,1,0-2.76l6.68-6.68a2,2,0,0,1,2.76,0l4.78,4.78a2,2,0,0,1,0,2.76l-6.68,6.68A2,2,0,0,1,887.42,91.36Zm1.9-13.65a.22.22,0,0,0-.16.07l-6.68,6.68a.24.24,0,0,0,0,.32l4.78,4.78a.2.2,0,0,0,.32,0l6.68-6.69a.24.24,0,0,0,0-.32l-4.78-4.78A.22.22,0,0,0,889.32,77.71Z"/><path class="cls-2" d="M779.8,136.13a18.06,18.06,0,1,0-25.71,16.36v.82h0v12.84H757a1.07,1.07,0,0,0-.06.3,1.11,1.11,0,0,0,1.1,1.11h7.34a1.11,1.11,0,0,0,1.1-1.11,1.07,1.07,0,0,0-.06-.3h2.95V153.31h0v-.82A18,18,0,0,0,779.8,136.13Zm-23.51,27.81v-8.43h10.9v8.43Zm0-10.63V151l-.68-.28a15.86,15.86,0,1,1,12.25,0l-.67.28v2.28Z"/><path class="cls-2" d="M765.41,157h-7.34a1.11,1.11,0,0,0,0,2.21h7.34a1.11,1.11,0,0,0,0-2.21Z"/><path class="cls-2" d="M765.41,160.23h-7.34a1.1,1.1,0,0,0,0,2.2h7.34a1.1,1.1,0,1,0,0-2.2Z"/><path class="cls-2" d="M1045.25,100.39a.84.84,0,0,1-.59-.24.86.86,0,0,1,0-1.19l3.75-3.74-3.49-3.49a.83.83,0,0,1,1.18-1.18l4.67,4.67-4.93,4.93A.82.82,0,0,1,1045.25,100.39Z"/><path class="cls-2" d="M1008,100.39a.84.84,0,0,1-.59-.24l-4.93-4.93,4.67-4.67a.83.83,0,0,1,1.18,1.18l-3.48,3.49,3.74,3.74a.84.84,0,0,1-.59,1.43Z"/><path class="cls-2" d="M1026.6,109.19l-15.72-18.32h31.44Zm-12.08-16.65,12.08,14.08,12.08-14.08Z"/><polygon class="cls-2" points="1012.5 91.83 1011.11 90.9 1016.77 82.42 1036.43 82.42 1042.04 90.89 1040.65 91.81 1035.53 84.09 1017.67 84.09 1012.5 91.83"/><rect class="cls-2" x="1019.16" y="82.96" width="1.67" height="9.22" transform="translate(115.51 567.13) rotate(-32.84)"/><rect class="cls-2" x="1028.36" y="86.73" width="9.21" height="1.67" transform="translate(399.27 908.01) rotate(-57.16)"/><rect class="cls-2" x="1019.82" y="86.65" width="9.08" height="1.67" transform="matrix(0.49, -0.87, 0.87, 0.49, 444.74, 936.61)"/><rect class="cls-2" x="1027.62" y="83.12" width="1.67" height="8.73" transform="translate(60.04 444.62) rotate(-25.11)"/><rect class="cls-2" x="1023.53" y="91.37" width="1.67" height="16.83" transform="translate(10.28 275.59) rotate(-15.4)"/><rect class="cls-2" x="1020.13" y="98.95" width="16.65" height="1.67" transform="translate(701.97 1080.14) rotate(-77.12)"/><path class="cls-2" d="M553.94,72.84a14.58,14.58,0,1,1,10.3-4.27A14.5,14.5,0,0,1,553.94,72.84Zm0-27.3a12.74,12.74,0,1,0,9,3.73A12.61,12.61,0,0,0,553.94,45.54Z"/><path class="cls-2" d="M553.94,70.36a12.1,12.1,0,1,1,8.55-20.65,12.1,12.1,0,0,1-8.55,20.65Zm0-22.34a10.25,10.25,0,1,0,7.24,3A10.21,10.21,0,0,0,553.94,48Z"/><path class="cls-2" d="M567.07,72.32a.93.93,0,0,1-.66-.27l-3.48-3.48a.93.93,0,0,1,1.31-1.31l3.48,3.48a.93.93,0,0,1-.65,1.58Z"/><path class="cls-2" d="M573.16,82.46l-9.24-9.24,5-5,9.23,9.24Zm-6.62-9.24,6.62,6.62,2.36-2.35-6.62-6.62Z"/><path class="cls-2" d="M553.94,64.36a6.1,6.1,0,1,1,6.09-6.1A6.1,6.1,0,0,1,553.94,64.36Zm0-10.34a4.25,4.25,0,1,0,4.24,4.24A4.25,4.25,0,0,0,553.94,54Z"/><path class="cls-2" d="M558.7,52.44a.93.93,0,0,1-.66-.27,5.81,5.81,0,0,0-8.21,0,.93.93,0,1,1-1.31-1.31,7.67,7.67,0,0,1,10.83,0,.93.93,0,0,1-.65,1.58Z"/><path class="cls-2" d="M557,58.26a3.07,3.07,0,1,1-3.07-3.07A3.08,3.08,0,0,1,557,58.26Z"/><path class="cls-3" d="M169.83,136.37c-.16-1.85-.32-9.78-.4-19-4.8,0-10.09-.08-14.82-.16,0,8-.08,15.46-.24,19.23-3.37.72-17.87,1-18,.16-.48-3.29-1.2-52.17-.48-56.49.24-1.69,17.55-.88,17.87-.32s.48,10.09.64,21.31c4.81-.08,10.1-.08,15,0,.08-9.29.24-17.79.56-20.59,3.37-.72,17.15-.64,17.79-.16s.56,52.64-.16,55.69C187.22,137.73,169.91,137,169.83,136.37Z"/><path class="cls-3" d="M236.34,136.37c.88.48-31.25.48-39.83-.16-.4-5.69.16-44.47.72-56,9.06-.56,39.59-.64,39.83-.16.56,1.84.64,11.54.08,15-3,.32-16.43.24-23.32,0l.16,5.37c8.09-.08,16.59.16,17.07.64.88.88.16,13.78.16,14.18s-8.82.48-17.31.24v6.09c7.21-.24,19.71-.24,22.52,0C237,125,236.9,134.52,236.34,136.37Z"/><path class="cls-3" d="M243.7,136.37c-.4-4.81,0-48.56.8-55.85,5.37-.48,14.11-.8,20-.8C280.72,79.72,290,86,290,99.51c0,8-3.29,12.82-9.14,15.54,5.77,7.29,11.3,16.35,11.06,16.67-1,1.28-12.42,6.09-15.38,5.93-.24,0-6.73-11-13.06-19.63h-2.41c-.08,7.37-.16,15.94-.48,18C259.73,136.37,243.78,137,243.7,136.37ZM266,104.72c3.93,0,6.41-1.37,6.41-4.73,0-3-1.36-5-7.05-5a20.53,20.53,0,0,0-3,.16c.08,2.89,0,6.49-.08,9.38C263.17,104.64,264.86,104.72,266,104.72Z"/><path class="cls-3" d="M351,109.2c0,14.27-9.13,28.45-28.52,28.45-17.39,0-28.69-11.46-28.69-30.21C293.78,93,303.39,79,322.23,79,339.45,79,351,90.45,351,109.2ZM322.39,95c-6.33,0-10.26,5-10.26,13.38,0,7.61,4.09,13,9.93,13,6.58,0,10-4.88,10-13.38C332.08,98.55,327.75,95,322.39,95Z"/><path class="cls-3" d="M163.82,185c6.25,0,9.94-3.21,11.62-4.41,2.17,1.44,6.57,9.62,8.18,12.9-3.77,4.49-12.1,8.18-21.72,8.18-19.63,0-28.6-13.55-28.6-30.29,0-16.43,12-28.53,31-28.53,9.77,0,16.74,2.81,19.15,5.37-.08,1.92-4.09,12.74-6.57,14.82-2.89-1.6-7.78-3.68-12.26-3.68A12.36,12.36,0,0,0,152,172.11C152,182.61,159.1,185,163.82,185Z"/><path class="cls-3" d="M206.53,144.06c.64.48.56,52.65-.16,55.69-.4,1.69-17.63,1-17.71.32-.4-4.8-.64-48.55.16-55.85C192.19,143.5,205.89,143.58,206.53,144.06Z"/><path class="cls-3" d="M212.14,144.38c.4-.64,41.18-1.6,43.83-.88,1.36.24,1.12,15,.56,15.07-1.45.24-6.81.48-13.3.72.08,16.26.24,39.5-.16,40.06s-17.31,1-17.39.4c-.32-3.28-.48-25.16-.32-40.62-5.93.08-10.82,0-12.82-.24C211.9,155.68,211.73,144.94,212.14,144.38Z"/><path class="cls-3" d="M280.16,144.06c.64.48.56,52.65-.16,55.69-.4,1.69-17.63,1-17.71.32-.4-4.8-.64-48.55.16-55.85C265.82,143.5,279.52,143.58,280.16,144.06Z"/><path class="cls-3" d="M310.29,184.53c2.4-.08,17.3-.16,18.43.32.4.16.24,14.34-.24,14.74-.65.48-40.39.72-40.55.24-.8-2.64-.88-14.1-.8-14.42s16.18-22.68,18.67-26l.08-.4c-2.08,0-17.71.08-18,0s-1.44-14.91-.48-15.23,39.82-.48,40.14-.4,1.69,13.86,1.37,15c-.08.32-16.19,23.07-18.59,25.8Z"/><path class="cls-3" d="M375.19,200.07c.88.48-31.25.48-39.83-.16-.4-5.69.16-44.47.72-56,9.06-.56,39.59-.64,39.83-.16.56,1.85.64,11.54.08,15-3,.32-16.43.24-23.32,0l.16,5.37c8.09-.08,16.59.16,17.07.64.88.88.16,13.78.16,14.18s-8.82.48-17.31.24v6.09c7.21-.24,19.71-.24,22.52,0C375.83,188.7,375.75,198.23,375.19,200.07Z"/><path class="cls-3" d="M416.53,200.15c-1.68-2.08-9.3-15.46-16.75-27,0,10.42.56,21.39.32,26.12-3.36.72-17.23.8-17.31,0-.48-3.28-.72-50.4,0-54.73.25-1.68,16.11-1.68,16.43-1.12,1.12,1.76,10.9,17.23,17.15,29.41.08-11.78-.4-25.08,0-28.53,3.36-.72,16.59-.48,17.23,0s.08,51.53-.64,54.57C432.56,200.55,417.65,200.79,416.53,200.15Z"/><path class="cls-3" d="M444.84,146.82v8.71h-2.7v-8.71h-3.06v-2.1h8.76v2.1Zm14.35,8.71V147.9h0l-2.76,7.63h-1.78l-2.82-7.63h-.06v7.63h-2.46V144.72h3.54l2.67,7.09,2.71-7.09h3.54v10.81Z"/><path class="cls-4" d="M451.26,183.1a2.46,2.46,0,0,1,2.65,2.05c0,1.4-1.71,2.5-1.71,5.69,0,3.9,3,5.57,7.21,5.57,5,0,8.56-1.78,8.56-8.3,0-9.1-1.47-14.41-1.47-18.65,0-2.28.3-3.87,2.65-3.87,2.16,0,2.35,1.67,2.35,3,0,5.58-.42,11.75-.42,17.71,0,7.46-1.36,13.64-11.45,13.64-7.69,0-11.25-4.58-11.25-10.5C448.38,186.59,448.72,183.1,451.26,183.1Z"/><path class="cls-4" d="M475.6,189.06c.11-1.75.53-7.24.53-12.7,0-1.82-.38-7.89-.38-8.5a1.91,1.91,0,0,1,2.12-2c1.33,0,2,.57,2,1.67s-.64,8-.76,12.32a11.34,11.34,0,0,1,10.2-5.43c6.18,0,9.1,4.4,9.1,8.65,0,5-2.54,9.93-17.4,9.93a49.24,49.24,0,0,1-9.4-1.44c-2-.61-3.53-.91-3.53-2.5a1.17,1.17,0,0,1,1.33-1.33,8.57,8.57,0,0,1,2.2.38A18.64,18.64,0,0,0,475.6,189.06Zm10.35.3c4.92,0,8.26-2,8.26-5.19,0-2.66-2.12-5.24-6.37-5.24-5,0-8.68,3.76-8.68,7.24C479.16,188.75,481.51,189.36,486,189.36Z"/><path class="cls-4" d="M501.45,173.25c-.34,0-.83-.15-.83-1.1,0-1.33,5.31-2.43,7-3a2.08,2.08,0,0,1,.57-.11c.31,0,.95.26.95,1.29,0,1.4-2.61,1.51-3.94,1.82s-2.16.6-3.38,1C501.68,173.21,501.6,173.25,501.45,173.25Z"/><path class="cls-4" d="M497,188.07c.87.49,2.2,1.14,5.46,1.14s3.67-2,3.67-3.19c0-4-1.25-4.51-1.25-6,0-.53.23-1.48,1.86-1.48,2.58,0,2.81,4.1,2.81,6.83,0,5-2,7.09-7,7.09a20.31,20.31,0,0,1-5.53-1c-.87-.27-1.67-.53-2.39-.83s-1.14-.53-1.14-.69c0-.56,1.37-2.16,2.12-2.16A3.82,3.82,0,0,1,497,188.07Zm9.32,9a2.15,2.15,0,0,1,2.13,2.23,2,2,0,0,1-2.2,2.2c-1.25,0-2.2-.49-2.2-1.89S504.64,197,506.34,197Z"/><path class="cls-4" d="M509.22,188.07a14.18,14.18,0,0,0,5.31,1.14c3,0,4.29-.68,4.29-7.05,0-7-.8-13.23-.8-14.14,0-1.07.34-2.43,2.16-2.43s2.31,1.55,2.31,2.88-.38,11.9-.38,15.35c0,5.58-1.06,8.53-6.67,8.53a26.49,26.49,0,0,1-3.14-.19,21.76,21.76,0,0,1-3.08-.64,12.91,12.91,0,0,1-3.37-1.33.46.46,0,0,1-.15-.34,3.07,3.07,0,0,1,.83-1.14C507.37,188,507.48,187.46,509.22,188.07Z"/><path class="cls-4" d="M526.32,189.55c0-.68.69-5.84.69-12.4,0-1.82-.5-8.38-.5-9.13,0-1.25.31-2.24,1.82-2.24,1.9,0,1.9,1,1.9,2.05,0,.68-.34,6.59-.34,10.84,0,5.53.56,11.18.56,11.86,0,.91-.22,1.82-2,1.82S526.32,191.18,526.32,189.55Z"/><path class="cls-4" d="M539.25,183.1a2.45,2.45,0,0,1,2.65,2.05c0,1.44-1.7,2.47-1.7,5.54,0,4.05,3,5.72,7.2,5.72,5,0,7.73-2.46,7.73-5.8,0-3.71-1.93-4.74-1.93-7.05a2.21,2.21,0,0,1,2.47-2.35c3,0,3.33,2.8,3.33,7.47S557.07,200,547.25,200c-7.54,0-10.88-4.58-10.88-10.5C536.37,186.59,536.71,183.1,539.25,183.1Zm8.64-11.1c2,0,2.28,1.06,2.28,2.31a2,2,0,0,1-2.28,2.24,2,2,0,0,1-2.27-2.24A2.09,2.09,0,0,1,547.89,172Z"/><path class="cls-4" d="M563,189.06c.12-1.75.53-7.24.53-12.7,0-1.82-.38-7.89-.38-8.5a1.91,1.91,0,0,1,2.13-2c1.32,0,2,.57,2,1.67s-.65,8-.76,12.32a11.33,11.33,0,0,1,10.2-5.43c6.18,0,9.09,4.4,9.09,8.65,0,5-2.54,9.93-17.4,9.93a49.35,49.35,0,0,1-9.4-1.44c-2-.61-3.52-.91-3.52-2.5a1.16,1.16,0,0,1,1.32-1.33,8.41,8.41,0,0,1,2.2.38A18.93,18.93,0,0,0,563,189.06Zm10.35.3c4.93,0,8.27-2,8.27-5.19,0-2.66-2.13-5.24-6.37-5.24-5,0-8.68,3.76-8.68,7.24C566.55,188.75,568.9,189.36,573.33,189.36Z"/><path class="cls-4" d="M589.64,189.55c0-.68.68-5.84.68-12.4,0-1.82-.49-8.38-.49-9.13,0-1.25.3-2.24,1.82-2.24,1.89,0,1.89,1,1.89,2.05,0,.68-.34,6.59-.34,10.84,0,5.53.57,11.18.57,11.86,0,.91-.23,1.82-2,1.82S589.64,191.18,589.64,189.55Z"/><path class="cls-4" d="M600.48,197.06c5,0,8.91-1.9,8.91-4.78,0-.49-.19-.95-.53-.95-.61,0-1.41.95-3.79.95-4.74,0-7.17-3.07-7.17-6.94,0-5.19,3.45-8.42,7.58-8.42,3.95,0,7.66,2.36,7.66,11.64,0,8.38-5,12.85-12.28,12.85-2.54,0-3.26-.83-3.26-2.16C597.6,197.4,599.15,197.06,600.48,197.06Zm5-8c2.24,0,3.91-1.33,3.91-4.48,0-3-1.82-4.74-3.95-4.74-2.61,0-4.28,2.09-4.28,4.93C601.16,187.08,602.3,189.06,605.48,189.06Z"/><path class="cls-4" d="M623.83,168.28a2.85,2.85,0,0,1,2.85-2.88,2.66,2.66,0,0,1,2.84,2.77c0,2.88-3.49,4.28-5.88,4.28s-3.86-.42-3.86-1.51a1,1,0,0,1,1-1.07c1,0,2.16.76,3.18.76a1.58,1.58,0,0,0,1-.26A2.54,2.54,0,0,1,623.83,168.28Zm2.85,1.25a1.2,1.2,0,0,0,1.17-1.25,1.14,1.14,0,0,0-1.17-1.17,1.16,1.16,0,0,0-1.18,1.25A1.2,1.2,0,0,0,626.68,169.53Z"/><path class="cls-4" d="M613.14,188.07a8,8,0,0,0,3.38.68c1.63,0,3.52-1.17,4.24-4.05,1.21-5.35,4.48-8,8.53-8,4.85,0,8.08,3.34,8.08,8.3,0,5.8-4,8.11-7.85,8.11-4.78,0-6.14-2.38-7.36-2.38-.6,0-1.13.45-1.93,1.06a3.89,3.89,0,0,1-1,.49,3.71,3.71,0,0,1-1.41.23,26.92,26.92,0,0,1-4.7-.95,11.55,11.55,0,0,1-3.33-1.78.58.58,0,0,1-.19-.34c0-.12.19-.34.53-.61.72-.57,1.17-.95,1.59-.95A2.25,2.25,0,0,1,613.14,188.07Zm16,1.29a4.06,4.06,0,0,0,4.25-4.25,4.51,4.51,0,0,0-4.59-4.62,4.6,4.6,0,0,0-4.55,4.66C624.25,187.77,626.3,189.36,629.14,189.36Z"/><path class="cls-4" d="M636.87,188.07a14.18,14.18,0,0,0,5.31,1.14c3,0,4.29-.68,4.29-7.05,0-7-.8-13.23-.8-14.14,0-1.07.34-2.43,2.16-2.43s2.31,1.55,2.31,2.88-.38,11.9-.38,15.35c0,5.58-1.06,8.53-6.67,8.53a26.49,26.49,0,0,1-3.14-.19,21.76,21.76,0,0,1-3.08-.64,12.91,12.91,0,0,1-3.37-1.33.46.46,0,0,1-.15-.34,3.07,3.07,0,0,1,.83-1.14C635,188,635.13,187.46,636.87,188.07Z"/><path class="cls-4" d="M654,189.55c0-.68.69-5.84.69-12.4,0-1.82-.5-8.38-.5-9.13,0-1.25.31-2.24,1.82-2.24,1.9,0,1.9,1,1.9,2.05,0,.68-.34,6.59-.34,10.84,0,5.53.57,11.18.57,11.86,0,.91-.23,1.82-2.05,1.82S654,191.18,654,189.55Z"/><path class="cls-3" d="M228.61,208.08v8.74h5.22v2h-7.58V208.08Z"/><path class="cls-3" d="M237.21,216.94a1.9,1.9,0,0,0,1.38.46,1.93,1.93,0,0,0,1.11-.32,1.35,1.35,0,0,0,.57-.68h1.88a3.55,3.55,0,0,1-1.38,2,4.06,4.06,0,0,1-2.25.6,4.38,4.38,0,0,1-1.66-.29,3.47,3.47,0,0,1-1.24-.83,3.63,3.63,0,0,1-.79-1.3,4.61,4.61,0,0,1-.28-1.65,4.52,4.52,0,0,1,.29-1.62,3.86,3.86,0,0,1,.81-1.3,3.93,3.93,0,0,1,1.25-.86,4.07,4.07,0,0,1,1.62-.32,3.61,3.61,0,0,1,1.72.39,3.36,3.36,0,0,1,1.21,1,4.13,4.13,0,0,1,.68,1.47,5.44,5.44,0,0,1,.15,1.72h-5.6A2.18,2.18,0,0,0,237.21,216.94Zm2.41-4.09a1.5,1.5,0,0,0-1.16-.42,1.92,1.92,0,0,0-.85.17,1.62,1.62,0,0,0-.83,1,2.85,2.85,0,0,0-.1.51h3.47A2.51,2.51,0,0,0,239.62,212.85Z"/><path class="cls-3" d="M247.81,211v1.43h-1.56v3.85a.72.72,0,0,0,.9.9l.34,0,.32,0v1.65a5.07,5.07,0,0,1-.6.06h-.65a6.81,6.81,0,0,1-.93-.06,2.38,2.38,0,0,1-.79-.27,1.4,1.4,0,0,1-.53-.55,2,2,0,0,1-.19-1v-4.58h-1.29V211h1.29v-2.32h2.13V211Z"/><path class="cls-3" d="M253.05,213.23a3.72,3.72,0,0,1,.81-1.29,3.62,3.62,0,0,1,1.26-.82,4.33,4.33,0,0,1,1.65-.3,4.38,4.38,0,0,1,1.66.3,3.57,3.57,0,0,1,1.27.82,3.72,3.72,0,0,1,.81,1.29,5.07,5.07,0,0,1,0,3.38,3.68,3.68,0,0,1-.81,1.28,3.57,3.57,0,0,1-1.27.82,4.59,4.59,0,0,1-1.66.28,4.53,4.53,0,0,1-1.65-.28,3.62,3.62,0,0,1-1.26-.82,3.68,3.68,0,0,1-.81-1.28,5.07,5.07,0,0,1,0-3.38Zm1.94,2.6a2.55,2.55,0,0,0,.3.8,1.73,1.73,0,0,0,.58.56,1.76,1.76,0,0,0,.9.21,1.8,1.8,0,0,0,.91-.21,1.67,1.67,0,0,0,.59-.56,2.57,2.57,0,0,0,.31-.8,4.53,4.53,0,0,0,.09-.91,4.6,4.6,0,0,0-.09-.91,2.47,2.47,0,0,0-.31-.8,1.67,1.67,0,0,0-.59-.56,1.7,1.7,0,0,0-.91-.22,1.67,1.67,0,0,0-.9.22,1.73,1.73,0,0,0-.58.56,2.46,2.46,0,0,0-.3.8,4.6,4.6,0,0,0-.09.91A4.53,4.53,0,0,0,255,215.83Z"/><path class="cls-3" d="M266.44,211v1.43h-1.56v3.85a.72.72,0,0,0,.9.9l.35,0,.31,0v1.65a5.07,5.07,0,0,1-.6.06h-.64a7,7,0,0,1-.94-.06,2.25,2.25,0,0,1-.78-.27A1.34,1.34,0,0,1,263,218a1.89,1.89,0,0,1-.2-1v-4.58h-1.29V211h1.29v-2.32h2.13V211Z"/><path class="cls-3" d="M269.6,208.08v4h0a2.53,2.53,0,0,1,1-1,2.87,2.87,0,0,1,1.23-.31,3.49,3.49,0,0,1,1.4.24,2.06,2.06,0,0,1,.87.64,2.59,2.59,0,0,1,.44,1,6.53,6.53,0,0,1,.13,1.31v4.78h-2.14v-4.39a2.7,2.7,0,0,0-.3-1.43,1.14,1.14,0,0,0-1.06-.47A1.49,1.49,0,0,0,270,213a2.91,2.91,0,0,0-.39,1.71v4.07h-2.14V208.08Z"/><path class="cls-3" d="M278.65,216.94a1.9,1.9,0,0,0,1.38.46,1.93,1.93,0,0,0,1.11-.32,1.35,1.35,0,0,0,.57-.68h1.88a3.55,3.55,0,0,1-1.38,2,4.06,4.06,0,0,1-2.25.6,4.42,4.42,0,0,1-1.66-.29,3.47,3.47,0,0,1-1.24-.83,3.78,3.78,0,0,1-.79-1.3,4.61,4.61,0,0,1-.28-1.65,4.52,4.52,0,0,1,.29-1.62,3.86,3.86,0,0,1,.81-1.3,3.93,3.93,0,0,1,1.25-.86,4.07,4.07,0,0,1,1.62-.32,3.61,3.61,0,0,1,1.72.39,3.36,3.36,0,0,1,1.21,1,4.33,4.33,0,0,1,.69,1.47,5.44,5.44,0,0,1,.14,1.72h-5.6A2.18,2.18,0,0,0,278.65,216.94Zm2.41-4.09a1.5,1.5,0,0,0-1.16-.42,1.92,1.92,0,0,0-.85.17,1.62,1.62,0,0,0-.83,1,2.85,2.85,0,0,0-.1.51h3.47A2.42,2.42,0,0,0,281.06,212.85Z"/><path class="cls-3" d="M287,211v1.45h0a2.57,2.57,0,0,1,.41-.67,2.65,2.65,0,0,1,.58-.53,3.57,3.57,0,0,1,.71-.34,2.54,2.54,0,0,1,.78-.12,1.71,1.71,0,0,1,.47.08v2l-.36,0a2.88,2.88,0,0,0-.41,0,2.27,2.27,0,0,0-1,.19,1.71,1.71,0,0,0-.65.53,2.11,2.11,0,0,0-.36.79,4.34,4.34,0,0,0-.1,1v3.5H285V211Z"/><path class="cls-3" d="M292.62,216.87a1.29,1.29,0,0,0,.37.4,1.46,1.46,0,0,0,.52.24,2.43,2.43,0,0,0,.61.07,2.69,2.69,0,0,0,.47-.05,1.74,1.74,0,0,0,.45-.17,1,1,0,0,0,.34-.3.77.77,0,0,0,.13-.47c0-.32-.21-.56-.64-.72a12.22,12.22,0,0,0-1.78-.48,8.5,8.5,0,0,1-.9-.25,3,3,0,0,1-.79-.37,1.86,1.86,0,0,1-.56-.59,1.66,1.66,0,0,1-.21-.86,2.38,2.38,0,0,1,.29-1.23,2.18,2.18,0,0,1,.78-.76,3.16,3.16,0,0,1,1.08-.39,6.26,6.26,0,0,1,1.23-.12,6.08,6.08,0,0,1,1.22.12,3.44,3.44,0,0,1,1.06.41,2.46,2.46,0,0,1,.78.76,2.57,2.57,0,0,1,.36,1.19h-2a.93.93,0,0,0-.47-.83,2.07,2.07,0,0,0-1-.22l-.39,0a1.41,1.41,0,0,0-.38.1.73.73,0,0,0-.3.22.56.56,0,0,0-.12.38.59.59,0,0,0,.21.47,1.78,1.78,0,0,0,.55.29,6.3,6.3,0,0,0,.78.2l.88.2a9.41,9.41,0,0,1,.91.25,3.08,3.08,0,0,1,.79.4,1.92,1.92,0,0,1,.55.62,1.78,1.78,0,0,1,.21.91,2.53,2.53,0,0,1-.3,1.28,2.57,2.57,0,0,1-.81.83,3.21,3.21,0,0,1-1.13.44,6.3,6.3,0,0,1-1.3.13,6.42,6.42,0,0,1-1.32-.13,3.54,3.54,0,0,1-1.15-.45,2.66,2.66,0,0,1-.83-.84,2.61,2.61,0,0,1-.35-1.29h2A1.22,1.22,0,0,0,292.62,216.87Z"/><path class="cls-3" d="M305.39,208.08v5.75l2.69-2.8h2.52l-2.93,2.86,3.26,4.91h-2.58l-2.13-3.47-.83.79v2.68h-2.13V208.08Z"/><path class="cls-3" d="M313.71,211v1.09h0a2.57,2.57,0,0,1,1.06-1,3.11,3.11,0,0,1,1.32-.31,3.49,3.49,0,0,1,1.4.24,2,2,0,0,1,.86.64,2.6,2.6,0,0,1,.45,1A6.53,6.53,0,0,1,319,214v4.78h-2.14v-4.39a2.7,2.7,0,0,0-.3-1.43,1.14,1.14,0,0,0-1.06-.47,1.49,1.49,0,0,0-1.26.51,2.83,2.83,0,0,0-.4,1.71v4.07h-2.13V211Z"/><path class="cls-3" d="M320.63,213.23a3.72,3.72,0,0,1,.81-1.29,3.62,3.62,0,0,1,1.26-.82,4.72,4.72,0,0,1,3.31,0,3.57,3.57,0,0,1,1.27.82,3.72,3.72,0,0,1,.81,1.29,5.07,5.07,0,0,1,0,3.38,3.68,3.68,0,0,1-.81,1.28,3.57,3.57,0,0,1-1.27.82,5,5,0,0,1-3.31,0,3.62,3.62,0,0,1-1.26-.82,3.68,3.68,0,0,1-.81-1.28,5.24,5.24,0,0,1,0-3.38Zm1.94,2.6a2.34,2.34,0,0,0,.31.8,1.61,1.61,0,0,0,.57.56,2.06,2.06,0,0,0,1.81,0,1.67,1.67,0,0,0,.59-.56,2.57,2.57,0,0,0,.31-.8,4.53,4.53,0,0,0,.09-.91,4.6,4.6,0,0,0-.09-.91,2.47,2.47,0,0,0-.31-.8,1.87,1.87,0,0,0-2.4-.56,1.61,1.61,0,0,0-.57.56,2.27,2.27,0,0,0-.31.8,4.6,4.6,0,0,0-.09.91A4.53,4.53,0,0,0,322.57,215.83Z"/><path class="cls-3" d="M336.44,218.8l-1.38-5.21h0l-1.32,5.21H331.5L329,211h2.25l1.43,5.28h0L334,211h2.07l1.32,5.26h0l1.43-5.26h2.19l-2.45,7.77Z"/><path class="cls-3" d="M352.84,218.8l-1.38-5.21h0l-1.32,5.21H347.9L345.44,211h2.25l1.42,5.28h0l1.3-5.28h2.07l1.32,5.26h0l1.43-5.26h2.19L355,218.8Z"/><path class="cls-3" d="M360.51,208.08v4h.05a2.51,2.51,0,0,1,1-1,2.87,2.87,0,0,1,1.23-.31,3.57,3.57,0,0,1,1.41.24,2.09,2.09,0,0,1,.86.64,2.45,2.45,0,0,1,.44,1,5.87,5.87,0,0,1,.13,1.31v4.78h-2.13v-4.39a2.7,2.7,0,0,0-.3-1.43,1.16,1.16,0,0,0-1.07-.47,1.49,1.49,0,0,0-1.26.51,2.91,2.91,0,0,0-.39,1.71v4.07h-2.13V208.08Z"/><path class="cls-3" d="M367.33,213.23a3.72,3.72,0,0,1,.81-1.29,3.62,3.62,0,0,1,1.26-.82,4.33,4.33,0,0,1,1.65-.3,4.38,4.38,0,0,1,1.66.3,3.57,3.57,0,0,1,1.27.82,3.72,3.72,0,0,1,.81,1.29,5.07,5.07,0,0,1,0,3.38,3.68,3.68,0,0,1-.81,1.28,3.57,3.57,0,0,1-1.27.82,4.59,4.59,0,0,1-1.66.28,4.53,4.53,0,0,1-1.65-.28,3.62,3.62,0,0,1-1.26-.82,3.68,3.68,0,0,1-.81-1.28,5.07,5.07,0,0,1,0-3.38Zm1.93,2.6a2.84,2.84,0,0,0,.31.8,1.73,1.73,0,0,0,.58.56,1.76,1.76,0,0,0,.9.21,1.83,1.83,0,0,0,.91-.21,1.67,1.67,0,0,0,.59-.56,2.55,2.55,0,0,0,.3-.8,4.53,4.53,0,0,0,.09-.91,4.6,4.6,0,0,0-.09-.91,2.46,2.46,0,0,0-.3-.8,1.67,1.67,0,0,0-.59-.56,1.73,1.73,0,0,0-.91-.22,1.67,1.67,0,0,0-.9.22,1.73,1.73,0,0,0-.58.56,2.72,2.72,0,0,0-.31.8,4.6,4.6,0,0,0-.09.91A4.53,4.53,0,0,0,369.26,215.83Z"/><path class="cls-3" d="M383.5,221.11a3.09,3.09,0,0,1-1.71.41l-.66,0-.65-.05v-1.76l.62.06a4.42,4.42,0,0,0,.63,0,.81.81,0,0,0,.62-.33,1,1,0,0,0,.2-.63,1.28,1.28,0,0,0-.09-.48L379.74,211H382l1.76,5.32h0l1.7-5.32h2.2l-3.24,8.73A2.62,2.62,0,0,1,383.5,221.11Z"/><path class="cls-3" d="M388.47,213.23a3.72,3.72,0,0,1,.81-1.29,3.62,3.62,0,0,1,1.26-.82,4.33,4.33,0,0,1,1.65-.3,4.38,4.38,0,0,1,1.66.3,3.57,3.57,0,0,1,1.27.82,3.72,3.72,0,0,1,.81,1.29,5.07,5.07,0,0,1,0,3.38,3.68,3.68,0,0,1-.81,1.28,3.57,3.57,0,0,1-1.27.82,4.59,4.59,0,0,1-1.66.28,4.53,4.53,0,0,1-1.65-.28,3.62,3.62,0,0,1-1.26-.82,3.68,3.68,0,0,1-.81-1.28,5.07,5.07,0,0,1,0-3.38Zm1.94,2.6a2.55,2.55,0,0,0,.3.8,1.73,1.73,0,0,0,.58.56,1.76,1.76,0,0,0,.9.21,1.8,1.8,0,0,0,.91-.21,1.67,1.67,0,0,0,.59-.56,2.55,2.55,0,0,0,.3-.8,4.53,4.53,0,0,0,.09-.91A4.6,4.6,0,0,0,394,214a2.46,2.46,0,0,0-.3-.8,1.67,1.67,0,0,0-.59-.56,1.7,1.7,0,0,0-.91-.22,1.67,1.67,0,0,0-.9.22,1.73,1.73,0,0,0-.58.56,2.46,2.46,0,0,0-.3.8,4.6,4.6,0,0,0-.09.91A4.53,4.53,0,0,0,390.41,215.83Z"/><path class="cls-3" d="M402.85,218.8v-1.08h0a2.38,2.38,0,0,1-1.05,1,3.1,3.1,0,0,1-1.32.3,3.79,3.79,0,0,1-1.41-.22,2.09,2.09,0,0,1-.86-.64,2.45,2.45,0,0,1-.44-1,5.87,5.87,0,0,1-.13-1.31V211h2.13v4.39a2.7,2.7,0,0,0,.3,1.43,1.16,1.16,0,0,0,1.07.48,1.49,1.49,0,0,0,1.26-.52,2.89,2.89,0,0,0,.39-1.71V211h2.13v7.77Z"/><path class="cls-3" d="M410.59,213.42a2.45,2.45,0,0,1,.37-1.24,2.57,2.57,0,0,1,.84-.8A3.86,3.86,0,0,1,413,211a7,7,0,0,1,1.28-.13,8,8,0,0,1,1.19.09,3.52,3.52,0,0,1,1.1.32,2.12,2.12,0,0,1,.81.67,1.85,1.85,0,0,1,.31,1.13v4a8.19,8.19,0,0,0,.06,1,1.82,1.82,0,0,0,.21.72h-2.16c0-.12-.07-.24-.1-.37s0-.25,0-.38a2.77,2.77,0,0,1-1.2.73A4.82,4.82,0,0,1,413,219a3.85,3.85,0,0,1-1-.13,2.37,2.37,0,0,1-.84-.42,1.9,1.9,0,0,1-.56-.72,2.38,2.38,0,0,1-.2-1,2.23,2.23,0,0,1,.23-1.09,1.88,1.88,0,0,1,.6-.68,2.48,2.48,0,0,1,.84-.38,8.09,8.09,0,0,1,1-.21l.95-.12a5.65,5.65,0,0,0,.82-.13,1.49,1.49,0,0,0,.58-.26.59.59,0,0,0,.19-.51,1.22,1.22,0,0,0-.11-.55.89.89,0,0,0-.3-.31,1,1,0,0,0-.44-.15,2.93,2.93,0,0,0-.53,0,1.62,1.62,0,0,0-1,.27,1.21,1.21,0,0,0-.42.9Zm4.92,1.58a1,1,0,0,1-.34.19l-.43.11-.49.07-.51.08a3.59,3.59,0,0,0-.47.12,1.56,1.56,0,0,0-.41.2.91.91,0,0,0-.38.82,1,1,0,0,0,.1.48.86.86,0,0,0,.29.31,1.31,1.31,0,0,0,.42.16,2.63,2.63,0,0,0,.49,0,1.9,1.9,0,0,0,1-.21,1.44,1.44,0,0,0,.51-.5,1.53,1.53,0,0,0,.2-.59,3.5,3.5,0,0,0,0-.49Z"/><path class="cls-3" d="M421.32,211v1.45h0a2.57,2.57,0,0,1,.41-.67,2.65,2.65,0,0,1,.58-.53,3.57,3.57,0,0,1,.71-.34,2.54,2.54,0,0,1,.78-.12,1.65,1.65,0,0,1,.46.08v2l-.36,0a2.75,2.75,0,0,0-.4,0,2.27,2.27,0,0,0-1,.19,1.82,1.82,0,0,0-.66.53,2.27,2.27,0,0,0-.35.79,4.34,4.34,0,0,0-.1,1v3.5h-2.14V211Z"/><path class="cls-3" d="M427.15,216.94a1.9,1.9,0,0,0,1.38.46,1.93,1.93,0,0,0,1.11-.32,1.35,1.35,0,0,0,.57-.68h1.88a3.55,3.55,0,0,1-1.38,2,4.12,4.12,0,0,1-2.26.6,4.33,4.33,0,0,1-1.65-.29,3.47,3.47,0,0,1-1.24-.83,3.63,3.63,0,0,1-.79-1.3,4.61,4.61,0,0,1-.28-1.65,4.52,4.52,0,0,1,.28-1.62,3.89,3.89,0,0,1,.82-1.3,3.82,3.82,0,0,1,1.25-.86,4,4,0,0,1,1.61-.32,3.65,3.65,0,0,1,1.73.39,3.45,3.45,0,0,1,1.21,1,4.31,4.31,0,0,1,.68,1.47,5.44,5.44,0,0,1,.15,1.72h-5.6A2.18,2.18,0,0,0,427.15,216.94Zm2.41-4.09a1.52,1.52,0,0,0-1.17-.42,1.87,1.87,0,0,0-.84.17,1.73,1.73,0,0,0-.55.43,1.55,1.55,0,0,0-.28.54,2.17,2.17,0,0,0-.1.51h3.47A2.51,2.51,0,0,0,429.56,212.85Z"/></g></g></svg>