<svg xmlns="http://www.w3.org/2000/svg" xmlns:xlink="http://www.w3.org/1999/xlink" viewBox="0 0 1212.37 262.13"><defs><style>.cls-1{mask:url(#mask);filter:url(#luminosity-noclip-5);}.cls-14,.cls-16,.cls-19,.cls-2,.cls-20,.cls-26,.cls-28,.cls-30,.cls-31,.cls-33,.cls-4,.cls-44,.cls-45,.cls-47,.cls-48,.cls-49,.cls-50,.cls-52,.cls-53,.cls-54,.cls-55,.cls-56,.cls-57,.cls-58,.cls-59,.cls-6,.cls-60,.cls-64,.cls-67,.cls-72,.cls-74,.cls-75,.cls-76,.cls-8,.cls-80,.cls-82,.cls-83,.cls-87,.cls-88,.cls-92,.cls-93,.cls-95,.cls-96,.cls-99{mix-blend-mode:multiply;}.cls-2{fill:url(#linear-gradient);}.cls-3{mask:url(#mask-2);filter:url(#luminosity-noclip-6);}.cls-4{fill:url(#linear-gradient-2);}.cls-5{mask:url(#mask-3);filter:url(#luminosity-noclip-7);}.cls-6{fill:url(#linear-gradient-3);}.cls-7{mask:url(#mask-4);filter:url(#luminosity-noclip-8);}.cls-8{fill:url(#linear-gradient-4);}.cls-9{isolation:isolate;}.cls-10{fill:#d91c5c;}.cls-11{fill:#fff;}.cls-12{fill:url(#linear-gradient-5);}.cls-13{fill:#c91d57;}.cls-14,.cls-68{fill:#414042;}.cls-14{opacity:0.33;}.cls-15{fill:url(#linear-gradient-6);}.cls-16{fill:#a69c8f;opacity:0.51;}.cls-17{fill:#a69580;opacity:0.58;}.cls-18{mask:url(#mask-5);}.cls-19,.cls-26,.cls-28,.cls-30{opacity:0.53;}.cls-19{fill:url(#linear-gradient-7);}.cls-20,.cls-31,.cls-33,.cls-44,.cls-45,.cls-47,.cls-48,.cls-49,.cls-50,.cls-52,.cls-53,.cls-54,.cls-55,.cls-56,.cls-57,.cls-58,.cls-59,.cls-60,.cls-64,.cls-67,.cls-72,.cls-74,.cls-75,.cls-76,.cls-80,.cls-82,.cls-83,.cls-87,.cls-88,.cls-92,.cls-93,.cls-95,.cls-96,.cls-99{opacity:0.25;}.cls-20{fill:url(#linear-gradient-8);}.cls-21{fill:#f1f2f2;}.cls-22{fill:#fcb23b;}.cls-23{fill:#ec8435;}.cls-24{fill:#fcd088;}.cls-25{mask:url(#mask-6);}.cls-26{fill:url(#linear-gradient-9);}.cls-27{mask:url(#mask-7);}.cls-28{fill:url(#linear-gradient-10);}.cls-29{mask:url(#mask-8);}.cls-30{fill:url(#linear-gradient-11);}.cls-31{fill:url(#linear-gradient-12);}.cls-32{fill:#b0b87b;}.cls-33{fill:url(#linear-gradient-13);}.cls-34{fill:#dcb798;}.cls-35{fill:#2c2f42;}.cls-36{fill:#fffce1;}.cls-37{fill:#f79f6f;}.cls-38{fill:#e8e5d0;}.cls-39{fill:#f3743e;}.cls-40{fill:#df5427;}.cls-41{fill:#223549;}.cls-42{fill:#34435c;}.cls-43{fill:#e8c77f;}.cls-44{fill:url(#linear-gradient-14);}.cls-45{fill:url(#linear-gradient-15);}.cls-46{fill:#fcd0ab;}.cls-47{fill:url(#linear-gradient-16);}.cls-48{fill:url(#linear-gradient-17);}.cls-49{fill:url(#linear-gradient-18);}.cls-50{fill:url(#linear-gradient-19);}.cls-51{fill:#32353d;}.cls-52{fill:url(#linear-gradient-20);}.cls-53{fill:url(#linear-gradient-21);}.cls-54{fill:url(#linear-gradient-22);}.cls-55{fill:url(#linear-gradient-23);}.cls-56{fill:url(#linear-gradient-24);}.cls-57{fill:url(#linear-gradient-25);}.cls-58{fill:url(#linear-gradient-26);}.cls-59{fill:url(#linear-gradient-27);}.cls-60{fill:url(#linear-gradient-28);}.cls-61{fill:#81c357;}.cls-62,.cls-71{fill:#e6e7e8;}.cls-63{fill:#d1d3d4;}.cls-64{fill:url(#linear-gradient-29);}.cls-65{fill:#92523f;}.cls-66{fill:#723e2e;}.cls-67{fill:url(#linear-gradient-30);}.cls-69{fill:#2b2a2c;}.cls-70{fill:#a7a9ac;}.cls-71{opacity:0.67;mix-blend-mode:soft-light;}.cls-72{fill:url(#linear-gradient-31);}.cls-73{fill:#fccca0;}.cls-74{fill:url(#linear-gradient-32);}.cls-75{fill:url(#linear-gradient-33);}.cls-76{fill:url(#linear-gradient-34);}.cls-77{fill:#ee9d53;}.cls-78{fill:#f4c749;}.cls-79{fill:#bcbec0;}.cls-80{fill:url(#linear-gradient-35);}.cls-81{fill:#dcb48e;}.cls-82{fill:url(#linear-gradient-36);}.cls-83{fill:url(#linear-gradient-37);}.cls-84{fill:#41789b;}.cls-85{fill:#273956;}.cls-86{fill:#a5d9cc;}.cls-87{fill:url(#linear-gradient-38);}.cls-88{fill:url(#linear-gradient-39);}.cls-89{fill:#b03b3f;}.cls-90{fill:#ffdd82;}.cls-91{fill:#464a62;}.cls-92{fill:url(#linear-gradient-40);}.cls-93{fill:url(#linear-gradient-41);}.cls-94{fill:#837074;}.cls-95{fill:url(#linear-gradient-42);}.cls-96{fill:url(#linear-gradient-43);}.cls-97{fill:#79686c;}.cls-98{fill:#798194;}.cls-99{fill:url(#linear-gradient-44);}.cls-100{fill:#2d8dcc;}.cls-101{fill:#8b7660;}.cls-102{fill:#796754;}.cls-103{fill:#6d5d4b;}.cls-104{fill:#f6d65e;}.cls-105{fill:#58595b;}.cls-106{opacity:0.38;}.cls-107{fill:#d0953c;}.cls-108{fill:#131418;}.cls-109{fill:#ffe08c;}.cls-110{filter:url(#luminosity-noclip-4);}.cls-111{filter:url(#luminosity-noclip-3);}.cls-112{filter:url(#luminosity-noclip-2);}.cls-113{filter:url(#luminosity-noclip);}</style><filter id="luminosity-noclip" x="585.1" y="-8037.67" width="71.28" height="32766" filterUnits="userSpaceOnUse" color-interpolation-filters="sRGB"><feFlood flood-color="#fff" result="bg"/><feBlend in="SourceGraphic" in2="bg"/></filter><mask id="mask" x="585.1" y="-8037.67" width="71.28" height="32766" maskUnits="userSpaceOnUse"><g class="cls-113"/></mask><linearGradient id="linear-gradient" x1="627.24" y1="178.99" x2="618.68" y2="160.06" gradientUnits="userSpaceOnUse"><stop offset="0"/><stop offset="1" stop-color="#fff"/></linearGradient><filter id="luminosity-noclip-2" x="767.84" y="-8037.67" width="105.55" height="32766" filterUnits="userSpaceOnUse" color-interpolation-filters="sRGB"><feFlood flood-color="#fff" result="bg"/><feBlend in="SourceGraphic" in2="bg"/></filter><mask id="mask-2" x="767.84" y="-8037.67" width="105.55" height="32766" maskUnits="userSpaceOnUse"><g class="cls-112"/></mask><linearGradient id="linear-gradient-2" x1="821.9" y1="233.17" x2="812.62" y2="187.38" xlink:href="#linear-gradient"/><filter id="luminosity-noclip-3" x="645.99" y="-8037.67" width="96.16" height="32766" filterUnits="userSpaceOnUse" color-interpolation-filters="sRGB"><feFlood flood-color="#fff" result="bg"/><feBlend in="SourceGraphic" in2="bg"/></filter><mask id="mask-3" x="645.99" y="-8037.67" width="96.16" height="32766" maskUnits="userSpaceOnUse"><g class="cls-111"/></mask><linearGradient id="linear-gradient-3" x1="697.29" y1="112.03" x2="677.6" y2="62.51" xlink:href="#linear-gradient"/><filter id="luminosity-noclip-4" x="722.65" y="-8037.67" width="40.15" height="32766" filterUnits="userSpaceOnUse" color-interpolation-filters="sRGB"><feFlood flood-color="#fff" result="bg"/><feBlend in="SourceGraphic" in2="bg"/></filter><mask id="mask-4" x="722.65" y="-8037.67" width="40.15" height="32766" maskUnits="userSpaceOnUse"><g class="cls-110"/></mask><linearGradient id="linear-gradient-4" x1="749.22" y1="197.27" x2="739.33" y2="175.39" xlink:href="#linear-gradient"/><linearGradient id="linear-gradient-5" x1="561.05" y1="131.72" x2="924.76" y2="131.72" gradientUnits="userSpaceOnUse"><stop offset="0" stop-color="#787a7d"/><stop offset="1" stop-color="#b0b2b8"/></linearGradient><linearGradient id="linear-gradient-6" x1="638.64" y1="131.72" x2="1212.37" y2="131.72" xlink:href="#linear-gradient-5"/><filter id="luminosity-noclip-5" x="585.1" y="147.27" width="71.28" height="36.31" filterUnits="userSpaceOnUse" color-interpolation-filters="sRGB"><feFlood flood-color="#fff" result="bg"/><feBlend in="SourceGraphic" in2="bg"/></filter><mask id="mask-5" x="585.1" y="147.27" width="71.28" height="36.31" maskUnits="userSpaceOnUse"><g class="cls-1"><polygon class="cls-2" points="585.1 172.21 611.81 183.58 656.38 157.03 641.2 147.27 585.1 172.21"/></g></mask><linearGradient id="linear-gradient-7" x1="627.24" y1="178.99" x2="618.68" y2="160.06" gradientUnits="userSpaceOnUse"><stop offset="0" stop-color="#71636d"/><stop offset="1" stop-color="#6c5e65"/></linearGradient><linearGradient id="linear-gradient-8" x1="629.38" y1="187.57" x2="675.61" y2="187.57" xlink:href="#linear-gradient-7"/><filter id="luminosity-noclip-6" x="767.84" y="210.89" width="105.55" height="30.3" filterUnits="userSpaceOnUse" color-interpolation-filters="sRGB"><feFlood flood-color="#fff" result="bg"/><feBlend in="SourceGraphic" in2="bg"/></filter><mask id="mask-6" x="767.84" y="210.89" width="105.55" height="30.3" maskUnits="userSpaceOnUse"><g class="cls-3"><polygon class="cls-4" points="767.84 213.74 792.02 241.19 873.4 240.03 852.84 210.89 767.84 213.74"/></g></mask><linearGradient id="linear-gradient-9" x1="821.9" y1="233.17" x2="812.62" y2="187.38" xlink:href="#linear-gradient-7"/><filter id="luminosity-noclip-7" x="645.99" y="55.31" width="96.16" height="73.81" filterUnits="userSpaceOnUse" color-interpolation-filters="sRGB"><feFlood flood-color="#fff" result="bg"/><feBlend in="SourceGraphic" in2="bg"/></filter><mask id="mask-7" x="645.99" y="55.31" width="96.16" height="73.81" maskUnits="userSpaceOnUse"><g class="cls-5"><polygon class="cls-6" points="645.99 100.74 652.59 129.12 742.14 95.33 706.91 55.31 645.99 100.74"/></g></mask><linearGradient id="linear-gradient-10" x1="697.29" y1="112.03" x2="677.6" y2="62.51" xlink:href="#linear-gradient-7"/><filter id="luminosity-noclip-8" x="722.65" y="167.08" width="40.15" height="31.76" filterUnits="userSpaceOnUse" color-interpolation-filters="sRGB"><feFlood flood-color="#fff" result="bg"/><feBlend in="SourceGraphic" in2="bg"/></filter><mask id="mask-8" x="722.65" y="167.08" width="40.15" height="31.76" maskUnits="userSpaceOnUse"><g class="cls-7"><polygon class="cls-8" points="722.65 183.38 739.64 198.84 762.8 182.41 749.98 167.08 722.65 183.38"/></g></mask><linearGradient id="linear-gradient-11" x1="749.22" y1="197.27" x2="739.33" y2="175.39" xlink:href="#linear-gradient-7"/><linearGradient id="linear-gradient-12" x1="832.7" y1="50.21" x2="927.13" y2="50.21" gradientTransform="translate(1541.79 632.18) rotate(-141.94)" xlink:href="#linear-gradient-7"/><linearGradient id="linear-gradient-13" x1="875.41" y1="47.04" x2="884.57" y2="47.04" xlink:href="#linear-gradient-7"/><linearGradient id="linear-gradient-14" x1="831.29" y1="223.26" x2="868.63" y2="223.26" xlink:href="#linear-gradient-7"/><linearGradient id="linear-gradient-15" x1="831.21" y1="223.27" x2="868.74" y2="223.27" xlink:href="#linear-gradient-7"/><linearGradient id="linear-gradient-16" x1="853.8" y1="243.2" x2="870.33" y2="243.2" xlink:href="#linear-gradient-7"/><linearGradient id="linear-gradient-17" x1="853.68" y1="243.2" x2="870.45" y2="243.2" xlink:href="#linear-gradient-7"/><linearGradient id="linear-gradient-18" x1="855.47" y1="252.16" x2="880.02" y2="252.16" xlink:href="#linear-gradient-7"/><linearGradient id="linear-gradient-19" x1="855.36" y1="252.11" x2="880.02" y2="252.11" xlink:href="#linear-gradient-7"/><linearGradient id="linear-gradient-20" x1="626.11" y1="196.54" x2="648.15" y2="196.54" xlink:href="#linear-gradient-7"/><linearGradient id="linear-gradient-21" x1="663.45" y1="191.68" x2="673.35" y2="191.68" xlink:href="#linear-gradient-7"/><linearGradient id="linear-gradient-22" x1="661.19" y1="196.97" x2="669.75" y2="196.97" xlink:href="#linear-gradient-7"/><linearGradient id="linear-gradient-23" x1="657.78" y1="200.68" x2="666.34" y2="200.68" xlink:href="#linear-gradient-7"/><linearGradient id="linear-gradient-24" x1="655.94" y1="204.61" x2="663.11" y2="204.61" xlink:href="#linear-gradient-7"/><linearGradient id="linear-gradient-25" x1="620.74" y1="217.36" x2="640.47" y2="217.36" xlink:href="#linear-gradient-7"/><linearGradient id="linear-gradient-26" x1="629.75" y1="31.57" x2="619.77" y2="-17.74" xlink:href="#linear-gradient-7"/><linearGradient id="linear-gradient-27" x1="582.99" y1="237.98" x2="637.74" y2="237.98" xlink:href="#linear-gradient-7"/><linearGradient id="linear-gradient-28" x1="583.77" y1="238.08" x2="637.15" y2="238.08" xlink:href="#linear-gradient-7"/><linearGradient id="linear-gradient-29" x1="726.15" y1="172.54" x2="743.28" y2="172.54" xlink:href="#linear-gradient-7"/><linearGradient id="linear-gradient-30" x1="733.05" y1="182.07" x2="736.37" y2="182.07" xlink:href="#linear-gradient-7"/><linearGradient id="linear-gradient-31" x1="649.65" y1="39.97" x2="637.09" y2="-22.05" xlink:href="#linear-gradient-7"/><linearGradient id="linear-gradient-32" x1="671.74" y1="36.97" x2="697.84" y2="36.97" xlink:href="#linear-gradient-7"/><linearGradient id="linear-gradient-33" x1="672.15" y1="19.66" x2="687.36" y2="19.66" xlink:href="#linear-gradient-7"/><linearGradient id="linear-gradient-34" x1="662.27" y1="10.68" x2="685.56" y2="10.68" xlink:href="#linear-gradient-7"/><linearGradient id="linear-gradient-35" x1="795.48" y1="46.65" x2="814.37" y2="46.65" xlink:href="#linear-gradient-7"/><linearGradient id="linear-gradient-36" x1="789.81" y1="44.59" x2="816.62" y2="44.59" xlink:href="#linear-gradient-7"/><linearGradient id="linear-gradient-37" x1="799.07" y1="65.48" x2="825.19" y2="65.48" xlink:href="#linear-gradient-7"/><linearGradient id="linear-gradient-38" x1="787.22" y1="27.04" x2="803.92" y2="27.04" xlink:href="#linear-gradient-7"/><linearGradient id="linear-gradient-39" x1="775.75" y1="13.6" x2="802.33" y2="13.6" xlink:href="#linear-gradient-7"/><linearGradient id="linear-gradient-40" x1="871.13" y1="44.57" x2="901.87" y2="44.57" xlink:href="#linear-gradient-7"/><linearGradient id="linear-gradient-41" x1="873.08" y1="51.68" x2="890.88" y2="51.68" xlink:href="#linear-gradient-7"/><linearGradient id="linear-gradient-42" x1="872.01" y1="65.61" x2="877.36" y2="65.61" xlink:href="#linear-gradient-7"/><linearGradient id="linear-gradient-43" x1="885.43" y1="37.76" x2="891.83" y2="37.76" xlink:href="#linear-gradient-7"/><linearGradient id="linear-gradient-44" x1="902.54" y1="19.25" x2="953.72" y2="19.25" xlink:href="#linear-gradient-7"/></defs><title>Asset 2</title><g class="cls-9"><g id="Layer_2" data-name="Layer 2"><g id="Layer_1-2" data-name="Layer 1"><rect class="cls-10" width="1211.34" height="261.34"/><path class="cls-11" d="M324.64,144.06q3.21-3.87,3.22-10.23a17.73,17.73,0,0,0-3.19-10.61q-5.31-7.22-18-7.4H273.08v69.49h31.31a48.08,48.08,0,0,0,9.82-.94,19.13,19.13,0,0,0,12.77-9,20.34,20.34,0,0,0,3.09-11.08,18.42,18.42,0,0,0-2.7-10.18,15.48,15.48,0,0,0-8-6.13A16.69,16.69,0,0,0,324.64,144.06Zm-37.7-16.17h15.11a26.32,26.32,0,0,1,8.22,1.08c2.48,1,3.73,3.18,3.73,6.41,0,2.93-.94,5-2.83,6.11a13.92,13.92,0,0,1-7.34,1.72H286.94ZM310.84,172a16.46,16.46,0,0,1-7,1.22H286.94V154.71H304a17.57,17.57,0,0,1,6.94,1.18c3,1.35,4.43,3.84,4.43,7.45Q315.41,169.76,310.84,172Z"/><path class="cls-11" d="M203.12,115.82v42.71q0,11.08,3.43,17.26Q213,187.1,231,187.1t24.43-11.31q3.44-6.18,3.44-17.26V115.82H244.13V158.5q0,7.16-1.69,10.45Q239.8,174.8,231,174.8T219.56,169q-1.68-3.28-1.69-10.45V115.82Z"/><polygon class="cls-11" points="133.29 85.11 133.29 99.54 345.75 99.54 345.75 200.41 189.16 200.41 189.16 115.82 174.74 115.82 174.74 142.31 147.72 142.31 147.72 115.82 133.29 115.82 133.29 185.31 147.72 185.31 147.72 154.29 174.74 154.29 174.74 201.78 174.74 201.78 174.74 214.83 345.75 214.83 360.18 214.83 360.18 99.54 360.18 90.13 360.18 85.11 133.29 85.11"/><path class="cls-11" d="M154.34,74.32a11.45,11.45,0,0,0,4.1-3.06,12.78,12.78,0,0,0,2.45-4.62,20,20,0,0,0,.81-5.83,18.08,18.08,0,0,0-1-6.28A12.45,12.45,0,0,0,158,50.07a11.35,11.35,0,0,0-4.17-2.67,15,15,0,0,0-5.21-.89H136.09V75.44h12.48A13.72,13.72,0,0,0,154.34,74.32Zm-11.89-4.23V51.86H147a10.19,10.19,0,0,1,3.95.67,6,6,0,0,1,2.57,1.92,7.8,7.8,0,0,1,1.4,3,17,17,0,0,1,.43,4,12,12,0,0,1-.61,4,7.45,7.45,0,0,1-1.62,2.69,5.86,5.86,0,0,1-2.31,1.48,8.15,8.15,0,0,1-2.68.45Z"/><path class="cls-11" d="M182.36,76.09c3.86,0,6.89-1,9.08-2.86s3.28-4.82,3.28-8.73v-18h-6.36v18a7.2,7.2,0,0,1-1.3,4.76q-1.29,1.51-4.7,1.52a7.26,7.26,0,0,1-3.1-.55,4.5,4.5,0,0,1-2.65-3.42,12.72,12.72,0,0,1-.2-2.31v-18H170v18q0,5.91,3.23,8.75C175.41,75.14,178.45,76.09,182.36,76.09Z"/><path class="cls-11" d="M222.05,75a9.94,9.94,0,0,0,3.28-1.5,7.32,7.32,0,0,0,2.29-2.61,8.84,8.84,0,0,0-.47-8.43,6.9,6.9,0,0,0-4-2.69,7.19,7.19,0,0,0,2.94-2.39,6.37,6.37,0,0,0,1-3.65,7.81,7.81,0,0,0-.66-3.4,5.58,5.58,0,0,0-1.89-2.21,8.12,8.12,0,0,0-2.92-1.2,18.18,18.18,0,0,0-3.76-.36H204.24V75.44h14A14.54,14.54,0,0,0,222.05,75ZM210.6,51.45h6a9.72,9.72,0,0,1,1.64.14,4.31,4.31,0,0,1,1.4.51,2.69,2.69,0,0,1,1,1,3.4,3.4,0,0,1,.37,1.66,3.07,3.07,0,0,1-1.1,2.64,4.57,4.57,0,0,1-2.79.81H210.6Zm0,19V62.55h6.93a5.36,5.36,0,0,1,3.32,1,3.76,3.76,0,0,1,1.26,3.19,4.08,4.08,0,0,1-.38,1.86,3.05,3.05,0,0,1-1,1.15,4.19,4.19,0,0,1-1.5.61,8.53,8.53,0,0,1-1.78.18Z"/><path class="cls-11" d="M242.45,69h10.82l2.19,6.44h6.6L251.24,46.51h-6.52L233.78,75.44h6.4Zm5.43-15.36H248l3.65,10.61h-7.5Z"/><path class="cls-11" d="M275,64.13h6.36a4.69,4.69,0,0,1,3.44,1.06,5.78,5.78,0,0,1,1.38,3.32c.16,1.16.28,2.38.36,3.65a11.21,11.21,0,0,0,.65,3.28h6.36a4.48,4.48,0,0,1-.67-1.48,14.68,14.68,0,0,1-.32-1.84c-.07-.65-.11-1.29-.14-1.91s-.06-1.16-.08-1.62A18.32,18.32,0,0,0,292,66.4a6.79,6.79,0,0,0-.71-2,5.36,5.36,0,0,0-1.25-1.58,4.87,4.87,0,0,0-1.95-1v-.08a6.79,6.79,0,0,0,3.51-2.83,8.79,8.79,0,0,0,1.07-4.42,8.14,8.14,0,0,0-.58-3.1,7.5,7.5,0,0,0-1.71-2.53,7.87,7.87,0,0,0-2.67-1.72,9.3,9.3,0,0,0-3.51-.63h-15.6V75.44H275Zm0-12.68h7a4.92,4.92,0,0,1,3.28.95,3.87,3.87,0,0,1,1.09,3.06,4,4,0,0,1-1.09,3.16,4.81,4.81,0,0,1-3.28,1h-7Z"/><path class="cls-11" d="M307.56,69h10.82l2.19,6.44h6.6L316.35,46.51h-6.52L298.89,75.44h6.4ZM313,53.64h.08l3.65,10.61h-7.5Z"/><polygon class="cls-11" points="340.1 62.96 351.81 62.96 351.81 75.44 358.17 75.44 358.17 46.51 351.81 46.51 351.81 57.61 340.1 57.61 340.1 46.51 333.74 46.51 333.74 75.44 340.1 75.44 340.1 62.96"/><rect class="cls-12" x="561.05" y="1.41" width="363.71" height="260.63"/><path class="cls-13" d="M688.55,262H561.05V0l73.51,166.76.19.33,12.34,21.78v0l1.43,2.51,7,12.32L656.8,206h0Z"/><polygon class="cls-14" points="890.41 1.41 634.05 262.09 640.87 262.04 897.38 1.41 890.41 1.41"/><polygon class="cls-15" points="638.64 262.04 894.46 1.41 1212.37 1.41 1212.37 262.04 638.64 262.04"/><path class="cls-16" d="M615,139.11s-5.81,9.53-5.72,20.7,2.83,10.43,2.83,10.43a12.28,12.28,0,0,1,0-8.54c1.66-5.07,5.15-9.7,5.29-14.19A16.53,16.53,0,0,0,615,139.11Z"/><path class="cls-17" d="M581.5,138.78s-3.06,2.58-1.25,8.17,4.57,9,3.89,12.75c0,0,3.11-4.92,2.42-9.68S581.45,140.6,581.5,138.78Z"/><g class="cls-18"><polygon class="cls-19" points="585.1 172.21 611.81 183.58 656.38 157.03 641.2 147.27 585.1 172.21"/></g><path class="cls-20" d="M648.75,212.55a3.51,3.51,0,0,1-2.14-.71l-15.81-11.9a3.53,3.53,0,0,1-1.38-2.35,3.58,3.58,0,0,1,.68-2.65L653.39,164a3.56,3.56,0,0,1,2.85-1.42,3.52,3.52,0,0,1,2.14.72l15.81,11.9a3.56,3.56,0,0,1,.71,5l-23.29,30.95A3.61,3.61,0,0,1,648.75,212.55Z"/><rect class="cls-21" x="639.38" y="164.98" width="26.23" height="45.17" rx="3.71" ry="3.71" transform="translate(243.97 -354.69) rotate(36.97)"/><rect class="cls-22" x="644.16" y="169.27" width="18.09" height="34.74" transform="translate(243.55 -355.3) rotate(36.97)"/><rect class="cls-23" x="643.01" y="189.83" width="11.2" height="5.81" rx="1.28" ry="1.28" transform="translate(246.3 -351.31) rotate(36.97)"/><rect class="cls-23" x="651.58" y="174.95" width="11.14" height="12.89" transform="translate(117.03 597.35) rotate(-53.03)"/><rect class="cls-24" x="651.97" y="175.4" width="10.35" height="11.98" transform="translate(117.03 597.35) rotate(-53.03)"/><polygon class="cls-23" points="658.68 182.59 656.21 184.62 655.64 184.54 655.54 184.63 655.43 184.57 655.77 184.12 656.42 182.36 654.51 183.93 654.13 183.87 654.14 183.86 654.56 182.73 653.33 183.73 653.27 183.72 653.57 183.03 653.26 182.85 653.61 182.38 654.27 180.56 652.3 182.19 651.84 182.12 650.74 183.05 652.37 184.27 652.37 184.27 653.01 184.76 653.01 184.76 653.34 185 653.68 185.26 653.68 185.26 655.05 186.3 655.05 186.3 656.91 187.69 657.8 185.67 657.4 185.45 657.85 184.87 658.68 182.59"/><g class="cls-25"><polygon class="cls-26" points="767.84 213.74 792.02 241.19 873.4 240.03 852.84 210.89 767.84 213.74"/></g><g class="cls-27"><polygon class="cls-28" points="645.99 100.74 652.59 129.12 742.14 95.33 706.91 55.31 645.99 100.74"/></g><g class="cls-29"><polygon class="cls-30" points="722.65 183.38 739.64 198.84 762.8 182.41 749.98 167.08 722.65 183.38"/></g><rect class="cls-31" x="842.73" y="21.11" width="74.37" height="58.2" transform="translate(1603.7 -452.69) rotate(141.94)"/><rect class="cls-11" x="851.25" y="13.46" width="57.33" height="73.5" transform="translate(377.01 -673.57) rotate(51.94)"/><polygon class="cls-32" points="872.03 74.02 850.83 48.02 853.06 46.65 873.63 73 872.03 74.02"/><polygon class="cls-32" points="883.44 68.68 862.23 42.68 864.46 41.31 885.03 67.67 883.44 68.68"/><polygon class="cls-32" points="894.84 60.33 873.63 34.33 875.87 32.97 896.44 59.32 894.84 60.33"/><path class="cls-33" d="M879.86,55.34c-1.14,0-4-7.81-4.05-7.88-.44-1.23-.51-2.06-.24-2.52a.69.69,0,0,1,.17-.2,19.21,19.21,0,0,1,.91-3.84c.31-1,.49-1.43,1-1.43a1.07,1.07,0,0,1,.31.06,1.12,1.12,0,0,0,.41.07,2.63,2.63,0,0,0,1.17-.37,4.14,4.14,0,0,1,2-.5,5,5,0,0,1,2.83,1l.28.23-.24.27c-.31.35-1.86,2.1-2.18,2.33a8,8,0,0,0,0,2.06l.05,1.32a19.57,19.57,0,0,0,.35,2.76,8.06,8.06,0,0,1,.06,4,3.59,3.59,0,0,1-2.66,2.65Z"/><path class="cls-34" d="M879.89,55a3.28,3.28,0,0,0,2.38-2.41c.63-2.13-.32-3.92-.43-6.67s-.2-3.44.1-3.67S884.07,40,884.07,40a4.22,4.22,0,0,0-4.4-.42c-2.32,1.23-1.91-.91-2.7,1.47a18.64,18.64,0,0,0-.9,3.94s-.74.12.07,2.39S879.33,55.18,879.89,55Z"/><rect class="cls-35" x="767.84" y="170.1" width="88.18" height="47.8" rx="5.77" ry="5.77"/><rect class="cls-36" x="775.23" y="174.77" width="71.53" height="38.47"/><path class="cls-37" d="M781.42,187.74s27.68.13,27.69-.09-.73-6.19-.73-6.19l-25.17-1.18Z"/><path class="cls-38" d="M775.23,213.24a114.74,114.74,0,0,1,31.27-23,237.4,237.4,0,0,1,40.26-15.45v38.47Z"/><polygon class="cls-37" points="784.82 191.93 784.63 195.84 804.5 195.75 803.72 192.16 784.82 191.93"/><polygon class="cls-37" points="786.43 199.23 785.76 202.68 804.77 202.33 804.19 199.12 786.43 199.23"/><rect class="cls-39" x="814.25" y="200.39" width="25.91" height="9.7" rx="3.29" ry="3.29"/><path class="cls-40" d="M840.17,205.6v1.2a3.29,3.29,0,0,1-3.29,3.3H817.55a3.3,3.3,0,0,1-3.3-3.3v-1.2Z"/><path class="cls-11" d="M818.55,207.09a2.63,2.63,0,0,0,.52.15,2.57,2.57,0,0,0,.55.06,2.33,2.33,0,0,0,.38,0,1.34,1.34,0,0,0,.32-.13.63.63,0,0,0,.21-.22.45.45,0,0,0,.09-.28.58.58,0,0,0-.07-.28.52.52,0,0,0-.17-.19,1,1,0,0,0-.25-.13l-.31-.11-.3-.11a2.16,2.16,0,0,1-.8-.47,1,1,0,0,1-.25-.7,1.16,1.16,0,0,1,.41-.93,1.9,1.9,0,0,1,1.23-.35,3,3,0,0,1,.67.07,3.47,3.47,0,0,1,.56.15,2,2,0,0,1-.06.34,2,2,0,0,1-.12.32l-.45-.13a2.62,2.62,0,0,0-.57-.07,1.25,1.25,0,0,0-.56.12.38.38,0,0,0-.25.39.49.49,0,0,0,.06.25.55.55,0,0,0,.16.18,1.36,1.36,0,0,0,.24.13l.29.1.38.13a2.27,2.27,0,0,1,.39.16,1.34,1.34,0,0,1,.32.24,1.23,1.23,0,0,1,.22.35,1.34,1.34,0,0,1,.08.48,1.28,1.28,0,0,1-.13.59,1.44,1.44,0,0,1-.37.45,1.6,1.6,0,0,1-.57.28,2.45,2.45,0,0,1-.74.11,3.91,3.91,0,0,1-.73-.06,4.91,4.91,0,0,1-.58-.15,2.49,2.49,0,0,1,.08-.35C818.46,207.32,818.51,207.21,818.55,207.09Z"/><path class="cls-11" d="M822.72,204.15h-.67l0-.12,1.49-1.66h.07v1.1h1.12a1.51,1.51,0,0,1,0,.32V204l0,.18h-1.12v2a4.51,4.51,0,0,0,0,.58.86.86,0,0,0,.1.33.33.33,0,0,0,.2.15,1,1,0,0,0,.32,0,1.18,1.18,0,0,0,.27,0l.23-.05a1.55,1.55,0,0,1,.08.36c0,.12,0,.22,0,.32a1.93,1.93,0,0,1-.36.06,2.68,2.68,0,0,1-.41,0,1.44,1.44,0,0,1-1-.3,1.26,1.26,0,0,1-.35-1Z"/><path class="cls-11" d="M828,205a.85.85,0,0,0-.26-.71,1.22,1.22,0,0,0-.75-.2,3.45,3.45,0,0,0-.57.05l-.51.12a1.32,1.32,0,0,1-.17-.68,5.65,5.65,0,0,1,.65-.15,5.59,5.59,0,0,1,.68,0,1.91,1.91,0,0,1,1.32.4,1.58,1.58,0,0,1,.45,1.25v2.77c-.21.05-.45.1-.74.14a5.14,5.14,0,0,1-.88.08,3.48,3.48,0,0,1-.76-.08,1.62,1.62,0,0,1-.58-.25,1.14,1.14,0,0,1-.37-.44,1.57,1.57,0,0,1-.13-.65,1.38,1.38,0,0,1,.15-.65,1.42,1.42,0,0,1,.41-.47,1.93,1.93,0,0,1,.6-.27,2.71,2.71,0,0,1,.71-.09h.45l.3,0Zm0,.83-.33,0-.34,0a1.4,1.4,0,0,0-.81.2.67.67,0,0,0-.28.6.78.78,0,0,0,.09.41.66.66,0,0,0,.24.23.8.8,0,0,0,.31.09l.33,0,.41,0,.38-.07Z"/><path class="cls-11" d="M830.11,203.47a1.13,1.13,0,0,1,.18,0h.37l.18,0c0,.08,0,.2,0,.34s0,.26,0,.35a1.75,1.75,0,0,1,.48-.5,1.25,1.25,0,0,1,.77-.22h.14l.12,0a.76.76,0,0,1,0,.16,1.09,1.09,0,0,1,0,.18,1.7,1.7,0,0,1,0,.22l0,.21h-.26a1.63,1.63,0,0,0-.45.06.89.89,0,0,0-.38.23,1.23,1.23,0,0,0-.27.45,2.46,2.46,0,0,0-.09.73v2.2a1.46,1.46,0,0,1-.22,0h-.42a1.46,1.46,0,0,1-.22,0Z"/><path class="cls-11" d="M833.49,204.15h-.68l0-.12,1.48-1.66h.07v1.1h1.12a1,1,0,0,1,0,.32,1,1,0,0,1,0,.18.57.57,0,0,1,0,.18h-1.12v2a4.51,4.51,0,0,0,0,.58.85.85,0,0,0,.11.33.3.3,0,0,0,.2.15.9.9,0,0,0,.31,0,1.27,1.27,0,0,0,.28,0l.23-.05a1.53,1.53,0,0,1,.07.36c0,.12,0,.22,0,.32a2.2,2.2,0,0,1-.37.06,2.55,2.55,0,0,1-.4,0,1.43,1.43,0,0,1-1-.3,1.23,1.23,0,0,1-.35-1Z"/><polygon class="cls-41" points="631.33 130.29 615.98 95.75 607.47 99.54 623.65 138.34 630.81 137.06 631.33 130.29"/><path class="cls-21" d="M569.43,115.38l-2-4.64L609.76,88.1,630,138.35Z"/><rect class="cls-42" x="570.96" y="104.25" width="51.18" height="60.32" transform="translate(-3.17 253.89) rotate(-23.97)"/><rect class="cls-42" x="622.65" y="130.22" width="15.22" height="21.22" transform="translate(-2.87 268.14) rotate(-23.96)"/><rect class="cls-43" x="578.93" y="105.43" width="16.35" height="8.12" transform="translate(6.14 247.91) rotate(-23.97)"/><path class="cls-44" d="M855.52,244.9a21.26,21.26,0,0,0-1.35-2.14l-.44-.61c-.81-1.15-2.31-3.28-3.56-3.9l-1.41-.67a43.74,43.74,0,0,1-6.31-3.4,87,87,0,0,1-7.07-5.69,8.51,8.51,0,0,0-1.11-.81c-1.56-1.07-3.7-2.52-2.74-4.06.46-.76,1.42-1.14,2.83-1.14a10.65,10.65,0,0,1,2.56.34H837l6.32,4.58-.43-1.84c-.27-.64-7-17-7.68-19.79a3.64,3.64,0,0,1,1.89-4.2,1.88,1.88,0,0,1,.88-.21c1.5,0,3.16,1.59,3.22,1.65l.06.06,5.43,13.53a3.89,3.89,0,0,1,2.28-.74,3.45,3.45,0,0,1,.85.1,5.92,5.92,0,0,1,2.09-1.26,2.71,2.71,0,0,1,.88-.14,4.82,4.82,0,0,1,1.71.36,1.93,1.93,0,0,1,1-.5,6,6,0,0,1,1.29-.13,7.54,7.54,0,0,1,1.56.17,1.87,1.87,0,0,1,1.16-.5,4,4,0,0,1,.66-.06,2.24,2.24,0,0,1,2.3,1.7c.36.75,4.54,9.5,4.62,12.38.07,2.71-.13,7.42-.16,8l1.71,4.88-13,4.24Z"/><path class="cls-45" d="M855.44,244.94a20.79,20.79,0,0,0-1.33-2.13c-.11-.13-.26-.35-.45-.61-.75-1.06-2.3-3.26-3.53-3.87-.37-.19-.85-.41-1.4-.67a43.49,43.49,0,0,1-6.33-3.41,89.5,89.5,0,0,1-7.09-5.7,8.87,8.87,0,0,0-1.08-.8c-1.51-1-3.78-2.56-2.78-4.18q.74-1.17,2.91-1.17a11.72,11.72,0,0,1,2.58.33l.08,0,6.15,4.46-.38-1.62c-.26-.63-7-17-7.67-19.79a3.68,3.68,0,0,1,1.94-4.3,1.85,1.85,0,0,1,.91-.21c1.53,0,3.21,1.6,3.29,1.67l.06.07,5.4,13.44a4,4,0,0,1,2.24-.69,4.18,4.18,0,0,1,.83.09,5.93,5.93,0,0,1,2.08-1.24,2.63,2.63,0,0,1,.91-.14,5.19,5.19,0,0,1,1.69.33,2.21,2.21,0,0,1,1-.48,7,7,0,0,1,1.31-.13,6.9,6.9,0,0,1,1.53.17,2,2,0,0,1,1.18-.49,3.32,3.32,0,0,1,.67-.07,2.32,2.32,0,0,1,2.38,1.76c.39.81,4.55,9.52,4.63,12.41.07,2.69-.13,7.34-.16,8l1.73,4.94-13.12,4.29Z"/><path class="cls-46" d="M846.53,217.17,841,203.27s-2.26-2.18-3.71-1.37a3.25,3.25,0,0,0-1.7,3.8c.65,2.75,7.68,19.8,7.68,19.8l.64,2.74-7-5.09s-4-1.05-5,.65,2.91,3.55,3.8,4.44,4.77,4,7,5.66a59.6,59.6,0,0,0,7.68,4c1.61.81,3.55,3.88,4.12,4.61a22.6,22.6,0,0,1,1.37,2.18l12.37-4-1.62-4.61s.24-5.17.16-8.08-4.6-12.28-4.6-12.28-.33-1.79-2.57-1.41c-1.17.21-1,.58-1,.58a6.56,6.56,0,0,0-3-.12,1.44,1.44,0,0,0-1,.57A4,4,0,0,0,852,215a5.24,5.24,0,0,0-2.09,1.31A3.54,3.54,0,0,0,846.53,217.17Z"/><polygon class="cls-47" points="853.8 243.53 854.96 243.13 868.37 238.59 870.33 242.92 855.71 247.81 853.8 243.53"/><polygon class="cls-48" points="853.68 243.49 854.93 243.05 868.42 238.48 870.45 242.97 855.66 247.91 853.68 243.49"/><polygon class="cls-21" points="855.07 243.46 868.19 239.02 869.85 242.71 855.9 247.38 854.27 243.74 855.07 243.46"/><polygon class="cls-49" points="859.93 262.04 855.47 247.16 870.03 242.28 880.02 262.04 859.93 262.04"/><polygon class="cls-50" points="859.93 262.04 855.36 247.1 870.07 242.18 880.02 262.04 859.93 262.04"/><polygon class="cls-51" points="855.9 247.38 860.3 262.04 879.63 262.04 869.85 242.71 855.9 247.38"/><path class="cls-52" d="M626.11,208.65l3.38-5.23A36.8,36.8,0,0,1,628,196c0-2.8,3.1-7.24,6.91-9.92,2.88-2,2.7-4.31,2.58-6a5,5,0,0,1,0-1.34c.09-.38.15-.81.22-1.23a6.21,6.21,0,0,1,.82-2.76,1.79,1.79,0,0,1,1.41-.67,2.34,2.34,0,0,1,1.45.55c.83.67,3,4.23,2.58,6.73v.09l0,.07c-.07.09-7,9.42-9.85,12.92-2.64,3.24-.32,5.75-.22,5.86l14.27,10.92L640,219Z"/><path class="cls-46" d="M643.67,181.33c.36-2.35-1.71-5.8-2.46-6.41a1.65,1.65,0,0,0-2.37.07c-.61.75-.68,2.54-1,3.85s1.25,4.72-2.72,7.51-6.76,7.17-6.76,9.64,1.48,7.48,1.48,7.48l-3.29,5.1,13.43,10,7.6-7.27-14-10.7s-2.67-2.79.2-6.32S643.67,181.33,643.67,181.33Z"/><path class="cls-53" d="M666,194.2a2.52,2.52,0,1,1,0-5h4.86a2.52,2.52,0,0,1,0,5Z"/><rect class="cls-46" x="663.8" y="189.51" width="9.2" height="4.34" rx="2.17" ry="2.17"/><path class="cls-54" d="M667.28,200.11a2.11,2.11,0,0,1-.75-.13l-3.72-1.25a2.34,2.34,0,0,1-1.37-1.19,2.37,2.37,0,0,1-.13-1.81l.1-.28a2.37,2.37,0,0,1,2.25-1.62,2.11,2.11,0,0,1,.75.13l3.72,1.25a2.34,2.34,0,0,1,1.37,1.19,2.37,2.37,0,0,1,.12,1.81l-.09.28A2.38,2.38,0,0,1,667.28,200.11Z"/><rect class="cls-46" x="661.48" y="194.8" width="7.97" height="4.34" rx="2.17" ry="2.17" transform="matrix(0.95, 0.32, -0.32, 0.95, 97.48, -201.82)"/><path class="cls-55" d="M663.86,203.82a2.45,2.45,0,0,1-.75-.12l-3.72-1.25a2.4,2.4,0,0,1-1.36-1.2,2.37,2.37,0,0,1-.13-1.81l.1-.28a2.36,2.36,0,0,1,2.25-1.61,2.4,2.4,0,0,1,.75.12l3.72,1.25a2.36,2.36,0,0,1,1.49,3l-.09.28A2.38,2.38,0,0,1,663.86,203.82Z"/><rect class="cls-46" x="658.07" y="198.51" width="7.97" height="4.34" rx="2.17" ry="2.17" transform="translate(98.49 -200.54) rotate(18.59)"/><path class="cls-56" d="M660.71,207.55a2.25,2.25,0,0,1-.68-.11l-2.61-.88a2.17,2.17,0,0,1-1.36-2.75l.22-.66a2.17,2.17,0,0,1,2.06-1.48,2.37,2.37,0,0,1,.69.11l2.6.88A2.18,2.18,0,0,1,663,205.4l-.23.67A2.16,2.16,0,0,1,660.71,207.55Z"/><rect class="cls-46" x="656.33" y="202.44" width="6.39" height="4.34" rx="2.09" ry="2.09" transform="translate(99.62 -199.54) rotate(18.59)"/><polygon class="cls-57" points="620.74 214.76 626.53 208.1 640.47 218.44 635.7 226.62 620.74 214.76"/><polygon class="cls-21" points="626.58 208.57 621.24 214.71 635.6 226.09 640.01 218.53 626.58 208.57"/><path class="cls-58" d="M617.12,1.41l14.44,29.93-.62,1.46L634.71,38,636,40.4c-.58,1.7.57,5.05,2,7.55l1.06.36.45-1s-1.94-9.43-3.19-11.16a43.69,43.69,0,0,1-2.44-3.9l-.22-2.06L618.74,1.41Z"/><polygon class="cls-59" points="582.99 262.04 620.18 213.93 621.48 213.93 637.74 224.63 614.77 262.04 582.99 262.04"/><polygon class="cls-60" points="583.77 261.75 620.4 214.36 621.35 214.36 637.15 224.76 614.4 261.8 583.77 261.75"/><polygon class="cls-61" points="621.24 214.71 620.57 214.71 584.48 261.4 614.21 261.45 636.68 224.87 621.24 214.71"/><circle class="cls-62" cx="734.71" cy="172.54" r="16.22" transform="translate(93.19 570.06) rotate(-45)"/><circle class="cls-63" cx="734.71" cy="172.54" r="9.75"/><path class="cls-64" d="M734.71,181.11a8.57,8.57,0,1,1,8.57-8.57A8.58,8.58,0,0,1,734.71,181.11Z"/><circle class="cls-62" cx="734.71" cy="172.54" r="8.22" transform="translate(93.19 570.06) rotate(-45)"/><path class="cls-65" d="M741.84,172.54a7.14,7.14,0,1,1-.82-3.3A7,7,0,0,1,741.84,172.54Z"/><path class="cls-66" d="M741.84,172.54A7.13,7.13,0,0,1,729,176.76h0s.67-11.18,12-7.51A7,7,0,0,1,741.84,172.54Z"/><path class="cls-67" d="M734.71,184a1.66,1.66,0,0,1-1.66-1.66V181c0-.69.46-.76.66-.76a2.54,2.54,0,0,1,.45.06,2.51,2.51,0,0,0,.55.07,2.6,2.6,0,0,0,.56-.07,2.32,2.32,0,0,1,.44-.06c.2,0,.66.07.66.76v1.35A1.66,1.66,0,0,1,734.71,184Z"/><path class="cls-62" d="M734.71,183.61h0a1.31,1.31,0,0,1-1.31-1.31V181c0-.73.59-.28,1.31-.28h0c.72,0,1.32-.45,1.32.28v1.35A1.32,1.32,0,0,1,734.71,183.61Z"/><rect class="cls-63" x="632.26" y="35.18" width="79.5" height="40.23" rx="4.38" ry="4.38" transform="translate(32.18 268.06) rotate(-23.1)"/><rect class="cls-68" x="669.83" y="71.51" width="19.99" height="2.22" transform="translate(26.01 272.51) rotate(-23.1)"/><path class="cls-69" d="M728.93,64l-.38.72-87.14,37.17-.46-.14-.75-.22,2-10.16a5.64,5.64,0,0,1,3.35-4.12l67.94-29a6,6,0,0,1,5.18.24l9.6,5.16Z"/><path class="cls-68" d="M662.34,89.45l.91,2.14L655.35,95l-.91-2.16a1.18,1.18,0,0,1,.63-1.54l5.73-2.43A1.16,1.16,0,0,1,662.34,89.45Z"/><path class="cls-68" d="M659.79,83.43l1,2.43a1.2,1.2,0,0,1-.62,1.55l-5.74,2.42a1.17,1.17,0,0,1-1.54-.62l-1-2.43a1.2,1.2,0,0,1,.63-1.55l5.74-2.43A1.18,1.18,0,0,1,659.79,83.43Z"/><path class="cls-68" d="M672.13,85.31l.9,2.11-7.89,3.37-.9-2.13a1.17,1.17,0,0,1,.61-1.55l5.74-2.43A1.18,1.18,0,0,1,672.13,85.31Z"/><path class="cls-68" d="M669.57,79.28l1,2.43a1.17,1.17,0,0,1-.62,1.54l-5.74,2.44a1.19,1.19,0,0,1-1.55-.63l-1-2.43a1.17,1.17,0,0,1,.62-1.54L668,78.65A1.17,1.17,0,0,1,669.57,79.28Z"/><path class="cls-68" d="M681.93,81.15l.88,2.1-7.89,3.36L674,84.5a1.18,1.18,0,0,1,.62-1.54l5.74-2.43A1.2,1.2,0,0,1,681.93,81.15Z"/><path class="cls-68" d="M679.37,75.13l1,2.43a1.17,1.17,0,0,1-.61,1.55L674,81.54a1.18,1.18,0,0,1-1.54-.63l-1-2.43a1.19,1.19,0,0,1,.62-1.55l5.74-2.42A1.18,1.18,0,0,1,679.37,75.13Z"/><path class="cls-68" d="M691.38,77.14l.89,2.08-7.9,3.36-.89-2.09a1.18,1.18,0,0,1,.63-1.54l5.74-2.43A1.17,1.17,0,0,1,691.38,77.14Z"/><path class="cls-68" d="M689.16,71l1,2.44a1.18,1.18,0,0,1-.63,1.54l-5.73,2.43a1.17,1.17,0,0,1-1.54-.63l-1-2.43a1.18,1.18,0,0,1,.63-1.54l5.73-2.44A1.19,1.19,0,0,1,689.16,71Z"/><path class="cls-68" d="M701.18,73l.86,2.06-7.89,3.36-.88-2.06a1.18,1.18,0,0,1,.63-1.54l5.73-2.44A1.2,1.2,0,0,1,701.18,73Z"/><path class="cls-68" d="M698.94,66.84l1,2.42a1.2,1.2,0,0,1-.62,1.55l-5.74,2.43a1.19,1.19,0,0,1-1.55-.63l-1-2.43a1.19,1.19,0,0,1,.63-1.55l5.73-2.42A1.17,1.17,0,0,1,698.94,66.84Z"/><path class="cls-68" d="M711,68.84l.86,2-7.9,3.37-.86-2a1.18,1.18,0,0,1,.63-1.54l5.73-2.42A1.18,1.18,0,0,1,711,68.84Z"/><path class="cls-68" d="M708.73,62.68l1,2.44a1.18,1.18,0,0,1-.62,1.54l-5.73,2.43a1.19,1.19,0,0,1-1.55-.62l-1-2.44a1.18,1.18,0,0,1,.62-1.54l5.74-2.44A1.18,1.18,0,0,1,708.73,62.68Z"/><rect class="cls-70" x="639.89" y="43.79" width="67.36" height="28.33" transform="translate(31.26 268.89) rotate(-23.1)"/><rect class="cls-68" x="642.23" y="59.88" width="8.58" height="5" rx="1.35" ry="1.35" transform="translate(27.36 258.62) rotate(-23.1)"/><rect class="cls-68" x="652.01" y="55.71" width="8.58" height="5" rx="1.35" ry="1.35" transform="translate(29.78 262.13) rotate(-23.1)"/><rect class="cls-68" x="661.21" y="49.59" width="18.86" height="5" rx="1.04" ry="1.04" transform="translate(33.32 267.26) rotate(-23.1)"/><rect class="cls-68" x="681.18" y="43.26" width="8.58" height="5" rx="1.35" ry="1.35" transform="translate(36.99 272.57) rotate(-23.1)"/><rect class="cls-68" x="690.96" y="39.09" width="8.58" height="5" rx="1.35" ry="1.35" transform="translate(39.42 276.08) rotate(-23.1)"/><rect class="cls-68" x="644.63" y="65.97" width="8.58" height="5" rx="1.35" ry="1.35" transform="translate(25.16 260.06) rotate(-23.1)"/><rect class="cls-68" x="654.41" y="61.8" width="8.58" height="5" rx="1.35" ry="1.35" transform="translate(27.58 263.56) rotate(-23.1)"/><rect class="cls-68" x="664.19" y="57.63" width="8.58" height="5" rx="1.35" ry="1.35" transform="translate(30 267.07) rotate(-23.1)"/><rect class="cls-68" x="673.65" y="53.59" width="8.58" height="5" rx="1.35" ry="1.35" transform="translate(32.34 270.44) rotate(-23.1)"/><rect class="cls-68" x="683.43" y="49.42" width="8.58" height="5" rx="1.35" ry="1.35" transform="translate(34.76 273.95) rotate(-23.1)"/><rect class="cls-68" x="693.2" y="45.25" width="8.58" height="5" rx="1.35" ry="1.35" transform="translate(37.18 277.45) rotate(-23.1)"/><rect class="cls-68" x="646.88" y="72.13" width="8.58" height="5" rx="1.35" ry="1.35" transform="translate(22.92 261.43) rotate(-23.1)"/><rect class="cls-68" x="656.66" y="67.96" width="8.58" height="5" rx="1.35" ry="1.35" transform="translate(25.34 264.93) rotate(-23.1)"/><rect class="cls-68" x="666.43" y="63.78" width="8.58" height="5" rx="1.35" ry="1.35" transform="translate(27.76 268.43) rotate(-23.1)"/><rect class="cls-68" x="676.21" y="59.61" width="8.58" height="5" rx="1.35" ry="1.35" transform="translate(30.19 271.94) rotate(-23.1)"/><rect class="cls-68" x="685.99" y="55.44" width="8.58" height="5" rx="1.35" ry="1.35" transform="translate(32.6 275.43) rotate(-23.1)"/><rect class="cls-68" x="695.77" y="51.27" width="8.58" height="5" rx="1.35" ry="1.35" transform="translate(35.02 278.95) rotate(-23.1)"/><path class="cls-68" d="M711,68.84l.86,2-7.9,3.37-.86-2a1.18,1.18,0,0,1,.63-1.54l5.73-2.42A1.18,1.18,0,0,1,711,68.84Z"/><path class="cls-68" d="M701.18,73l.86,2.06-7.89,3.36-.88-2.06a1.18,1.18,0,0,1,.63-1.54l5.73-2.44A1.2,1.2,0,0,1,701.18,73Z"/><path class="cls-68" d="M691.38,77.14l.89,2.08-7.9,3.36-.89-2.09a1.18,1.18,0,0,1,.63-1.54l5.74-2.43A1.17,1.17,0,0,1,691.38,77.14Z"/><path class="cls-68" d="M681.93,81.15l.88,2.1-7.89,3.36L674,84.5a1.18,1.18,0,0,1,.62-1.54l5.74-2.43A1.2,1.2,0,0,1,681.93,81.15Z"/><path class="cls-68" d="M672.13,85.31l.9,2.11-7.89,3.37-.9-2.13a1.17,1.17,0,0,1,.61-1.55l5.74-2.43A1.18,1.18,0,0,1,672.13,85.31Z"/><path class="cls-68" d="M662.34,89.45l.91,2.14L655.35,95l-.91-2.16a1.18,1.18,0,0,1,.63-1.54l5.73-2.43A1.16,1.16,0,0,1,662.34,89.45Z"/><path class="cls-68" d="M708.73,62.68l1,2.44a1.18,1.18,0,0,1-.62,1.54l-5.73,2.43a1.19,1.19,0,0,1-1.55-.62l-1-2.44a1.18,1.18,0,0,1,.62-1.54l5.74-2.44A1.18,1.18,0,0,1,708.73,62.68Z"/><path class="cls-68" d="M698.94,66.84l1,2.42a1.2,1.2,0,0,1-.62,1.55l-5.74,2.43a1.19,1.19,0,0,1-1.55-.63l-1-2.43a1.19,1.19,0,0,1,.63-1.55l5.73-2.42A1.17,1.17,0,0,1,698.94,66.84Z"/><path class="cls-68" d="M689.16,71l1,2.44a1.18,1.18,0,0,1-.63,1.54l-5.73,2.43a1.17,1.17,0,0,1-1.54-.63l-1-2.43a1.18,1.18,0,0,1,.63-1.54l5.73-2.44A1.19,1.19,0,0,1,689.16,71Z"/><path class="cls-68" d="M679.37,75.13l1,2.43a1.17,1.17,0,0,1-.61,1.55L674,81.54a1.18,1.18,0,0,1-1.54-.63l-1-2.43a1.19,1.19,0,0,1,.62-1.55l5.74-2.42A1.18,1.18,0,0,1,679.37,75.13Z"/><path class="cls-68" d="M669.57,79.28l1,2.43a1.17,1.17,0,0,1-.62,1.54l-5.74,2.44a1.19,1.19,0,0,1-1.55-.63l-1-2.43a1.17,1.17,0,0,1,.62-1.54L668,78.65A1.17,1.17,0,0,1,669.57,79.28Z"/><path class="cls-68" d="M659.79,83.43l1,2.43a1.2,1.2,0,0,1-.62,1.55l-5.74,2.42a1.17,1.17,0,0,1-1.54-.62l-1-2.43a1.2,1.2,0,0,1,.63-1.55l5.74-2.43A1.18,1.18,0,0,1,659.79,83.43Z"/><path class="cls-63" d="M647.58,86.38l-2.49,12.36-4.14,3-.75-.22,2-10.16a5.64,5.64,0,0,1,3.35-4.12Z"/><path class="cls-63" d="M728.31,63.65a10.69,10.69,0,0,1-.86,1.52,3.56,3.56,0,0,1-1.13,1.17,3.34,3.34,0,0,1-1.7,0,9.05,9.05,0,0,1-1.37-.38l-11-7.18,1.33-.57a6,6,0,0,1,5.18.24Z"/><rect class="cls-62" x="636.55" y="81.71" width="98.23" height="6.35" rx="2.74" ry="2.74" transform="translate(21.66 275.79) rotate(-23.1)"/><path class="cls-71" d="M645.09,98.74s54.72-24.29,67.11-39.92l11,7.18s-30,14-77.72,33.78Z"/><path class="cls-72" d="M637,1.41l6.85,23.68.59-.23,2.06,6.85L646,32l1.25,1.74h.43a5.28,5.28,0,0,1,2.81-.21A23.18,23.18,0,0,1,659,39s4.37,2.85,4.26,3.17-1.51,2.74-3.36,2-5.16-2.83-6.13-2c0,0-.71,0-.11,1.12s5.43,7.33,5.43,7.33,3.77,4.38,3.59,4.94-.17,2.7-2.07,2.41a3.78,3.78,0,0,1-1.25-.56s-7.53-9.64-7.62-9.64a2.19,2.19,0,0,0-.47.26l5.6,11.46a2.26,2.26,0,0,1-.31,1.89c-.54,1-1.67,1.14-2.9.42l-.25-.25-5.62-11.89-.21.1,5.26,11s.17.44-.08.66a2.86,2.86,0,0,1-2.36.66,3.59,3.59,0,0,1-1-1.1L644.67,51l-.22.06,4.66,9.59a1.33,1.33,0,0,1-.77.84,2.8,2.8,0,0,1-2.77-.29C644.86,60.5,638.1,48,638.1,48l.77-.44,3.48-13.1L635.16,1.75Z"/><path class="cls-73" d="M635.57,36.88,637.06,40s-1,1.77.48,4.89L641,52.08s4.71,8.87,4.77,9a2.53,2.53,0,0,0,2.31.37c.9-.47,1.07-.59.86-1L644.4,51l.32-.08,4.49,9.4s1.09,2,2.14,1.57,1.69-.76,1.26-1.33a8.27,8.27,0,0,1-.84-1.81l-4.34-9.08.44-.18,5.74,12s1.55.81,2.23.29a2.23,2.23,0,0,0,.7-2.43L651.1,48l.62-.41,8,9.69a1.43,1.43,0,0,0,1.86.08,1.64,1.64,0,0,0,.5-1.86s-7.48-9.75-7.85-10a17.75,17.75,0,0,1-1.57-2.7c-.06-.13-.06-.63.63-1s3.53.25,4.35.91,2.51,1.43,3.85.67,1.47-1,.79-1.5a18.31,18.31,0,0,0-1.75-1.06c-1.11-.71-5.78-4.56-7.39-5.5A11.55,11.55,0,0,0,648,34.1c-.41.12-1.22.35-1.49-.21s-1-2.18-1-2.18l-10.41,5Z"/><polygon class="cls-21" points="646 31.38 644.26 25.46 632.05 32.31 635.16 37.21 635.73 37.21 646 31.38"/><polygon class="cls-21" points="633.3 33.12 617.98 1.41 636.23 1.41 643.89 26.59 633.3 33.12"/><path class="cls-74" d="M683.72,54.16A2,2,0,0,1,682,53l0,0v0c-.48-2.86-2.07-12.2-2-12.68a19,19,0,0,0-.9-2.82h0a.62.62,0,0,0-.38-.1,1.55,1.55,0,0,0-.39.06c-.53.16-2,2.48-2,3.49s-.65,3.05-2.36,3.6a5.09,5.09,0,0,1-1.35.31.74.74,0,0,1-.56-.22,1.12,1.12,0,0,1-.18-.89,3.89,3.89,0,0,1,.17-1,9.83,9.83,0,0,0,.24-1.08c.1-.52.22-1.91.35-3.38.19-2.21.4-4.7.65-5.79A11.26,11.26,0,0,1,676,27.76c.41-.26.82-.55.71-.82-.23-.58-.93-2.17-.93-2.17l-.15-.33,11.73-4.66-.31,1,1.18,2.95c.55.2,2.2,1,3.32,3.83L694.46,35c1.13,3.26,3.29,9.44,3.36,9.61s-.17.93-.23,1.05A2.44,2.44,0,0,1,696.31,47a3.42,3.42,0,0,1-1.07.28.5.5,0,0,1-.17,0c.17.79.27,2-.66,2.45a4.34,4.34,0,0,1-1.51.48,1.11,1.11,0,0,1-.34-.06l.26.64,0,.11c-.06.19-.55,1.91-1.58,2.08a2.07,2.07,0,0,1-.35,0,2.54,2.54,0,0,1-2.29-1.38L684,40.14l-.13,0,1.63,12.15A1.74,1.74,0,0,1,684,54.13Z"/><path class="cls-73" d="M686.66,20.8,687.93,24s2,.45,3.26,3.67l2.94,7.41s3.31,9.48,3.36,9.61a2.51,2.51,0,0,1-1.29,1.94c-1,.34-1.17.39-1.35-.07L691,36.87l-.27.18,3.84,9.68s.76,2.18-.3,2.64-1.71.72-1.84,0a8.47,8.47,0,0,0-.75-1.85L688,38.18l-.43.21,4.91,12.38s-.46,1.69-1.3,1.83a2.24,2.24,0,0,1-2.26-1.13c-.29-.75-4.65-11.73-4.65-11.73l-.72.17,1.67,12.46a1.44,1.44,0,0,1-1.2,1.42,1.67,1.67,0,0,1-1.72-.9s-2.06-12.12-2-12.59a17.35,17.35,0,0,0-.92-3c-.05-.13-.41-.48-1.18-.24s-2.22,2.75-2.29,3.8-.66,2.82-2.12,3.28-1.72.42-1.64-.43a19.16,19.16,0,0,1,.4-2c.24-1.3.59-7.34,1-9.16a11.39,11.39,0,0,1,2.65-4.51c.36-.22,1.09-.66.86-1.24s-1-2.18-1-2.18l10.73-4.26Z"/><polygon class="cls-75" points="672.15 18.23 685.91 13.78 687.36 20.49 686.87 21.09 675.53 25.53 672.15 18.23"/><polygon class="cls-76" points="662.27 1.41 681.52 1.41 685.57 16.33 674.1 19.95 662.27 1.41"/><polygon class="cls-21" points="674.25 19.54 662.68 1.41 681.16 1.41 685.14 16.1 674.25 19.54"/><polygon class="cls-21" points="675.71 25.09 672.63 18.44 685.65 14.23 686.98 20.4 686.66 20.8 675.71 25.09"/><circle class="cls-77" cx="701.84" cy="184.77" r="6.81"/><circle class="cls-78" cx="701.84" cy="184.77" r="5.55"/><path class="cls-77" d="M701.92,187.57q-2.19,0-2.31-1.74h1c0,.66.45,1,1.34,1a2.09,2.09,0,0,0,.53-.06,1,1,0,0,0,.38-.18,1,1,0,0,0,.23-.27.82.82,0,0,0,.08-.35.71.71,0,0,0-.06-.31.58.58,0,0,0-.23-.2,3.09,3.09,0,0,0-.48-.18l-.79-.22-.83-.23a2.17,2.17,0,0,1-.57-.29,1,1,0,0,1-.32-.42,1.41,1.41,0,0,1-.11-.62,1.25,1.25,0,0,1,.14-.61,1.48,1.48,0,0,1,.4-.5,2.07,2.07,0,0,1,.63-.32,2.73,2.73,0,0,1,.83-.12c1.42,0,2.13.5,2.16,1.5H703q0-.75-1.14-.75a2,2,0,0,0-.44,0,1.18,1.18,0,0,0-.36.14.73.73,0,0,0-.24.22.62.62,0,0,0-.08.31.68.68,0,0,0,0,.26.42.42,0,0,0,.19.18,2.18,2.18,0,0,0,.44.18l.8.2a7.45,7.45,0,0,1,.85.25,2.1,2.1,0,0,1,.6.3,1.1,1.1,0,0,1,.35.45,1.49,1.49,0,0,1,.12.64,1.57,1.57,0,0,1-.15.68,1.64,1.64,0,0,1-.44.54,2.14,2.14,0,0,1-.67.36A3.15,3.15,0,0,1,701.92,187.57Z"/><path class="cls-77" d="M701.93,188.74h0a.31.31,0,0,1-.3-.31v-7.32a.31.31,0,0,1,.3-.31h0a.31.31,0,0,1,.31.31v7.32A.31.31,0,0,1,701.93,188.74Z"/><circle class="cls-77" cx="711.8" cy="206.92" r="6.81" transform="translate(62.16 563.92) rotate(-45)"/><path class="cls-78" d="M717.34,206.92a5.55,5.55,0,1,1-5.54-5.54A5.54,5.54,0,0,1,717.34,206.92Z"/><path class="cls-77" d="M711.88,209.73c-1.46,0-2.24-.58-2.32-1.74h1c0,.65.45,1,1.34,1a1.64,1.64,0,0,0,.52-.07,1.12,1.12,0,0,0,.38-.17.77.77,0,0,0,.23-.28.63.63,0,0,0,.08-.34.68.68,0,0,0-.06-.31.48.48,0,0,0-.23-.21,2.06,2.06,0,0,0-.47-.17l-.8-.22c-.31-.08-.59-.16-.82-.24a1.89,1.89,0,0,1-.57-.28,1,1,0,0,1-.33-.42,1.6,1.6,0,0,1-.1-.63,1.3,1.3,0,0,1,.14-.61,1.33,1.33,0,0,1,.4-.49,1.88,1.88,0,0,1,.63-.33,3,3,0,0,1,.83-.11c1.41,0,2.13.5,2.15,1.5h-.94c0-.5-.41-.75-1.14-.75a1.64,1.64,0,0,0-.45,0,1.21,1.21,0,0,0-.35.13.76.76,0,0,0-.24.23.52.52,0,0,0-.08.3.62.62,0,0,0,0,.26.38.38,0,0,0,.19.19,1.83,1.83,0,0,0,.44.17c.19.06.46.13.8.21s.61.16.85.24a2.4,2.4,0,0,1,.6.31,1.24,1.24,0,0,1,.35.44,1.76,1.76,0,0,1,.11.65,1.53,1.53,0,0,1-.15.67,1.49,1.49,0,0,1-.43.54,1.84,1.84,0,0,1-.68.36A2.72,2.72,0,0,1,711.88,209.73Z"/><rect class="cls-77" x="711.58" y="202.96" width="0.61" height="7.94" rx="0.31" ry="0.31"/><path class="cls-79" d="M696,204.1a4.67,4.67,0,1,1-6.55-.83A4.67,4.67,0,0,1,696,204.1Z"/><path class="cls-62" d="M695.27,204.64a3.8,3.8,0,1,1-5.33-.68A3.79,3.79,0,0,1,695.27,204.64Z"/><path class="cls-79" d="M693.49,208.45c-.8.61-1.46.62-2,0l.53-.41c.27.35.65.34,1.13,0a1.25,1.25,0,0,0,.26-.25.7.7,0,0,0,.13-.26.49.49,0,0,0,0-.24.44.44,0,0,0-.1-.22.55.55,0,0,0-.16-.15.37.37,0,0,0-.21,0,1.47,1.47,0,0,0-.33.1l-.53.22-.54.22a1.46,1.46,0,0,1-.43.08.7.7,0,0,1-.35-.09,1.07,1.07,0,0,1-.32-.29.77.77,0,0,1-.18-.39.94.94,0,0,1,0-.44,1.23,1.23,0,0,1,.2-.44,1.93,1.93,0,0,1,.4-.41q1.15-.9,1.8-.09l-.51.4q-.34-.39-.93.06a1.61,1.61,0,0,0-.23.22.85.85,0,0,0-.13.22.44.44,0,0,0,0,.22.3.3,0,0,0,.08.2.53.53,0,0,0,.13.13.32.32,0,0,0,.18,0,1.4,1.4,0,0,0,.31-.09l.52-.22a4,4,0,0,1,.57-.23,1.56,1.56,0,0,1,.45-.09.69.69,0,0,1,.37.1,1,1,0,0,1,.34.3,1,1,0,0,1,.2.43,1.07,1.07,0,0,1,0,.47,1.44,1.44,0,0,1-.21.48A2,2,0,0,1,693.49,208.45Z"/><path class="cls-79" d="M694,209.07h0a.2.2,0,0,1-.29,0l-3.07-4a.21.21,0,0,1,0-.3h0a.22.22,0,0,1,.3,0l3.07,4A.2.2,0,0,1,694,209.07Z"/><path class="cls-79" d="M617.57,55.9a4.67,4.67,0,1,1-6.55-.83A4.67,4.67,0,0,1,617.57,55.9Z"/><path class="cls-62" d="M616.89,56.43a3.81,3.81,0,1,1-5.34-.67A3.82,3.82,0,0,1,616.89,56.43Z"/><path class="cls-79" d="M615.1,60.24c-.79.62-1.45.63-2,0l.52-.41c.28.35.65.34,1.14,0a1.22,1.22,0,0,0,.25-.26.6.6,0,0,0,.13-.25.54.54,0,0,0,0-.25.57.57,0,0,0-.11-.22.52.52,0,0,0-.16-.14.35.35,0,0,0-.21,0,1.47,1.47,0,0,0-.33.1l-.52.22a5.88,5.88,0,0,1-.55.21,1.23,1.23,0,0,1-.43.09.73.73,0,0,1-.35-.09,1.1,1.1,0,0,1-.32-.3.88.88,0,0,1-.18-.39.9.9,0,0,1,0-.43,1.34,1.34,0,0,1,.2-.44,2,2,0,0,1,.41-.42c.76-.59,1.36-.62,1.79-.08l-.51.39c-.23-.25-.54-.23-.93.07a1.14,1.14,0,0,0-.22.22.74.74,0,0,0-.14.22.42.42,0,0,0,0,.22.32.32,0,0,0,.08.2.53.53,0,0,0,.13.13.33.33,0,0,0,.18,0,1.4,1.4,0,0,0,.31-.09c.14-.05.31-.13.53-.23a4.59,4.59,0,0,1,.56-.22,1.33,1.33,0,0,1,.45-.09.82.82,0,0,1,.38.09,1.34,1.34,0,0,1,.33.31,1,1,0,0,1,.2.43,1.24,1.24,0,0,1,0,.47,1.47,1.47,0,0,1-.22.48A1.79,1.79,0,0,1,615.1,60.24Z"/><path class="cls-79" d="M615.6,60.87h0a.21.21,0,0,1-.3,0l-3.07-4a.21.21,0,0,1,0-.3h0a.21.21,0,0,1,.29,0l3.07,4A.21.21,0,0,1,615.6,60.87Z"/><path class="cls-79" d="M710.2,188.63a4.67,4.67,0,1,1-6.55-.83A4.67,4.67,0,0,1,710.2,188.63Z"/><path class="cls-62" d="M709.52,189.16a3.81,3.81,0,1,1-5.34-.67A3.82,3.82,0,0,1,709.52,189.16Z"/><path class="cls-79" d="M707.73,193q-1.18.92-2,0l.52-.41c.28.35.65.34,1.14,0a1.47,1.47,0,0,0,.25-.25.7.7,0,0,0,.13-.26.5.5,0,0,0,0-.24.46.46,0,0,0-.11-.22.45.45,0,0,0-.16-.15.35.35,0,0,0-.21,0,1.47,1.47,0,0,0-.33.1l-.52.22a5.88,5.88,0,0,1-.55.21,1.23,1.23,0,0,1-.43.09.73.73,0,0,1-.35-.09,1.2,1.2,0,0,1-.32-.29,1,1,0,0,1-.18-.39.94.94,0,0,1,0-.44,1.23,1.23,0,0,1,.2-.44,1.77,1.77,0,0,1,.41-.41c.76-.6,1.36-.63,1.79-.09l-.51.39c-.23-.25-.54-.23-.93.07a1.14,1.14,0,0,0-.22.22.9.9,0,0,0-.14.22.44.44,0,0,0,0,.22.32.32,0,0,0,.08.2.53.53,0,0,0,.13.13.32.32,0,0,0,.18,0,1.4,1.4,0,0,0,.31-.09l.52-.23a5.41,5.41,0,0,1,.57-.22,1.29,1.29,0,0,1,.45-.09.72.72,0,0,1,.38.1,1.12,1.12,0,0,1,.33.3,1,1,0,0,1,.2.43,1.24,1.24,0,0,1,0,.47,1.47,1.47,0,0,1-.22.48A2,2,0,0,1,707.73,193Z"/><path class="cls-79" d="M708.23,193.6h0a.22.22,0,0,1-.3,0l-3.07-4a.22.22,0,0,1,0-.3h0a.22.22,0,0,1,.3,0l3.07,4A.21.21,0,0,1,708.23,193.6Z"/><path class="cls-80" d="M797.15,53.9a1.76,1.76,0,0,1-1.39-.44c-.41-.48-.3-1.21-.13-2.41,0-.32.1-.67.15-1.06a5.78,5.78,0,0,1,.27-1.27l-.14-.27a2.29,2.29,0,0,1,.08-2.3,5.08,5.08,0,0,1,2.9-2.27h0a15.26,15.26,0,0,1,2.62.62c1.06.29,2.46.68,3.17.79a7.16,7.16,0,0,1,.41-2.37,5.37,5.37,0,0,1,2.57-3.29,2.62,2.62,0,0,1,1-.23c1,0,1.58.73,2.2,1.5a5.84,5.84,0,0,0,2,1.83c2.84,1.35.64,6.34.54,6.55l-.07.17-8.14,3a53.76,53.76,0,0,1-7.06,1.36C797.78,53.88,797.44,53.9,797.15,53.9Z"/><path class="cls-81" d="M813.07,49.11s2.15-4.8-.33-6-2.65-4.07-4.91-3.1-3,5-2.64,5.62-5.65-1.37-6.28-1.34-3.68,2-2.62,3.94l.94,1.73s-.63-3-1,.06-.88,3.63,1.94,3.37a55.89,55.89,0,0,0,6.94-1.34Z"/><path class="cls-82" d="M809.67,62c-1.44,0-2.95-2.19-4.88-5l-.8-1.16c-.7-1-1.52-2.32-2.38-3.71-1.74-2.82-3.71-6-5.08-7.07-2-1.56-2.45-3.24-3.09-5.8l-.23-.92c-.79-3.06-3.19-9.89-3.21-10l-.19-.55,12.4-.69.14.17c3.49,4.05,10.54,12,12.27,13,2.46,1.47,2,6.76,2,7l0,.33-4.77.86V48a12.88,12.88,0,0,0-1.45-5.26c-.41-.78-.86-.78-1-.78-.94,0-2.16,1.25-2.69,1.91.56,2,2,6.57,2.84,7.69l.64.8c1.52,1.9,3.81,4.78,3.92,6.7.1,1.77-1.34,2.75-4.27,2.91Z"/><path class="cls-83" d="M808.4,84a4.3,4.3,0,0,1-4.22-3.48l-5-26.09a4.3,4.3,0,0,1,3.4-5L815.05,47a4.45,4.45,0,0,1,.81-.08,4.3,4.3,0,0,1,4.21,3.48l5,26.1a4.3,4.3,0,0,1-3.39,5L809.21,84A4.36,4.36,0,0,1,808.4,84Z"/><rect class="cls-84" x="801.91" y="48.33" width="20.44" height="34.29" rx="3.86" ry="3.86" transform="translate(2.3 155.06) rotate(-10.92)"/><path class="cls-85" d="M804.92,49.41l5-1,6.46,33.46a1.52,1.52,0,0,1,0,.21l-5,1a1.17,1.17,0,0,1-.06-.2Z"/><rect class="cls-86" x="814.7" y="50.1" width="1.42" height="26.89" transform="translate(2.73 155.67) rotate(-10.92)"/><rect class="cls-86" x="816.36" y="49.63" width="1.42" height="11.03" transform="translate(4.35 155.79) rotate(-10.92)"/><path class="cls-73" d="M802,27.62l-11.61.64s2.42,6.88,3.22,10,1,4.85,3.17,6.49,5.41,7.83,7.54,10.87,4,6,5.38,6,4-.36,3.87-2.46-3.34-5.78-4.47-7.26-3-8-3-8,3.07-4.1,4.57-1.24A13.09,13.09,0,0,1,812.2,48l3.94-.71s.5-5.22-1.75-6.57S802,27.62,802,27.62Z"/><polygon class="cls-87" points="787.22 25.14 802.17 21.9 803.92 28.77 790.65 32.17 787.22 25.14"/><polygon class="cls-21" points="790.84 31.77 787.73 25.39 801.92 22.31 803.5 28.52 790.84 31.77"/><polygon class="cls-88" points="775.75 1.41 797.79 1.41 802.33 22.57 787.53 25.79 775.75 1.41"/><polygon class="cls-89" points="787.73 25.39 776.14 1.41 797.49 1.41 801.92 22.31 787.73 25.39"/><path class="cls-90" d="M679.67,162a4.32,4.32,0,1,1-1.24-6A4.33,4.33,0,0,1,679.67,162Z"/><path class="cls-90" d="M674.37,151.25s3.87-.34,6.35,1.33a8.28,8.28,0,0,1,3.78,5.83,2.64,2.64,0,0,0,2.75,1.55,2.47,2.47,0,0,0,2.15-2.69c-.15-.64-1.33-5.92-5.95-8.84s-9-2.56-10.74-1.88c0,0-2.13,1.56-1.37,3.12A2.88,2.88,0,0,0,674.37,151.25Z"/><path class="cls-90" d="M670.09,136.48s-2.29.93-1.5,3a2.61,2.61,0,0,0,2.71,1.78s8.11-1.81,15,2.87,8.59,13,8.59,13a2.89,2.89,0,0,0,3.16,1.55c2.31-.84,1.75-2.66,1.75-2.66s-2-10.69-10.71-16.1A26.73,26.73,0,0,0,670.09,136.48Z"/><path class="cls-90" d="M665.5,129.12a2.64,2.64,0,0,1,1.75-2.65c2-.77,14.5-3.31,27.33,5.06a36.15,36.15,0,0,1,15.58,23.73,2.29,2.29,0,0,1-2.08,1.9,2.74,2.74,0,0,1-2.76-1.31,1.09,1.09,0,0,1-.16-.4,31.26,31.26,0,0,0-13.65-19.93,33,33,0,0,0-23.8-4.31A2.7,2.7,0,0,1,665.5,129.12Z"/><rect class="cls-91" x="765.09" y="206.15" width="2.75" height="8.76"/><path class="cls-68" d="M708.41,262.13l-2.61-.07c.12-4.32,1.52-7.74,4.18-10.17a12.12,12.12,0,0,1,8.15-3.07l63.33-.46h0c3,.19,11.48.07,14.57-2.75a3.11,3.11,0,0,0,1.1-2.27,2.8,2.8,0,0,0-.9-2.13c-3-3.06-12.28-3.56-15.59-3.5H750.87a19.43,19.43,0,0,1-12.59-4.48c-3.67-3.12-5.35-7-4.86-11.3,0-.35.08-.69.14-1a14.33,14.33,0,0,1,14-11.82l17.53-.35,0,2.6-17.52.36a11.72,11.72,0,0,0-11.47,9.64c0,.28-.09.58-.12.88-.39,3.42.94,6.46,4,9a16.8,16.8,0,0,0,10.9,3.87h29.79c.5,0,13-.2,17.46,4.27a5.33,5.33,0,0,1,1.65,4,5.63,5.63,0,0,1-1.95,4.12c-4.44,4-15.49,3.48-16.44,3.42l-63.23.46a9.57,9.57,0,0,0-6.41,2.39C709.62,255.75,708.5,258.55,708.41,262.13Z"/><path class="cls-92" d="M876.72,58.46a3.42,3.42,0,0,1-.46,0c-1.78-.32-4.14-10.31-5.07-14.59-.16-.71-.62-2.85,9.25-9.35,3.61-2.38,14.53-3.72,15-3.77l.27,0,6.13,9.46v.1c.56,4.43-7.8,10.59-9.29,11.37A33.91,33.91,0,0,0,889,54.26c-2.57,2.05-4.33,3.41-5.18,3.62l-.18,0a3.48,3.48,0,0,1-.71.14h0a.53.53,0,0,1-.41-.17.73.73,0,0,1-.16-.59,3,3,0,0,0-.09-.94c-.39-1.56,1.15-4.46,1.32-4.79.28-.6,2.52-8.8,2.31-10.15,0-.32-.71-.51-1.74-.51a16.21,16.21,0,0,0-2.52.25c-.52.48-3.18,2.91-3.89,3.67-.36.68,1.21,5.65,1.88,7.77.32,1,.57,1.82.69,2.28a2.33,2.33,0,0,1-.5,2A4.18,4.18,0,0,1,876.72,58.46Z"/><path class="cls-46" d="M884,51.79s-1.65,3-1.29,4.47-.41,1.56,1,1.2,7-5.4,8.64-6.24,9.58-6.83,9.06-10.93l-5.93-9.15s-11.24,1.35-14.8,3.7-9.57,6.61-9.07,8.89,3.2,14,4.73,14.26,4-1.22,3.55-3-3.28-9.59-2.47-10.45,4-3.77,4-3.77,4.66-1,4.89.6S884.19,51.35,884,51.79Z"/><path class="cls-93" d="M873.08,63,885.77,37.5h.28a5.64,5.64,0,0,1,4.71,2.63l.12.21L877.07,65.86Z"/><path class="cls-94" d="M876.93,65.22l13.45-24.87A5.23,5.23,0,0,0,886,37.94l-12.41,25Z"/><path class="cls-95" d="M872,68.09l1.29-5.69.4.06c.15,0,3.69.62,3.66,2.77v.2l-4.14,3.39Z"/><path class="cls-62" d="M876.93,65.22l-3.74,3.07-.69-.41,1.13-5S877,63.42,876.93,65.22Z"/><path class="cls-94" d="M873.19,68.29s-.82,1-1.09,1.1.4-1.51.4-1.51S873,67.53,873.19,68.29Z"/><path class="cls-96" d="M885.43,38.1l2.08-3.35.13,0a2.33,2.33,0,0,1,.91-.15,3.86,3.86,0,0,1,1.56.34c1.51.65,1.7,2.75,1.71,2.84v.11L890.61,41Z"/><path class="cls-97" d="M890.38,40.35l1-2.58s-.17-1.92-1.45-2.48a2.88,2.88,0,0,0-2.13-.19L886,37.94Z"/><polygon class="cls-98" points="895.48 31.14 903.08 25.01 910.32 36.45 901.36 41.38 895.48 31.14"/><polygon class="cls-99" points="902.54 24.96 923.92 1.41 953.72 1.41 910.22 37.1 902.54 24.96"/><polygon class="cls-100" points="903.08 25.01 924.51 1.41 953.03 1.41 910.32 36.45 903.08 25.01"/><rect class="cls-101" x="746.34" y="40.09" width="10.8" height="9.4" rx="2.33" ry="2.33" transform="translate(94.08 -322.1) rotate(25.75)"/><path class="cls-102" d="M755,46.25a1.94,1.94,0,1,1-.91-2.59A1.95,1.95,0,0,1,755,46.25Z"/><path class="cls-103" d="M754.06,45.8a.9.9,0,1,1-.42-1.2A.89.89,0,0,1,754.06,45.8Z"/><path class="cls-32" d="M890.38,12.89a5.53,5.53,0,1,0,5.53,5.53A5.54,5.54,0,0,0,890.38,12.89Zm0,10a4.44,4.44,0,1,1,4.44-4.44A4.44,4.44,0,0,1,890.38,22.86Z"/><path class="cls-32" d="M891,19.33c.66-.45,1.49-1.25,1-2.13s-1.54-1-2.44-1a2.12,2.12,0,0,0-1.66.67c-.35.48.29.66.66.66s.7,0,.94.36a.68.68,0,0,1-.07.77c-.3.2-.78.66-.24.9a2.16,2.16,0,0,0,1.78-.25Z"/><path class="cls-104" d="M917.33,171.69c2.88-10.64-4.27-17.1-6.69-18.93h0l-.38-.27-.39-.26h0c-2.55-1.64-11.09-6.12-20.08.27a22.9,22.9,0,0,0-7.73,20.1s-.59,5.9-2.49,8.09-.06,3.77,5.64,7.74h0c5.7,4,7.82,5.16,9.22,2.62s6.72-5.14,6.72-5.14A22.89,22.89,0,0,0,917.33,171.69Z"/><path class="cls-105" d="M879.68,184.05s-.86-.3-1.07.18a3,3,0,0,0,0,1.38l11.84,8.25,1-.48a1,1,0,0,0-.18-1.28Z"/><path class="cls-105" d="M878.7,185.46s-.85-.31-1.07.18a3,3,0,0,0,0,1.38l11.84,8.25,1-.49a1,1,0,0,0-.18-1.28Z"/><path class="cls-105" d="M877.84,187.06s-.85-.31-1.07.18a2.91,2.91,0,0,0,0,1.38l11.83,8.25,1-.48a1,1,0,0,0-.18-1.29Z"/><path class="cls-105" d="M876.92,188.38s-.86-.3-1.07.18a3,3,0,0,0,0,1.38l11.84,8.25,1-.48a1,1,0,0,0-.18-1.28Z"/><path class="cls-105" d="M876.09,189.58s-.86-.31-1.07.18a3,3,0,0,0,0,1.38l11.83,8.25,1-.49a1,1,0,0,0-.17-1.28Z"/><path class="cls-105" d="M875.4,190.56s-.85-.31-1.07.18a3,3,0,0,0,0,1.38l11.84,8.25,1-.48a1,1,0,0,0-.18-1.29Z"/><path class="cls-105" d="M874.86,191.34s-.86-.31-1.07.18a3,3,0,0,0,0,1.38l11.83,8.25,1-.48a1.05,1.05,0,0,0-.18-1.29Z"/><path class="cls-105" d="M874.31,192.12s-.85-.31-1.06.18a2.81,2.81,0,0,0,0,1.38l11.83,8.25,1-.48a1,1,0,0,0-.18-1.29Z"/><g class="cls-106"><path class="cls-107" d="M884.68,187.54l5.17-7.42s2.78-1.07,2.74,1.91l-5.17,7.42Z"/></g><g class="cls-106"><polygon class="cls-107" points="891.25 180.07 892.77 177.88 893.67 178.51 892.07 180.81 891.25 180.07"/></g><polygon class="cls-108" points="873.23 193.68 873.67 196.05 882.47 202.18 885.06 201.93 873.23 193.68"/><path class="cls-109" d="M891.85,157.07s7.6-2.22,13.77,2.53a13.67,13.67,0,0,1,5.19,14.52s10-7.13.06-17.28a12.61,12.61,0,0,0-6.08-3.58C897.46,151.52,891.85,157.07,891.85,157.07Z"/></g></g></g></svg>