<svg id="Layer_1" data-name="Layer 1" xmlns="http://www.w3.org/2000/svg" viewBox="0 0 61.13 53.49"><title>firsthub</title><g id="stack"><path d="M896.83,552.48l-7.64-28.67a3.83,3.83,0,0,0-3.67-2.77H847.31a3.83,3.83,0,0,0-3.67,2.77L836,552.48a3.89,3.89,0,0,0-.15,1v13.37a7.64,7.64,0,0,0,7.64,7.64h45.85a7.64,7.64,0,0,0,7.64-7.64V553.52A3.89,3.89,0,0,0,896.83,552.48Zm-3.67,14.41a3.83,3.83,0,0,1-3.82,3.82H843.49a3.83,3.83,0,0,1-3.82-3.82V553.52l7.64-28.66h38.2l7.64,28.66Z" transform="translate(-835.85 -521.04)" fill="#222"/><path d="M881.2,528.69H851.62a1.91,1.91,0,0,0-1.85,1.42L843.19,553a1.91,1.91,0,0,0,1.85,2.4h8.73l2.76,5.53a3.82,3.82,0,0,0,3.42,2.11h12.92a3.82,3.82,0,0,0,3.42-2.11l2.76-5.53h8.73a1.91,1.91,0,0,0,1.85-2.4L883,530.1A1.91,1.91,0,0,0,881.2,528.69Zm1,22.92h-3.18a3.8,3.8,0,0,0-3.42,2.11l-2.76,5.53H859.95l-2.76-5.53a3.8,3.8,0,0,0-3.42-2.11H846l5.59-21H881.2l5.59,21Z" transform="translate(-835.85 -521.04)" fill="#222"/></g></svg>