<svg id="Layer_1" data-name="Layer 1" xmlns="http://www.w3.org/2000/svg" viewBox="0 0 61.13 61.13"><title>sechub</title><path id="usericon" d="M1272.67,566.53a55.79,55.79,0,0,0-17.71-7.06,43.37,43.37,0,0,0,7.28-15.61c1.44-6,.88-17.67-4.86-25a17.41,17.41,0,0,0-27.14,0c-5.74,7.28-6.3,19-4.86,25a43.37,43.37,0,0,0,7.28,15.61,55.79,55.79,0,0,0-17.71,7.06,3.82,3.82,0,0,0,2.12,7h53.49a3.82,3.82,0,0,0,2.12-7ZM1252,557.1l-.62.79c-4.56,5.23-10.5,5.23-15.05,0l-.62-.79a32.65,32.65,0,0,1-6.82-24.16c1-8.17,5.73-16.71,15-16.71s13.93,8.54,15,16.71A32.66,32.66,0,0,1,1252,557.1Zm-34.89,12.61a52,52,0,0,1,16.4-6.51l4.75-1a9.58,9.58,0,0,0,11.19,0l4.75,1a52.05,52.05,0,0,1,16.4,6.51Z" transform="translate(-1213.25 -512.4)" fill="#222"/></svg>