<svg id="Layer_1" data-name="Layer 1" xmlns="http://www.w3.org/2000/svg" viewBox="0 0 61.13 57.3"><title>hub3</title><g id="monitor"><path d="M906.22,638.86h-42a1.9,1.9,0,0,0-1.91,1.9v26.74a1.91,1.91,0,0,0,1.91,1.91h42a1.91,1.91,0,0,0,1.91-1.91V640.77A1.91,1.91,0,0,0,906.22,638.86Zm0,28.66h-42V640.77h42Z" transform="translate(-854.65 -631.23)" fill="#222"/><path d="M910,631.23H860.38a5.73,5.73,0,0,0-5.73,5.73v38.21a5.73,5.73,0,0,0,5.71,5.73h19.12v2.32l-11.92,1.55a1.91,1.91,0,0,0,.46,3.76H902.4a1.91,1.91,0,0,0,.46-3.76l-11.92-1.55V680.9h19.12a5.73,5.73,0,0,0,5.71-5.73V637A5.73,5.73,0,0,0,910,631.23ZM912,675.17a1.91,1.91,0,0,1-1.91,1.91H860.38a1.91,1.91,0,0,1-1.91-1.91V637a1.91,1.91,0,0,1,1.91-1.91H910A1.91,1.91,0,0,1,912,637Z" transform="translate(-854.65 -631.23)" fill="#222"/></g></svg>