<svg id="Layer_1" data-name="Layer 1" xmlns="http://www.w3.org/2000/svg" viewBox="0 0 59.22 59.22"><title>4</title><path id="world" d="M1194.61,372.31a29.61,29.61,0,1,0,29.61,29.61A29.61,29.61,0,0,0,1194.61,372.31ZM1220.35,401H1208.9a38,38,0,0,0-2.19-12,31.34,31.34,0,0,0,7.14-4.2A25.64,25.64,0,0,1,1220.35,401Zm-26.8,26.69a30.45,30.45,0,0,1-7.79-10.06,29.58,29.58,0,0,1,7.89-1.3v11.36Zm2.11-51.47a30.85,30.85,0,0,1,8.53,11.7,29.55,29.55,0,0,1-8.63,1.57V376.18Zm3.18.32a25.71,25.71,0,0,1,13.69,6.9,29.26,29.26,0,0,1-6.55,3.82A33.6,33.6,0,0,0,1198.85,376.51Zm-5.19-.33v13.27a29.55,29.55,0,0,1-8.63-1.57,30.85,30.85,0,0,1,8.53-11.7Zm-10.42,11.05a29.26,29.26,0,0,1-6.55-3.82,25.71,25.71,0,0,1,13.69-6.9A33.6,33.6,0,0,0,1183.24,387.23Zm1.07,2.42a31.35,31.35,0,0,0,9.35,1.72V401h-11.42A36.12,36.12,0,0,1,1184.31,389.65Zm9.35,13.23v11.51a31.36,31.36,0,0,0-8.67,1.47,35.85,35.85,0,0,1-2.75-13Zm-3.28,24.45a25.67,25.67,0,0,1-12.5-5.83,29.14,29.14,0,0,1,6.09-3.25A33.08,33.08,0,0,0,1190.38,427.33Zm5.19.33V416.3a29.58,29.58,0,0,1,7.89,1.3,30.45,30.45,0,0,1-7.79,10.06Zm9.69-9.41a29.14,29.14,0,0,1,6.09,3.25,25.67,25.67,0,0,1-12.5,5.83A33.08,33.08,0,0,0,1205.26,418.25Zm-1-2.4a31.36,31.36,0,0,0-8.67-1.47V402.88H1207A35.85,35.85,0,0,1,1204.24,415.86ZM1195.57,401v-9.6a31.35,31.35,0,0,0,9.35-1.72A36.12,36.12,0,0,1,1207,401Zm-20.18-16.17a31.34,31.34,0,0,0,7.14,4.2,38,38,0,0,0-2.19,12h-11.45A25.64,25.64,0,0,1,1175.38,384.8Zm-6.51,18.08h11.45a37.69,37.69,0,0,0,2.87,13.63,31.09,31.09,0,0,0-6.76,3.69A25.71,25.71,0,0,1,1168.87,402.88Zm43.91,17.32a31.09,31.09,0,0,0-6.76-3.69,37.69,37.69,0,0,0,2.87-13.63h11.45A25.7,25.7,0,0,1,1212.78,420.2Z" transform="translate(-1165 -372.31)" fill="#222"/></svg>