<svg id="Layer_1" data-name="Layer 1" xmlns="http://www.w3.org/2000/svg" viewBox="0 0 61.13 59.22"><title>hub5</title><g id="vallet"><circle cx="34.38" cy="36.29" r="3.82" fill="#222"/><path d="M660.25,341.67h0V324.48a5.73,5.73,0,0,0-5.73-5.73H615.35a10.52,10.52,0,0,0-10.51,10.51v38.21A10.52,10.52,0,0,0,615.35,378h34.38a10.52,10.52,0,0,0,10.51-10.51v-2.87h0A14.33,14.33,0,0,0,660.25,341.67Zm-44.89-19.1h39.16a1.91,1.91,0,0,1,1.91,1.91v11.81a5.7,5.7,0,0,0-1.91-.35h0v-9.55a1.91,1.91,0,0,0-1.91-1.91H612.49a1.91,1.91,0,0,0-1.91,1.91v7.53a6.68,6.68,0,0,1,4.78-11.35Zm37.25,5.73H612.49v-1.91H652.6Zm0,1.91v1.91H612.49v-1.91Zm0,3.82v1.91H615.35a6.63,6.63,0,0,1-2.87-.67V334Zm3.82,33.43a6.69,6.69,0,0,1-6.69,6.69H615.35a6.69,6.69,0,0,1-6.69-6.69V337.35a10.46,10.46,0,0,0,6.69,2.41h39.16a1.91,1.91,0,0,1,1.91,1.91v3.82H639.23a9.55,9.55,0,1,0,0,19.1h17.19Zm2.44-6.69H639.23a5.73,5.73,0,1,1,0-11.46h17.19a3.93,3.93,0,0,0,3.06-1.54,3.84,3.84,0,0,0,.48-.88s0-.07.06-.12a10.53,10.53,0,0,1-1.16,14Z" transform="translate(-604.85 -318.75)" fill="#222"/></g></svg>