<svg id="Layer_1" data-name="Layer 1" xmlns="http://www.w3.org/2000/svg" viewBox="0 0 61.13 61.13"><title>6</title><g id="lab"><path d="M1135.95,505.88a4.77,4.77,0,0,0-6.75,0l-2.7,2.7a4.78,4.78,0,0,0-.69,5.89l-25.93,10.39a5.73,5.73,0,0,0-1.73,9.31l24.3,24a5.69,5.69,0,0,0,3.91,1.68h.15a5.78,5.78,0,0,0,1.17-.12,5.7,5.7,0,0,0,4.16-3.49l10.2-25.55a4.77,4.77,0,0,0,6-.62l2.69-2.69a4.77,4.77,0,0,0,0-6.76Zm-7.69,49a1.91,1.91,0,0,1-3.13.65l-24.31-24a1.91,1.91,0,0,1,.58-3.1l11.88-4.76c8,2.66,16,.1,24,8.64ZM1148,524.69l-2.7,2.7a1,1,0,0,1-1.35,0l-3.38-3.37-2.74,6.86.23-.58c-5.75-5.74-11.59-6.46-16.87-7.11-1.69-.21-3.34-.43-5-.77l16.22-6.5-3.28-3.28a1,1,0,0,1,0-1.35l2.7-2.7a1,1,0,0,1,1.35,0L1148,523.34A1,1,0,0,1,1148,524.69Z" transform="translate(-1096.44 -498.75)" fill="#222"/><path d="M1128,538.86a4.78,4.78,0,1,0-4.78-4.78A4.78,4.78,0,0,0,1128,538.86Zm0-7.64a2.87,2.87,0,1,1-2.87,2.87A2.87,2.87,0,0,1,1128,531.22Z" transform="translate(-1096.44 -498.75)" fill="#222"/><path d="M1152.79,498.75a4.78,4.78,0,1,0,4.78,4.78A4.78,4.78,0,0,0,1152.79,498.75Zm0,7.64a2.87,2.87,0,1,1,2.87-2.87A2.87,2.87,0,0,1,1152.79,506.39Z" transform="translate(-1096.44 -498.75)" fill="#222"/><path d="M1111.72,531.22a3.82,3.82,0,1,0,3.82-3.82A3.82,3.82,0,0,0,1111.72,531.22Zm3.82-1.91a1.91,1.91,0,1,1-1.91,1.91A1.91,1.91,0,0,1,1115.54,529.31Z" transform="translate(-1096.44 -498.75)" fill="#222"/><circle cx="24.83" cy="43.94" r="1.91" fill="#222"/><circle cx="55.4" cy="15.28" r="1.91" fill="#222"/></g></svg>