<svg id="Layer_1" data-name="Layer 1" xmlns="http://www.w3.org/2000/svg" viewBox="0 0 61.13 61.13"><title>7</title><path id="megaphone" d="M600.29,247.75c-3.92,0-7,2.69-9.22,6.85l0,0c-3.21,6.29-8,10.36-13.24,10.36H560.18c-4.29,0-7.64,4.2-7.64,9.55s3.35,9.55,7.64,9.55a3.82,3.82,0,0,1,3.81,3.82v17.19a3.82,3.82,0,0,0,3.82,3.82h7.64a3.82,3.82,0,0,0,3.82-3.82v-1.91c0-1.91-1.91-2.76-1.91-3.82V286s0-.07,0-.12a1.84,1.84,0,0,1,.22-.75,1.32,1.32,0,0,1,.11-.17,1.88,1.88,0,0,1,.58-.56l0,0h0a2.28,2.28,0,0,1,.51-.15c4.82.51,9.19,4.4,12.18,10.26l0,0c2.22,4.14,5.29,6.83,9.21,6.83,8.78,0,13.37-13.45,13.37-26.74S609.07,247.75,600.29,247.75Zm-9.55,26.74a53.44,53.44,0,0,1,.31-5.73h5.42c2.11,0,3.82,2.57,3.82,5.73s-1.71,5.73-3.82,5.73h-5.42A53.38,53.38,0,0,1,590.74,274.49Zm-34.38,0c0-3.16,1.71-5.73,3.82-5.73h13.4a9.45,9.45,0,0,0,0,11.46h-13.4C558.06,280.22,556.36,277.66,556.36,274.49Zm19.09,30.56h-7.64V287.86a7.59,7.59,0,0,0-1-3.82h1.34v0h5.75a5.74,5.74,0,0,0-.32,1.89v13.37a5.77,5.77,0,0,0,1.64,3.79c.09.1.18.21.27.32Zm2.35-24.81h-.43v0c-2.11,0-3.82-2.56-3.82-5.73s1.71-5.73,3.82-5.73h.43a15.63,15.63,0,0,0,9.95-3.85,56.15,56.15,0,0,0,0,19.2A15.62,15.62,0,0,0,577.8,280.24Zm22.49,17.17c-3.85,0-7.16-5.48-8.67-13.37h4.85c4.28,0,7.64-4.19,7.64-9.55s-3.36-9.55-7.64-9.55h-4.85c1.51-7.88,4.82-13.37,8.67-13.37,5.28,0,9.55,10.26,9.55,22.92S605.57,297.41,600.29,297.41Z" transform="translate(-552.54 -247.75)" fill="#222"/></svg>