<svg id="Layer_1" data-name="Layer 1" xmlns="http://www.w3.org/2000/svg" viewBox="0 0 61.13 61.13"><title>8</title><g id="news"><path d="M1274.38,555.75h-42a5.73,5.73,0,0,0-5.73,5.73v3.82h-1.91A5.73,5.73,0,0,0,1219,571v38.21a7.64,7.64,0,0,0,7.64,7.64h45.85a7.64,7.64,0,0,0,7.64-7.64V561.48A5.73,5.73,0,0,0,1274.38,555.75Zm1.91,53.49a3.83,3.83,0,0,1-3.82,3.82h-45.85a3.83,3.83,0,0,1-3.82-3.82V571a1.91,1.91,0,0,1,1.91-1.91h1.91v38.21a1.91,1.91,0,1,0,3.82,0V561.48a1.91,1.91,0,0,1,1.91-1.91h42a1.91,1.91,0,0,1,1.91,1.91Z" transform="translate(-1218.98 -555.75)" fill="#222" fill-rule="evenodd"/><path d="M1256.23,580.59h15.28a1,1,0,0,0,0-1.91h-15.28a1,1,0,0,0,0,1.91Z" transform="translate(-1218.98 -555.75)" fill="#222" fill-rule="evenodd"/><path d="M1256.23,574.86h15.28a1,1,0,0,0,0-1.91h-15.28a1,1,0,0,0,0,1.91Z" transform="translate(-1218.98 -555.75)" fill="#222" fill-rule="evenodd"/><path d="M1256.23,569.13h15.28a1,1,0,0,0,0-1.91h-15.28a1,1,0,0,0,0,1.91Z" transform="translate(-1218.98 -555.75)" fill="#222" fill-rule="evenodd"/><path d="M1250.5,607.33h-15.28a1,1,0,0,0,0,1.91h15.28a1,1,0,0,0,0-1.91Z" transform="translate(-1218.98 -555.75)" fill="#222" fill-rule="evenodd"/><path d="M1250.5,601.6h-15.28a1,1,0,0,0,0,1.91h15.28a1,1,0,0,0,0-1.91Z" transform="translate(-1218.98 -555.75)" fill="#222" fill-rule="evenodd"/><path d="M1250.5,595.87h-15.28a1,1,0,0,0,0,1.91h15.28a1,1,0,0,0,0-1.91Z" transform="translate(-1218.98 -555.75)" fill="#222" fill-rule="evenodd"/><path d="M1271.51,607.33h-15.28a1,1,0,0,0,0,1.91h15.28a1,1,0,0,0,0-1.91Z" transform="translate(-1218.98 -555.75)" fill="#222" fill-rule="evenodd"/><path d="M1271.51,601.6h-15.28a1,1,0,0,0,0,1.91h15.28a1,1,0,0,0,0-1.91Z" transform="translate(-1218.98 -555.75)" fill="#222" fill-rule="evenodd"/><path d="M1271.51,595.87h-15.28a1,1,0,0,0,0,1.91h15.28a1,1,0,0,0,0-1.91Z" transform="translate(-1218.98 -555.75)" fill="#222" fill-rule="evenodd"/><path d="M1271.51,584.41h-36.29a1,1,0,0,0,0,1.91h36.29a1,1,0,0,0,0-1.91Z" transform="translate(-1218.98 -555.75)" fill="#222" fill-rule="evenodd"/><path d="M1271.51,590.14h-36.29a1,1,0,0,0,0,1.91h36.29a1,1,0,0,0,0-1.91Z" transform="translate(-1218.98 -555.75)" fill="#222" fill-rule="evenodd"/><path d="M1236.17,580.58h13.37a1.91,1.91,0,0,0,1.91-1.91V565.31a1.91,1.91,0,0,0-1.91-1.91h-13.37a1.91,1.91,0,0,0-1.91,1.91v13.36A1.91,1.91,0,0,0,1236.17,580.58Zm1.91-13.37h9.55v9.55h-9.55Z" transform="translate(-1218.98 -555.75)" fill="#222" fill-rule="evenodd"/></g></svg>