<svg xmlns="http://www.w3.org/2000/svg" viewBox="0 0 256.49 170.13"><defs><style>.cls-1{fill:#d91c5c;}.cls-2{fill:#fff;}</style></defs><title>Asset 9</title><g id="Layer_2" data-name="Layer 2"><g id="Layer_1-2" data-name="Layer 1"><path class="cls-1" d="M256.49,170.13V15.5A15.5,15.5,0,0,0,241,0H15.5A15.5,15.5,0,0,0,0,15.5V170.13Z"/><path class="cls-2" d="M169.62,94a8.45,8.45,0,0,0,1.77-5.6,9.74,9.74,0,0,0-1.75-5.82q-2.91-3.94-9.87-4.06H141.36v38.1h17.16a26.62,26.62,0,0,0,5.38-.52,10.58,10.58,0,0,0,4.31-1.91,10.33,10.33,0,0,0,2.69-3,11.07,11.07,0,0,0,1.7-6.07,10.11,10.11,0,0,0-1.48-5.59,8.54,8.54,0,0,0-4.4-3.36A8.82,8.82,0,0,0,169.62,94ZM149,85.13h8.28a14.48,14.48,0,0,1,4.5.59,3.41,3.41,0,0,1,2,3.52,3.61,3.61,0,0,1-1.55,3.35,7.73,7.73,0,0,1-4,.94H149Zm13.1,24.19a9,9,0,0,1-3.86.67H149V99.83h9.37a9.72,9.72,0,0,1,3.81.65,4.08,4.08,0,0,1,2.42,4.08C164.56,106.91,163.73,108.49,162.06,109.32Z"/><path class="cls-2" d="M103,78.51v23.42q0,6.07,1.88,9.46,3.54,6.19,13.42,6.2t13.39-6.2q1.88-3.39,1.88-9.46V78.51h-8.09v23.4a13.17,13.17,0,0,1-.93,5.73c-1,2.14-3,3.2-6.25,3.2s-5.32-1.06-6.29-3.2a13.35,13.35,0,0,1-.92-5.73V78.51Z"/><polygon class="cls-2" points="64.74 61.68 64.74 69.59 181.2 69.59 181.2 124.88 95.36 124.88 95.36 78.52 87.45 78.52 87.45 93.04 72.64 93.04 72.64 78.52 64.74 78.52 64.74 116.61 72.64 116.61 72.64 99.6 87.45 99.6 87.45 125.63 87.45 125.63 87.45 132.79 181.2 132.79 189.1 132.79 189.1 69.59 189.1 64.43 189.1 61.68 64.74 61.68"/><path class="cls-2" d="M76.27,55.77a6.34,6.34,0,0,0,2.25-1.68,6.9,6.9,0,0,0,1.34-2.53,10.85,10.85,0,0,0,.45-3.2,9.93,9.93,0,0,0-.55-3.44,6.6,6.6,0,0,0-1.51-2.44A6.14,6.14,0,0,0,76,41a8.05,8.05,0,0,0-2.85-.49H66.27V56.38h6.84A7.52,7.52,0,0,0,76.27,55.77Zm-6.51-2.32v-10h2.48a5.56,5.56,0,0,1,2.17.37,3.49,3.49,0,0,1,1.41,1,4.46,4.46,0,0,1,.77,1.66,9.48,9.48,0,0,1,.23,2.16,6.6,6.6,0,0,1-.33,2.23,4.25,4.25,0,0,1-.89,1.47,3.21,3.21,0,0,1-1.27.81,4.27,4.27,0,0,1-1.46.25Z"/><path class="cls-2" d="M91.63,56.73a7.36,7.36,0,0,0,5-1.56,6,6,0,0,0,1.8-4.79V40.52H94.92v9.86A4,4,0,0,1,94.21,53a3.24,3.24,0,0,1-2.58.83,4,4,0,0,1-1.7-.3,2.39,2.39,0,0,1-1-.77,2.52,2.52,0,0,1-.47-1.1,7.69,7.69,0,0,1-.11-1.27V40.52H84.88v9.86a6.07,6.07,0,0,0,1.77,4.8A7.27,7.27,0,0,0,91.63,56.73Z"/><path class="cls-2" d="M113.39,56.11a5.69,5.69,0,0,0,1.8-.82,4.11,4.11,0,0,0,1.25-1.43,4.84,4.84,0,0,0-.25-4.62A3.85,3.85,0,0,0,114,47.76a4,4,0,0,0,1.61-1.31,3.49,3.49,0,0,0,.54-2,4.28,4.28,0,0,0-.36-1.86,3,3,0,0,0-1-1.21,4.22,4.22,0,0,0-1.6-.66,10.07,10.07,0,0,0-2.06-.2h-7.46V56.38h7.68A8.08,8.08,0,0,0,113.39,56.11Zm-6.28-12.88h3.27a5.29,5.29,0,0,1,.9.08,2,2,0,0,1,.76.28,1.43,1.43,0,0,1,.54.55,1.89,1.89,0,0,1,.2.91,1.69,1.69,0,0,1-.6,1.45,2.55,2.55,0,0,1-1.54.44h-3.53Zm0,10.44V49.32h3.8a2.91,2.91,0,0,1,1.82.52,2,2,0,0,1,.69,1.74,2.15,2.15,0,0,1-.21,1,1.68,1.68,0,0,1-.57.64,2.52,2.52,0,0,1-.82.33,4.4,4.4,0,0,1-1,.1Z"/><path class="cls-2" d="M124.57,52.85h5.93l1.2,3.53h3.62l-5.93-15.86h-3.58l-6,15.86h3.51Zm3-8.42h0l2,5.82h-4.11Z"/><path class="cls-2" d="M142.41,50.18h3.48a2.62,2.62,0,0,1,1.89.58,3.13,3.13,0,0,1,.75,1.82c.09.64.16,1.3.2,2a6.37,6.37,0,0,0,.36,1.8h3.49a2.16,2.16,0,0,1-.37-.81,7.86,7.86,0,0,1-.18-1c0-.36-.06-.71-.07-1.05s0-.63-.05-.88a8.25,8.25,0,0,0-.17-1.2,4.2,4.2,0,0,0-.38-1.1,3,3,0,0,0-.69-.87,2.77,2.77,0,0,0-1.07-.54v-.05a3.65,3.65,0,0,0,1.92-1.55,4.79,4.79,0,0,0,.59-2.42,4.51,4.51,0,0,0-.32-1.7,4.24,4.24,0,0,0-.93-1.39,4.31,4.31,0,0,0-1.47-.94,5.09,5.09,0,0,0-1.92-.35h-8.55V56.38h3.49Zm0-7h3.82a2.66,2.66,0,0,1,1.79.52,2.12,2.12,0,0,1,.6,1.68,2.2,2.2,0,0,1-.6,1.73,2.61,2.61,0,0,1-1.79.53h-3.82Z"/><path class="cls-2" d="M160.26,52.85h5.93l1.2,3.53H171l-5.93-15.86h-3.57l-6,15.86H159Zm3-8.42h0l2,5.82h-4.11Z"/><polygon class="cls-2" points="178.1 49.54 184.51 49.54 184.51 56.38 188 56.38 188 40.52 184.51 40.52 184.51 46.61 178.1 46.61 178.1 40.52 174.61 40.52 174.61 56.38 178.1 56.38 178.1 49.54"/></g></g></svg>