<svg xmlns="http://www.w3.org/2000/svg" viewBox="0 0 256.49 170.13"><defs><style>.cls-1{fill:#00adee;}.cls-2{fill:#fff;}</style></defs><title>Asset 6</title><g id="Layer_2" data-name="Layer 2"><g id="Layer_1-2" data-name="Layer 1"><path class="cls-1" d="M256.49,170.13V15.5A15.5,15.5,0,0,0,241,0H15.5A15.5,15.5,0,0,0,0,15.5V170.13Z"/><path class="cls-2" d="M71.63,62l7.2-1.16c6.32-.87,10.12,2,11.22,9s-1.63,10.92-7.9,12.08L75,83.09Zm5,19.05,4.22-.68c6-1,8.18-3.89,7.19-10.21s-4-8.41-10-7.44l-4.22.68Z"/><path class="cls-2" d="M89.72,59.1l2-.32,2,13c.76,4.87,3.31,6.39,7.15,5.77s5.83-2.87,5.06-7.74l-2-13,2-.32L108,70c.69,4.34-1,8.4-6.84,9.34s-8.66-2.39-9.33-6.73Z"/><path class="cls-2" d="M109.89,56.5h4.42v8.19h.06a5.94,5.94,0,0,1,5.08-2.42c3.2,0,6.66,2.61,6.66,8.57s-3.46,8.61-6.66,8.61c-2.37,0-4.33-.73-5.3-2.53h-.06V79h-4.2Zm8,9.14c-2.61,0-3.77,2.46-3.77,5.23s1.16,5.21,3.77,5.21,3.77-2.49,3.77-5.21S120.53,65.64,117.92,65.64Z"/><path class="cls-2" d="M126.86,67.78c.24-4.16,4-5.45,7.56-5.45,3.2,0,7.06.72,7.06,4.63v8.48a8.49,8.49,0,0,0,.56,3.62h-4.48a6.93,6.93,0,0,1-.31-1.57,7.28,7.28,0,0,1-5.42,2c-3.08,0-5.47-1.54-5.47-4.88.06-7.41,10.89-3.44,10.7-7.09,0-1.9-1.3-2.21-2.86-2.21s-2.77.69-2.93,2.46Zm10.2,3.31c-.74.66-2.3.69-3.67.94s-2.62.76-2.62,2.4,1.28,2.08,2.71,2.08c3.46,0,3.58-2.74,3.58-3.75Z"/><path class="cls-2" d="M143,62.71h4.2v3h.06a5.66,5.66,0,0,1,5.14-3.47,3.07,3.07,0,0,1,1,.16v4.16a7.54,7.54,0,0,0-1.58-.16c-3.27,0-4.36,2.33-4.36,5.23V79H143Z"/><path class="cls-2" d="M153.71,67.73c.25-4.16,4-5.45,7.57-5.45,3.2,0,7.06.72,7.06,4.63v8.48A8.49,8.49,0,0,0,168.9,79h-4.48a6.43,6.43,0,0,1-.31-1.57,7.27,7.27,0,0,1-5.41,2c-3.09,0-5.49-1.54-5.49-4.88.07-7.41,10.9-3.43,10.71-7.09,0-1.9-1.3-2.21-2.86-2.21-1.71,0-2.77.69-2.93,2.46ZM163.92,71c-.74.66-2.3.69-3.67.95s-2.61.75-2.61,2.39,1.27,2.08,2.7,2.08c3.46,0,3.58-2.74,3.58-3.75Z"/><path class="cls-2" d="M169.9,56.5h4.42V65h.09a5.56,5.56,0,0,1,4.7-2.71c4.7,0,5.89,2.68,5.89,6.71V79h-4.43V69.8c0-2.68-.74-4-2.83-4-2.4,0-3.42,1.35-3.42,4.66V79H169.9Z"/><path class="cls-2" d="M50.14,99.11c.27.2.23,22.11-.07,23.39-.17.71-7.4.41-7.44.14-.17-2-.27-20.4.07-23.47A37.19,37.19,0,0,1,50.14,99.11Z"/><path class="cls-2" d="M68.11,122.67c-.7-.88-3.9-6.5-7-11.34,0,4.37.23,9,.13,11-1.41.3-7.23.34-7.27,0-.2-1.38-.3-21.17,0-23,.1-.71,6.77-.71,6.9-.47.47.74,4.58,7.24,7.21,12.35,0-5-.17-10.53,0-12a34.46,34.46,0,0,1,7.23,0c.27.2,0,21.64-.27,22.92C74.85,122.84,68.59,122.94,68.11,122.67Z"/><path class="cls-2" d="M79.22,122.6c-.13-.3-.54-21.3-.34-23.56,1.52-.2,17-.3,17.07-.07a27.56,27.56,0,0,1,0,6.33c-1.24.14-6.9.1-9.79,0l.13,4.44c3.4,0,7.58.07,7.78.27.37.37.13,5.42.13,5.59s-4.2.2-7.77.1c.07,3.17.1,6.09.07,6.7C86.49,122.67,79.32,122.87,79.22,122.6Z"/><path class="cls-2" d="M121,111.23c0,6-3.84,12-12,12-7.31,0-12-4.82-12-12.7,0-6,4-11.94,11.95-11.94C116.11,98.54,121,103.35,121,111.23Zm-12-6c-2.66,0-4.3,2.08-4.3,5.62,0,3.2,1.71,5.45,4.17,5.45,2.76,0,4.21-2,4.21-5.62C113,106.75,111.2,105.27,108.94,105.27Z"/><path class="cls-2" d="M144.49,110.38c2.19.44,4.24,2.43,4.24,5.83,0,4.54-3.63,6.53-9.69,6.53-3.3,0-9.33-.27-9.5-.41s-.43-22.68-.33-23,6.46-.41,7.13-.41c5.36,0,10.74,1.15,10.74,6.4a4.86,4.86,0,0,1-2.59,4.81ZM136.34,108a5.16,5.16,0,0,0,.68,0c1.81,0,2.79-.64,2.79-1.85s-1.58-1.61-2.66-1.61a5.61,5.61,0,0,0-.77.06C136.34,105.1,136.34,108,136.34,108Zm.34,8.92a10.17,10.17,0,0,0,1.38.1c2.09,0,2.86-.81,2.86-2,0-1.35-1.18-1.92-3-1.92-.37,0-.77,0-1.18.07C136.68,113.68,136.68,116.88,136.68,116.88Z"/><path class="cls-2" d="M167.07,122.47c-.06.23-14.54.13-16-.07-.2-2.25-.2-23,.07-23.36s7.27-.44,7.3-.17c.1,1.38.07,14.64-.07,17.1,2.9-.1,7.37-.13,8.62,0A30.1,30.1,0,0,1,167.07,122.47Z"/><path class="cls-2" d="M191.78,111.23c0,6-3.84,12-12,12-7.31,0-12.05-4.82-12.05-12.7,0-6,4-11.94,11.95-11.94C186.93,98.54,191.78,103.35,191.78,111.23Zm-12-6c-2.65,0-4.3,2.08-4.3,5.62,0,3.2,1.71,5.45,4.17,5.45,2.76,0,4.21-2,4.21-5.62C183.84,106.75,182,105.27,179.76,105.27Z"/><path class="cls-2" d="M206,116.75a8.29,8.29,0,0,0,2.15-.37c0-.44-.07-1.92-.07-1.92s-2.52.06-3,.1a20.44,20.44,0,0,1-.06-5.19c1-.23,9.59-.5,9.86-.26s.13,11.37,0,11.44c-1.58,1.31-5.65,2.76-9.69,2.76-8.25,0-12-5.69-12-12.72s4.71-12,12.69-12c4.11,0,7,1.38,8.05,2.46a23.24,23.24,0,0,1-3.1,5.89A10.18,10.18,0,0,0,206,105.6a5,5,0,0,0-5.09,5.29C200.9,115.3,203.33,116.75,206,116.75Z"/></g></g></svg>