<svg xmlns="http://www.w3.org/2000/svg" viewBox="0 0 256.49 170.13"><defs><style>.cls-1{fill:#ecd8b3;}.cls-2{fill:#293a43;}</style></defs><title>Asset 4</title><g id="Layer_2" data-name="Layer 2"><g id="Layer_1-2" data-name="Layer 1"><path class="cls-1" d="M256.49,170.13V15.5A15.5,15.5,0,0,0,241,0H15.5A15.5,15.5,0,0,0,0,15.5V170.13Z"/><path class="cls-2" d="M71.57,62l7.19-1.16c6.32-.87,10.12,2,11.22,9s-1.63,10.92-7.9,12.08l-7.2,1.16Zm5,19.05,4.23-.68c6-1,8.17-3.89,7.18-10.21s-4-8.41-10-7.44l-4.22.68Z"/><path class="cls-2" d="M89.65,59.1l2-.32,2.05,13c.76,4.87,3.31,6.39,7.15,5.77s5.83-2.87,5.06-7.74l-2-13,2-.32L107.94,70c.69,4.34-1,8.4-6.84,9.34s-8.65-2.39-9.33-6.73Z"/><path class="cls-2" d="M109.82,56.5h4.42v8.19h.06a5.94,5.94,0,0,1,5.08-2.42c3.2,0,6.66,2.61,6.66,8.57s-3.46,8.61-6.66,8.61c-2.37,0-4.33-.73-5.3-2.53H114V79h-4.2Zm8,9.14c-2.61,0-3.77,2.46-3.77,5.23s1.16,5.21,3.77,5.21,3.77-2.49,3.77-5.21S120.46,65.64,117.85,65.64Z"/><path class="cls-2" d="M126.79,67.78c.24-4.16,4-5.45,7.56-5.45,3.2,0,7.06.72,7.06,4.63v8.48a8.49,8.49,0,0,0,.56,3.62h-4.48a6.93,6.93,0,0,1-.31-1.57,7.27,7.27,0,0,1-5.41,2c-3.09,0-5.48-1.54-5.48-4.88.06-7.41,10.89-3.44,10.7-7.09,0-1.9-1.3-2.21-2.86-2.21-1.71,0-2.77.69-2.93,2.46ZM137,71.09c-.74.66-2.3.69-3.67.94s-2.62.76-2.62,2.4,1.28,2.08,2.72,2.08c3.45,0,3.57-2.74,3.57-3.75Z"/><path class="cls-2" d="M143,62.71h4.2v3h.06a5.66,5.66,0,0,1,5.14-3.47,3.07,3.07,0,0,1,1,.16v4.16a7.54,7.54,0,0,0-1.58-.16c-3.27,0-4.36,2.33-4.36,5.23V79H143Z"/><path class="cls-2" d="M153.64,67.73c.25-4.16,4-5.45,7.57-5.45,3.2,0,7.06.72,7.06,4.63v8.48a8.49,8.49,0,0,0,.56,3.62h-4.48a6.93,6.93,0,0,1-.31-1.57,7.27,7.27,0,0,1-5.41,2c-3.09,0-5.48-1.54-5.48-4.88.06-7.41,10.89-3.43,10.7-7.09,0-1.9-1.3-2.21-2.86-2.21-1.71,0-2.77.69-2.92,2.46ZM163.85,71c-.74.66-2.3.69-3.67.95s-2.61.75-2.61,2.39,1.27,2.08,2.71,2.08c3.45,0,3.57-2.74,3.57-3.75Z"/><path class="cls-2" d="M169.83,56.5h4.42V65h.09a5.56,5.56,0,0,1,4.7-2.71c4.7,0,5.89,2.68,5.89,6.71V79h-4.42V69.8c0-2.68-.75-4-2.84-4-2.4,0-3.42,1.35-3.42,4.66V79h-4.42Z"/><path class="cls-2" d="M89.08,114.93A5.33,5.33,0,0,0,92,116.11c1.11,0,2.16-.58,2.16-2.76,0-4-.34-10.94-.27-14.14a41.29,41.29,0,0,1,7.44-.37c.23.2.37,9.76.37,15.18,0,5.86-2.86,9-8.32,9-3.63,0-5.72-1-6.86-2.12A20.63,20.63,0,0,1,89.08,114.93Z"/><path class="cls-2" d="M128,111.23c0,6-3.84,12-12,12-7.31,0-12-4.82-12-12.7,0-6,4-11.94,11.95-11.94C123.11,98.54,128,103.35,128,111.23Zm-12-6c-2.66,0-4.31,2.08-4.31,5.62,0,3.2,1.71,5.45,4.17,5.45,2.76,0,4.21-2,4.21-5.62C120,106.75,118.2,105.27,116,105.27Z"/><path class="cls-2" d="M145.63,110.38c2.19.44,4.25,2.43,4.25,5.83,0,4.54-3.64,6.53-9.7,6.53-3.3,0-9.32-.27-9.49-.41s-.44-22.68-.34-23,6.46-.41,7.14-.41c5.35,0,10.74,1.15,10.74,6.4a4.87,4.87,0,0,1-2.6,4.81ZM137.49,108a5,5,0,0,0,.67,0c1.82,0,2.79-.64,2.79-1.85s-1.58-1.61-2.65-1.61a5.76,5.76,0,0,0-.78.06C137.49,105.1,137.49,108,137.49,108Zm.33,8.92a10.29,10.29,0,0,0,1.38.1c2.09,0,2.87-.81,2.87-2,0-1.35-1.18-1.92-3-1.92-.37,0-.78,0-1.18.07C137.82,113.68,137.82,116.88,137.82,116.88Z"/><path class="cls-2" d="M151,120.58c-.17-.67,1.68-6.12,2.08-6,.71.24,3.47,2.09,6.23,2.09,1.51,0,2.25-.37,2.25-1.11s-.4-1.25-3.46-1.82c-4.34-.81-7-2.83-7-7.71,0-4,3.27-7.44,9.32-7.44,3.67,0,7,.88,8.28,1.89.51.37-1.85,5.75-2.22,5.79s-2.93-1.32-5.92-1.32c-1.48,0-2.09.41-2.09,1,0,.84.54,1,3.4,1.62,3.94.84,7.61,2.49,7.61,7.57,0,3.33-2.63,7.57-9.9,7.57A18.42,18.42,0,0,1,151,120.58Z"/></g></g></svg>