<svg id="Layer_1" data-name="Layer 1" xmlns="http://www.w3.org/2000/svg" viewBox="0 0 1211.34 261.34"><title>jobs_h</title><g id="Layer_2" data-name="Layer 2"><g id="Layer_1-2" data-name="Layer 1-2"><rect width="1211.34" height="261.34" fill="#ecd8b3"/><rect x="673.41" y="160.42" width="2.4" height="2.4" fill="#414042"/><rect x="678.48" y="160.42" width="2.4" height="2.4" fill="#414042"/><rect x="683.54" y="160.42" width="2.4" height="2.4" fill="#414042"/><rect x="688.61" y="160.42" width="2.4" height="2.4" fill="#414042"/><rect x="693.67" y="160.42" width="2.4" height="2.4" fill="#414042"/><rect x="698.74" y="160.42" width="2.4" height="2.4" fill="#414042"/><rect x="703.8" y="160.42" width="2.4" height="2.4" fill="#414042"/><rect x="708.87" y="160.42" width="2.4" height="2.4" fill="#414042"/><rect x="713.94" y="160.42" width="2.4" height="2.4" fill="#414042"/><rect x="719" y="160.42" width="2.4" height="2.4" fill="#414042"/><rect x="921.52" y="90.44" width="2.4" height="2.4" fill="#414042"/><rect x="926.58" y="90.44" width="2.4" height="2.4" fill="#414042"/><rect x="931.65" y="90.44" width="2.4" height="2.4" fill="#414042"/><rect x="936.71" y="90.44" width="2.4" height="2.4" fill="#414042"/><rect x="941.78" y="90.44" width="2.4" height="2.4" fill="#414042"/><rect x="946.85" y="90.44" width="2.4" height="2.4" fill="#414042"/><rect x="951.91" y="90.44" width="2.4" height="2.4" fill="#414042"/><rect x="956.98" y="90.44" width="2.4" height="2.4" fill="#414042"/><rect x="962.04" y="90.44" width="2.4" height="2.4" fill="#414042"/><rect x="967.11" y="90.44" width="2.4" height="2.4" fill="#414042"/><rect x="818.13" y="131.18" width="2.4" height="2.4" fill="#414042"/><rect x="823.2" y="131.18" width="2.4" height="2.4" fill="#414042"/><rect x="828.26" y="131.18" width="2.4" height="2.4" fill="#414042"/><rect x="833.33" y="131.18" width="2.4" height="2.4" fill="#414042"/><rect x="838.39" y="131.18" width="2.4" height="2.4" fill="#414042"/><rect x="843.46" y="131.18" width="2.4" height="2.4" fill="#414042"/><rect x="848.53" y="131.18" width="2.4" height="2.4" fill="#414042"/><rect x="853.59" y="131.18" width="2.4" height="2.4" fill="#414042"/><rect x="858.66" y="131.18" width="2.4" height="2.4" fill="#414042"/><rect x="863.72" y="131.18" width="2.4" height="2.4" fill="#414042"/><rect x="629.26" y="73.66" width="3.42" height="3.42" fill="#414042"/><rect x="636.47" y="73.66" width="3.42" height="3.42" fill="#414042"/><rect x="643.68" y="73.66" width="3.42" height="3.42" fill="#414042"/><rect x="650.89" y="73.66" width="3.42" height="3.42" fill="#414042"/><rect x="658.11" y="73.66" width="3.42" height="3.42" fill="#414042"/><rect x="665.32" y="73.66" width="3.42" height="3.42" fill="#414042"/><rect x="672.53" y="73.66" width="3.42" height="3.42" fill="#414042"/><rect x="679.74" y="73.66" width="3.42" height="3.42" fill="#414042"/><rect x="686.95" y="73.66" width="3.42" height="3.42" fill="#414042"/><rect x="694.16" y="73.66" width="3.42" height="3.42" fill="#414042"/><rect x="426.87" y="87.65" width="2.4" height="2.4" fill="#414042"/><rect x="431.93" y="87.65" width="2.4" height="2.4" fill="#414042"/><rect x="437" y="87.65" width="2.4" height="2.4" fill="#414042"/><rect x="442.06" y="87.65" width="2.4" height="2.4" fill="#414042"/><rect x="447.13" y="87.65" width="2.4" height="2.4" fill="#414042"/><rect x="452.2" y="87.65" width="2.4" height="2.4" fill="#414042"/><rect x="457.26" y="87.65" width="2.4" height="2.4" fill="#414042"/><rect x="462.33" y="87.65" width="2.4" height="2.4" fill="#414042"/><rect x="467.39" y="87.65" width="2.4" height="2.4" fill="#414042"/><rect x="472.46" y="87.65" width="2.4" height="2.4" fill="#414042"/><path d="M802.44,63.13l-4.87-4.87,4.87-4.86,4.86,4.86Zm-1.53-4.87,1.53,1.54L804,58.26l-1.53-1.53Z" fill="#414042"/><path d="M934.65,156.36l-2.6-2.59,2.6-2.6,2.59,2.6Zm-.82-2.59.82.82.82-.82-.82-.82Z" fill="#414042"/><path d="M913.38,57.1l-3-3,3-3,3,3Zm-1-3,1,.94.94-.94-.94-1Z" fill="#414042"/><path d="M434.5,65.33,431,61.78l3.54-3.54,3.55,3.54Zm-1.11-3.55,1.11,1.12,1.12-1.12-1.12-1.11Z" fill="#414042"/><path d="M713.08,81.42,707.67,76l5.41-5.41L718.49,76ZM711.37,76l1.71,1.71,1.7-1.71-1.7-1.7Z" fill="#414042"/><path d="M566.91,99.71l-5.43-5.43,5.43-5.43,5.42,5.43Zm-1.71-5.43L566.91,96l1.71-1.72-1.71-1.71Z" fill="#414042"/><path d="M588.16,137.53,583,132.38l5.14-5.15,5.15,5.15Zm-1.62-5.15,1.62,1.63,1.63-1.63-1.63-1.62Z" fill="#414042"/><rect x="796.84" y="78.95" width="3.41" height="3.41" fill="#414042"/><polygon points="806 84.84 803.05 83.12 804.76 80.17 807.72 81.88 806 84.84" fill="#414042"/><rect x="808.68" y="85.86" width="3.41" height="3.41" transform="translate(63.07 413.01) rotate(-29.7)" fill="#414042"/><rect x="810.43" y="92.66" width="3.41" height="3.42" transform="translate(712.1 905.83) rotate(-89.6)" fill="#414042"/><rect x="808.58" y="99.51" width="3.41" height="3.41" transform="translate(310.58 747.06) rotate(-59.39)" fill="#414042"/><rect x="803.49" y="104.43" width="3.41" height="3.41" transform="translate(51.07 407.62) rotate(-29.3)" fill="#414042"/><rect x="796.64" y="106.17" width="3.41" height="3.41" transform="translate(677.53 904.36) rotate(-89.07)" fill="#414042"/><rect x="789.87" y="104.26" width="3.41" height="3.41" transform="translate(292.18 729.2) rotate(-58.92)" fill="#414042"/><rect x="784.9" y="99.09" width="3.42" height="3.41" transform="translate(48.79 391.55) rotate(-28.81)" fill="#414042"/><polygon points="786.69 92.28 786.61 95.7 783.2 95.61 783.27 92.2 786.69 92.28" fill="#414042"/><rect x="785.26" y="85.46" width="3.41" height="3.41" transform="translate(301.67 712.79) rotate(-58.52)" fill="#414042"/><polygon points="794.39 82.98 791.4 84.61 789.77 81.6 792.78 79.98 794.39 82.98" fill="#414042"/><rect x="1070.18" y="112.04" width="1.58" height="1.58" fill="#414042"/><rect x="1073.32" y="112.88" width="1.58" height="1.57" transform="translate(434.81 984.25) rotate(-59.75)" fill="#414042"/><rect x="1075.61" y="115.16" width="1.57" height="1.57" transform="translate(83.51 547.5) rotate(-29.64)" fill="#414042"/><rect x="1076.51" y="118.38" width="1.57" height="1.58" transform="translate(950.61 1195.61) rotate(-89.6)" fill="#414042"/><rect x="1075.56" y="121.5" width="1.57" height="1.58" transform="translate(423.34 986.61) rotate(-59.41)" fill="#414042"/><rect x="1073.24" y="123.8" width="1.57" height="1.58" transform="translate(76.58 541.9) rotate(-29.32)" fill="#414042"/><rect x="1070.14" y="124.62" width="1.57" height="1.57" transform="translate(928.53 1194.2) rotate(-89.09)" fill="#414042"/><rect x="1071.71" y="120.62" width="1.58" height="1.58" transform="translate(413.67 976.36) rotate(-58.84)" fill="#414042"/><rect x="1064.69" y="121.38" width="1.58" height="1.57" transform="translate(72.73 527.89) rotate(-28.77)" fill="#414042"/><rect x="1063.99" y="118.19" width="1.57" height="1.58" transform="translate(920.93 1180.68) rotate(-88.66)" fill="#414042"/><rect x="1064.89" y="115.09" width="1.58" height="1.58" transform="translate(409.18 963.29) rotate(-58.44)" fill="#414042"/><rect x="1067.23" y="112.87" width="1.57" height="1.57" transform="translate(74.41 521.48) rotate(-28.39)" fill="#414042"/><rect x="505.69" y="73.99" width="2.5" height="2.5" fill="#414042"/><rect x="510.72" y="75.35" width="2.5" height="2.5" transform="translate(188.23 480.56) rotate(-59.8)" fill="#414042"/><rect x="514.34" y="79.01" width="2.5" height="2.5" transform="translate(27.97 266) rotate(-29.7)" fill="#414042"/><rect x="515.62" y="84.01" width="2.5" height="2.5" transform="translate(427.82 601.49) rotate(-89.58)" fill="#414042"/><rect x="514.29" y="89.03" width="2.49" height="2.5" transform="translate(175.26 487.95) rotate(-59.38)" fill="#414042"/><rect x="510.54" y="92.58" width="2.5" height="2.5" transform="translate(19.53 262.38) rotate(-29.29)" fill="#414042"/><rect x="505.55" y="93.9" width="2.49" height="2.49" transform="translate(404.14 600.47) rotate(-89.15)" fill="#414042"/><rect x="500.59" y="92.5" width="2.49" height="2.49" transform="translate(162.55 475.2) rotate(-58.93)" fill="#414042"/><rect x="496.97" y="88.71" width="2.5" height="2.49" transform="translate(18.4 251.48) rotate(-28.84)" fill="#414042"/><rect x="495.76" y="83.71" width="2.49" height="2.5" transform="translate(400.7 579.89) rotate(-88.69)" fill="#414042"/><rect x="497.24" y="78.76" width="2.49" height="2.5" transform="translate(169.87 463.3) rotate(-58.51)" fill="#414042"/><polygon points="503.91 76.94 501.72 78.12 500.53 75.93 502.73 74.73 503.91 76.94" fill="#414042"/><path d="M960.32,146.76a.7.7,0,0,1-.3-.41.61.61,0,0,1,.09-.49.62.62,0,0,1,.56-.31.66.66,0,0,1,.33.09l3.87,2.39a.61.61,0,0,1,.29.41.6.6,0,0,1-.08.5.66.66,0,0,1-.56.31.74.74,0,0,1-.34-.1Zm4.72,7.75a.65.65,0,0,0-.43-.81l-.19,0a.59.59,0,0,0-.32.08l-4,2.17a.69.69,0,0,0-.31.4.65.65,0,0,0,.44.8l.18,0a.68.68,0,0,0,.32-.07l4-2.18a.62.62,0,0,0,.27-.39Zm8.72-5.49a.65.65,0,0,0,.57.32.67.67,0,0,0,.33-.08L978.6,147a.61.61,0,0,0,.31-.39.63.63,0,0,0-.06-.5.68.68,0,0,0-.57-.33.59.59,0,0,0-.32.09l-4,2.24a.67.67,0,0,0-.2.89Zm-7.27,6.78a.65.65,0,0,0-.57.32L963.57,160a.65.65,0,0,0,.21.89h0a.65.65,0,0,0,.34.1.66.66,0,0,0,.56-.32L967,156.8a.66.66,0,0,0-.22-.91h0a.68.68,0,0,0-.29-.09Zm5.74-8.55a.65.65,0,0,0,.56-.32l2.29-3.93a.64.64,0,0,0,.06-.49.61.61,0,0,0-.3-.4.68.68,0,0,0-.33-.09.65.65,0,0,0-.56.32l-2.29,3.93a.67.67,0,0,0-.07.5.72.72,0,0,0,.3.4.68.68,0,0,0,.34.08Zm-7.88,4.47a.69.69,0,0,0-.17-.48.64.64,0,0,0-.48-.24l-4.55.1c-.52,0-.64.27-.65.5s.07.52.63.53l4.56.28a.69.69,0,0,0,.66-.69Zm10.31,2.14a.66.66,0,0,0-.33-.09A.65.65,0,0,0,974,155l3.9,2.32a.63.63,0,0,0,.33.09.65.65,0,0,0,.57-.32.66.66,0,0,0-.23-.9Zm-9.54-11.63a.66.66,0,0,0-.58-.34.64.64,0,0,0-.31.07.67.67,0,0,0-.32.38.61.61,0,0,0,0,.51l2.13,4a.66.66,0,0,0,.58.35.62.62,0,0,0,.31-.08.69.69,0,0,0,.32-.39.64.64,0,0,0,0-.49ZM979.65,151l-4.55.06a.6.6,0,0,0-.65.55s0,0,0,0a.53.53,0,0,0,.16.41.67.67,0,0,0,.48.19l4.55.12a.69.69,0,0,0,0-1.37Zm-6.87,5.16a.64.64,0,0,0-.56-.34.73.73,0,0,0-.33.08.67.67,0,0,0-.25.89l2.21,4a.66.66,0,0,0,.57.34.76.76,0,0,0,.33-.08.68.68,0,0,0,.25-.9Zm-3.43-15.54a.65.65,0,0,0-.65.65h0v4.54a.65.65,0,0,0,.65.65h0a.66.66,0,0,0,.66-.65v-4.54a.66.66,0,0,0-.66-.61Zm0,15.94a.67.67,0,0,0-.63.63l-.09,4.53a.63.63,0,0,0,.18.45.67.67,0,0,0,.47.19h0a.63.63,0,0,0,.65-.61h0l.08-4.52a.65.65,0,0,0-.68-.62h0Z" fill="#414042"/><path d="M838.55,78.11h2.62V75.37h1.9v2.74h2.64v1.78h-2.64v2.77h-1.9V79.89h-2.62Z" fill="#414042"/><path d="M734.12,123.51h2.62v-2.74h1.9v2.74h2.63v1.78h-2.63v2.77h-1.9v-2.77h-2.62Z" fill="#414042"/><path d="M600.27,88h2.62V85.21h1.9V88h2.63v1.78h-2.63v2.76h-1.9V89.73h-2.62Z" fill="#414042"/><path d="M1047.19,130.28h2.63v-2.74h1.89v2.74h2.64v1.78h-2.64v2.76h-1.89v-2.76h-2.63Z" fill="#414042"/><path d="M960.39,68.24h3.1V65h2.24v3.23h3.12v2.11h-3.12v3.27h-2.24V70.35h-3.1Z" fill="#414042"/><path d="M897.3,150.28h2.63v-2.74h1.89v2.74h2.64v1.78h-2.64v2.76h-1.89v-2.76H897.3Z" fill="#414042"/><path d="M751.4,68.41H754V65.67h1.9v2.74h2.63v1.78H755.9V73H754V70.19h-2.6Z" fill="#414042"/><path d="M440.89,101.29h2.62V98.56h1.9v2.73H448v1.78h-2.63v2.77h-1.9v-2.77h-2.62Z" fill="#414042"/><path d="M483,42.37h2.45V39.82h1.76v2.55h2.46V44h-2.46v2.58h-1.76V44H483Z" fill="#414042"/><rect x="677.35" y="105.56" width="92.67" height="2.83" fill="#414042"/><rect x="943.07" y="129.56" width="92.67" height="2.83" fill="#414042"/><rect x="647.53" y="123" width="76.16" height="2.83" fill="#414042"/><rect x="789.77" y="148.7" width="42.34" height="2.83" fill="#414042"/><rect x="841.73" y="148.7" width="42.34" height="2.83" fill="#414042"/><rect x="853.45" y="115.09" width="124.54" height="2.83" fill="#414042"/><rect x="612.19" y="123" width="27.95" height="2.83" fill="#414042"/><rect x="417.64" y="112.1" width="113.74" height="2.83" fill="#414042"/><rect x="463.28" y="101.13" width="68.86" height="2.83" fill="#414042"/><path d="M886.52,71.85h-5.2v-5.2h5.2Zm-3.47-1.73h1.74V68.38h-1.74Z" fill="#414042"/><path d="M886.52,111h-5.2v-5.2h5.2Zm-3.47-1.73h1.74V107.5h-1.74Z" fill="#414042"/><path d="M906.08,91.41h-5.2v-5.2h5.2Zm-3.47-1.73h1.74V87.94h-1.74Z" fill="#414042"/><path d="M867,91.41h-5.2v-5.2H867Zm-3.47-1.73h1.74V87.94h-1.74Z" fill="#414042"/><path d="M885.65,109.16a.86.86,0,1,1-.07-1.72h0a18.64,18.64,0,0,0,17-17,.88.88,0,0,1,.94-.79.86.86,0,0,1,.78.93h0a20.37,20.37,0,0,1-18.53,18.54Z" fill="#414042"/><path d="M903.4,87.94a.86.86,0,0,1-.86-.78,18.63,18.63,0,0,0-17-17,.86.86,0,0,1,.15-1.72A20.36,20.36,0,0,1,904.26,87a.85.85,0,0,1-.76.93h-.1Z" fill="#414042"/><path d="M864.44,87.94h-.08a.86.86,0,0,1-.78-.93h0a20.4,20.4,0,0,1,18.36-18.52.86.86,0,1,1,.17,1.72h0a18.66,18.66,0,0,0-16.81,17A.87.87,0,0,1,864.44,87.94Z" fill="#414042"/><path d="M882.19,109.16h-.08a20.36,20.36,0,0,1-18.53-18.54.85.85,0,0,1,.76-.93h0a.88.88,0,0,1,.94.78,18.65,18.65,0,0,0,17,17,.86.86,0,1,1-.07,1.72h0Z" fill="#414042"/><path d="M873.34,102.2l-.56-.42h0l-1-.82h0l-.57-.5.15-.52a57.5,57.5,0,0,0,1.89-8.22l.06-.58.56-.16c3.36-1,8.3-4.65,8.35-4.69l.57-.44,4.09,3.77-.39.61s-3.32,5.28-4,8.7l-.12.6-.6.09a45.31,45.31,0,0,0-8,2.42Zm5-5.54-2.81,2.93a43.7,43.7,0,0,1,5.4-1.59,36.37,36.37,0,0,1,3.73-8.1l-2-1.83a35,35,0,0,1-7.79,4.38c-.14.88-.49,2.8-1.31,5.92l3-3.17a2,2,0,0,1-.16-.65,2.22,2.22,0,0,1,2.12-2.32h0a2.23,2.23,0,0,1,.21,4.45h0l-.37,0Zm0-1.78a2.53,2.53,0,0,0,.38.09.53.53,0,0,0,.32-.17.52.52,0,0,0,.13-.36.5.5,0,0,0-.5-.48.51.51,0,0,0-.51.51s0,0,0,0,0,.25.12.39Z" fill="#414042"/><path d="M887.42,91.36a2,2,0,0,1-1.38-.57L881.26,86a1.93,1.93,0,0,1,0-2.73l0,0,6.68-6.68a2,2,0,0,1,2.76,0l4.78,4.78a2,2,0,0,1,0,2.76l-6.68,6.68A2,2,0,0,1,887.42,91.36Zm1.9-13.65a.22.22,0,0,0-.16.07l-6.68,6.68a.24.24,0,0,0,0,.32l4.78,4.78a.2.2,0,0,0,.28,0l0,0,6.68-6.69a.24.24,0,0,0,0-.32l-4.78-4.78A.22.22,0,0,0,889.32,77.71Z" fill="#414042"/><path d="M779.8,136.13a18.06,18.06,0,1,0-25.71,16.36v.82h0v12.84H757a1.07,1.07,0,0,0-.06.3,1.11,1.11,0,0,0,1.1,1.11h7.34a1.11,1.11,0,0,0,1.1-1.11,1.07,1.07,0,0,0-.06-.3h3V153.31h0v-.82A18,18,0,0,0,779.8,136.13Zm-23.51,27.81v-8.43h10.9v8.43Zm0-10.63V151l-.68-.28a15.86,15.86,0,1,1,12.25,0l-.67.28v2.28Z" fill="#414042"/><path d="M765.41,157h-7.34a1.11,1.11,0,0,0,0,2.21h7.34a1.11,1.11,0,0,0,0-2.21Z" fill="#414042"/><path d="M765.41,160.23h-7.34a1.1,1.1,0,0,0,0,2.2h7.34a1.1,1.1,0,1,0,0-2.2Z" fill="#414042"/><path d="M1045.25,100.39a.84.84,0,0,1-.59-.24.86.86,0,0,1,0-1.19l3.75-3.74-3.49-3.49a.83.83,0,1,1,1.18-1.18l4.67,4.67-4.93,4.93A.82.82,0,0,1,1045.25,100.39Z" fill="#414042"/><path d="M1008,100.39a.84.84,0,0,1-.59-.24l-4.93-4.93,4.67-4.67a.83.83,0,0,1,1.18,1.18h0l-3.48,3.49,3.74,3.74a.84.84,0,0,1-.59,1.43Z" fill="#414042"/><path d="M1026.6,109.19l-15.72-18.32h31.44Zm-12.08-16.65,12.08,14.08,12.08-14.08Z" fill="#414042"/><polygon points="1012.5 91.83 1011.11 90.9 1016.77 82.42 1036.43 82.42 1042.04 90.89 1040.65 91.81 1035.53 84.09 1017.67 84.09 1012.5 91.83" fill="#414042"/><rect x="1019.15" y="82.96" width="1.67" height="9.22" transform="translate(115.52 567.13) rotate(-32.84)" fill="#414042"/><rect x="1028.41" y="86.78" width="9.21" height="1.67" transform="translate(399.21 908.03) rotate(-57.16)" fill="#414042"/><rect x="1018.26" y="87.45" width="9.07" height="1.67" transform="translate(443.95 936.12) rotate(-60.61)" fill="#414042"/><rect x="1027.59" y="83.04" width="1.67" height="8.73" transform="translate(60.1 444.68) rotate(-25.11)" fill="#414042"/><rect x="1023.53" y="91.35" width="1.67" height="16.83" transform="translate(10.29 275.61) rotate(-15.4)" fill="#414042"/><rect x="1020.17" y="98.97" width="16.65" height="1.67" transform="translate(701.94 1080.18) rotate(-77.12)" fill="#414042"/><path d="M553.94,72.84a14.58,14.58,0,1,1,10.3-4.27A14.58,14.58,0,0,1,553.94,72.84Zm0-27.3a12.74,12.74,0,1,0,9,3.73A12.61,12.61,0,0,0,553.94,45.54Z" fill="#414042"/><path d="M553.94,70.36a12.1,12.1,0,1,1,8.54-3.54A12.1,12.1,0,0,1,553.94,70.36Zm0-22.34a10.25,10.25,0,1,0,7.24,3,10.25,10.25,0,0,0-7.24-3Z" fill="#414042"/><path d="M567.07,72.32a.93.93,0,0,1-.66-.27l-3.48-3.48a.93.93,0,0,1,1.31-1.31l3.48,3.48a.93.93,0,0,1-.65,1.58Z" fill="#414042"/><path d="M573.16,82.46l-9.24-9.24,5-5,9.23,9.24Zm-6.62-9.24,6.62,6.62,2.36-2.35-6.62-6.62Z" fill="#414042"/><path d="M553.94,64.36A6.1,6.1,0,1,1,560,58.25h0A6.1,6.1,0,0,1,553.94,64.36Zm0-10.34a4.25,4.25,0,1,0,4.24,4.26v0A4.25,4.25,0,0,0,553.94,54h0Z" fill="#414042"/><path d="M558.7,52.44a.93.93,0,0,1-.66-.27,5.81,5.81,0,0,0-8.21,0A.93.93,0,0,1,548.4,51l.12-.12a7.67,7.67,0,0,1,10.83,0,.93.93,0,0,1-.65,1.58Z" fill="#414042"/><path d="M557,58.26a3.07,3.07,0,1,1-3.07-3.07A3.07,3.07,0,0,1,557,58.26Z" fill="#414042"/><path d="M477.41,169.66v8.71h-2.7v-8.71h-3.06v-2.1h8.76v2.1Zm14.35,8.71v-7.63h0L489,178.37h-1.78l-2.82-7.63h-.06v7.63h-2.46V167.56h3.54l2.67,7.09,2.71-7.09h3.54v10.81Z" fill="#222"/><path d="M429.56,212.85a1.52,1.52,0,0,0-1.17-.42,1.87,1.87,0,0,0-.84.17,1.73,1.73,0,0,0-.55.43,1.55,1.55,0,0,0-.28.54,2.17,2.17,0,0,0-.1.51h3.47A2.51,2.51,0,0,0,429.56,212.85Z" fill="#222"/></g></g><g id="Layer_2-2" data-name="Layer 2"><g id="Layer_1-2-2" data-name="Layer 1-2"><path d="M438.3,261.34V23.81A23.92,23.92,0,0,0,414.29,0H64.73a23.92,23.92,0,0,0-24,23.81V261.34Z" fill="#ecd8b3"/><path d="M151.64,95.24l11.15-1.78c9.8-1.34,15.69,3.07,17.39,13.83s-2.53,16.77-12.25,18.56l-11.16,1.78Zm7.75,29.26,6.56-1c9.3-1.54,12.66-6,11.13-15.68s-6.2-12.92-15.5-11.43l-6.54,1Z" fill="#293a43"/><path d="M179.67,90.78l3.1-.49,3.18,20c1.18,7.48,5.13,9.82,11.08,8.86s9-4.41,7.84-11.89l-3.1-20,3.1-.49L208,107.53c1.07,6.67-1.55,12.9-10.6,14.35S184,118.2,183,111.54Z" fill="#293a43"/><path d="M210.94,86.79h6.85V99.37h.09a9.24,9.24,0,0,1,7.87-3.72c5,0,10.32,4,10.32,13.16S230.72,122,225.76,122c-3.67,0-6.71-1.12-8.22-3.89h-.12v3.2h-6.51Zm12.4,14c-4,0-5.84,3.78-5.84,8s1.8,8,5.84,8,5.84-3.82,5.84-8-1.75-8-5.8-8Z" fill="#293a43"/><path d="M237.24,104.12c.37-6.39,6.2-8.37,11.72-8.37,5,0,10.94,1.11,10.94,7.11v13a12.93,12.93,0,0,0,.87,5.56h-6.94a10.56,10.56,0,0,1-.48-2.41,11.33,11.33,0,0,1-8.39,3.07c-4.79,0-8.49-2.37-8.49-7.5.09-11.38,16.88-5.28,16.59-10.89,0-2.92-2-3.39-4.43-3.39-2.65,0-4.29,1.06-4.54,3.78Zm15.83,5.08c-1.15,1-3.57,1.06-5.69,1.44s-4.06,1.17-4.06,3.69,2,3.2,4.22,3.2c5.35,0,5.53-4.21,5.53-5.76Z" fill="#293a43"/><path d="M262.37,96.33h6.51v4.61H269a8.77,8.77,0,0,1,8-5.33,4.8,4.8,0,0,1,1.55.25v6.39A11.79,11.79,0,0,0,276,102c-5.07,0-6.76,3.58-6.76,8v11.32h-6.91Z" fill="#293a43"/><path d="M278.87,104c.39-6.39,6.2-8.37,11.73-8.37,5,0,10.94,1.11,10.94,7.11v13a12.93,12.93,0,0,0,.87,5.56h-6.94A10.56,10.56,0,0,1,295,119,11.33,11.33,0,0,1,286.6,122c-4.79,0-8.49-2.37-8.49-7.5.09-11.38,16.88-5.27,16.59-10.89,0-2.92-2-3.39-4.43-3.39-2.65,0-4.29,1.06-4.53,3.78Zm15.83,5c-1.15,1-3.57,1.06-5.69,1.46s-4,1.15-4,3.67,2,3.2,4.2,3.2c5.35,0,5.53-4.21,5.53-5.76Z" fill="#293a43"/><path d="M304,86.79h6.85V99.85H311a8.63,8.63,0,0,1,7.29-4.16c7.29,0,9.13,4.12,9.13,10.31v15.36h-6.85V107.22c0-4.12-1.16-6.14-4.4-6.14-3.72,0-5.3,2.07-5.3,7.16v13.12H304Z" fill="#293a43"/><path d="M178.79,176.55a8.3,8.3,0,0,0,4.53,1.81c1.72,0,3.35-.89,3.35-4.24,0-6.14-.53-16.81-.42-21.72a64.58,64.58,0,0,1,11.53-.57c.36.31.57,15,.57,23.32,0,9-4.43,13.83-12.9,13.83-5.63,0-8.87-1.54-10.63-3.26A31.54,31.54,0,0,1,178.79,176.55Z" fill="#293a43"/><path d="M239.12,170.86c0,9.22-6,18.43-18.6,18.43-11.33,0-18.6-7.4-18.6-19.51,0-9.22,6.2-18.34,18.52-18.34C231.54,151.37,239.12,158.76,239.12,170.86Zm-18.6-9.22c-4.12,0-6.68,3.2-6.68,8.63,0,4.92,2.65,8.37,6.46,8.37,4.28,0,6.53-3.07,6.53-8.63-.11-6-2.9-8.31-6.31-8.31Z" fill="#293a43"/><path d="M274.77,185.23c-.26-1,2.6-9.4,3.22-9.22,1.1.37,5.38,3.21,9.66,3.21,2.34,0,3.49-.57,3.49-1.71s-.62-1.92-5.36-2.8c-6.73-1.24-10.85-4.35-10.85-11.84,0-6.14,5.07-11.43,14.45-11.43,5.69,0,10.85,1.35,12.84,2.9.79.57-2.87,8.83-3.44,8.89s-4.54-2-9.18-2c-2.29,0-3.24.63-3.24,1.54,0,1.29.84,1.54,5.27,2.49,6.11,1.29,11.8,3.82,11.8,11.63,0,5.12-4.08,11.63-15.35,11.63A28.76,28.76,0,0,1,274.77,185.23Z" fill="#293a43"/><path d="M266.45,169.56c3.39.68,6.59,3.73,6.59,9,0,7-5.64,10-15,10-5.12,0-14.45-.41-14.71-.63s-.68-34.84-.53-35.33,10-.63,11.07-.63c8.29,0,16.65,1.77,16.65,9.83a7.47,7.47,0,0,1-4,7.39Zm-12.62-3.66a7.82,7.82,0,0,0,1,0c2.82,0,4.32-1,4.32-2.84s-2.45-2.47-4.11-2.47a9,9,0,0,0-1.21.09C253.83,161.45,253.83,165.9,253.83,165.9Zm.51,13.7a16.09,16.09,0,0,0,2.14.15c3.24,0,4.45-1.24,4.45-3.07,0-2.07-1.83-2.95-4.65-2.95a10.71,10.71,0,0,0-1.83.11c-.11.78-.11,5.7-.11,5.7Z" fill="#293a43"/></g></g><text></text></svg>