<svg xmlns="http://www.w3.org/2000/svg" viewBox="0 0 34.14 34.14"><defs><style>.cls-1{fill:#d0d2d3;}.cls-2{fill:#fff;}</style></defs><title>Asset 24</title><g id="Layer_2" data-name="Layer 2"><g id="Layer_1-2" data-name="Layer 1"><rect class="cls-1" width="34.14" height="34.14" rx="2.01" ry="2.01"/><path class="cls-2" d="M12.79,24.18h-3V14.55h3ZM11.21,13.34h0a1.68,1.68,0,1,1,0-3.34,1.68,1.68,0,1,1,0,3.34ZM24.84,24.18H21.42v-5c0-1.31-.53-2.2-1.71-2.2a1.71,1.71,0,0,0-1.62,1.18A2.16,2.16,0,0,0,18,19v5.21H14.63s0-8.83,0-9.63H18v1.51a3.09,3.09,0,0,1,3-1.61c2.13,0,3.82,1.39,3.82,4.37Z" transform="translate(0)"/></g></g></svg>