<svg id="Layer_1" data-name="Layer 1" xmlns="http://www.w3.org/2000/svg" viewBox="0 0 181.34 42.55"><defs><style>.cls-1{fill:#ff3a1e;}.cls-2{fill:#fff;}</style></defs><title>logo</title><path class="cls-1" d="M688.24,292.72l11.51-1.86c10.11-1.39,16.19,3.25,17.95,14.4s-2.61,17.46-12.65,19.32l-11.52,1.86Zm8,30.47,6.76-1.09c9.56-1.54,13.08-6.22,11.49-16.33s-6.37-13.45-15.93-11.91l-6.76,1.09Z" transform="translate(-688.24 -283.88)"/><path class="cls-1" d="M717.16,288.05l3.17-.51,3.29,20.88c1.22,7.79,5.29,10.23,11.44,9.24s9.32-4.6,8.09-12.39l-3.28-20.87,3.17-.51,3.4,21.58c1.09,6.95-1.67,13.44-10.95,14.93s-13.85-3.82-14.93-10.76Z" transform="translate(-688.24 -283.88)"/><path class="cls-2" d="M749.43,283.89h7.07V297h.1c1.74-2.67,4.93-3.88,8.11-3.88,5.13,0,10.66,4.18,10.66,13.72s-5.53,13.77-10.66,13.77c-3.78,0-6.92-1.16-8.47-4h-.1v3.33h-6.72Zm12.85,14.63c-4.18,0-6,3.94-6,8.37s1.85,8.32,6,8.32,6-4,6-8.32S766.46,298.52,762.27,298.52Z" transform="translate(-688.24 -283.88)"/><path class="cls-2" d="M776.57,301.94c.39-6.65,6.32-8.72,12.1-8.72,5.12,0,11.3,1.16,11.3,7.41v13.57c0,2.37.25,4.74.89,5.79h-7.16a10.87,10.87,0,0,1-.5-2.52,11.63,11.63,0,0,1-8.66,3.23c-4.93,0-8.76-2.47-8.76-7.81.1-11.85,17.42-5.5,17.13-11.35,0-3-2.09-3.53-4.58-3.53-2.74,0-4.43,1.11-4.68,3.93Zm16.33,5.3c-1.19,1.06-3.68,1.11-5.87,1.51s-4.19,1.21-4.19,3.83,2,3.33,4.34,3.33c5.53,0,5.72-4.38,5.72-6Z" transform="translate(-688.24 -283.88)"/><path class="cls-2" d="M802.45,293.83h6.72v4.84h.1a9,9,0,0,1,8.22-5.55,5.24,5.24,0,0,1,1.54.25V300a13,13,0,0,0-2.54-.25c-5.23,0-7,3.73-7,8.37V319.9h-7.07Z" transform="translate(-688.24 -283.88)"/><path class="cls-2" d="M819.53,301.86c.4-6.65,6.33-8.72,12.1-8.72,5.13,0,11.3,1.16,11.3,7.41v13.56c0,2.38.25,4.74.89,5.8h-7.17a11.14,11.14,0,0,1-.49-2.52,11.63,11.63,0,0,1-8.66,3.23c-4.93,0-8.77-2.47-8.77-7.82.1-11.85,17.43-5.49,17.13-11.34,0-3-2.09-3.53-4.58-3.53-2.74,0-4.43,1.11-4.68,3.93Zm16.33,5.3c-1.19,1.06-3.68,1.11-5.88,1.51s-4.18,1.21-4.18,3.83,2,3.33,4.33,3.33c5.52,0,5.73-4.38,5.73-6Z" transform="translate(-688.24 -283.88)"/><path class="cls-2" d="M845.42,283.89h7.07v13.57h.14a8.9,8.9,0,0,1,7.52-4.34c7.52,0,9.41,4.29,9.41,10.75v16H862.5V305.18c0-4.29-1.2-6.4-4.53-6.4-3.84,0-5.47,2.17-5.47,7.46V319.9h-7.07Z" transform="translate(-688.24 -283.88)"/></svg>