<svg id="Layer_1" data-name="Layer 1" xmlns="http://www.w3.org/2000/svg" viewBox="0 0 271.16 37.08"><title>logo_b</title><text transform="translate(163.24 30.99)" font-size="24.36" fill="#404041" font-family="Helvetica, Helvetica">newsroom</text><path d="M279.84,141.63l9.76-1.57c8.57-1.18,13.72,2.75,15.21,12.2s-2.21,14.8-10.72,16.37l-9.76,1.58Zm6.81,25.82,5.73-.92c8.1-1.31,11.08-5.27,9.74-13.84s-5.4-11.4-13.5-10.09l-5.73.92Z" transform="translate(-279.84 -134.15)" fill="#ff3a1e"/><path d="M304.35,137.68l2.68-.44,2.78,17.69c1,6.6,4.48,8.67,9.7,7.83s7.9-3.9,6.86-10.5l-2.78-17.69,2.69-.44,2.88,18.29c.92,5.89-1.41,11.39-9.28,12.65s-11.74-3.24-12.66-9.12Z" transform="translate(-279.84 -134.15)" fill="#ff3a1e"/><path d="M331.7,134.16h6v11.11h.08a8,8,0,0,1,6.88-3.29c4.35,0,9,3.55,9,11.63s-4.69,11.67-9,11.67c-3.21,0-5.87-1-7.18-3.42h-.08v2.82h-5.7Zm10.89,12.4c-3.54,0-5.11,3.34-5.11,7.09s1.56,7.05,5.11,7.05,5.11-3.37,5.11-7.05S346.13,146.55,342.59,146.55Z" transform="translate(-279.84 -134.15)" fill="#404041"/><path d="M354.71,149.45c.33-5.64,5.35-7.39,10.25-7.39,4.34,0,9.57,1,9.57,6.28v11.5c0,2,.21,4,.76,4.91h-6.07a9.21,9.21,0,0,1-.43-2.14,9.86,9.86,0,0,1-7.34,2.74c-4.18,0-7.43-2.09-7.43-6.62.08-10,14.77-4.66,14.52-9.62,0-2.57-1.77-3-3.88-3-2.32,0-3.76.94-4,3.33Zm13.84,4.49c-1,.9-3.12.94-5,1.28s-3.55,1-3.55,3.25,1.73,2.82,3.68,2.82c4.68,0,4.85-3.72,4.85-5.08Z" transform="translate(-279.84 -134.15)" fill="#404041"/><path d="M376.64,142.58h5.7v4.1h.08a7.67,7.67,0,0,1,7-4.7,4.44,4.44,0,0,1,1.31.21v5.64a11,11,0,0,0-2.15-.21c-4.43,0-5.91,3.16-5.91,7.09v10h-6Z" transform="translate(-279.84 -134.15)" fill="#404041"/><path d="M391.11,149.38c.34-5.64,5.36-7.39,10.26-7.39,4.34,0,9.58,1,9.58,6.28v11.49c0,2,.21,4,.76,4.92h-6.08a9.44,9.44,0,0,1-.42-2.14,9.86,9.86,0,0,1-7.34,2.74c-4.18,0-7.43-2.09-7.43-6.63.08-10,14.77-4.65,14.52-9.61,0-2.57-1.77-3-3.88-3-2.32,0-3.75.94-4,3.33ZM405,153.87c-1,.9-3.12.94-5,1.28s-3.54,1-3.54,3.24,1.73,2.82,3.67,2.82c4.68,0,4.85-3.72,4.85-5.09Z" transform="translate(-279.84 -134.15)" fill="#404041"/><path d="M413.06,134.16h6v11.5h.12a7.54,7.54,0,0,1,6.37-3.68c6.37,0,8,3.63,8,9.11v13.58h-6V152.19c0-3.63-1-5.43-3.84-5.43-3.25,0-4.64,1.84-4.64,6.33v11.58h-6Z" transform="translate(-279.84 -134.15)" fill="#404041"/></svg>