<svg xmlns="http://www.w3.org/2000/svg" viewBox="0 0 256.49 170.13"><defs><style>.cls-1{fill:#293a43;}.cls-2{fill:#febe29;}</style></defs><title>Asset 8</title><g id="Layer_2" data-name="Layer 2"><g id="Layer_1-2" data-name="Layer 1"><path class="cls-1" d="M256.49,170.13V15.5A15.5,15.5,0,0,0,241,0H15.5A15.5,15.5,0,0,0,0,15.5V170.13Z"/><path class="cls-2" d="M47.65,85c0-3.3-.12-6-.23-8.43l7.13,0,.39,3.68h.16a9.5,9.5,0,0,1,8.15-4.29c5.4,0,9.46,3.6,9.48,11.38l0,15.62-8.21,0,0-14.65c0-3.4-1.2-5.72-4.17-5.72a4.52,4.52,0,0,0-4.21,3.09,5.85,5.85,0,0,0-.27,2.06l0,15.24H47.69Z"/><path class="cls-2" d="M102.58,89.33c0,9.67-6.83,14.12-13.91,14.14-7.72,0-13.68-5-13.7-13.59S80.56,75.82,89.1,75.8C97.15,75.78,102.57,81.33,102.58,89.33Zm-19.12.31c0,4.54,1.9,7.94,5.42,7.94,3.24,0,5.23-3.2,5.22-8,0-3.89-1.53-7.89-5.26-7.88C85,81.7,83.45,85.75,83.46,89.64Z"/><path class="cls-2" d="M125.43,102.09a19,19,0,0,1-7.35,1.26c-8.54,0-14-5.22-14-13.48,0-7.73,5.26-14.06,15.1-14.09a19,19,0,0,1,6.27,1l-1.29,6.11a11.12,11.12,0,0,0-4.59-.8c-4.32,0-7.13,3.09-7.06,7.41,0,4.81,3.26,7.4,7.25,7.39a11.56,11.56,0,0,0,4.7-.87Z"/><path class="cls-2" d="M135.89,87.47H136a34.42,34.42,0,0,1,1.89-3.19l5.33-8,9.89,0L143.67,87l10.84,15.7-10.1,0L138,91.9l-2.05,2.6,0,20.06-8.22,0-.08-38.66,8.21,0Z"/><path class="cls-2" d="M160.29,92.12c.22,3.4,3.63,5,7.47,5A21.91,21.91,0,0,0,175.05,96l1.09,5.56a24.84,24.84,0,0,1-9.56,1.69c-9,0-14.11-5.15-14.13-13.42,0-6.7,4.13-14.11,13.31-14.13,8.54,0,11.8,6.62,11.81,13.16a18.49,18.49,0,0,1-.26,3.24ZM170,86.48c0-2-.88-5.35-4.66-5.34-3.46,0-4.86,3.2-5.07,5.36Z"/><path class="cls-2" d="M180.23,84.94c0-3.89-.07-6.43-.24-8.7l7,0,.33,4.87h.22a7.68,7.68,0,0,1,7.12-5.53,8.15,8.15,0,0,1,1.73.16v7.72a13,13,0,0,0-2.21-.21c-3,0-5.08,1.64-5.61,4.18a9.52,9.52,0,0,0-.16,1.83l0,13.4-8.22,0Z"/><path class="cls-2" d="M198.41,96.76v5.49H196.7V96.76h-1.93V95.43h5.53v1.33Zm9.05,5.49V97.44h0l-1.74,4.81h-1.12l-1.78-4.81h0v4.81h-1.56V95.43h2.24l1.68,4.47,1.71-4.47h2.23v6.82Z"/></g></g></svg>