<svg id="Layer_1" data-name="Layer 1" xmlns="http://www.w3.org/2000/svg" viewBox="0 0 374.6 90.41"><title>nockerlogo</title><path d="M394.16,417.52c0-7.64-.28-14-.54-19.53l16.53,0,.89,8.51h.38a22,22,0,0,1,18.89-9.93c12.52,0,21.93,8.34,22,26.37l.08,36.19-19,0-.07-33.93c0-7.89-2.78-13.27-9.67-13.25-5.26,0-8.38,3.65-9.75,7.16a13.72,13.72,0,0,0-.62,4.76l.08,35.31-19,0Z" transform="translate(-393.62 -395.71)" fill="#fff"/><path d="M521.45,427.63c0,22.41-15.83,32.72-32.23,32.75-17.91,0-31.71-11.7-31.75-31.49s13-32.58,32.74-32.63C508.86,396.23,521.41,409.1,521.45,427.63Zm-44.33.72c0,10.52,4.42,18.4,12.56,18.38,7.51,0,12.13-7.41,12.11-18.56,0-9-3.55-18.27-12.19-18.25C480.59,409.94,477.11,419.34,477.13,428.35Z" transform="translate(-393.62 -395.71)" fill="#fff"/><path d="M574.39,457.19c-3.38,1.64-9.76,2.9-17,2.92-19.78,0-32.46-12.08-32.5-31.23,0-17.91,12.2-32.58,35-32.63a44.17,44.17,0,0,1,14.53,2.35l-3,14.16a26,26,0,0,0-10.65-1.85c-10,0-16.51,7.17-16.37,17.19,0,11.15,7.55,17.14,16.82,17.12a26.85,26.85,0,0,0,10.89-2Z" transform="translate(-393.62 -395.71)" fill="#fff"/><path d="M598.64,423.32h.25a82.15,82.15,0,0,1,4.37-7.4l12.36-18.43,22.91-.05-21.86,24.84,25.12,36.39-23.41.05-15-25.14-4.75,6,0,46.49-19,0-.19-89.57,19,0Z" transform="translate(-393.62 -395.71)" fill="#fff"/><path d="M655.17,434.09c.52,7.89,8.41,11.63,17.3,11.61a50.44,50.44,0,0,0,16.9-2.67l2.53,12.89c-6.26,2.64-13.89,3.91-22.15,3.93C649,459.89,637,447.9,637,428.74c0-15.53,9.57-32.7,30.86-32.75,19.79,0,27.33,15.34,27.37,30.49a45.2,45.2,0,0,1-.61,7.51ZM677.56,421c0-4.63-2-12.39-10.8-12.37-8,0-11.25,7.41-11.74,12.42Z" transform="translate(-393.62 -395.71)" fill="#fff"/><path d="M701.37,417.45c0-9-.16-14.9-.55-20.16l16.28,0,.78,11.27h.5c3.11-9,10.49-12.8,16.5-12.81a19,19,0,0,1,4,.37l0,17.91a28.44,28.44,0,0,0-5.13-.49c-7,0-11.76,3.78-13,9.67a22.47,22.47,0,0,0-.37,4.26l.07,31.05-19,0Z" transform="translate(-393.62 -395.71)" fill="#fff"/><path d="M743.51,444.83v12.73h-3.95V444.83h-4.48v-3.07H747.9v3.07Zm21,12.73V446.41h0l-4,11.15h-2.59l-4.13-11.15h-.09v11.15H750v-15.8h5.18l3.91,10.36,4-10.36h5.18v15.8Z" transform="translate(-393.62 -395.71)" fill="#fff"/></svg>