<svg id="Layer_1" data-name="Layer 1" xmlns="http://www.w3.org/2000/svg" viewBox="0 0 1002 376.47"><title>nocker</title><rect width="1002" height="375" fill="#283942"/><path d="M168.84,196.34c0-5-.18-9.13-.35-12.71l10.76,0,.58,5.54h.24a14.31,14.31,0,0,1,12.29-6.46c8.15,0,14.27,5.43,14.3,17.16l.05,23.55-12.39,0,0-22.08c0-5.13-1.81-8.64-6.29-8.63a6.8,6.8,0,0,0-6.35,4.66,8.93,8.93,0,0,0-.4,3.1l0,23-12.39,0Z" fill="#f6c523"/><path d="M251.69,202.92c0,14.59-10.3,21.29-21,21.32-11.65,0-20.63-7.62-20.66-20.49s8.43-21.21,21.31-21.23C243.5,182.48,251.66,190.86,251.69,202.92Zm-28.85.47c0,6.85,2.88,12,8.18,12,4.89,0,7.89-4.83,7.88-12.08,0-5.87-2.31-11.89-7.93-11.88C225.1,191.41,222.83,197.52,222.84,203.39Z" fill="#f6c523"/><path d="M286.14,222.16c-2.2,1.06-6.35,1.89-11.08,1.9-12.88,0-21.12-7.86-21.15-20.33,0-11.65,7.94-21.21,22.77-21.24a28.75,28.75,0,0,1,9.46,1.53l-1.94,9.21a17,17,0,0,0-6.93-1.21c-6.52,0-10.75,4.67-10.65,11.19,0,7.25,4.91,11.15,10.94,11.14a17.47,17.47,0,0,0,7.09-1.32Z" fill="#f6c523"/><path d="M301.92,200.12h.16a53.44,53.44,0,0,1,2.84-4.82l8-12,14.91,0-14.23,16.17L330,223.12l-15.24,0L305,206.79l-3.09,3.92L302,241l-12.39,0-.13-58.3,12.39,0Z" fill="#f6c523"/><path d="M338.71,207.12c.34,5.13,5.48,7.57,11.26,7.55a32.83,32.83,0,0,0,11-1.73l1.65,8.39a37.7,37.7,0,0,1-14.42,2.56c-13.53,0-21.29-7.78-21.31-20.25,0-10.11,6.23-21.28,20.08-21.31,12.88,0,17.79,10,17.81,19.85a29.42,29.42,0,0,1-.4,4.89Zm14.57-8.51c0-3-1.32-8.06-7-8.05-5.22,0-7.32,4.82-7.64,8.08Z" fill="#f6c523"/><path d="M368.78,196.3c0-5.87-.1-9.7-.35-13.12l10.59,0,.5,7.33h.33c2-5.87,6.83-8.33,10.74-8.34a12.39,12.39,0,0,1,2.61.24l0,11.65a18.51,18.51,0,0,0-3.34-.32c-4.56,0-7.66,2.46-8.46,6.29a14.63,14.63,0,0,0-.24,2.77l0,20.21-12.39,0Z" fill="#f6c523"/><path d="M403.34,183.31h-3v-1.07l7.23,0v1.07h-3l0,8.69h-1.28Z" fill="#f6c523"/><path d="M416.63,187.69c-.08-1.36-.17-3-.17-4.21h0c-.35,1.13-.73,2.36-1.22,3.71l-1.71,4.74h-1l-1.6-4.65c-.47-1.39-.85-2.63-1.12-3.79h0c0,1.22-.1,2.84-.18,4.32l-.25,4.19h-1.2l.66-9.77h1.61l1.68,4.72c.41,1.2.73,2.27,1,3.29h0c.26-1,.61-2.06,1-3.29l1.73-4.73h1.61l.63,9.76h-1.25Z" fill="#f6c523"/><text transform="translate(168.49 134.01) scale(0.97 1)" font-size="12.6" fill="#fff" font-family="HelveticaNeueLTStd-Roman, Helvetica Neue LT Std">Newcomers, Refugees and immigrants will find Nocker especially useful to <tspan x="0" y="15.13">start working in their a</tspan><tspan x="125.11" y="15.13" letter-spacing="-0.02em">r</tspan><tspan x="129.08" y="15.13">ea of expertise as soon as they arrive in Canada.</tspan></text><text transform="translate(168.49 75.29) scale(0.97 1)" font-size="25.77" fill="#fff" font-family="HelveticaNeueLTStd-Roman, Helvetica Neue LT Std">Find short-term work on demand and minimize<tspan x="0" y="28.4">financial st</tspan><tspan x="123.15" y="28.4" letter-spacing="-0.02em">r</tspan><tspan x="131.27" y="28.4" letter-spacing="0em">ess during your transition.</tspan></text><path d="M719.66,373.55a56.31,56.31,0,0,0,51.16-32.77,29.94,29.94,0,0,0,55.86-11,25.92,25.92,0,1,0,1-41,36.65,36.65,0,0,0-36.51-33.62c-.83,0-1.65,0-2.47.1a36.65,36.65,0,0,0-70.17-6,36.67,36.67,0,0,0-45.6,19.35,36.64,36.64,0,1,0-6,68.36,56.31,56.31,0,0,0,52.76,36.64Z" fill="#f1f1f1"/><path d="M612.17,370.74a25.92,25.92,0,1,0-15.31-46.81,36.65,36.65,0,0,0-36.51-33.62c-.83,0-1.65,0-2.47.09a36.65,36.65,0,0,0-70.17-6,36.66,36.66,0,0,0-45.6,19.35,36.64,36.64,0,1,0-15.8,69.7Z" fill="#f1f1f1"/><path d="M612.17,371.74l-7.3,3.26H593.29a28.15,28.15,0,0,0,1.2-3,1.72,1.72,0,0,0,.11-.32,29.26,29.26,0,0,0,1.27-5.7A25.74,25.74,0,0,0,612.17,371.74Z" fill="#f1f1f1"/><path d="M375.82,371.52a36.64,36.64,0,1,0-7.88-72.85,36.26,36.26,0,0,0-9.59,2.38,56.31,56.31,0,0,0-103.73,7.32,29.94,29.94,0,0,0-54.36,16.92A25.91,25.91,0,1,0,189,372.83Z" fill="#f1f1f1"/><path d="M375.82,371.52l-5,2.48H358c.37-.77.72-1.56,1-2.36s.51-1.31.73-2a36.35,36.35,0,0,0,8.73,1.91h.07A35.57,35.57,0,0,0,375.82,371.52Z" fill="#f1f1f1"/><path d="M196.75,375.06h.06l.32,0,0-.08h9c-.19-.42-.37-.85-.53-1.29a35.47,35.47,0,0,1-1.9-6.52,25.06,25.06,0,0,1-4.09,3.06,25.41,25.41,0,0,1-10.2,3.53l-.4,0,.28.12,2.51,1,.18.07h4.77Z" fill="#f1f1f1"/><path d="M198.93,335.69A26.06,26.06,0,0,1,192.4,337a25.68,25.68,0,0,1-10.76-1.59,30,30,0,0,1-13.32,31.31,29.37,29.37,0,0,1-6.49,3.09,30,30,0,0,1-29.67-6.24A55.88,55.88,0,0,1,130,374H65.59L11.73,335.92.26,327.81a36.37,36.37,0,0,1,16.12-1.64,36.68,36.68,0,0,1,37.09-32.83,36.63,36.63,0,0,1,68.45-16.57c.76-.32,1.53-.61,2.31-.88a36.66,36.66,0,0,1,45.3,20.28,25.91,25.91,0,0,1,44.52,3.7,26.66,26.66,0,0,1,1.22,3,25.89,25.89,0,0,1-16.34,32.81Z" fill="#f1f1f1"/><path d="M982,325.59a25.91,25.91,0,0,1-24.22,25.85c-.56,0-1.13.06-1.7.06a25.76,25.76,0,0,1-16.3-5.77,29.88,29.88,0,0,1-7.71,16.67h0a29.83,29.83,0,0,1-22,9.64,29.42,29.42,0,0,1-7.73-1h0a29.94,29.94,0,0,1-18.41-14.33A56.51,56.51,0,0,1,869.31,376H846.7v0l0,0H796.24a55.27,55.27,0,0,1-8.72-9.36,53.14,53.14,0,0,1-4.27-6.7,54.16,54.16,0,0,1-3.23-7.1c-1,.26-1.91.49-2.89.68s-1.78.31-2.69.42a36.49,36.49,0,0,1-4.21.24,37.29,37.29,0,0,1-4.51-.27c-1-.13-2-.29-2.93-.48-.63-.14-1.26-.28-1.88-.44a36.65,36.65,0,0,1,9.32-72.09c.74,0,1.48,0,2.22.07A36.57,36.57,0,0,1,786,284.48c.45-1,.94-1.94,1.48-2.87a36.71,36.71,0,0,1,14.1-14,36.33,36.33,0,0,1,12.68-4.24,37.33,37.33,0,0,1,5.1-.35,36.8,36.8,0,0,1,12.24,2.1,36.64,36.64,0,0,1,70.17,6c.82-.06,1.64-.09,2.48-.09a36.64,36.64,0,0,1,36.5,33.61A25.9,25.9,0,0,1,982,325.59Z" fill="#f1f1f1"/><path d="M822.91,376h-62V341.43a39.3,39.3,0,0,1,5.68,3.84c.43.35.85.7,1.27,1.08a38.62,38.62,0,0,1,9,11.89c.5,1,.95,2,1.35,3.1a36.62,36.62,0,0,1,5-1.4,33.55,33.55,0,0,1,4.27-.64,35.27,35.27,0,0,1,3.57-.18,38.8,38.8,0,0,1,7.12.66,37.75,37.75,0,0,1,12.1,4.5,34.32,34.32,0,0,1,3,1.9A38.5,38.5,0,0,1,822.91,376Z" fill="#fff"/><path d="M760.91,341.43V376H678a38.32,38.32,0,0,1,17.49-7.88,38.94,38.94,0,0,1,6.52-.55c.88,0,1.74,0,2.6.09a37.66,37.66,0,0,1,2.88-8.82A38.43,38.43,0,0,1,739,336.76c1.09-.09,2.2-.14,3.32-.14A38.15,38.15,0,0,1,760.91,341.43Z" fill="#fff"/><path d="M846.7,376v0l0,0H588.12a23.92,23.92,0,0,1,1.41-2.93,24.37,24.37,0,0,1,1.89-2.93,27.17,27.17,0,0,1,38-5.8,38.43,38.43,0,0,1,15.89-28h0a38.15,38.15,0,0,1,22.4-7.22c.88,0,1.74,0,2.59.09.23-1.16.51-2.31.84-3.43a38.46,38.46,0,0,1,72.79-2.9,38.77,38.77,0,0,1,12.84-2.2,38.22,38.22,0,0,1,12.11,1.95,37.69,37.69,0,0,1,9.53,4.73,38.61,38.61,0,0,1,13.36,15.82,38.13,38.13,0,0,1,16.09-3.73h.48a38.47,38.47,0,0,1,14,2.64,38,38,0,0,1,7.1,3.69,37.44,37.44,0,0,1,7,5.89h0A38.29,38.29,0,0,1,846.7,376Z" fill="#fff"/><path d="M707.87,364a39.89,39.89,0,0,1-.83,8.09,39.43,39.43,0,0,1-1,3.91H472.57l-8.25-1.14h-.1l-17-2.32a27.37,27.37,0,0,1,27.2-27.5,26.93,26.93,0,0,1,16.07,5.33,39,39,0,0,1,2.37-10.63,38.5,38.5,0,0,1,35.93-25c.87,0,1.74.05,2.59.1a38.8,38.8,0,0,1,24.85-29.13,38,38,0,0,1,31.43,2.62A38.8,38.8,0,0,1,605,308.42a38.46,38.46,0,0,1,12.85-2.22c1,0,2,0,3,.12a38.46,38.46,0,0,1,32,22.62,37.94,37.94,0,0,1,16.57-3.79c.56,0,1.12,0,1.68,0a38.61,38.61,0,0,1,36.41,33.46A39.26,39.26,0,0,1,707.87,364Z" fill="#fff"/><path d="M549.39,376H290.82c.25-.65.54-1.29.85-1.91a27,27,0,0,1,40.4-9.9,38.88,38.88,0,0,1,24.1-33,37.91,37.91,0,0,1,14.2-2.74c.87,0,1.73,0,2.59.09a38.34,38.34,0,0,1,3.42-10.06,38.84,38.84,0,0,1,12.73-14.67,37.91,37.91,0,0,1,38.64-2.62c.5.24,1,.51,1.49.78a38.9,38.9,0,0,1,17.34,20.16,38.19,38.19,0,0,1,46.29,17.51c.56,1,1.08,2,1.55,3A37.85,37.85,0,0,1,511,338.93a38.68,38.68,0,0,1,38.21,34.69C549.29,374.41,549.35,375.2,549.39,376Z" fill="#fff"/><path d="M359.86,338a38.72,38.72,0,0,0-3.69-7.5,37.86,37.86,0,0,0-60-5.91,37.71,37.71,0,0,0-40.68-8.95,38.39,38.39,0,0,0-11.24,6.77A38.24,38.24,0,0,0,221,309.58c-1.14-.17-2.29-.29-3.44-.35a37,37,0,0,0-13.21,1.61c-.8.26-1.61.53-2.41.84a38.32,38.32,0,0,0-14.52,10,37.13,37.13,0,0,0-2.42,2.95,40.31,40.31,0,0,0-7.41,30.58c-.82.26-1.64.52-2.46.84a38.21,38.21,0,0,0-10.82,6.41,39.34,39.34,0,0,0-8.83,10.66c-.52.92-1,1.86-1.45,2.81H191.8l.18.08h4.84l.32,0,0-.08H354.42q.89-1.17,1.65-2.4A40.32,40.32,0,0,0,359.86,338Z" fill="#fff"/><path d="M443.55,375.16c0,.28,0,.57,0,.84H197.16c.15-.42.33-.84.51-1.25a25,25,0,0,1,1.94-3.57,25.8,25.8,0,0,1,18.9-11.73,25.42,25.42,0,0,1,16.83,4A30.18,30.18,0,0,1,262,333.76a29.76,29.76,0,0,1,27.64,12.6,57,57,0,0,1,27-32.26,54.18,54.18,0,0,1,5.25-2.48,55.68,55.68,0,0,1,54.4,6.89A56.86,56.86,0,0,1,390,333h0a56.15,56.15,0,0,1,3.38,5.9,36.21,36.21,0,0,1,15.1-2.59,37.11,37.11,0,0,1,35,38.81Z" fill="#f5f5f5"/><path d="M597.93,373H540.28c.69-.78,1.41-1.54,2.16-2.25a37.48,37.48,0,0,1,6-4.73,38.48,38.48,0,0,1,46.18,3.65c.12.1.23.2.35.32A36.81,36.81,0,0,1,597.93,373Z" fill="#fff"/><path d="M781.4,212.09q0,3.8,0,7.59,0,4.39-.06,8.79c0,3.28-.07,6.57-.12,9.85,0,.3,0,.6,0,.91h0l0,1.62c0,2.8-.09,5.59-.15,8.39s-.11,5.89-.18,8.83l-.15,5.9c-.08,3.12-.16,6.25-.26,9.37s-.17,5.94-.27,8.92q-.14,4.21-.29,8.44-.24,7-.53,14.06-.21,5.21-.43,10.42-.24,6.06-.53,12.13c-.15,3.57-.32,7.16-.49,10.74q-.2,4.35-.41,8.71c0,.68-.07,1.36-.1,2.05l-.24,4.7c-.07,1.57-.15,3.14-.23,4.72q-.44,8.86-.9,17.76H763.52q1.08-11.05,2.2-22.09c.17-1.67.34-3.33.5-5h0c.13-1.21.25-2.42.37-3.63q1.14-11.34,2.25-22.68c1.33-13.85,2.57-27.72,3.61-41.62,1.19-15.87,2.1-31.79,2.54-47.78q.3-10.28.31-20.58Z" fill="#f2f2f2" stroke="#e5e5e4" stroke-miterlimit="10" stroke-width="0.95"/><path d="M787.52,354.6v12c0,3.12,0,6.24,0,9.36H776q.46-8.89.9-17.76c.08-1.58.16-3.15.23-4.72l.24-4.7c0-.69.06-1.37.1-2.05q.21-4.36.41-8.71c.17-3.58.34-7.17.49-10.74q.29-6.08.53-12.13.22-5.22.43-10.42.29-7,.53-14.06.15-4.23.29-8.44.15-4.47.27-8.92c.1-3.12.18-6.25.26-9.37l.15-5.9c.07-2.94.13-5.89.18-8.83s.11-5.59.15-8.39l0-1.62h0c0-.31,0-.61,0-.91,0-3.28.09-6.57.12-9.85q0-4.39.06-8.79,0-3.8,0-7.59l6.09-.51v39.18q0,15.42,0,30.85,0,27.12,0,54.44Q787.53,345.3,787.52,354.6Z" fill="#fff"/><path d="M799,376H787.52c0-3.12,0-6.24,0-9.36v-12q0-9.3,0-18.55,0-27.34,0-54.44,0-15.45,0-30.85V211.58l6.06-.52q0,22.14.53,44.21.2,8.73.46,17.46c.67,22.7,1.64,45.42,2.74,68.27q.36,7.54.74,15.1c.06,1.23.12,2.45.19,3.68Q798.61,367.88,799,376Z" fill="#f1f1f1"/><path d="M811.47,376H799q-.43-8.13-.83-16.22c-.07-1.23-.13-2.45-.19-3.68q-.37-7.56-.74-15.1c-1.1-22.85-2.07-45.57-2.74-68.27q-.25-8.73-.46-17.46-.5-22.08-.53-44.21l6-.52c0,15.39.52,30.69,1.36,45.94q.3,5.58.66,11.14c1.55,24,3.83,47.91,6.22,71.79l1.41,14.08c.36,3.6.73,7.19,1.08,10.79q.29,2.76.55,5.54Q811.18,372.91,811.47,376Z" fill="#f2f2f2" stroke="#e5e5e4" stroke-miterlimit="10" stroke-width="0.95"/><path d="M769.64,233.09l6.91,49.37,10-44.57,8.36,46.44,6.56-41.46,20.64,42.2s-14.18-67.64-14.28-99.67l-40.49-.64c-3,56.2-14.17,98-14.17,98Z" fill="#b51f24"/><path d="M782.68,143.42c-42.13,12.46-51.21,42.38-51.3,57.29.24,16.63,9.46,18.24,11.41,14,2.34-5.56,13.24-21.18,26.53-29.22,12.8-9,28-10.48,27.49-10.59Q790.42,158.92,782.68,143.42Z" fill="#fbb01e"/><path d="M784.22,143.43c42.06,12.7,51,42.68,51,57.59-.33,16.63-9.57,18.19-11.49,14-2.3-5.57-13.11-21.26-26.36-29.38-12.75-9.11-27.93-10.64-27.42-10.75Q776.39,158.88,784.22,143.43Z" fill="#fbb01e"/><path d="M759.67,59.39c-4.66,15.16-7.46,34.18-7.52,54.85-.14,49.53,15.51,89.74,35,89.8s35.36-40.05,35.5-89.59c.06-20.67-2.63-39.71-7.2-54.89a104.22,104.22,0,0,1-27.89,3.53A104.25,104.25,0,0,1,759.67,59.39Z" fill="#2f3c51"/><path d="M787.56,56.68a105.78,105.78,0,0,1-25.91-3.16q-1,2.83-2,5.87a104.25,104.25,0,0,0,27.87,3.69,104.22,104.22,0,0,0,27.89-3.53q-.92-3-1.94-5.88A105.86,105.86,0,0,1,787.56,56.68Z" fill="#b51f24"/><path d="M787.65,24.65c-10.25,0-19.52,11.09-26,28.87a105.78,105.78,0,0,0,25.91,3.16,105.86,105.86,0,0,0,25.93-3C807.11,35.86,797.91,24.68,787.65,24.65Z" fill="#fbb01e"/><path d="M790.37,185.53c-.34,17.33-2.5,31.35-4.83,31.31s-3.94-14.14-3.61-31.48,2.5-31.35,4.83-31.3S790.7,168.19,790.37,185.53Z" fill="#fbb01e"/><polygon points="795.51 98.19 795.51 98.19 795.87 97.71 795.87 97.71 795.51 98.19" fill="#f7b7c4"/><polygon points="795.56 98.22 795.46 98.15 795.82 97.67 795.92 97.75 795.56 98.22" fill="#020202"/><path d="M800,102.89a16.8,16.8,0,1,1-3.17-23.54A16.8,16.8,0,0,1,800,102.89Z" fill="#fbb01e"/><path d="M798,101.31a14.2,14.2,0,1,1-2.68-19.91A14.2,14.2,0,0,1,798,101.31Z" fill="#fff"/><path d="M786.48,106.74a13.95,13.95,0,1,1,13.95-13.95A14,14,0,0,1,786.48,106.74Zm0-26.87A12.93,12.93,0,1,0,799.4,92.79,12.94,12.94,0,0,0,786.48,79.87Z" fill="#fff"/><circle cx="786.48" cy="92.79" r="12.92" fill="#1f2c34"/><path d="M785.08,89.9h0a15,15,0,0,1,.8-1.35l2.25-3.36h4.18l-4,4.53,4.58,6.63h-4.27L786,91.77l-.86,1.1v8.47h-3.47l0-16.33h3.47Z" fill="#f6c523"/><path d="M761.64,53.52q-1,2.83-2,5.87c-4.66,15.16-7.46,34.18-7.52,54.85a207.75,207.75,0,0,0,4,41.89c-19.65,14.31-24.66,33.56-24.72,44.59.24,16.63,9.46,18.24,11.41,14,2.18-5.18,11.82-19.12,23.89-27.5l.47.86c-3.22,54.5-14,94.65-14,94.65l16.47-49.65,6.91,49.37,10-44.57.55,3V24.68C777.08,25,768,36.05,761.64,53.52Z" fill="#fff" opacity="0.3"/><path d="M846.7,376v0l0,0Z" fill="#fff"/><rect x="951" y="298" width="51" height="72" fill="#f1f1f1"/><rect y="328" width="19" height="46" fill="#f1f1f1"/><path d="M189.41,374.7l0,.05-.09.12q-.36.55-.75,1.06H0V361.58a38.55,38.55,0,0,1,8.88-4.82c.82-.31,1.64-.59,2.46-.84a39.31,39.31,0,0,1,1.39-18.61,38.63,38.63,0,0,1,23-24.33,37.66,37.66,0,0,1,19.06-2.09A38.44,38.44,0,0,1,78,323.58a38.49,38.49,0,0,1,11.24-6.68,38.05,38.05,0,0,1,40.68,8.83,38.08,38.08,0,0,1,52.22-3.07,36.51,36.51,0,0,1,2.84,2.62,38.69,38.69,0,0,1,8.42,13.11c.08.19.16.39.23.58A39.39,39.39,0,0,1,189.41,374.7Z" fill="#fff"/><path d="M1002,297.51v43.6l-41.35,12-28.57,8.29h0L902.35,370h0l-17.11,5H846.7v0l0,0a36.55,36.55,0,0,1-17.22-30.27c0-.27,0-.54,0-.81a36.59,36.59,0,0,1,36.64-36.64c.94,0,1.88,0,2.8.11a36.29,36.29,0,0,1,13,3.47,36.68,36.68,0,0,1,45.6-19.35,36.07,36.07,0,0,1,4.68-8.56A36.76,36.76,0,0,1,944,272.55a36.6,36.6,0,0,1,53.65,25c.81-.06,1.63-.09,2.47-.09C1000.74,297.46,1001.37,297.48,1002,297.51Z" fill="#f1f1f1"/><path d="M1002,354.31V365H850.76v0l0,0H813a38.93,38.93,0,0,1,2.85-6.18,37,37,0,0,1,24.87-18.2h0a36.09,36.09,0,0,1,7.39-.76c.84,0,1.68,0,2.52.1a38.66,38.66,0,0,1,9.84-19.31h0a36.78,36.78,0,0,1,5.61-4.9h0a36.52,36.52,0,0,1,39.33-2,38.3,38.3,0,0,1,16.89,19.9,36.67,36.67,0,0,1,36.6,6.82,35.57,35.57,0,0,1,2.79,2.67,38.58,38.58,0,0,1,7.21,10.81,36.63,36.63,0,0,1,33.06.39Z" fill="#fff"/><rect x="819" y="360" width="183" height="16" fill="#fff"/></svg>