<svg id="Layer_1" data-name="Layer 1" xmlns="http://www.w3.org/2000/svg" viewBox="0 0 123.53 181.73"><title>nok1</title><path d="M789.57,602.27a2.64,2.64,0,0,0,.07-.89.69.69,0,0,0-.87-.66,5.13,5.13,0,0,0-2,1.52,9.06,9.06,0,0,1-2.77-.76,5.26,5.26,0,0,1-2.92-6.13.26.26,0,0,0-.5-.14c-1.12,2.89-1.33,5.51,1.19,7.8a6.81,6.81,0,0,0,2.82,1.39l-.25.17c-2.23,1.32-5.05.87-7.38.14-.82-.26-1.4,1-.59,1.4,2.51,1.11,5.12,1.79,7.81,1a10.38,10.38,0,0,0,3.64-2.17c1.44.13,3.14.07,3.68-1.19a.64.64,0,0,0-.09-.72A2.18,2.18,0,0,0,789.57,602.27Z" transform="translate(-737.21 -425.71)" fill="#283942"/><path d="M834.25,587a.6.6,0,0,0-1.09-.14c-1.6,3.11-2.74,6.1-5.85,8a8.45,8.45,0,0,1-7.47.7l.06-.17a.47.47,0,0,0-.79-.46l-.17.17a6.48,6.48,0,0,1-1.34-1,.26.26,0,0,0-.4.31,7.86,7.86,0,0,0,1,1.47,25.34,25.34,0,0,1-2.5,2.16c.07-.14.13-.27.19-.41a.6.6,0,0,0-.94-.72c-1.23,1-2.41,1.93-3.61,2.83a14.23,14.23,0,0,1-3-.34c-.18-1.42-.47-2.77-.75-4.2a.34.34,0,0,0-.66,0,44.59,44.59,0,0,0-.85,5.17,1,1,0,0,0,.28.74c-2.24.76-4.79,1.42-7.08,1a9.35,9.35,0,0,1-6-4.91c-.12-.27-.55-.07-.47.2.87,2.8,1.62,4.81,4,6.2-1.17-.22-2.35-.5-3.56-.75a.6.6,0,0,0-.46,1.09c5.48,4.11,14.11,3,19.42-1.4a7.54,7.54,0,0,0,2.84-.71,8.9,8.9,0,0,0,4.33-4.95,7,7,0,0,0,4,1.26c-.33.26-.72.55-.7.91s.61.41.94.37c.09,0,.13-.15,0-.17-.73-.11-.47-.3,0-.57s1.38-.51,2-.8h0a12.13,12.13,0,0,0,3.86-1.67c.13-.07.26-.13.38-.21a.75.75,0,0,0,.22-.21C832.94,593.7,834.89,590.42,834.25,587Zm-26.61,14.77.39.14c-.43.24-.86.46-1.31.68a12.13,12.13,0,0,0,.91-.81Z" transform="translate(-737.21 -425.71)" fill="#283942"/><path d="M761.65,581.59a.56.56,0,0,0,0-1.07,3.36,3.36,0,0,1-2.68-2.44,10.82,10.82,0,0,1,.26-4.94.81.81,0,0,0-1.57-.43C756.79,576,756.19,582.83,761.65,581.59Z" transform="translate(-737.21 -425.71)" fill="#283942"/><path d="M772.2,574.47a8.85,8.85,0,0,0-2.57,5.57,1,1,0,0,0,.5.88c2.41,1.11,6.3,1.7,8.81.71a.6.6,0,0,0,0-1.15c-2.28-.9-4.89-.32-7.25-1.14a6.85,6.85,0,0,1,1.48-3.9C773.72,574.76,772.85,573.84,772.2,574.47Z" transform="translate(-737.21 -425.71)" fill="#283942"/><path d="M812.32,579.46a4.42,4.42,0,0,1-2.29-2.68c-.36-.9-1.8-.55-1.48.41a6.13,6.13,0,0,0,3.29,4,3,3,0,0,0,4-2.07.52.52,0,0,0-.75-.58C814.15,579.17,813.52,579.82,812.32,579.46Z" transform="translate(-737.21 -425.71)" fill="#283942"/><path d="M775.31,568.59a8.2,8.2,0,0,1,1.36-.74c.27-.13.59-.17.85-.32a6.2,6.2,0,0,1,.51-.36c.25,0,.5-.07.75-.1a.26.26,0,0,0,0-.51,11.91,11.91,0,0,0-2.53-.25,4.16,4.16,0,0,0-1.89.66,2.78,2.78,0,0,0-1.28,3,.94.94,0,0,0,.53.61,4.21,4.21,0,0,0,.85.73.52.52,0,0,0,.7-.7,2.87,2.87,0,0,1-.29-.72C775,569.45,774.79,569,775.31,568.59Z" transform="translate(-737.21 -425.71)" fill="#283942"/><path d="M796.92,568.27a6.93,6.93,0,0,0-4.28,4c-.53,1.26-.85,2.19.36,3.15a1.6,1.6,0,0,0,1.35.37c.46-.16,1-.71,1.47-.43a.47.47,0,0,0,.57-.74c-.66-.76-1.69-.35-2.32-.86a8.37,8.37,0,0,1,3.3-4.39C797.93,569,797.58,568,796.92,568.27Z" transform="translate(-737.21 -425.71)" fill="#283942"/><path d="M813.69,593.84a.69.69,0,0,0,0-1.18c-1.5-.8-3.31-.87-4.93-1.39a19.93,19.93,0,0,1-5.32-2.53c-.52-.36-1,.39-.62.81C805.07,592.37,810,595.52,813.69,593.84Z" transform="translate(-737.21 -425.71)" fill="#283942"/><path d="M785.61,587.15a.73.73,0,0,0-1.45,0,6.53,6.53,0,0,0,.89,4.39,5.47,5.47,0,0,0,3.79,2.12c.46.08.78-.53.33-.78A6.9,6.9,0,0,1,785.61,587.15Z" transform="translate(-737.21 -425.71)" fill="#283942"/><path d="M803.42,594.48a3.58,3.58,0,0,0-1.08-.38,3.28,3.28,0,0,1-1.16-.71,3.64,3.64,0,0,1-1.33-2.18.73.73,0,0,0-1.46,0,4.86,4.86,0,0,0,1.22,3.41c.72.85,2.44,2,3.59,1.53A.93.93,0,0,0,803.42,594.48Z" transform="translate(-737.21 -425.71)" fill="#283942"/><path d="M859.45,454.91c.32-.58.65-1.16.94-1.75.19-.39-.38-.74-.59-.35s-.37.62-.55.93c-1.53-8.74-3.66-17.58-3.4-26.17a1.86,1.86,0,0,0-2.78-1.59c-24.61,16.11-69.92,45.56-49.77,80.46-3.38,4.57-6.44,9.34-9.22,13.89-.93,1.52-1.83,3.12-2.68,4.78.15-1.17.28-2.34.37-3.51,13.19-12.36,6.58-34.18-2.05-47.61-10.35-16.1-30.27-30.59-50-22.55a1.64,1.64,0,0,0-1.12,2c4.05,17.28.77,36.92,11.14,52.34,4.17,6.2,10.83,9.8,17.41,12.91,6.27,3,13.54,5.63,17.42,11.7-.55,5.91-.76,12.34,2.26,17.31.11.24.23.48.36.71-9,3.69-17.31,9.07-25.18,14.72a139.41,139.41,0,0,0-23.95,21.32.63.63,0,0,0-.65.52c-.41,2.79-.53,6.4,2.25,8.07a3.16,3.16,0,0,0,.91.36,1.55,1.55,0,0,0,0,.33,9.56,9.56,0,0,0,6.12,7.57,2,2,0,0,0,2.23-.91,2.35,2.35,0,0,1,1.66-1.13,5.52,5.52,0,0,0,2.46,1.91,7.33,7.33,0,0,0,4.19.13,1,1,0,0,0,.35.94,11.23,11.23,0,0,0,6.91,3,7.49,7.49,0,0,0,5.08-1.54,9.28,9.28,0,0,0,7.67-4,.65.65,0,0,0-.72-.94c-1.77.67-3.45,1.77-5.28,2.27a.85.85,0,0,0-.86-.36,16.67,16.67,0,0,0-1.89.48c-2.26-.69-3-3.67-3.19-5.83a.81.81,0,0,0-.33-.61,7.29,7.29,0,0,0,5.11-3.15c.36-.48-.34-1.16-.82-.82-1.88,1.34-3.53,2-5.7,1.64-.06-1.74-.22-3.45-.42-5.2a.68.68,0,0,0-1.37,0,55.71,55.71,0,0,0-.45,6.1,1.15,1.15,0,0,0,.83,1.1,7.52,7.52,0,0,0,1.79.34.8.8,0,0,0-.26.6c-.08,2.51.36,5,2,6.69l-.07,0c-2.09.52-4.44-.41-6.27-1.42a7.57,7.57,0,0,0,3.65-3,.61.61,0,0,0-.68-.88c-2.73.4-4.83,2.58-7.76,2.54a2.91,2.91,0,0,1-2-.76,2,2,0,0,0,.59-.73,1,1,0,0,0-.56-1.38,10.44,10.44,0,0,0-1.23-.35c0-.17-.07-.35-.1-.53.8-.58,1.53-1.42,2.33-1.88a.47.47,0,0,0-.36-.86,11.77,11.77,0,0,0-2.08.61c0-.42,0-.82.05-1.17.09-1.17-1.67-1.13-1.8,0-.06.56-.1,1.14-.11,1.71a4.39,4.39,0,0,1-2.16-.45,4.26,4.26,0,0,1,0-2.58,4.5,4.5,0,0,0,.53-1.73.39.39,0,0,0-.76-.1v0c-.06-.4-.37-.76-.82-.57-.81.34-1.31.05-2,.6-.42.32-.85.62-1.29.91s-1.26.72-1.86.43a2.89,2.89,0,0,1-1.11-1.75,24.76,24.76,0,0,1-.91-3.6q3.27-3.22,6.76-6.35a.73.73,0,0,0-.06.25c-.07,2-.54,4.36.19,6.23a.52.52,0,0,0,1,0c.73-1.88.26-4.26.19-6.23a.67.67,0,0,0-.89-.63c12.81-11.38,27.67-21.43,43.4-27.66l.33.12.28.1-.06,0,.08,0a2.63,2.63,0,0,1,.38.19h0l0,0a2,2,0,0,1-.38-.19h0a4.35,4.35,0,0,0,.4.25c-1.07,1.52-1.85,3-.83,4.91,1.19,2.25,5.18,3.27,7.45,3.05.4,0,.72-.68.24-.88-2.07-.88-4.53-1-6.25-2.58a3.71,3.71,0,0,1-.43-4.52,7.24,7.24,0,0,0,2.37,0,.65.65,0,0,0,.55-1,1,1,0,0,0-.18-.4v-.06a49.27,49.27,0,0,1,10.44,4.18c5,2.89,9.32,6.92,13.34,11,3.66,3.72,7,7.71,10.33,11.77,3,3.64,5.56,8.46,9.16,11.47a1.49,1.49,0,0,0,2.43-1.61c.93.2,1.07-.19,1.42.52a4.44,4.44,0,0,1-2.54,2.42,34.51,34.51,0,0,0-3.58,1.2c-.61.28-.15,1.12.43,1,1.39-.25,2.8-.15,4.17-.54a6.54,6.54,0,0,0,3.55-3.06c.84-1.32-.1-3.35-1.54-3.9a5.59,5.59,0,0,0-3.07.18c-2.19-3.58-5.54-7-8.05-10.09a139.26,139.26,0,0,0-12.31-13.52c-5.73-5.45-14.85-13.31-23.61-13.17,0-.13.05-.24.07-.31.55-2.07.81-4.21,1.54-6.35a144.25,144.25,0,0,1,8.22-18.5c1.93-3.82,3.93-7.68,6-11.53,7.91-2.41,16.06-3.79,23.91-6.36,8.94-2.92,15.44-8.93,20.85-16.46C862.05,477.76,861.39,466.42,859.45,454.91ZM745.07,592.22a2.66,2.66,0,0,0,1.13,3.21,8.13,8.13,0,0,0,1.82.66,4.12,4.12,0,0,0-1.27.83c-1.45-.92-2.16-2.43-2.92-4A9.71,9.71,0,0,0,745.07,592.22ZM745.29,481c5.51,6.66,11.34,13.49,18.09,18.84,5.9,4.68,13,7.09,20.34,8.3a20.49,20.49,0,0,1,1,3c.12.47.21.94.3,1.42-13.12-1.72-24.92-6-35.55-14.3C747.09,492.85,746,486.69,745.29,481Zm49.31,33.19-.31.42a19.22,19.22,0,0,1-2.45,2.25c0-.54-.08-1.09-.15-1.64l.35-.6,1,.07c.88.05.88-1.32,0-1.37l-.26,0a43.89,43.89,0,0,0,3.89-11.17A28.08,28.08,0,0,1,794.6,514.14Zm-3.22-1.07a30.9,30.9,0,0,0-.87-3.58c1.71-7,3.21-14.46,3.06-21.67a47.88,47.88,0,0,1,2.86,11.48A50.59,50.59,0,0,1,791.37,513.07Zm-11.52-16c-.27-.09-.54-.18-.82-.25a.94.94,0,0,0-1.15,1.15c-5.76-4-10.87-9.17-15.62-14.16-6.59-6.92-12.56-14.39-18.9-21.54-.29-2.33-.65-4.64-1.1-6.95,7.12,8.83,15.74,16.42,23.48,24.71a179.73,179.73,0,0,1,12.44,14.62C778.78,495.41,779.33,496.22,779.86,497ZM762.27,485.7c5.16,5.57,10.84,11.21,17.39,15.27,1.08,1.71,2.17,3.35,3.11,5.1a46.29,46.29,0,0,1-20.6-9.45c-6.19-5-11-11.39-17-16.61L745,479c-.61-5.32-1-10.68-1.59-16C749.47,470.77,755.55,478.46,762.27,485.7Zm29.63,33.21c0-.34,0-.69,0-1a7.06,7.06,0,0,0,1.54-1.34A22.74,22.74,0,0,1,791.89,518.91Zm.87-33.1c-.13,5.63-1.34,11.3-2.48,16.78-.25,1.23-.61,2.51-.94,3.81a22.62,22.62,0,0,0-1.52-2.84c.31-11,.56-22-3.58-32.16.85,1.08,1.65,2.16,2.41,3.26A62.41,62.41,0,0,1,792.77,485.82Zm-10.56-16.87a57.57,57.57,0,0,1,4.4,19.91c.16,4.28,0,8.56-.13,12.84-.2-.25-.41-.49-.63-.72.9-8.34-2.77-17.58-6.58-24.59-4.15-7.65-9.85-14.5-15.3-21.34C770.89,458,777.15,463.13,782.21,468.95Zm-19.67-14.48c4.4,6.5,9.34,12.63,13.46,19.32a63,63,0,0,1,6.5,13.87c1.25,3.93,1.4,7.78,1.6,11.7-.22-.18-.45-.35-.69-.52-5.8-9.9-10.12-20.56-16.69-30-5-7.24-12.49-14.36-21.41-15.8A29.58,29.58,0,0,1,762.54,454.46Zm-19.49-.82c17.12,3.87,25.16,19.94,32.82,35-2.22-2.7-4.55-5.31-6.95-7.84-8.48-9-17.53-17.57-26.65-25.92a.13.13,0,0,0-.1,0c-.06-.3-.11-.6-.17-.9C742.36,453.86,742.7,453.76,743.05,453.65Zm11.05,51.75a26.42,26.42,0,0,1-4.17-6.3A59.39,59.39,0,0,0,767,509.78a73.23,73.23,0,0,0,18.3,4.21c.11.91.18,1.83.21,2.77a16.74,16.74,0,0,1-5.33.65,57.06,57.06,0,0,1-7.92-1.11C765.7,513.31,758.84,510.62,754.1,505.39ZM775.88,518c3.3.73,6.79,1.22,9.63.48,0,2-.18,4-.35,5.92A34.21,34.21,0,0,0,775.88,518Zm80.84-47.13c-6.37,6.26-15.1,10.37-22.88,14.24-4.16,2.07-8.34,4.08-12.33,6.46.86-1.25,1.73-2.48,2.62-3.69.44-.6-.4-1.36-1-1-1,.65-2.07,1.36-3.07,2.1,0-.55.08-1.1.12-1.64.35-.44.67-.89,1-1.33a.66.66,0,0,0,.59,0c7.87-3.76,15.72-9.13,22.73-14.3a53.56,53.56,0,0,0,11.93-12.07A52.72,52.72,0,0,1,856.72,470.89Zm-49.11,30.05a251.13,251.13,0,0,1-2.15-26.73,51.87,51.87,0,0,1,4.78-8c-2.58,9.66-2,20.23,2.31,29.28C810.84,497.23,809.2,499.06,807.62,500.95Zm48.66-42.67A63.88,63.88,0,0,1,841.61,472c-4.39,3.1-9.31,5.59-13.95,8.41,5.38-5.38,9.89-11.89,14-18.15a96,96,0,0,0,11.36-23C853.94,445.66,855.44,452,856.28,458.28Zm-3.52-20.59C847.29,454.35,836,469.52,824,482.06c9.21-13.87,14.53-30.63,22-45.26.1-.19-.19-.37-.3-.17-4.84,8.86-9,18.07-13.53,27.1-3.51,7-7.07,14.34-11.71,20.78,1.63-13.54,6.75-26.66,11.17-39.44,6.6-5,13.61-9.61,20.52-14.11C852.25,433.2,852.47,435.45,852.76,437.69Zm-35.89,20.53c-1.86,11-2,22.21-2.1,33.39a.6.6,0,0,0,1.2,0c-.08-11.46-.12-22.92,1.73-34.26a120.1,120.1,0,0,1,13.68-12.07c-4.89,13.14-10.8,26.83-12.16,41-.75,1-1.52,1.91-2.33,2.83-.62.7.41,1.73,1,1,.38-.43.73-.88,1.1-1.32,0,.35,0,.7,0,1a63.22,63.22,0,0,0-5.43,4.72c-4-9.51-4.49-19.33-2.54-29.35,1.11-1.48,2.27-2.92,3.46-4.3C815.26,460,816.06,459.09,816.88,458.22ZM802.6,482.76a35.2,35.2,0,0,1,2.34-7.39,164.25,164.25,0,0,0,1.33,27.21c-.47.59-.94,1.18-1.41,1.78C802.43,497.35,801.14,490.3,802.6,482.76Zm29.86,18.17c1.83-.84,3.67-1.66,5.52-2.44A40.23,40.23,0,0,1,832.45,500.93Zm8.46-4.21c-5.4,1.85-10.58,4.3-15.92,6.3-4.16,1-8.35,1.77-12.42,3q1.07-1.89,2.18-3.75a14.46,14.46,0,0,0,1.92-.69c4.07-1.73,8.11-3.55,12.13-5.39,7.9-3.6,16-7.08,23.52-11.51l-.13.22A36.81,36.81,0,0,1,840.91,496.72Zm11.84-12.82c-6.89,3.42-14.11,6.33-21.15,9.39q-6.37,2.77-12.79,5.43l-2.56,1q1.42-2.33,2.9-4.6c11.69-8.54,27.74-12.28,37.44-23.08A32.34,32.34,0,0,1,852.76,483.9Z" transform="translate(-737.21 -425.71)" fill="#283942"/><path d="M800.49,558.51c-.5,2-.75,4.38.2,6.32.84,1.72,2.67,3.18,4.64,2.4.31-.12.47-.6.1-.78-1.39-.68-2.65-.91-3.42-2.39s-.55-3.58-.2-5.19C802,558,800.7,557.65,800.49,558.51Z" transform="translate(-737.21 -425.71)" fill="#283942"/><path d="M809.09,562.65c-2.29,3.17-1,6.42,2,8.57.32.22.74-.21.53-.53-.78-1.15-1.74-2.2-2.48-3.38-.92-1.47-.47-3,.3-4.45A.21.21,0,0,0,809.09,562.65Z" transform="translate(-737.21 -425.71)" fill="#283942"/><path d="M819.61,574.65a10.52,10.52,0,0,1-3.94-3.94c-.21-.39-.78,0-.59.35a7.75,7.75,0,0,0,4.27,4.22C819.72,575.43,819.93,574.85,819.61,574.65Z" transform="translate(-737.21 -425.71)" fill="#283942"/><path d="M825.79,583.15c.33-2-.26-4.14-.2-6.17a0,0,0,0,0-.09,0c.06,2-.53,4.16-.2,6.17A.26.26,0,0,0,825.79,583.15Z" transform="translate(-737.21 -425.71)" fill="#283942"/><path d="M825.54,589.87a6.61,6.61,0,0,0,4.6-1c1.09-.82,2.37-2.44,2-3.88a.56.56,0,0,0-.93-.25c-.94.74-1.18,2-2.24,2.71a7.58,7.58,0,0,1-3.46,1.07A.69.69,0,0,0,825.54,589.87Z" transform="translate(-737.21 -425.71)" fill="#283942"/><path d="M780.08,556.45a3.64,3.64,0,0,0,.6,4,4.21,4.21,0,0,0,4.47.68.52.52,0,0,0,0-.89c-.94-.45-2-.54-3-1s-.86-1.52-.62-2.42A.77.77,0,0,0,780.08,556.45Z" transform="translate(-737.21 -425.71)" fill="#283942"/><path d="M792.76,566.37c-2,1-3.82,2.46-5.78,3.59-1.31-.92-3.47-1.88-3.88-3.21-.08-.27-.53-.23-.5.07.15,1.86,2.58,3.41,3.78,4.61a.78.78,0,0,0,.93.12c2.24-1,4.94-2.17,6.15-4.47A.52.52,0,0,0,792.76,566.37Z" transform="translate(-737.21 -425.71)" fill="#283942"/><path d="M763,571.39c1.13.48,2.3-.39,3.46-.13a.39.39,0,0,0,.3-.7,3.22,3.22,0,0,0-2.36-.59c-.46.07-.78.3-1.12-.15-.17-.23.35-1.32.44-1.58a6.27,6.27,0,0,1,3-3.23c.23-.15.09-.57-.2-.47a11.22,11.22,0,0,0-2.5,1,4.91,4.91,0,0,0-1.73,2.62C761.84,569.4,761.53,570.76,763,571.39Z" transform="translate(-737.21 -425.71)" fill="#283942"/><path d="M758.31,587.61a.66.66,0,0,0,.66-.38.77.77,0,0,0,0-.78c-1.33-2.66-3-5-4.47-7.5-.07-.12-.29,0-.23.1,1.14,2.75,2,5.49,3.37,8.18A.77.77,0,0,0,758.31,587.61Z" transform="translate(-737.21 -425.71)" fill="#283942"/><path d="M748.79,585c-.24-.6-1.19-.37-1,.27a6.76,6.76,0,0,0,2.34,3.54,5.46,5.46,0,0,0,4.36.76c.37-.05.36-.68,0-.74C751.92,588.38,749.8,587.54,748.79,585Z" transform="translate(-737.21 -425.71)" fill="#283942"/><path d="M777,590c1.29.46,3.12.53,4.18-.46a.47.47,0,0,0-.21-.78c-1.11-.17-2.21.27-3.35.07a3.68,3.68,0,0,1-2.47-1.89.47.47,0,0,0-.81.48A4.78,4.78,0,0,0,777,590Z" transform="translate(-737.21 -425.71)" fill="#283942"/><path d="M804.14,581.26c3.26,1.28,7.81,3.51,11.39,2.36a.56.56,0,0,0,0-1.07c-1.84-.66-4-.54-5.89-.91s-3.6-.57-5.44-.8C803.94,580.8,803.93,581.17,804.14,581.26Z" transform="translate(-737.21 -425.71)" fill="#283942"/><path d="M819.44,587.92l3.9,0a.81.81,0,0,0,0-1.62l-3.9,0A.77.77,0,0,0,819.44,587.92Z" transform="translate(-737.21 -425.71)" fill="#283942"/><path d="M792.58,578.44a.82.82,0,0,0-.8-.21c-2.14.57-1.1,2.14.3,2.75l.07.13a6.73,6.73,0,0,0,.95,1.17,31.22,31.22,0,0,0-4.06,0c-.74,0-1.47.13-2.22.11-.23,0-.5-.17-.53,0,.06-.4.65-.83.93-1.08a.43.43,0,0,0-.52-.67c-1.39.91-2.39,2.4-.28,3.12a9.75,9.75,0,0,0,3.61.33,12.82,12.82,0,0,0,4.28-.57.43.43,0,0,0,.21-.22,4.65,4.65,0,0,0,1.67.44,11,11,0,0,0,7.47-2.24.69.69,0,0,0-.3-1.14c-1.8-.55-3.58,0-5.37.36C795.72,581.17,794,580.1,792.58,578.44Z" transform="translate(-737.21 -425.71)" fill="#283942"/></svg>