<svg id="Layer_1" data-name="Layer 1" xmlns="http://www.w3.org/2000/svg" viewBox="0 0 218.18 149.8"><title>nok2</title><path d="M1077.79,482.55c-11.56-19.54-33.38-31.21-55-20.14a33.83,33.83,0,0,0-7,4.75,158.64,158.64,0,0,0-11.28-14.29c-.88-1-1.83-2-2.83-3h.25c2.55,0,5.84.33,8.21-.7,1.65-.71,2.46-3.57.33-4.36s-4.41-.67-6.62-.78a2.28,2.28,0,0,0,1.19-1c.18-.33.39-.64.6-.95l.13,0a24.81,24.81,0,0,0,4.26-2.19,105.56,105.56,0,0,0,10.44-2c2.68-.66,7.79-1.24,10.1-3.48a6,6,0,0,0,2.62-2,2.53,2.53,0,0,0-.19-3.44,6.29,6.29,0,0,0-5.22-1.85,7.62,7.62,0,0,0-1.46.12c-1,.12-1.94.28-2.88.4-4.82.63-9.61,1.5-14.41,2.26-8.41,1.31-17.92,3.35-26.5,2.8l-.06,0a.91.91,0,0,0-1.17,1.3c2.16,4,6.85,5.81,11.81,6.51A20.49,20.49,0,0,0,991.9,443a224,224,0,0,0-23.35-1,118.62,118.62,0,0,0-22.78,2.23,29.12,29.12,0,0,0-7,2.21,56.58,56.58,0,0,0,1-14.25,1.22,1.22,0,0,0,.29-.86c0-.09,0-.18,0-.27a136.73,136.73,0,0,0,12.35,6.25,3.56,3.56,0,0,0,1,.26,1.66,1.66,0,0,0,.84.12c.33,0,.66-.1,1-.17l.27-.06a46.34,46.34,0,0,1,5.12-1.29,1.7,1.7,0,0,0,1.48-2.06l.42-.24a1.71,1.71,0,0,0,.7-2.18l.19-.11c2-1.13,0-4-1.95-3s-4.24,1.74-6.36,2.61c-6.31-2.4-12.57-5.21-18.73-8.19a18.22,18.22,0,0,0-3.62-2.35,3,3,0,0,0,.12-.56,2.34,2.34,0,0,0-1.16-2.44l-.35-.13a1.94,1.94,0,0,0-.25-1.84l0-.08c.75-1.48-.76-3.67-2.48-2.88-2.06.94-5.19,2.32-6.08,4.58a3.15,3.15,0,0,0-.22,1,2.06,2.06,0,0,0,.85,2.83l.81.48a1.32,1.32,0,0,0,1,1.08l1.11.19c3.58,2.12,7.15,4.27,10.74,6.36.11.25.21.53.3.8-2.52,13.48-9.48,25.53-13.79,38.49-10.78-1.19-21.45,3.08-30.32,9.62-8.74,4.06-15,13.14-19.28,21.47a41.38,41.38,0,0,0-4.38,24.14c2,15.65,14,28.15,28,34.36a50.23,50.23,0,0,0,47.64-4c17-11.16,23.32-30.81,17.69-50a49.6,49.6,0,0,0-4.15-9.92c2,2.84,4,5.6,6.16,8.35.63,1.45,1.22,2.93,1.77,4.45a.19.19,0,0,0-.15.15c-.13.6-.23,1.22-.33,1.86a13.59,13.59,0,0,0-1.07,2.78C963,520,973.05,530.56,980,525.6c1.43,2.79,2.59,5.74,3.9,8.58a88.44,88.44,0,0,0,4.95,9.88,3,3,0,0,0-2.21,3.08c.11,2.06,1.74,2.8,3.6,3a1.17,1.17,0,0,0,.37,0,21.86,21.86,0,0,0,3.51-.07,15.69,15.69,0,0,0,2.48,1.58,1,1,0,0,0,1.38-.9c0-.31-.12-.62-.18-.93,4-.25,8-.5,12-.84a3.3,3.3,0,0,0,1.85-.72l.64.52c11.28,8.94,26.31,11,40,7.63,13.55-3.28,25.61-12.73,31.43-25.44C1091.19,515,1086.36,497,1077.79,482.55Zm2.83,42.42a124.45,124.45,0,0,0-31.11-16.69c0-.18-.08-.36-.12-.54,10.76-.48,21.14-3.57,31.75-5.43A42,42,0,0,1,1080.61,525ZM1053,550.83c-2.76-10.51-4.71-21.21-7.35-31.75a6,6,0,0,0,2.07-2.41l.67-.58a4.82,4.82,0,0,0,1.15-1.59c3,4.47,5.71,9.08,8.44,13.68,3,5.14,5.75,10.7,9,15.76A43.83,43.83,0,0,1,1053,550.83Zm-24.36.32a38.16,38.16,0,0,1-18.69-12.22l-.27-.35c8.56-7.87,18.9-14.08,28.93-19.95a5.81,5.81,0,0,0,1.56,1c-5.4,9.63-8.45,21.09-11.52,31.5A.41.41,0,0,0,1028.6,551.15Zm-42.84-37v0c-.81-4.3-3.9-7.2-7.63-9.2l-.83-.43c3.18-9.56,6.26-19.17,9.41-28.74,2.27-6.89,4.68-13.78,7.47-20.47.22-.52.52-1.39.88-2.38,1.62,1.88,3.27,3.74,4.83,5.64,3.81,4.62,7.14,9.6,10.51,14.55-5.55,7.59-8.55,17.13-11.26,26.56a.82.82,0,0,0-1.12,0,17.56,17.56,0,0,0-5.1,14.18C990.52,513.95,988.13,514,985.76,514.16Zm-40.12-27.75c-1.1,1.07-2.15,2.19-3.16,3.33-1.73.61-3.45,1.27-5.14,2a2.26,2.26,0,0,0,0,4.25c-1.52,1.95-3,3.91-4.54,5.83a75.49,75.49,0,0,1-11.46,11.49,3.77,3.77,0,0,0-.86-1.52,70.13,70.13,0,0,0,3.64-11c2.16-8,3.39-16.24,5.17-24.33.14-.63.31-1.26.46-1.89a44.73,44.73,0,0,1,18.27,13,17.73,17.73,0,0,0-1.83.7l.72-.78C947.68,486.74,946.42,485.64,945.63,486.41Zm-39.46,30.09c.49-.17,1-.34,1.48-.49l0,0c0,.15-.1.3-.13.46l-.08.41ZM884,493.34c1.84,4.26,7.23,6.94,11.06,9,5,2.73,10.14,5.09,14.36,8.92a3.89,3.89,0,0,0-2,3.78c-1.07.24-2.12.52-3.17.82-3-1-6.08-1.9-9-3a177.1,177.1,0,0,1-18.23-7.8A46,46,0,0,1,884,493.34Zm129-16.35c3.86,5.61,7.7,11.21,11.65,16.76l.82,1.14a59.05,59.05,0,0,0,9.84,13.76l-.21.32c-11-2.36-19.11-12.71-29.74-16.59A71,71,0,0,1,1013.05,477Zm22.11,29.27c-.92-1-1.78-2-2.61-3.11q.78.71,1.63,1.38Q1034.68,505.39,1035.17,506.26Zm-37.47,6c2.72-5.75,4.76-12,7-18,10.22,3.83,19.11,14.73,30,16.08a.91.91,0,0,0,.68.76l-4.9.38q-3.28.13-6.58.54c-4.87.42-9.74.85-14.62,1.23-3.75.3-7.54.42-11.33.51C997.84,513.26,997.76,512.76,997.69,512.27Zm10.17,7.2c9.95-.23,19.86-1.15,29.78-1.8.11.15.23.29.35.43-10.39,5.1-21,11.21-29.43,19.13a72.39,72.39,0,0,1-7.2-13.21c-.65-1.42-1.26-2.91-1.81-4.43C1002.39,519.6,1005.18,519.53,1007.87,519.46Zm72.87-18.68c-10.54,1.95-20.87,5-31.54,6l-.19-1a2.91,2.91,0,0,0-.22-.64c9.3-4.93,17.8-11.31,27.5-15.5.92,1.77,1.75,3.56,2.48,5.34A51.44,51.44,0,0,1,1080.74,500.78Zm-5.08-12.28c-9.51,4.3-17.84,10.69-26.95,15.71,4.33-9.68,10.73-18.37,15.73-27.71a.54.54,0,0,0-1-.5c-5.12,9.45-11.38,18.19-15.38,28.14a4.77,4.77,0,0,0-2.86-1.69,13.86,13.86,0,0,0-4.27.11c1.28-5,1.39-10.4,1.3-15.66-.08-4.86-.51-9.72-.92-14.56-.29-3.37-.3-7-1.05-10.32C1055.29,462.31,1068.19,474.75,1075.66,488.5ZM1025.11,466a30.4,30.4,0,0,1,13.67-3.93c-.81,7,1.39,15.12,1.88,22a73.54,73.54,0,0,1-.39,17.29l-.32-.5c-.55-11.67-6.28-24.44-12.73-33.53a.36.36,0,0,0-.64.32c2.08,5.72,5.44,11,7.9,16.58a60.75,60.75,0,0,1,4.32,14.79,204.15,204.15,0,0,0-17.23-22.86q-1.62-2.63-3.29-5.24A33.89,33.89,0,0,1,1025.11,466Zm-23.94-22.1.22-.22a2.26,2.26,0,0,0,.4.26Zm-52.88,7.55a162.31,162.31,0,0,1,22-1.27c6.06-.08,12.11,0,18.16,0-5.11,8.31-8.5,18-11.8,27-2.5,6.84-5.08,13.89-7,21.05-2.09-7.74-6.84-15-11.22-21.35-3.83-5.52-7.75-11-11.37-16.63-1.45-2.26-2.51-6-4.48-7.77l0,0C944.47,452.09,946.38,451.7,948.28,451.42Zm-12.11,4.05a7.61,7.61,0,0,1,1.17,1.94c2.23,6,5.92,11.37,9.62,16.48,2.69,3.72,5.33,7.34,7.82,11a2.73,2.73,0,0,0-.48,2h-.53a52.67,52.67,0,0,0-22.14-16.3l-.7-.25C932.48,465.34,934.43,460.42,936.17,455.47ZM895.5,480.08c8.19-4.78,17-8.28,26.76-7.25h0c-.06.23-.13.44-.19.67-3,11.16-4.76,22.36-8.25,33.24-1-3.59-2.27-7.13-3.52-10.7a176.53,176.53,0,0,1-5.15-19.82c-.1-.44-.68-.23-.7.13-.43,6.32,1.86,12.62,3.93,18.49,1.59,4.5,3.33,9,4.92,13.47q-.42,1.24-.87,2.47l-1.44.08a3.93,3.93,0,0,0-.72.12c-2.59-3.32-6.39-5.39-10.06-7.43-2.6-1.44-5.21-2.84-7.73-4.42-3-1.88-5.07-4.46-7.71-6.71C888.19,488.21,892,484.27,895.5,480.08Zm-19.58,28.57c.28-1,.61-2,1-3a191,191,0,0,0,17.8,8.49c2.06.87,4.22,1.81,6.44,2.72-1.4.45-2.79.91-4.19,1.4-5.13,1.77-10.32,2.74-15.51,4.2a.36.36,0,0,0,0,.7c7.25.83,14.51-2.72,21.63-5.5,1.38.55,2.77,1.07,4.17,1.55a2.81,2.81,0,0,0,.1.57,1.87,1.87,0,0,0,.17.36c-9.69,4.08-15.87,14.19-23.25,21.56A33.82,33.82,0,0,1,875.92,508.65Zm9.43,34.08c7.28-7.42,13.28-17.39,22.61-22.12a4.38,4.38,0,0,0,.73.59c0,.21.05.42.09.63a4.18,4.18,0,0,0,.52,1.31,121.39,121.39,0,0,1-10.52,28.59A45.37,45.37,0,0,1,885.35,542.73Zm73.92-19.27c-1.48,10.57-8.18,18.88-16.6,25-12.3,8.93-28.66,9.4-42.26,4,3.11-4.69,4.92-10.54,6.57-15.77a112.64,112.64,0,0,0,3.11-12.4l0,.06c.81,1,1.92.88,3.09.87a5.73,5.73,0,0,0,2.74-.74,3.91,3.91,0,0,0,1.84,0c.18,9.92.47,19.81,5.64,28.66.47.8,1.68,0,1.21-.8-5.06-8.49-5.5-18.43-6.13-28.09a3.51,3.51,0,0,0,1.75-1.67,11.92,11.92,0,0,0,1.43-6.22,40.75,40.75,0,0,0,11.73-4.08c6.81-3.36,13.32-7,20.32-9.92a.72.72,0,0,0-.46-1.37c-11.44,2.76-20.35,11.34-31.7,14.51,0-.18,0-.35-.08-.52v0c4-2.57,7.43-6.35,10.5-9.84,2.77-3.15,5.39-6.41,8-9.64a114.78,114.78,0,0,1,10.78-4.23c.45.62.89,1.26,1.31,1.89A44.75,44.75,0,0,1,959.27,523.46Zm16.3-1.78c-2.1-.28-3.89-2.51-4.65-4.28a6.2,6.2,0,0,1-.51-3.35,4,4,0,0,0,4.41-2.35,6.9,6.9,0,0,1,2.71,1.64,4.75,4.75,0,0,1,1,1.45l-.61.07a.53.53,0,0,0-.44.7l-1-.39c-1-.39-1.8.3-2.8.16a.27.27,0,0,0-.18.51c.67.36,1.25,1.83,1.84,2.42a14.24,14.24,0,0,1,1.94,2.65A6.41,6.41,0,0,1,975.57,521.68Zm20.63,21.56a69.62,69.62,0,0,0-7.34-15.56,58.23,58.23,0,0,0-4.59-6.49,11.41,11.41,0,0,0,1.26-2.86,58,58,0,0,0,8.35,1.07,54.68,54.68,0,0,0,3.84,9.7,74.61,74.61,0,0,0,7.09,11.93l-.23.24a.81.81,0,0,0,1.21,1.09l0,0,.37.45c-.42,0-.83,0-1.25.07C1002,543,999.12,543.11,996.2,543.24Zm35.71,8.69c-.62-.12-1.24-.25-1.85-.4,3.91-10.53,6.5-21.35,11-31.65a6,6,0,0,0,1.68.14,5.91,5.91,0,0,0,2.18-.54c2.37,10.54,4.08,21.22,6.78,31.69A45.77,45.77,0,0,1,1031.91,551.93Zm39.62-12a38.78,38.78,0,0,1-2.91,2.65c-2.91-5.2-6.31-10.24-9.4-15.29-2.93-4.8-6-9.49-9.34-14a7.6,7.6,0,0,0,0-3.46l-.06-.29a135.52,135.52,0,0,1,30.26,17A37.61,37.61,0,0,1,1071.53,540Z" transform="translate(-869.26 -412.67)" fill="#283942"/><path d="M922.28,520.23a.34.34,0,0,0-.18.57c3.14,10.12,13.68,17.93,22.8,22.4.27.13.55-.24.31-.44-8.06-6.48-18.75-11.59-22.51-21.93a75.13,75.13,0,0,1,16.74,0c6.64.79,11.67,3.88,17.45,6.83a.41.41,0,0,0,.46-.66C949,517.91,933.34,518.37,922.28,520.23Z" transform="translate(-869.26 -412.67)" fill="#283942"/></svg>