<svg id="Layer_1" data-name="Layer 1" xmlns="http://www.w3.org/2000/svg" viewBox="0 0 132.75 166.29"><title>nok3</title><path d="M745.06,577.09c-1.2-20.35-13.13-37.59-26.3-52.23-6.74-7.5-12.31-16-19-23.47-2.9-3.24-6.69-7.72-11.12-9.59a1.5,1.5,0,0,0,.33-.41c5.06-9.14,12.21-20.26,21.7-25.46.2-.07.4-.13.61-.21,1.7-.67,1-3.44-.76-2.76-7.11,2.77-9.09-6.3-15.48-5.48a16.84,16.84,0,0,0-7.17,3c-5.49,3.49-10.29,1.64-15.68-.88-5.62-2.62-9.32,1.57-12.66,5.45-2.82,3.28-8.05.28-11.44.12a7.24,7.24,0,0,0-4.8,1.19.49.49,0,0,0-.58-.25c-.17.34-.33.69-.49,1,0,0,0,.07,0,.1l-.06.06-.52,1.16a.48.48,0,0,0,.61.22c.42,3.84,3.73,6.73,6,10,3.21,4.64,6.65,9.54,11.35,12.77C655,496.15,651.13,502,647.22,507c-5.27,6.81-10.52,13.63-15.44,20.7-9.39,13.5-17.83,28.57-19.27,45.24-1.28,14.81,6.18,31.5,17.9,40.68,3.16,2.48,7.06,3.44,10.91,4.3,4.67,1,9.19,2.48,13.84,3.56a56.19,56.19,0,0,0,14,1.64c7.84,1.64,17.49-.65,24.91-2.24A96.59,96.59,0,0,0,719.32,612C732.23,605.08,746,593,745.06,577.09ZM652.95,476.85a41.6,41.6,0,0,0-5.29-6.08,26.66,26.66,0,0,1-3.54-3c5.21-1.79,10.89,3.27,16.22.31,3.66-2,3.92-7,9.54-6.16,3.3.51,6.52,2.88,9.92,3.56,6.75,1.36,12.59-7.38,18.56-3.79,3.22,1.94,5.43,4.26,8.45,4.69-6.68,3.14-12.22,10.23-16.44,16.87a61.94,61.94,0,0,1,2.34-8c.17-.41-.39-.6-.66-.38-4.59,3.67-5,9.7-8,14.35l0,0-.69-.06c.42-7.57,5.26-13.89,6.59-21.3.05-.31-.39-.55-.54-.23-3.55,7.23-8.78,13.09-9.56,21.33-1.05,0-2.1,0-3.15,0,1.5-1.67,1.4-5,1.58-7.08a51.59,51.59,0,0,0-.94-12.63.45.45,0,0,0-.86,0c-.52,3.41-.51,6.83-.75,10.27a50.67,50.67,0,0,1-.78,6.4c-.27,1.33-.71,2-.35,3.09l-1.44,0-1.41,0a1.2,1.2,0,0,0-.16-1.18c-4.06-5.53-2-13.27-5.33-19a.2.2,0,0,0-.37.1c.27,6-1,15,2.88,20.17-.58,0-1.15.05-1.72.1a1.57,1.57,0,0,0-.14-.44c-2.72-5.39-4.87-12.61-9.93-16.27-.28-.2-.68.2-.47.47a41,41,0,0,1,4.81,9.32c1,2.36,1.69,5.16,3.11,7.33l-.2.06a1.9,1.9,0,0,0-.51-.6C659.31,485.65,656.34,481.19,652.95,476.85ZM734.87,595.1c-4.73,5.7-11,10.08-17.43,13.64-7,3.89-14.93,6-22.73,7.64a127.82,127.82,0,0,1-13.1,2,.83.83,0,0,0-.15-.08l3.54-1.85c3.46-1.79,6.6-4.66,9.65-7a97,97,0,0,1,11.88-7.64.6.6,0,0,0-.3-1.11c-7.18.36-13.66,5.73-19.53,9.39A81.25,81.25,0,0,1,673,616.94a34.47,34.47,0,0,1-5,1.2,68.48,68.48,0,0,1-13.17-1.58c-4.11-1-8-2.31-12.21-3.1-4.61-.88-8.46-2.11-11.91-5.42A44.4,44.4,0,0,1,617,575.48a.63.63,0,0,0,.88-.2c4.14-6.46,8.33-12.24,14.82-16.5,4.3-2.82,8.56-5.18,11.74-9.32,0,0,0-.1-.07-.06-4.41,5-10.61,7-15.92,10.77-4.85,3.45-8.28,9.16-11.44,14.11a47.4,47.4,0,0,1,1.08-8.63c.43-2,1-3.9,1.58-5.82a.39.39,0,0,0,.23-.08,17.87,17.87,0,0,0,3.75-4.87,20.5,20.5,0,0,1,7.32-7c4.37-2.65,9.32-4.17,13.66-6.91.48-.3,0-1.07-.45-.77-4.79,3-10.2,4.69-15,7.56-3.85,2.29-6.38,6.09-8.7,9.85a94.15,94.15,0,0,1,7.67-15.94c3.54-3.21,6.5-6.87,10.51-9.72,4.35-3.09,9.28-5.37,14-7.91.1-.05,0-.22-.08-.18-6.07,2-13.76,5.27-19.47,10,2-3,4.07-5.92,6.13-8.77,4.46-6.19,9.19-12.19,13.85-18.23,3.31-4.28,7.26-9.1,9.58-14.15l.26-.09a11.14,11.14,0,0,0,4.1.74c-3.13,4.62-6.15,9.3-9,14.1-2.73,4.64-6.12,10.21-6.9,15.62a.3.3,0,0,0,.54.23c3.2-4.51,5.47-9.94,8.28-14.73,3.07-5.24,6.47-10.29,9.94-15.27l1.52,0c-1.33,3.78-.66,7.85-.45,11.79.35,6.37-1.92,12.46-1.33,18.87,0,.36.61.5.68.09.84-5.21,2.43-10.32,3.1-15.56.61-4.89-.84-10.49,1.09-15.08,0,0,0-.1,0-.14h1.93c1,4.56,2.85,9,4,13.51,1.28,5,1.78,10,2.7,15.07.13.7,1.32.72,1.43,0,1.29-8.89-1-20.17-4.83-28.57q1.51,0,3,.08a7.09,7.09,0,0,0,1.5,2.66c1.61,2.36,3,4.88,4.45,7.36a109.49,109.49,0,0,0,9.17,14.29c.69.86,2-.24,1.47-1.14-2.91-5.35-5.62-10.82-8.47-16.2a56.17,56.17,0,0,0-3.35-6.55c4.12,2.92,7.7,7.33,10.75,11,5.36,6.41,10.24,13.21,15.57,19.65,2.06,2.48,4.14,4.9,6.2,7.33-6.53-3.31-18.48-2.49-23-2.39a0,0,0,0,0,0,.1c9.2,1.06,21.4-.42,26.73,8.66a.4.4,0,0,0,.74-.2,6.49,6.49,0,0,0-.09-.9,93.13,93.13,0,0,1,6.89,9.73,74.71,74.71,0,0,1,9.7,25.73C742.47,581.18,740.55,588.24,734.87,595.1Z" transform="translate(-612.36 -457.43)" fill="#283942"/><path d="M683.79,565c-.07-8.22-.3-16.42-.93-24.64,1.2.76,1.74,2.36,2.88,3.88a.45.45,0,0,0,.77,0c1.61-2.72-.35-5.94-3-7.14a6.44,6.44,0,0,0-1-.34c-.21-2.22-.44-4.44-.71-6.67a1.14,1.14,0,0,0-2.27,0c-.23,2.15-.33,4.32-.37,6.49a23.92,23.92,0,0,0-6.61,2.14l-.17.09c-.26-1.9-.53-3.78-.85-5.66a.15.15,0,0,0-.29,0,63.72,63.72,0,0,0-.64,6.65c-6.22,4.07-11.34,13.54-5.69,19.75a22.66,22.66,0,0,0,7.25,4.69c.26,2.17.53,4.33.77,6.46.56,5,.16,10.09.21,15.09,0,.86,0,1.87,0,2.93-.34-.07-.67-.14-1-.23-2.41-.65-4.13-2.64-6.58-3.17A1.31,1.31,0,0,0,664,586.9c.83,4.66,5.14,6.43,9.76,6.6a5.34,5.34,0,0,0,1.47,2.41,1.2,1.2,0,0,0,2-.52,8.42,8.42,0,0,0,.3-2.07,23,23,0,0,0,4.1-.92,25.05,25.05,0,0,0,1.38,3.31.5.5,0,0,0,.92-.25q0-2,0-4h0c7-3.6,10.68-11.72,7.54-19C689.89,568.88,687.06,566.7,683.79,565Zm-4.57-24.75c.16,7.69,1.06,15.45,1.1,23.13-1.8-.77-3.64-1.49-5.41-2.29-.65-6-1.21-12-1.93-18A21.23,21.23,0,0,1,679.22,540.26Zm-10.67,17c-3.72-3.4-1.17-8.74,2-12.05.09,4.75.52,9.53,1.06,14.27A18.15,18.15,0,0,1,668.56,557.21Zm10.89,31.07a11.06,11.06,0,0,1-2.3.57,41.69,41.69,0,0,1-.57-4.6c-.15-4.64.07-9.34-.57-14q-.31-2.3-.59-4.6c1.64.72,3.27,1.46,4.8,2.26-.29,6.41-.89,13.41.25,19.91C680.13,588,679.79,588.16,679.45,588.28Zm4.39-2.47c0-5.22,0-10.42,0-15.62,2.51,1.92,4.24,4.33,4.34,7.73C688.27,581.07,686.33,583.83,683.83,585.81Z" transform="translate(-612.36 -457.43)" fill="#283942"/><path d="M630.61,574c-2.74,3.3-9.92,11.82-7.49,16.66a.4.4,0,0,0,.72-.09c.86-2.62,1-5,2.29-7.63a49,49,0,0,1,6.17-9.06c3.79-4.64,8.71-10.42,14.37-12.77.06,0,0-.12,0-.09C640.15,563,634.81,568.91,630.61,574Z" transform="translate(-612.36 -457.43)" fill="#283942"/><path d="M644.28,571c-3.46,4.37-7.44,8.29-10.8,12.75-3.73,5-5.14,11.08-6.44,17-.07.31.4.55.54.23,2.52-5.63,3.29-11.43,6.69-16.79,3-4.66,6.92-8.63,10.16-13.09C644.5,571.05,644.35,570.94,644.28,571Z" transform="translate(-612.36 -457.43)" fill="#283942"/><path d="M643.62,584.81c-3,6.48-7.15,14.24-7.4,21.47,0,.38.57.57.74.2,1.3-2.9,1.78-6.17,2.71-9.22a116.81,116.81,0,0,1,4.64-12.05C644.5,584.75,643.84,584.35,643.62,584.81Z" transform="translate(-612.36 -457.43)" fill="#283942"/><path d="M729.19,552.77c.27.31.71-.09.54-.42-5.08-10.15-18.2-10.87-27.73-13.84-.12,0-.17.15-.05.19,4.46,1.68,9.09,2.84,13.59,4.42C721.36,545.16,725.21,548.17,729.19,552.77Z" transform="translate(-612.36 -457.43)" fill="#283942"/><path d="M730.56,565.15c.3.45,1.1.17.9-.38-4-11.63-18-14.22-28.31-16.94a.05.05,0,0,0,0,.1A87.76,87.76,0,0,1,717.58,553C723.52,555.69,727.08,559.83,730.56,565.15Z" transform="translate(-612.36 -457.43)" fill="#283942"/><path d="M732.23,578.23c.21.31.76.12.63-.27a24.6,24.6,0,0,0-23.15-16.35.2.2,0,0,0,0,.4C721.05,562.13,726.45,569.73,732.23,578.23Z" transform="translate(-612.36 -457.43)" fill="#283942"/><path d="M726,584.23a33.16,33.16,0,0,0-15.12-7.1.15.15,0,0,0-.08.29,38,38,0,0,1,13.52,6.87c4.44,3.43,6,7.39,7.79,12.43a.4.4,0,0,0,.78-.11C733.46,591.82,729.35,587.17,726,584.23Z" transform="translate(-612.36 -457.43)" fill="#283942"/><path d="M713,593.23c-.4-.2-.75.4-.35.6,5.08,2.55,7.36,7.3,5.64,12.76-.12.37.47.63.63.27C721.41,601.32,718,595.72,713,593.23Z" transform="translate(-612.36 -457.43)" fill="#283942"/></svg>