<svg id="Layer_1" data-name="Layer 1" xmlns="http://www.w3.org/2000/svg" viewBox="0 0 17.96 17.96"><defs><style>.cls-1{fill:#ccc;}.cls-2{fill:#fff;}</style></defs><title>nostae</title><rect class="cls-1" width="17.96" height="17.96" rx="2.75" ry="2.75"/><path class="cls-2" d="M851.88,457.14a.81.81,0,0,0-.65-.54l-3-.44L847,453.49a.83.83,0,0,0-1.48,0l-1.29,2.67-3,.44a.8.8,0,0,0-.65.54.77.77,0,0,0,.19.81l2.17,2.16-.5,3a.79.79,0,0,0,.34.78.87.87,0,0,0,.47.14.77.77,0,0,0,.39-.1l2.58-1.38,2.58,1.38a.81.81,0,0,0,.4.1.87.87,0,0,0,.47-.14.79.79,0,0,0,.34-.78l-.5-3,2.16-2.16A.77.77,0,0,0,851.88,457.14Z" transform="translate(-837.27 -449.56)"/></svg>