<svg id="Layer_1" data-name="Layer 1" xmlns="http://www.w3.org/2000/svg" viewBox="0 0 17.96 17.96"><defs><style>.cls-1{fill:#e85100;}.cls-2{fill:#fff;}</style></defs><title>star</title><rect class="cls-1" width="17.96" height="17.96" rx="2.75" ry="2.75"/><path class="cls-2" d="M869.31,425.18a.81.81,0,0,0-.64-.55l-2.94-.51-1.22-2.7a.83.83,0,0,0-1.48,0L861.67,424l-3,.36a.8.8,0,0,0-.66.52.77.77,0,0,0,.17.81l2.11,2.22-.58,3a.79.79,0,0,0,.32.79.87.87,0,0,0,.47.16.77.77,0,0,0,.4-.09l2.61-1.32,2.54,1.45a.81.81,0,0,0,.4.11.87.87,0,0,0,.48-.13.79.79,0,0,0,.36-.77l-.42-3L869.1,426A.77.77,0,0,0,869.31,425.18Z" transform="translate(-854.69 -417.49)"/></svg>