<svg xmlns="http://www.w3.org/2000/svg" viewBox="0 0 208.18 72.01"><defs><style>.cls-1{fill:#575756;}</style></defs><title>Asset 13</title><g id="Layer_2" data-name="Layer 2"><g id="Layer_1-2" data-name="Layer 1"><path class="cls-1" d="M196.72,72H11.94A12,12,0,0,1,0,60.06V11.94A12,12,0,0,1,11.94,0H196.72c6.43,0,11.46,5.24,11.46,11.94V61.26C208.18,67.69,203.58,72,196.72,72ZM11.94,1.09A10.87,10.87,0,0,0,1.09,11.94V60.06A10.86,10.86,0,0,0,11.94,70.91H196.72c6.2,0,10.37-3.88,10.37-9.65V11.94A10.51,10.51,0,0,0,196.72,1.09Z"/><path class="cls-1" d="M40,34.23a10,10,0,0,1,4.78-8.41,10.25,10.25,0,0,0-8.09-4.37c-3.4-.36-6.7,2-8.43,2s-4.44-2-7.31-1.94a10.77,10.77,0,0,0-9.07,5.53c-3.92,6.78-1,16.76,2.76,22.24,1.88,2.69,4.07,5.69,7,5.58s3.86-1.79,7.25-1.79,4.34,1.79,7.28,1.72,4.91-2.7,6.72-5.41a22.09,22.09,0,0,0,3.08-6.26A9.69,9.69,0,0,1,40,34.23"/><path class="cls-1" d="M34.47,17.84a9.86,9.86,0,0,0,2.26-7.07,10,10,0,0,0-6.5,3.36,9.38,9.38,0,0,0-2.32,6.81,8.29,8.29,0,0,0,6.56-3.1"/><path class="cls-1" d="M80.71,54.5H76.79l-2.16-6.76H67.16l-2,6.76H61.28l7.41-23h4.58ZM74,44.91,72,38.9c-.2-.62-.59-2.06-1.16-4.34h-.07c-.23,1-.59,2.42-1.09,4.34l-1.92,6Z"/><path class="cls-1" d="M99.74,46a9.43,9.43,0,0,1-2.3,6.7,6.78,6.78,0,0,1-5.12,2.18,5.11,5.11,0,0,1-4.74-2.36v8.72H83.89V43.37c0-1.78,0-3.6-.13-5.46H87l.2,2.63h.07a6.56,6.56,0,0,1,10.5-.65,9.15,9.15,0,0,1,2,6.11M96,46.14a6.84,6.84,0,0,0-1.09-4,3.79,3.79,0,0,0-3.21-1.64,3.86,3.86,0,0,0-2.48.91,4.18,4.18,0,0,0-1.45,2.37,5.08,5.08,0,0,0-.17,1.12v2.77a4.43,4.43,0,0,0,1.11,3.06A3.68,3.68,0,0,0,91.57,52a3.8,3.8,0,0,0,3.25-1.61A7.06,7.06,0,0,0,96,46.14"/><path class="cls-1" d="M118.83,46a9.43,9.43,0,0,1-2.3,6.7,6.79,6.79,0,0,1-5.12,2.18,5.11,5.11,0,0,1-4.74-2.36v8.72H103V43.37c0-1.78,0-3.6-.13-5.46h3.24l.2,2.63h.07a6.56,6.56,0,0,1,10.5-.65,9.15,9.15,0,0,1,2,6.11m-3.76.14a6.91,6.91,0,0,0-1.09-4,3.79,3.79,0,0,0-3.21-1.64,3.86,3.86,0,0,0-2.48.91,4.18,4.18,0,0,0-1.45,2.37,5.19,5.19,0,0,0-.18,1.12v2.77a4.44,4.44,0,0,0,1.12,3.06A3.68,3.68,0,0,0,110.66,52a3.77,3.77,0,0,0,3.24-1.61,7,7,0,0,0,1.17-4.23"/><path class="cls-1" d="M140.17,48.05a6.15,6.15,0,0,1-2,4.78,9.06,9.06,0,0,1-6.26,2,11,11,0,0,1-6-1.44l.86-3.07a10.3,10.3,0,0,0,5.32,1.43,5,5,0,0,0,3.25-.94,3.06,3.06,0,0,0,1.16-2.51,3.19,3.19,0,0,0-1-2.35,8.68,8.68,0,0,0-3.17-1.77q-6-2.27-6-6.6A5.79,5.79,0,0,1,128.44,33a8.41,8.41,0,0,1,5.65-1.81,11.12,11.12,0,0,1,5.22,1.09l-.92,3A9.12,9.12,0,0,0,134,34.19a4.53,4.53,0,0,0-3.05,1,2.76,2.76,0,0,0-.92,2.09,2.83,2.83,0,0,0,1.06,2.26,12.19,12.19,0,0,0,3.34,1.77,11.33,11.33,0,0,1,4.37,2.8,5.81,5.81,0,0,1,1.41,4"/><path class="cls-1" d="M152.39,40.67h-4.06v8.07c0,2,.72,3.07,2.15,3.07a6.82,6.82,0,0,0,1.64-.17l.1,2.8a8.42,8.42,0,0,1-2.87.4,4.41,4.41,0,0,1-3.41-1.33q-1.23-1.34-1.23-4.47V40.67h-2.42V37.9h2.42v-3l3.62-1.09V37.9h4.06Z"/><path class="cls-1" d="M170.69,46.07a9.08,9.08,0,0,1-2.18,6.28,7.78,7.78,0,0,1-6.08,2.53,7.42,7.42,0,0,1-5.82-2.42,8.82,8.82,0,0,1-2.17-6.11A9,9,0,0,1,156.68,40a7.74,7.74,0,0,1,6-2.46A7.6,7.6,0,0,1,168.58,40a8.71,8.71,0,0,1,2.11,6.07m-3.82.08a7.49,7.49,0,0,0-1-3.91,3.82,3.82,0,0,0-6.7,0,7.56,7.56,0,0,0-1,4,7.44,7.44,0,0,0,1,3.92,3.79,3.79,0,0,0,6.67,0,7.55,7.55,0,0,0,1-4"/><path class="cls-1" d="M182.69,41.15a7.28,7.28,0,0,0-1.17-.1,3.48,3.48,0,0,0-3,1.47,5.48,5.48,0,0,0-.92,3.28v8.71h-3.69V43.13c0-1.91,0-3.65-.11-5.22H177l.14,3.18h.1a5.61,5.61,0,0,1,1.85-2.63,4.41,4.41,0,0,1,2.66-.89,6.61,6.61,0,0,1,.93.06Z"/><path class="cls-1" d="M199.18,45.42a8.77,8.77,0,0,1-.13,1.67H188a4.8,4.8,0,0,0,1.61,3.76A5.43,5.43,0,0,0,193.21,52a12.3,12.3,0,0,0,4.47-.78l.58,2.56a13.94,13.94,0,0,1-5.56,1,8.08,8.08,0,0,1-6.07-2.27,8.35,8.35,0,0,1-2.2-6.09,9.5,9.5,0,0,1,2-6.25,7,7,0,0,1,5.8-2.66,6.15,6.15,0,0,1,5.43,2.66,8.92,8.92,0,0,1,1.47,5.22m-3.52-1a5,5,0,0,0-.71-2.84A3.23,3.23,0,0,0,192,40.09a3.51,3.51,0,0,0-2.94,1.5A5.63,5.63,0,0,0,188,44.46Z"/><path class="cls-1" d="M72.73,17.32a5.67,5.67,0,0,1-1.83,4.59,7.26,7.26,0,0,1-4.81,1.42,22.41,22.41,0,0,1-2.65-.13V12.09a20.22,20.22,0,0,1,3.12-.23A6.78,6.78,0,0,1,71,13.14a5.23,5.23,0,0,1,1.69,4.18m-1.91.05a4.1,4.1,0,0,0-1-3,4.15,4.15,0,0,0-3.06-1.06,7.6,7.6,0,0,0-1.46.12v8.44a8.65,8.65,0,0,0,1.23.05,4.31,4.31,0,0,0,3.21-1.15,4.65,4.65,0,0,0,1.13-3.37"/><path class="cls-1" d="M82.35,19.11a4.43,4.43,0,0,1-1.08,3.08,3.81,3.81,0,0,1-3,1.24,3.66,3.66,0,0,1-2.87-1.19,4.36,4.36,0,0,1-1.06-3,4.43,4.43,0,0,1,1.1-3.1,3.79,3.79,0,0,1,3-1.21,3.75,3.75,0,0,1,2.89,1.19,4.32,4.32,0,0,1,1,3m-1.88,0A3.71,3.71,0,0,0,80,17.22a1.79,1.79,0,0,0-1.62-1,1.83,1.83,0,0,0-1.67,1,3.77,3.77,0,0,0-.48,2,3.71,3.71,0,0,0,.48,1.93,1.84,1.84,0,0,0,1.65,1,1.8,1.8,0,0,0,1.62-1,3.6,3.6,0,0,0,.51-1.94"/><path class="cls-1" d="M95.42,15.1l-2.56,8.15H91.2l-1-3.54a26.62,26.62,0,0,1-.66-2.63h0a19.84,19.84,0,0,1-.66,2.63l-1.12,3.54H86L83.6,15.1h1.87L86.39,19c.22.92.4,1.79.55,2.62h0c.14-.68.36-1.55.68-2.6L88.8,15.1h1.48l1.11,3.81c.27.93.48,1.82.65,2.68h0a26.3,26.3,0,0,1,.56-2.68l1-3.81Z"/><path class="cls-1" d="M104.31,23.25h-1.82V18.57c0-1.45-.54-2.17-1.64-2.17a1.63,1.63,0,0,0-1.31.6,2.13,2.13,0,0,0-.5,1.4v4.85H97.23V17.43c0-.72,0-1.5-.07-2.34h1.59l.09,1.26h0a2.56,2.56,0,0,1,.94-1,3.09,3.09,0,0,1,1.64-.45,2.58,2.58,0,0,1,1.9.74,3.6,3.6,0,0,1,.94,2.7Z"/><rect class="cls-1" x="106.96" y="11.36" width="1.81" height="11.89"/><path class="cls-1" d="M118.92,19.11a4.48,4.48,0,0,1-1.07,3.08,3.85,3.85,0,0,1-3,1.24A3.64,3.64,0,0,1,112,22.24a4.32,4.32,0,0,1-1.07-3,4.43,4.43,0,0,1,1.1-3.1,3.79,3.79,0,0,1,3-1.21,3.74,3.74,0,0,1,2.88,1.19,4.32,4.32,0,0,1,1,3m-1.88,0a3.71,3.71,0,0,0-.48-1.93,1.89,1.89,0,0,0-3.29,0,3.68,3.68,0,0,0-.49,2,3.62,3.62,0,0,0,.49,1.93,1.85,1.85,0,0,0,3.27,0,3.68,3.68,0,0,0,.5-1.94"/><path class="cls-1" d="M127.19,23.25h-1.63l-.13-.94h-.05A2.79,2.79,0,0,1,123,23.43a2.48,2.48,0,0,1-1.87-.73A2.35,2.35,0,0,1,120.5,21a2.56,2.56,0,0,1,1.25-2.29,6.53,6.53,0,0,1,3.51-.77v-.15c0-1.07-.56-1.61-1.69-1.61a3.8,3.8,0,0,0-2.13.6l-.37-1.19a5.22,5.22,0,0,1,2.8-.7q3.21,0,3.21,3.37v3a11.43,11.43,0,0,0,.11,1.94m-1.88-2.8V19.19q-3-.06-3,1.65a1.23,1.23,0,0,0,.35.95,1.27,1.27,0,0,0,.88.32,1.84,1.84,0,0,0,1.11-.38,1.55,1.55,0,0,0,.63-1Z"/><path class="cls-1" d="M137,23.25h-1.61l-.08-1.31h-.05a2.72,2.72,0,0,1-2.62,1.5,3.08,3.08,0,0,1-2.45-1.16,4.5,4.5,0,0,1-1-3,4.72,4.72,0,0,1,1.06-3.2,3.28,3.28,0,0,1,2.53-1.14A2.45,2.45,0,0,1,135.09,16V11.36h1.81v9.69c0,.8,0,1.53.07,2.2m-1.88-3.44V18.45a3,3,0,0,0,0-.57,2.14,2.14,0,0,0-.67-1.1,1.77,1.77,0,0,0-1.21-.44,1.86,1.86,0,0,0-1.59.81,3.39,3.39,0,0,0-.58,2.06,3.23,3.23,0,0,0,.55,2,1.88,1.88,0,0,0,1.59.81,1.77,1.77,0,0,0,1.43-.67,2.26,2.26,0,0,0,.52-1.5"/><path class="cls-1" d="M151.42,19.11a4.43,4.43,0,0,1-1.08,3.08,3.81,3.81,0,0,1-3,1.24,3.61,3.61,0,0,1-2.86-1.19,4.32,4.32,0,0,1-1.07-3,4.43,4.43,0,0,1,1.1-3.1,3.79,3.79,0,0,1,3-1.21,3.71,3.71,0,0,1,2.88,1.19,4.28,4.28,0,0,1,1,3m-1.88,0a3.71,3.71,0,0,0-.49-1.93,1.79,1.79,0,0,0-1.62-1,1.82,1.82,0,0,0-1.66,1,3.68,3.68,0,0,0-.49,2,3.62,3.62,0,0,0,.49,1.93,1.83,1.83,0,0,0,1.64,1,1.8,1.8,0,0,0,1.62-1,3.6,3.6,0,0,0,.51-1.94"/><path class="cls-1" d="M160.66,23.25h-1.81V18.57c0-1.45-.55-2.17-1.65-2.17a1.61,1.61,0,0,0-1.3.6,2.08,2.08,0,0,0-.51,1.4v4.85h-1.81V17.43q0-1.08-.06-2.34h1.59l.08,1.26h.05a2.72,2.72,0,0,1,.94-1,3.11,3.11,0,0,1,1.64-.45,2.56,2.56,0,0,1,1.9.74,3.56,3.56,0,0,1,.94,2.7Z"/><path class="cls-1" d="M171.82,16.45h-2v4c0,1,.35,1.5,1.06,1.5a3,3,0,0,0,.8-.08l0,1.38a4.12,4.12,0,0,1-1.4.2,2.16,2.16,0,0,1-1.68-.66,3.16,3.16,0,0,1-.61-2.2V16.45h-1.19V15.1H168V13.6l1.78-.53v2h2Z"/><path class="cls-1" d="M180.88,23.25h-1.81V18.6c0-1.46-.55-2.2-1.65-2.2a1.74,1.74,0,0,0-1.73,1.28,2.46,2.46,0,0,0-.08.65v4.92H173.8V11.36h1.81v4.89h0a2.75,2.75,0,0,1,2.45-1.32,2.56,2.56,0,0,1,1.87.74,3.72,3.72,0,0,1,.92,2.73Z"/><path class="cls-1" d="M190.26,18.79a4.64,4.64,0,0,1-.07.82h-5.44a2.38,2.38,0,0,0,.79,1.84,2.65,2.65,0,0,0,1.78.58,5.89,5.89,0,0,0,2.19-.39l.29,1.26a6.91,6.91,0,0,1-2.74.5,4,4,0,0,1-3-1.11,4.13,4.13,0,0,1-1.08-3,4.68,4.68,0,0,1,1-3.07,3.47,3.47,0,0,1,2.85-1.31,3,3,0,0,1,2.67,1.31,4.33,4.33,0,0,1,.73,2.57m-1.73-.47a2.5,2.5,0,0,0-.35-1.39,1.59,1.59,0,0,0-1.45-.76,1.73,1.73,0,0,0-1.44.74,2.75,2.75,0,0,0-.54,1.41Z"/></g></g></svg>