<svg xmlns="http://www.w3.org/2000/svg" viewBox="0 0 34.14 34.14"><defs><style>.cls-1{fill:#d0d2d3;}.cls-2{fill:#fff;}</style></defs><title>Asset 23</title><g id="Layer_2" data-name="Layer 2"><g id="Layer_1-2" data-name="Layer 1"><rect class="cls-1" width="34.14" height="34.14" rx="2" ry="2"/><path class="cls-2" d="M27.45,10.64a9,9,0,0,1-2.45.67A4.32,4.32,0,0,0,26.88,9a8.55,8.55,0,0,1-2.71,1A4.27,4.27,0,0,0,16.8,12.9a4,4,0,0,0,.12,1A12.12,12.12,0,0,1,8.13,9.41a4.37,4.37,0,0,0-.57,2.15A4.24,4.24,0,0,0,9.45,15.1a4.22,4.22,0,0,1-1.93-.53v.06a4.26,4.26,0,0,0,3.42,4.17A4.58,4.58,0,0,1,9.82,19,4.36,4.36,0,0,1,9,18.87a4.28,4.28,0,0,0,4,3,8.51,8.51,0,0,1-5.29,1.82c-.35,0-.69,0-1,0A12.12,12.12,0,0,0,25.34,13.39c0-.18,0-.37,0-.55a8.57,8.57,0,0,0,2.13-2.2"/></g></g></svg>