<svg xmlns="http://www.w3.org/2000/svg" viewBox="0 0 118.94 118.94"><defs><style>.cls-1{opacity:0.6;}.cls-2{fill:#3aa5dd;}.cls-3{fill:#4f6d76;}.cls-4{fill:none;}.cls-5{fill:#666667;}.cls-6{fill:#f6c117;}.cls-7{fill:#e82625;}</style></defs><title>Asset 2</title><g id="Layer_2" data-name="Layer 2"><g id="Layer_1-2" data-name="Layer 1"><g class="cls-1"><circle class="cls-2" cx="59.47" cy="59.47" r="43.25" transform="translate(-12.07 103.68) rotate(-76.72)"/></g><g id="_Group_" data-name="&lt;Group&gt;"><path class="cls-3" d="M63.33,50.31a.27.27,0,0,0-.08-.1.2.2,0,0,0-.11,0l0,0H63s-.05,0-.07.06-.09,0-.1,0,0,0,0-.07l0,0a.13.13,0,0,0,0-.12s0,0,0,0,0,0,0-.05,0,0,0,0l0,0,0,0a.13.13,0,0,1,0-.06s0,0,0,0h0s0,0,0,0,0,0,0,0v0s0,0,0-.05l-.05,0,0,0s0,0,0,0a.08.08,0,0,1,0,0s0,0,0-.06,0,0,0,0,0,0,0-.06a.33.33,0,0,0-.1-.06.15.15,0,0,1-.06-.1l0-.07,0-.07,0-.06a.26.26,0,0,0,0-.08l0,0v0s0,0,0,0v0a.11.11,0,0,0,0-.06l0-.06a.24.24,0,0,0-.06-.08h0s0,0,0,0l-.06,0a.18.18,0,0,1-.08-.07s0,0,0,0h-.25s0,0,0-.06.09,0,.11,0h.06s0,0,0,0h0s-.06-.08-.07-.09-.05,0,0-.06l0,0s0,0,.06,0l0,0a.3.3,0,0,0,0-.1s0,0,0,0l0,0a.09.09,0,0,0,0-.1.19.19,0,0,1,0-.13l0,0,0,0s0,0,0,0,0,0,0,0a.22.22,0,0,0,0-.08s-.06,0-.09,0l0,0h-.34l0,0s0,0,0,0h0l-.06,0h0l0,0h-.07s0,0,0,0a.05.05,0,0,1,0,0l.05,0s0,0,0,0v0s0,0,0,0-.06-.05,0-.08l.1,0h0s0,0,0,0l0-.05a.27.27,0,0,1,.07-.08l0,0s0,0,0-.06,0-.11,0-.12,0,0,0,0h-.3l0,0-.06,0s-.08,0-.12,0l0,0a.16.16,0,0,1,0,.07L61,47s0,0-.05,0,0,0,0,.05v.06s0,0,0,.06-.1.1-.13.13-.07,0,0,.1,0,0,0,.05,0,0,0,.06l0,0,0,0a0,0,0,0,1,0,.05s0,0,0,0a.27.27,0,0,1,0,.13l0,.05,0,0v0s0,0,0,0a0,0,0,0,0,0,0l0,0s0,0,0,.06,0,.07,0,.06,0,0,.08,0,0,.06,0,.08a.25.25,0,0,0,0,.09.13.13,0,0,1,0,.06s0,0,0,0a.07.07,0,0,1,0,.09.36.36,0,0,0,0,.1.09.09,0,0,1,0,.05.11.11,0,0,1,0,.06.43.43,0,0,0,0,.05s0,0,0,0,0,0,0,0,0,0,0,0,0,0,.07-.07,0,0,0,0a0,0,0,0,1,0,0v0s0,0,0,0l0,0v0s0,0,0,0a0,0,0,0,0,0,0s0,0,0,0h.05s.06,0,.1,0,0,0,0,0a.05.05,0,0,1,0,0s-.08,0-.07.09,0,0,0,0a.25.25,0,0,1,0,.07s0,0,0,0,0,0,0,0v0s0,.06,0,.09,0,.07,0,.09-.06,0,0,.08,0,.06.07.07,0,.08,0,.12.06,0,.08-.06,0,0,.06,0l0,0s0,0,0,0a.3.3,0,0,0,0-.08l0,0h.09l.07,0,.06,0s0,0,0,0l0,.06s0,0,0,0,0,0,0,.07a.12.12,0,0,0,0,.1l0,0v.07s.08,0,.11,0h.05s0,0,0,.06,0,0,0,0,0,0,0,0,0,.08,0,.12a0,0,0,0,1,0,0s0,0,0,0a.17.17,0,0,0,0,.07s0,0,0,0a.12.12,0,0,1-.08,0,.29.29,0,0,1-.1,0h-.06l0,0h0l-.08,0s-.06.06-.09.09,0,0,0,0h0l0,0s-.07.06-.05.1.09,0,.12,0a.08.08,0,0,1,.11,0s0,0,0,.06,0,0,0,.06,0,0,0,.06,0,0,0,0l0,0s0,0,0,0l0,0,0,0s0,0-.06,0l-.07,0h0l0,0s0,0-.06,0,0,.08,0,.12,0,0,.06,0h.18s0,0,.06,0,0,0,0,0,0,0,0,0h0l0,0,0,0h0a.11.11,0,0,1,.08,0,.1.1,0,0,0,0,0h.07l.06,0a.39.39,0,0,1,.14-.08.08.08,0,0,1,0,.09.5.5,0,0,1-.07.08h-.3s-.06,0-.07,0l0,0,0,0s0,0,0,.06a.36.36,0,0,1,0,.09l0,0,0,0-.06.08-.13.12a.46.46,0,0,0-.12.12s0,.07,0,.09a.26.26,0,0,0,.15,0h0a.18.18,0,0,0,.08,0l.07-.06a.15.15,0,0,1,.09,0s.06,0,.09,0h0v0s0-.08.07-.1.07,0,.07-.06l0,0,.07,0s.11,0,.14,0l0,.06s0,0,0,0l0,0,.05,0a.2.2,0,0,1,.13,0s0,0,0,0l.05-.06h0s0,0,0,0h.23a.66.66,0,0,0,.14,0h.13l.06,0,.08,0,0,0h0a0,0,0,0,1,0,0l.06,0s0,0,0,0a.09.09,0,0,0,0-.11l-.12,0,0,0s0,0,0,0h0s0,0,0,0,0,0,0,0,0,0,0,0,0,0,.05,0a.09.09,0,0,0,0-.05c0-.06.06,0,.11,0s0,0,0,0,0,0,0,0v0a.17.17,0,0,1,0-.13h0a.13.13,0,0,0,0,0,.14.14,0,0,1,0-.06v-.07A.31.31,0,0,0,63.33,50.31Z"/></g><g id="_Group_2" data-name="&lt;Group&gt;"><path class="cls-3" d="M60.89,49.25l-.06,0,0,0s0-.07,0-.12l0-.05s0,0,0-.07a.21.21,0,0,0-.14-.07.13.13,0,0,0-.08,0l-.06,0v0h0a.05.05,0,0,0,0,0,.06.06,0,0,0,0,0s0,0-.07,0h0s0,0,0,0,0,.06-.06,0,0-.08,0,0,0,0-.06,0l-.08,0,0,0s0,0,0,.05a.12.12,0,0,1-.06.06l0,0,0,0a.11.11,0,0,0,0,.08s0,0,0,0,0,0,0,0H60s0,0,0,0v0a.32.32,0,0,1-.12.11l0,0h-.06a.06.06,0,0,0-.06,0h0a.1.1,0,0,1-.07,0l-.05,0s-.1,0-.12,0a.13.13,0,0,0,0,.06s0,0,0,.06,0,.08,0,.11l0,0h0s0,0,0,0l0,0-.05,0s0,.08,0,.12a.24.24,0,0,0,.11.06h.12s0,0,0,0l0,0s0,0,0,.05-.1,0-.11.07,0,.1,0,.13-.05,0-.07,0,0,0,0,.06,0,0,.06,0,0,0,0,0h-.07l-.05,0s0,0,0,.06,0,0-.07,0-.15,0-.12,0,0,0,.05,0h.08l0,.06s-.05,0,0,.07.05,0,.07,0l.06,0a.67.67,0,0,1-.06.12h.06l0,0s0,0,0,0-.06,0,0,.09l.07,0s0,0,0,0h.14s.07,0,.11,0,0,0,0,0,0,0,0,0,0,0,.07,0H60s.05,0,.06,0l0,0s.06-.06.09-.08l.11,0,.06,0h.17c.05,0,.05-.06.06-.09a.57.57,0,0,0,0-.13s0-.05,0-.08a.14.14,0,0,0,0-.06s0,0,0-.05v-.07a.56.56,0,0,1,0-.13l0,0v-.09s0-.06,0-.08v0l0-.06,0-.06a.09.09,0,0,1,0-.11l0,0,.07,0,0,0,.05,0,0,0s0,0,0-.06S60.94,49.26,60.89,49.25Z"/></g><g id="_Group_3" data-name="&lt;Group&gt;"><path class="cls-3" d="M58.06,41.91l0,0a.09.09,0,0,0,0-.1s0,0,0-.08a.19.19,0,0,0,0-.1s0,0,0,0h-.21s0,0,0,0,0,0-.06,0a.28.28,0,0,1,0-.09v-.13s0,0-.06,0,0,0-.05,0,0,0,0,0,0,0,0,0,.06-.05.06-.08h0v0l.05,0a0,0,0,0,0,0-.06l0,0h0l-.08,0s0,0,0,.05h-.1s0,0,0,0,0,0,0,0-.05,0-.06,0a.06.06,0,0,1,0-.08s0,0,0,0a.08.08,0,0,0,0,0s-.09-.05-.1-.11a.21.21,0,0,0-.11,0s0,0-.05,0,0,.05,0,.07,0,0,0,.06v.07a.13.13,0,0,1,0,.06.08.08,0,0,1,0,0l0,0s0,0,0,0a.09.09,0,0,0-.11,0s0,0,0,0l0,.05a.09.09,0,0,1-.1,0s-.06-.07-.09-.09-.08-.06-.09,0,0,0,0,0v0s0,0,0,0a.25.25,0,0,1,0,.11.06.06,0,0,1,0,.06v0s0,0,0,0,0,0-.05,0,0,0,0-.08v-.06s0,0,0,0,0,0,0-.06-.05,0-.07,0,0-.05,0-.06,0,0-.07,0l-.06,0-.08,0s0,0,0,0v.09a.27.27,0,0,1,0,.09s0,0-.06,0,0,0,0-.07,0,0,0-.07,0,0,0,0,0-.05,0-.07,0,0-.06,0,0,0,0,0,0,0,0,0v.07a.14.14,0,0,0,0,.07.17.17,0,0,1,0,.07l0,.08a.13.13,0,0,1,0,.06s0,0,0,0,0,0,0,0,0,0-.06,0,0,0,0,0,0,0,0,0,0,0,0,0h0s0,0,0,.06v.06s0,0,0,.05,0,0,0,0-.05,0-.06,0a.07.07,0,0,0,0,.05s0,0,0,0,0,0,0,0,0,0,0,0a.13.13,0,0,1,0-.06v0s0,0,0,0,0,0,0,0h0v0s0,0,0-.07l0,0,0,0s0-.1,0-.1.08,0,.08,0a.06.06,0,0,0,0,0l0,0s0,0,0,0,0,0,0,0-.08-.12-.11-.14h0l0,0a.1.1,0,0,1,0,0s0,0,0,0l0,0s0,0-.07-.06l-.06-.06s0,0,0,0,0,0,0,0h-.1s0,.06,0,.08l0,0,0,0s.06,0,.08,0,0,.07,0,.08-.06,0-.09,0,0,0,0,0,0,0,0,0,.06,0,.07,0a.2.2,0,0,1,.06.07.14.14,0,0,0,0,.07.06.06,0,0,1,0,0s0,0,0,0,0,0-.05-.05,0,0,0,0l0,0h0s0,0,0,0,0-.06,0-.08a.13.13,0,0,0-.08,0,.17.17,0,0,0-.1,0l0,.05s0,0,0,.06,0,0,0,0h0s0,0,0,0l0,0v.05a.05.05,0,0,0,0,0h.07s0,0,0,.05,0,0-.05,0,0,0,0,0,0,0,0-.06a.19.19,0,0,0-.1,0,.06.06,0,0,0-.06,0s0,.06,0,.07a.34.34,0,0,0,.09.08l0,0s0,0,0,0-.06,0-.08,0l-.06,0-.07,0s0,0,0,.05v.07h.13c.05,0,.06.08.12.09h.06s0,0,.06,0,.09,0,.12,0l0,0h0a.1.1,0,0,1,0,0,.06.06,0,0,1,.06,0s0,0,0,0a0,0,0,0,0,0,0h0s.1,0,.12,0l0,.05s0,0-.06,0l0,0,0,0a.06.06,0,0,0,0,.06h0l0,0,0,0h0s0,0,.06,0,0,0,0,0,0,0,0,.05,0,0,0,0h-.07l-.07,0H55s0,0,0,0-.08,0-.12.06h-.11a.1.1,0,0,0-.06,0s0,.05,0,.05h-.06s0,0,0,0,0,.08.08.09.09,0,.13,0H55s0,0,0,.08,0,0,0,.05a.11.11,0,0,1,0,.06.05.05,0,0,0,0,0s0,0,.06,0,0,0,0,0,0,0,0,.05,0,0,0,0,0,0,0,0l0,0a.11.11,0,0,1,0,.06v0s0,0,0,0,0,0,0,0l0,0c-.05,0-.1,0-.14,0s-.07,0-.07.09,0,0,0,.05,0,0,.06,0,0,0,.06,0h.06s0,0,0,0l0,0h0l0,0h.07l.06,0h.2l0,0h0a.71.71,0,0,1,.09.07l0,0s0,0,0,0h.08l.07,0,.05,0h.06l0,0,0,0,0,0,0,0a.19.19,0,0,0,.13,0h.12a.18.18,0,0,0,.11-.1s.06,0,.09-.07,0,0,.05-.06a.24.24,0,0,0,.08-.06l.07-.09s0,0,0,0l0,0h0s.06,0,.1,0,0,0,.06,0,.06,0,.09,0a.18.18,0,0,0,.07-.08,1.62,1.62,0,0,0,.1-.18s0,0,.06-.06.06,0,.1,0v0h0a.14.14,0,0,0,0,.06s.05,0,.06,0,0,0,0,0,0,0,0,0a.12.12,0,0,1,.05,0l.06,0,0,0,0,0a.09.09,0,0,0,0-.07s0,0,0,0,0,0,0,0a.14.14,0,0,1,0-.07s0,0,.06,0H58a0,0,0,0,0,.06,0,.08.08,0,0,0,0-.07s0-.06,0-.08h0l0,0,0-.07-.1-.05S58.05,41.93,58.06,41.91Z"/></g><g id="_Group_4" data-name="&lt;Group&gt;"><path class="cls-3" d="M38.94,65c0-.12.16-.08.22-.14s-.16,0-.23-.07-.09-.14-.19-.17-.53.07-.56,0-.23-.09-.35-.11-.07.11,0,.19S38,65,38,65s-.26,0-.34,0-.31,0-.15.18.31,0,.43,0,.21,0,.3.07.1.15.21,0,0-.1.11-.1.07.08.13.08.2-.08.33-.08.36.06.4,0S39,65,38.94,65Z"/></g><g id="_Group_5" data-name="&lt;Group&gt;"><path class="cls-3" d="M36.59,65.14a.62.62,0,0,0-.33-.08c-.12,0-.29,0-.15.18a1.1,1.1,0,0,0,.29.12c.12,0,.22,0,.34,0C36.77,65.19,36.65,65.22,36.59,65.14Z"/></g><g id="_Group_6" data-name="&lt;Group&gt;"><path class="cls-3" d="M37.22,64.35c-.07,0-.2,0-.23-.08s-.37-.13-.47-.22-.07-.1-.18-.14-.16,0-.24-.06-.16-.13-.27-.16a1.15,1.15,0,0,1-.31-.11,1,1,0,0,0-.63-.17,3.51,3.51,0,0,0-.72.13c-.18,0-.2.13-.29.26s-.11.05-.07.15A.13.13,0,0,0,34,64c0-.22.25-.25.4-.36a.3.3,0,0,1,.31-.08c.2.05.07.07.08.21a2,2,0,0,1,.48,0,3.06,3.06,0,0,0,.43.13c.15,0,.24,0,.33.17s.2.14.38.23c0,.07-.16.12-.19.19l.62,0c.15,0,.47.1.57,0A.45.45,0,0,0,37.22,64.35Z"/></g><g id="_Group_7" data-name="&lt;Group&gt;"><path class="cls-3" d="M44.64,53.13s.08-.26,0-.3-.16.09-.22.13c-.18-.2.18-.2.15-.37a.28.28,0,0,0-.2,0c-.09-.12,0-.18.07-.29s0-.13-.16-.17-.07-.1-.15-.11-.1.07-.16.09-.27.05-.31,0a.2.2,0,0,1,.07-.23c-.13-.22-.28.07-.35.16,0-.24,0-.67.3-.7,0-.11.11-.2.09-.3s-.2,0-.3,0a1.2,1.2,0,0,0-.29.5c-.07.2-.18.39-.25.59s-.26.45-.37.46c.32,0-.06.26-.08.29-.07.2.18.18.28.17s.34,0,.5,0a3.47,3.47,0,0,1,.45-.06c0,.05-.1.1-.11.17S44,53,44,53.07s-.21.27-.24.35c.15,0,.19-.1.27-.2s.16-.24.2-.24.06.24.07.29-.09.09,0,.12.11-.07.13-.07a.78.78,0,0,1,0,.22h.08c.06.15.14-.06.16-.13a1,1,0,0,0,0-.3S44.68,53.11,44.64,53.13Z"/></g><g id="_Group_8" data-name="&lt;Group&gt;"><path class="cls-3" d="M81.71,74.16c-.17.13-.09.41-.29.56s-.17.07-.27.2-.06.2-.13.28c-.31.43-1,.09-1.15.65-.1.36.3.75.15,1.12,0,.08-.3.27-.36.32a2.17,2.17,0,0,0,.08.76,3.05,3.05,0,0,0,.17.66c.14.28.3.29.55.29s.44.11.57-.25c.19-.51.39-1.06.55-1.59.09-.26.13-.51.23-.78a1.69,1.69,0,0,0,0-.71c0-.13,0-.23.07-.32s.13,0,.21,0a2.27,2.27,0,0,0-.09-.9C82,74.36,81.8,74.26,81.71,74.16Z"/></g><g id="_Group_9" data-name="&lt;Group&gt;"><path class="cls-3" d="M90.1,68.15a5.54,5.54,0,0,0-.09,1.1c.25.46.87,0,.85-.25S90.59,68,90.1,68.15Z"/></g><g id="_Group_10" data-name="&lt;Group&gt;"><path class="cls-3" d="M29.83,34.93s0,0,0-.06-.08-.06-.11-.06,0,0-.08.06a.08.08,0,0,1,0-.07s0,0,0-.07a.13.13,0,0,0,0-.06l0-.08s0-.09,0-.12a.1.1,0,0,0-.12,0l-.06,0s-.06,0-.08,0-.12.1-.14.06,0,0,0-.06l0-.07.07-.06.07-.06s.09,0,.1-.08v0s0,0,0,0a.25.25,0,0,0,0-.08s0,0,0,0h.06s0,0,0,0,0,0,0-.06a.25.25,0,0,0,0-.12s0,0,0,0,0,0,0,0v0a0,0,0,0,1,0,0,.11.11,0,0,0,.06-.12s0,0,0-.06l0-.07s0-.09,0-.09h-.07s-.06,0-.08,0l0,0h0l-.06.05a.29.29,0,0,1-.13,0h-.29l0,0a.1.1,0,0,1,0-.05s0-.07-.08-.1-.05-.06-.09-.06h0s0,0,0,0-.06,0-.07.06v.06l.05,0s0,0,0,.06-.06,0-.08,0h-.13l0,0a0,0,0,0,0,0,0l0,0v0l0,0s0,0,0,0,0,0,0,0l.06,0a.11.11,0,0,1,.07.08.25.25,0,0,1,0,.08v0s0,0,0,0-.06-.09-.11-.1-.08.06-.08.1,0,0,0,.06l.06.06.06,0,.05,0,.08,0a.1.1,0,0,0,.07,0s0,0,0-.06,0-.08,0-.08l.05.07,0,.06s0,.08,0,.1h-.05l-.05,0a.05.05,0,0,0,0,0s0,0,0,0a.24.24,0,0,0,0,.12s.06,0,.09.07a.14.14,0,0,1,0,.11s0,0,0,0,0,0,0,0a.57.57,0,0,0,0,.13.14.14,0,0,1,0,.06s0,0-.05,0a.61.61,0,0,1-.1.07l-.07,0h0s0,0,0,0a.31.31,0,0,1-.07-.09s0,0,0-.06,0,0,0-.05a.1.1,0,0,0,0,0s0,0,0,0,0-.07-.09-.08-.06,0-.08.08a.32.32,0,0,0,0,.09v.13l0,.05s0,.09.05.12l.1.07,0,.06a.43.43,0,0,1,0,.07.14.14,0,0,0,0,.06s0,0,0,.06a.19.19,0,0,0,.14.07s.06,0,.09,0,0,0,0,.07h.06l0,0,.05,0a.23.23,0,0,1,.1.07.2.2,0,0,1,0,.11.05.05,0,0,0,0,0,.13.13,0,0,1,0,.05s.06.08.08.11a.1.1,0,0,1,0,0s0,.05,0,.07,0,.06.06.1v0l0,0,0,0v0a.08.08,0,0,0,0,.05l0,0s0,0,0,0,0,0,0,0,0,0,0,0a.27.27,0,0,0,.07.08c.05,0,.08,0,.11,0s0-.07.08-.08a.14.14,0,0,0,0-.06l0-.06s0,0,0,0,0,0,0,0,0,0,.06,0a.2.2,0,0,1,.13,0s0,0,.05,0,0,0,0,0l.06,0,0,0a.39.39,0,0,1,.06-.13s0,0,.05,0h0v0a.57.57,0,0,0,0-.13s0,0,0,0,0,0-.06,0,0,0,0-.05a.17.17,0,0,0,0-.07s0,0,0-.06,0,0,0-.06,0,0,0,0,0,0,0-.05a.35.35,0,0,0,.05-.08V35A.17.17,0,0,0,29.83,34.93Z"/></g><g id="_Group_11" data-name="&lt;Group&gt;"><path class="cls-3" d="M31.8,33.3l-.08,0s0-.05-.07-.06-.1,0-.14,0a.11.11,0,0,0-.07,0s0,0,0,0h0l-.12,0s0,0,0,0,0,0,0,0a0,0,0,0,0,0,0l-.05,0-.05,0-.07,0,0,0h-.17c-.05,0-.05.08-.1.1s0,0,0,0l-.05,0a.16.16,0,0,0-.12,0l-.15,0a.49.49,0,0,0-.15.1s0,.1,0,.12.06.07.09.11.07,0,.09.08a.21.21,0,0,0,0,.06s0,0,0,0-.16-.13-.21-.14-.13.11-.13.18,0,0,0,.07,0,0,0,.06a.24.24,0,0,0,0,.08s0,0,0,.06a.61.61,0,0,1,0,.14s0,0,0,0v.08s0,.09,0,.12v0s0,0,0,0v.06a.15.15,0,0,0,0,.07s0,0,0,.06a.65.65,0,0,1,0,.14l0,.07a.25.25,0,0,0,0,.07.64.64,0,0,1,0,.07l0,.09a.29.29,0,0,1,0,.13v.14s0,0,0,.06,0,0,0,0v0s0,0,0,0,0,0,0,0,0,0,0,0,0,0,0,0,0,0,.06,0l.07,0h.1a.16.16,0,0,1,.12,0s0,0,0,0,0-.06,0-.08a.19.19,0,0,0,0-.08v-.06l0-.07.06-.07,0-.06s0,0,0-.06a.06.06,0,0,0,0-.06l0,0s0-.09-.06-.12-.08,0-.11-.07l0,0s0,0,0,0,0,0,0,0h.08l.13,0s.05,0,.08,0H31a.13.13,0,0,1,.12.06s0,0,0,0h0s0,0,.05,0h.07s0,0,.05,0h0l0,0s.05,0,.06-.07a.58.58,0,0,0,0-.19s0,0,0-.06a.14.14,0,0,1,0-.06s.05-.07.05-.11,0-.06-.06-.09,0,0,.06,0h.07s0,0,0,0l0,0a0,0,0,0,1,0,0s0,0,0,0a.14.14,0,0,0,0-.06.25.25,0,0,1,0-.07s0,0,0-.07a.4.4,0,0,1,0-.11.1.1,0,0,0,.1-.05.64.64,0,0,0,.08-.14.51.51,0,0,0,0-.13C31.92,33.29,31.85,33.3,31.8,33.3Z"/></g><g id="_Group_12" data-name="&lt;Group&gt;"><path class="cls-3" d="M35.21,43c-.07-.05-.05-.05-.14-.07s-.1,0-.15,0a.67.67,0,0,0-.16-.43c-.12-.12-.28,0-.32-.26a.32.32,0,0,1-.16,0c0-.19-.3,0-.26-.25l0,0c0-.15-.17-.12-.23,0,0-.09-.15-.59-.22-.4s-.15.19-.16.39-.08.3-.11.45a2.16,2.16,0,0,1-.06.51c-.08.14-.27.15-.23.36a1.16,1.16,0,0,0,.32,0c.09,0,.12-.14.21-.1a1.42,1.42,0,0,0,.05.22c0,.07,0,.21,0,.26s.28-.09.35-.18.25-.1.31-.21,0-.38.24-.34c0,.19,0,.21.18.22,0,.19.09.16.25.21s.2.1.35,0S35.37,43.06,35.21,43Z"/></g><g id="_Group_13" data-name="&lt;Group&gt;"><path class="cls-3" d="M99,73.39s.17-.81,0-1-.2-.07-.44-.33-.42-.26-.42-.41.21-.22,0-.34-.17,0-.47-.24l-.5-.42s0,0-.3-.23-.36-.25-.52-.48-.52-.16-.67-.28-.46-.31-.34-.12a3.85,3.85,0,0,0,.45.71c.24.25.26.36.42.46a.76.76,0,0,1,.39.4c.08.21.24.22.36.39s.28.82.53,1A3.8,3.8,0,0,1,98,73c.09.08.3.09.38.29S99,73.52,99,73.39Z"/></g><g id="_Group_14" data-name="&lt;Group&gt;"><path class="cls-3" d="M33.22,33.15l-.08.11a5.47,5.47,0,0,0-.54,1,3.49,3.49,0,0,0-.31,1.22c0,.22-.16.62,0,.76s0,.1.44.23.67-.2.38.12-.8.52-.38.6-.14-.18.52.16.14.28.84.28.25,0,.71,0,.29.2.63,0-.25-.62.34-.2a4.57,4.57,0,0,0,1.13.64,1.21,1.21,0,0,1,.46.38l.4.88s.29-.13.39.35a1.27,1.27,0,0,1-.2.9s0,.57-.19.73a5.15,5.15,0,0,0-.54.41c-.32.24,0,.06-.49.23s-1,0-.52.27,0,.08.46.21a3.37,3.37,0,0,1,.82.4s-.07-.25.32,0a3.51,3.51,0,0,1,.5.37c.23.17-.06.16.44.43s.08.23.51.26.41,0,.32-.36S39,43,39.4,43s.58-.05.75.13-.22.14.17.18l.4,0a.54.54,0,0,0-.22-.56c-.32-.28,0,.43-.32-.28s-.46-.4-.51-1-.33-1.32,0-.88.1.51.39.58a5,5,0,0,1,.55.19s-.21.36.31.26.59-.07.57-.34.21-.21,0-.54.63,0-.25-.46-.59-.06-1-.55-.4.12-.43-.49.06-.53-.06-.84.22-.4-.32-.67a1.77,1.77,0,0,1-.68-.49s-.09-.13-.51-.67-.25-.3-.59-.74-.19-.66-.55-.8a1.24,1.24,0,0,0-.46-.13c-.23,0-.24-.4-.58.1s.13.59-.45.7-.41.12-.61.23l-.2.12a.6.6,0,0,1,0-.68c.23-.36.09.08.23-.36s0-.57.12-.78.13-.16.12-.39.27-.84-.2-.32-.46.66-.85.85-.37.36-.47.11.13,0,0-.46,0-.21-.1-.47,0-.27-.06-.26"/></g><g id="_Group_15" data-name="&lt;Group&gt;"><path class="cls-3" d="M30.79,30a2.34,2.34,0,0,1,.37.78c.13.37,0,.19.05.64s-.31.37.09.59.19.41.55.41,0,0,.46-.05-.18.08.57.05.51,0,.84,0,.68.33,1.11.22.22.45.44-.12.35-.52.26-.85.07-.11-.18-.35S35.76,31,35,31s-.47.21-1,.23a2.57,2.57,0,0,1-.93-.13s0,.18-.35-.18-1.08-.38-1.27-.66-.3-.4-.3-.4-.31-.13-.31-.27-.66-.47-.66-.47-.17-.25-.21.14-.25.08,0,.49.34.57.34.57.11.16.21.07A1.89,1.89,0,0,0,30.79,30Z"/></g><g id="_Group_16" data-name="&lt;Group&gt;"><path class="cls-3" d="M66,23.91a2.65,2.65,0,0,1,.53.84c.15.35,0,.32.15.35s.07-.28.28.09a6.4,6.4,0,0,0,.36.56L67,26.2a.82.82,0,0,1-.08.75,5.68,5.68,0,0,0-.4,1s.1.15-.08.8,0,1.14-.19.9a5.43,5.43,0,0,0-.42-.51c-.24-.23-.73.09-.3-.39l.43-.49s0,.15-.35-.06S65,28,65,27.87s-.32-.18.37-.35.69,0,.74-.27.08,0,0-.37-.09-.57-.2-.56a1.15,1.15,0,0,0-.35.2s.1.39-.39.53-.84.75-.71.13.53-.75.2-.86-.4.07-.39-.27v-.34s.37-.14,0-.39-.68-.8-.48-.78-.32-.53.48.06.89.69.89.69-.08.14,0-.28,0-.4.06-.41.07-.18.29.15.27.83.23.34-.09-.26-.07-.55a3.25,3.25,0,0,1,.06-.63l0-.1S65.71,23.65,66,23.91Z"/></g><g id="_Group_17" data-name="&lt;Group&gt;"><path class="cls-3" d="M70.26,23.62c-.51-.12-.39-.15-.67-.14h-.28s0-.37-.2-.33-.23.32-.23.32l-.29.08-.35-.17a1.24,1.24,0,0,1-.43-.41s-.14,0-.18.28,0,.13-.18.23-.31,0-.16.23.21.1.2.29a1.19,1.19,0,0,1-.09.34,1.26,1.26,0,0,0,.2.19c.07.06-.11.23.15.11s.49-.37.56-.32.14.13.11.17a1.44,1.44,0,0,0-.11.19l-.18.08a2.47,2.47,0,0,1-.38,0s-.09.09.1.22.18.19.25.24a.4.4,0,0,0,.21.07s0,.12,0,0-.07-.19,0-.16.25,0,.3.07l.23.24s-.07,0,0,.1,0,.1.1.16-.13.1.09.06a.53.53,0,0,0,.29-.22l.11.06,0,.18h.12a.3.3,0,0,0,.26-.27,2,2,0,0,0,0-.43s0-.08,0-.13c.15-.46.24-.25.29-.53a2.85,2.85,0,0,0,.12-.56C70.33,23.69,70.77,23.73,70.26,23.62Z"/></g><g id="_Group_18" data-name="&lt;Group&gt;"><path class="cls-3" d="M85.81,29.26c.14.28-.16-.08-.73.42s-.54.49-.77.57-.39,0-.65.27.17-.4-.56.52l-1,1.32s-.27.49-.44.74a2.32,2.32,0,0,0-.26.72,2.51,2.51,0,0,0,.57.22c.06,0,.28-.38.28-.38l.37-.53.78-.65s-.54-.6.23-.79l.92-.23L85,31c.32-.26.2-.08.52-.36s.33-.09.46-.3.13,0,.2-.32,0,0,0-.4S85.74,29.11,85.81,29.26Z"/></g><g id="_Group_19" data-name="&lt;Group&gt;"><path class="cls-3" d="M81,34.52l-.18.41s-.34.45-.28.53-.15.08-.12.3a.32.32,0,0,0,.24.33.86.86,0,0,0,.3,0,.75.75,0,0,0,.08.27c.08.13-.09.1.14.29s-.14-.15.36.11a2.29,2.29,0,0,0,.81.28l-.12-.19s-.32-.86-.41-1.07a4.21,4.21,0,0,1-.14-.43l.06-.42a1.75,1.75,0,0,1,.18-.48c0-.26,0-.19-.11-.31s.35-.16-.12-.12l-.47,0Z"/></g><circle class="cls-4" cx="59.47" cy="59.47" r="43.25" transform="translate(-12.07 103.68) rotate(-76.72)"/><path class="cls-3" d="M75.65,54.45a.1.1,0,0,0,0,0Z"/><path class="cls-3" d="M92.73,31.81a4.25,4.25,0,0,1-.43.86c-.16.2-.21.12-.21.45s.31.09,0,.25a3.67,3.67,0,0,1-1,.27c-.21,0-.67-.07-.65.22s0,.19,0,.37a7.56,7.56,0,0,0,.1.76s.19.17.43.38.07.16.19.34a2.32,2.32,0,0,1,.23.83c0,.11-.19,0-.06.41s.36.61.09.64-.26.2-.28,0,.21-.19,0-.34a.71.71,0,0,1-.3-.76c.1-.29.38-.39.2-.51s-.15.17-.49-.13-.54-.78-.94-.78-.46.1-.46.1a1.26,1.26,0,0,1,.13.55c0,.37-.25.24,0,.6s.47.52.13.32-.51-.22-.64-.41a1.16,1.16,0,0,1-.16-.43l.07-.65-.18-.41s-.11-.32-.14-.18.19.37,0,.7-.29.44-.29.44l-.21.16a.72.72,0,0,0,0,.6,1.83,1.83,0,0,1,.27.59.79.79,0,0,1,0,.31l-.22.33s-.07.08.06.37.16.4.16.4.93-.14,1,.17a4.46,4.46,0,0,1,.13.72c0,.07-.06.1-.07.14a.42.42,0,0,0-.06-.21c-.13-.22-.1-.31-.35-.42s-.07-.29-.33-.08-.09.79-.18,1.06-.26.32-.37.49-.33.5-.33.5a.48.48,0,0,1-.29.14c-.2,0-.59.13-.63,0s0-.2.29-.23.35-.13.49-.34a1.62,1.62,0,0,0,.36-.78c.08-.48-.29-.86-.25-1.43s.32-.56.06-.94-.09-.46-.17-.72-.22-.06,0-.57.23-.72.23-.72.11-.75-.08-.81,0-.19-.34-.09a4.26,4.26,0,0,1-.47.13l-.22,0s0-.06-.14.42a6.68,6.68,0,0,0-.2.77,1.4,1.4,0,0,1-.26.5c-.13.1-.37.32-.37.32l.11.12.08.24s-.17.11-.11.14.23,0,.17.13a.56.56,0,0,0-.06.33c0,.11-.07.17-.08.29a1.25,1.25,0,0,0,.24.73c.17.2.29.1.32.35a1.69,1.69,0,0,1,0,.46,1.57,1.57,0,0,0-.4-.28c-.5-.29-.44-.21-.63-.4a3.24,3.24,0,0,0-.61-.41A1.11,1.11,0,0,1,84,38c-.36-.18-.59-.54-.6-.05a4.21,4.21,0,0,0,.19,1l-.19.12C83,39.38,83,39,83,39l-.12-.41-.29.13s.06.25-.17.27A.78.78,0,0,1,82,39c-.11,0-.28.14-.28.14l-.25.11-.26-.16s.46-.92-.12-.45-.32.93-1.12,1.18a6,6,0,0,0-1.48.72s-.34-.11-.15-.52a7.88,7.88,0,0,0,.35-1l-.48-.31s-.32-.51-.26.27a4,4,0,0,1,0,1.43c-.09.61-.15.6-.58,1s-.22.33-.43.69-.22.43-.54.43a.79.79,0,0,0-.55.26s-.06.15-.6-.17-.88,0-.57-.49.62-.07-.12-.91-1.35-1.18-.74-.91a2.73,2.73,0,0,0,1.09.41c.64.11.8.15,1-.17s.39-.2.37-.67-1-1.21-1.9-1.71S74,37.7,73,37.38a3.74,3.74,0,0,0-1.66-.2,2.7,2.7,0,0,0-1.84.88c-.79.88-1.72,2-1.72,2a9.14,9.14,0,0,1-1.12,2.37c-.57.66-.39,1.05-.93,1.33a1.72,1.72,0,0,0-.76.79,10.74,10.74,0,0,1-.07,1.38c-.08.5-.34.49-.34.65s.19.21.19.21l.48.18s1.17-1.37,1.25-1.07.25,1,.25,1a1.92,1.92,0,0,1,.38.63,4.52,4.52,0,0,1,0,.59l-.35.52.66-.16.56-.44a17.37,17.37,0,0,0,.47-1.68c0-.18.21-.29.21-.29s.52.14.27-.25a4.22,4.22,0,0,1-.4-1.07l.11-.75.29-.59s.95-.17,1-.67a6.53,6.53,0,0,1,.22-1l.47-.43.55,0,.43.58s.39-.26-.17.36-.21.85-.63,1-.53.21-.62.39a3.66,3.66,0,0,0-.17.65l.08.51a1.22,1.22,0,0,1,0,.57,2.55,2.55,0,0,0,.54.41,1,1,0,0,0,.43-.05s.44-.46.81-.43.31-.37.65,0,.87.36.68.38-.41-.16-.75.1-.06.46-.48.37-.33,0-.61,0-.59.34-.59.34l.12.34.22.21-.07.39s-.14.28-.19.27-.55-.24-.55-.24l-.1.34-.07.43L70,49l-.5.3s-.07-.5-.81-.1a6.13,6.13,0,0,0-1,.63L67,49.59c-.25-.08.05.71-.45.09s-.45-.56-.51-.61.07-.5.07-.5-.1.06.08-.11.24-.07.26-.21.08-.12,0-.34-.13-.18-.11-.35.39-.64,0-.2l-.67.72a1.55,1.55,0,0,0,0,.59,2.08,2.08,0,0,0,.23.52s.35.13,0,.37a2.29,2.29,0,0,1-.66.31s-.2-.09-.53.27-.12.21-.36.49a2.77,2.77,0,0,1-.38.41l-.59.55a.24.24,0,0,1,0,.43c-.34.21-.4.32-.67.16s-.37-.36-.42-.2.13.49.13.49l-.14.08s-1-.08-.87.18a.84.84,0,0,0,.44.39s.88.07.78.56.22,1.35-.5,1.46S61.29,55,61,55s-.34-.15-.73,0-.5-.14-.48.14a2.56,2.56,0,0,0,.2.69s0,0-.09.46-.19.62-.19.62l0,.41.14.26s.83.17.72.3.48.42.48.42l.3-.18.59-.31a1.42,1.42,0,0,1,.56-.36c.39-.17.24.21.33-.31s0-.43.36-.62.19,0,.43-.3l.24-.35-.07-.45s.87-1,1.34-.71.53,0,.53,0l.63.2a.33.33,0,0,0,.17.37,1.65,1.65,0,0,1,.46.46l.39.3.56.35.17.19.17.26s.25-.17.11.26l-.15.44.24-.18.07-.24s-.09-.41,0-.54a.53.53,0,0,1,.23-.19l.23.13.1-.16s.52,0-.4-.44a10.58,10.58,0,0,1-1-.51c-.32-.14-.14,0-.39-.55s-.34-.59-.25-.69-.24-.39.17-.1l.41.29.41.21.43.35s0-.25.45.24.3.23.45.49l.16.27s-.39.23,0,.53.46.42.5.52.58.18.58.18l.37.23-.36-.91.43,0s.27-.27.47-.26h.38a3.16,3.16,0,0,1,.62-.17c.17,0,.22-.07.12-.16s-.52-.12-.13-.65.13-.18.31-.67.38-.55.38-.55l.23-.55s.27-.2.32,0-.32.45.11.32a1.24,1.24,0,0,1,.62-.09l.2.09.58-.47.64-.29.36.2s-.43.11-.38.31a.81.81,0,0,1,0,.34l-.28.18.11.33s.08,0,.45.14c.56.27.66.3.69.44s0,.24.12.36.22.19.22.39.23.43-.21.36L76,56l-.77-.07a3,3,0,0,0-.77,0,1.85,1.85,0,0,0-.69.19l-.43.1a2.46,2.46,0,0,0-.64.21c-.33.15-.44.19-.6.25s-.37-.12-.36.06.3.49.3.49a.44.44,0,0,0,0,.36c0,.21.4.4.4.4l.25.13.68-.06s-.1,0,.17.12l.26.08a1.24,1.24,0,0,0,.75-.07c.34-.16.76-.39.64-.08a.82.82,0,0,0-.12.62.79.79,0,0,1-.21.62l-.07.57s0,.15-.16.31.24.43-.35.24a3.39,3.39,0,0,0-.86-.18l-.72.24h-.52a9.43,9.43,0,0,0-1.51-.61c-.31,0-.13-.1-.49-.1a.59.59,0,0,0-.49.2l-.08.49-.09.11-.51,0a3.44,3.44,0,0,1-.86-.26,3.24,3.24,0,0,1-.31-.33L67,59.81s1.1-.31.25-.37-.94.24-1-.13a1.33,1.33,0,0,1,.09-.68,1,1,0,0,0,0-.55l-.25-.14a1.24,1.24,0,0,1-.43,0l-.32,0-.79.15-.59.13a2.6,2.6,0,0,1-.53.09.8.8,0,0,0-.78.14c-.15.13-.17.16-.17.17s0,0-.16,0c-.34.12-.41.36-.79.19s-.42-.16-.5-.16-.35.2-.35.2l-.4.51-.6.24s-.14,0-.18.63.12.82-.13.92.14,0-.41.22a1.8,1.8,0,0,0-.71.52l-.26.33-.92,1.55s-.13,0,0,.69a7.09,7.09,0,0,1,.11,1.37l-.35.81s1.11,1.55,1.28,1.71.39.19.51.45a1.51,1.51,0,0,0,.44.47,1.65,1.65,0,0,0,1.71.61c1.05-.3,1,.19,1.46,0s1-.42,1-.42.86-.27,1.3.15.45.29,1,.4.69-.13.58.41a5.52,5.52,0,0,0-.26,1.26,1.4,1.4,0,0,0,.27.69l.63.81a4.54,4.54,0,0,1,.44.89c.2.52.47.7.27,1.2s-.63,2.65-.63,2.65a4.65,4.65,0,0,1,.77,1.63c.15.79.27,1.36.27,1.36l.62,1a1.1,1.1,0,0,1,.43.73c0,.47.11,1,.11,1s.28.1.62.19.37.26,1.27,0,1,0,1.56-.78,1-.66,1.27-1.35a2.6,2.6,0,0,1,.84-1.5c.57-.48.05-.45.15-1.31a1.46,1.46,0,0,1,.61-1.13s1.19-.1,1.2-1.07.46-.65.08-1.61-.39-.49-.4-1.25a2.42,2.42,0,0,1,.19-1.12l.92-.65s.37,0,1.14-1.06.84-.8,1.06-1.46S80,68.4,80,68.4a1.77,1.77,0,0,0,.26-.58c0-.26.44-.48,0-.36a5.86,5.86,0,0,1-1,.24c-.61.11-.46.2-.76.11a1,1,0,0,0-.49,0,.28.28,0,0,1-.34-.18,2.16,2.16,0,0,0-.3-.59c-.1-.15-.41.14-.49-.2s-.49-.43-.63-.67a10.81,10.81,0,0,1-.54-1s.11-.32-.46-1l-.57-.66-.09-.92-.32-.71L74,61l.38.35s.1-.5.2-.29-.27,0,.11.53l.14.18s-.12-.14.41.65a6.92,6.92,0,0,0,1.14,1.47l.33.88s-.18-.16.43.67.78.42.61,1.06,0,.59,0,.59l1.26-.28.41-.17.69-.57A7.07,7.07,0,0,0,82.31,65c.46-.53.69-.71.76-1,0,0,.23-.07,0-.32s-.12-.2-.59-.45a5.45,5.45,0,0,0-.55-.27v-.3l-.3.14-.59.25-.49,0s-.12.34-.33-.12,0-.36-.2-.46l-.15-.11a11.65,11.65,0,0,1-.66-1.16c-.19-.42.11-.53.11-.53s-.14-.28.38.24a5.9,5.9,0,0,0,.84.73l.51.2.32.09.54-.09s.11.58.55.63l1,.15a4.14,4.14,0,0,0,.88-.13h.66l.86.22.21.38.22.33.49,0-.39.32a1,1,0,0,0,.36.43,2.58,2.58,0,0,0,.39.11,1.41,1.41,0,0,1,.5-.31c.24,0-.24,1,.23,2s.91,1.84,1,2.11.2.53.2.53a1.39,1.39,0,0,0,.58-.39c.28-.29.34-.15.4-.38s0-.08,0-.61-.2-.65-.09-.93.15-.1.54-.37.56-.46.89-.72.56-.42.56-.42l.42-.27s-.25-.44.09-.53.3-.25.45-.13.56,0,.56,0l.31-.2A13.41,13.41,0,0,1,95.07,65c.07.2,0,.32.08.52a.39.39,0,0,1-.05.36s.11.17.11.17l.33-.06s.07-.45.27-.38.23.39.34.52a7.7,7.7,0,0,1,.26,1.37.16.16,0,0,1,.14.2c0,.18-.42.74-.23.91a2.44,2.44,0,0,1,.65.9c0,.25.59,1.54,1.39,1.42,0,0-.32-.5-.32-.83s.06-.41-.16-.59a3.84,3.84,0,0,0-.47-.3c-.27-.18-.29.1-.4-.34s-.13-.31-.24-.53-.19-.15-.06-.47a6.68,6.68,0,0,0,.25-1c0-.09.23-.16.26,0s-.09.27.08.29.56,0,.61.24l.07.25s.16-.1.17.07.06.19.21.24.33-.1.27.1-.17.31-.09.39-.07.35.06.21.3-.16.44-.36.12-.28.24-.3.17-.23.47-.27.43-.56.37-.77a1.92,1.92,0,0,0-.19-.54,2.48,2.48,0,0,0-.55-.8c-.38-.45-.62-.48-.5-.75s.05-.29.26-.49.43-.42.66-.4.36,0,.36.07a.27.27,0,0,0,.11.19s.12.4.16.13-.07-.26.17-.31a5.55,5.55,0,0,0,.55-.16c.17,0,0-.3.23-.2s.05,0,.28,0a.92.92,0,0,0,.38-.07,1.55,1.55,0,0,0,.49-.08c.13-1.33.19-2.68.19-4A43.09,43.09,0,0,0,92.73,31.81Z"/><path class="cls-3" d="M50.62,73.31s-.25-.09-.54-.17-.34-.32-.48-.41a10.28,10.28,0,0,0-1.25-.33s-.69.15-.8,0-.27-.4-.27-.4a1.15,1.15,0,0,0-.33-.15c-.13,0,0-.11-.28.09s0,.11-.3.19.08.22-.45.07-.52-.19-.57-.29,0-.35,0-.35.3-.25.3-.43A2,2,0,0,0,45,69.87c-.43-.27.11-.35-.77-.36s-.7,0-1.18-.26-.29-.32-.57-.54-.67-.38-.9-.55-.24-.24-.56-.22-.35,0-.8,0-.89.07-1-.09a1.06,1.06,0,0,0-.34-.33c-.28.32-.2.17-.33.46a1.35,1.35,0,0,0-.13.48l-.32-.61s.27-.57-.07-.39-.5.08-.72.35,0-.1-.25.31.06.22-.28.41l-.33.19-.21-.25L36,68.35a1,1,0,0,0-.17-.09l-.15,0a.53.53,0,0,0-.25.06.35.35,0,0,1-.25,0l-.3,0a1.77,1.77,0,0,1-.51-.2c-.21-.14-.24-.92-.24-.92l.14-.69-.1-.36a.84.84,0,0,0-.47-.13c-.33,0-.27,0-.27,0H33L32.58,66l0-.21.08-.3.16-.23a2.9,2.9,0,0,0,.07-.55c0-.31.12-.23.22-.49s-.26-.16-.26-.16a2.74,2.74,0,0,0-.92.26c-.62.25-.06.2-.06.2l-.38.51H31s0,.16-.41.1l-.1,0L30.16,65a2,2,0,0,1-.37-.37,2.05,2.05,0,0,1-.23-.92c0-.4,0-1.25,0-1.62a.55.55,0,0,1,.3-.47.87.87,0,0,1,.32-.3c.2-.1.29-.31.66-.41a6,6,0,0,1,.9-.07c.67-.07.18,0,.44,0a1.31,1.31,0,0,1,.84,0c.52.19.26-.06.64.06s0,0,.33.22a5.42,5.42,0,0,1,.44.34l.18.49.19.38c.2.38.15.25.43.37s0-.25,0-.25a.85.85,0,0,0,.13-.31c0-.2-.06-.35-.2-.58s-.06-.28-.12-.37,0-.56,0-.56a1.73,1.73,0,0,1,.19-.56,1.49,1.49,0,0,1,.28-.37,2.26,2.26,0,0,1,.92-.6c.63-.24.29-.63.29-.63v-.51l-.08-.52s.08-.15.47-.26.3-.72.3-.72a1.43,1.43,0,0,1,.53-.29A3.06,3.06,0,0,1,38.8,56c.33,0,0-.15,0-.15l-.16-.41.38-.49a2,2,0,0,0,.68-.32,7.85,7.85,0,0,1,.82-.58c.28-.19,0,0,.06.28s-.09.08-.09.08a1.08,1.08,0,0,0-.18.5c0,.19.22.08.3,0a3.22,3.22,0,0,1,.38-.38,1.41,1.41,0,0,1,.57-.2L41.24,54s-.27.08-.37-.4-.28-.3-.28-.3l-.32-.2c-.32-.21.17-.3.17-.3l.15-.18-.19-.19a2.21,2.21,0,0,0-.35,0c-.24,0-.2,0-.6.19a2.37,2.37,0,0,1-.73.3l.27-.09.49-.49s.28-.19.53-.34a7.49,7.49,0,0,1,.76-.32l.53,0,.73-.06.37,0,.36-.43c.24-.3.15-.09.4-.11a.8.8,0,0,0,.45-.3l.19-.11-.14-.32a3.84,3.84,0,0,0,0-.42c0-.34-.29,0-.29,0l-.1,0v-.13s-.07-.19-.1-.25-.4.18-.4.18l-.24.1-.26.09h-.16l-.16,0h.1a.59.59,0,0,1,.2-.13.76.76,0,0,0,.2-.08l.22-.14a.9.9,0,0,1,.39-.16c.27,0,.07-.07.11-.1s-.37-.08-.54-.14a2.39,2.39,0,0,1-.53-.48l-.49-.35v-.6l-.07-.42a3.87,3.87,0,0,1-.58-1,1.47,1.47,0,0,1-.22-.53h-.15l-.19.44-.38.64-.18.19c-.17.2-.3-.1-.3-.1H39.4l-.4-.25,0-.44L39,46l0-.51-.22-.15-.16-.12a1.32,1.32,0,0,1-.32-.46c-.18-.35-.09.11-.36-.36s-.46,0-.46,0a1.59,1.59,0,0,0-.35-.3c-.22-.15-.22.15-.8,0L36.1,44s0,.35.21,1.36-.05.26-.05.26l-.31.51,0,.37.21.18a.59.59,0,0,0,.34.46c.33.2-.07.17.15.52a1,1,0,0,1,.12.71l-.22.08c-.22.09,0,0-.15.16s-.27.09-.41.23-.38.09-.39.29a1.29,1.29,0,0,0,.24.57l.11.41-.21.54a.42.42,0,0,1,.09.28c0,.11-.27.29-.27.29l-.24,0L35,51l-.26-.66a3.7,3.7,0,0,0,.11-.66c0-.23-.21-.44-.25-.58s-.22-.22-1-.66-1.48-.62-1.62-.8-.75.16-.75.2-.25-.69-.25-.69l-.22-.41-.23-.2L30.41,46a1.92,1.92,0,0,0,.07-.65c-.06-.2,0-.24,0-.24l.26-.31.17-.42a.61.61,0,0,1,.39-.44c.3-.07.6-.21.53-.29s-.1-.06-.19-.17a1.9,1.9,0,0,0-.73-.36c-.39-.13-.17-.14-.17-.14a3.91,3.91,0,0,1,.54,0c.33,0,.13,0,.43.27s.17,0,.44-.16.06-.1.06-.1l.3-.14.2-.35c.05-.09.07,0,.42-.34S32.6,42,32.6,42L32,41.77c-.23-.08-.05-.17.13-.38s0,0,.18,0,0,.07.52.31.22,0,.22,0a1.36,1.36,0,0,0,.17-.25c.11-.19,0-.1.08-.21s-.11-.19-.11-.19-.07-.17.07-.24.18,0,.34,0,.16.08.3.19a.14.14,0,0,0,.22-.05.63.63,0,0,1,.08-.27c.09-.16.15.07.3.12s.2-.21.2-.21A1.16,1.16,0,0,0,35,40.1c.05-.3-.29-.53-.29-.53l-.09-.26,0-.3.22,0s.06-.15,0-.21l-.21-.33a.88.88,0,0,0-.3-.39c-.23-.19-.18.06-.39-.08s-.33.2-.33.2l.05.46-.08.3a1.75,1.75,0,0,0-.12.26,3.45,3.45,0,0,1-.19.57c-.1.19-.12.24-.2.41s-.24,0-.24,0l-.1-.09L32.62,40l0-.4,0-.26h.15l.06-.15V39l-.15-.14-.14-.28-.23-.14-.1.37a4,4,0,0,0-.16.43c-.12.33,0-.16,0-.16l-.06-.26c0-.1-.16-.18-.16-.24s-.09-.31-.09-.31l-.08-.07-.09-.1-.17-.13.06-.06,0-.08-.12-.15-.09-.2.27-.07c.26-.07,0,0,0-.16s0,0-.18-.21,0,0-.1-.13,0,0-.1-.41-.05-.38-.05-.38l-.12-.21h-.18l-.12,0-.22-.25,0,0-.13.23-.07.24v.26c0,.16-.12.14-.12.14l-.06.2,0,.24-.11.43.09.26a1.15,1.15,0,0,1,.24.18c.08.09.11.12.32.17a.89.89,0,0,1,.34.16l-.1.23-.1,0a.87.87,0,0,1-.15.34c-.13.22,0,0,.1,0s.12,0,.24-.06,0,.07,0,.07v.32a.54.54,0,0,1-.15.21c-.14.14-.11.15-.11.15s-.25-.05-.33.08,0,.27,0,.53-.18,0-.18,0L29.88,40c-.19-.11,0,0,0-.24s0,0,0-.15,0,0-.11-.18-.17,0-.17,0l-.2-.13h-.21l.06.23.12.1.19.2c.08.1,0,.06-.18.09s-.1,0-.3-.25,0,.25-.06.21a1.42,1.42,0,0,0-.51,0,1.76,1.76,0,0,1-.5,0c-.38-.06-.21,0-.33-.17s-.21-.08-.41-.09-.38-.27-.49-.46-.2-.28-.35-.24-.47.17-.5.33.45-.12.64-.15-.11.34-.11.34a2.28,2.28,0,0,0-.38.13.18.18,0,0,0-.07.31l.05.42.15.39s0,.11-.22.14-.09-.15-.09-.15-.11-.38-.17-.55-.17,0-.58-.25-.17,0-.17,0l-.26.06-.78,0-.47-.08.11-.25.16-.21a.91.91,0,0,0-.14-.39c-.12-.21-.3,0-.75-.22s-.67-.27-1-.44a42.72,42.72,0,0,0-4.19,10.34.68.68,0,0,0,.32.23c.3.11.12.32.25.61a2.68,2.68,0,0,0,.56.87,3.54,3.54,0,0,0,.83.85,11.56,11.56,0,0,1,1.21.79c.38.35.22.92-.42.68s0,.39-.06.72.11.33,0,1.86A2.87,2.87,0,0,0,20.58,57c0,.22.32.53.55,1.18s.05.07.62.81.44.33,1.07.93a3,3,0,0,1,.79,1.42c.14.3.11,0,0,.4s.09.17.52.68a6.85,6.85,0,0,0,.76.77l.35.38a6,6,0,0,0-.71-1.35c-.34-.35-.25-.61-.58-1.18s-.16-.56-.16-.56-.27-.52,0-.25.09,0,.38.4.25.16.74.59a6.75,6.75,0,0,1,.54.52l.2.68a3.68,3.68,0,0,0,.46.74c.33.41.21.45.38,1s0,0,.57.75.28.2.76.43.6.61,1.44.73.51.09.95-.08.14,0,.43,0,.17.12.34.2.15.24.25.32a2.28,2.28,0,0,0,.42.26,4.22,4.22,0,0,0,.93.2,1.42,1.42,0,0,1,.45.29l.48.44a1.1,1.1,0,0,0,.26.47c.19.16.11,0,.21.09s.06,0,.27.27,0,0,.51.27.22.08.4.19.09,0,.19-.15.08-.11.29-.3.07-.09.45.27a1.41,1.41,0,0,1,.28.33,2.18,2.18,0,0,0,0,.63c.07.55.27.49-.09.85a2.76,2.76,0,0,1-.51.44s-.34.44-.43.6.07.32,0,.39,0,.08.06.26.26.26-.09.56-.49.1-.34.34a3.76,3.76,0,0,0,.6.61s.77,1.7,1,2.2.15.84.66.94a1.75,1.75,0,0,1,.88.41,1.38,1.38,0,0,1,.73,1.54c-.1,1.12-.66,2.46-.53,3.1s.13.11,0,1,0,.91-.16,1.36a3.81,3.81,0,0,1-.25.73,3,3,0,0,0-.29,1.2,4.74,4.74,0,0,1,0,1s.17-.21.14.61a5.57,5.57,0,0,1-.14,1.71A2.59,2.59,0,0,0,37.45,91a3.56,3.56,0,0,0,.41,1,3.52,3.52,0,0,1,.26.38s.12.8.27.85,0-.29.33-.49c.13-.07.2-.24.33-.27s.46.05.3-.09a.89.89,0,0,1-.12-1.05c.32-.64.42-.66.69-1.17s-.21-1.09-.21-1.09,0-.23.29-.27.51,0,.5-.29.2-.27.17-.64.16-.54,0-.74-.23-.5-.12-.45.21.39.53.19a1.09,1.09,0,0,0,.43-1c0-.3,0,0,.44,0a7.52,7.52,0,0,0,.82-.15s.52-.3.46-.73-.25-.48-.31-.93-.27-.67.12-.38.07.24.55.33a1.34,1.34,0,0,0,.72,0s.25-.12.47-.67a3,3,0,0,1,.49-1c.18-.15.29-.12.1.17s-.47.59-.21.46.18-.24.39-.56.63-.67.69-1-.3-.29,0-.71a4.55,4.55,0,0,1,.69-.9c.16-.09.57-.22.85-.34s.44.16.68-.12.15-.22.29-.52.52-.28.58-.85a3.69,3.69,0,0,0,.08-1,1.32,1.32,0,0,1,.38-1.28c.45-.43.35-.11.64-.6s.34-.37.35-.78a5.14,5.14,0,0,0,0-.69A.47.47,0,0,0,50.62,73.31Z"/><path class="cls-3" d="M25.26,63.58Z"/><path class="cls-3" d="M40.74,45.68H41S40.73,45.49,40.74,45.68Z"/><path class="cls-3" d="M36.1,44h0C36.17,44,35.86,43.92,36.1,44Z"/><path class="cls-3" d="M57.1,22.77c.74-.52.65-.1,1.08-.81s.09-.44.39-.87.35-.22.3-.44-1.1-1.29-1.77-.82-.52.18-.93.83a7.47,7.47,0,0,1-.89,1.12,4,4,0,0,0-.79.64c0-.24.07-.78.07-.78l.3-1.68s.21-.95-.17-.65.17,1-.74,1.13-1,.6-.93.35-.54.91,0-.26,1.06-1.25.72-1.19,1.1-.31-.57.05-1.42.17-1.8.44-.78,1.2-.52.43-1.63.24.25-.76.28-.66,1.88-1,1.23.22,1.6-.35.68-.56.68-.56.84-.53,0-.48-.54-.09-.79-.17a1.4,1.4,0,0,1-.44-.39,44.8,44.8,0,0,0-6.46,1.31c-1.12.32-2.23.69-3.32,1.1-.7.27-1.4.55-2.08.84l-.38.68L41.09,22a1.46,1.46,0,0,1-.35,1c-.39.39-.56.52-.52.76a4.41,4.41,0,0,0,.56,1s.43.27-.13.6a13.35,13.35,0,0,0-1.25.9l-.9.68-.2.68.22.33s.62.62,1,.64.92-.09.68.09a9,9,0,0,0-1,1.28s-.19.6.29.6a4.15,4.15,0,0,0,1.11-.1c.57-.11.59-.65,1.32.05A5.64,5.64,0,0,1,43.06,32s.44,1.43.72,2.06.62.17.79,1S45,37,45,37s0,1.41,0,2a6.62,6.62,0,0,1,0,1.43c-.06.26-.62.57-.32,1.21a9.11,9.11,0,0,0,1,1.56,4.39,4.39,0,0,1,.52.9,2.15,2.15,0,0,1,.22.72c0,.4.24.45.24.45l.53.22c.48-.39.09.94.48-.39a14.63,14.63,0,0,1,.43-1.52c.22-.56.25-.16.85-1s-.44-.66.72-1.06.43.31,1.15-.61.56-.39.71-.92.77-.53,1.07-.6a1.47,1.47,0,0,1,.61,0s.67.1.88-.44.7-.3.76-.52,1.12,0,0-.39a6.78,6.78,0,0,0-1.4-.41s-.63-.12-.47-.45a1.26,1.26,0,0,1,.34-.47l.17-.61.72.28a1.35,1.35,0,0,0,.6.4l0-.34-.7-1.08s-.9-.12-.54-.82.41-.56.57-.68.46,0,.46,0,.31.54.62,0a1.27,1.27,0,0,0,.08-1.06s-.4-.45-.08-.61.26.34.53-.16.5-.36.25-1.1-.46.2-.25-.74,0-.28,0-1,.4-.64,0-1.05-.81,0-.54-1,0-.6.31-1.22.34,0,.36-.86a3.09,3.09,0,0,1,.11-1l.3-.61s-.27.1.17-.24A3.84,3.84,0,0,1,57.1,22.77Z"/><path class="cls-3" d="M33.11,30c1.28.07.09,0,.5-.1a7.19,7.19,0,0,1,1.58.18,3.18,3.18,0,0,1,.51.08s-.16-.05-.11-.13.21-.37.21-.37a2.77,2.77,0,0,0-.83-.73c-.37-.14,0,0,.06-.37s.14-.29.58-.37a2.73,2.73,0,0,1,.5-.07,3.08,3.08,0,0,0,.63-.74c.26-.42.29-.48.29-.48l.19-.54a3.17,3.17,0,0,0-.72-.46c-.38-.17-.21-.31-.18-.64s.41-.27.58-.54.61-.14,1.06-.35a1.09,1.09,0,0,0,.61-.56,2.27,2.27,0,0,0,.39-.67,1.6,1.6,0,0,1,.66-1,2.16,2.16,0,0,0,.64-.79l.87-.91v-.16a42.21,42.21,0,0,0-6.2,3.56l-.43.29-.73.53c0,.12.07.26.12.43.31,1.06.07.21.23.53s0,0,.56.68-.37-.1-.37-.1a3.24,3.24,0,0,0-.59-.15c-.37,0-.22,0-.65.25s0,.25.1.81.19,0,.67.14.07,0,.07.3,0,0-.46.21-.09.37-.18.6,0,0-.26-.1L32.34,28c-.28-.09,0,.15.13.93s0,.18-.38.45,0,0-.26.51S31.83,29.91,33.11,30Z"/><path class="cls-3" d="M100.77,70.71c-.11.13,0,0-.12.2s0,0-.2,0a.44.44,0,0,1-.22-.08s-.21.07-.24.13,0,.08,0,.23a2.46,2.46,0,0,1,0,.26c0,.14.06.14.07.16a2,2,0,0,1,.23.26c.1.16,0,.09.12.39s0,.11.08.27.06,0,.18,0h0c.23-.71.43-1.44.62-2.17a1,1,0,0,1-.38.18A.86.86,0,0,0,100.77,70.71Z"/><path class="cls-5" d="M25,93.93l-7.58,7.59A59.74,59.74,0,0,0,29.73,111l5.36-9.29A49.2,49.2,0,0,1,25,93.93Z"/><path class="cls-6" d="M35.09,101.69,29.73,111a59.35,59.35,0,0,0,14.34,5.94l2.78-10.36A49.28,49.28,0,0,1,35.09,101.69Z"/><path class="cls-5" d="M17.25,83.84,8,89.21a59.74,59.74,0,0,0,9.46,12.31L25,93.93A48.89,48.89,0,0,1,17.25,83.84Z"/><path class="cls-5" d="M10.73,59.47a48.63,48.63,0,0,1,1.65-12.62L2,44.07a59.23,59.23,0,0,0-2,15.4H10.73Z"/><path class="cls-5" d="M12.38,72.09,2,74.86A59,59,0,0,0,8,89.21l9.29-5.37A48.23,48.23,0,0,1,12.38,72.09Z"/><path class="cls-5" d="M10.73,59.47H0A59.21,59.21,0,0,0,2,74.86l10.36-2.77A48.69,48.69,0,0,1,10.73,59.47Z"/><path class="cls-6" d="M106.56,72.09a49,49,0,0,1-4.87,11.75L111,89.21a59.42,59.42,0,0,0,5.94-14.35Z"/><path class="cls-6" d="M93.93,93.93l7.59,7.59A59.74,59.74,0,0,0,111,89.21l-9.29-5.37A48.93,48.93,0,0,1,93.93,93.93Z"/><path class="cls-6" d="M83.84,101.69,89.21,111a59.74,59.74,0,0,0,12.31-9.46l-7.59-7.59A48.93,48.93,0,0,1,83.84,101.69Z"/><path class="cls-6" d="M46.85,106.56l-2.78,10.36a59.66,59.66,0,0,0,15.4,2V108.21A49.06,49.06,0,0,1,46.85,106.56Z"/><path class="cls-6" d="M72.09,106.56l2.77,10.36A59.42,59.42,0,0,0,89.21,111l-5.37-9.29A49,49,0,0,1,72.09,106.56Z"/><path class="cls-6" d="M59.47,108.21h0v10.73h0a59.64,59.64,0,0,0,15.39-2l-2.77-10.36A49.12,49.12,0,0,1,59.47,108.21Z"/><path class="cls-2" d="M101.69,35.09,111,29.73a59.74,59.74,0,0,0-9.46-12.31L93.93,25A49.2,49.2,0,0,1,101.69,35.09Z"/><path class="cls-6" d="M106.56,46.85l10.36-2.78A59.35,59.35,0,0,0,111,29.73l-9.29,5.36A49.28,49.28,0,0,1,106.56,46.85Z"/><path class="cls-2" d="M93.93,25l7.59-7.58A59.74,59.74,0,0,0,89.21,8l-5.37,9.29A48.89,48.89,0,0,1,93.93,25Z"/><path class="cls-6" d="M106.56,72.09l10.36,2.77a59.64,59.64,0,0,0,2-15.39H108.21A49.12,49.12,0,0,1,106.56,72.09Z"/><path class="cls-2" d="M83.84,17.25,89.21,8A59,59,0,0,0,74.86,2L72.09,12.38A48.23,48.23,0,0,1,83.84,17.25Z"/><path class="cls-6" d="M108.21,59.47h10.73a59.66,59.66,0,0,0-2-15.4l-10.36,2.78A49.06,49.06,0,0,1,108.21,59.47Z"/><path class="cls-7" d="M17.25,35.09,8,29.73A59,59,0,0,0,2,44.07l10.36,2.78A48.47,48.47,0,0,1,17.25,35.09Z"/><path class="cls-7" d="M35.09,17.25,29.73,8a59.74,59.74,0,0,0-12.31,9.46L25,25A49.15,49.15,0,0,1,35.09,17.25Z"/><path class="cls-7" d="M25,25l-7.58-7.58A59.74,59.74,0,0,0,8,29.73l9.29,5.36A49.15,49.15,0,0,1,25,25Z"/><path class="cls-7" d="M46.85,12.38,44.07,2A59,59,0,0,0,29.73,8l5.36,9.29A48.47,48.47,0,0,1,46.85,12.38Z"/><path class="cls-2" d="M59.47,10.73a48.69,48.69,0,0,1,12.62,1.65L74.86,2A59.21,59.21,0,0,0,59.47,0h0V10.73Z"/><path class="cls-2" d="M59.47,10.73V0a59.23,59.23,0,0,0-15.4,2l2.78,10.36A48.63,48.63,0,0,1,59.47,10.73Z"/></g></g></svg>